%TF.GenerationSoftware,KiCad,Pcbnew,7.0.11+dfsg-1build4*%
%TF.CreationDate,2026-09-30T06:23:01+00:00*%
%TF.ProjectId,opencycle,6f70656e-6379-4636-9c65-2e6b69636164,rev?*%
%TF.SameCoordinates,Original*%
%TF.FileFunction,Soldermask,Top*%
%TF.FilePolarity,Negative*%
%FSLAX46Y46*%
G04 Gerber Fmt 4.6, Leading zero omitted, Abs format (unit mm)*
G04 Created by KiCad (PCBNEW 7.0.11+dfsg-1build4) date 2026-09-30 06:23:01*
%MOMM*%
%LPD*%
G01*
G04 APERTURE LIST*
G04 Aperture macros list*
%AMRoundRect*
0 Rectangle with rounded corners*
0 $1 Rounding radius*
0 $2 $3 $4 $5 $6 $7 $8 $9 X,Y pos of 4 corners*
0 Add a 4 corners polygon primitive as box body*
4,1,4,$2,$3,$4,$5,$6,$7,$8,$9,$2,$3,0*
0 Add four circle primitives for the rounded corners*
1,1,$1+$1,$2,$3*
1,1,$1+$1,$4,$5*
1,1,$1+$1,$6,$7*
1,1,$1+$1,$8,$9*
0 Add four rect primitives between the rounded corners*
20,1,$1+$1,$2,$3,$4,$5,0*
20,1,$1+$1,$4,$5,$6,$7,0*
20,1,$1+$1,$6,$7,$8,$9,0*
20,1,$1+$1,$8,$9,$2,$3,0*%
G04 Aperture macros list end*
%ADD10RoundRect,0.225000X0.250000X-0.225000X0.250000X0.225000X-0.250000X0.225000X-0.250000X-0.225000X0*%
%ADD11RoundRect,0.140000X0.170000X-0.140000X0.170000X0.140000X-0.170000X0.140000X-0.170000X-0.140000X0*%
%ADD12R,0.300000X1.300000*%
%ADD13R,1.800000X2.200000*%
%ADD14RoundRect,0.135000X-0.135000X-0.185000X0.135000X-0.185000X0.135000X0.185000X-0.135000X0.185000X0*%
%ADD15RoundRect,0.250000X0.475000X-0.250000X0.475000X0.250000X-0.475000X0.250000X-0.475000X-0.250000X0*%
%ADD16RoundRect,0.225000X-0.225000X-0.250000X0.225000X-0.250000X0.225000X0.250000X-0.225000X0.250000X0*%
%ADD17C,0.700000*%
%ADD18C,4.400000*%
%ADD19RoundRect,0.075000X-0.250000X-0.075000X0.250000X-0.075000X0.250000X0.075000X-0.250000X0.075000X0*%
%ADD20R,0.650000X1.050000*%
%ADD21RoundRect,0.140000X-0.140000X-0.170000X0.140000X-0.170000X0.140000X0.170000X-0.140000X0.170000X0*%
%ADD22RoundRect,0.200000X0.275000X-0.200000X0.275000X0.200000X-0.275000X0.200000X-0.275000X-0.200000X0*%
%ADD23RoundRect,0.135000X0.185000X-0.135000X0.185000X0.135000X-0.185000X0.135000X-0.185000X-0.135000X0*%
%ADD24RoundRect,0.150000X-0.587500X-0.150000X0.587500X-0.150000X0.587500X0.150000X-0.587500X0.150000X0*%
%ADD25RoundRect,0.175000X-0.725000X-0.175000X0.725000X-0.175000X0.725000X0.175000X-0.725000X0.175000X0*%
%ADD26RoundRect,0.200000X-0.700000X-0.200000X0.700000X-0.200000X0.700000X0.200000X-0.700000X0.200000X0*%
%ADD27RoundRect,0.218750X-0.218750X-0.256250X0.218750X-0.256250X0.218750X0.256250X-0.218750X0.256250X0*%
%ADD28C,1.500000*%
%ADD29RoundRect,0.375000X-0.625000X-0.375000X0.625000X-0.375000X0.625000X0.375000X-0.625000X0.375000X0*%
%ADD30RoundRect,0.500000X-0.500000X-1.400000X0.500000X-1.400000X0.500000X1.400000X-0.500000X1.400000X0*%
%ADD31RoundRect,0.100000X-0.900000X0.900000X-0.900000X-0.900000X0.900000X-0.900000X0.900000X0.900000X0*%
%ADD32RoundRect,0.150000X-1.350000X1.350000X-1.350000X-1.350000X1.350000X-1.350000X1.350000X1.350000X0*%
%ADD33C,0.990600*%
%ADD34C,0.650000*%
%ADD35O,1.000000X1.800000*%
%ADD36O,1.000000X2.100000*%
%ADD37C,0.900000*%
G04 APERTURE END LIST*
D10*
%TO.C,C9*%
X18600000Y-44175000D03*
X18600000Y-42625000D03*
%TD*%
D11*
%TO.C,C10*%
X20600000Y-43880000D03*
X20600000Y-42920000D03*
%TD*%
D12*
%TO.C,J3*%
X16250000Y-46850000D03*
X16750000Y-46850000D03*
X17250000Y-46850000D03*
X17750000Y-46850000D03*
X18250000Y-46850000D03*
X18750000Y-46850000D03*
X19250000Y-46850000D03*
X19750000Y-46850000D03*
X20250000Y-46850000D03*
X20750000Y-46850000D03*
X21250000Y-46850000D03*
X21750000Y-46850000D03*
X22250000Y-46850000D03*
X22750000Y-46850000D03*
X23250000Y-46850000D03*
X23750000Y-46850000D03*
X24250000Y-46850000D03*
X24750000Y-46850000D03*
X25250000Y-46850000D03*
X25750000Y-46850000D03*
X26250000Y-46850000D03*
X26750000Y-46850000D03*
X27250000Y-46850000D03*
X27750000Y-46850000D03*
X28250000Y-46850000D03*
X28750000Y-46850000D03*
X29250000Y-46850000D03*
X29750000Y-46850000D03*
X30250000Y-46850000D03*
X30750000Y-46850000D03*
X31250000Y-46850000D03*
X31750000Y-46850000D03*
X32250000Y-46850000D03*
X32750000Y-46850000D03*
X33250000Y-46850000D03*
X33750000Y-46850000D03*
X34250000Y-46850000D03*
X34750000Y-46850000D03*
X35250000Y-46850000D03*
X35750000Y-46850000D03*
D13*
X14350000Y-50100000D03*
X37650000Y-50100000D03*
%TD*%
D14*
%TO.C,R9*%
X39690000Y-40600000D03*
X40710000Y-40600000D03*
%TD*%
%TO.C,R4*%
X38690000Y-13900000D03*
X39710000Y-13900000D03*
%TD*%
D15*
%TO.C,C12*%
X8400000Y-40350000D03*
X8400000Y-38450000D03*
%TD*%
D16*
%TO.C,C11*%
X9425000Y-27800000D03*
X10975000Y-27800000D03*
%TD*%
D17*
%TO.C,H4*%
X43850000Y-85900000D03*
X44333274Y-84733274D03*
X44333274Y-87066726D03*
X45500000Y-84250000D03*
D18*
X45500000Y-85900000D03*
D17*
X45500000Y-87550000D03*
X46666726Y-84733274D03*
X46666726Y-87066726D03*
X47150000Y-85900000D03*
%TD*%
D19*
%TO.C,U4*%
X39900000Y-8750000D03*
X39900000Y-9400000D03*
X39900000Y-10050000D03*
X41700000Y-10050000D03*
X41700000Y-9400000D03*
X41700000Y-8750000D03*
%TD*%
D20*
%TO.C,SW3*%
X37165000Y-85775000D03*
X37165000Y-81625000D03*
X39315000Y-85775000D03*
X39315000Y-81625000D03*
%TD*%
D21*
%TO.C,C8*%
X40320000Y-12200000D03*
X41280000Y-12200000D03*
%TD*%
D22*
%TO.C,R7*%
X35000000Y-44425000D03*
X35000000Y-42775000D03*
%TD*%
D23*
%TO.C,R10*%
X43400000Y-44310000D03*
X43400000Y-43290000D03*
%TD*%
D24*
%TO.C,Q1*%
X39262500Y-42850000D03*
X39262500Y-44750000D03*
X41137500Y-43800000D03*
%TD*%
D14*
%TO.C,R2*%
X36490000Y-11400000D03*
X37510000Y-11400000D03*
%TD*%
D25*
%TO.C,U3*%
X10200000Y-5200000D03*
D26*
X10200000Y-6300000D03*
X10200000Y-7400000D03*
X10200000Y-8500000D03*
X10200000Y-9600000D03*
X10200000Y-10700000D03*
X10200000Y-11800000D03*
X10200000Y-12900000D03*
D25*
X10200000Y-14000000D03*
X19700000Y-14000000D03*
D26*
X19700000Y-12900000D03*
X19700000Y-11800000D03*
X19700000Y-10700000D03*
X19700000Y-9600000D03*
X19700000Y-8500000D03*
X19700000Y-7400000D03*
X19700000Y-6300000D03*
D25*
X19700000Y-5200000D03*
%TD*%
D27*
%TO.C,D1*%
X36212500Y-9400000D03*
X37787500Y-9400000D03*
%TD*%
D28*
%TO.C,FID3*%
X4600000Y-45000000D03*
%TD*%
%TO.C,FID2*%
X32400000Y-88000000D03*
%TD*%
D20*
%TO.C,SW2*%
X24925000Y-85775000D03*
X24925000Y-81625000D03*
X27075000Y-85775000D03*
X27075000Y-81625000D03*
%TD*%
D22*
%TO.C,R8*%
X36700000Y-44425000D03*
X36700000Y-42775000D03*
%TD*%
%TO.C,R5*%
X31600000Y-44425000D03*
X31600000Y-42775000D03*
%TD*%
D17*
%TO.C,H1*%
X4850000Y-6500000D03*
X5333274Y-5333274D03*
X5333274Y-7666726D03*
X6500000Y-4850000D03*
D18*
X6500000Y-6500000D03*
D17*
X6500000Y-8150000D03*
X7666726Y-5333274D03*
X7666726Y-7666726D03*
X8150000Y-6500000D03*
%TD*%
D29*
%TO.C,U5*%
X8650000Y-30700000D03*
X8650000Y-33000000D03*
D30*
X14950000Y-33000000D03*
D29*
X8650000Y-35300000D03*
%TD*%
D22*
%TO.C,R6*%
X33299999Y-44425000D03*
X33299999Y-42775000D03*
%TD*%
D21*
%TO.C,C7*%
X14520000Y-16900000D03*
X15480000Y-16900000D03*
%TD*%
D17*
%TO.C,H2*%
X43850000Y-6500000D03*
X44333274Y-5333274D03*
X44333274Y-7666726D03*
X45500000Y-4850000D03*
D18*
X45500000Y-6500000D03*
D17*
X45500000Y-8150000D03*
X46666726Y-5333274D03*
X46666726Y-7666726D03*
X47150000Y-6500000D03*
%TD*%
D28*
%TO.C,FID1*%
X19600000Y-88000000D03*
%TD*%
D20*
%TO.C,SW1*%
X12685000Y-85775000D03*
X12685000Y-81625000D03*
X14835000Y-85775000D03*
X14835000Y-81625000D03*
%TD*%
D31*
%TO.C,AE1*%
X22300000Y-9400000D03*
D32*
X31700000Y-4900000D03*
X31700000Y-9400000D03*
X31700000Y-13900000D03*
X27200000Y-4900000D03*
X27200000Y-9400000D03*
X27200000Y-13900000D03*
X22700000Y-4900000D03*
X22700000Y-13900000D03*
%TD*%
D17*
%TO.C,H3*%
X4850000Y-85900000D03*
X5333274Y-84733274D03*
X5333274Y-87066726D03*
X6500000Y-84250000D03*
D18*
X6500000Y-85900000D03*
D17*
X6500000Y-87550000D03*
X7666726Y-84733274D03*
X7666726Y-87066726D03*
X8150000Y-85900000D03*
%TD*%
D14*
%TO.C,R3*%
X36490000Y-13400000D03*
X37510000Y-13400000D03*
%TD*%
D16*
%TO.C,C6*%
X11225000Y-16900000D03*
X12775000Y-16900000D03*
%TD*%
D11*
%TO.C,C13*%
X10400000Y-39880000D03*
X10400000Y-38920000D03*
%TD*%
D33*
%TO.C,J5*%
X38540000Y-34000000D03*
X33460000Y-35016000D03*
X33460000Y-32984000D03*
%TD*%
D34*
%TO.C,J1*%
X28890000Y-83995000D03*
X23110000Y-83995000D03*
D35*
X30320000Y-87675000D03*
D36*
X30320000Y-83495000D03*
D35*
X21680000Y-87675000D03*
D36*
X21680000Y-83495000D03*
%TD*%
D37*
%TO.C,SW5*%
X46550000Y-31875000D03*
X46550000Y-36125000D03*
%TD*%
D33*
%TO.C,J4*%
X22040000Y-38200000D03*
X16960000Y-39216000D03*
X16960000Y-37184000D03*
%TD*%
D37*
%TO.C,SW4*%
X5450000Y-36125000D03*
X5450000Y-31875000D03*
%TD*%
M02*
