%TF.GenerationSoftware,KiCad,Pcbnew,7.0.11+dfsg-1build4*%
%TF.CreationDate,2026-09-30T06:05:13+00:00*%
%TF.ProjectId,opencycle,6f70656e-6379-4636-9c65-2e6b69636164,rev?*%
%TF.SameCoordinates,Original*%
%TF.FileFunction,Copper,L1,Top*%
%TF.FilePolarity,Positive*%
%FSLAX46Y46*%
G04 Gerber Fmt 4.6, Leading zero omitted, Abs format (unit mm)*
G04 Created by KiCad (PCBNEW 7.0.11+dfsg-1build4) date 2026-09-30 06:05:13*
%MOMM*%
%LPD*%
G01*
G04 APERTURE LIST*
G04 Aperture macros list*
%AMRoundRect*
0 Rectangle with rounded corners*
0 $1 Rounding radius*
0 $2 $3 $4 $5 $6 $7 $8 $9 X,Y pos of 4 corners*
0 Add a 4 corners polygon primitive as box body*
4,1,4,$2,$3,$4,$5,$6,$7,$8,$9,$2,$3,0*
0 Add four circle primitives for the rounded corners*
1,1,$1+$1,$2,$3*
1,1,$1+$1,$4,$5*
1,1,$1+$1,$6,$7*
1,1,$1+$1,$8,$9*
0 Add four rect primitives between the rounded corners*
20,1,$1+$1,$2,$3,$4,$5,0*
20,1,$1+$1,$4,$5,$6,$7,0*
20,1,$1+$1,$6,$7,$8,$9,0*
20,1,$1+$1,$8,$9,$2,$3,0*%
G04 Aperture macros list end*
%TA.AperFunction,SMDPad,CuDef*%
%ADD10R,0.300000X1.300000*%
%TD*%
%TA.AperFunction,SMDPad,CuDef*%
%ADD11R,1.800000X2.200000*%
%TD*%
%TA.AperFunction,SMDPad,CuDef*%
%ADD12C,0.750000*%
%TD*%
%TA.AperFunction,SMDPad,CuDef*%
%ADD13RoundRect,0.200000X0.275000X-0.200000X0.275000X0.200000X-0.275000X0.200000X-0.275000X-0.200000X0*%
%TD*%
%TA.AperFunction,SMDPad,CuDef*%
%ADD14RoundRect,0.140000X0.170000X-0.140000X0.170000X0.140000X-0.170000X0.140000X-0.170000X-0.140000X0*%
%TD*%
%TA.AperFunction,SMDPad,CuDef*%
%ADD15RoundRect,0.135000X-0.135000X-0.185000X0.135000X-0.185000X0.135000X0.185000X-0.135000X0.185000X0*%
%TD*%
%TA.AperFunction,SMDPad,CuDef*%
%ADD16RoundRect,0.225000X-0.225000X-0.250000X0.225000X-0.250000X0.225000X0.250000X-0.225000X0.250000X0*%
%TD*%
%TA.AperFunction,ComponentPad*%
%ADD17C,0.700000*%
%TD*%
%TA.AperFunction,ComponentPad*%
%ADD18C,4.400000*%
%TD*%
%TA.AperFunction,SMDPad,CuDef*%
%ADD19RoundRect,0.175000X-0.725000X-0.175000X0.725000X-0.175000X0.725000X0.175000X-0.725000X0.175000X0*%
%TD*%
%TA.AperFunction,SMDPad,CuDef*%
%ADD20RoundRect,0.200000X-0.700000X-0.200000X0.700000X-0.200000X0.700000X0.200000X-0.700000X0.200000X0*%
%TD*%
%TA.AperFunction,SMDPad,CuDef*%
%ADD21RoundRect,0.375000X-0.625000X-0.375000X0.625000X-0.375000X0.625000X0.375000X-0.625000X0.375000X0*%
%TD*%
%TA.AperFunction,SMDPad,CuDef*%
%ADD22RoundRect,0.500000X-0.500000X-1.400000X0.500000X-1.400000X0.500000X1.400000X-0.500000X1.400000X0*%
%TD*%
%TA.AperFunction,SMDPad,CuDef*%
%ADD23RoundRect,0.100000X-0.900000X0.900000X-0.900000X-0.900000X0.900000X-0.900000X0.900000X0.900000X0*%
%TD*%
%TA.AperFunction,SMDPad,CuDef*%
%ADD24RoundRect,0.150000X-1.350000X1.350000X-1.350000X-1.350000X1.350000X-1.350000X1.350000X1.350000X0*%
%TD*%
%TA.AperFunction,SMDPad,CuDef*%
%ADD25RoundRect,0.135000X0.185000X-0.135000X0.185000X0.135000X-0.185000X0.135000X-0.185000X-0.135000X0*%
%TD*%
%TA.AperFunction,SMDPad,CuDef*%
%ADD26RoundRect,0.218750X-0.218750X-0.256250X0.218750X-0.256250X0.218750X0.256250X-0.218750X0.256250X0*%
%TD*%
%TA.AperFunction,SMDPad,CuDef*%
%ADD27R,0.650000X1.050000*%
%TD*%
%TA.AperFunction,SMDPad,CuDef*%
%ADD28RoundRect,0.150000X-0.587500X-0.150000X0.587500X-0.150000X0.587500X0.150000X-0.587500X0.150000X0*%
%TD*%
%TA.AperFunction,SMDPad,CuDef*%
%ADD29RoundRect,0.250000X0.475000X-0.250000X0.475000X0.250000X-0.475000X0.250000X-0.475000X-0.250000X0*%
%TD*%
%TA.AperFunction,SMDPad,CuDef*%
%ADD30RoundRect,0.140000X-0.140000X-0.170000X0.140000X-0.170000X0.140000X0.170000X-0.140000X0.170000X0*%
%TD*%
%TA.AperFunction,SMDPad,CuDef*%
%ADD31RoundRect,0.225000X0.250000X-0.225000X0.250000X0.225000X-0.250000X0.225000X-0.250000X-0.225000X0*%
%TD*%
%TA.AperFunction,SMDPad,CuDef*%
%ADD32RoundRect,0.075000X-0.250000X-0.075000X0.250000X-0.075000X0.250000X0.075000X-0.250000X0.075000X0*%
%TD*%
%TA.AperFunction,HeatsinkPad*%
%ADD33C,0.600000*%
%TD*%
%TA.AperFunction,ComponentPad*%
%ADD34O,1.000000X1.800000*%
%TD*%
%TA.AperFunction,ComponentPad*%
%ADD35O,1.000000X2.100000*%
%TD*%
%TA.AperFunction,ViaPad*%
%ADD36C,0.500000*%
%TD*%
%TA.AperFunction,ViaPad*%
%ADD37C,0.450000*%
%TD*%
%TA.AperFunction,Conductor*%
%ADD38C,0.250000*%
%TD*%
%TA.AperFunction,Conductor*%
%ADD39C,0.200000*%
%TD*%
%TA.AperFunction,Conductor*%
%ADD40C,0.500000*%
%TD*%
%TA.AperFunction,Conductor*%
%ADD41C,0.400000*%
%TD*%
G04 APERTURE END LIST*
D10*
%TO.P,J3,1*%
%TO.N,GND*%
X16250000Y-46850000D03*
%TO.P,J3,2*%
%TO.N,N/C*%
X16750000Y-46850000D03*
%TO.P,J3,3*%
X17250000Y-46850000D03*
%TO.P,J3,4*%
X17750000Y-46850000D03*
%TO.P,J3,5*%
X18250000Y-46850000D03*
%TO.P,J3,6*%
X18750000Y-46850000D03*
%TO.P,J3,7*%
%TO.N,+3V3*%
X19250000Y-46850000D03*
%TO.P,J3,8*%
X19750000Y-46850000D03*
%TO.P,J3,9*%
%TO.N,LCD_MOSI*%
X20250000Y-46850000D03*
%TO.P,J3,10*%
%TO.N,LCD_CS*%
X20750000Y-46850000D03*
%TO.P,J3,11*%
%TO.N,LCD_SCK*%
X21250000Y-46850000D03*
%TO.P,J3,12*%
%TO.N,LCD_DC*%
X21750000Y-46850000D03*
%TO.P,J3,13*%
%TO.N,GND*%
X22250000Y-46850000D03*
%TO.P,J3,14*%
X22750000Y-46850000D03*
%TO.P,J3,15*%
X23250000Y-46850000D03*
%TO.P,J3,16*%
X23750000Y-46850000D03*
%TO.P,J3,17*%
X24250000Y-46850000D03*
%TO.P,J3,18*%
X24750000Y-46850000D03*
%TO.P,J3,19*%
X25250000Y-46850000D03*
%TO.P,J3,20*%
X25750000Y-46850000D03*
%TO.P,J3,21*%
X26250000Y-46850000D03*
%TO.P,J3,22*%
X26750000Y-46850000D03*
%TO.P,J3,23*%
X27250000Y-46850000D03*
%TO.P,J3,24*%
X27750000Y-46850000D03*
%TO.P,J3,25*%
X28250000Y-46850000D03*
%TO.P,J3,26*%
X28750000Y-46850000D03*
%TO.P,J3,27*%
X29250000Y-46850000D03*
%TO.P,J3,28*%
X29750000Y-46850000D03*
%TO.P,J3,29*%
X30250000Y-46850000D03*
%TO.P,J3,30*%
%TO.N,LCD_RST*%
X30750000Y-46850000D03*
%TO.P,J3,31*%
%TO.N,GND*%
X31250000Y-46850000D03*
%TO.P,J3,32*%
%TO.N,+3V3*%
X31750000Y-46850000D03*
%TO.P,J3,33*%
X32250000Y-46850000D03*
%TO.P,J3,34*%
%TO.N,LED_K1*%
X32750000Y-46850000D03*
%TO.P,J3,35*%
%TO.N,LED_K2*%
X33250000Y-46850000D03*
%TO.P,J3,36*%
%TO.N,LED_K3*%
X33750000Y-46850000D03*
%TO.P,J3,37*%
%TO.N,LED_K4*%
X34250000Y-46850000D03*
%TO.P,J3,38*%
%TO.N,VBAT*%
X34750000Y-46850000D03*
%TO.P,J3,39*%
%TO.N,GND*%
X35250000Y-46850000D03*
%TO.P,J3,40*%
%TO.N,LCD_TE*%
X35750000Y-46850000D03*
D11*
%TO.P,J3,MP*%
%TO.N,GND*%
X14350000Y-50100000D03*
X37650000Y-50100000D03*
%TD*%
D12*
%TO.P,FID3,*%
%TO.N,*%
X4600000Y-45000000D03*
%TD*%
D13*
%TO.P,R5,1*%
%TO.N,LED_K1*%
X31600000Y-44425000D03*
%TO.P,R5,2*%
%TO.N,BL_SW*%
X31600000Y-42775000D03*
%TD*%
%TO.P,R7,1*%
%TO.N,LED_K3*%
X35000000Y-44425000D03*
%TO.P,R7,2*%
%TO.N,BL_SW*%
X35000000Y-42775000D03*
%TD*%
D14*
%TO.P,C13,1*%
%TO.N,+3V3*%
X10400000Y-39880000D03*
%TO.P,C13,2*%
%TO.N,GND*%
X10400000Y-38920000D03*
%TD*%
D15*
%TO.P,R3,1*%
%TO.N,+3V3*%
X36490000Y-13400000D03*
%TO.P,R3,2*%
%TO.N,I2C_SDA*%
X37510000Y-13400000D03*
%TD*%
D14*
%TO.P,C10,1*%
%TO.N,+3V3*%
X20600000Y-43880000D03*
%TO.P,C10,2*%
%TO.N,GND*%
X20600000Y-42920000D03*
%TD*%
D15*
%TO.P,R2,1*%
%TO.N,VBUS*%
X36490000Y-11400000D03*
%TO.P,R2,2*%
%TO.N,LED_A*%
X37510000Y-11400000D03*
%TD*%
D16*
%TO.P,C11,1*%
%TO.N,VBAT*%
X9425000Y-27800000D03*
%TO.P,C11,2*%
%TO.N,GND*%
X10975000Y-27800000D03*
%TD*%
%TO.P,C6,1*%
%TO.N,+3V3*%
X11225000Y-16900000D03*
%TO.P,C6,2*%
%TO.N,GND*%
X12775000Y-16900000D03*
%TD*%
D17*
%TO.P,H2,1*%
%TO.N,GND*%
X43850000Y-6500000D03*
X44333274Y-5333274D03*
X44333274Y-7666726D03*
X45500000Y-4850000D03*
D18*
X45500000Y-6500000D03*
D17*
X45500000Y-8150000D03*
X46666726Y-5333274D03*
X46666726Y-7666726D03*
X47150000Y-6500000D03*
%TD*%
%TO.P,H4,1*%
%TO.N,GND*%
X43850000Y-85900000D03*
X44333274Y-84733274D03*
X44333274Y-87066726D03*
X45500000Y-84250000D03*
D18*
X45500000Y-85900000D03*
D17*
X45500000Y-87550000D03*
X46666726Y-84733274D03*
X46666726Y-87066726D03*
X47150000Y-85900000D03*
%TD*%
D19*
%TO.P,U3,1*%
%TO.N,GND*%
X10200000Y-5200000D03*
D20*
%TO.P,U3,2*%
%TO.N,GPS_TX*%
X10200000Y-6300000D03*
%TO.P,U3,3*%
%TO.N,GPS_RX*%
X10200000Y-7400000D03*
%TO.P,U3,4*%
%TO.N,N/C*%
X10200000Y-8500000D03*
%TO.P,U3,5*%
%TO.N,GPS_EXTINT*%
X10200000Y-9600000D03*
%TO.P,U3,6*%
%TO.N,+3V3*%
X10200000Y-10700000D03*
%TO.P,U3,7*%
X10200000Y-11800000D03*
%TO.P,U3,8*%
X10200000Y-12900000D03*
D19*
%TO.P,U3,9*%
%TO.N,GPS_RST*%
X10200000Y-14000000D03*
%TO.P,U3,10*%
%TO.N,GND*%
X19700000Y-14000000D03*
D20*
%TO.P,U3,11*%
%TO.N,RF_IN*%
X19700000Y-12900000D03*
%TO.P,U3,12*%
%TO.N,GND*%
X19700000Y-11800000D03*
%TO.P,U3,13*%
%TO.N,N/C*%
X19700000Y-10700000D03*
%TO.P,U3,14*%
X19700000Y-9600000D03*
%TO.P,U3,15*%
X19700000Y-8500000D03*
%TO.P,U3,16*%
X19700000Y-7400000D03*
%TO.P,U3,17*%
X19700000Y-6300000D03*
D19*
%TO.P,U3,18*%
X19700000Y-5200000D03*
%TD*%
D21*
%TO.P,U5,1*%
%TO.N,VBAT*%
X8650000Y-30700000D03*
%TO.P,U5,2*%
%TO.N,GND*%
X8650000Y-33000000D03*
D22*
X14950000Y-33000000D03*
D21*
%TO.P,U5,3*%
%TO.N,+3V3*%
X8650000Y-35300000D03*
%TD*%
D23*
%TO.P,AE1,1*%
%TO.N,RF_IN*%
X22300000Y-9400000D03*
D24*
%TO.P,AE1,2*%
%TO.N,GND*%
X31700000Y-4900000D03*
%TO.P,AE1,3*%
X31700000Y-9400000D03*
%TO.P,AE1,4*%
X31700000Y-13900000D03*
%TO.P,AE1,5*%
X27200000Y-4900000D03*
%TO.P,AE1,6*%
X27200000Y-9400000D03*
%TO.P,AE1,7*%
X27200000Y-13900000D03*
%TO.P,AE1,8*%
X22700000Y-4900000D03*
%TO.P,AE1,9*%
X22700000Y-13900000D03*
%TD*%
D25*
%TO.P,R10,1*%
%TO.N,BL_G*%
X43400000Y-44310000D03*
%TO.P,R10,2*%
%TO.N,GND*%
X43400000Y-43290000D03*
%TD*%
D26*
%TO.P,D1,1*%
%TO.N,CHG_STAT*%
X36212500Y-9400000D03*
%TO.P,D1,2*%
%TO.N,LED_A*%
X37787500Y-9400000D03*
%TD*%
D15*
%TO.P,R4,1*%
%TO.N,+3V3*%
X38690000Y-13900000D03*
%TO.P,R4,2*%
%TO.N,I2C_SCL*%
X39710000Y-13900000D03*
%TD*%
D27*
%TO.P,SW1,1*%
%TO.N,KEY_L*%
X12685000Y-85775000D03*
X12685000Y-81625000D03*
%TO.P,SW1,2*%
%TO.N,GND*%
X14835000Y-85775000D03*
X14835000Y-81625000D03*
%TD*%
D28*
%TO.P,Q1,1*%
%TO.N,BL_G*%
X39262500Y-42850000D03*
%TO.P,Q1,2*%
%TO.N,GND*%
X39262500Y-44750000D03*
%TO.P,Q1,3*%
%TO.N,BL_SW*%
X41137500Y-43800000D03*
%TD*%
D15*
%TO.P,R9,1*%
%TO.N,LCD_BL*%
X39690000Y-40600000D03*
%TO.P,R9,2*%
%TO.N,BL_G*%
X40710000Y-40600000D03*
%TD*%
D27*
%TO.P,SW3,1*%
%TO.N,KEY_R*%
X37165000Y-85775000D03*
X37165000Y-81625000D03*
%TO.P,SW3,2*%
%TO.N,GND*%
X39315000Y-85775000D03*
X39315000Y-81625000D03*
%TD*%
D17*
%TO.P,H1,1*%
%TO.N,GND*%
X4850000Y-6500000D03*
X5333274Y-5333274D03*
X5333274Y-7666726D03*
X6500000Y-4850000D03*
D18*
X6500000Y-6500000D03*
D17*
X6500000Y-8150000D03*
X7666726Y-5333274D03*
X7666726Y-7666726D03*
X8150000Y-6500000D03*
%TD*%
D29*
%TO.P,C12,1*%
%TO.N,+3V3*%
X8400000Y-40350000D03*
%TO.P,C12,2*%
%TO.N,GND*%
X8400000Y-38450000D03*
%TD*%
D17*
%TO.P,H3,1*%
%TO.N,GND*%
X4850000Y-85900000D03*
X5333274Y-84733274D03*
X5333274Y-87066726D03*
X6500000Y-84250000D03*
D18*
X6500000Y-85900000D03*
D17*
X6500000Y-87550000D03*
X7666726Y-84733274D03*
X7666726Y-87066726D03*
X8150000Y-85900000D03*
%TD*%
D13*
%TO.P,R6,1*%
%TO.N,LED_K2*%
X33299999Y-44425000D03*
%TO.P,R6,2*%
%TO.N,BL_SW*%
X33299999Y-42775000D03*
%TD*%
%TO.P,R8,1*%
%TO.N,LED_K4*%
X36700000Y-44425000D03*
%TO.P,R8,2*%
%TO.N,BL_SW*%
X36700000Y-42775000D03*
%TD*%
D30*
%TO.P,C7,1*%
%TO.N,+3V3*%
X14520000Y-16900000D03*
%TO.P,C7,2*%
%TO.N,GND*%
X15480000Y-16900000D03*
%TD*%
D31*
%TO.P,C9,1*%
%TO.N,+3V3*%
X18600000Y-44175000D03*
%TO.P,C9,2*%
%TO.N,GND*%
X18600000Y-42625000D03*
%TD*%
D30*
%TO.P,C8,1*%
%TO.N,+3V3*%
X40320000Y-12200000D03*
%TO.P,C8,2*%
%TO.N,GND*%
X41280000Y-12200000D03*
%TD*%
D12*
%TO.P,FID2,*%
%TO.N,*%
X32400000Y-88000000D03*
%TD*%
D27*
%TO.P,SW2,1*%
%TO.N,KEY_C*%
X24925000Y-85775000D03*
X24925000Y-81625000D03*
%TO.P,SW2,2*%
%TO.N,GND*%
X27075000Y-85775000D03*
X27075000Y-81625000D03*
%TD*%
D32*
%TO.P,U4,1*%
%TO.N,+3V3*%
X39900000Y-8750000D03*
%TO.P,U4,2*%
%TO.N,N/C*%
X39900000Y-9400000D03*
%TO.P,U4,3*%
%TO.N,GND*%
X39900000Y-10050000D03*
%TO.P,U4,4*%
%TO.N,I2C_SCL*%
X41700000Y-10050000D03*
%TO.P,U4,5*%
%TO.N,N/C*%
X41700000Y-9400000D03*
%TO.P,U4,6*%
%TO.N,I2C_SDA*%
X41700000Y-8750000D03*
%TD*%
D12*
%TO.P,FID1,*%
%TO.N,*%
X19600000Y-88000000D03*
%TD*%
D33*
%TO.P,U1,41*%
%TO.N,GND*%
X33090000Y-23900000D03*
X34490000Y-23900000D03*
X32390000Y-23200000D03*
X33790000Y-23200000D03*
X35190000Y-23200000D03*
X33090000Y-22500000D03*
X34490000Y-22500000D03*
X32390000Y-21800000D03*
X33790000Y-21800000D03*
X35190000Y-21800000D03*
X33090000Y-21100000D03*
X34490000Y-21100000D03*
%TD*%
D34*
%TO.P,J1,S1*%
%TO.N,GND*%
X30320000Y-87675000D03*
D35*
X30320000Y-83495000D03*
D34*
X21680000Y-87675000D03*
D35*
X21680000Y-83495000D03*
%TD*%
D36*
%TO.N,GND*%
X26849999Y-46850000D03*
X27000000Y-87000000D03*
X19500000Y-72000000D03*
X32000000Y-57000000D03*
X42000000Y-84500000D03*
X12000000Y-37000000D03*
X41280000Y-13309999D03*
X36000000Y-38770000D03*
X23218198Y-46381801D03*
X22250000Y-45750000D03*
X39431801Y-10518198D03*
X45600000Y-50325000D03*
X47000000Y-62000000D03*
X32000000Y-67000000D03*
X14450000Y-79250000D03*
X12000000Y-42000000D03*
X39500000Y-64500000D03*
X17000000Y-79500000D03*
X42000000Y-47000000D03*
X35250000Y-47950000D03*
X19500000Y-64500000D03*
X19500000Y-62000000D03*
X40700000Y-82550000D03*
X4500000Y-12000000D03*
X9300000Y-78750000D03*
X4500000Y-79500000D03*
X39958198Y-86418198D03*
X4500000Y-77000000D03*
X32000000Y-59500000D03*
X9500000Y-67000000D03*
X32000000Y-54500000D03*
X37000000Y-4500000D03*
X22000000Y-54500000D03*
X37000000Y-39500000D03*
X29200000Y-81895000D03*
X12000000Y-19500000D03*
X42000000Y-7000000D03*
X42000000Y-32000000D03*
X27000000Y-74500000D03*
X29500000Y-59500000D03*
X5000000Y-34000000D03*
X47000000Y-42000000D03*
X31400000Y-38770000D03*
X29500000Y-14500000D03*
X32000000Y-7000000D03*
X39500000Y-54500000D03*
X27000000Y-72000000D03*
X32000000Y-49500000D03*
X20600000Y-42190000D03*
X22000000Y-19500000D03*
X44500000Y-64500000D03*
X8400000Y-37500000D03*
X34500000Y-87000000D03*
X26750000Y-45750000D03*
X44300000Y-34000000D03*
X13000000Y-50100000D03*
X44500000Y-9500000D03*
X22360000Y-16920000D03*
X39500000Y-57000000D03*
X14950000Y-32000000D03*
X29500000Y-54500000D03*
X47000000Y-9500000D03*
X47000000Y-67000000D03*
X12000000Y-39500000D03*
X29500000Y-62000000D03*
X7631801Y-16531801D03*
X29500000Y-72000000D03*
X39500000Y-4500000D03*
X42000000Y-64500000D03*
X39500000Y-62000000D03*
X9500000Y-62000000D03*
X7000000Y-19500000D03*
X28250000Y-79800000D03*
X22000000Y-49500000D03*
X11924999Y-29400000D03*
X39500000Y-59500000D03*
X12000000Y-44500000D03*
X42000000Y-59500000D03*
X29818198Y-82301801D03*
X24500000Y-49500000D03*
X42000000Y-52000000D03*
X46568198Y-47169301D03*
X19800000Y-78925000D03*
X4500000Y-72000000D03*
X25250000Y-45750000D03*
X29218198Y-46381801D03*
X27000000Y-49500000D03*
X12000000Y-47000000D03*
X15480000Y-15989999D03*
X42000000Y-72000000D03*
X29500000Y-19500000D03*
X44500000Y-39500000D03*
X47000000Y-82000000D03*
X41510000Y-11050000D03*
X32000000Y-72000000D03*
X7581801Y-34068198D03*
X27000000Y-67000000D03*
X17000000Y-87000000D03*
X32000000Y-52000000D03*
X20368198Y-14668198D03*
X42000000Y-62000000D03*
X10400000Y-38190000D03*
X19500000Y-22000000D03*
X38671801Y-80981801D03*
X24500000Y-52000000D03*
X22181801Y-82301801D03*
X27000000Y-57000000D03*
X44500000Y-57000000D03*
X4500000Y-52000000D03*
X48368198Y-36618198D03*
X14950000Y-34000000D03*
X18230000Y-39678700D03*
X14500000Y-19500000D03*
X34500000Y-4500000D03*
X46100000Y-49775000D03*
X29500000Y-74500000D03*
X28250000Y-45750000D03*
X9500000Y-87000000D03*
X14500000Y-22000000D03*
X9500000Y-42000000D03*
X37555698Y-73031801D03*
X47000000Y-39500000D03*
X15478198Y-80981801D03*
X12000000Y-87000000D03*
X7000000Y-82000000D03*
X19500000Y-57000000D03*
X14500000Y-4500000D03*
X22800000Y-81895000D03*
X17000000Y-77000000D03*
X29500000Y-64500000D03*
X22000000Y-59500000D03*
X5200000Y-29500000D03*
X9500000Y-52000000D03*
X22000000Y-64500000D03*
X31250000Y-45750000D03*
X22360000Y-28120000D03*
X27000000Y-64500000D03*
X43400000Y-42570000D03*
X44500000Y-62000000D03*
X27849999Y-81625000D03*
X4500000Y-57000000D03*
X9500000Y-49500000D03*
X34500000Y-7000000D03*
X17000000Y-82000000D03*
X19500000Y-24500000D03*
X24950000Y-7150000D03*
X17000000Y-74500000D03*
X7000000Y-29500000D03*
X27000000Y-69500000D03*
X21600000Y-11850000D03*
X47000000Y-69500000D03*
X47000000Y-64500000D03*
X39500000Y-67000000D03*
X4500000Y-47000000D03*
X22000000Y-62000000D03*
X19500000Y-69500000D03*
X47000000Y-54500000D03*
X41510000Y-30950000D03*
X9500000Y-37000000D03*
X30250000Y-47950000D03*
X42000000Y-57000000D03*
X19500000Y-19500000D03*
X18600000Y-41724999D03*
X12775000Y-15975000D03*
X47268198Y-79818198D03*
X48368198Y-31381801D03*
X19500000Y-67000000D03*
X3631801Y-36618198D03*
X32200000Y-82970000D03*
X4500000Y-9500000D03*
X31521801Y-24768198D03*
X17000000Y-42000000D03*
X17468198Y-17681801D03*
X4500000Y-54500000D03*
X17018198Y-27468198D03*
X32000000Y-64500000D03*
X44500000Y-82000000D03*
X7000000Y-24500000D03*
X37000000Y-7000000D03*
X39000000Y-50100000D03*
X12665000Y-79000000D03*
X47000000Y-72000000D03*
X44500000Y-72000000D03*
X44500000Y-74500000D03*
X4500000Y-42000000D03*
X44500000Y-54500000D03*
X39500000Y-72000000D03*
X14950000Y-33000000D03*
X7000000Y-22000000D03*
X19500000Y-52000000D03*
X47000000Y-74500000D03*
X29750000Y-45750000D03*
X7800000Y-73725000D03*
X11743198Y-28568198D03*
X42000000Y-87000000D03*
X22000000Y-69500000D03*
X44500000Y-67000000D03*
X19800000Y-82970000D03*
X29450000Y-7150000D03*
X29849999Y-46850000D03*
X28349999Y-46850000D03*
X44631801Y-47169301D03*
X27718198Y-46381801D03*
X37600000Y-80125000D03*
X27718198Y-86418198D03*
X42000000Y-69500000D03*
X9500000Y-44500000D03*
X22000000Y-67000000D03*
X39631801Y-73581801D03*
X44390000Y-51400000D03*
X39500000Y-69500000D03*
X15720000Y-30160000D03*
X34730000Y-35478700D03*
X9500000Y-22000000D03*
X14500000Y-87000000D03*
X32799999Y-38790000D03*
X7000000Y-79500000D03*
X17000000Y-4500000D03*
X36849999Y-78400000D03*
X29500000Y-57000000D03*
X29500000Y-49500000D03*
X11850000Y-76700000D03*
X44500000Y-69500000D03*
X42000000Y-4500000D03*
X12000000Y-4500000D03*
X19500000Y-17000000D03*
X27000000Y-59500000D03*
X9500000Y-57000000D03*
X22000000Y-74500000D03*
X19500000Y-59500000D03*
X18349999Y-11800000D03*
X9531801Y-4531801D03*
X4500000Y-67000000D03*
X27000000Y-54500000D03*
X47000000Y-57000000D03*
X19500000Y-77000000D03*
X24500000Y-4500000D03*
X24150000Y-46850000D03*
X47000000Y-44500000D03*
X15650000Y-46850000D03*
X47000000Y-59500000D03*
X22000000Y-57000000D03*
X9500000Y-54500000D03*
X4500000Y-49500000D03*
X12000000Y-24500000D03*
X27000000Y-62000000D03*
X9500000Y-69500000D03*
X27000000Y-52000000D03*
X32000000Y-74500000D03*
X15478198Y-86418198D03*
X39500000Y-84500000D03*
X33370000Y-81200000D03*
X22650000Y-46850000D03*
X4500000Y-69500000D03*
X14600000Y-74770000D03*
X32000000Y-82000000D03*
X29500000Y-69500000D03*
X32000000Y-69500000D03*
X32000000Y-62000000D03*
X9500000Y-72000000D03*
X9600000Y-74190000D03*
X9500000Y-24500000D03*
X26218198Y-46381801D03*
X42000000Y-54500000D03*
X39500000Y-47000000D03*
X29500000Y-67000000D03*
X9500000Y-59500000D03*
X24718198Y-46381801D03*
X42000000Y-79500000D03*
X4500000Y-74500000D03*
X22000000Y-72000000D03*
X31400000Y-76725000D03*
X46830698Y-49118198D03*
X42000000Y-67000000D03*
X39500000Y-52000000D03*
X4500000Y-64500000D03*
X19500000Y-54500000D03*
X42000000Y-49500000D03*
X9500000Y-47000000D03*
X3631801Y-31381801D03*
X27000000Y-44500000D03*
X9500000Y-64500000D03*
X4500000Y-39500000D03*
X29500000Y-4500000D03*
X7000000Y-9500000D03*
X4500000Y-62000000D03*
X4500000Y-82000000D03*
X23750000Y-45750000D03*
X27000000Y-7000000D03*
X38644301Y-45368198D03*
X44500000Y-59500000D03*
X29500000Y-52000000D03*
X13899999Y-78750000D03*
%TO.N,+3V3*%
X30600000Y-37230000D03*
X7581801Y-36368198D03*
X35901801Y-13988198D03*
X17410000Y-29400000D03*
X21600000Y-18610000D03*
X22370000Y-26910000D03*
X14520000Y-15989999D03*
X39431801Y-8281801D03*
X46974999Y-48150000D03*
X18600000Y-45074999D03*
X19750000Y-47950000D03*
X17950000Y-19000000D03*
X20781801Y-16368198D03*
X10400000Y-40610000D03*
X38101801Y-14488198D03*
X40240000Y-30950000D03*
X8850000Y-10700000D03*
X44384314Y-49878185D03*
X8400000Y-41300000D03*
X15143198Y-28631801D03*
X11225000Y-15975000D03*
X25000000Y-37230000D03*
X32250000Y-45750000D03*
X9481801Y-12518198D03*
X20600000Y-44610000D03*
X19250000Y-45750000D03*
X27800000Y-37230000D03*
X46810000Y-51400000D03*
X40320000Y-10890000D03*
X37981898Y-35346898D03*
X8850000Y-12900000D03*
X29200000Y-37230000D03*
X44369301Y-49118198D03*
X26400000Y-37230000D03*
X31750000Y-47950000D03*
X21481898Y-39546898D03*
%TO.N,KEY_C*%
X17179700Y-48350200D03*
%TO.N,KEY_R*%
X28500000Y-26790000D03*
X37082500Y-24677800D03*
X37252100Y-31573800D03*
X28500000Y-36899800D03*
%TO.N,BTN_PWR*%
X17472000Y-44675500D03*
X15701500Y-36527000D03*
%TO.N,BTN_MENU*%
X31432600Y-34889500D03*
X32045800Y-36695000D03*
X31432600Y-31751200D03*
%TO.N,I2S_BCLK*%
X22139200Y-40977500D03*
X29548600Y-32830400D03*
%TO.N,I2S_DIN*%
X23559200Y-41245700D03*
X23501900Y-34853000D03*
%TO.N,I2C_SCL*%
X40875000Y-28161600D03*
D37*
X43587500Y-48150000D03*
D36*
%TO.N,I2C_SDA*%
X38099300Y-27818800D03*
D37*
X45600000Y-46387500D03*
D36*
%TO.N,USB_DN*%
X26000000Y-77808500D03*
X26000000Y-50714600D03*
X26913200Y-43064500D03*
X26913200Y-31194500D03*
%TO.N,USB_DP*%
X23910300Y-77808500D03*
X17803300Y-30151400D03*
%TO.N,AMP_EN*%
X24498100Y-42762900D03*
X25436600Y-28169300D03*
%TO.N,LCD_DC*%
X22310300Y-25517000D03*
%TO.N,LCD_CS*%
X20106400Y-26509900D03*
%TO.N,LCD_MOSI*%
X19597800Y-25997500D03*
%TO.N,LCD_SCK*%
X20811400Y-23992400D03*
%TO.N,LCD_TE*%
X30418100Y-24356700D03*
%TO.N,LCD_RST*%
X29915100Y-23466200D03*
%TO.N,LCD_BL*%
X36747700Y-21182300D03*
%TO.N,BLE_RST*%
X23625000Y-30752900D03*
X25653300Y-17319300D03*
%TO.N,GPS_EXTINT*%
X12800000Y-13813600D03*
%TO.N,KEY_L*%
X25727400Y-37088600D03*
X26294100Y-40127700D03*
X26349100Y-15970100D03*
X14521500Y-54268800D03*
%TO.N,GPS_TX*%
X11810300Y-7856200D03*
%TO.N,GPS_RX*%
X12587400Y-10522500D03*
%TO.N,GPS_RST*%
X15022600Y-10238000D03*
%TO.N,CON_RX*%
X37573800Y-21999700D03*
X38122000Y-30930700D03*
%TO.N,CON_TX*%
X39663100Y-31897500D03*
X38485000Y-15479200D03*
%TO.N,VBUS_SENSE*%
X37615100Y-37028900D03*
X38623900Y-19669800D03*
%TO.N,VBAT_SENSE*%
X35268200Y-37916600D03*
X35268200Y-26790000D03*
%TO.N,BLE_SWDIO*%
X10444900Y-31214800D03*
X11240900Y-30591100D03*
%TO.N,CHG_STAT*%
X32184800Y-41017500D03*
X36819700Y-76743300D03*
X36819700Y-51609300D03*
%TO.N,VBUS*%
X34777000Y-41225400D03*
X34458300Y-75988200D03*
X37871100Y-44544000D03*
%TO.N,LED_K1*%
X32750000Y-47922300D03*
X30793000Y-44949800D03*
%TO.N,VBAT*%
X8782700Y-76175000D03*
D37*
X34750000Y-45600000D03*
D36*
X11179700Y-81645600D03*
%TO.N,USB_DP_C*%
X26050500Y-79897600D03*
X25620100Y-84048400D03*
%TO.N,CC2*%
X24225000Y-83905800D03*
X26513200Y-84759600D03*
%TD*%
D38*
%TO.N,GND*%
X26750000Y-46850000D02*
X26750000Y-45750000D01*
X27250000Y-46850000D02*
X27718198Y-46381801D01*
X28250000Y-46850000D02*
X28250000Y-45750000D01*
X24750000Y-46850000D02*
X24150000Y-46850000D01*
X31250000Y-46850000D02*
X31250000Y-45750000D01*
X19700000Y-11800000D02*
X18349999Y-11800000D01*
D39*
X22700000Y-16580000D02*
X22700000Y-13900000D01*
X22360000Y-16920000D02*
X22700000Y-16580000D01*
D38*
X10400000Y-38920000D02*
X10400000Y-38190000D01*
X27075000Y-85775000D02*
X27718198Y-86418198D01*
X16250000Y-46850000D02*
X15650000Y-46850000D01*
X14350000Y-50100000D02*
X13000000Y-50100000D01*
X37650000Y-50100000D02*
X39000000Y-50100000D01*
X29750000Y-46850000D02*
X29750000Y-45750000D01*
X18600000Y-42625000D02*
X18600000Y-41724999D01*
X14835000Y-85775000D02*
X15478198Y-86418198D01*
X8400000Y-38450000D02*
X8400000Y-37500000D01*
X39315000Y-85775000D02*
X39958198Y-86418198D01*
X25750000Y-46850000D02*
X26218198Y-46381801D01*
X39900000Y-10050000D02*
X39431801Y-10518198D01*
X15480000Y-16900000D02*
X15480000Y-15989999D01*
X20600000Y-42920000D02*
X20600000Y-42190000D01*
X23250000Y-46850000D02*
X22650000Y-46850000D01*
X28750000Y-46850000D02*
X29218198Y-46381801D01*
X14835000Y-81625000D02*
X15478198Y-80981801D01*
X24250000Y-46850000D02*
X24718198Y-46381801D01*
X39262500Y-44750000D02*
X38644301Y-45368198D01*
X43400000Y-43290000D02*
X43400000Y-42570000D01*
X8650000Y-33000000D02*
X7581801Y-34068198D01*
X25250000Y-46850000D02*
X25250000Y-45750000D01*
X26250000Y-46850000D02*
X26849999Y-46850000D01*
X19700000Y-14000000D02*
X20368198Y-14668198D01*
X41280000Y-12200000D02*
X41280000Y-13309999D01*
X27750000Y-46850000D02*
X28349999Y-46850000D01*
X22250000Y-46850000D02*
X22250000Y-45750000D01*
X35250000Y-46850000D02*
X35250000Y-47950000D01*
X23750000Y-46850000D02*
X23750000Y-45750000D01*
X10200000Y-5200000D02*
X9531801Y-4531801D01*
X22750000Y-46850000D02*
X23218198Y-46381801D01*
X39315000Y-81625000D02*
X38671801Y-80981801D01*
X27075000Y-81625000D02*
X27849999Y-81625000D01*
X12775000Y-16900000D02*
X12775000Y-15975000D01*
X29250000Y-46850000D02*
X29849999Y-46850000D01*
X30250000Y-46850000D02*
X30250000Y-47950000D01*
X10975000Y-27800000D02*
X11743198Y-28568198D01*
%TO.N,+3V3*%
X19750000Y-46850000D02*
X19750000Y-47950000D01*
X38690000Y-13900000D02*
X38101801Y-14488198D01*
X31750000Y-46850000D02*
X31750000Y-47950000D01*
X10200000Y-11800000D02*
X9481801Y-12518198D01*
X32250000Y-46850000D02*
X32250000Y-45750000D01*
X40320000Y-12200000D02*
X40320000Y-10890000D01*
X14520000Y-16900000D02*
X14520000Y-15989999D01*
X11225000Y-16900000D02*
X11225000Y-15975000D01*
X10200000Y-10700000D02*
X8850000Y-10700000D01*
X39900000Y-8750000D02*
X39431801Y-8281801D01*
X19250000Y-46850000D02*
X19250000Y-45750000D01*
X10400000Y-39880000D02*
X10400000Y-40610000D01*
X20600000Y-43880000D02*
X20600000Y-44610000D01*
X18600000Y-44175000D02*
X18600000Y-45074999D01*
X10200000Y-12900000D02*
X8850000Y-12900000D01*
X8400000Y-40350000D02*
X8400000Y-41300000D01*
X8650000Y-35300000D02*
X7581801Y-36368198D01*
X36490000Y-13400000D02*
X35901801Y-13988198D01*
D39*
%TO.N,KEY_C*%
X24925000Y-81625000D02*
X24925000Y-84998100D01*
X17179700Y-48350200D02*
X17179700Y-73102800D01*
X24925000Y-81625000D02*
X24925000Y-80848100D01*
X24925000Y-85775000D02*
X24925000Y-84998100D01*
X17179700Y-73102800D02*
X24925000Y-80848100D01*
%TO.N,KEY_R*%
X37105500Y-37251900D02*
X37105500Y-31720400D01*
X37165000Y-80848100D02*
X37597700Y-80848100D01*
X37252100Y-31573800D02*
X37082500Y-31404200D01*
X44012500Y-44565300D02*
X44012500Y-42436600D01*
X28500000Y-36899800D02*
X28500000Y-26790000D01*
X43004400Y-45573400D02*
X44012500Y-44565300D01*
X37105500Y-31720400D02*
X37252100Y-31573800D01*
X37502900Y-37649300D02*
X37105500Y-37251900D01*
X44012500Y-42436600D02*
X39225200Y-37649300D01*
X37082500Y-31404200D02*
X37082500Y-24677800D01*
X43004400Y-75441400D02*
X43004400Y-45573400D01*
X39225200Y-37649300D02*
X37502900Y-37649300D01*
X37165000Y-81625000D02*
X37165000Y-80848100D01*
X37597700Y-80848100D02*
X43004400Y-75441400D01*
X37165000Y-85775000D02*
X37165000Y-81625000D01*
%TO.N,BTN_PWR*%
X15701500Y-42905000D02*
X15701500Y-36527000D01*
X17472000Y-44675500D02*
X15701500Y-42905000D01*
%TO.N,BTN_MENU*%
X32045800Y-36695000D02*
X31858400Y-36507600D01*
X31858400Y-35315300D02*
X31432600Y-34889500D01*
X31858400Y-36507600D02*
X31858400Y-35315300D01*
X31432600Y-34889500D02*
X31432600Y-31751200D01*
%TO.N,I2S_BCLK*%
X29701900Y-32983700D02*
X29548600Y-32830400D01*
X24585800Y-43586500D02*
X27108000Y-43586500D01*
X22139200Y-41139900D02*
X24585800Y-43586500D01*
X29701900Y-40992600D02*
X29701900Y-32983700D01*
X27108000Y-43586500D02*
X29701900Y-40992600D01*
X22139200Y-40977500D02*
X22139200Y-41139900D01*
%TO.N,I2S_DIN*%
X23559200Y-34910300D02*
X23559200Y-41245700D01*
X23501900Y-34853000D02*
X23559200Y-34910300D01*
%TO.N,I2C_SCL*%
X40875000Y-32450200D02*
X40875000Y-28161600D01*
X41413600Y-13900000D02*
X42030000Y-13283600D01*
X40875000Y-15065000D02*
X39710000Y-13900000D01*
X39710000Y-13900000D02*
X41413600Y-13900000D01*
X46082100Y-37657300D02*
X40875000Y-32450200D01*
X42030000Y-10380000D02*
X41700000Y-10050000D01*
X44556500Y-48150000D02*
X46082100Y-46624400D01*
X43587500Y-48150000D02*
X44556500Y-48150000D01*
X42030000Y-13283600D02*
X42030000Y-10380000D01*
X40875000Y-28161600D02*
X40875000Y-15065000D01*
X46082100Y-46624400D02*
X46082100Y-37657300D01*
%TO.N,I2C_SDA*%
X37599900Y-18626100D02*
X38099300Y-19125500D01*
X38099300Y-27818800D02*
X38099300Y-19125500D01*
X41700000Y-8750000D02*
X40702100Y-7752100D01*
X40702100Y-7752100D02*
X39225600Y-7752100D01*
X39144600Y-19419400D02*
X39144600Y-32290200D01*
X37643400Y-13266600D02*
X37599900Y-13310100D01*
X37599900Y-13310100D02*
X37599900Y-18626100D01*
X38099300Y-19125500D02*
X38850700Y-19125500D01*
X38561700Y-12348300D02*
X37643400Y-13266600D01*
X37643400Y-13266600D02*
X37510000Y-13400000D01*
X39225600Y-7752100D02*
X38561700Y-8416000D01*
X38561700Y-8416000D02*
X38561700Y-12348300D01*
X45600000Y-38745600D02*
X45600000Y-46387500D01*
X38850700Y-19125500D02*
X39144600Y-19419400D01*
X39144600Y-32290200D02*
X45600000Y-38745600D01*
%TO.N,USB_DN*%
X26000000Y-77808500D02*
X26000000Y-50714600D01*
X26913200Y-43064500D02*
X26913200Y-31194500D01*
%TO.N,USB_DP*%
X17803300Y-30151400D02*
X17803300Y-33715500D01*
X17403400Y-47799500D02*
X23910300Y-54306400D01*
X15086200Y-47001100D02*
X15884600Y-47799500D01*
X23910300Y-54306400D02*
X23910300Y-77808500D01*
X15884600Y-47799500D02*
X17403400Y-47799500D01*
X17803300Y-33715500D02*
X15086200Y-36432600D01*
X15086200Y-36432600D02*
X15086200Y-47001100D01*
%TO.N,AMP_EN*%
X25436600Y-28169300D02*
X24498100Y-29107800D01*
X24498100Y-29107800D02*
X24498100Y-42762900D01*
%TO.N,LCD_DC*%
X22977200Y-39429800D02*
X21637300Y-40769700D01*
X21821100Y-26006200D02*
X21821100Y-36655800D01*
X22310300Y-25517000D02*
X21821100Y-26006200D01*
X21637300Y-40769700D02*
X21637300Y-41185300D01*
X21821100Y-36655800D02*
X22977200Y-37811900D01*
X22977200Y-37811900D02*
X22977200Y-39429800D01*
X21689800Y-46789800D02*
X21750000Y-46850000D01*
X21689800Y-41237800D02*
X21689800Y-46789800D01*
X21637300Y-41185300D02*
X21689800Y-41237800D01*
%TO.N,LCD_CS*%
X20014500Y-26601800D02*
X20014500Y-45114300D01*
X20106400Y-26509900D02*
X20014500Y-26601800D01*
X20750000Y-45849800D02*
X20750000Y-46850000D01*
X20014500Y-45114300D02*
X20750000Y-45849800D01*
%TO.N,LCD_MOSI*%
X19597800Y-45293500D02*
X20250000Y-45945700D01*
X20250000Y-45945700D02*
X20250000Y-46850000D01*
X19597800Y-25997500D02*
X19597800Y-45293500D01*
%TO.N,LCD_SCK*%
X20811400Y-40758600D02*
X20811400Y-23992400D01*
X21250000Y-46850000D02*
X21250000Y-41197200D01*
X21250000Y-41197200D02*
X20811400Y-40758600D01*
%TO.N,LCD_TE*%
X35423800Y-43723800D02*
X31377700Y-43723800D01*
X30834600Y-38625700D02*
X31135500Y-38324800D01*
X31377700Y-43723800D02*
X30834600Y-43180700D01*
X30418100Y-36057600D02*
X30418100Y-24356700D01*
X31135500Y-38324800D02*
X31135500Y-36775000D01*
X31135500Y-36775000D02*
X30418100Y-36057600D01*
X35750000Y-46850000D02*
X35750000Y-44050000D01*
X35750000Y-44050000D02*
X35423800Y-43723800D01*
X30834600Y-43180700D02*
X30834600Y-38625700D01*
%TO.N,LCD_RST*%
X30750000Y-45959700D02*
X30053800Y-45263500D01*
X30053800Y-45263500D02*
X30053800Y-26359300D01*
X29915100Y-26220600D02*
X29915100Y-23466200D01*
X30750000Y-46850000D02*
X30750000Y-45959700D01*
X30053800Y-26359300D02*
X29915100Y-26220600D01*
%TO.N,LCD_BL*%
X36580600Y-37490600D02*
X39690000Y-40600000D01*
X36580600Y-21349400D02*
X36580600Y-37490600D01*
X36747700Y-21182300D02*
X36580600Y-21349400D01*
%TO.N,BLE_RST*%
X23625000Y-19347600D02*
X23625000Y-30752900D01*
X25653300Y-17319300D02*
X23625000Y-19347600D01*
%TO.N,GPS_EXTINT*%
X12800000Y-11645600D02*
X12800000Y-13813600D01*
X10754400Y-9600000D02*
X12800000Y-11645600D01*
X10200000Y-9600000D02*
X10754400Y-9600000D01*
%TO.N,KEY_L*%
X12685000Y-85775000D02*
X12685000Y-81625000D01*
X13261900Y-80271200D02*
X13261900Y-55528400D01*
X13261900Y-55528400D02*
X14521500Y-54268800D01*
X12685000Y-81625000D02*
X12685000Y-80848100D01*
X26349100Y-15970100D02*
X26349100Y-36466900D01*
X25727400Y-39561000D02*
X26294100Y-40127700D01*
X26349100Y-36466900D02*
X25727400Y-37088600D01*
X12685000Y-80848100D02*
X13261900Y-80271200D01*
X25727400Y-37088600D02*
X25727400Y-39561000D01*
%TO.N,GPS_TX*%
X11810300Y-7434900D02*
X11810300Y-7856200D01*
X10675400Y-6300000D02*
X11810300Y-7434900D01*
X10200000Y-6300000D02*
X10675400Y-6300000D01*
%TO.N,GPS_RX*%
X10200000Y-7400000D02*
X10644500Y-7400000D01*
X10644500Y-7400000D02*
X12587400Y-9342900D01*
X12587400Y-9342900D02*
X12587400Y-10522500D01*
%TO.N,GPS_RST*%
X15022600Y-12350200D02*
X15022600Y-10238000D01*
X13011600Y-14361200D02*
X15022600Y-12350200D01*
X10561200Y-14361200D02*
X13011600Y-14361200D01*
X10200000Y-14000000D02*
X10561200Y-14361200D01*
%TO.N,CON_RX*%
X37584400Y-30393100D02*
X37584400Y-22010300D01*
X37584400Y-22010300D02*
X37573800Y-21999700D01*
X38122000Y-30930700D02*
X37584400Y-30393100D01*
%TO.N,CON_TX*%
X39663100Y-16657300D02*
X39663100Y-31897500D01*
X38485000Y-15479200D02*
X39663100Y-16657300D01*
%TO.N,VBUS_SENSE*%
X38623900Y-32590100D02*
X38623900Y-19669800D01*
X37615100Y-37028900D02*
X37457400Y-36871200D01*
X37457400Y-36871200D02*
X37457400Y-33756600D01*
X37457400Y-33756600D02*
X38623900Y-32590100D01*
%TO.N,VBAT_SENSE*%
X35268200Y-37916600D02*
X35268200Y-26790000D01*
%TO.N,BLE_SWDIO*%
X11068600Y-30591100D02*
X11240900Y-30591100D01*
X10444900Y-31214800D02*
X11068600Y-30591100D01*
%TO.N,RF_IN*%
X22300000Y-9400000D02*
X20900000Y-9400000D01*
X20900000Y-12900000D02*
X19700000Y-12900000D01*
X20900000Y-9400000D02*
X20900000Y-12900000D01*
%TO.N,CHG_STAT*%
X30927200Y-35093800D02*
X31506500Y-35673100D01*
X34305900Y-11306600D02*
X34305900Y-17221300D01*
X31506500Y-35673100D02*
X31506500Y-36900200D01*
X32184800Y-37578500D02*
X32184800Y-41017500D01*
X31506500Y-36900200D02*
X32184800Y-37578500D01*
X34305900Y-17221300D02*
X30927200Y-20600000D01*
X36212500Y-9400000D02*
X34305900Y-11306600D01*
X30927200Y-20600000D02*
X30927200Y-35093800D01*
X36819700Y-76743300D02*
X36819700Y-51609300D01*
%TO.N,LED_A*%
X37787500Y-9400000D02*
X37510000Y-9677500D01*
X37510000Y-9677500D02*
X37510000Y-11400000D01*
D40*
%TO.N,VBUS*%
X34891700Y-18305800D02*
X31688100Y-21509400D01*
X34891700Y-12998300D02*
X34891700Y-18305800D01*
X37871100Y-47310600D02*
X37871100Y-44544000D01*
X32360300Y-24343900D02*
X32360300Y-35482400D01*
X36490000Y-11400000D02*
X34891700Y-12998300D01*
X32360300Y-35482400D02*
X34562500Y-37684600D01*
X34562500Y-41010900D02*
X34777000Y-41225400D01*
X34458300Y-75988200D02*
X34458300Y-50723400D01*
X34458300Y-50723400D02*
X37871100Y-47310600D01*
X31688100Y-21509400D02*
X31688100Y-23671700D01*
X31688100Y-23671700D02*
X32360300Y-24343900D01*
X34562500Y-37684600D02*
X34562500Y-41010900D01*
D39*
%TO.N,LED_K1*%
X32750000Y-46850000D02*
X32750000Y-47922300D01*
X31075200Y-44949800D02*
X31600000Y-44425000D01*
X30793000Y-44949800D02*
X31075200Y-44949800D01*
%TO.N,LED_K2*%
X33250000Y-44475000D02*
X33250000Y-46850000D01*
X33300000Y-44425000D02*
X33250000Y-44475000D01*
%TO.N,LED_K3*%
X33750000Y-46850000D02*
X33750000Y-45675000D01*
X33750000Y-45675000D02*
X35000000Y-44425000D01*
%TO.N,LED_K4*%
X35449500Y-48500800D02*
X34998900Y-48500800D01*
X34998900Y-48500800D02*
X34250000Y-47751900D01*
X34250000Y-46850000D02*
X34250000Y-47751900D01*
X36700000Y-44425000D02*
X36700000Y-47250300D01*
X36700000Y-47250300D02*
X35449500Y-48500800D01*
D40*
%TO.N,VBAT*%
X9425000Y-29925000D02*
X8650000Y-30700000D01*
X6917800Y-32432200D02*
X6917800Y-74310100D01*
X11179700Y-78572000D02*
X8782700Y-76175000D01*
X9425000Y-27800000D02*
X9425000Y-29925000D01*
X11179700Y-81645600D02*
X11179700Y-78572000D01*
X6917800Y-74310100D02*
X8782700Y-76175000D01*
X8650000Y-30700000D02*
X6917800Y-32432200D01*
D38*
X34750000Y-46850000D02*
X34750000Y-45600000D01*
D41*
%TO.N,BL_SW*%
X41137500Y-43800000D02*
X37725000Y-43800000D01*
X35000000Y-42775000D02*
X33300000Y-42775000D01*
X33300000Y-42775000D02*
X31600000Y-42775000D01*
X37725000Y-43800000D02*
X36700000Y-42775000D01*
X36700000Y-42775000D02*
X35000000Y-42775000D01*
D39*
%TO.N,BL_G*%
X40710000Y-41620000D02*
X43400000Y-44310000D01*
X40492500Y-41620000D02*
X39262500Y-42850000D01*
X40710000Y-40600000D02*
X40710000Y-41620000D01*
X40710000Y-41620000D02*
X40492500Y-41620000D01*
%TO.N,USB_DP_C*%
X26050500Y-83618000D02*
X26050500Y-79897600D01*
X25620100Y-84048400D02*
X26050500Y-83618000D01*
%TO.N,CC2*%
X26513200Y-84759600D02*
X26273200Y-84999600D01*
X24225000Y-86304400D02*
X24225000Y-83905800D01*
X26273200Y-85633000D02*
X25354300Y-86551900D01*
X25354300Y-86551900D02*
X24472500Y-86551900D01*
X26273200Y-84999600D02*
X26273200Y-85633000D01*
X24472500Y-86551900D02*
X24225000Y-86304400D01*
%TD*%
%TA.AperFunction,Conductor*%
%TO.N,GND*%
G36*
X45002421Y-3300619D02*
G01*
X45032909Y-3302116D01*
X45357776Y-3318076D01*
X45367418Y-3319026D01*
X45716933Y-3370872D01*
X45726439Y-3372762D01*
X46069201Y-3458620D01*
X46078472Y-3461432D01*
X46411161Y-3580470D01*
X46420130Y-3584185D01*
X46739551Y-3735259D01*
X46748093Y-3739826D01*
X47051156Y-3921475D01*
X47059234Y-3926873D01*
X47343035Y-4137355D01*
X47350545Y-4143518D01*
X47508529Y-4286705D01*
X47612343Y-4380796D01*
X47619208Y-4387661D01*
X47856481Y-4649454D01*
X47862644Y-4656964D01*
X48073126Y-4940765D01*
X48078524Y-4948843D01*
X48260166Y-5251893D01*
X48264743Y-5260456D01*
X48327858Y-5393902D01*
X48415812Y-5579866D01*
X48419530Y-5588842D01*
X48538563Y-5921514D01*
X48541383Y-5930811D01*
X48627234Y-6273549D01*
X48629129Y-6283078D01*
X48680971Y-6632567D01*
X48681924Y-6642235D01*
X48699381Y-6997577D01*
X48699500Y-7002435D01*
X48699500Y-10401000D01*
X48680593Y-10459191D01*
X48631093Y-10495155D01*
X48600500Y-10500000D01*
X42430897Y-10500000D01*
X42372706Y-10481093D01*
X42336742Y-10431593D01*
X42332003Y-10405572D01*
X42330606Y-10375357D01*
X42330500Y-10370785D01*
X42330500Y-10352160D01*
X42330500Y-10352156D01*
X42330478Y-10352042D01*
X42328898Y-10338430D01*
X42327585Y-10310008D01*
X42323614Y-10301016D01*
X42316864Y-10279214D01*
X42316345Y-10276440D01*
X42315061Y-10269567D01*
X42300085Y-10245379D01*
X42293697Y-10233260D01*
X42293360Y-10232496D01*
X42282206Y-10207234D01*
X42282205Y-10207233D01*
X42282204Y-10207231D01*
X42275254Y-10200281D01*
X42261088Y-10182395D01*
X42255919Y-10174046D01*
X42251336Y-10169019D01*
X42226107Y-10113277D01*
X42225499Y-10102325D01*
X42225499Y-9947870D01*
X42225498Y-9947863D01*
X42209515Y-9867506D01*
X42209515Y-9867505D01*
X42151044Y-9779999D01*
X42134437Y-9721115D01*
X42151044Y-9670001D01*
X42209515Y-9582495D01*
X42225500Y-9502133D01*
X42225499Y-9297868D01*
X42209515Y-9217505D01*
X42151044Y-9129999D01*
X42134437Y-9071115D01*
X42151044Y-9020001D01*
X42209515Y-8932495D01*
X42225500Y-8852133D01*
X42225499Y-8647868D01*
X42221103Y-8625768D01*
X42209515Y-8567505D01*
X42209514Y-8567503D01*
X42148626Y-8476379D01*
X42148624Y-8476376D01*
X42148620Y-8476373D01*
X42057497Y-8415486D01*
X42057496Y-8415485D01*
X42057495Y-8415485D01*
X41977133Y-8399500D01*
X41815479Y-8399500D01*
X41757288Y-8380593D01*
X41745475Y-8370504D01*
X40960665Y-7585694D01*
X40952579Y-7574444D01*
X40951587Y-7575194D01*
X40946058Y-7567872D01*
X40911372Y-7536251D01*
X40908068Y-7533096D01*
X40894900Y-7519928D01*
X40894896Y-7519925D01*
X40894793Y-7519855D01*
X40884062Y-7511355D01*
X40863033Y-7492184D01*
X40853862Y-7488631D01*
X40833686Y-7477995D01*
X40825584Y-7472445D01*
X40825579Y-7472443D01*
X40797897Y-7465932D01*
X40784803Y-7461877D01*
X40758277Y-7451600D01*
X40758273Y-7451600D01*
X40748448Y-7451600D01*
X40725783Y-7448970D01*
X40716219Y-7446721D01*
X40716218Y-7446721D01*
X40688046Y-7450651D01*
X40674369Y-7451600D01*
X39290764Y-7451600D01*
X39277088Y-7449367D01*
X39276917Y-7450594D01*
X39267833Y-7449326D01*
X39220958Y-7451494D01*
X39216386Y-7451600D01*
X39197752Y-7451600D01*
X39197629Y-7451623D01*
X39184019Y-7453201D01*
X39155609Y-7454514D01*
X39146605Y-7458489D01*
X39124826Y-7465232D01*
X39115168Y-7467037D01*
X39115166Y-7467038D01*
X39090986Y-7482009D01*
X39078866Y-7488398D01*
X39052835Y-7499893D01*
X39052834Y-7499893D01*
X39045880Y-7506847D01*
X39028003Y-7521007D01*
X39019648Y-7526180D01*
X39019643Y-7526184D01*
X39002509Y-7548874D01*
X38993511Y-7559216D01*
X38395290Y-8157437D01*
X38384061Y-8165550D01*
X38384790Y-8166515D01*
X38377471Y-8172041D01*
X38345841Y-8206737D01*
X38342689Y-8210038D01*
X38329530Y-8223198D01*
X38329518Y-8223212D01*
X38329449Y-8223314D01*
X38320955Y-8234035D01*
X38301783Y-8255066D01*
X38301783Y-8255067D01*
X38298229Y-8264240D01*
X38287596Y-8284412D01*
X38282046Y-8292515D01*
X38282041Y-8292524D01*
X38275530Y-8320206D01*
X38271477Y-8333296D01*
X38261201Y-8359823D01*
X38261200Y-8359829D01*
X38261200Y-8369651D01*
X38258570Y-8392318D01*
X38256321Y-8401881D01*
X38258219Y-8415485D01*
X38260251Y-8430053D01*
X38261200Y-8443730D01*
X38261200Y-8644006D01*
X38242293Y-8702197D01*
X38192793Y-8738161D01*
X38145606Y-8738163D01*
X38145115Y-8741268D01*
X38137420Y-8740049D01*
X38108609Y-8735485D01*
X38039249Y-8724500D01*
X38039246Y-8724500D01*
X37535754Y-8724500D01*
X37535751Y-8724500D01*
X37437580Y-8740049D01*
X37437576Y-8740050D01*
X37319250Y-8800341D01*
X37225341Y-8894250D01*
X37165050Y-9012576D01*
X37165049Y-9012580D01*
X37149500Y-9110751D01*
X37149500Y-9689249D01*
X37163300Y-9776376D01*
X37165049Y-9787420D01*
X37187519Y-9831520D01*
X37198709Y-9853480D01*
X37209500Y-9898426D01*
X37209500Y-10865024D01*
X37190593Y-10923215D01*
X37180504Y-10935028D01*
X37179597Y-10935934D01*
X37179596Y-10935935D01*
X37116842Y-10998689D01*
X37095933Y-11019598D01*
X37089724Y-11032915D01*
X37047995Y-11077663D01*
X36987934Y-11089337D01*
X36932482Y-11063478D01*
X36910276Y-11032915D01*
X36904066Y-11019598D01*
X36904065Y-11019597D01*
X36904065Y-11019596D01*
X36820404Y-10935935D01*
X36820402Y-10935934D01*
X36820401Y-10935933D01*
X36713175Y-10885932D01*
X36671995Y-10880511D01*
X36664316Y-10879500D01*
X36315684Y-10879500D01*
X36308005Y-10880511D01*
X36266825Y-10885932D01*
X36266824Y-10885932D01*
X36159598Y-10935933D01*
X36075933Y-11019598D01*
X36025932Y-11126824D01*
X36025932Y-11126825D01*
X36025932Y-11126827D01*
X36019589Y-11175012D01*
X36019500Y-11175685D01*
X36019500Y-11192389D01*
X36000593Y-11250580D01*
X35990504Y-11262393D01*
X34775404Y-12477493D01*
X34720887Y-12505270D01*
X34660455Y-12495699D01*
X34617190Y-12452434D01*
X34606400Y-12407489D01*
X34606400Y-11472079D01*
X34625307Y-11413888D01*
X34635396Y-11402075D01*
X35932976Y-10104496D01*
X35987493Y-10076719D01*
X36002980Y-10075500D01*
X36464249Y-10075500D01*
X36492803Y-10070976D01*
X36562420Y-10059951D01*
X36680751Y-9999658D01*
X36774658Y-9905751D01*
X36834951Y-9787420D01*
X36850500Y-9689246D01*
X36850500Y-9110754D01*
X36834951Y-9012580D01*
X36774658Y-8894249D01*
X36680751Y-8800342D01*
X36676631Y-8798243D01*
X36562423Y-8740050D01*
X36562420Y-8740049D01*
X36537876Y-8736161D01*
X36464249Y-8724500D01*
X36464246Y-8724500D01*
X35960754Y-8724500D01*
X35960751Y-8724500D01*
X35862580Y-8740049D01*
X35862576Y-8740050D01*
X35744250Y-8800341D01*
X35650341Y-8894250D01*
X35590050Y-9012576D01*
X35590049Y-9012580D01*
X35574500Y-9110751D01*
X35574500Y-9572020D01*
X35555593Y-9630211D01*
X35545504Y-9642024D01*
X34139490Y-11048037D01*
X34128261Y-11056150D01*
X34128990Y-11057115D01*
X34121671Y-11062641D01*
X34090041Y-11097337D01*
X34086889Y-11100638D01*
X34073730Y-11113798D01*
X34073718Y-11113812D01*
X34073649Y-11113914D01*
X34065155Y-11124635D01*
X34045983Y-11145666D01*
X34045983Y-11145667D01*
X34042429Y-11154840D01*
X34031796Y-11175012D01*
X34026246Y-11183115D01*
X34026241Y-11183124D01*
X34019730Y-11210806D01*
X34015677Y-11223896D01*
X34005401Y-11250423D01*
X34005400Y-11250429D01*
X34005400Y-11260251D01*
X34002770Y-11282918D01*
X34000521Y-11292479D01*
X34004451Y-11320653D01*
X34005400Y-11334330D01*
X34005400Y-17055820D01*
X33986493Y-17114011D01*
X33976404Y-17125824D01*
X30760790Y-20341437D01*
X30749561Y-20349550D01*
X30750290Y-20350515D01*
X30742971Y-20356041D01*
X30711341Y-20390737D01*
X30708189Y-20394038D01*
X30695030Y-20407198D01*
X30695018Y-20407212D01*
X30694949Y-20407314D01*
X30686455Y-20418035D01*
X30667283Y-20439066D01*
X30667283Y-20439067D01*
X30663729Y-20448240D01*
X30653096Y-20468412D01*
X30647546Y-20476515D01*
X30647541Y-20476524D01*
X30641030Y-20504206D01*
X30636977Y-20517296D01*
X30626701Y-20543823D01*
X30626700Y-20543829D01*
X30626700Y-20553651D01*
X30624070Y-20576318D01*
X30621821Y-20585879D01*
X30625751Y-20614053D01*
X30626700Y-20627730D01*
X30626700Y-23816182D01*
X30607793Y-23874373D01*
X30558293Y-23910337D01*
X30499812Y-23911173D01*
X30482875Y-23906200D01*
X30482872Y-23906200D01*
X30353328Y-23906200D01*
X30346715Y-23906200D01*
X30288524Y-23887293D01*
X30252560Y-23837793D01*
X30252560Y-23776607D01*
X30271895Y-23742370D01*
X30281271Y-23731548D01*
X30297982Y-23712263D01*
X30351797Y-23594426D01*
X30370233Y-23466200D01*
X30351797Y-23337974D01*
X30297982Y-23220137D01*
X30213149Y-23122233D01*
X30213148Y-23122232D01*
X30213147Y-23122231D01*
X30104173Y-23052198D01*
X30104170Y-23052196D01*
X30104169Y-23052196D01*
X30104166Y-23052195D01*
X29979874Y-23015700D01*
X29979872Y-23015700D01*
X29850328Y-23015700D01*
X29850325Y-23015700D01*
X29726033Y-23052195D01*
X29726026Y-23052198D01*
X29617052Y-23122231D01*
X29532217Y-23220138D01*
X29478402Y-23337974D01*
X29459967Y-23466197D01*
X29459967Y-23466202D01*
X29478402Y-23594425D01*
X29503067Y-23648433D01*
X29532218Y-23712263D01*
X29561744Y-23746338D01*
X29590420Y-23779432D01*
X29614237Y-23835792D01*
X29614600Y-23844263D01*
X29614600Y-26155435D01*
X29612380Y-26169113D01*
X29613594Y-26169283D01*
X29612326Y-26178366D01*
X29614494Y-26225241D01*
X29614600Y-26229813D01*
X29614600Y-26248444D01*
X29614622Y-26248566D01*
X29616201Y-26262177D01*
X29617514Y-26290587D01*
X29617515Y-26290594D01*
X29621484Y-26299582D01*
X29628232Y-26321372D01*
X29630039Y-26331033D01*
X29638909Y-26345360D01*
X29645012Y-26355217D01*
X29651401Y-26367338D01*
X29662894Y-26393365D01*
X29669845Y-26400316D01*
X29684007Y-26418196D01*
X29689181Y-26426552D01*
X29711881Y-26443694D01*
X29722217Y-26452688D01*
X29724304Y-26454775D01*
X29752081Y-26509292D01*
X29753300Y-26524779D01*
X29753300Y-32288737D01*
X29734393Y-32346928D01*
X29684893Y-32382892D01*
X29626412Y-32383728D01*
X29613375Y-32379900D01*
X29613372Y-32379900D01*
X29483828Y-32379900D01*
X29483825Y-32379900D01*
X29359533Y-32416395D01*
X29359526Y-32416398D01*
X29250552Y-32486431D01*
X29165717Y-32584338D01*
X29111902Y-32702174D01*
X29093467Y-32830397D01*
X29093467Y-32830402D01*
X29111902Y-32958625D01*
X29162075Y-33068487D01*
X29165718Y-33076463D01*
X29250551Y-33174367D01*
X29250552Y-33174368D01*
X29309116Y-33212004D01*
X29355482Y-33241802D01*
X29355923Y-33242085D01*
X29394654Y-33289451D01*
X29401400Y-33325369D01*
X29401400Y-36687368D01*
X29382493Y-36745559D01*
X29332993Y-36781523D01*
X29274513Y-36782359D01*
X29264778Y-36779501D01*
X29264773Y-36779500D01*
X29264772Y-36779500D01*
X29135228Y-36779500D01*
X29135226Y-36779500D01*
X29135222Y-36779501D01*
X29045670Y-36805795D01*
X28984510Y-36804047D01*
X28936058Y-36766684D01*
X28927727Y-36751932D01*
X28892408Y-36674596D01*
X28882882Y-36653737D01*
X28824679Y-36586566D01*
X28800863Y-36530208D01*
X28800500Y-36521737D01*
X28800500Y-27168063D01*
X28819407Y-27109872D01*
X28824680Y-27103232D01*
X28882882Y-27036063D01*
X28936697Y-26918226D01*
X28955133Y-26790000D01*
X28953950Y-26781774D01*
X28936697Y-26661774D01*
X28882882Y-26543938D01*
X28882882Y-26543937D01*
X28798049Y-26446033D01*
X28798048Y-26446032D01*
X28798047Y-26446031D01*
X28689073Y-26375998D01*
X28689070Y-26375996D01*
X28689069Y-26375996D01*
X28689066Y-26375995D01*
X28564774Y-26339500D01*
X28564772Y-26339500D01*
X28435228Y-26339500D01*
X28435225Y-26339500D01*
X28310933Y-26375995D01*
X28310926Y-26375998D01*
X28201952Y-26446031D01*
X28117117Y-26543938D01*
X28063302Y-26661774D01*
X28044867Y-26789997D01*
X28044867Y-26790002D01*
X28063302Y-26918225D01*
X28117117Y-27036061D01*
X28117118Y-27036063D01*
X28175320Y-27103232D01*
X28199137Y-27159592D01*
X28199500Y-27168063D01*
X28199500Y-36521737D01*
X28180593Y-36579928D01*
X28175320Y-36586567D01*
X28117118Y-36653736D01*
X28117116Y-36653740D01*
X28072272Y-36751932D01*
X28030899Y-36797010D01*
X27970932Y-36809160D01*
X27954328Y-36805795D01*
X27864775Y-36779500D01*
X27864772Y-36779500D01*
X27735228Y-36779500D01*
X27735225Y-36779500D01*
X27610933Y-36815995D01*
X27610926Y-36815998D01*
X27501952Y-36886031D01*
X27417117Y-36983938D01*
X27402753Y-37015391D01*
X27361381Y-37060468D01*
X27301414Y-37072619D01*
X27245758Y-37047201D01*
X27215672Y-36993924D01*
X27213700Y-36974264D01*
X27213700Y-31572563D01*
X27232607Y-31514372D01*
X27237880Y-31507732D01*
X27240129Y-31505137D01*
X27296082Y-31440563D01*
X27349897Y-31322726D01*
X27361801Y-31239929D01*
X27368333Y-31194502D01*
X27368333Y-31194497D01*
X27349897Y-31066274D01*
X27331119Y-31025156D01*
X27296082Y-30948437D01*
X27211249Y-30850533D01*
X27211248Y-30850532D01*
X27211247Y-30850531D01*
X27102273Y-30780498D01*
X27102270Y-30780496D01*
X27102269Y-30780496D01*
X27102266Y-30780495D01*
X26977974Y-30744000D01*
X26977972Y-30744000D01*
X26848428Y-30744000D01*
X26848425Y-30744000D01*
X26776491Y-30765122D01*
X26715331Y-30763374D01*
X26666878Y-30726011D01*
X26649600Y-30670132D01*
X26649600Y-16348163D01*
X26668507Y-16289972D01*
X26673780Y-16283332D01*
X26731982Y-16216163D01*
X26785797Y-16098326D01*
X26796450Y-16024231D01*
X26804233Y-15970102D01*
X26804233Y-15970097D01*
X26785797Y-15841874D01*
X26741070Y-15743937D01*
X26731982Y-15724037D01*
X26647149Y-15626133D01*
X26647148Y-15626132D01*
X26647147Y-15626131D01*
X26538173Y-15556098D01*
X26538170Y-15556096D01*
X26538169Y-15556096D01*
X26538166Y-15556095D01*
X26413874Y-15519600D01*
X26413872Y-15519600D01*
X26284328Y-15519600D01*
X26284325Y-15519600D01*
X26160033Y-15556095D01*
X26160026Y-15556098D01*
X26051052Y-15626131D01*
X25966217Y-15724038D01*
X25912402Y-15841874D01*
X25893967Y-15970097D01*
X25893967Y-15970102D01*
X25912402Y-16098325D01*
X25940847Y-16160609D01*
X25966218Y-16216163D01*
X26024420Y-16283332D01*
X26048237Y-16339692D01*
X26048600Y-16348163D01*
X26048600Y-16856527D01*
X26029693Y-16914718D01*
X25980193Y-16950682D01*
X25919007Y-16950682D01*
X25896077Y-16939812D01*
X25842369Y-16905296D01*
X25842366Y-16905295D01*
X25718074Y-16868800D01*
X25718072Y-16868800D01*
X25588528Y-16868800D01*
X25588525Y-16868800D01*
X25464233Y-16905295D01*
X25464226Y-16905298D01*
X25355252Y-16975331D01*
X25270417Y-17073238D01*
X25216602Y-17191074D01*
X25197791Y-17321908D01*
X25170795Y-17376816D01*
X25169803Y-17377823D01*
X23458590Y-19089037D01*
X23447361Y-19097150D01*
X23448090Y-19098115D01*
X23440771Y-19103641D01*
X23409141Y-19138337D01*
X23405989Y-19141638D01*
X23392830Y-19154798D01*
X23392818Y-19154812D01*
X23392749Y-19154914D01*
X23384255Y-19165635D01*
X23365083Y-19186666D01*
X23365083Y-19186667D01*
X23361529Y-19195840D01*
X23350896Y-19216012D01*
X23345346Y-19224115D01*
X23345341Y-19224124D01*
X23338830Y-19251806D01*
X23334777Y-19264896D01*
X23324501Y-19291423D01*
X23324500Y-19291429D01*
X23324500Y-19301251D01*
X23321870Y-19323918D01*
X23319621Y-19333479D01*
X23323551Y-19361653D01*
X23324500Y-19375330D01*
X23324500Y-30374837D01*
X23305593Y-30433028D01*
X23300320Y-30439667D01*
X23242118Y-30506836D01*
X23242116Y-30506840D01*
X23188302Y-30624674D01*
X23169867Y-30752897D01*
X23169867Y-30752902D01*
X23188302Y-30881125D01*
X23242117Y-30998960D01*
X23242118Y-30998963D01*
X23308138Y-31075155D01*
X23326952Y-31096868D01*
X23435926Y-31166901D01*
X23435931Y-31166904D01*
X23560228Y-31203400D01*
X23560230Y-31203400D01*
X23689770Y-31203400D01*
X23689772Y-31203400D01*
X23814069Y-31166904D01*
X23923049Y-31096867D01*
X24007882Y-30998963D01*
X24008160Y-30998353D01*
X24008547Y-30997508D01*
X24009448Y-30996525D01*
X24011710Y-30993007D01*
X24012318Y-30993398D01*
X24049919Y-30952430D01*
X24109885Y-30940279D01*
X24165541Y-30965697D01*
X24195628Y-31018974D01*
X24197600Y-31038634D01*
X24197600Y-41136146D01*
X24178693Y-41194337D01*
X24129193Y-41230301D01*
X24068007Y-41230301D01*
X24018507Y-41194337D01*
X24000608Y-41150235D01*
X23995897Y-41117474D01*
X23971506Y-41064066D01*
X23942082Y-40999637D01*
X23883879Y-40932466D01*
X23860063Y-40876108D01*
X23859700Y-40867637D01*
X23859700Y-35164934D01*
X23878607Y-35106743D01*
X23883882Y-35100102D01*
X23884091Y-35099859D01*
X23884782Y-35099063D01*
X23938597Y-34981226D01*
X23952104Y-34887280D01*
X23957033Y-34853002D01*
X23957033Y-34852997D01*
X23938597Y-34724774D01*
X23897492Y-34634768D01*
X23884782Y-34606937D01*
X23799949Y-34509033D01*
X23799948Y-34509032D01*
X23799947Y-34509031D01*
X23690973Y-34438998D01*
X23690970Y-34438996D01*
X23690969Y-34438996D01*
X23689198Y-34438476D01*
X23566674Y-34402500D01*
X23566672Y-34402500D01*
X23437128Y-34402500D01*
X23437125Y-34402500D01*
X23312833Y-34438995D01*
X23312826Y-34438998D01*
X23203852Y-34509031D01*
X23119017Y-34606938D01*
X23065202Y-34724774D01*
X23046767Y-34852997D01*
X23046767Y-34853002D01*
X23065202Y-34981225D01*
X23075115Y-35002931D01*
X23119018Y-35099063D01*
X23203851Y-35196967D01*
X23213222Y-35202989D01*
X23251954Y-35250355D01*
X23258700Y-35286274D01*
X23258700Y-37429421D01*
X23239793Y-37487612D01*
X23190293Y-37523576D01*
X23129107Y-37523576D01*
X23089696Y-37499425D01*
X22150596Y-36560325D01*
X22122819Y-36505808D01*
X22121600Y-36490321D01*
X22121600Y-27438830D01*
X22140507Y-27380639D01*
X22190007Y-27344675D01*
X22248488Y-27343840D01*
X22305228Y-27360500D01*
X22305230Y-27360500D01*
X22434770Y-27360500D01*
X22434772Y-27360500D01*
X22559069Y-27324004D01*
X22668049Y-27253967D01*
X22752882Y-27156063D01*
X22806697Y-27038226D01*
X22812842Y-26995484D01*
X22825133Y-26910002D01*
X22825133Y-26909997D01*
X22806697Y-26781774D01*
X22752882Y-26663938D01*
X22752882Y-26663937D01*
X22668049Y-26566033D01*
X22668048Y-26566032D01*
X22668047Y-26566031D01*
X22559073Y-26495998D01*
X22559070Y-26495996D01*
X22559069Y-26495996D01*
X22559066Y-26495995D01*
X22434774Y-26459500D01*
X22434772Y-26459500D01*
X22305228Y-26459500D01*
X22305225Y-26459500D01*
X22248491Y-26476159D01*
X22187331Y-26474411D01*
X22138878Y-26437048D01*
X22121600Y-26381169D01*
X22121600Y-26171679D01*
X22140507Y-26113488D01*
X22150596Y-26101675D01*
X22255775Y-25996496D01*
X22310292Y-25968719D01*
X22325779Y-25967500D01*
X22375070Y-25967500D01*
X22375072Y-25967500D01*
X22499369Y-25931004D01*
X22608349Y-25860967D01*
X22693182Y-25763063D01*
X22746997Y-25645226D01*
X22765433Y-25517000D01*
X22746997Y-25388774D01*
X22693182Y-25270937D01*
X22608349Y-25173033D01*
X22608348Y-25173032D01*
X22608347Y-25173031D01*
X22499373Y-25102998D01*
X22499370Y-25102996D01*
X22499369Y-25102996D01*
X22499366Y-25102995D01*
X22375074Y-25066500D01*
X22375072Y-25066500D01*
X22245528Y-25066500D01*
X22245525Y-25066500D01*
X22121233Y-25102995D01*
X22121226Y-25102998D01*
X22012252Y-25173031D01*
X21927417Y-25270938D01*
X21873602Y-25388774D01*
X21854791Y-25519609D01*
X21827795Y-25574517D01*
X21826803Y-25575524D01*
X21654690Y-25747637D01*
X21643461Y-25755750D01*
X21644190Y-25756715D01*
X21636871Y-25762241D01*
X21605241Y-25796937D01*
X21602089Y-25800238D01*
X21588930Y-25813398D01*
X21588918Y-25813412D01*
X21588849Y-25813514D01*
X21580355Y-25824235D01*
X21561183Y-25845266D01*
X21561183Y-25845267D01*
X21557629Y-25854440D01*
X21546996Y-25874612D01*
X21541446Y-25882715D01*
X21541441Y-25882724D01*
X21534930Y-25910406D01*
X21530877Y-25923496D01*
X21520601Y-25950023D01*
X21520600Y-25950029D01*
X21520600Y-25959851D01*
X21517970Y-25982518D01*
X21515721Y-25992079D01*
X21519651Y-26020253D01*
X21520600Y-26033930D01*
X21520600Y-36590635D01*
X21518380Y-36604313D01*
X21519594Y-36604483D01*
X21518326Y-36613566D01*
X21520494Y-36660441D01*
X21520600Y-36665013D01*
X21520600Y-36683644D01*
X21520622Y-36683766D01*
X21522201Y-36697377D01*
X21523514Y-36725787D01*
X21523515Y-36725794D01*
X21527484Y-36734782D01*
X21534232Y-36756572D01*
X21536039Y-36766233D01*
X21539346Y-36771574D01*
X21551012Y-36790417D01*
X21557401Y-36802538D01*
X21560325Y-36809160D01*
X21568894Y-36828565D01*
X21575845Y-36835516D01*
X21590007Y-36853396D01*
X21595181Y-36861752D01*
X21617881Y-36878894D01*
X21628217Y-36887888D01*
X22075525Y-37335196D01*
X22103302Y-37389713D01*
X22093731Y-37450145D01*
X22050466Y-37493410D01*
X22005521Y-37504200D01*
X21997915Y-37504200D01*
X21997910Y-37504200D01*
X21997903Y-37504201D01*
X21872263Y-37519456D01*
X21872261Y-37519457D01*
X21714270Y-37579375D01*
X21575210Y-37675361D01*
X21575209Y-37675361D01*
X21463163Y-37801834D01*
X21463163Y-37801835D01*
X21384638Y-37951452D01*
X21384637Y-37951455D01*
X21344200Y-38115512D01*
X21344200Y-38284487D01*
X21384637Y-38448544D01*
X21384638Y-38448547D01*
X21463163Y-38598164D01*
X21463163Y-38598165D01*
X21575209Y-38724638D01*
X21651865Y-38777550D01*
X21714271Y-38820625D01*
X21872261Y-38880543D01*
X21997915Y-38895800D01*
X21997920Y-38895800D01*
X22082080Y-38895800D01*
X22082085Y-38895800D01*
X22207739Y-38880543D01*
X22365729Y-38820625D01*
X22504789Y-38724639D01*
X22504793Y-38724634D01*
X22509268Y-38720671D01*
X22510419Y-38721971D01*
X22556337Y-38694965D01*
X22617237Y-38700870D01*
X22663035Y-38741444D01*
X22676700Y-38791633D01*
X22676700Y-39264320D01*
X22657793Y-39322511D01*
X22647704Y-39334324D01*
X21470890Y-40511137D01*
X21459661Y-40519250D01*
X21460390Y-40520215D01*
X21453071Y-40525741D01*
X21421441Y-40560437D01*
X21418289Y-40563738D01*
X21405130Y-40576898D01*
X21405118Y-40576912D01*
X21405049Y-40577014D01*
X21396555Y-40587735D01*
X21377383Y-40608766D01*
X21377383Y-40608767D01*
X21373829Y-40617940D01*
X21363196Y-40638112D01*
X21357646Y-40646215D01*
X21357643Y-40646221D01*
X21353846Y-40662365D01*
X21322117Y-40714681D01*
X21265697Y-40738355D01*
X21206137Y-40724345D01*
X21187472Y-40709701D01*
X21140896Y-40663125D01*
X21113119Y-40608608D01*
X21111900Y-40593121D01*
X21111900Y-40025930D01*
X21130807Y-39967739D01*
X21180307Y-39931775D01*
X21241493Y-39931775D01*
X21264419Y-39942644D01*
X21292829Y-39960902D01*
X21417126Y-39997398D01*
X21417128Y-39997398D01*
X21546668Y-39997398D01*
X21546670Y-39997398D01*
X21670967Y-39960902D01*
X21779947Y-39890865D01*
X21864780Y-39792961D01*
X21918595Y-39675124D01*
X21933679Y-39570213D01*
X21937031Y-39546900D01*
X21937031Y-39546895D01*
X21918595Y-39418672D01*
X21864780Y-39300836D01*
X21864780Y-39300835D01*
X21779947Y-39202931D01*
X21779946Y-39202930D01*
X21779945Y-39202929D01*
X21670971Y-39132896D01*
X21670968Y-39132894D01*
X21670967Y-39132894D01*
X21666281Y-39131518D01*
X21546672Y-39096398D01*
X21546670Y-39096398D01*
X21417126Y-39096398D01*
X21417123Y-39096398D01*
X21292831Y-39132893D01*
X21292824Y-39132896D01*
X21264423Y-39151149D01*
X21205248Y-39166704D01*
X21148232Y-39144505D01*
X21115152Y-39093032D01*
X21111900Y-39067865D01*
X21111900Y-24370463D01*
X21130807Y-24312272D01*
X21136080Y-24305632D01*
X21194282Y-24238463D01*
X21248097Y-24120626D01*
X21254242Y-24077884D01*
X21266533Y-23992402D01*
X21266533Y-23992397D01*
X21248097Y-23864174D01*
X21228915Y-23822172D01*
X21194282Y-23746337D01*
X21109449Y-23648433D01*
X21109448Y-23648432D01*
X21109447Y-23648431D01*
X21000473Y-23578398D01*
X21000470Y-23578396D01*
X21000469Y-23578396D01*
X21000466Y-23578395D01*
X20876174Y-23541900D01*
X20876172Y-23541900D01*
X20746628Y-23541900D01*
X20746625Y-23541900D01*
X20622333Y-23578395D01*
X20622326Y-23578398D01*
X20513352Y-23648431D01*
X20428517Y-23746338D01*
X20374702Y-23864174D01*
X20356267Y-23992397D01*
X20356267Y-23992402D01*
X20374702Y-24120625D01*
X20412044Y-24202391D01*
X20428518Y-24238463D01*
X20486720Y-24305632D01*
X20510537Y-24361992D01*
X20510900Y-24370463D01*
X20510900Y-26053040D01*
X20491993Y-26111231D01*
X20442493Y-26147195D01*
X20381307Y-26147195D01*
X20358377Y-26136324D01*
X20295473Y-26095898D01*
X20295470Y-26095896D01*
X20295469Y-26095896D01*
X20295466Y-26095895D01*
X20171174Y-26059400D01*
X20171172Y-26059400D01*
X20147617Y-26059400D01*
X20089426Y-26040493D01*
X20053462Y-25990993D01*
X20049625Y-25974489D01*
X20034497Y-25869274D01*
X19985991Y-25763063D01*
X19980682Y-25751437D01*
X19895849Y-25653533D01*
X19895848Y-25653532D01*
X19895847Y-25653531D01*
X19786873Y-25583498D01*
X19786870Y-25583496D01*
X19786869Y-25583496D01*
X19786866Y-25583495D01*
X19662574Y-25547000D01*
X19662572Y-25547000D01*
X19533028Y-25547000D01*
X19533025Y-25547000D01*
X19408733Y-25583495D01*
X19408726Y-25583498D01*
X19299752Y-25653531D01*
X19214917Y-25751438D01*
X19161102Y-25869274D01*
X19142667Y-25997497D01*
X19142667Y-25997502D01*
X19161102Y-26125725D01*
X19214917Y-26243561D01*
X19214918Y-26243563D01*
X19272562Y-26310088D01*
X19273120Y-26310732D01*
X19296937Y-26367092D01*
X19297300Y-26375563D01*
X19297300Y-43556545D01*
X19278393Y-43614736D01*
X19228893Y-43650700D01*
X19167707Y-43650700D01*
X19128298Y-43626550D01*
X19103220Y-43601472D01*
X19103217Y-43601470D01*
X18983132Y-43540283D01*
X18983127Y-43540281D01*
X18983126Y-43540281D01*
X18949913Y-43535020D01*
X18883490Y-43524500D01*
X18883488Y-43524500D01*
X18316512Y-43524500D01*
X18316510Y-43524500D01*
X18216874Y-43540281D01*
X18216867Y-43540283D01*
X18096782Y-43601470D01*
X18001470Y-43696782D01*
X17940283Y-43816867D01*
X17940281Y-43816874D01*
X17924500Y-43916510D01*
X17924500Y-44249487D01*
X17905593Y-44307678D01*
X17856093Y-44343642D01*
X17794907Y-44343642D01*
X17771977Y-44332771D01*
X17661073Y-44261498D01*
X17661070Y-44261496D01*
X17661069Y-44261496D01*
X17661066Y-44261495D01*
X17536774Y-44225000D01*
X17536772Y-44225000D01*
X17487479Y-44225000D01*
X17429288Y-44206093D01*
X17417475Y-44196004D01*
X16030996Y-42809525D01*
X16003219Y-42755008D01*
X16002000Y-42739521D01*
X16002000Y-39300487D01*
X16264200Y-39300487D01*
X16304637Y-39464544D01*
X16304638Y-39464547D01*
X16383163Y-39614164D01*
X16383163Y-39614165D01*
X16495209Y-39740638D01*
X16558156Y-39784087D01*
X16634271Y-39836625D01*
X16792261Y-39896543D01*
X16917915Y-39911800D01*
X16917920Y-39911800D01*
X17002080Y-39911800D01*
X17002085Y-39911800D01*
X17127739Y-39896543D01*
X17285729Y-39836625D01*
X17424789Y-39740639D01*
X17424790Y-39740638D01*
X17536836Y-39614165D01*
X17536836Y-39614164D01*
X17536835Y-39614164D01*
X17536838Y-39614162D01*
X17615362Y-39464546D01*
X17655800Y-39300485D01*
X17655800Y-39131515D01*
X17615362Y-38967454D01*
X17536838Y-38817838D01*
X17536836Y-38817836D01*
X17536836Y-38817835D01*
X17536836Y-38817834D01*
X17424790Y-38691361D01*
X17285729Y-38595375D01*
X17232777Y-38575293D01*
X17127739Y-38535457D01*
X17127737Y-38535456D01*
X17127736Y-38535456D01*
X17002096Y-38520201D01*
X17002090Y-38520200D01*
X17002085Y-38520200D01*
X16917915Y-38520200D01*
X16917910Y-38520200D01*
X16917903Y-38520201D01*
X16792263Y-38535456D01*
X16792261Y-38535457D01*
X16634270Y-38595375D01*
X16495210Y-38691361D01*
X16495209Y-38691361D01*
X16383163Y-38817834D01*
X16383163Y-38817835D01*
X16304638Y-38967452D01*
X16304637Y-38967455D01*
X16264200Y-39131512D01*
X16264200Y-39300487D01*
X16002000Y-39300487D01*
X16002000Y-37268487D01*
X16264200Y-37268487D01*
X16304637Y-37432544D01*
X16304638Y-37432547D01*
X16383163Y-37582164D01*
X16383163Y-37582165D01*
X16495209Y-37708638D01*
X16523973Y-37728492D01*
X16634271Y-37804625D01*
X16792261Y-37864543D01*
X16917915Y-37879800D01*
X16917920Y-37879800D01*
X17002080Y-37879800D01*
X17002085Y-37879800D01*
X17127739Y-37864543D01*
X17285729Y-37804625D01*
X17424789Y-37708639D01*
X17424790Y-37708638D01*
X17536836Y-37582165D01*
X17536836Y-37582164D01*
X17536835Y-37582164D01*
X17536838Y-37582162D01*
X17615362Y-37432546D01*
X17655800Y-37268485D01*
X17655800Y-37099515D01*
X17615362Y-36935454D01*
X17536838Y-36785838D01*
X17536836Y-36785836D01*
X17536836Y-36785835D01*
X17536836Y-36785834D01*
X17424790Y-36659361D01*
X17285729Y-36563375D01*
X17273299Y-36558661D01*
X17127739Y-36503457D01*
X17127737Y-36503456D01*
X17127736Y-36503456D01*
X17002096Y-36488201D01*
X17002090Y-36488200D01*
X17002085Y-36488200D01*
X16917915Y-36488200D01*
X16917910Y-36488200D01*
X16917903Y-36488201D01*
X16792263Y-36503456D01*
X16792261Y-36503457D01*
X16634270Y-36563375D01*
X16495210Y-36659361D01*
X16495209Y-36659361D01*
X16383163Y-36785834D01*
X16383163Y-36785835D01*
X16304638Y-36935452D01*
X16304637Y-36935455D01*
X16264200Y-37099512D01*
X16264200Y-37268487D01*
X16002000Y-37268487D01*
X16002000Y-36905063D01*
X16020907Y-36846872D01*
X16026180Y-36840232D01*
X16034022Y-36831182D01*
X16084382Y-36773063D01*
X16138197Y-36655226D01*
X16150879Y-36567020D01*
X16156633Y-36527002D01*
X16156633Y-36526997D01*
X16138197Y-36398774D01*
X16127991Y-36376427D01*
X16084382Y-36280937D01*
X15999549Y-36183033D01*
X15957514Y-36156019D01*
X15918786Y-36108656D01*
X15915292Y-36047570D01*
X15941034Y-36002735D01*
X17969707Y-33974063D01*
X17980965Y-33965994D01*
X17980205Y-33964987D01*
X17987521Y-33959461D01*
X17987528Y-33959458D01*
X18019168Y-33924749D01*
X18022286Y-33921484D01*
X18035475Y-33908297D01*
X18035537Y-33908205D01*
X18044052Y-33897452D01*
X18063216Y-33876433D01*
X18066765Y-33867269D01*
X18077411Y-33847075D01*
X18082957Y-33838980D01*
X18089470Y-33811286D01*
X18093518Y-33798212D01*
X18103800Y-33771673D01*
X18103800Y-33761848D01*
X18106429Y-33739183D01*
X18108679Y-33729619D01*
X18104749Y-33701444D01*
X18103800Y-33687768D01*
X18103800Y-30529463D01*
X18122707Y-30471272D01*
X18127980Y-30464632D01*
X18186182Y-30397463D01*
X18239997Y-30279626D01*
X18254738Y-30177098D01*
X18258433Y-30151402D01*
X18258433Y-30151397D01*
X18239997Y-30023174D01*
X18230513Y-30002407D01*
X18186182Y-29905337D01*
X18101349Y-29807433D01*
X18101348Y-29807432D01*
X18101347Y-29807431D01*
X17992373Y-29737398D01*
X17992370Y-29737396D01*
X17992369Y-29737396D01*
X17992366Y-29737395D01*
X17889315Y-29707137D01*
X17838808Y-29672601D01*
X17818246Y-29614974D01*
X17827152Y-29571022D01*
X17846697Y-29528226D01*
X17846697Y-29528224D01*
X17846698Y-29528223D01*
X17865133Y-29400002D01*
X17865133Y-29399997D01*
X17846697Y-29271774D01*
X17792882Y-29153938D01*
X17792882Y-29153937D01*
X17708049Y-29056033D01*
X17708048Y-29056032D01*
X17708047Y-29056031D01*
X17599073Y-28985998D01*
X17599070Y-28985996D01*
X17599069Y-28985996D01*
X17593344Y-28984315D01*
X17474774Y-28949500D01*
X17474772Y-28949500D01*
X17345228Y-28949500D01*
X17345225Y-28949500D01*
X17220933Y-28985995D01*
X17220926Y-28985998D01*
X17111952Y-29056031D01*
X17027117Y-29153938D01*
X16973302Y-29271774D01*
X16954867Y-29399997D01*
X16954867Y-29400002D01*
X16973302Y-29528225D01*
X16992846Y-29571019D01*
X17027118Y-29646063D01*
X17106257Y-29737396D01*
X17111952Y-29743968D01*
X17210703Y-29807431D01*
X17220931Y-29814004D01*
X17323984Y-29844262D01*
X17374491Y-29878797D01*
X17395053Y-29936424D01*
X17386147Y-29980378D01*
X17366601Y-30023176D01*
X17348167Y-30151397D01*
X17348167Y-30151402D01*
X17366602Y-30279625D01*
X17415680Y-30387089D01*
X17420418Y-30397463D01*
X17478620Y-30464632D01*
X17502437Y-30520992D01*
X17502800Y-30529463D01*
X17502800Y-33550020D01*
X17483893Y-33608211D01*
X17473804Y-33620024D01*
X14919790Y-36174037D01*
X14908561Y-36182150D01*
X14909290Y-36183115D01*
X14901971Y-36188641D01*
X14870341Y-36223337D01*
X14867189Y-36226638D01*
X14854030Y-36239798D01*
X14854018Y-36239812D01*
X14853949Y-36239914D01*
X14845455Y-36250635D01*
X14826283Y-36271666D01*
X14826283Y-36271667D01*
X14822729Y-36280840D01*
X14812096Y-36301012D01*
X14806546Y-36309115D01*
X14806541Y-36309124D01*
X14800030Y-36336806D01*
X14795977Y-36349896D01*
X14785701Y-36376423D01*
X14785700Y-36376429D01*
X14785700Y-36386251D01*
X14783070Y-36408918D01*
X14780821Y-36418481D01*
X14781107Y-36420529D01*
X14784751Y-36446653D01*
X14785700Y-36460330D01*
X14785700Y-46935935D01*
X14783480Y-46949613D01*
X14784694Y-46949783D01*
X14783426Y-46958866D01*
X14785594Y-47005741D01*
X14785700Y-47010313D01*
X14785700Y-47028944D01*
X14785722Y-47029066D01*
X14787301Y-47042677D01*
X14788614Y-47071087D01*
X14788615Y-47071094D01*
X14792584Y-47080082D01*
X14799332Y-47101872D01*
X14801139Y-47111533D01*
X14808855Y-47123996D01*
X14816112Y-47135717D01*
X14822501Y-47147838D01*
X14827660Y-47159520D01*
X14833994Y-47173865D01*
X14840945Y-47180816D01*
X14855107Y-47198696D01*
X14860281Y-47207052D01*
X14882981Y-47224194D01*
X14893317Y-47233188D01*
X15626036Y-47965907D01*
X15634137Y-47977147D01*
X15635116Y-47976409D01*
X15640644Y-47983730D01*
X15675324Y-48015345D01*
X15678632Y-48018503D01*
X15691803Y-48031674D01*
X15691895Y-48031737D01*
X15702642Y-48040250D01*
X15723664Y-48059414D01*
X15723665Y-48059414D01*
X15723667Y-48059416D01*
X15732830Y-48062966D01*
X15753016Y-48073605D01*
X15761119Y-48079156D01*
X15788815Y-48085670D01*
X15801893Y-48089720D01*
X15828427Y-48100000D01*
X15838252Y-48100000D01*
X15860916Y-48102629D01*
X15870481Y-48104879D01*
X15895558Y-48101380D01*
X15898654Y-48100949D01*
X15912331Y-48100000D01*
X16646569Y-48100000D01*
X16704760Y-48118907D01*
X16740724Y-48168407D01*
X16741381Y-48214587D01*
X16744010Y-48214965D01*
X16724567Y-48350197D01*
X16724567Y-48350202D01*
X16743002Y-48478425D01*
X16789397Y-48580013D01*
X16796818Y-48596263D01*
X16839145Y-48645111D01*
X16855020Y-48663432D01*
X16878837Y-48719792D01*
X16879200Y-48728263D01*
X16879200Y-73037635D01*
X16876980Y-73051313D01*
X16878194Y-73051483D01*
X16876926Y-73060566D01*
X16879094Y-73107441D01*
X16879200Y-73112013D01*
X16879200Y-73130644D01*
X16879222Y-73130766D01*
X16880801Y-73144377D01*
X16882114Y-73172787D01*
X16882115Y-73172794D01*
X16886084Y-73181782D01*
X16892832Y-73203572D01*
X16894639Y-73213233D01*
X16903509Y-73227560D01*
X16909612Y-73237417D01*
X16916001Y-73249538D01*
X16927494Y-73275565D01*
X16934445Y-73282516D01*
X16948607Y-73300396D01*
X16953781Y-73308752D01*
X16976481Y-73325894D01*
X16986817Y-73334888D01*
X24461409Y-80809480D01*
X24489186Y-80863997D01*
X24479615Y-80924429D01*
X24461409Y-80949488D01*
X24455445Y-80955451D01*
X24411134Y-81021766D01*
X24411132Y-81021772D01*
X24399501Y-81080241D01*
X24399500Y-81080253D01*
X24399500Y-82169746D01*
X24399501Y-82169758D01*
X24411132Y-82228227D01*
X24411133Y-82228231D01*
X24455448Y-82294552D01*
X24521769Y-82338867D01*
X24544816Y-82343451D01*
X24598198Y-82373346D01*
X24623814Y-82428911D01*
X24624500Y-82440548D01*
X24624500Y-83445726D01*
X24605593Y-83503917D01*
X24556093Y-83539881D01*
X24494907Y-83539881D01*
X24471977Y-83529011D01*
X24443503Y-83510712D01*
X24414069Y-83491796D01*
X24388298Y-83484229D01*
X24289774Y-83455300D01*
X24289772Y-83455300D01*
X24160228Y-83455300D01*
X24160225Y-83455300D01*
X24035933Y-83491795D01*
X24035926Y-83491798D01*
X23926952Y-83561831D01*
X23842117Y-83659738D01*
X23788301Y-83777575D01*
X23786307Y-83784369D01*
X23783717Y-83783608D01*
X23761960Y-83827836D01*
X23707839Y-83856377D01*
X23647279Y-83847655D01*
X23603410Y-83805003D01*
X23603185Y-83804573D01*
X23543354Y-83689105D01*
X23444755Y-83583531D01*
X23444754Y-83583530D01*
X23321328Y-83508474D01*
X23182228Y-83469500D01*
X23074051Y-83469500D01*
X22966888Y-83484228D01*
X22834389Y-83541781D01*
X22722334Y-83632945D01*
X22639029Y-83750962D01*
X22590653Y-83887078D01*
X22580796Y-84031199D01*
X22610184Y-84172628D01*
X22610186Y-84172636D01*
X22673312Y-84294461D01*
X22676646Y-84300895D01*
X22775245Y-84406469D01*
X22898672Y-84481526D01*
X23037772Y-84520500D01*
X23037773Y-84520500D01*
X23145943Y-84520500D01*
X23145949Y-84520500D01*
X23253111Y-84505771D01*
X23385609Y-84448219D01*
X23497665Y-84357054D01*
X23580971Y-84239037D01*
X23629346Y-84102921D01*
X23629346Y-84102920D01*
X23630852Y-84098683D01*
X23668154Y-84050184D01*
X23726840Y-84032873D01*
X23784492Y-84053362D01*
X23814189Y-84090709D01*
X23825500Y-84115475D01*
X23842118Y-84151863D01*
X23900320Y-84219032D01*
X23924137Y-84275392D01*
X23924500Y-84283863D01*
X23924500Y-86239235D01*
X23922280Y-86252913D01*
X23923494Y-86253083D01*
X23922226Y-86262166D01*
X23924394Y-86309041D01*
X23924500Y-86313613D01*
X23924500Y-86332244D01*
X23924522Y-86332366D01*
X23926101Y-86345977D01*
X23927414Y-86374387D01*
X23927415Y-86374394D01*
X23931384Y-86383382D01*
X23938132Y-86405172D01*
X23939939Y-86414833D01*
X23948809Y-86429160D01*
X23954912Y-86439017D01*
X23961301Y-86451138D01*
X23972794Y-86477165D01*
X23979745Y-86484116D01*
X23993907Y-86501996D01*
X23999081Y-86510352D01*
X24021781Y-86527494D01*
X24032117Y-86536488D01*
X24213936Y-86718307D01*
X24222037Y-86729547D01*
X24223016Y-86728809D01*
X24228544Y-86736130D01*
X24263224Y-86767745D01*
X24266532Y-86770903D01*
X24279703Y-86784074D01*
X24279795Y-86784137D01*
X24290542Y-86792650D01*
X24311564Y-86811814D01*
X24311565Y-86811814D01*
X24311567Y-86811816D01*
X24320725Y-86815363D01*
X24340912Y-86826003D01*
X24349019Y-86831557D01*
X24376710Y-86838069D01*
X24389795Y-86842121D01*
X24407490Y-86848976D01*
X24412186Y-86850796D01*
X24416327Y-86852400D01*
X24426152Y-86852400D01*
X24448816Y-86855029D01*
X24458381Y-86857279D01*
X24486145Y-86853406D01*
X24486554Y-86853349D01*
X24500231Y-86852400D01*
X25289136Y-86852400D01*
X25302811Y-86854632D01*
X25302983Y-86853406D01*
X25312064Y-86854672D01*
X25312065Y-86854673D01*
X25312065Y-86854672D01*
X25312066Y-86854673D01*
X25358942Y-86852506D01*
X25363514Y-86852400D01*
X25382142Y-86852400D01*
X25382144Y-86852400D01*
X25382248Y-86852380D01*
X25395871Y-86850798D01*
X25424292Y-86849485D01*
X25433276Y-86845517D01*
X25455077Y-86838765D01*
X25464733Y-86836961D01*
X25488918Y-86821986D01*
X25501028Y-86815601D01*
X25527065Y-86804106D01*
X25534009Y-86797160D01*
X25551901Y-86782989D01*
X25560252Y-86777819D01*
X25577389Y-86755123D01*
X25586382Y-86744787D01*
X26439605Y-85891564D01*
X26450864Y-85883493D01*
X26450105Y-85882487D01*
X26457421Y-85876961D01*
X26457428Y-85876958D01*
X26489077Y-85842239D01*
X26492195Y-85838974D01*
X26505374Y-85825797D01*
X26505438Y-85825702D01*
X26513953Y-85814953D01*
X26533116Y-85793933D01*
X26536664Y-85784771D01*
X26547311Y-85764576D01*
X26548655Y-85762614D01*
X26552857Y-85756481D01*
X26559371Y-85728782D01*
X26563422Y-85715701D01*
X26573700Y-85689173D01*
X26573700Y-85679348D01*
X26576330Y-85656679D01*
X26578579Y-85647119D01*
X26574649Y-85618944D01*
X26573700Y-85605268D01*
X26573700Y-85285465D01*
X26592607Y-85227274D01*
X26642107Y-85191310D01*
X26644785Y-85190482D01*
X26702269Y-85173604D01*
X26811249Y-85103567D01*
X26896082Y-85005663D01*
X26949897Y-84887826D01*
X26961546Y-84806803D01*
X26968333Y-84759602D01*
X26968333Y-84759597D01*
X26949897Y-84631374D01*
X26896082Y-84513538D01*
X26896082Y-84513537D01*
X26811249Y-84415633D01*
X26811248Y-84415632D01*
X26811247Y-84415631D01*
X26702273Y-84345598D01*
X26702270Y-84345596D01*
X26702269Y-84345596D01*
X26702266Y-84345595D01*
X26577974Y-84309100D01*
X26577972Y-84309100D01*
X26448428Y-84309100D01*
X26448425Y-84309100D01*
X26324133Y-84345595D01*
X26324126Y-84345598D01*
X26215152Y-84415631D01*
X26130317Y-84513538D01*
X26076502Y-84631374D01*
X26057286Y-84765026D01*
X26036600Y-84812782D01*
X26036596Y-84812787D01*
X26032455Y-84817635D01*
X26013283Y-84838666D01*
X26013283Y-84838667D01*
X26009729Y-84847840D01*
X25999096Y-84868012D01*
X25993546Y-84876115D01*
X25993541Y-84876124D01*
X25987030Y-84903806D01*
X25982977Y-84916896D01*
X25972701Y-84943423D01*
X25972700Y-84943429D01*
X25972700Y-84953251D01*
X25970070Y-84975918D01*
X25967821Y-84985479D01*
X25971751Y-85013653D01*
X25972700Y-85027330D01*
X25972700Y-85467521D01*
X25953793Y-85525712D01*
X25943704Y-85537525D01*
X25619504Y-85861725D01*
X25564987Y-85889502D01*
X25504555Y-85879931D01*
X25461290Y-85836666D01*
X25450500Y-85791721D01*
X25450500Y-85230253D01*
X25450498Y-85230241D01*
X25447711Y-85216231D01*
X25438867Y-85171769D01*
X25394552Y-85105448D01*
X25394548Y-85105445D01*
X25328233Y-85061134D01*
X25328231Y-85061133D01*
X25328228Y-85061132D01*
X25328227Y-85061132D01*
X25305184Y-85056548D01*
X25251800Y-85026650D01*
X25226186Y-84971085D01*
X25225500Y-84959451D01*
X25225500Y-84511622D01*
X25244407Y-84453431D01*
X25293907Y-84417467D01*
X25355093Y-84417467D01*
X25378020Y-84428336D01*
X25431031Y-84462404D01*
X25555328Y-84498900D01*
X25555330Y-84498900D01*
X25684870Y-84498900D01*
X25684872Y-84498900D01*
X25809169Y-84462404D01*
X25918149Y-84392367D01*
X26002982Y-84294463D01*
X26056797Y-84176626D01*
X26075233Y-84048400D01*
X26075232Y-84048398D01*
X26075608Y-84045788D01*
X26082781Y-84031199D01*
X28360796Y-84031199D01*
X28390184Y-84172628D01*
X28390186Y-84172636D01*
X28453312Y-84294461D01*
X28456646Y-84300895D01*
X28555245Y-84406469D01*
X28678672Y-84481526D01*
X28817772Y-84520500D01*
X28817773Y-84520500D01*
X28925943Y-84520500D01*
X28925949Y-84520500D01*
X29033111Y-84505771D01*
X29165609Y-84448219D01*
X29277665Y-84357054D01*
X29360971Y-84239037D01*
X29409346Y-84102921D01*
X29419204Y-83958801D01*
X29408190Y-83905800D01*
X29389815Y-83817371D01*
X29389813Y-83817363D01*
X29323355Y-83689107D01*
X29323353Y-83689104D01*
X29309409Y-83674173D01*
X29224755Y-83583531D01*
X29224754Y-83583530D01*
X29101328Y-83508474D01*
X28962228Y-83469500D01*
X28854051Y-83469500D01*
X28746888Y-83484228D01*
X28614389Y-83541781D01*
X28502334Y-83632945D01*
X28419029Y-83750962D01*
X28370653Y-83887078D01*
X28360796Y-84031199D01*
X26082781Y-84031199D01*
X26102603Y-83990880D01*
X26103511Y-83989958D01*
X26216906Y-83876564D01*
X26228165Y-83868493D01*
X26227405Y-83867487D01*
X26234721Y-83861961D01*
X26234728Y-83861958D01*
X26266368Y-83827249D01*
X26269486Y-83823984D01*
X26282675Y-83810797D01*
X26282737Y-83810705D01*
X26291252Y-83799952D01*
X26310416Y-83778933D01*
X26313965Y-83769769D01*
X26324611Y-83749575D01*
X26330157Y-83741480D01*
X26336669Y-83713788D01*
X26340724Y-83700695D01*
X26342495Y-83696124D01*
X26351000Y-83674173D01*
X26351000Y-83664347D01*
X26353630Y-83641678D01*
X26355879Y-83632118D01*
X26351949Y-83603942D01*
X26351000Y-83590266D01*
X26351000Y-80275663D01*
X26369907Y-80217472D01*
X26375180Y-80210832D01*
X26433382Y-80143663D01*
X26487197Y-80025826D01*
X26505633Y-79897600D01*
X26487197Y-79769374D01*
X26433382Y-79651537D01*
X26348549Y-79553633D01*
X26348548Y-79553632D01*
X26348547Y-79553631D01*
X26239573Y-79483598D01*
X26239570Y-79483596D01*
X26239569Y-79483596D01*
X26239566Y-79483595D01*
X26115274Y-79447100D01*
X26115272Y-79447100D01*
X25985728Y-79447100D01*
X25985725Y-79447100D01*
X25861433Y-79483595D01*
X25861426Y-79483598D01*
X25752452Y-79553631D01*
X25667617Y-79651538D01*
X25613802Y-79769374D01*
X25595367Y-79897597D01*
X25595367Y-79897602D01*
X25613802Y-80025825D01*
X25650290Y-80105721D01*
X25667618Y-80143663D01*
X25670275Y-80146729D01*
X25725820Y-80210832D01*
X25749637Y-80267192D01*
X25750000Y-80275663D01*
X25750000Y-83452521D01*
X25731093Y-83510712D01*
X25721004Y-83522525D01*
X25674625Y-83568904D01*
X25620108Y-83596681D01*
X25604621Y-83597900D01*
X25555325Y-83597900D01*
X25431033Y-83634395D01*
X25431031Y-83634396D01*
X25378023Y-83668462D01*
X25318847Y-83684015D01*
X25261831Y-83661816D01*
X25228752Y-83610344D01*
X25225500Y-83585177D01*
X25225500Y-82440548D01*
X25244407Y-82382357D01*
X25293907Y-82346393D01*
X25305170Y-82343453D01*
X25328231Y-82338867D01*
X25394552Y-82294552D01*
X25438867Y-82228231D01*
X25450500Y-82169748D01*
X25450500Y-81080252D01*
X25438867Y-81021769D01*
X25394552Y-80955448D01*
X25394548Y-80955445D01*
X25328233Y-80911134D01*
X25328231Y-80911133D01*
X25328228Y-80911132D01*
X25328227Y-80911132D01*
X25304595Y-80906431D01*
X25251212Y-80876534D01*
X25227267Y-80824591D01*
X25226343Y-80824765D01*
X25225656Y-80821097D01*
X25225597Y-80820968D01*
X25225551Y-80820533D01*
X25225500Y-80820260D01*
X25225500Y-80820256D01*
X25225478Y-80820142D01*
X25223898Y-80806530D01*
X25222585Y-80778108D01*
X25218615Y-80769117D01*
X25211864Y-80747315D01*
X25210061Y-80737668D01*
X25210061Y-80737667D01*
X25195085Y-80713479D01*
X25188698Y-80701362D01*
X25177206Y-80675335D01*
X25177205Y-80675333D01*
X25170256Y-80668384D01*
X25156090Y-80650499D01*
X25150919Y-80642148D01*
X25128221Y-80625007D01*
X25117879Y-80616008D01*
X17509196Y-73007325D01*
X17481419Y-72952808D01*
X17480200Y-72937321D01*
X17480200Y-48728263D01*
X17499107Y-48670072D01*
X17504380Y-48663432D01*
X17520255Y-48645111D01*
X17562582Y-48596263D01*
X17570004Y-48580010D01*
X17611372Y-48534934D01*
X17671339Y-48522781D01*
X17726996Y-48548196D01*
X17730061Y-48551132D01*
X23580804Y-54401875D01*
X23608581Y-54456392D01*
X23609800Y-54471879D01*
X23609800Y-77430437D01*
X23590893Y-77488628D01*
X23585620Y-77495267D01*
X23527418Y-77562436D01*
X23527416Y-77562440D01*
X23473602Y-77680274D01*
X23455167Y-77808497D01*
X23455167Y-77808502D01*
X23473602Y-77936725D01*
X23527417Y-78054561D01*
X23527418Y-78054563D01*
X23612251Y-78152467D01*
X23612252Y-78152468D01*
X23710815Y-78215810D01*
X23721231Y-78222504D01*
X23845528Y-78259000D01*
X23845530Y-78259000D01*
X23975070Y-78259000D01*
X23975072Y-78259000D01*
X24099369Y-78222504D01*
X24208349Y-78152467D01*
X24293182Y-78054563D01*
X24346997Y-77936726D01*
X24365433Y-77808502D01*
X25544867Y-77808502D01*
X25563302Y-77936725D01*
X25617117Y-78054561D01*
X25617118Y-78054563D01*
X25701951Y-78152467D01*
X25701952Y-78152468D01*
X25800515Y-78215810D01*
X25810931Y-78222504D01*
X25935228Y-78259000D01*
X25935230Y-78259000D01*
X26064770Y-78259000D01*
X26064772Y-78259000D01*
X26189069Y-78222504D01*
X26298049Y-78152467D01*
X26382882Y-78054563D01*
X26436697Y-77936726D01*
X26455133Y-77808500D01*
X26436697Y-77680274D01*
X26382882Y-77562437D01*
X26324679Y-77495266D01*
X26300863Y-77438908D01*
X26300500Y-77430437D01*
X26300500Y-76743302D01*
X36364567Y-76743302D01*
X36383002Y-76871525D01*
X36436817Y-76989361D01*
X36436818Y-76989363D01*
X36521651Y-77087267D01*
X36521652Y-77087268D01*
X36630626Y-77157301D01*
X36630631Y-77157304D01*
X36754928Y-77193800D01*
X36754930Y-77193800D01*
X36884470Y-77193800D01*
X36884472Y-77193800D01*
X37008769Y-77157304D01*
X37117749Y-77087267D01*
X37202582Y-76989363D01*
X37256397Y-76871526D01*
X37274833Y-76743300D01*
X37256397Y-76615074D01*
X37202582Y-76497237D01*
X37144379Y-76430066D01*
X37120563Y-76373708D01*
X37120200Y-76365237D01*
X37120200Y-51987363D01*
X37139107Y-51929172D01*
X37144380Y-51922532D01*
X37202582Y-51855363D01*
X37256397Y-51737526D01*
X37274833Y-51609300D01*
X37263176Y-51528226D01*
X37256397Y-51481074D01*
X37202582Y-51363238D01*
X37202582Y-51363237D01*
X37117749Y-51265333D01*
X37117748Y-51265332D01*
X37117747Y-51265331D01*
X37008773Y-51195298D01*
X37008770Y-51195296D01*
X37008769Y-51195296D01*
X37008766Y-51195295D01*
X36884474Y-51158800D01*
X36884472Y-51158800D01*
X36754928Y-51158800D01*
X36754925Y-51158800D01*
X36630633Y-51195295D01*
X36630626Y-51195298D01*
X36521652Y-51265331D01*
X36436817Y-51363238D01*
X36383002Y-51481074D01*
X36364567Y-51609297D01*
X36364567Y-51609302D01*
X36383002Y-51737525D01*
X36417928Y-51814001D01*
X36436818Y-51855363D01*
X36495020Y-51922532D01*
X36518837Y-51978892D01*
X36519200Y-51987363D01*
X36519200Y-76365237D01*
X36500293Y-76423428D01*
X36495020Y-76430067D01*
X36436818Y-76497236D01*
X36436816Y-76497240D01*
X36383002Y-76615074D01*
X36364567Y-76743297D01*
X36364567Y-76743302D01*
X26300500Y-76743302D01*
X26300500Y-51092663D01*
X26319407Y-51034472D01*
X26324680Y-51027832D01*
X26382882Y-50960663D01*
X26436697Y-50842826D01*
X26446534Y-50774410D01*
X26455133Y-50714602D01*
X26455133Y-50714597D01*
X26436697Y-50586374D01*
X26405949Y-50519046D01*
X26382882Y-50468537D01*
X26298049Y-50370633D01*
X26298048Y-50370632D01*
X26298047Y-50370631D01*
X26189073Y-50300598D01*
X26189070Y-50300596D01*
X26189069Y-50300596D01*
X26160437Y-50292189D01*
X26064774Y-50264100D01*
X26064772Y-50264100D01*
X25935228Y-50264100D01*
X25935225Y-50264100D01*
X25810933Y-50300595D01*
X25810926Y-50300598D01*
X25701952Y-50370631D01*
X25617117Y-50468538D01*
X25563302Y-50586374D01*
X25544867Y-50714597D01*
X25544867Y-50714602D01*
X25563302Y-50842825D01*
X25617117Y-50960661D01*
X25617118Y-50960663D01*
X25639071Y-50985998D01*
X25675320Y-51027832D01*
X25699137Y-51084192D01*
X25699500Y-51092663D01*
X25699500Y-77430437D01*
X25680593Y-77488628D01*
X25675320Y-77495267D01*
X25617118Y-77562436D01*
X25617116Y-77562440D01*
X25563302Y-77680274D01*
X25544867Y-77808497D01*
X25544867Y-77808502D01*
X24365433Y-77808502D01*
X24365433Y-77808500D01*
X24346997Y-77680274D01*
X24293182Y-77562437D01*
X24234979Y-77495266D01*
X24211163Y-77438908D01*
X24210800Y-77430437D01*
X24210800Y-54371568D01*
X24213031Y-54357895D01*
X24211805Y-54357724D01*
X24213073Y-54348632D01*
X24210906Y-54301757D01*
X24210800Y-54297185D01*
X24210800Y-54278560D01*
X24210800Y-54278556D01*
X24210778Y-54278442D01*
X24209198Y-54264830D01*
X24207885Y-54236408D01*
X24203915Y-54227417D01*
X24197164Y-54205615D01*
X24195361Y-54195968D01*
X24195361Y-54195967D01*
X24180385Y-54171779D01*
X24173998Y-54159662D01*
X24162506Y-54133635D01*
X24162505Y-54133633D01*
X24155556Y-54126684D01*
X24141390Y-54108799D01*
X24136219Y-54100448D01*
X24113521Y-54083307D01*
X24103179Y-54074308D01*
X17891924Y-47863053D01*
X17864147Y-47808536D01*
X17873718Y-47748104D01*
X17916983Y-47704839D01*
X17942609Y-47695952D01*
X17978231Y-47688867D01*
X17978232Y-47688866D01*
X17980686Y-47688378D01*
X18019315Y-47688379D01*
X18080241Y-47700498D01*
X18080246Y-47700498D01*
X18080252Y-47700500D01*
X18080253Y-47700500D01*
X18419747Y-47700500D01*
X18419748Y-47700500D01*
X18424775Y-47699500D01*
X18480685Y-47688379D01*
X18519315Y-47688379D01*
X18580241Y-47700498D01*
X18580246Y-47700498D01*
X18580252Y-47700500D01*
X18580253Y-47700500D01*
X18919747Y-47700500D01*
X18919748Y-47700500D01*
X18924775Y-47699500D01*
X18980685Y-47688379D01*
X19019315Y-47688379D01*
X19080241Y-47700498D01*
X19080246Y-47700498D01*
X19080252Y-47700500D01*
X19216663Y-47700500D01*
X19274854Y-47719407D01*
X19310818Y-47768907D01*
X19311471Y-47814356D01*
X19314310Y-47814765D01*
X19294867Y-47949997D01*
X19294867Y-47950002D01*
X19313302Y-48078225D01*
X19354488Y-48168407D01*
X19367118Y-48196063D01*
X19389570Y-48221974D01*
X19451952Y-48293968D01*
X19560926Y-48364001D01*
X19560931Y-48364004D01*
X19685228Y-48400500D01*
X19685230Y-48400500D01*
X19814770Y-48400500D01*
X19814772Y-48400500D01*
X19939069Y-48364004D01*
X20048049Y-48293967D01*
X20132882Y-48196063D01*
X20186697Y-48078226D01*
X20200246Y-47983988D01*
X20205133Y-47950002D01*
X20205133Y-47949997D01*
X20185690Y-47814765D01*
X20188716Y-47814329D01*
X20190102Y-47766209D01*
X20227477Y-47717765D01*
X20283337Y-47700500D01*
X20419747Y-47700500D01*
X20419748Y-47700500D01*
X20424775Y-47699500D01*
X20480685Y-47688379D01*
X20519315Y-47688379D01*
X20580241Y-47700498D01*
X20580246Y-47700498D01*
X20580252Y-47700500D01*
X20580253Y-47700500D01*
X20919747Y-47700500D01*
X20919748Y-47700500D01*
X20924775Y-47699500D01*
X20980685Y-47688379D01*
X21019315Y-47688379D01*
X21080241Y-47700498D01*
X21080246Y-47700498D01*
X21080252Y-47700500D01*
X21080253Y-47700500D01*
X21419747Y-47700500D01*
X21419748Y-47700500D01*
X21424775Y-47699500D01*
X21480685Y-47688379D01*
X21519315Y-47688379D01*
X21580241Y-47700498D01*
X21580246Y-47700498D01*
X21580252Y-47700500D01*
X21580253Y-47700500D01*
X21919747Y-47700500D01*
X21919748Y-47700500D01*
X21978231Y-47688867D01*
X22044552Y-47644552D01*
X22088867Y-47578231D01*
X22100500Y-47519748D01*
X22100500Y-46180252D01*
X22088867Y-46121769D01*
X22044552Y-46055448D01*
X22044548Y-46055445D01*
X22044547Y-46055444D01*
X22034297Y-46048595D01*
X21996418Y-46000545D01*
X21990300Y-45966281D01*
X21990300Y-41654979D01*
X22009207Y-41596788D01*
X22058707Y-41560824D01*
X22119893Y-41560824D01*
X22159304Y-41584975D01*
X24327236Y-43752907D01*
X24335337Y-43764147D01*
X24336316Y-43763409D01*
X24341844Y-43770730D01*
X24376524Y-43802345D01*
X24379832Y-43805503D01*
X24393003Y-43818674D01*
X24393095Y-43818737D01*
X24403842Y-43827250D01*
X24424864Y-43846414D01*
X24424865Y-43846414D01*
X24424867Y-43846416D01*
X24434025Y-43849963D01*
X24454212Y-43860603D01*
X24462319Y-43866157D01*
X24490010Y-43872669D01*
X24503095Y-43876721D01*
X24520790Y-43883576D01*
X24528741Y-43886657D01*
X24529627Y-43887000D01*
X24539452Y-43887000D01*
X24562116Y-43889629D01*
X24571681Y-43891879D01*
X24599445Y-43888006D01*
X24599854Y-43887949D01*
X24613531Y-43887000D01*
X27042836Y-43887000D01*
X27056511Y-43889232D01*
X27056683Y-43888006D01*
X27065764Y-43889272D01*
X27065765Y-43889273D01*
X27065765Y-43889272D01*
X27065766Y-43889273D01*
X27112642Y-43887106D01*
X27117214Y-43887000D01*
X27135842Y-43887000D01*
X27135844Y-43887000D01*
X27135948Y-43886980D01*
X27149571Y-43885398D01*
X27177992Y-43884085D01*
X27186976Y-43880117D01*
X27208777Y-43873365D01*
X27218433Y-43871561D01*
X27242618Y-43856586D01*
X27254728Y-43850201D01*
X27280765Y-43838706D01*
X27287709Y-43831760D01*
X27305601Y-43817589D01*
X27313952Y-43812419D01*
X27331089Y-43789723D01*
X27340082Y-43779387D01*
X29584297Y-41535173D01*
X29638813Y-41507397D01*
X29699245Y-41516968D01*
X29742510Y-41560233D01*
X29753300Y-41605178D01*
X29753300Y-45198335D01*
X29751080Y-45212013D01*
X29752294Y-45212183D01*
X29751026Y-45221266D01*
X29753194Y-45268141D01*
X29753300Y-45272713D01*
X29753300Y-45291344D01*
X29753322Y-45291466D01*
X29754901Y-45305077D01*
X29756214Y-45333487D01*
X29756215Y-45333494D01*
X29760184Y-45342482D01*
X29766932Y-45364272D01*
X29768739Y-45373933D01*
X29775790Y-45385321D01*
X29783712Y-45398117D01*
X29790101Y-45410238D01*
X29793955Y-45418966D01*
X29801594Y-45436265D01*
X29808545Y-45443216D01*
X29822707Y-45461096D01*
X29827881Y-45469452D01*
X29850581Y-45486594D01*
X29860917Y-45495588D01*
X30386607Y-46021278D01*
X30414384Y-46075795D01*
X30410151Y-46111632D01*
X30413035Y-46112206D01*
X30399500Y-46180249D01*
X30399500Y-47519746D01*
X30399501Y-47519758D01*
X30411132Y-47578227D01*
X30411134Y-47578233D01*
X30455445Y-47644548D01*
X30455448Y-47644552D01*
X30521769Y-47688867D01*
X30557383Y-47695951D01*
X30580241Y-47700498D01*
X30580246Y-47700498D01*
X30580252Y-47700500D01*
X30580253Y-47700500D01*
X30919747Y-47700500D01*
X30919748Y-47700500D01*
X30978231Y-47688867D01*
X31044552Y-47644552D01*
X31088867Y-47578231D01*
X31100500Y-47519748D01*
X31100500Y-46180252D01*
X31088867Y-46121769D01*
X31088864Y-46121764D01*
X31088863Y-46121762D01*
X31067185Y-46089318D01*
X31050500Y-46034317D01*
X31050500Y-46024868D01*
X31052731Y-46011195D01*
X31051505Y-46011024D01*
X31052773Y-46001932D01*
X31050606Y-45955057D01*
X31050500Y-45950485D01*
X31050500Y-45931860D01*
X31050500Y-45931856D01*
X31050478Y-45931742D01*
X31048898Y-45918130D01*
X31047585Y-45889708D01*
X31043614Y-45880716D01*
X31036864Y-45858914D01*
X31035061Y-45849268D01*
X31035061Y-45849267D01*
X31020085Y-45825079D01*
X31013697Y-45812960D01*
X31002206Y-45786934D01*
X31002205Y-45786933D01*
X31002204Y-45786931D01*
X30995254Y-45779981D01*
X30981088Y-45762095D01*
X30975921Y-45753751D01*
X30975921Y-45753750D01*
X30975919Y-45753748D01*
X30953222Y-45736608D01*
X30942883Y-45727612D01*
X30784575Y-45569304D01*
X30756798Y-45514787D01*
X30766369Y-45454355D01*
X30809634Y-45411090D01*
X30854579Y-45400300D01*
X30857770Y-45400300D01*
X30857772Y-45400300D01*
X30982069Y-45363804D01*
X31091049Y-45293767D01*
X31108058Y-45274135D01*
X31142888Y-45248402D01*
X31145190Y-45247385D01*
X31145192Y-45247385D01*
X31154180Y-45243416D01*
X31175977Y-45236665D01*
X31185633Y-45234861D01*
X31209818Y-45219886D01*
X31221928Y-45213501D01*
X31247965Y-45202006D01*
X31254909Y-45195060D01*
X31272801Y-45180889D01*
X31281152Y-45175719D01*
X31298289Y-45153023D01*
X31307290Y-45142680D01*
X31395476Y-45054495D01*
X31449993Y-45026718D01*
X31465479Y-45025499D01*
X31906521Y-45025499D01*
X31906522Y-45025498D01*
X31961118Y-45016852D01*
X32000299Y-45010647D01*
X32000299Y-45010646D01*
X32000304Y-45010646D01*
X32113342Y-44953050D01*
X32203050Y-44863342D01*
X32260646Y-44750304D01*
X32275500Y-44656519D01*
X32275499Y-44193482D01*
X32266837Y-44138786D01*
X32276409Y-44078354D01*
X32319674Y-44035090D01*
X32364618Y-44024300D01*
X32535381Y-44024300D01*
X32593572Y-44043207D01*
X32629536Y-44092707D01*
X32633161Y-44138785D01*
X32632568Y-44142537D01*
X32624499Y-44193479D01*
X32624499Y-44656520D01*
X32624500Y-44656523D01*
X32639351Y-44750299D01*
X32639353Y-44750303D01*
X32639353Y-44750304D01*
X32696949Y-44863342D01*
X32786657Y-44953050D01*
X32786659Y-44953051D01*
X32895445Y-45008481D01*
X32938710Y-45051745D01*
X32949500Y-45096690D01*
X32949500Y-45900500D01*
X32930593Y-45958691D01*
X32881093Y-45994655D01*
X32850500Y-45999500D01*
X32783337Y-45999500D01*
X32725146Y-45980593D01*
X32689182Y-45931093D01*
X32688528Y-45885643D01*
X32685690Y-45885235D01*
X32705133Y-45750002D01*
X32705133Y-45749997D01*
X32686697Y-45621774D01*
X32676753Y-45600000D01*
X32632882Y-45503937D01*
X32548049Y-45406033D01*
X32548048Y-45406032D01*
X32548047Y-45406031D01*
X32439073Y-45335998D01*
X32439070Y-45335996D01*
X32439069Y-45335996D01*
X32416748Y-45329442D01*
X32314774Y-45299500D01*
X32314772Y-45299500D01*
X32185228Y-45299500D01*
X32185225Y-45299500D01*
X32060933Y-45335995D01*
X32060926Y-45335998D01*
X31951952Y-45406031D01*
X31867117Y-45503938D01*
X31813302Y-45621774D01*
X31794867Y-45749997D01*
X31794867Y-45750002D01*
X31814310Y-45885235D01*
X31811283Y-45885670D01*
X31809898Y-45933791D01*
X31772523Y-45982235D01*
X31716663Y-45999500D01*
X31580252Y-45999500D01*
X31580251Y-45999500D01*
X31580241Y-45999501D01*
X31521772Y-46011132D01*
X31521766Y-46011134D01*
X31455451Y-46055445D01*
X31455445Y-46055451D01*
X31411134Y-46121766D01*
X31411132Y-46121772D01*
X31399501Y-46180241D01*
X31399500Y-46180251D01*
X31399500Y-46180252D01*
X31399500Y-47519748D01*
X31411133Y-47578231D01*
X31411133Y-47578232D01*
X31413036Y-47587794D01*
X31409983Y-47588401D01*
X31413522Y-47633419D01*
X31392080Y-47675128D01*
X31367118Y-47703936D01*
X31367116Y-47703940D01*
X31313302Y-47821774D01*
X31294867Y-47949997D01*
X31294867Y-47950002D01*
X31313302Y-48078225D01*
X31354488Y-48168407D01*
X31367118Y-48196063D01*
X31389570Y-48221974D01*
X31451952Y-48293968D01*
X31560926Y-48364001D01*
X31560931Y-48364004D01*
X31685228Y-48400500D01*
X31685230Y-48400500D01*
X31814770Y-48400500D01*
X31814772Y-48400500D01*
X31939069Y-48364004D01*
X32048049Y-48293967D01*
X32132882Y-48196063D01*
X32166272Y-48122951D01*
X32207644Y-48077873D01*
X32267611Y-48065722D01*
X32323267Y-48091140D01*
X32346378Y-48122950D01*
X32358730Y-48149997D01*
X32367118Y-48168363D01*
X32451951Y-48266267D01*
X32451952Y-48266268D01*
X32560926Y-48336301D01*
X32560931Y-48336304D01*
X32685228Y-48372800D01*
X32685230Y-48372800D01*
X32814770Y-48372800D01*
X32814772Y-48372800D01*
X32939069Y-48336304D01*
X33048049Y-48266267D01*
X33132882Y-48168363D01*
X33186697Y-48050526D01*
X33198863Y-47965907D01*
X33205133Y-47922302D01*
X33205133Y-47922297D01*
X33189503Y-47813589D01*
X33199936Y-47753300D01*
X33243814Y-47710658D01*
X33287495Y-47700500D01*
X33419747Y-47700500D01*
X33419748Y-47700500D01*
X33424775Y-47699500D01*
X33480685Y-47688379D01*
X33519315Y-47688379D01*
X33580241Y-47700498D01*
X33580246Y-47700498D01*
X33580252Y-47700500D01*
X33580253Y-47700500D01*
X33852274Y-47700500D01*
X33910465Y-47719407D01*
X33946429Y-47768907D01*
X33951168Y-47794929D01*
X33952414Y-47821886D01*
X33952415Y-47821894D01*
X33956384Y-47830882D01*
X33963132Y-47852672D01*
X33964939Y-47862333D01*
X33965385Y-47863053D01*
X33979912Y-47886517D01*
X33986301Y-47898638D01*
X33991460Y-47910320D01*
X33997794Y-47924665D01*
X34004745Y-47931616D01*
X34018907Y-47949496D01*
X34024081Y-47957852D01*
X34046781Y-47974994D01*
X34057117Y-47983988D01*
X34740337Y-48667209D01*
X34748437Y-48678448D01*
X34749416Y-48677709D01*
X34754944Y-48685030D01*
X34789614Y-48716636D01*
X34792919Y-48719792D01*
X34799847Y-48726719D01*
X34806103Y-48732975D01*
X34806200Y-48733041D01*
X34816949Y-48741556D01*
X34829510Y-48753006D01*
X34837967Y-48760716D01*
X34837970Y-48760717D01*
X34847126Y-48764264D01*
X34867316Y-48774905D01*
X34875420Y-48780457D01*
X34903112Y-48786969D01*
X34916199Y-48791022D01*
X34942727Y-48801300D01*
X34952553Y-48801300D01*
X34975217Y-48803929D01*
X34984782Y-48806179D01*
X35012956Y-48802248D01*
X35026632Y-48801300D01*
X35384336Y-48801300D01*
X35398011Y-48803532D01*
X35398183Y-48802306D01*
X35407264Y-48803572D01*
X35407265Y-48803573D01*
X35407265Y-48803572D01*
X35407266Y-48803573D01*
X35454142Y-48801406D01*
X35458714Y-48801300D01*
X35477342Y-48801300D01*
X35477344Y-48801300D01*
X35477448Y-48801280D01*
X35491079Y-48799697D01*
X35501927Y-48799196D01*
X35560928Y-48815396D01*
X35599139Y-48863183D01*
X35601964Y-48924303D01*
X35576501Y-48968094D01*
X34161565Y-50383030D01*
X34153288Y-50390426D01*
X34124330Y-50413519D01*
X34124329Y-50413520D01*
X34091856Y-50461148D01*
X34089716Y-50464164D01*
X34055507Y-50510516D01*
X34052042Y-50517074D01*
X34051653Y-50516868D01*
X34050650Y-50518855D01*
X34051046Y-50519046D01*
X34047826Y-50525732D01*
X34030836Y-50580810D01*
X34029680Y-50584323D01*
X34010655Y-50638695D01*
X34009276Y-50645987D01*
X34008844Y-50645905D01*
X34008471Y-50648100D01*
X34008905Y-50648166D01*
X34007800Y-50655499D01*
X34007800Y-50713115D01*
X34007731Y-50716816D01*
X34005576Y-50774410D01*
X34006407Y-50781785D01*
X34005968Y-50781834D01*
X34007800Y-50795744D01*
X34007800Y-75948897D01*
X34006792Y-75962986D01*
X34003167Y-75988198D01*
X34003167Y-75988204D01*
X34007079Y-76015415D01*
X34007780Y-76021826D01*
X34007800Y-76021958D01*
X34007800Y-76021962D01*
X34012570Y-76053615D01*
X34012639Y-76054084D01*
X34022057Y-76119588D01*
X34022952Y-76122488D01*
X34049975Y-76178601D01*
X34050832Y-76180429D01*
X34075417Y-76234262D01*
X34077582Y-76237632D01*
X34080428Y-76242720D01*
X34081876Y-76244843D01*
X34121700Y-76287763D01*
X34123948Y-76290270D01*
X34160248Y-76332164D01*
X34165597Y-76336799D01*
X34165288Y-76337155D01*
X34168433Y-76339788D01*
X34168448Y-76339771D01*
X34174244Y-76344393D01*
X34174245Y-76344394D01*
X34221728Y-76371808D01*
X34225729Y-76374247D01*
X34269231Y-76402204D01*
X34269233Y-76402204D01*
X34273471Y-76404140D01*
X34289948Y-76411195D01*
X34291855Y-76412296D01*
X34341666Y-76423664D01*
X34347520Y-76425191D01*
X34393522Y-76438699D01*
X34393527Y-76438699D01*
X34393528Y-76438700D01*
X34396384Y-76438700D01*
X34418413Y-76441182D01*
X34419124Y-76441344D01*
X34424254Y-76442515D01*
X34471464Y-76438977D01*
X34478863Y-76438700D01*
X34523070Y-76438700D01*
X34523072Y-76438700D01*
X34529440Y-76436829D01*
X34549933Y-76433095D01*
X34559678Y-76432366D01*
X34600273Y-76416432D01*
X34608518Y-76413610D01*
X34647369Y-76402204D01*
X34656130Y-76396572D01*
X34673485Y-76387700D01*
X34686094Y-76382752D01*
X34717254Y-76357902D01*
X34725442Y-76352028D01*
X34756349Y-76332167D01*
X34765644Y-76321438D01*
X34778731Y-76308875D01*
X34792270Y-76298079D01*
X34812610Y-76268243D01*
X34819579Y-76259192D01*
X34841182Y-76234263D01*
X34848638Y-76217933D01*
X34856893Y-76203294D01*
X34868772Y-76185873D01*
X34878309Y-76154950D01*
X34882855Y-76143010D01*
X34894997Y-76116426D01*
X34895479Y-76113068D01*
X34898088Y-76094931D01*
X34901478Y-76079839D01*
X34901751Y-76078950D01*
X34908800Y-76056102D01*
X34908800Y-76027501D01*
X34909808Y-76013410D01*
X34913433Y-75988200D01*
X34913433Y-75988198D01*
X34909808Y-75962986D01*
X34908800Y-75948897D01*
X34908800Y-50951010D01*
X34927707Y-50892819D01*
X34937790Y-50881012D01*
X38167843Y-47650958D01*
X38176103Y-47643578D01*
X38205070Y-47620479D01*
X38237557Y-47572827D01*
X38239659Y-47569866D01*
X38273893Y-47523482D01*
X38273895Y-47523476D01*
X38277363Y-47516916D01*
X38277755Y-47517123D01*
X38278751Y-47515150D01*
X38278352Y-47514958D01*
X38281572Y-47508272D01*
X38284911Y-47497446D01*
X38298577Y-47453138D01*
X38299695Y-47449738D01*
X38318746Y-47395299D01*
X38318746Y-47395294D01*
X38320126Y-47388007D01*
X38320560Y-47388089D01*
X38320932Y-47385903D01*
X38320494Y-47385837D01*
X38321600Y-47378500D01*
X38321600Y-47320883D01*
X38321669Y-47317182D01*
X38322070Y-47306473D01*
X38323824Y-47259590D01*
X38323822Y-47259582D01*
X38322993Y-47252218D01*
X38323431Y-47252168D01*
X38321600Y-47238257D01*
X38321600Y-44583301D01*
X38322608Y-44569210D01*
X38326233Y-44544000D01*
X38325053Y-44535795D01*
X38322318Y-44516770D01*
X38321616Y-44510346D01*
X38319951Y-44499300D01*
X38316824Y-44478558D01*
X38316750Y-44478048D01*
X38313938Y-44458491D01*
X38307797Y-44415774D01*
X38307796Y-44415773D01*
X38307342Y-44412611D01*
X38306449Y-44409714D01*
X38279425Y-44353600D01*
X38278568Y-44351773D01*
X38273478Y-44340628D01*
X38266502Y-44279841D01*
X38296588Y-44226564D01*
X38352244Y-44201146D01*
X38363531Y-44200500D01*
X40263812Y-44200500D01*
X40322003Y-44219407D01*
X40333809Y-44229490D01*
X40343517Y-44239198D01*
X40397285Y-44265483D01*
X40448604Y-44290572D01*
X40448605Y-44290572D01*
X40448607Y-44290573D01*
X40516740Y-44300500D01*
X40516743Y-44300500D01*
X41758257Y-44300500D01*
X41758260Y-44300500D01*
X41826393Y-44290573D01*
X41931483Y-44239198D01*
X42014198Y-44156483D01*
X42065573Y-44051393D01*
X42075500Y-43983260D01*
X42075500Y-43649479D01*
X42094407Y-43591288D01*
X42143907Y-43555324D01*
X42205093Y-43555324D01*
X42244504Y-43579475D01*
X42850504Y-44185475D01*
X42878281Y-44239992D01*
X42879500Y-44255479D01*
X42879500Y-44484314D01*
X42885932Y-44533174D01*
X42885932Y-44533175D01*
X42935933Y-44640401D01*
X42935934Y-44640402D01*
X42935935Y-44640404D01*
X43019596Y-44724065D01*
X43019597Y-44724065D01*
X43019598Y-44724066D01*
X43126824Y-44774067D01*
X43126825Y-44774067D01*
X43126827Y-44774068D01*
X43150417Y-44777173D01*
X43205641Y-44803514D01*
X43234836Y-44857284D01*
X43226850Y-44917946D01*
X43207497Y-44945330D01*
X42837989Y-45314837D01*
X42826761Y-45322950D01*
X42827490Y-45323915D01*
X42820171Y-45329441D01*
X42788541Y-45364137D01*
X42785389Y-45367438D01*
X42772230Y-45380598D01*
X42772218Y-45380612D01*
X42772149Y-45380714D01*
X42763655Y-45391435D01*
X42744483Y-45412466D01*
X42744483Y-45412467D01*
X42740929Y-45421640D01*
X42730296Y-45441812D01*
X42724746Y-45449915D01*
X42724741Y-45449924D01*
X42718230Y-45477606D01*
X42714177Y-45490696D01*
X42703901Y-45517223D01*
X42703900Y-45517229D01*
X42703900Y-45527051D01*
X42701270Y-45549718D01*
X42699021Y-45559279D01*
X42702951Y-45587453D01*
X42703900Y-45601130D01*
X42703900Y-75275920D01*
X42684993Y-75334111D01*
X42674904Y-75345924D01*
X37502225Y-80518604D01*
X37447708Y-80546381D01*
X37432221Y-80547600D01*
X37220727Y-80547600D01*
X37193636Y-80543821D01*
X37193207Y-80543699D01*
X37155661Y-80547178D01*
X37146529Y-80547600D01*
X37137156Y-80547600D01*
X37130164Y-80548906D01*
X37127941Y-80549322D01*
X37118896Y-80550583D01*
X37081344Y-80554064D01*
X37081334Y-80554066D01*
X37080929Y-80554269D01*
X37055012Y-80562955D01*
X37054570Y-80563037D01*
X37054569Y-80563037D01*
X37022517Y-80582883D01*
X37014533Y-80587330D01*
X36980769Y-80604143D01*
X36980465Y-80604478D01*
X36959435Y-80621940D01*
X36959053Y-80622176D01*
X36959047Y-80622181D01*
X36936321Y-80652274D01*
X36930482Y-80659305D01*
X36905086Y-80687163D01*
X36905081Y-80687170D01*
X36904918Y-80687593D01*
X36891616Y-80711474D01*
X36891348Y-80711828D01*
X36891344Y-80711836D01*
X36881024Y-80748103D01*
X36878120Y-80756768D01*
X36864500Y-80791926D01*
X36864500Y-80792372D01*
X36860722Y-80819461D01*
X36858090Y-80828713D01*
X36856754Y-80828333D01*
X36836455Y-80875470D01*
X36783846Y-80906708D01*
X36781397Y-80907228D01*
X36761771Y-80911132D01*
X36761766Y-80911134D01*
X36695451Y-80955445D01*
X36695445Y-80955451D01*
X36651134Y-81021766D01*
X36651132Y-81021772D01*
X36639501Y-81080241D01*
X36639500Y-81080253D01*
X36639500Y-82169746D01*
X36639501Y-82169758D01*
X36651132Y-82228227D01*
X36651133Y-82228231D01*
X36695448Y-82294552D01*
X36761769Y-82338867D01*
X36784816Y-82343451D01*
X36838198Y-82373346D01*
X36863814Y-82428911D01*
X36864500Y-82440548D01*
X36864500Y-84959451D01*
X36845593Y-85017642D01*
X36796093Y-85053606D01*
X36784816Y-85056548D01*
X36761772Y-85061132D01*
X36761766Y-85061134D01*
X36695451Y-85105445D01*
X36695445Y-85105451D01*
X36651134Y-85171766D01*
X36651132Y-85171772D01*
X36639501Y-85230241D01*
X36639500Y-85230253D01*
X36639500Y-86319746D01*
X36639501Y-86319758D01*
X36651132Y-86378227D01*
X36651134Y-86378233D01*
X36695445Y-86444548D01*
X36695448Y-86444552D01*
X36761769Y-86488867D01*
X36806231Y-86497711D01*
X36820241Y-86500498D01*
X36820246Y-86500498D01*
X36820252Y-86500500D01*
X36820253Y-86500500D01*
X37509747Y-86500500D01*
X37509748Y-86500500D01*
X37568231Y-86488867D01*
X37634552Y-86444552D01*
X37678867Y-86378231D01*
X37690500Y-86319748D01*
X37690500Y-85230252D01*
X37678867Y-85171769D01*
X37634552Y-85105448D01*
X37634548Y-85105445D01*
X37568233Y-85061134D01*
X37568231Y-85061133D01*
X37568228Y-85061132D01*
X37568227Y-85061132D01*
X37545184Y-85056548D01*
X37491800Y-85026650D01*
X37466186Y-84971085D01*
X37465500Y-84959451D01*
X37465500Y-82440548D01*
X37484407Y-82382357D01*
X37533907Y-82346393D01*
X37545170Y-82343453D01*
X37568231Y-82338867D01*
X37634552Y-82294552D01*
X37678867Y-82228231D01*
X37690500Y-82169748D01*
X37690500Y-81200122D01*
X37709407Y-81141931D01*
X37749513Y-81109557D01*
X37770465Y-81100306D01*
X37777409Y-81093360D01*
X37795301Y-81079189D01*
X37803652Y-81074019D01*
X37820789Y-81051323D01*
X37829782Y-81040987D01*
X43170805Y-75699964D01*
X43182064Y-75691893D01*
X43181305Y-75690887D01*
X43188621Y-75685361D01*
X43188628Y-75685358D01*
X43220277Y-75650639D01*
X43223395Y-75647374D01*
X43236574Y-75634197D01*
X43236638Y-75634102D01*
X43245153Y-75623353D01*
X43264316Y-75602333D01*
X43267865Y-75593170D01*
X43278506Y-75572982D01*
X43284056Y-75564881D01*
X43290569Y-75537185D01*
X43294620Y-75524106D01*
X43304900Y-75497573D01*
X43304900Y-75487748D01*
X43307529Y-75465083D01*
X43309779Y-75455519D01*
X43305849Y-75427346D01*
X43304900Y-75413669D01*
X43304900Y-51400002D01*
X46354867Y-51400002D01*
X46373302Y-51528225D01*
X46427117Y-51646061D01*
X46427118Y-51646063D01*
X46506369Y-51737525D01*
X46511952Y-51743968D01*
X46620926Y-51814001D01*
X46620931Y-51814004D01*
X46745228Y-51850500D01*
X46745230Y-51850500D01*
X46874770Y-51850500D01*
X46874772Y-51850500D01*
X46999069Y-51814004D01*
X47108049Y-51743967D01*
X47192882Y-51646063D01*
X47246697Y-51528226D01*
X47265133Y-51400000D01*
X47259847Y-51363238D01*
X47246697Y-51271774D01*
X47211770Y-51195296D01*
X47192882Y-51153937D01*
X47108049Y-51056033D01*
X47108048Y-51056032D01*
X47108047Y-51056031D01*
X46999073Y-50985998D01*
X46999070Y-50985996D01*
X46999069Y-50985996D01*
X46999066Y-50985995D01*
X46874774Y-50949500D01*
X46874772Y-50949500D01*
X46745228Y-50949500D01*
X46745225Y-50949500D01*
X46620933Y-50985995D01*
X46620926Y-50985998D01*
X46511952Y-51056031D01*
X46427117Y-51153938D01*
X46373302Y-51271774D01*
X46354867Y-51399997D01*
X46354867Y-51400002D01*
X43304900Y-51400002D01*
X43304900Y-49118200D01*
X43914168Y-49118200D01*
X43932603Y-49246423D01*
X43986418Y-49364259D01*
X43986419Y-49364261D01*
X44053800Y-49442024D01*
X44077617Y-49498383D01*
X44063758Y-49557978D01*
X44053800Y-49571684D01*
X44001432Y-49632121D01*
X43947616Y-49749959D01*
X43929181Y-49878182D01*
X43929181Y-49878187D01*
X43947616Y-50006410D01*
X44001431Y-50124246D01*
X44001432Y-50124248D01*
X44086265Y-50222152D01*
X44086266Y-50222153D01*
X44195240Y-50292186D01*
X44195245Y-50292189D01*
X44319542Y-50328685D01*
X44319544Y-50328685D01*
X44449084Y-50328685D01*
X44449086Y-50328685D01*
X44573383Y-50292189D01*
X44682363Y-50222152D01*
X44767196Y-50124248D01*
X44821011Y-50006411D01*
X44839447Y-49878185D01*
X44821011Y-49749959D01*
X44767196Y-49632122D01*
X44699813Y-49554356D01*
X44675997Y-49497999D01*
X44689856Y-49438404D01*
X44699811Y-49424702D01*
X44752183Y-49364261D01*
X44805998Y-49246424D01*
X44824434Y-49118198D01*
X44805998Y-48989972D01*
X44752183Y-48872135D01*
X44667350Y-48774231D01*
X44667349Y-48774230D01*
X44667348Y-48774229D01*
X44558374Y-48704196D01*
X44558371Y-48704194D01*
X44558370Y-48704194D01*
X44539104Y-48698537D01*
X44434075Y-48667698D01*
X44434073Y-48667698D01*
X44304529Y-48667698D01*
X44304526Y-48667698D01*
X44180234Y-48704193D01*
X44180227Y-48704196D01*
X44071253Y-48774229D01*
X43986418Y-48872136D01*
X43932603Y-48989972D01*
X43914168Y-49118195D01*
X43914168Y-49118200D01*
X43304900Y-49118200D01*
X43304900Y-48645111D01*
X43323807Y-48586920D01*
X43373307Y-48550956D01*
X43434493Y-48550956D01*
X43448839Y-48556899D01*
X43454374Y-48559719D01*
X43587500Y-48580804D01*
X43720626Y-48559719D01*
X43840720Y-48498528D01*
X43859753Y-48479494D01*
X43914268Y-48451719D01*
X43929755Y-48450500D01*
X44491336Y-48450500D01*
X44505011Y-48452732D01*
X44505183Y-48451506D01*
X44514264Y-48452772D01*
X44514265Y-48452773D01*
X44514265Y-48452772D01*
X44514266Y-48452773D01*
X44561142Y-48450606D01*
X44565714Y-48450500D01*
X44584342Y-48450500D01*
X44584344Y-48450500D01*
X44584448Y-48450480D01*
X44598071Y-48448898D01*
X44626492Y-48447585D01*
X44635476Y-48443617D01*
X44657277Y-48436865D01*
X44666933Y-48435061D01*
X44691118Y-48420086D01*
X44703228Y-48413701D01*
X44729265Y-48402206D01*
X44736209Y-48395260D01*
X44754101Y-48381089D01*
X44762452Y-48375919D01*
X44779589Y-48353223D01*
X44788582Y-48342887D01*
X44981467Y-48150002D01*
X46519866Y-48150002D01*
X46538301Y-48278225D01*
X46591752Y-48395263D01*
X46592117Y-48396063D01*
X46641256Y-48452773D01*
X46676951Y-48493968D01*
X46779262Y-48559719D01*
X46785930Y-48564004D01*
X46910227Y-48600500D01*
X46910229Y-48600500D01*
X47039769Y-48600500D01*
X47039771Y-48600500D01*
X47164068Y-48564004D01*
X47273048Y-48493967D01*
X47357881Y-48396063D01*
X47411696Y-48278226D01*
X47423509Y-48196063D01*
X47430132Y-48150002D01*
X47430132Y-48149997D01*
X47411696Y-48021774D01*
X47408760Y-48015345D01*
X47357881Y-47903937D01*
X47273048Y-47806033D01*
X47273047Y-47806032D01*
X47273046Y-47806031D01*
X47164072Y-47735998D01*
X47164069Y-47735996D01*
X47164068Y-47735996D01*
X47126244Y-47724890D01*
X47039773Y-47699500D01*
X47039771Y-47699500D01*
X46910227Y-47699500D01*
X46910224Y-47699500D01*
X46785932Y-47735995D01*
X46785925Y-47735998D01*
X46676951Y-47806031D01*
X46592116Y-47903938D01*
X46538301Y-48021774D01*
X46519866Y-48149997D01*
X46519866Y-48150002D01*
X44981467Y-48150002D01*
X46248505Y-46882964D01*
X46259764Y-46874893D01*
X46259005Y-46873887D01*
X46266321Y-46868361D01*
X46266328Y-46868358D01*
X46297977Y-46833639D01*
X46301095Y-46830374D01*
X46314274Y-46817197D01*
X46314338Y-46817102D01*
X46322853Y-46806353D01*
X46342016Y-46785333D01*
X46345565Y-46776170D01*
X46356206Y-46755982D01*
X46361756Y-46747881D01*
X46368269Y-46720185D01*
X46372320Y-46707106D01*
X46382600Y-46680573D01*
X46382600Y-46670748D01*
X46385229Y-46648083D01*
X46387479Y-46638519D01*
X46383549Y-46610344D01*
X46382600Y-46596668D01*
X46382600Y-37722468D01*
X46384831Y-37708795D01*
X46383605Y-37708624D01*
X46384873Y-37699532D01*
X46382706Y-37652657D01*
X46382600Y-37648085D01*
X46382600Y-37629460D01*
X46382600Y-37629456D01*
X46382578Y-37629342D01*
X46380998Y-37615730D01*
X46379685Y-37587308D01*
X46375714Y-37578316D01*
X46368964Y-37556514D01*
X46367161Y-37546868D01*
X46367161Y-37546867D01*
X46352185Y-37522679D01*
X46345797Y-37510560D01*
X46344891Y-37508508D01*
X46334306Y-37484534D01*
X46334305Y-37484533D01*
X46334304Y-37484531D01*
X46327354Y-37477581D01*
X46313188Y-37459695D01*
X46308021Y-37451350D01*
X46308019Y-37451348D01*
X46285325Y-37434210D01*
X46274983Y-37425211D01*
X44933600Y-36083828D01*
X45895623Y-36083828D01*
X45905943Y-36247857D01*
X45956732Y-36404173D01*
X46044797Y-36542939D01*
X46164607Y-36655448D01*
X46164606Y-36655448D01*
X46292552Y-36725787D01*
X46308632Y-36734627D01*
X46467823Y-36775500D01*
X46467826Y-36775500D01*
X46590925Y-36775500D01*
X46713053Y-36760072D01*
X46713054Y-36760071D01*
X46713058Y-36760071D01*
X46865871Y-36699568D01*
X46998837Y-36602963D01*
X47103600Y-36476326D01*
X47173579Y-36327613D01*
X47200089Y-36188642D01*
X47204375Y-36166176D01*
X47204376Y-36166170D01*
X47203738Y-36156022D01*
X47194056Y-36002140D01*
X47143268Y-35845829D01*
X47143267Y-35845828D01*
X47143267Y-35845826D01*
X47055202Y-35707060D01*
X46935392Y-35594551D01*
X46935393Y-35594551D01*
X46791369Y-35515373D01*
X46632179Y-35474500D01*
X46632177Y-35474500D01*
X46509075Y-35474500D01*
X46386946Y-35489927D01*
X46386943Y-35489928D01*
X46234129Y-35550432D01*
X46234125Y-35550434D01*
X46101162Y-35647037D01*
X45996399Y-35773674D01*
X45926420Y-35922387D01*
X45895624Y-36083823D01*
X45895623Y-36083828D01*
X44933600Y-36083828D01*
X41204496Y-32354724D01*
X41176719Y-32300207D01*
X41175500Y-32284720D01*
X41175500Y-31833828D01*
X45895623Y-31833828D01*
X45905943Y-31997857D01*
X45956732Y-32154173D01*
X46043806Y-32291377D01*
X46044798Y-32292940D01*
X46064567Y-32311504D01*
X46164607Y-32405448D01*
X46164606Y-32405448D01*
X46308630Y-32484626D01*
X46308632Y-32484627D01*
X46467823Y-32525500D01*
X46467826Y-32525500D01*
X46590925Y-32525500D01*
X46713053Y-32510072D01*
X46713054Y-32510071D01*
X46713058Y-32510071D01*
X46865871Y-32449568D01*
X46998837Y-32352963D01*
X47103600Y-32226326D01*
X47173579Y-32077613D01*
X47204376Y-31916170D01*
X47194056Y-31752140D01*
X47143268Y-31595829D01*
X47143267Y-31595828D01*
X47143267Y-31595826D01*
X47055202Y-31457060D01*
X46935392Y-31344551D01*
X46935393Y-31344551D01*
X46791369Y-31265373D01*
X46632179Y-31224500D01*
X46632177Y-31224500D01*
X46509075Y-31224500D01*
X46386946Y-31239927D01*
X46386943Y-31239928D01*
X46234129Y-31300432D01*
X46234125Y-31300434D01*
X46101162Y-31397037D01*
X45996399Y-31523674D01*
X45926420Y-31672387D01*
X45895624Y-31833823D01*
X45895623Y-31833828D01*
X41175500Y-31833828D01*
X41175500Y-28539663D01*
X41194407Y-28481472D01*
X41199680Y-28474832D01*
X41257882Y-28407663D01*
X41311697Y-28289826D01*
X41317842Y-28247084D01*
X41330133Y-28161602D01*
X41330133Y-28161597D01*
X41311697Y-28033374D01*
X41261399Y-27923238D01*
X41257882Y-27915537D01*
X41199679Y-27848366D01*
X41175863Y-27792008D01*
X41175500Y-27783537D01*
X41175500Y-15130169D01*
X41177731Y-15116496D01*
X41176505Y-15116325D01*
X41177773Y-15107233D01*
X41175606Y-15060348D01*
X41175500Y-15055777D01*
X41175500Y-15037160D01*
X41175500Y-15037156D01*
X41175478Y-15037042D01*
X41173898Y-15023430D01*
X41172585Y-14995009D01*
X41168613Y-14986014D01*
X41161865Y-14964220D01*
X41161131Y-14960293D01*
X41160061Y-14954567D01*
X41145087Y-14930383D01*
X41138692Y-14918250D01*
X41127207Y-14892236D01*
X41120257Y-14885286D01*
X41106088Y-14867396D01*
X41100920Y-14859049D01*
X41100919Y-14859048D01*
X41078221Y-14841907D01*
X41067879Y-14832908D01*
X40604475Y-14369504D01*
X40576698Y-14314987D01*
X40586269Y-14254555D01*
X40629534Y-14211290D01*
X40674479Y-14200500D01*
X41348436Y-14200500D01*
X41362111Y-14202732D01*
X41362283Y-14201506D01*
X41371364Y-14202772D01*
X41371365Y-14202773D01*
X41371365Y-14202772D01*
X41371366Y-14202773D01*
X41418242Y-14200606D01*
X41422814Y-14200500D01*
X41441442Y-14200500D01*
X41441444Y-14200500D01*
X41441548Y-14200480D01*
X41455171Y-14198898D01*
X41483592Y-14197585D01*
X41492576Y-14193617D01*
X41514377Y-14186865D01*
X41524033Y-14185061D01*
X41548218Y-14170086D01*
X41560328Y-14163701D01*
X41586365Y-14152206D01*
X41593309Y-14145260D01*
X41611201Y-14131089D01*
X41619552Y-14125919D01*
X41636689Y-14103223D01*
X41645690Y-14092880D01*
X42130997Y-13607574D01*
X42185513Y-13579797D01*
X42245945Y-13589368D01*
X42289210Y-13632633D01*
X42300000Y-13677578D01*
X42300000Y-31000000D01*
X48600500Y-31000000D01*
X48658691Y-31018907D01*
X48694655Y-31068407D01*
X48699500Y-31099000D01*
X48699500Y-85397564D01*
X48699381Y-85402422D01*
X48681924Y-85757764D01*
X48680971Y-85767432D01*
X48629129Y-86116921D01*
X48627234Y-86126450D01*
X48541383Y-86469188D01*
X48538563Y-86478485D01*
X48419530Y-86811157D01*
X48415812Y-86820133D01*
X48264746Y-87139538D01*
X48260166Y-87148106D01*
X48078524Y-87451156D01*
X48073126Y-87459234D01*
X47862644Y-87743035D01*
X47856481Y-87750545D01*
X47619208Y-88012338D01*
X47612338Y-88019208D01*
X47350545Y-88256481D01*
X47343035Y-88262644D01*
X47059234Y-88473126D01*
X47051156Y-88478524D01*
X46748106Y-88660166D01*
X46739538Y-88664746D01*
X46420133Y-88815812D01*
X46411157Y-88819530D01*
X46078485Y-88938563D01*
X46069188Y-88941383D01*
X45726450Y-89027234D01*
X45716921Y-89029129D01*
X45367432Y-89080971D01*
X45357764Y-89081924D01*
X45002422Y-89099381D01*
X44997564Y-89099500D01*
X7002436Y-89099500D01*
X6997578Y-89099381D01*
X6642235Y-89081924D01*
X6632567Y-89080971D01*
X6283078Y-89029129D01*
X6273549Y-89027234D01*
X5930811Y-88941383D01*
X5921514Y-88938563D01*
X5588842Y-88819530D01*
X5579866Y-88815812D01*
X5360488Y-88712055D01*
X5260456Y-88664743D01*
X5251899Y-88660169D01*
X5100368Y-88569345D01*
X4948843Y-88478524D01*
X4940765Y-88473126D01*
X4656964Y-88262644D01*
X4649454Y-88256481D01*
X4387661Y-88019208D01*
X4380796Y-88012343D01*
X4369613Y-88000004D01*
X18844751Y-88000004D01*
X18863685Y-88168053D01*
X18863688Y-88168065D01*
X18919544Y-88327690D01*
X18919544Y-88327691D01*
X19009520Y-88470886D01*
X19009523Y-88470890D01*
X19129110Y-88590477D01*
X19129112Y-88590478D01*
X19129113Y-88590479D01*
X19247307Y-88664746D01*
X19272310Y-88680456D01*
X19336232Y-88702823D01*
X19431934Y-88736311D01*
X19431938Y-88736312D01*
X19431941Y-88736313D01*
X19431942Y-88736313D01*
X19431946Y-88736314D01*
X19599996Y-88755249D01*
X19600000Y-88755249D01*
X19600004Y-88755249D01*
X19768053Y-88736314D01*
X19768055Y-88736313D01*
X19768059Y-88736313D01*
X19927690Y-88680456D01*
X20070890Y-88590477D01*
X20190477Y-88470890D01*
X20280456Y-88327690D01*
X20336313Y-88168059D01*
X20336314Y-88168053D01*
X20355249Y-88000004D01*
X31644751Y-88000004D01*
X31663685Y-88168053D01*
X31663688Y-88168065D01*
X31719544Y-88327690D01*
X31719544Y-88327691D01*
X31809520Y-88470886D01*
X31809523Y-88470890D01*
X31929110Y-88590477D01*
X31929112Y-88590478D01*
X31929113Y-88590479D01*
X32047307Y-88664746D01*
X32072310Y-88680456D01*
X32136232Y-88702823D01*
X32231934Y-88736311D01*
X32231938Y-88736312D01*
X32231941Y-88736313D01*
X32231942Y-88736313D01*
X32231946Y-88736314D01*
X32399996Y-88755249D01*
X32400000Y-88755249D01*
X32400004Y-88755249D01*
X32568053Y-88736314D01*
X32568055Y-88736313D01*
X32568059Y-88736313D01*
X32727690Y-88680456D01*
X32870890Y-88590477D01*
X32990477Y-88470890D01*
X33080456Y-88327690D01*
X33136313Y-88168059D01*
X33136314Y-88168053D01*
X33155249Y-88000004D01*
X33155249Y-87999995D01*
X33136314Y-87831946D01*
X33136311Y-87831934D01*
X33106569Y-87746938D01*
X33080456Y-87672310D01*
X32990477Y-87529110D01*
X32870890Y-87409523D01*
X32870887Y-87409521D01*
X32870886Y-87409520D01*
X32727691Y-87319544D01*
X32568065Y-87263688D01*
X32568053Y-87263685D01*
X32400004Y-87244751D01*
X32399996Y-87244751D01*
X32231946Y-87263685D01*
X32231934Y-87263688D01*
X32072309Y-87319544D01*
X32072308Y-87319544D01*
X31929113Y-87409520D01*
X31809520Y-87529113D01*
X31719544Y-87672308D01*
X31719544Y-87672309D01*
X31663688Y-87831934D01*
X31663685Y-87831946D01*
X31644751Y-87999995D01*
X31644751Y-88000004D01*
X20355249Y-88000004D01*
X20355249Y-87999995D01*
X20336314Y-87831946D01*
X20336311Y-87831934D01*
X20306569Y-87746938D01*
X20280456Y-87672310D01*
X20190477Y-87529110D01*
X20070890Y-87409523D01*
X20070887Y-87409521D01*
X20070886Y-87409520D01*
X19927691Y-87319544D01*
X19768065Y-87263688D01*
X19768053Y-87263685D01*
X19600004Y-87244751D01*
X19599996Y-87244751D01*
X19431946Y-87263685D01*
X19431934Y-87263688D01*
X19272309Y-87319544D01*
X19272308Y-87319544D01*
X19129113Y-87409520D01*
X19009520Y-87529113D01*
X18919544Y-87672308D01*
X18919544Y-87672309D01*
X18863688Y-87831934D01*
X18863685Y-87831946D01*
X18844751Y-87999995D01*
X18844751Y-88000004D01*
X4369613Y-88000004D01*
X4218218Y-87832965D01*
X4143518Y-87750545D01*
X4137355Y-87743035D01*
X3926873Y-87459234D01*
X3921475Y-87451156D01*
X3896519Y-87409520D01*
X3739826Y-87148093D01*
X3735259Y-87139551D01*
X3584185Y-86820130D01*
X3580469Y-86811157D01*
X3573847Y-86792650D01*
X3461432Y-86478472D01*
X3458620Y-86469201D01*
X3421183Y-86319746D01*
X12159500Y-86319746D01*
X12159501Y-86319758D01*
X12171132Y-86378227D01*
X12171134Y-86378233D01*
X12215445Y-86444548D01*
X12215448Y-86444552D01*
X12281769Y-86488867D01*
X12326231Y-86497711D01*
X12340241Y-86500498D01*
X12340246Y-86500498D01*
X12340252Y-86500500D01*
X12340253Y-86500500D01*
X13029747Y-86500500D01*
X13029748Y-86500500D01*
X13088231Y-86488867D01*
X13154552Y-86444552D01*
X13198867Y-86378231D01*
X13210500Y-86319748D01*
X13210500Y-85230252D01*
X13198867Y-85171769D01*
X13154552Y-85105448D01*
X13154548Y-85105445D01*
X13088233Y-85061134D01*
X13088231Y-85061133D01*
X13088228Y-85061132D01*
X13088227Y-85061132D01*
X13065184Y-85056548D01*
X13011800Y-85026650D01*
X12986186Y-84971085D01*
X12985500Y-84959451D01*
X12985500Y-82440548D01*
X13004407Y-82382357D01*
X13053907Y-82346393D01*
X13065170Y-82343453D01*
X13088231Y-82338867D01*
X13154552Y-82294552D01*
X13198867Y-82228231D01*
X13210500Y-82169748D01*
X13210500Y-81080252D01*
X13198867Y-81021769D01*
X13154552Y-80955448D01*
X13154548Y-80955445D01*
X13148590Y-80949487D01*
X13120813Y-80894970D01*
X13130384Y-80834538D01*
X13148587Y-80809482D01*
X13428305Y-80529764D01*
X13439564Y-80521693D01*
X13438805Y-80520687D01*
X13446121Y-80515161D01*
X13446128Y-80515158D01*
X13477777Y-80480439D01*
X13480895Y-80477174D01*
X13494074Y-80463997D01*
X13494138Y-80463902D01*
X13502653Y-80453153D01*
X13521816Y-80432133D01*
X13525364Y-80422971D01*
X13536011Y-80402776D01*
X13541557Y-80394681D01*
X13548071Y-80366982D01*
X13552122Y-80353901D01*
X13562400Y-80327373D01*
X13562400Y-80317548D01*
X13565030Y-80294879D01*
X13567279Y-80285319D01*
X13563349Y-80257144D01*
X13562400Y-80243468D01*
X13562400Y-55693879D01*
X13581307Y-55635688D01*
X13591396Y-55623875D01*
X14466975Y-54748296D01*
X14521492Y-54720519D01*
X14536979Y-54719300D01*
X14586270Y-54719300D01*
X14586272Y-54719300D01*
X14710569Y-54682804D01*
X14819549Y-54612767D01*
X14904382Y-54514863D01*
X14958197Y-54397026D01*
X14968219Y-54327323D01*
X14976633Y-54268802D01*
X14976633Y-54268797D01*
X14958197Y-54140574D01*
X14932044Y-54083307D01*
X14904382Y-54022737D01*
X14819549Y-53924833D01*
X14819548Y-53924832D01*
X14819547Y-53924831D01*
X14710573Y-53854798D01*
X14710570Y-53854796D01*
X14710569Y-53854796D01*
X14710566Y-53854795D01*
X14586274Y-53818300D01*
X14586272Y-53818300D01*
X14456728Y-53818300D01*
X14456725Y-53818300D01*
X14332433Y-53854795D01*
X14332426Y-53854798D01*
X14223452Y-53924831D01*
X14138617Y-54022738D01*
X14084802Y-54140574D01*
X14065991Y-54271408D01*
X14038995Y-54326316D01*
X14038003Y-54327323D01*
X13095490Y-55269837D01*
X13084261Y-55277950D01*
X13084990Y-55278915D01*
X13077671Y-55284441D01*
X13046041Y-55319137D01*
X13042889Y-55322438D01*
X13029730Y-55335598D01*
X13029718Y-55335612D01*
X13029649Y-55335714D01*
X13021155Y-55346435D01*
X13001983Y-55367466D01*
X13001983Y-55367467D01*
X12998429Y-55376640D01*
X12987796Y-55396812D01*
X12982246Y-55404915D01*
X12982241Y-55404924D01*
X12975730Y-55432606D01*
X12971677Y-55445696D01*
X12961401Y-55472223D01*
X12961400Y-55472229D01*
X12961400Y-55482051D01*
X12958770Y-55504718D01*
X12956521Y-55514279D01*
X12960451Y-55542453D01*
X12961400Y-55556130D01*
X12961400Y-80105721D01*
X12942493Y-80163912D01*
X12932403Y-80175725D01*
X12518591Y-80589536D01*
X12507361Y-80597650D01*
X12508090Y-80598615D01*
X12500771Y-80604141D01*
X12469141Y-80638837D01*
X12465989Y-80642138D01*
X12452830Y-80655298D01*
X12452818Y-80655312D01*
X12452749Y-80655414D01*
X12444255Y-80666135D01*
X12425083Y-80687166D01*
X12425083Y-80687167D01*
X12421529Y-80696340D01*
X12410896Y-80716512D01*
X12405346Y-80724615D01*
X12405341Y-80724624D01*
X12398830Y-80752306D01*
X12394777Y-80765396D01*
X12384501Y-80791923D01*
X12384500Y-80791929D01*
X12384500Y-80801751D01*
X12381868Y-80824429D01*
X12379967Y-80832507D01*
X12348232Y-80884819D01*
X12302916Y-80906926D01*
X12281771Y-80911132D01*
X12281766Y-80911134D01*
X12215451Y-80955445D01*
X12215445Y-80955451D01*
X12171134Y-81021766D01*
X12171132Y-81021772D01*
X12159501Y-81080241D01*
X12159500Y-81080253D01*
X12159500Y-82169746D01*
X12159501Y-82169758D01*
X12171132Y-82228227D01*
X12171133Y-82228231D01*
X12215448Y-82294552D01*
X12281769Y-82338867D01*
X12304816Y-82343451D01*
X12358198Y-82373346D01*
X12383814Y-82428911D01*
X12384500Y-82440548D01*
X12384500Y-84959451D01*
X12365593Y-85017642D01*
X12316093Y-85053606D01*
X12304816Y-85056548D01*
X12281772Y-85061132D01*
X12281766Y-85061134D01*
X12215451Y-85105445D01*
X12215445Y-85105451D01*
X12171134Y-85171766D01*
X12171132Y-85171772D01*
X12159501Y-85230241D01*
X12159500Y-85230253D01*
X12159500Y-86319746D01*
X3421183Y-86319746D01*
X3372762Y-86126439D01*
X3370872Y-86116933D01*
X3319026Y-85767418D01*
X3318076Y-85757776D01*
X3300619Y-85402421D01*
X3300500Y-85397564D01*
X3300500Y-74327138D01*
X6462530Y-74327138D01*
X6473244Y-74383764D01*
X6473864Y-74387412D01*
X6482452Y-74444387D01*
X6484640Y-74451481D01*
X6484217Y-74451611D01*
X6484909Y-74453713D01*
X6485326Y-74453568D01*
X6487775Y-74460568D01*
X6514706Y-74511524D01*
X6516374Y-74514828D01*
X6541374Y-74566741D01*
X6545553Y-74572870D01*
X6545189Y-74573117D01*
X6546477Y-74574931D01*
X6546830Y-74574671D01*
X6551234Y-74580638D01*
X6591999Y-74621404D01*
X6594568Y-74624071D01*
X6633744Y-74666294D01*
X6639543Y-74670918D01*
X6639267Y-74671263D01*
X6650400Y-74679804D01*
X8416132Y-76445535D01*
X8416134Y-76445538D01*
X8450272Y-76479676D01*
X8455086Y-76484848D01*
X8484649Y-76518965D01*
X8484651Y-76518967D01*
X8489437Y-76522043D01*
X8505920Y-76535324D01*
X10700204Y-78729607D01*
X10727981Y-78784124D01*
X10729200Y-78799611D01*
X10729200Y-81606297D01*
X10728192Y-81620386D01*
X10724567Y-81645598D01*
X10724567Y-81645604D01*
X10728479Y-81672815D01*
X10729180Y-81679226D01*
X10729200Y-81679358D01*
X10729200Y-81679362D01*
X10733970Y-81711015D01*
X10734039Y-81711484D01*
X10743457Y-81776988D01*
X10744352Y-81779888D01*
X10771375Y-81836001D01*
X10772232Y-81837829D01*
X10796817Y-81891662D01*
X10798982Y-81895032D01*
X10801828Y-81900120D01*
X10803276Y-81902243D01*
X10843100Y-81945163D01*
X10845348Y-81947670D01*
X10881648Y-81989564D01*
X10886997Y-81994199D01*
X10886688Y-81994555D01*
X10889833Y-81997188D01*
X10889848Y-81997171D01*
X10895644Y-82001793D01*
X10895645Y-82001794D01*
X10913593Y-82012156D01*
X10943128Y-82029208D01*
X10947129Y-82031647D01*
X10990631Y-82059604D01*
X10990633Y-82059604D01*
X10994871Y-82061540D01*
X11011348Y-82068595D01*
X11013255Y-82069696D01*
X11063066Y-82081064D01*
X11068920Y-82082591D01*
X11114922Y-82096099D01*
X11114927Y-82096099D01*
X11114928Y-82096100D01*
X11117784Y-82096100D01*
X11139813Y-82098582D01*
X11140524Y-82098744D01*
X11145654Y-82099915D01*
X11192864Y-82096377D01*
X11200263Y-82096100D01*
X11244470Y-82096100D01*
X11244472Y-82096100D01*
X11250840Y-82094229D01*
X11271333Y-82090495D01*
X11281078Y-82089766D01*
X11321673Y-82073832D01*
X11329918Y-82071010D01*
X11368769Y-82059604D01*
X11377530Y-82053972D01*
X11394885Y-82045100D01*
X11407494Y-82040152D01*
X11438654Y-82015302D01*
X11446842Y-82009428D01*
X11477749Y-81989567D01*
X11487044Y-81978838D01*
X11500131Y-81966275D01*
X11513670Y-81955479D01*
X11534010Y-81925643D01*
X11540979Y-81916592D01*
X11562582Y-81891663D01*
X11570038Y-81875333D01*
X11578293Y-81860694D01*
X11590172Y-81843273D01*
X11599709Y-81812350D01*
X11604255Y-81800410D01*
X11616397Y-81773826D01*
X11616879Y-81770468D01*
X11619488Y-81752331D01*
X11622878Y-81737239D01*
X11623151Y-81736350D01*
X11630200Y-81713502D01*
X11630200Y-81684901D01*
X11631208Y-81670810D01*
X11634833Y-81645600D01*
X11634833Y-81645598D01*
X11631208Y-81620386D01*
X11630200Y-81606297D01*
X11630200Y-78602862D01*
X11630822Y-78591779D01*
X11634970Y-78554965D01*
X11624252Y-78498319D01*
X11623634Y-78494678D01*
X11615048Y-78437713D01*
X11615046Y-78437709D01*
X11612860Y-78430619D01*
X11613282Y-78430488D01*
X11612592Y-78428390D01*
X11612176Y-78428536D01*
X11609724Y-78421529D01*
X11609724Y-78421528D01*
X11582766Y-78370523D01*
X11581127Y-78367276D01*
X11556125Y-78315358D01*
X11556123Y-78315356D01*
X11551947Y-78309230D01*
X11552310Y-78308982D01*
X11551024Y-78307168D01*
X11550670Y-78307430D01*
X11546267Y-78301465D01*
X11546266Y-78301462D01*
X11546263Y-78301459D01*
X11505499Y-78260694D01*
X11502930Y-78258027D01*
X11463759Y-78215810D01*
X11463757Y-78215809D01*
X11463755Y-78215806D01*
X11463751Y-78215803D01*
X11457959Y-78211185D01*
X11458233Y-78210840D01*
X11447100Y-78202296D01*
X9149267Y-75904464D01*
X9149266Y-75904462D01*
X9115126Y-75870322D01*
X9110312Y-75865150D01*
X9080750Y-75831034D01*
X9080751Y-75831034D01*
X9075955Y-75827952D01*
X9059478Y-75814674D01*
X7397296Y-74152492D01*
X7369519Y-74097975D01*
X7368300Y-74082488D01*
X7368300Y-40905203D01*
X7387207Y-40847012D01*
X7436707Y-40811048D01*
X7497893Y-40811048D01*
X7546955Y-40846415D01*
X7602846Y-40922145D01*
X7602850Y-40922150D01*
X7602853Y-40922152D01*
X7602855Y-40922154D01*
X7712116Y-41002792D01*
X7712117Y-41002792D01*
X7712118Y-41002793D01*
X7840301Y-41047646D01*
X7852474Y-41048787D01*
X7870728Y-41050500D01*
X7871303Y-41050527D01*
X7871398Y-41050563D01*
X7873040Y-41050717D01*
X7872997Y-41051166D01*
X7928549Y-41072127D01*
X7962166Y-41123250D01*
X7961795Y-41164403D01*
X7964310Y-41164765D01*
X7944867Y-41299997D01*
X7944867Y-41300002D01*
X7963302Y-41428225D01*
X8017117Y-41546061D01*
X8017118Y-41546063D01*
X8101092Y-41642976D01*
X8101952Y-41643968D01*
X8183227Y-41696200D01*
X8210931Y-41714004D01*
X8335228Y-41750500D01*
X8335230Y-41750500D01*
X8464770Y-41750500D01*
X8464772Y-41750500D01*
X8589069Y-41714004D01*
X8698049Y-41643967D01*
X8782882Y-41546063D01*
X8836697Y-41428226D01*
X8844869Y-41371390D01*
X8855133Y-41300002D01*
X8855133Y-41299997D01*
X8835690Y-41164765D01*
X8838704Y-41164331D01*
X8840047Y-41116212D01*
X8877378Y-41067735D01*
X8926995Y-41051097D01*
X8926960Y-41050717D01*
X8928584Y-41050564D01*
X8928697Y-41050527D01*
X8929271Y-41050500D01*
X8944482Y-41049073D01*
X8959699Y-41047646D01*
X9087882Y-41002793D01*
X9197150Y-40922150D01*
X9277793Y-40812882D01*
X9322646Y-40684699D01*
X9325499Y-40654273D01*
X9325500Y-40654273D01*
X9325500Y-40059895D01*
X9889500Y-40059895D01*
X9889501Y-40059907D01*
X9896027Y-40109486D01*
X9896027Y-40109488D01*
X9946774Y-40218313D01*
X9946775Y-40218314D01*
X9946776Y-40218316D01*
X9992115Y-40263655D01*
X10019891Y-40318170D01*
X10012164Y-40374783D01*
X9963301Y-40481776D01*
X9944867Y-40609997D01*
X9944867Y-40610002D01*
X9963302Y-40738225D01*
X10017117Y-40856061D01*
X10017118Y-40856063D01*
X10088386Y-40938312D01*
X10101952Y-40953968D01*
X10210604Y-41023794D01*
X10210931Y-41024004D01*
X10335228Y-41060500D01*
X10335230Y-41060500D01*
X10464770Y-41060500D01*
X10464772Y-41060500D01*
X10589069Y-41024004D01*
X10698049Y-40953967D01*
X10782882Y-40856063D01*
X10836697Y-40738226D01*
X10847604Y-40662365D01*
X10855133Y-40610002D01*
X10855133Y-40609997D01*
X10836697Y-40481774D01*
X10787836Y-40374784D01*
X10780861Y-40313997D01*
X10807884Y-40263655D01*
X10853224Y-40218316D01*
X10903972Y-40109487D01*
X10910500Y-40059901D01*
X10910499Y-39700100D01*
X10907211Y-39675124D01*
X10903972Y-39650513D01*
X10903972Y-39650511D01*
X10853225Y-39541686D01*
X10853224Y-39541685D01*
X10853224Y-39541684D01*
X10768316Y-39456776D01*
X10768314Y-39456775D01*
X10768313Y-39456774D01*
X10659489Y-39406029D01*
X10659488Y-39406028D01*
X10642958Y-39403852D01*
X10609901Y-39399500D01*
X10609899Y-39399500D01*
X10190103Y-39399500D01*
X10190092Y-39399501D01*
X10140513Y-39406027D01*
X10140511Y-39406027D01*
X10031686Y-39456774D01*
X9946774Y-39541686D01*
X9896029Y-39650510D01*
X9896028Y-39650511D01*
X9889500Y-39700100D01*
X9889500Y-40059895D01*
X9325500Y-40059895D01*
X9325500Y-40045727D01*
X9325499Y-40045725D01*
X9322646Y-40015301D01*
X9277793Y-39887118D01*
X9208302Y-39792961D01*
X9197154Y-39777855D01*
X9197152Y-39777853D01*
X9197150Y-39777850D01*
X9197146Y-39777847D01*
X9197144Y-39777845D01*
X9087883Y-39697207D01*
X8959703Y-39652355D01*
X8959694Y-39652353D01*
X8929274Y-39649500D01*
X8929266Y-39649500D01*
X7870734Y-39649500D01*
X7870725Y-39649500D01*
X7840305Y-39652353D01*
X7840296Y-39652355D01*
X7712116Y-39697207D01*
X7602855Y-39777845D01*
X7602845Y-39777855D01*
X7546955Y-39853584D01*
X7497187Y-39889177D01*
X7436004Y-39888719D01*
X7386774Y-39852386D01*
X7368300Y-39794796D01*
X7368300Y-36907276D01*
X7387207Y-36849085D01*
X7436707Y-36813121D01*
X7495191Y-36812286D01*
X7517029Y-36818698D01*
X7517031Y-36818698D01*
X7646571Y-36818698D01*
X7646573Y-36818698D01*
X7770870Y-36782202D01*
X7879850Y-36712165D01*
X7964683Y-36614261D01*
X8018498Y-36496424D01*
X8031372Y-36406875D01*
X8058365Y-36351972D01*
X8059214Y-36351109D01*
X8130830Y-36279494D01*
X8185346Y-36251719D01*
X8200832Y-36250500D01*
X9312719Y-36250500D01*
X9312720Y-36250500D01*
X9425236Y-36235687D01*
X9565233Y-36177698D01*
X9685451Y-36085451D01*
X9777698Y-35965233D01*
X9835687Y-35825236D01*
X9850500Y-35712720D01*
X9850500Y-34887280D01*
X9835687Y-34774764D01*
X9777698Y-34634767D01*
X9685451Y-34514549D01*
X9565233Y-34422302D01*
X9506961Y-34398165D01*
X9425238Y-34364314D01*
X9425240Y-34364314D01*
X9425236Y-34364313D01*
X9425234Y-34364312D01*
X9425232Y-34364312D01*
X9312720Y-34349500D01*
X7987280Y-34349500D01*
X7987279Y-34349500D01*
X7874767Y-34364312D01*
X7874761Y-34364314D01*
X7734768Y-34422301D01*
X7614551Y-34514547D01*
X7614547Y-34514551D01*
X7545842Y-34604089D01*
X7495417Y-34638744D01*
X7434252Y-34637142D01*
X7385711Y-34599895D01*
X7368300Y-34543821D01*
X7368300Y-32659811D01*
X7387207Y-32601620D01*
X7397296Y-32589807D01*
X8307607Y-31679496D01*
X8362124Y-31651719D01*
X8377611Y-31650500D01*
X9312719Y-31650500D01*
X9312720Y-31650500D01*
X9425236Y-31635687D01*
X9565233Y-31577698D01*
X9685451Y-31485451D01*
X9777698Y-31365233D01*
X9813079Y-31279813D01*
X9852815Y-31233289D01*
X9912310Y-31219005D01*
X9968838Y-31242419D01*
X10000807Y-31294588D01*
X10002535Y-31303610D01*
X10008202Y-31343025D01*
X10040336Y-31413387D01*
X10062018Y-31460863D01*
X10120112Y-31527908D01*
X10146852Y-31558768D01*
X10246759Y-31622974D01*
X10255831Y-31628804D01*
X10380128Y-31665300D01*
X10380130Y-31665300D01*
X10509670Y-31665300D01*
X10509672Y-31665300D01*
X10633969Y-31628804D01*
X10742949Y-31558767D01*
X10827782Y-31460863D01*
X10881597Y-31343026D01*
X10900033Y-31214800D01*
X10900032Y-31214798D01*
X10900408Y-31212189D01*
X10927403Y-31157281D01*
X10928329Y-31156340D01*
X11031738Y-31052931D01*
X11086253Y-31025156D01*
X11129628Y-31027946D01*
X11176128Y-31041600D01*
X11176130Y-31041600D01*
X11305670Y-31041600D01*
X11305672Y-31041600D01*
X11429969Y-31005104D01*
X11538949Y-30935067D01*
X11623782Y-30837163D01*
X11677597Y-30719326D01*
X11693886Y-30606033D01*
X11696033Y-30591102D01*
X11696033Y-30591097D01*
X11677597Y-30462874D01*
X11662305Y-30429390D01*
X11623782Y-30345037D01*
X11538949Y-30247133D01*
X11538948Y-30247132D01*
X11538947Y-30247131D01*
X11429973Y-30177098D01*
X11429970Y-30177096D01*
X11429969Y-30177096D01*
X11422017Y-30174761D01*
X11305674Y-30140600D01*
X11305672Y-30140600D01*
X11176128Y-30140600D01*
X11176125Y-30140600D01*
X11051833Y-30177095D01*
X11051826Y-30177098D01*
X10942852Y-30247131D01*
X10858016Y-30345039D01*
X10838812Y-30387089D01*
X10818763Y-30415964D01*
X10499426Y-30735303D01*
X10444909Y-30763081D01*
X10429422Y-30764300D01*
X10380125Y-30764300D01*
X10255833Y-30800795D01*
X10255826Y-30800798D01*
X10146852Y-30870831D01*
X10062017Y-30968738D01*
X10039553Y-31017927D01*
X9998181Y-31063004D01*
X9938214Y-31075155D01*
X9882558Y-31049737D01*
X9852472Y-30996460D01*
X9850500Y-30976800D01*
X9850500Y-30287281D01*
X9850500Y-30287280D01*
X9835687Y-30174764D01*
X9835684Y-30174758D01*
X9835500Y-30174068D01*
X9835511Y-30173434D01*
X9834840Y-30168331D01*
X9835608Y-30168229D01*
X9836523Y-30119265D01*
X9852477Y-30067538D01*
X9853595Y-30064138D01*
X9872646Y-30009699D01*
X9872646Y-30009696D01*
X9872647Y-30009694D01*
X9874026Y-30002407D01*
X9874460Y-30002489D01*
X9874831Y-30000307D01*
X9874394Y-30000242D01*
X9875500Y-29992904D01*
X9875500Y-29935300D01*
X9875569Y-29931598D01*
X9876207Y-29914547D01*
X9877725Y-29873990D01*
X9877723Y-29873984D01*
X9876894Y-29866616D01*
X9877331Y-29866566D01*
X9875500Y-29852652D01*
X9875500Y-28631803D01*
X14688065Y-28631803D01*
X14706500Y-28760026D01*
X14747242Y-28849237D01*
X14760316Y-28877864D01*
X14820106Y-28946866D01*
X14845150Y-28975769D01*
X14921905Y-29025096D01*
X14954129Y-29045805D01*
X15078426Y-29082301D01*
X15078428Y-29082301D01*
X15207968Y-29082301D01*
X15207970Y-29082301D01*
X15332267Y-29045805D01*
X15441247Y-28975768D01*
X15526080Y-28877864D01*
X15579895Y-28760027D01*
X15598331Y-28631801D01*
X15596605Y-28619799D01*
X15579895Y-28503575D01*
X15538371Y-28412652D01*
X15526080Y-28385738D01*
X15441247Y-28287834D01*
X15441246Y-28287833D01*
X15441245Y-28287832D01*
X15332271Y-28217799D01*
X15332268Y-28217797D01*
X15332267Y-28217797D01*
X15332264Y-28217796D01*
X15207972Y-28181301D01*
X15207970Y-28181301D01*
X15078426Y-28181301D01*
X15078423Y-28181301D01*
X14954131Y-28217796D01*
X14954124Y-28217799D01*
X14845150Y-28287832D01*
X14760315Y-28385739D01*
X14706500Y-28503575D01*
X14688065Y-28631798D01*
X14688065Y-28631803D01*
X9875500Y-28631803D01*
X9875500Y-28467255D01*
X9894407Y-28409064D01*
X9904490Y-28397257D01*
X9998528Y-28303220D01*
X10059719Y-28183126D01*
X10075500Y-28083488D01*
X10075500Y-27516512D01*
X10059719Y-27416874D01*
X10059716Y-27416869D01*
X10059716Y-27416867D01*
X9998529Y-27296782D01*
X9998528Y-27296780D01*
X9903220Y-27201472D01*
X9903217Y-27201470D01*
X9783132Y-27140283D01*
X9783127Y-27140281D01*
X9783126Y-27140281D01*
X9749913Y-27135020D01*
X9683490Y-27124500D01*
X9683488Y-27124500D01*
X9166512Y-27124500D01*
X9166510Y-27124500D01*
X9066874Y-27140281D01*
X9066867Y-27140283D01*
X8946782Y-27201470D01*
X8851470Y-27296782D01*
X8790283Y-27416867D01*
X8790281Y-27416874D01*
X8774500Y-27516510D01*
X8774500Y-28083489D01*
X8790281Y-28183125D01*
X8790283Y-28183132D01*
X8849537Y-28299423D01*
X8851472Y-28303220D01*
X8945505Y-28397253D01*
X8973281Y-28451768D01*
X8974500Y-28467255D01*
X8974500Y-29650500D01*
X8955593Y-29708691D01*
X8906093Y-29744655D01*
X8875500Y-29749500D01*
X7987279Y-29749500D01*
X7874767Y-29764312D01*
X7874761Y-29764314D01*
X7734768Y-29822301D01*
X7614551Y-29914547D01*
X7614547Y-29914551D01*
X7522301Y-30034768D01*
X7464314Y-30174761D01*
X7464312Y-30174767D01*
X7449500Y-30287279D01*
X7449500Y-31112721D01*
X7460656Y-31197462D01*
X7449506Y-31257623D01*
X7432507Y-31280388D01*
X6621065Y-32091830D01*
X6612788Y-32099226D01*
X6583830Y-32122319D01*
X6583829Y-32122320D01*
X6551356Y-32169948D01*
X6549216Y-32172964D01*
X6515007Y-32219316D01*
X6511542Y-32225874D01*
X6511153Y-32225668D01*
X6510150Y-32227655D01*
X6510546Y-32227846D01*
X6507326Y-32234532D01*
X6490336Y-32289610D01*
X6489180Y-32293123D01*
X6470155Y-32347495D01*
X6468776Y-32354787D01*
X6468344Y-32354705D01*
X6467971Y-32356900D01*
X6468405Y-32356966D01*
X6467300Y-32364299D01*
X6467300Y-32421915D01*
X6467231Y-32425616D01*
X6465076Y-32483210D01*
X6465907Y-32490585D01*
X6465468Y-32490634D01*
X6467300Y-32504544D01*
X6467300Y-74279236D01*
X6466678Y-74290319D01*
X6462530Y-74327133D01*
X6462530Y-74327138D01*
X3300500Y-74327138D01*
X3300500Y-45000004D01*
X3844751Y-45000004D01*
X3863685Y-45168053D01*
X3863688Y-45168065D01*
X3919544Y-45327690D01*
X3919544Y-45327691D01*
X4008619Y-45469452D01*
X4009523Y-45470890D01*
X4129110Y-45590477D01*
X4129112Y-45590478D01*
X4129113Y-45590479D01*
X4267810Y-45677629D01*
X4272310Y-45680456D01*
X4335840Y-45702686D01*
X4431934Y-45736311D01*
X4431938Y-45736312D01*
X4431941Y-45736313D01*
X4431942Y-45736313D01*
X4431946Y-45736314D01*
X4599996Y-45755249D01*
X4600000Y-45755249D01*
X4600004Y-45755249D01*
X4768053Y-45736314D01*
X4768055Y-45736313D01*
X4768059Y-45736313D01*
X4777159Y-45733129D01*
X4792925Y-45727612D01*
X4927690Y-45680456D01*
X5070890Y-45590477D01*
X5190477Y-45470890D01*
X5280456Y-45327690D01*
X5336313Y-45168059D01*
X5338086Y-45152323D01*
X5355249Y-45000004D01*
X5355249Y-44999995D01*
X5336314Y-44831946D01*
X5336311Y-44831934D01*
X5307119Y-44748510D01*
X5280456Y-44672310D01*
X5279941Y-44671491D01*
X5190479Y-44529113D01*
X5190478Y-44529112D01*
X5190477Y-44529110D01*
X5070890Y-44409523D01*
X5070887Y-44409521D01*
X5070886Y-44409520D01*
X4927691Y-44319544D01*
X4768065Y-44263688D01*
X4768053Y-44263685D01*
X4600004Y-44244751D01*
X4599996Y-44244751D01*
X4431946Y-44263685D01*
X4431934Y-44263688D01*
X4272309Y-44319544D01*
X4272308Y-44319544D01*
X4129113Y-44409520D01*
X4009520Y-44529113D01*
X3919544Y-44672308D01*
X3919544Y-44672309D01*
X3863688Y-44831934D01*
X3863685Y-44831946D01*
X3844751Y-44999995D01*
X3844751Y-45000004D01*
X3300500Y-45000004D01*
X3300500Y-36083828D01*
X4795623Y-36083828D01*
X4805943Y-36247857D01*
X4856732Y-36404173D01*
X4944797Y-36542939D01*
X5064607Y-36655448D01*
X5064606Y-36655448D01*
X5192552Y-36725787D01*
X5208632Y-36734627D01*
X5367823Y-36775500D01*
X5367826Y-36775500D01*
X5490925Y-36775500D01*
X5613053Y-36760072D01*
X5613054Y-36760071D01*
X5613058Y-36760071D01*
X5765871Y-36699568D01*
X5898837Y-36602963D01*
X6003600Y-36476326D01*
X6073579Y-36327613D01*
X6100089Y-36188642D01*
X6104375Y-36166176D01*
X6104376Y-36166170D01*
X6103738Y-36156022D01*
X6094056Y-36002140D01*
X6043268Y-35845829D01*
X6043267Y-35845828D01*
X6043267Y-35845826D01*
X5955202Y-35707060D01*
X5835392Y-35594551D01*
X5835393Y-35594551D01*
X5691369Y-35515373D01*
X5532179Y-35474500D01*
X5532177Y-35474500D01*
X5409075Y-35474500D01*
X5286946Y-35489927D01*
X5286943Y-35489928D01*
X5134129Y-35550432D01*
X5134125Y-35550434D01*
X5001162Y-35647037D01*
X4896399Y-35773674D01*
X4826420Y-35922387D01*
X4795624Y-36083823D01*
X4795623Y-36083828D01*
X3300500Y-36083828D01*
X3300500Y-31833828D01*
X4795623Y-31833828D01*
X4805943Y-31997857D01*
X4856732Y-32154173D01*
X4943806Y-32291377D01*
X4944798Y-32292940D01*
X4964567Y-32311504D01*
X5064607Y-32405448D01*
X5064606Y-32405448D01*
X5208630Y-32484626D01*
X5208632Y-32484627D01*
X5367823Y-32525500D01*
X5367826Y-32525500D01*
X5490925Y-32525500D01*
X5613053Y-32510072D01*
X5613054Y-32510071D01*
X5613058Y-32510071D01*
X5765871Y-32449568D01*
X5898837Y-32352963D01*
X6003600Y-32226326D01*
X6073579Y-32077613D01*
X6104376Y-31916170D01*
X6094056Y-31752140D01*
X6043268Y-31595829D01*
X6043267Y-31595828D01*
X6043267Y-31595826D01*
X5955202Y-31457060D01*
X5835392Y-31344551D01*
X5835393Y-31344551D01*
X5691369Y-31265373D01*
X5532179Y-31224500D01*
X5532177Y-31224500D01*
X5409075Y-31224500D01*
X5286946Y-31239927D01*
X5286943Y-31239928D01*
X5134129Y-31300432D01*
X5134125Y-31300434D01*
X5001162Y-31397037D01*
X4896399Y-31523674D01*
X4826420Y-31672387D01*
X4795624Y-31833823D01*
X4795623Y-31833828D01*
X3300500Y-31833828D01*
X3300500Y-29099000D01*
X3319407Y-29040809D01*
X3368907Y-29004845D01*
X3399500Y-29000000D01*
X5049999Y-29000000D01*
X5050000Y-29000000D01*
X5050000Y-19000002D01*
X17494867Y-19000002D01*
X17513302Y-19128225D01*
X17557096Y-19224119D01*
X17567118Y-19246063D01*
X17634579Y-19323918D01*
X17651952Y-19343968D01*
X17760926Y-19414001D01*
X17760931Y-19414004D01*
X17885228Y-19450500D01*
X17885230Y-19450500D01*
X18014770Y-19450500D01*
X18014772Y-19450500D01*
X18139069Y-19414004D01*
X18248049Y-19343967D01*
X18332882Y-19246063D01*
X18386697Y-19128226D01*
X18395417Y-19067576D01*
X18405133Y-19000002D01*
X18405133Y-18999997D01*
X18386697Y-18871774D01*
X18374855Y-18845844D01*
X18332882Y-18753937D01*
X18248049Y-18656033D01*
X18248048Y-18656032D01*
X18248047Y-18656031D01*
X18176424Y-18610002D01*
X21144867Y-18610002D01*
X21163302Y-18738225D01*
X21213978Y-18849187D01*
X21217118Y-18856063D01*
X21301951Y-18953967D01*
X21301952Y-18953968D01*
X21332222Y-18973421D01*
X21410931Y-19024004D01*
X21535228Y-19060500D01*
X21535230Y-19060500D01*
X21664770Y-19060500D01*
X21664772Y-19060500D01*
X21789069Y-19024004D01*
X21898049Y-18953967D01*
X21982882Y-18856063D01*
X22036697Y-18738226D01*
X22047827Y-18660813D01*
X22055133Y-18610002D01*
X22055133Y-18609997D01*
X22036697Y-18481774D01*
X22019847Y-18444878D01*
X21982882Y-18363937D01*
X21898049Y-18266033D01*
X21898048Y-18266032D01*
X21898047Y-18266031D01*
X21789073Y-18195998D01*
X21789070Y-18195996D01*
X21789069Y-18195996D01*
X21789066Y-18195995D01*
X21664774Y-18159500D01*
X21664772Y-18159500D01*
X21535228Y-18159500D01*
X21535225Y-18159500D01*
X21410933Y-18195995D01*
X21410926Y-18195998D01*
X21301952Y-18266031D01*
X21217117Y-18363938D01*
X21163302Y-18481774D01*
X21144867Y-18609997D01*
X21144867Y-18610002D01*
X18176424Y-18610002D01*
X18139073Y-18585998D01*
X18139070Y-18585996D01*
X18139069Y-18585996D01*
X18131815Y-18583866D01*
X18014774Y-18549500D01*
X18014772Y-18549500D01*
X17885228Y-18549500D01*
X17885225Y-18549500D01*
X17760933Y-18585995D01*
X17760926Y-18585998D01*
X17651952Y-18656031D01*
X17567117Y-18753938D01*
X17513302Y-18871774D01*
X17494867Y-18999997D01*
X17494867Y-19000002D01*
X5050000Y-19000002D01*
X5050000Y-17183489D01*
X10574500Y-17183489D01*
X10590281Y-17283125D01*
X10590283Y-17283132D01*
X10651470Y-17403217D01*
X10651472Y-17403220D01*
X10746780Y-17498528D01*
X10746782Y-17498529D01*
X10866867Y-17559716D01*
X10866869Y-17559716D01*
X10866874Y-17559719D01*
X10942541Y-17571703D01*
X10966510Y-17575500D01*
X10966512Y-17575500D01*
X11483490Y-17575500D01*
X11504885Y-17572111D01*
X11583126Y-17559719D01*
X11703220Y-17498528D01*
X11798528Y-17403220D01*
X11859719Y-17283126D01*
X11875500Y-17183488D01*
X11875500Y-17109896D01*
X14039500Y-17109896D01*
X14039501Y-17109907D01*
X14046027Y-17159486D01*
X14046027Y-17159488D01*
X14096774Y-17268313D01*
X14096775Y-17268314D01*
X14096776Y-17268316D01*
X14181684Y-17353224D01*
X14290513Y-17403972D01*
X14340099Y-17410500D01*
X14699900Y-17410499D01*
X14749487Y-17403972D01*
X14749488Y-17403972D01*
X14808137Y-17376622D01*
X14858316Y-17353224D01*
X14943224Y-17268316D01*
X14993972Y-17159487D01*
X15000500Y-17109901D01*
X15000499Y-16690100D01*
X14993972Y-16640513D01*
X14993972Y-16640511D01*
X14943225Y-16531686D01*
X14943224Y-16531685D01*
X14943224Y-16531684D01*
X14874494Y-16462954D01*
X14846719Y-16408440D01*
X14845500Y-16392953D01*
X14845500Y-16368200D01*
X20326668Y-16368200D01*
X20345103Y-16496423D01*
X20382505Y-16578320D01*
X20398919Y-16614261D01*
X20472806Y-16699532D01*
X20483753Y-16712166D01*
X20592061Y-16781771D01*
X20592732Y-16782202D01*
X20717029Y-16818698D01*
X20717031Y-16818698D01*
X20846571Y-16818698D01*
X20846573Y-16818698D01*
X20970870Y-16782202D01*
X21079850Y-16712165D01*
X21164683Y-16614261D01*
X21218498Y-16496424D01*
X21236934Y-16368198D01*
X21234053Y-16348163D01*
X21218498Y-16239972D01*
X21216711Y-16236060D01*
X21164683Y-16122135D01*
X21079850Y-16024231D01*
X21079849Y-16024230D01*
X21079848Y-16024229D01*
X20970874Y-15954196D01*
X20970871Y-15954194D01*
X20970870Y-15954194D01*
X20970867Y-15954193D01*
X20846575Y-15917698D01*
X20846573Y-15917698D01*
X20717029Y-15917698D01*
X20717026Y-15917698D01*
X20592734Y-15954193D01*
X20592727Y-15954196D01*
X20483753Y-16024229D01*
X20398918Y-16122136D01*
X20345103Y-16239972D01*
X20326668Y-16368195D01*
X20326668Y-16368200D01*
X14845500Y-16368200D01*
X14845500Y-16339210D01*
X14864407Y-16281019D01*
X14869680Y-16274379D01*
X14902882Y-16236062D01*
X14956697Y-16118225D01*
X14970211Y-16024231D01*
X14975133Y-15990001D01*
X14975133Y-15989996D01*
X14956697Y-15861773D01*
X14902882Y-15743937D01*
X14902882Y-15743936D01*
X14818049Y-15646032D01*
X14818048Y-15646031D01*
X14818047Y-15646030D01*
X14709073Y-15575997D01*
X14709070Y-15575995D01*
X14709069Y-15575995D01*
X14709066Y-15575994D01*
X14584774Y-15539499D01*
X14584772Y-15539499D01*
X14455228Y-15539499D01*
X14455225Y-15539499D01*
X14330933Y-15575994D01*
X14330926Y-15575997D01*
X14221952Y-15646030D01*
X14137117Y-15743937D01*
X14083302Y-15861773D01*
X14064867Y-15989996D01*
X14064867Y-15990001D01*
X14083302Y-16118224D01*
X14085089Y-16122136D01*
X14137118Y-16236062D01*
X14170320Y-16274379D01*
X14194137Y-16330739D01*
X14194500Y-16339210D01*
X14194500Y-16392953D01*
X14175593Y-16451144D01*
X14165509Y-16462950D01*
X14117904Y-16510556D01*
X14096774Y-16531686D01*
X14046029Y-16640510D01*
X14046028Y-16640511D01*
X14039500Y-16690100D01*
X14039500Y-17109896D01*
X11875500Y-17109896D01*
X11875500Y-16616512D01*
X11875143Y-16614261D01*
X11869451Y-16578320D01*
X11859719Y-16516874D01*
X11859716Y-16516869D01*
X11859716Y-16516867D01*
X11798529Y-16396782D01*
X11798528Y-16396780D01*
X11703220Y-16301472D01*
X11680596Y-16289944D01*
X11637333Y-16246680D01*
X11627762Y-16186248D01*
X11635487Y-16160615D01*
X11661697Y-16103226D01*
X11661697Y-16103224D01*
X11661698Y-16103223D01*
X11680133Y-15975002D01*
X11680133Y-15974997D01*
X11661697Y-15846774D01*
X11614732Y-15743937D01*
X11607882Y-15728937D01*
X11523049Y-15631033D01*
X11523048Y-15631032D01*
X11523047Y-15631031D01*
X11414073Y-15560998D01*
X11414070Y-15560996D01*
X11414069Y-15560996D01*
X11397381Y-15556096D01*
X11289774Y-15524500D01*
X11289772Y-15524500D01*
X11160228Y-15524500D01*
X11160225Y-15524500D01*
X11035933Y-15560995D01*
X11035926Y-15560998D01*
X10926952Y-15631031D01*
X10842117Y-15728938D01*
X10788302Y-15846774D01*
X10769867Y-15974997D01*
X10769867Y-15975002D01*
X10788302Y-16103225D01*
X10814509Y-16160609D01*
X10821484Y-16221396D01*
X10791398Y-16274673D01*
X10769402Y-16289945D01*
X10746782Y-16301470D01*
X10651470Y-16396782D01*
X10590283Y-16516867D01*
X10590281Y-16516874D01*
X10574500Y-16616510D01*
X10574500Y-17183489D01*
X5050000Y-17183489D01*
X5050000Y-15000000D01*
X5049999Y-15000000D01*
X3399500Y-15000000D01*
X3341309Y-14981093D01*
X3305345Y-14931593D01*
X3300500Y-14901000D01*
X3300500Y-12900002D01*
X8394867Y-12900002D01*
X8413302Y-13028225D01*
X8458332Y-13126824D01*
X8467118Y-13146063D01*
X8535780Y-13225304D01*
X8551952Y-13243968D01*
X8660926Y-13314001D01*
X8660931Y-13314004D01*
X8785228Y-13350500D01*
X8785230Y-13350500D01*
X8914770Y-13350500D01*
X8914772Y-13350500D01*
X9039069Y-13314004D01*
X9039076Y-13313999D01*
X9045510Y-13311062D01*
X9046039Y-13312221D01*
X9098106Y-13298530D01*
X9155125Y-13320722D01*
X9168655Y-13335046D01*
X9171948Y-13338339D01*
X9171950Y-13338342D01*
X9231283Y-13397675D01*
X9259059Y-13452190D01*
X9249488Y-13512622D01*
X9231282Y-13537680D01*
X9165174Y-13603788D01*
X9110134Y-13716373D01*
X9110134Y-13716375D01*
X9099500Y-13789364D01*
X9099500Y-14210636D01*
X9101205Y-14222337D01*
X9110134Y-14283626D01*
X9133864Y-14332166D01*
X9165174Y-14396211D01*
X9253789Y-14484826D01*
X9366375Y-14539866D01*
X9439364Y-14550500D01*
X10284453Y-14550500D01*
X10342644Y-14569407D01*
X10351163Y-14576351D01*
X10351944Y-14577063D01*
X10355231Y-14580202D01*
X10368403Y-14593374D01*
X10368495Y-14593437D01*
X10379242Y-14601950D01*
X10400264Y-14621114D01*
X10400265Y-14621114D01*
X10400267Y-14621116D01*
X10409425Y-14624663D01*
X10429612Y-14635303D01*
X10437719Y-14640857D01*
X10465410Y-14647369D01*
X10478495Y-14651421D01*
X10496190Y-14658276D01*
X10500886Y-14660096D01*
X10505027Y-14661700D01*
X10514852Y-14661700D01*
X10537516Y-14664329D01*
X10547081Y-14666579D01*
X10574845Y-14662706D01*
X10575254Y-14662649D01*
X10588931Y-14661700D01*
X12946436Y-14661700D01*
X12960111Y-14663932D01*
X12960283Y-14662706D01*
X12969364Y-14663972D01*
X12969365Y-14663973D01*
X12969365Y-14663972D01*
X12969366Y-14663973D01*
X13016242Y-14661806D01*
X13020814Y-14661700D01*
X13039442Y-14661700D01*
X13039444Y-14661700D01*
X13039548Y-14661680D01*
X13053171Y-14660098D01*
X13081592Y-14658785D01*
X13090576Y-14654817D01*
X13112377Y-14648065D01*
X13122033Y-14646261D01*
X13146218Y-14631286D01*
X13158328Y-14624901D01*
X13184365Y-14613406D01*
X13191309Y-14606460D01*
X13209201Y-14592289D01*
X13217552Y-14587119D01*
X13234689Y-14564423D01*
X13243682Y-14554087D01*
X14666249Y-13131520D01*
X18599500Y-13131520D01*
X18599501Y-13131523D01*
X18614352Y-13225299D01*
X18614354Y-13225304D01*
X18671950Y-13338342D01*
X18761658Y-13428050D01*
X18874696Y-13485646D01*
X18968481Y-13500500D01*
X20431518Y-13500499D01*
X20431521Y-13500499D01*
X20431522Y-13500498D01*
X20490380Y-13491177D01*
X20525299Y-13485647D01*
X20525299Y-13485646D01*
X20525304Y-13485646D01*
X20638342Y-13428050D01*
X20728050Y-13338342D01*
X20769217Y-13257546D01*
X20812481Y-13214283D01*
X20866565Y-13203916D01*
X20871788Y-13204399D01*
X20871793Y-13204401D01*
X20909338Y-13200921D01*
X20918471Y-13200500D01*
X20927844Y-13200500D01*
X20937058Y-13198777D01*
X20946101Y-13197515D01*
X20983660Y-13194035D01*
X20984054Y-13193838D01*
X21010000Y-13185141D01*
X21010433Y-13185061D01*
X21042498Y-13165205D01*
X21050462Y-13160770D01*
X21084228Y-13143958D01*
X21084519Y-13143638D01*
X21105576Y-13126151D01*
X21105952Y-13125919D01*
X21128671Y-13095831D01*
X21134515Y-13088795D01*
X21159916Y-13060933D01*
X21160076Y-13060521D01*
X21173395Y-13036609D01*
X21173656Y-13036264D01*
X21183976Y-12999989D01*
X21186869Y-12991354D01*
X21200500Y-12956173D01*
X21200500Y-12955726D01*
X21204279Y-12928635D01*
X21204401Y-12928207D01*
X21200922Y-12890662D01*
X21200500Y-12881528D01*
X21200500Y-10999000D01*
X21219407Y-10940809D01*
X21268907Y-10904845D01*
X21299500Y-10900000D01*
X23799999Y-10900000D01*
X23800000Y-10900000D01*
X23800000Y-7900000D01*
X20858187Y-7900000D01*
X20799996Y-7881093D01*
X20764032Y-7831593D01*
X20764032Y-7770407D01*
X20769978Y-7756054D01*
X20785646Y-7725304D01*
X20800500Y-7631519D01*
X20800499Y-7168482D01*
X20785646Y-7074696D01*
X20728050Y-6961658D01*
X20686393Y-6920001D01*
X20658618Y-6865487D01*
X20668189Y-6805055D01*
X20686392Y-6779999D01*
X20728050Y-6738342D01*
X20785646Y-6625304D01*
X20800500Y-6531519D01*
X20800499Y-6068482D01*
X20800498Y-6068478D01*
X20800498Y-6068476D01*
X20785647Y-5974700D01*
X20785646Y-5974698D01*
X20785646Y-5974696D01*
X20728050Y-5861658D01*
X20668715Y-5802323D01*
X20640940Y-5747809D01*
X20650511Y-5687377D01*
X20668715Y-5662321D01*
X20734826Y-5596211D01*
X20789866Y-5483625D01*
X20800500Y-5410636D01*
X20800500Y-4989364D01*
X20789866Y-4916375D01*
X20734826Y-4803789D01*
X20646211Y-4715174D01*
X20533625Y-4660134D01*
X20533626Y-4660134D01*
X20511867Y-4656964D01*
X20460636Y-4649500D01*
X18939364Y-4649500D01*
X18895570Y-4655880D01*
X18866373Y-4660134D01*
X18753790Y-4715173D01*
X18665173Y-4803790D01*
X18610134Y-4916373D01*
X18606012Y-4944668D01*
X18599500Y-4989364D01*
X18599500Y-5410636D01*
X18608007Y-5469027D01*
X18610134Y-5483626D01*
X18665173Y-5596209D01*
X18665174Y-5596211D01*
X18731283Y-5662320D01*
X18759059Y-5716835D01*
X18749488Y-5777267D01*
X18731282Y-5802325D01*
X18671951Y-5861656D01*
X18671950Y-5861658D01*
X18614354Y-5974695D01*
X18599500Y-6068477D01*
X18599500Y-6531520D01*
X18599501Y-6531523D01*
X18614352Y-6625299D01*
X18614354Y-6625304D01*
X18671950Y-6738342D01*
X18713606Y-6779998D01*
X18741382Y-6834513D01*
X18731811Y-6894945D01*
X18713607Y-6920000D01*
X18689781Y-6943827D01*
X18671949Y-6961659D01*
X18614354Y-7074695D01*
X18599500Y-7168477D01*
X18599500Y-7631520D01*
X18599501Y-7631523D01*
X18614352Y-7725299D01*
X18614354Y-7725304D01*
X18671950Y-7838342D01*
X18713606Y-7879998D01*
X18741382Y-7934513D01*
X18731811Y-7994945D01*
X18713607Y-8020000D01*
X18681008Y-8052600D01*
X18671949Y-8061659D01*
X18614354Y-8174695D01*
X18599500Y-8268477D01*
X18599500Y-8731520D01*
X18599501Y-8731523D01*
X18614352Y-8825299D01*
X18614354Y-8825304D01*
X18671950Y-8938342D01*
X18713606Y-8979998D01*
X18741382Y-9034513D01*
X18731811Y-9094945D01*
X18713607Y-9120000D01*
X18688309Y-9145299D01*
X18671949Y-9161659D01*
X18614354Y-9274695D01*
X18599500Y-9368477D01*
X18599500Y-9831520D01*
X18599501Y-9831523D01*
X18614352Y-9925299D01*
X18614354Y-9925304D01*
X18671950Y-10038342D01*
X18713606Y-10079998D01*
X18741382Y-10134513D01*
X18731811Y-10194945D01*
X18713607Y-10220000D01*
X18688217Y-10245391D01*
X18671949Y-10261659D01*
X18614354Y-10374695D01*
X18599500Y-10468477D01*
X18599500Y-10931520D01*
X18599501Y-10931523D01*
X18614352Y-11025299D01*
X18614354Y-11025304D01*
X18671950Y-11138342D01*
X18761658Y-11228050D01*
X18874696Y-11285646D01*
X18968481Y-11300500D01*
X20431518Y-11300499D01*
X20431521Y-11300499D01*
X20485014Y-11292027D01*
X20545446Y-11301599D01*
X20588710Y-11344864D01*
X20599500Y-11389808D01*
X20599500Y-12210191D01*
X20580593Y-12268382D01*
X20531093Y-12304346D01*
X20485013Y-12307972D01*
X20431522Y-12299500D01*
X18968478Y-12299500D01*
X18968476Y-12299501D01*
X18874700Y-12314352D01*
X18874695Y-12314354D01*
X18761659Y-12371949D01*
X18671949Y-12461659D01*
X18614354Y-12574695D01*
X18599500Y-12668477D01*
X18599500Y-13131520D01*
X14666249Y-13131520D01*
X15189005Y-12608764D01*
X15200264Y-12600693D01*
X15199505Y-12599687D01*
X15206821Y-12594161D01*
X15206828Y-12594158D01*
X15238477Y-12559439D01*
X15241595Y-12556174D01*
X15254774Y-12542997D01*
X15254838Y-12542902D01*
X15263353Y-12532153D01*
X15265085Y-12530253D01*
X15282516Y-12511133D01*
X15286065Y-12501970D01*
X15296706Y-12481782D01*
X15302256Y-12473681D01*
X15308769Y-12445985D01*
X15312820Y-12432906D01*
X15323100Y-12406373D01*
X15323100Y-12396548D01*
X15325729Y-12373883D01*
X15327979Y-12364319D01*
X15324049Y-12336146D01*
X15323100Y-12322469D01*
X15323100Y-10616063D01*
X15342007Y-10557872D01*
X15347280Y-10551232D01*
X15352265Y-10545479D01*
X15405482Y-10484063D01*
X15459297Y-10366226D01*
X15469281Y-10296787D01*
X15477733Y-10238002D01*
X15477733Y-10237997D01*
X15459297Y-10109774D01*
X15455895Y-10102325D01*
X15405482Y-9991937D01*
X15320649Y-9894033D01*
X15320648Y-9894032D01*
X15320647Y-9894031D01*
X15211673Y-9823998D01*
X15211670Y-9823996D01*
X15211669Y-9823996D01*
X15211666Y-9823995D01*
X15087374Y-9787500D01*
X15087372Y-9787500D01*
X14957828Y-9787500D01*
X14957825Y-9787500D01*
X14833533Y-9823995D01*
X14833526Y-9823998D01*
X14724552Y-9894031D01*
X14639717Y-9991938D01*
X14585902Y-10109774D01*
X14567467Y-10237997D01*
X14567467Y-10238002D01*
X14585902Y-10366225D01*
X14621123Y-10443347D01*
X14639718Y-10484063D01*
X14692935Y-10545479D01*
X14697920Y-10551232D01*
X14721737Y-10607592D01*
X14722100Y-10616063D01*
X14722100Y-12184719D01*
X14703193Y-12242910D01*
X14693104Y-12254723D01*
X13345595Y-13602231D01*
X13291078Y-13630008D01*
X13230646Y-13620437D01*
X13187381Y-13577172D01*
X13185549Y-13573378D01*
X13182882Y-13567537D01*
X13124679Y-13500366D01*
X13100863Y-13444008D01*
X13100500Y-13435537D01*
X13100500Y-11710768D01*
X13102731Y-11697095D01*
X13101505Y-11696924D01*
X13102773Y-11687832D01*
X13100606Y-11640957D01*
X13100500Y-11636385D01*
X13100500Y-11617760D01*
X13100500Y-11617756D01*
X13100478Y-11617642D01*
X13098898Y-11604030D01*
X13097585Y-11575608D01*
X13093615Y-11566617D01*
X13086864Y-11544815D01*
X13085061Y-11535168D01*
X13085061Y-11535167D01*
X13070085Y-11510979D01*
X13063698Y-11498862D01*
X13052206Y-11472835D01*
X13052205Y-11472833D01*
X13045256Y-11465884D01*
X13031090Y-11447999D01*
X13025919Y-11439648D01*
X13003221Y-11422507D01*
X12992879Y-11413508D01*
X12693009Y-11113638D01*
X12665232Y-11059121D01*
X12674803Y-10998689D01*
X12718068Y-10955424D01*
X12735119Y-10948645D01*
X12776469Y-10936504D01*
X12885449Y-10866467D01*
X12970282Y-10768563D01*
X13024097Y-10650726D01*
X13038402Y-10551232D01*
X13042533Y-10522502D01*
X13042533Y-10522497D01*
X13024097Y-10394274D01*
X12991830Y-10323620D01*
X12970282Y-10276437D01*
X12912079Y-10209266D01*
X12888263Y-10152908D01*
X12887900Y-10144437D01*
X12887900Y-9408072D01*
X12890131Y-9394395D01*
X12888906Y-9394225D01*
X12890174Y-9385133D01*
X12888006Y-9338236D01*
X12887900Y-9333664D01*
X12887900Y-9315060D01*
X12887900Y-9315056D01*
X12887879Y-9314946D01*
X12886300Y-9301343D01*
X12884986Y-9272909D01*
X12881015Y-9263918D01*
X12874264Y-9242117D01*
X12872461Y-9232467D01*
X12857486Y-9208283D01*
X12851097Y-9196161D01*
X12839606Y-9170135D01*
X12839604Y-9170133D01*
X12839604Y-9170132D01*
X12832656Y-9163184D01*
X12818490Y-9145299D01*
X12813319Y-9136948D01*
X12790621Y-9119807D01*
X12780279Y-9110808D01*
X12049898Y-8380427D01*
X12022121Y-8325910D01*
X12031692Y-8265478D01*
X12066378Y-8227139D01*
X12108349Y-8200167D01*
X12193182Y-8102263D01*
X12246997Y-7984426D01*
X12255103Y-7928050D01*
X12265433Y-7856202D01*
X12265433Y-7856197D01*
X12246997Y-7727974D01*
X12239522Y-7711606D01*
X12193182Y-7610137D01*
X12137540Y-7545921D01*
X12113724Y-7489564D01*
X12113467Y-7485664D01*
X12110906Y-7430256D01*
X12110800Y-7425685D01*
X12110800Y-7407060D01*
X12110800Y-7407056D01*
X12110778Y-7406942D01*
X12109198Y-7393330D01*
X12107885Y-7364908D01*
X12103915Y-7355917D01*
X12097164Y-7334115D01*
X12095361Y-7324468D01*
X12095361Y-7324467D01*
X12080385Y-7300279D01*
X12073998Y-7288162D01*
X12062506Y-7262135D01*
X12062505Y-7262133D01*
X12055556Y-7255184D01*
X12041390Y-7237299D01*
X12036219Y-7228948D01*
X12013521Y-7211807D01*
X12003179Y-7202808D01*
X11329495Y-6529124D01*
X11301718Y-6474607D01*
X11300499Y-6459120D01*
X11300499Y-6068478D01*
X11300498Y-6068476D01*
X11285647Y-5974700D01*
X11285646Y-5974698D01*
X11285646Y-5974696D01*
X11228050Y-5861658D01*
X11138342Y-5771950D01*
X11025304Y-5714354D01*
X11025305Y-5714354D01*
X10931521Y-5699500D01*
X9468478Y-5699500D01*
X9468476Y-5699501D01*
X9374700Y-5714352D01*
X9374695Y-5714354D01*
X9261659Y-5771949D01*
X9171949Y-5861659D01*
X9114354Y-5974695D01*
X9099500Y-6068477D01*
X9099500Y-6531520D01*
X9099501Y-6531523D01*
X9114352Y-6625299D01*
X9114354Y-6625304D01*
X9171950Y-6738342D01*
X9213606Y-6779998D01*
X9241382Y-6834513D01*
X9231811Y-6894945D01*
X9213607Y-6920000D01*
X9189781Y-6943827D01*
X9171949Y-6961659D01*
X9114354Y-7074695D01*
X9099500Y-7168477D01*
X9099500Y-7631520D01*
X9099501Y-7631523D01*
X9114352Y-7725299D01*
X9114354Y-7725304D01*
X9171950Y-7838342D01*
X9213606Y-7879998D01*
X9241382Y-7934513D01*
X9231811Y-7994945D01*
X9213607Y-8020000D01*
X9181008Y-8052600D01*
X9171949Y-8061659D01*
X9114354Y-8174695D01*
X9099500Y-8268477D01*
X9099500Y-8731520D01*
X9099501Y-8731523D01*
X9114352Y-8825299D01*
X9114354Y-8825304D01*
X9171950Y-8938342D01*
X9213606Y-8979998D01*
X9241382Y-9034513D01*
X9231811Y-9094945D01*
X9213607Y-9120000D01*
X9188309Y-9145299D01*
X9171949Y-9161659D01*
X9114354Y-9274695D01*
X9099500Y-9368477D01*
X9099500Y-9831520D01*
X9099501Y-9831523D01*
X9114352Y-9925299D01*
X9114354Y-9925304D01*
X9171950Y-10038342D01*
X9213606Y-10079998D01*
X9241382Y-10134513D01*
X9231811Y-10194945D01*
X9213607Y-10220000D01*
X9171950Y-10261658D01*
X9171948Y-10261660D01*
X9166441Y-10267168D01*
X9165340Y-10266067D01*
X9123050Y-10296787D01*
X9061864Y-10296782D01*
X9040337Y-10286575D01*
X9039070Y-10285996D01*
X8914774Y-10249500D01*
X8914772Y-10249500D01*
X8785228Y-10249500D01*
X8785225Y-10249500D01*
X8660933Y-10285995D01*
X8660926Y-10285998D01*
X8551952Y-10356031D01*
X8467117Y-10453938D01*
X8413302Y-10571774D01*
X8394867Y-10699997D01*
X8394867Y-10700002D01*
X8413302Y-10828225D01*
X8467117Y-10946061D01*
X8467118Y-10946063D01*
X8535780Y-11025304D01*
X8551952Y-11043968D01*
X8660361Y-11113638D01*
X8660931Y-11114004D01*
X8785228Y-11150500D01*
X8785230Y-11150500D01*
X8914770Y-11150500D01*
X8914772Y-11150500D01*
X9039069Y-11114004D01*
X9039076Y-11113999D01*
X9045510Y-11111062D01*
X9046039Y-11112221D01*
X9098106Y-11098530D01*
X9155125Y-11120722D01*
X9168655Y-11135046D01*
X9171948Y-11138339D01*
X9171950Y-11138342D01*
X9213606Y-11179998D01*
X9241382Y-11234513D01*
X9231811Y-11294945D01*
X9213607Y-11320000D01*
X9188744Y-11344864D01*
X9171949Y-11361659D01*
X9114354Y-11474695D01*
X9099500Y-11568477D01*
X9099500Y-12031520D01*
X9099501Y-12031523D01*
X9114352Y-12125300D01*
X9114352Y-12125301D01*
X9125486Y-12147152D01*
X9135057Y-12207584D01*
X9112098Y-12256924D01*
X9098919Y-12272133D01*
X9098918Y-12272134D01*
X9042162Y-12396413D01*
X9039575Y-12395231D01*
X9012011Y-12435532D01*
X8954380Y-12456084D01*
X8923683Y-12452115D01*
X8914780Y-12449501D01*
X8914773Y-12449500D01*
X8914772Y-12449500D01*
X8785228Y-12449500D01*
X8785225Y-12449500D01*
X8660933Y-12485995D01*
X8660926Y-12485998D01*
X8551952Y-12556031D01*
X8467117Y-12653938D01*
X8413302Y-12771774D01*
X8394867Y-12899997D01*
X8394867Y-12900002D01*
X3300500Y-12900002D01*
X3300500Y-7002435D01*
X3300619Y-6997578D01*
X3302384Y-6961658D01*
X3318076Y-6642221D01*
X3319026Y-6632583D01*
X3370872Y-6283062D01*
X3372761Y-6273564D01*
X3458621Y-5930792D01*
X3461430Y-5921533D01*
X3580473Y-5588831D01*
X3584182Y-5579876D01*
X3735264Y-5260440D01*
X3739821Y-5251914D01*
X3921480Y-4948834D01*
X3926873Y-4940765D01*
X4137355Y-4656964D01*
X4143518Y-4649454D01*
X4380806Y-4387645D01*
X4387645Y-4380806D01*
X4649455Y-4143517D01*
X4656964Y-4137355D01*
X4940765Y-3926873D01*
X4948834Y-3921480D01*
X5251914Y-3739821D01*
X5260440Y-3735264D01*
X5579876Y-3584182D01*
X5588831Y-3580473D01*
X5921533Y-3461430D01*
X5930792Y-3458621D01*
X6273564Y-3372761D01*
X6283062Y-3370872D01*
X6632583Y-3319026D01*
X6642221Y-3318076D01*
X6968962Y-3302024D01*
X6997579Y-3300619D01*
X7002436Y-3300500D01*
X7047595Y-3300500D01*
X44952405Y-3300500D01*
X44997564Y-3300500D01*
X45002421Y-3300619D01*
G37*
%TD.AperFunction*%
%TA.AperFunction,Conductor*%
G36*
X35395445Y-45030557D02*
G01*
X35438709Y-45073822D01*
X35449500Y-45118767D01*
X35449500Y-46034317D01*
X35432815Y-46089318D01*
X35411136Y-46121762D01*
X35411132Y-46121772D01*
X35399501Y-46180241D01*
X35399500Y-46180253D01*
X35399500Y-47519746D01*
X35399501Y-47519758D01*
X35411132Y-47578227D01*
X35411134Y-47578233D01*
X35455445Y-47644548D01*
X35455448Y-47644552D01*
X35521769Y-47688867D01*
X35557383Y-47695951D01*
X35580241Y-47700498D01*
X35580246Y-47700498D01*
X35580252Y-47700500D01*
X35585821Y-47700500D01*
X35644012Y-47719407D01*
X35679976Y-47768907D01*
X35679976Y-47830093D01*
X35655825Y-47869504D01*
X35354025Y-48171304D01*
X35299508Y-48199081D01*
X35284021Y-48200300D01*
X35164379Y-48200300D01*
X35106188Y-48181393D01*
X35094375Y-48171304D01*
X34792575Y-47869504D01*
X34764798Y-47814987D01*
X34774369Y-47754555D01*
X34817634Y-47711290D01*
X34862579Y-47700500D01*
X34919747Y-47700500D01*
X34919748Y-47700500D01*
X34978231Y-47688867D01*
X35044552Y-47644552D01*
X35088867Y-47578231D01*
X35100500Y-47519748D01*
X35100500Y-46180252D01*
X35088867Y-46121769D01*
X35088863Y-46121764D01*
X35085134Y-46112757D01*
X35087630Y-46111723D01*
X35075500Y-46071732D01*
X35075500Y-45917082D01*
X35094406Y-45858893D01*
X35098521Y-45853226D01*
X35098528Y-45853220D01*
X35159719Y-45733126D01*
X35180804Y-45600000D01*
X35159719Y-45466874D01*
X35153834Y-45455325D01*
X35098529Y-45346782D01*
X35098528Y-45346780D01*
X35003220Y-45251472D01*
X34970617Y-45234860D01*
X34927142Y-45212708D01*
X34883878Y-45169443D01*
X34874307Y-45109011D01*
X34902085Y-45054495D01*
X34956602Y-45026718D01*
X34972088Y-45025499D01*
X35306520Y-45025499D01*
X35323554Y-45022800D01*
X35335013Y-45020986D01*
X35395445Y-45030557D01*
G37*
%TD.AperFunction*%
%TA.AperFunction,Conductor*%
G36*
X39056161Y-32630755D02*
G01*
X39074831Y-32645402D01*
X45270504Y-38841075D01*
X45298281Y-38895592D01*
X45299500Y-38911079D01*
X45299500Y-46045244D01*
X45280593Y-46103435D01*
X45270505Y-46115246D01*
X45251474Y-46134277D01*
X45251470Y-46134282D01*
X45190282Y-46254370D01*
X45190281Y-46254372D01*
X45169196Y-46387499D01*
X45169196Y-46387500D01*
X45190281Y-46520627D01*
X45190282Y-46520629D01*
X45251470Y-46640717D01*
X45251472Y-46640720D01*
X45346780Y-46736028D01*
X45357014Y-46741242D01*
X45400277Y-46784506D01*
X45409849Y-46844938D01*
X45382072Y-46899454D01*
X44461025Y-47820503D01*
X44406508Y-47848281D01*
X44391021Y-47849500D01*
X43929755Y-47849500D01*
X43871564Y-47830593D01*
X43859757Y-47820509D01*
X43840720Y-47801472D01*
X43840717Y-47801470D01*
X43720629Y-47740282D01*
X43720627Y-47740281D01*
X43587500Y-47719196D01*
X43454372Y-47740281D01*
X43454369Y-47740282D01*
X43448843Y-47743098D01*
X43388411Y-47752669D01*
X43333895Y-47724890D01*
X43306119Y-47670373D01*
X43304900Y-47654888D01*
X43304900Y-45738878D01*
X43323807Y-45680687D01*
X43333890Y-45668880D01*
X44178905Y-44823864D01*
X44190164Y-44815793D01*
X44189405Y-44814787D01*
X44196721Y-44809261D01*
X44196728Y-44809258D01*
X44228377Y-44774539D01*
X44231495Y-44771274D01*
X44244674Y-44758097D01*
X44244738Y-44758002D01*
X44253253Y-44747253D01*
X44267264Y-44731884D01*
X44272416Y-44726233D01*
X44275966Y-44717067D01*
X44286607Y-44696881D01*
X44292157Y-44688780D01*
X44298670Y-44661086D01*
X44302718Y-44648012D01*
X44313000Y-44621473D01*
X44313000Y-44611648D01*
X44315629Y-44588983D01*
X44317879Y-44579419D01*
X44313949Y-44551244D01*
X44313000Y-44537568D01*
X44313000Y-42501771D01*
X44315231Y-42488094D01*
X44314006Y-42487924D01*
X44315274Y-42478833D01*
X44313106Y-42431946D01*
X44313000Y-42427373D01*
X44313000Y-42408760D01*
X44313000Y-42408756D01*
X44312978Y-42408640D01*
X44311399Y-42395037D01*
X44310085Y-42366609D01*
X44306115Y-42357619D01*
X44299365Y-42335820D01*
X44297561Y-42326167D01*
X44282587Y-42301983D01*
X44276192Y-42289850D01*
X44264707Y-42263836D01*
X44257757Y-42256886D01*
X44243588Y-42238996D01*
X44238420Y-42230649D01*
X44238419Y-42230648D01*
X44215721Y-42213507D01*
X44205379Y-42204508D01*
X39483765Y-37482894D01*
X39475679Y-37471644D01*
X39474687Y-37472394D01*
X39469158Y-37465072D01*
X39434472Y-37433451D01*
X39431168Y-37430296D01*
X39418000Y-37417128D01*
X39417996Y-37417125D01*
X39417893Y-37417055D01*
X39407162Y-37408555D01*
X39386133Y-37389384D01*
X39376962Y-37385831D01*
X39356786Y-37375195D01*
X39348684Y-37369645D01*
X39348679Y-37369643D01*
X39320997Y-37363132D01*
X39307903Y-37359077D01*
X39281377Y-37348800D01*
X39281373Y-37348800D01*
X39271548Y-37348800D01*
X39248883Y-37346170D01*
X39239319Y-37343921D01*
X39239318Y-37343921D01*
X39211146Y-37347851D01*
X39197469Y-37348800D01*
X38118309Y-37348800D01*
X38060118Y-37329893D01*
X38024154Y-37280393D01*
X38024154Y-37219207D01*
X38028256Y-37208673D01*
X38051797Y-37157125D01*
X38070233Y-37028902D01*
X38070233Y-37028897D01*
X38051797Y-36900674D01*
X38045110Y-36886031D01*
X37997982Y-36782837D01*
X37913149Y-36684933D01*
X37838378Y-36636881D01*
X37803376Y-36614386D01*
X37764645Y-36567020D01*
X37757900Y-36531102D01*
X37757900Y-35882893D01*
X37776807Y-35824702D01*
X37826307Y-35788738D01*
X37884791Y-35787904D01*
X37899822Y-35792317D01*
X37917121Y-35797397D01*
X37917124Y-35797397D01*
X37917126Y-35797398D01*
X37917128Y-35797398D01*
X38046668Y-35797398D01*
X38046670Y-35797398D01*
X38170967Y-35760902D01*
X38279947Y-35690865D01*
X38364780Y-35592961D01*
X38418595Y-35475124D01*
X38437031Y-35346898D01*
X38433312Y-35321033D01*
X38418595Y-35218672D01*
X38411433Y-35202989D01*
X38364780Y-35100835D01*
X38279947Y-35002931D01*
X38279946Y-35002930D01*
X38279945Y-35002929D01*
X38170971Y-34932896D01*
X38170968Y-34932894D01*
X38170967Y-34932894D01*
X38166281Y-34931518D01*
X38046672Y-34896398D01*
X38046670Y-34896398D01*
X37917126Y-34896398D01*
X37917123Y-34896398D01*
X37884791Y-34905892D01*
X37823630Y-34904144D01*
X37775178Y-34866781D01*
X37757900Y-34810902D01*
X37757900Y-34408726D01*
X37776807Y-34350535D01*
X37826307Y-34314571D01*
X37887493Y-34314571D01*
X37936993Y-34350535D01*
X37944560Y-34362719D01*
X37963163Y-34398164D01*
X37963163Y-34398165D01*
X38075209Y-34524638D01*
X38090430Y-34535144D01*
X38214271Y-34620625D01*
X38372261Y-34680543D01*
X38497915Y-34695800D01*
X38497920Y-34695800D01*
X38582080Y-34695800D01*
X38582085Y-34695800D01*
X38707739Y-34680543D01*
X38865729Y-34620625D01*
X39004789Y-34524639D01*
X39004790Y-34524638D01*
X39116836Y-34398165D01*
X39116836Y-34398164D01*
X39116835Y-34398164D01*
X39116838Y-34398162D01*
X39195362Y-34248546D01*
X39235800Y-34084485D01*
X39235800Y-33915515D01*
X39195362Y-33751454D01*
X39116838Y-33601838D01*
X39116836Y-33601836D01*
X39116836Y-33601835D01*
X39116836Y-33601834D01*
X39004790Y-33475361D01*
X38865729Y-33379375D01*
X38707739Y-33319457D01*
X38707737Y-33319456D01*
X38707736Y-33319456D01*
X38582096Y-33304201D01*
X38582090Y-33304200D01*
X38582085Y-33304200D01*
X38573778Y-33304200D01*
X38515587Y-33285293D01*
X38479623Y-33235793D01*
X38479623Y-33174607D01*
X38503774Y-33135197D01*
X38790302Y-32848668D01*
X38801565Y-32840593D01*
X38800805Y-32839587D01*
X38808121Y-32834061D01*
X38808128Y-32834058D01*
X38839777Y-32799339D01*
X38842895Y-32796074D01*
X38856074Y-32782897D01*
X38856138Y-32782802D01*
X38864653Y-32772053D01*
X38883816Y-32751033D01*
X38887365Y-32741870D01*
X38898006Y-32721682D01*
X38903556Y-32713581D01*
X38908457Y-32692740D01*
X38940182Y-32640426D01*
X38996600Y-32616748D01*
X39056161Y-32630755D01*
G37*
%TD.AperFunction*%
%TA.AperFunction,Conductor*%
G36*
X15555704Y-43184175D02*
G01*
X16988503Y-44616974D01*
X17016280Y-44671491D01*
X17016491Y-44672889D01*
X17035302Y-44803725D01*
X17078222Y-44897704D01*
X17089118Y-44921563D01*
X17168543Y-45013226D01*
X17173952Y-45019468D01*
X17282926Y-45089501D01*
X17282931Y-45089504D01*
X17407228Y-45126000D01*
X17407230Y-45126000D01*
X17536770Y-45126000D01*
X17536772Y-45126000D01*
X17661069Y-45089504D01*
X17770049Y-45019467D01*
X17854882Y-44921563D01*
X17908697Y-44803726D01*
X17911131Y-44786791D01*
X17938126Y-44731884D01*
X17992239Y-44703330D01*
X18052802Y-44712035D01*
X18079124Y-44730872D01*
X18096780Y-44748528D01*
X18139683Y-44770388D01*
X18182945Y-44813651D01*
X18192517Y-44874083D01*
X18184790Y-44899721D01*
X18163302Y-44946773D01*
X18144867Y-45074996D01*
X18144867Y-45075001D01*
X18163302Y-45203224D01*
X18211290Y-45308301D01*
X18217118Y-45321062D01*
X18278096Y-45391435D01*
X18301952Y-45418967D01*
X18410926Y-45489000D01*
X18410931Y-45489003D01*
X18535228Y-45525499D01*
X18535230Y-45525499D01*
X18664770Y-45525499D01*
X18664772Y-45525499D01*
X18686493Y-45519121D01*
X18747653Y-45520867D01*
X18796107Y-45558228D01*
X18813346Y-45616935D01*
X18812378Y-45628198D01*
X18794867Y-45749995D01*
X18794867Y-45750002D01*
X18814310Y-45885235D01*
X18811283Y-45885670D01*
X18809898Y-45933791D01*
X18772523Y-45982235D01*
X18716663Y-45999500D01*
X18580248Y-45999500D01*
X18519314Y-46011621D01*
X18480686Y-46011621D01*
X18419751Y-45999500D01*
X18419748Y-45999500D01*
X18080252Y-45999500D01*
X18080248Y-45999500D01*
X18019314Y-46011621D01*
X17980686Y-46011621D01*
X17919751Y-45999500D01*
X17919748Y-45999500D01*
X17580252Y-45999500D01*
X17580248Y-45999500D01*
X17519314Y-46011621D01*
X17480686Y-46011621D01*
X17419751Y-45999500D01*
X17419748Y-45999500D01*
X17080252Y-45999500D01*
X17080248Y-45999500D01*
X17019314Y-46011621D01*
X16980686Y-46011621D01*
X16919751Y-45999500D01*
X16919748Y-45999500D01*
X16580252Y-45999500D01*
X16580251Y-45999500D01*
X16580241Y-45999501D01*
X16521772Y-46011132D01*
X16521766Y-46011134D01*
X16455451Y-46055445D01*
X16455445Y-46055451D01*
X16411134Y-46121766D01*
X16411132Y-46121772D01*
X16399501Y-46180241D01*
X16399500Y-46180253D01*
X16399500Y-47400000D01*
X16380593Y-47458191D01*
X16331093Y-47494155D01*
X16300500Y-47499000D01*
X16050079Y-47499000D01*
X15991888Y-47480093D01*
X15980075Y-47470004D01*
X15415696Y-46905625D01*
X15387919Y-46851108D01*
X15386700Y-46835621D01*
X15386700Y-43254179D01*
X15405607Y-43195988D01*
X15455107Y-43160024D01*
X15516293Y-43160024D01*
X15555704Y-43184175D01*
G37*
%TD.AperFunction*%
%TA.AperFunction,Conductor*%
G36*
X41283726Y-40138221D02*
G01*
X41305734Y-40154805D01*
X43683004Y-42532075D01*
X43710781Y-42586592D01*
X43712000Y-42602079D01*
X43712000Y-43740500D01*
X43693093Y-43798691D01*
X43643593Y-43834655D01*
X43613000Y-43839500D01*
X43395480Y-43839500D01*
X43337289Y-43820593D01*
X43325476Y-43810504D01*
X41039496Y-41524524D01*
X41011719Y-41470007D01*
X41010500Y-41454520D01*
X41010500Y-41134976D01*
X41029407Y-41076785D01*
X41039496Y-41064972D01*
X41040402Y-41064065D01*
X41040404Y-41064065D01*
X41124065Y-40980404D01*
X41174068Y-40873173D01*
X41180500Y-40824316D01*
X41180500Y-40375684D01*
X41174068Y-40326827D01*
X41146005Y-40266648D01*
X41138549Y-40205919D01*
X41168212Y-40152405D01*
X41223665Y-40126547D01*
X41283726Y-40138221D01*
G37*
%TD.AperFunction*%
%TA.AperFunction,Conductor*%
G36*
X20494093Y-40755056D02*
G01*
X20512894Y-40808677D01*
X20513814Y-40828587D01*
X20513815Y-40828594D01*
X20517784Y-40837582D01*
X20524532Y-40859372D01*
X20526339Y-40869033D01*
X20532109Y-40878352D01*
X20541312Y-40893217D01*
X20547701Y-40905338D01*
X20559194Y-40931365D01*
X20566145Y-40938316D01*
X20580307Y-40956196D01*
X20585481Y-40964552D01*
X20608181Y-40981694D01*
X20618517Y-40990688D01*
X20920504Y-41292675D01*
X20948281Y-41347192D01*
X20949500Y-41362679D01*
X20949500Y-43304990D01*
X20930593Y-43363181D01*
X20881093Y-43399145D01*
X20837580Y-43403143D01*
X20809907Y-43399500D01*
X20414000Y-43399500D01*
X20355809Y-43380593D01*
X20319845Y-43331093D01*
X20315000Y-43300500D01*
X20315000Y-40813247D01*
X20333907Y-40755056D01*
X20383407Y-40719092D01*
X20444593Y-40719092D01*
X20494093Y-40755056D01*
G37*
%TD.AperFunction*%
%TA.AperFunction,Conductor*%
G36*
X37067517Y-13736519D02*
G01*
X37089724Y-13767084D01*
X37095935Y-13780404D01*
X37179596Y-13864065D01*
X37242241Y-13893277D01*
X37286987Y-13935003D01*
X37299400Y-13983000D01*
X37299400Y-18560935D01*
X37297180Y-18574613D01*
X37298394Y-18574783D01*
X37297126Y-18583866D01*
X37299294Y-18630741D01*
X37299400Y-18635313D01*
X37299400Y-18653944D01*
X37299422Y-18654066D01*
X37301001Y-18667677D01*
X37302314Y-18696087D01*
X37302315Y-18696094D01*
X37306284Y-18705082D01*
X37313032Y-18726872D01*
X37314839Y-18736533D01*
X37323709Y-18750860D01*
X37329812Y-18760717D01*
X37336201Y-18772838D01*
X37347694Y-18798865D01*
X37354645Y-18805816D01*
X37368807Y-18823696D01*
X37373981Y-18832052D01*
X37396681Y-18849194D01*
X37407017Y-18858188D01*
X37769804Y-19220975D01*
X37797581Y-19275492D01*
X37798800Y-19290979D01*
X37798800Y-21463998D01*
X37779893Y-21522189D01*
X37730393Y-21558153D01*
X37671910Y-21558988D01*
X37638577Y-21549201D01*
X37638573Y-21549200D01*
X37638572Y-21549200D01*
X37509028Y-21549200D01*
X37509025Y-21549200D01*
X37384733Y-21585695D01*
X37384726Y-21585698D01*
X37275752Y-21655731D01*
X37190917Y-21753638D01*
X37137102Y-21871474D01*
X37118667Y-21999697D01*
X37118667Y-21999702D01*
X37137102Y-22127925D01*
X37190917Y-22245761D01*
X37190918Y-22245763D01*
X37259720Y-22325166D01*
X37283537Y-22381525D01*
X37283900Y-22389996D01*
X37283900Y-24135168D01*
X37264993Y-24193359D01*
X37215493Y-24229323D01*
X37157013Y-24230159D01*
X37147278Y-24227301D01*
X37147273Y-24227300D01*
X37147272Y-24227300D01*
X37017728Y-24227300D01*
X37017726Y-24227300D01*
X37017721Y-24227301D01*
X37007987Y-24230159D01*
X36946826Y-24228409D01*
X36898375Y-24191044D01*
X36881100Y-24135168D01*
X36881100Y-21685350D01*
X36900007Y-21627159D01*
X36931586Y-21601337D01*
X36930812Y-21600132D01*
X36953277Y-21585695D01*
X37045749Y-21526267D01*
X37130582Y-21428363D01*
X37184397Y-21310526D01*
X37202833Y-21182300D01*
X37202775Y-21181898D01*
X37184397Y-21054074D01*
X37130582Y-20936238D01*
X37130582Y-20936237D01*
X37045749Y-20838333D01*
X37045748Y-20838332D01*
X37045747Y-20838331D01*
X36936773Y-20768298D01*
X36936770Y-20768296D01*
X36936769Y-20768296D01*
X36927175Y-20765479D01*
X36812474Y-20731800D01*
X36812472Y-20731800D01*
X36682928Y-20731800D01*
X36682925Y-20731800D01*
X36558633Y-20768295D01*
X36558626Y-20768298D01*
X36449652Y-20838331D01*
X36364817Y-20936238D01*
X36311002Y-21054074D01*
X36292567Y-21182297D01*
X36292567Y-21182303D01*
X36296972Y-21212943D01*
X36295352Y-21249692D01*
X36294434Y-21253596D01*
X36290377Y-21266697D01*
X36280101Y-21293223D01*
X36280100Y-21293229D01*
X36280100Y-21303051D01*
X36277470Y-21325718D01*
X36275221Y-21335279D01*
X36279151Y-21363453D01*
X36280100Y-21377130D01*
X36280100Y-37425435D01*
X36277880Y-37439113D01*
X36279094Y-37439283D01*
X36277826Y-37448366D01*
X36279994Y-37495241D01*
X36280100Y-37499813D01*
X36280100Y-37518444D01*
X36280122Y-37518566D01*
X36281701Y-37532177D01*
X36283014Y-37560587D01*
X36283015Y-37560594D01*
X36286984Y-37569582D01*
X36293732Y-37591372D01*
X36295539Y-37601033D01*
X36299611Y-37607609D01*
X36310512Y-37625217D01*
X36316901Y-37637338D01*
X36319844Y-37644003D01*
X36328394Y-37663365D01*
X36335345Y-37670316D01*
X36349507Y-37688196D01*
X36354681Y-37696552D01*
X36377381Y-37713694D01*
X36387717Y-37722688D01*
X39190504Y-40525475D01*
X39218281Y-40579992D01*
X39219500Y-40595479D01*
X39219500Y-40824316D01*
X39222409Y-40846415D01*
X39225932Y-40873174D01*
X39225932Y-40873175D01*
X39275933Y-40980401D01*
X39275934Y-40980402D01*
X39275935Y-40980404D01*
X39359596Y-41064065D01*
X39359597Y-41064065D01*
X39359598Y-41064066D01*
X39466824Y-41114067D01*
X39466825Y-41114067D01*
X39466827Y-41114068D01*
X39515684Y-41120500D01*
X39515685Y-41120500D01*
X39864314Y-41120500D01*
X39864316Y-41120500D01*
X39913173Y-41114068D01*
X40020404Y-41064065D01*
X40104065Y-40980404D01*
X40110275Y-40967085D01*
X40152003Y-40922337D01*
X40212064Y-40910662D01*
X40267517Y-40936519D01*
X40289724Y-40967084D01*
X40295935Y-40980404D01*
X40379596Y-41064065D01*
X40379597Y-41064065D01*
X40380504Y-41064972D01*
X40408281Y-41119489D01*
X40409500Y-41134976D01*
X40409500Y-41262809D01*
X40390593Y-41321000D01*
X40362618Y-41346980D01*
X40357886Y-41349910D01*
X40345759Y-41356302D01*
X40319738Y-41367792D01*
X40319731Y-41367796D01*
X40312786Y-41374742D01*
X40294906Y-41388905D01*
X40286548Y-41394080D01*
X40269407Y-41416778D01*
X40260409Y-41427117D01*
X39367025Y-42320503D01*
X39312508Y-42348281D01*
X39297021Y-42349500D01*
X38641740Y-42349500D01*
X38607673Y-42354463D01*
X38573604Y-42359427D01*
X38468518Y-42410801D01*
X38385801Y-42493518D01*
X38334427Y-42598604D01*
X38334427Y-42598607D01*
X38324500Y-42666740D01*
X38324500Y-43033260D01*
X38326277Y-43045455D01*
X38334427Y-43101395D01*
X38385801Y-43206481D01*
X38385802Y-43206483D01*
X38409817Y-43230498D01*
X38437593Y-43285013D01*
X38428022Y-43345445D01*
X38384757Y-43388710D01*
X38339812Y-43399500D01*
X37931901Y-43399500D01*
X37873710Y-43380593D01*
X37861897Y-43370504D01*
X37404495Y-42913102D01*
X37376718Y-42858585D01*
X37375499Y-42843098D01*
X37375499Y-42543478D01*
X37375498Y-42543476D01*
X37360647Y-42449700D01*
X37360646Y-42449698D01*
X37360646Y-42449696D01*
X37303050Y-42336658D01*
X37213342Y-42246950D01*
X37100304Y-42189354D01*
X37100305Y-42189354D01*
X37006522Y-42174500D01*
X36393479Y-42174500D01*
X36393476Y-42174501D01*
X36299700Y-42189352D01*
X36299695Y-42189354D01*
X36186659Y-42246949D01*
X36186658Y-42246949D01*
X36186658Y-42246950D01*
X36096950Y-42336658D01*
X36096949Y-42336659D01*
X36091441Y-42342168D01*
X36089757Y-42340484D01*
X36049601Y-42369656D01*
X36019013Y-42374500D01*
X35680987Y-42374500D01*
X35622796Y-42355593D01*
X35608964Y-42341762D01*
X35608559Y-42342168D01*
X35603051Y-42336660D01*
X35603050Y-42336658D01*
X35513342Y-42246950D01*
X35400304Y-42189354D01*
X35400305Y-42189354D01*
X35306522Y-42174500D01*
X34693479Y-42174500D01*
X34693476Y-42174501D01*
X34599700Y-42189352D01*
X34599695Y-42189354D01*
X34486659Y-42246949D01*
X34486658Y-42246949D01*
X34486658Y-42246950D01*
X34396950Y-42336658D01*
X34396949Y-42336659D01*
X34391441Y-42342168D01*
X34389757Y-42340484D01*
X34349601Y-42369656D01*
X34319013Y-42374500D01*
X33980986Y-42374500D01*
X33922795Y-42355593D01*
X33908963Y-42341762D01*
X33908558Y-42342168D01*
X33903050Y-42336660D01*
X33903049Y-42336658D01*
X33813341Y-42246950D01*
X33700303Y-42189354D01*
X33700304Y-42189354D01*
X33606521Y-42174500D01*
X32993478Y-42174500D01*
X32993475Y-42174501D01*
X32899699Y-42189352D01*
X32899694Y-42189354D01*
X32786658Y-42246949D01*
X32786657Y-42246949D01*
X32786657Y-42246950D01*
X32696949Y-42336658D01*
X32696948Y-42336659D01*
X32691440Y-42342168D01*
X32689756Y-42340484D01*
X32649600Y-42369656D01*
X32619012Y-42374500D01*
X32280987Y-42374500D01*
X32222796Y-42355593D01*
X32208964Y-42341762D01*
X32208559Y-42342168D01*
X32203051Y-42336660D01*
X32203050Y-42336658D01*
X32113342Y-42246950D01*
X32000304Y-42189354D01*
X32000305Y-42189354D01*
X31906522Y-42174500D01*
X31293479Y-42174500D01*
X31293475Y-42174501D01*
X31249585Y-42181452D01*
X31189153Y-42171880D01*
X31145889Y-42128614D01*
X31135100Y-42083671D01*
X31135100Y-38791177D01*
X31154007Y-38732986D01*
X31164091Y-38721179D01*
X31301903Y-38583366D01*
X31313164Y-38575293D01*
X31312405Y-38574287D01*
X31319721Y-38568761D01*
X31319728Y-38568758D01*
X31351377Y-38534039D01*
X31354495Y-38530774D01*
X31367674Y-38517597D01*
X31367738Y-38517502D01*
X31376253Y-38506753D01*
X31380377Y-38502229D01*
X31395416Y-38485733D01*
X31398964Y-38476571D01*
X31409611Y-38456376D01*
X31415157Y-38448281D01*
X31421671Y-38420582D01*
X31425722Y-38407501D01*
X31436000Y-38380973D01*
X31436000Y-38371148D01*
X31438630Y-38348479D01*
X31440879Y-38338919D01*
X31436949Y-38310744D01*
X31436000Y-38297068D01*
X31436000Y-37493679D01*
X31454907Y-37435488D01*
X31504407Y-37399524D01*
X31565593Y-37399524D01*
X31605004Y-37423675D01*
X31855304Y-37673975D01*
X31883081Y-37728492D01*
X31884300Y-37743979D01*
X31884300Y-40639437D01*
X31865393Y-40697628D01*
X31860120Y-40704267D01*
X31801918Y-40771436D01*
X31801916Y-40771440D01*
X31748102Y-40889274D01*
X31729667Y-41017497D01*
X31729667Y-41017502D01*
X31748102Y-41145725D01*
X31793759Y-41245697D01*
X31801918Y-41263563D01*
X31871024Y-41343317D01*
X31886752Y-41361468D01*
X31990630Y-41428226D01*
X31995731Y-41431504D01*
X32120028Y-41468000D01*
X32120030Y-41468000D01*
X32249570Y-41468000D01*
X32249572Y-41468000D01*
X32373869Y-41431504D01*
X32482849Y-41361467D01*
X32567682Y-41263563D01*
X32621497Y-41145726D01*
X32631676Y-41074927D01*
X32639933Y-41017502D01*
X32639933Y-41017497D01*
X32621497Y-40889274D01*
X32610445Y-40865074D01*
X32567682Y-40771437D01*
X32509479Y-40704266D01*
X32485663Y-40647908D01*
X32485300Y-40639437D01*
X32485300Y-37643668D01*
X32487531Y-37629995D01*
X32486305Y-37629824D01*
X32487573Y-37620732D01*
X32485406Y-37573857D01*
X32485300Y-37569285D01*
X32485300Y-37550660D01*
X32485300Y-37550656D01*
X32485278Y-37550542D01*
X32483698Y-37536930D01*
X32482385Y-37508508D01*
X32478415Y-37499517D01*
X32471664Y-37477715D01*
X32471355Y-37476063D01*
X32469861Y-37468067D01*
X32454885Y-37443879D01*
X32448498Y-37431762D01*
X32437006Y-37405735D01*
X32437005Y-37405733D01*
X32430056Y-37398784D01*
X32415890Y-37380899D01*
X32410719Y-37372548D01*
X32388021Y-37355407D01*
X32377679Y-37346408D01*
X32264152Y-37232881D01*
X32236375Y-37178364D01*
X32245946Y-37117932D01*
X32280630Y-37079595D01*
X32343849Y-37038967D01*
X32428682Y-36941063D01*
X32482497Y-36823226D01*
X32489923Y-36771574D01*
X32500933Y-36695002D01*
X32500933Y-36694997D01*
X32482497Y-36566774D01*
X32437202Y-36467593D01*
X32430227Y-36406806D01*
X32460313Y-36353529D01*
X32515969Y-36328111D01*
X32575936Y-36340262D01*
X32597259Y-36356462D01*
X34083004Y-37842207D01*
X34110781Y-37896724D01*
X34112000Y-37912211D01*
X34112000Y-40980036D01*
X34111378Y-40991119D01*
X34107230Y-41027933D01*
X34107230Y-41027938D01*
X34117944Y-41084564D01*
X34118564Y-41088212D01*
X34127152Y-41145187D01*
X34129340Y-41152281D01*
X34128917Y-41152411D01*
X34129609Y-41154513D01*
X34130026Y-41154368D01*
X34132475Y-41161368D01*
X34159406Y-41212324D01*
X34161074Y-41215628D01*
X34186074Y-41267541D01*
X34190253Y-41273670D01*
X34189889Y-41273917D01*
X34191177Y-41275731D01*
X34191530Y-41275471D01*
X34195934Y-41281438D01*
X34236698Y-41322203D01*
X34239242Y-41324843D01*
X34277589Y-41366171D01*
X34278448Y-41367097D01*
X34284243Y-41371718D01*
X34283967Y-41372063D01*
X34295094Y-41380598D01*
X34444572Y-41530075D01*
X34449374Y-41535234D01*
X34478948Y-41569364D01*
X34478951Y-41569367D01*
X34518540Y-41594809D01*
X34523778Y-41598421D01*
X34564114Y-41628191D01*
X34564116Y-41628191D01*
X34564118Y-41628193D01*
X34567075Y-41629227D01*
X34587924Y-41639399D01*
X34587931Y-41639404D01*
X34636684Y-41653718D01*
X34641416Y-41655240D01*
X34692301Y-41673046D01*
X34692304Y-41673046D01*
X34695440Y-41673640D01*
X34705170Y-41675225D01*
X34705219Y-41674892D01*
X34712228Y-41675900D01*
X34766700Y-41675900D01*
X34770402Y-41675969D01*
X34771768Y-41676020D01*
X34828010Y-41678125D01*
X34828016Y-41678123D01*
X34830541Y-41677839D01*
X34835837Y-41676753D01*
X34841767Y-41675900D01*
X34841772Y-41675900D01*
X34897655Y-41659491D01*
X34899819Y-41658883D01*
X34959187Y-41642976D01*
X34959194Y-41642971D01*
X34961859Y-41641809D01*
X34964764Y-41640242D01*
X34966067Y-41639404D01*
X34966069Y-41639404D01*
X35018319Y-41605824D01*
X35018915Y-41605444D01*
X35074175Y-41570724D01*
X35117879Y-41519936D01*
X35117992Y-41519807D01*
X35144394Y-41489335D01*
X35159882Y-41471463D01*
X35159882Y-41471461D01*
X35161942Y-41469085D01*
X35162753Y-41467793D01*
X35162758Y-41467788D01*
X35188052Y-41409810D01*
X35188721Y-41408312D01*
X35213697Y-41353626D01*
X35213698Y-41353613D01*
X35214259Y-41351708D01*
X35216380Y-41345871D01*
X35217063Y-41343320D01*
X35217065Y-41343316D01*
X35223729Y-41284154D01*
X35224104Y-41281236D01*
X35232133Y-41225400D01*
X35232133Y-41225397D01*
X35232133Y-41218314D01*
X35232750Y-41218314D01*
X35232710Y-41215771D01*
X35232547Y-41215778D01*
X35232270Y-41208363D01*
X35221903Y-41153572D01*
X35221189Y-41149285D01*
X35213697Y-41097174D01*
X35213695Y-41097171D01*
X35211702Y-41090380D01*
X35211770Y-41090359D01*
X35207256Y-41076157D01*
X35207024Y-41074929D01*
X35182708Y-41028922D01*
X35180185Y-41023794D01*
X35159882Y-40979337D01*
X35158631Y-40977893D01*
X35145922Y-40959320D01*
X35143566Y-40954862D01*
X35127016Y-40938312D01*
X35109428Y-40920723D01*
X35104613Y-40915551D01*
X35075050Y-40881434D01*
X35075051Y-40881434D01*
X35070255Y-40878352D01*
X35053778Y-40865074D01*
X35041996Y-40853292D01*
X35014219Y-40798775D01*
X35013000Y-40783288D01*
X35013000Y-38443434D01*
X35031907Y-38385243D01*
X35081407Y-38349279D01*
X35139889Y-38348444D01*
X35203428Y-38367100D01*
X35203430Y-38367100D01*
X35332970Y-38367100D01*
X35332972Y-38367100D01*
X35457269Y-38330604D01*
X35566249Y-38260567D01*
X35651082Y-38162663D01*
X35704897Y-38044826D01*
X35723333Y-37916600D01*
X35720475Y-37896724D01*
X35704897Y-37788374D01*
X35674798Y-37722468D01*
X35651082Y-37670537D01*
X35592879Y-37603366D01*
X35569063Y-37547008D01*
X35568700Y-37538537D01*
X35568700Y-27168063D01*
X35587607Y-27109872D01*
X35592880Y-27103232D01*
X35651082Y-27036063D01*
X35704897Y-26918226D01*
X35723333Y-26790000D01*
X35722150Y-26781774D01*
X35704897Y-26661774D01*
X35651082Y-26543938D01*
X35651082Y-26543937D01*
X35566249Y-26446033D01*
X35566248Y-26446032D01*
X35566247Y-26446031D01*
X35457273Y-26375998D01*
X35457270Y-26375996D01*
X35457269Y-26375996D01*
X35457266Y-26375995D01*
X35332974Y-26339500D01*
X35332972Y-26339500D01*
X35203428Y-26339500D01*
X35203425Y-26339500D01*
X35079133Y-26375995D01*
X35079126Y-26375998D01*
X34970152Y-26446031D01*
X34885317Y-26543938D01*
X34831502Y-26661774D01*
X34813067Y-26789997D01*
X34813067Y-26790002D01*
X34831502Y-26918225D01*
X34885317Y-27036061D01*
X34885318Y-27036063D01*
X34943520Y-27103232D01*
X34967337Y-27159592D01*
X34967700Y-27168063D01*
X34967700Y-37213689D01*
X34948793Y-37271880D01*
X34899293Y-37307844D01*
X34838107Y-37307844D01*
X34798696Y-37283693D01*
X33395807Y-35880804D01*
X33368030Y-35826287D01*
X33377601Y-35765855D01*
X33420866Y-35722590D01*
X33465811Y-35711800D01*
X33502080Y-35711800D01*
X33502085Y-35711800D01*
X33627739Y-35696543D01*
X33785729Y-35636625D01*
X33924789Y-35540639D01*
X33924790Y-35540638D01*
X34036836Y-35414165D01*
X34036836Y-35414164D01*
X34036835Y-35414164D01*
X34036838Y-35414162D01*
X34115362Y-35264546D01*
X34155800Y-35100485D01*
X34155800Y-34931515D01*
X34115362Y-34767454D01*
X34036838Y-34617838D01*
X34036836Y-34617836D01*
X34036836Y-34617835D01*
X34036836Y-34617834D01*
X33924790Y-34491361D01*
X33785729Y-34395375D01*
X33703828Y-34364314D01*
X33627739Y-34335457D01*
X33627737Y-34335456D01*
X33627736Y-34335456D01*
X33502096Y-34320201D01*
X33502090Y-34320200D01*
X33502085Y-34320200D01*
X33417915Y-34320200D01*
X33417910Y-34320200D01*
X33417903Y-34320201D01*
X33292263Y-34335456D01*
X33292261Y-34335457D01*
X33134270Y-34395375D01*
X32995211Y-34491360D01*
X32983902Y-34504126D01*
X32931161Y-34535144D01*
X32870261Y-34529238D01*
X32824464Y-34488664D01*
X32810800Y-34438476D01*
X32810800Y-33561523D01*
X32829707Y-33503332D01*
X32879207Y-33467368D01*
X32940393Y-33467368D01*
X32983903Y-33495875D01*
X32995211Y-33508639D01*
X33134271Y-33604625D01*
X33292261Y-33664543D01*
X33417915Y-33679800D01*
X33417920Y-33679800D01*
X33502080Y-33679800D01*
X33502085Y-33679800D01*
X33627739Y-33664543D01*
X33785729Y-33604625D01*
X33924789Y-33508639D01*
X33924790Y-33508638D01*
X34036836Y-33382165D01*
X34036836Y-33382164D01*
X34036835Y-33382164D01*
X34036838Y-33382162D01*
X34115362Y-33232546D01*
X34155800Y-33068485D01*
X34155800Y-32899515D01*
X34115362Y-32735454D01*
X34036838Y-32585838D01*
X34036836Y-32585836D01*
X34036836Y-32585835D01*
X34036836Y-32585834D01*
X33924790Y-32459361D01*
X33785729Y-32363375D01*
X33768656Y-32356900D01*
X33627739Y-32303457D01*
X33627737Y-32303456D01*
X33627736Y-32303456D01*
X33502096Y-32288201D01*
X33502090Y-32288200D01*
X33502085Y-32288200D01*
X33417915Y-32288200D01*
X33417910Y-32288200D01*
X33417903Y-32288201D01*
X33292263Y-32303456D01*
X33292261Y-32303457D01*
X33134270Y-32363375D01*
X32995211Y-32459360D01*
X32983902Y-32472126D01*
X32931161Y-32503144D01*
X32870261Y-32497238D01*
X32824464Y-32456664D01*
X32810800Y-32406476D01*
X32810800Y-24374762D01*
X32811422Y-24363679D01*
X32811612Y-24361992D01*
X32815570Y-24326865D01*
X32808949Y-24291875D01*
X32804853Y-24270226D01*
X32804233Y-24266575D01*
X32799996Y-24238461D01*
X32795648Y-24209613D01*
X32795646Y-24209609D01*
X32793460Y-24202522D01*
X32793882Y-24202391D01*
X32793190Y-24200288D01*
X32792774Y-24200434D01*
X32790323Y-24193428D01*
X32763381Y-24142454D01*
X32761725Y-24139174D01*
X32736725Y-24087258D01*
X32736724Y-24087257D01*
X32736724Y-24087256D01*
X32732544Y-24081125D01*
X32732907Y-24080877D01*
X32731624Y-24079069D01*
X32731270Y-24079331D01*
X32726865Y-24073361D01*
X32686111Y-24032607D01*
X32683542Y-24029940D01*
X32644356Y-23987706D01*
X32638558Y-23983083D01*
X32638832Y-23982739D01*
X32627697Y-23974194D01*
X32167596Y-23514093D01*
X32139819Y-23459576D01*
X32138600Y-23444089D01*
X32138600Y-21737010D01*
X32157507Y-21678819D01*
X32167590Y-21667012D01*
X35188443Y-18646158D01*
X35196703Y-18638778D01*
X35225670Y-18615679D01*
X35258157Y-18568027D01*
X35260259Y-18565066D01*
X35294493Y-18518682D01*
X35294495Y-18518676D01*
X35297963Y-18512116D01*
X35298355Y-18512323D01*
X35299351Y-18510350D01*
X35298952Y-18510158D01*
X35302172Y-18503472D01*
X35319177Y-18448338D01*
X35320295Y-18444938D01*
X35339346Y-18390499D01*
X35339346Y-18390496D01*
X35339347Y-18390494D01*
X35340726Y-18383207D01*
X35341160Y-18383289D01*
X35341531Y-18381107D01*
X35341094Y-18381042D01*
X35342200Y-18373704D01*
X35342200Y-18316100D01*
X35342269Y-18312398D01*
X35342318Y-18311080D01*
X35344425Y-18254790D01*
X35344423Y-18254784D01*
X35343594Y-18247416D01*
X35344031Y-18247366D01*
X35342200Y-18233452D01*
X35342200Y-14295745D01*
X35361107Y-14237554D01*
X35410607Y-14201590D01*
X35471793Y-14201590D01*
X35516020Y-14230915D01*
X35518918Y-14234260D01*
X35518919Y-14234261D01*
X35561693Y-14283626D01*
X35603751Y-14332164D01*
X35603752Y-14332165D01*
X35703409Y-14396211D01*
X35712732Y-14402202D01*
X35837029Y-14438698D01*
X35837031Y-14438698D01*
X35966571Y-14438698D01*
X35966573Y-14438698D01*
X36090870Y-14402202D01*
X36199850Y-14332165D01*
X36284683Y-14234261D01*
X36338498Y-14116424D01*
X36351372Y-14026876D01*
X36378365Y-13971973D01*
X36379318Y-13971006D01*
X36388929Y-13961395D01*
X36400833Y-13949493D01*
X36455351Y-13921718D01*
X36470833Y-13920500D01*
X36664314Y-13920500D01*
X36664316Y-13920500D01*
X36713173Y-13914068D01*
X36820404Y-13864065D01*
X36904065Y-13780404D01*
X36910275Y-13767085D01*
X36952003Y-13722337D01*
X37012064Y-13710662D01*
X37067517Y-13736519D01*
G37*
%TD.AperFunction*%
%TA.AperFunction,Conductor*%
G36*
X31399274Y-24022752D02*
G01*
X31404045Y-24027895D01*
X31409843Y-24032518D01*
X31409567Y-24032863D01*
X31420700Y-24041404D01*
X31880804Y-24501508D01*
X31908581Y-24556025D01*
X31909800Y-24571512D01*
X31909800Y-31348554D01*
X31890893Y-31406745D01*
X31841393Y-31442709D01*
X31780207Y-31442709D01*
X31735983Y-31413387D01*
X31730652Y-31407236D01*
X31730648Y-31407232D01*
X31621673Y-31337198D01*
X31621670Y-31337196D01*
X31621669Y-31337196D01*
X31620249Y-31336779D01*
X31497374Y-31300700D01*
X31497372Y-31300700D01*
X31367828Y-31300700D01*
X31367826Y-31300700D01*
X31354589Y-31304587D01*
X31293428Y-31302838D01*
X31244977Y-31265474D01*
X31227700Y-31209596D01*
X31227700Y-24090087D01*
X31246607Y-24031896D01*
X31296107Y-23995932D01*
X31357293Y-23995932D01*
X31399274Y-24022752D01*
G37*
%TD.AperFunction*%
%TA.AperFunction,Conductor*%
G36*
X40594812Y-8071507D02*
G01*
X40606625Y-8081596D01*
X41145504Y-8620475D01*
X41173281Y-8674992D01*
X41174500Y-8690478D01*
X41174500Y-8852129D01*
X41174501Y-8852137D01*
X41190484Y-8932494D01*
X41190485Y-8932496D01*
X41248953Y-9019998D01*
X41265562Y-9078886D01*
X41248953Y-9130002D01*
X41190487Y-9217501D01*
X41190486Y-9217503D01*
X41190485Y-9217505D01*
X41179109Y-9274695D01*
X41174500Y-9297867D01*
X41174500Y-9502129D01*
X41174501Y-9502137D01*
X41190484Y-9582494D01*
X41190485Y-9582496D01*
X41248953Y-9669998D01*
X41265562Y-9728886D01*
X41248953Y-9780002D01*
X41190487Y-9867501D01*
X41190486Y-9867503D01*
X41190485Y-9867505D01*
X41178989Y-9925299D01*
X41174500Y-9947867D01*
X41174500Y-10152129D01*
X41174501Y-10152137D01*
X41190484Y-10232494D01*
X41190485Y-10232496D01*
X41242278Y-10310008D01*
X41251376Y-10323624D01*
X41342505Y-10384515D01*
X41422867Y-10400500D01*
X41584519Y-10400499D01*
X41642710Y-10419406D01*
X41654524Y-10429495D01*
X41700504Y-10475475D01*
X41728281Y-10529992D01*
X41729500Y-10545479D01*
X41729500Y-13118121D01*
X41710593Y-13176312D01*
X41700504Y-13188125D01*
X41318125Y-13570504D01*
X41263608Y-13598281D01*
X41248121Y-13599500D01*
X40224395Y-13599500D01*
X40166204Y-13580593D01*
X40134671Y-13542340D01*
X40124066Y-13519598D01*
X40124065Y-13519597D01*
X40124065Y-13519596D01*
X40040404Y-13435935D01*
X40040402Y-13435934D01*
X40040401Y-13435933D01*
X39933175Y-13385932D01*
X39900601Y-13381644D01*
X39884316Y-13379500D01*
X39535684Y-13379500D01*
X39519398Y-13381644D01*
X39486825Y-13385932D01*
X39486824Y-13385932D01*
X39379598Y-13435933D01*
X39295933Y-13519598D01*
X39289724Y-13532915D01*
X39247995Y-13577663D01*
X39187934Y-13589337D01*
X39132482Y-13563478D01*
X39110276Y-13532915D01*
X39104066Y-13519598D01*
X39104065Y-13519597D01*
X39104065Y-13519596D01*
X39020404Y-13435935D01*
X39020402Y-13435934D01*
X39020401Y-13435933D01*
X38913175Y-13385932D01*
X38880601Y-13381644D01*
X38864316Y-13379500D01*
X38515684Y-13379500D01*
X38499398Y-13381644D01*
X38466825Y-13385932D01*
X38466824Y-13385932D01*
X38359598Y-13435933D01*
X38275933Y-13519598D01*
X38225932Y-13626824D01*
X38225932Y-13626825D01*
X38223641Y-13644229D01*
X38219831Y-13673174D01*
X38219500Y-13675685D01*
X38219500Y-13869165D01*
X38200593Y-13927356D01*
X38190504Y-13939169D01*
X38120971Y-14008702D01*
X38066454Y-14036479D01*
X38050967Y-14037698D01*
X38037029Y-14037698D01*
X38037027Y-14037698D01*
X38037023Y-14037699D01*
X38027290Y-14040557D01*
X37966130Y-14038809D01*
X37917678Y-14001446D01*
X37900400Y-13945567D01*
X37900400Y-13845076D01*
X37919105Y-13787504D01*
X37919097Y-13787499D01*
X37919116Y-13787471D01*
X37919307Y-13786885D01*
X37920527Y-13785455D01*
X37924061Y-13780407D01*
X37924065Y-13780404D01*
X37974068Y-13673173D01*
X37980500Y-13624316D01*
X37980500Y-13395478D01*
X37999407Y-13337287D01*
X38009490Y-13325480D01*
X38728105Y-12606864D01*
X38739364Y-12598793D01*
X38738605Y-12597787D01*
X38745921Y-12592261D01*
X38745928Y-12592258D01*
X38777577Y-12557539D01*
X38780695Y-12554274D01*
X38793874Y-12541097D01*
X38793938Y-12541002D01*
X38802453Y-12530253D01*
X38821616Y-12509233D01*
X38825165Y-12500070D01*
X38835806Y-12479882D01*
X38841356Y-12471781D01*
X38847869Y-12444085D01*
X38851920Y-12431006D01*
X38860099Y-12409896D01*
X39839500Y-12409896D01*
X39839501Y-12409907D01*
X39846027Y-12459486D01*
X39846027Y-12459488D01*
X39896774Y-12568313D01*
X39896775Y-12568314D01*
X39896776Y-12568316D01*
X39981684Y-12653224D01*
X40090513Y-12703972D01*
X40140099Y-12710500D01*
X40499900Y-12710499D01*
X40549487Y-12703972D01*
X40549488Y-12703972D01*
X40625597Y-12668481D01*
X40658316Y-12653224D01*
X40743224Y-12568316D01*
X40793972Y-12459487D01*
X40800500Y-12409901D01*
X40800499Y-11990100D01*
X40793972Y-11940513D01*
X40793972Y-11940511D01*
X40743225Y-11831686D01*
X40743224Y-11831685D01*
X40743224Y-11831684D01*
X40674494Y-11762954D01*
X40646719Y-11708440D01*
X40645500Y-11692953D01*
X40645500Y-11239211D01*
X40664407Y-11181020D01*
X40669680Y-11174380D01*
X40677339Y-11165541D01*
X40702882Y-11136063D01*
X40756697Y-11018226D01*
X40766701Y-10948644D01*
X40775133Y-10890002D01*
X40775133Y-10889997D01*
X40756697Y-10761774D01*
X40702882Y-10643938D01*
X40702882Y-10643937D01*
X40618049Y-10546033D01*
X40618048Y-10546032D01*
X40618047Y-10546031D01*
X40509073Y-10475998D01*
X40509070Y-10475996D01*
X40509069Y-10475996D01*
X40483475Y-10468481D01*
X40384774Y-10439500D01*
X40384772Y-10439500D01*
X40255228Y-10439500D01*
X40255225Y-10439500D01*
X40130933Y-10475995D01*
X40130926Y-10475998D01*
X40021952Y-10546031D01*
X39937117Y-10643938D01*
X39883302Y-10761774D01*
X39864867Y-10889997D01*
X39864867Y-10890002D01*
X39883302Y-11018225D01*
X39937117Y-11136061D01*
X39937118Y-11136063D01*
X39962661Y-11165541D01*
X39970320Y-11174380D01*
X39994137Y-11230740D01*
X39994500Y-11239211D01*
X39994500Y-11692953D01*
X39975593Y-11751144D01*
X39965509Y-11762950D01*
X39917381Y-11811079D01*
X39896774Y-11831686D01*
X39846029Y-11940510D01*
X39846028Y-11940511D01*
X39839500Y-11990100D01*
X39839500Y-12409896D01*
X38860099Y-12409896D01*
X38862200Y-12404473D01*
X38862200Y-12394648D01*
X38864829Y-12371983D01*
X38867079Y-12362419D01*
X38863149Y-12334244D01*
X38862200Y-12320568D01*
X38862200Y-8581477D01*
X38881107Y-8523286D01*
X38891185Y-8511485D01*
X38893934Y-8508736D01*
X38948448Y-8480961D01*
X39008880Y-8490532D01*
X39044254Y-8522537D01*
X39044283Y-8522513D01*
X39044482Y-8522743D01*
X39047220Y-8525220D01*
X39048917Y-8527862D01*
X39133753Y-8625769D01*
X39210346Y-8674992D01*
X39242732Y-8695805D01*
X39303390Y-8713615D01*
X39353898Y-8748150D01*
X39374460Y-8805777D01*
X39374500Y-8808603D01*
X39374500Y-8852128D01*
X39374501Y-8852137D01*
X39390484Y-8932494D01*
X39390485Y-8932496D01*
X39448953Y-9019998D01*
X39465562Y-9078886D01*
X39448953Y-9130002D01*
X39390487Y-9217501D01*
X39390486Y-9217503D01*
X39390485Y-9217505D01*
X39379109Y-9274695D01*
X39374500Y-9297867D01*
X39374500Y-9502129D01*
X39374501Y-9502137D01*
X39390484Y-9582494D01*
X39390485Y-9582496D01*
X39410887Y-9613029D01*
X39451376Y-9673624D01*
X39542505Y-9734515D01*
X39622867Y-9750500D01*
X40177132Y-9750499D01*
X40257495Y-9734515D01*
X40348624Y-9673624D01*
X40409515Y-9582495D01*
X40425500Y-9502133D01*
X40425499Y-9297868D01*
X40409515Y-9217505D01*
X40351044Y-9129999D01*
X40334437Y-9071115D01*
X40351044Y-9020001D01*
X40409515Y-8932495D01*
X40425500Y-8852133D01*
X40425499Y-8647868D01*
X40421103Y-8625768D01*
X40409515Y-8567505D01*
X40409514Y-8567503D01*
X40348626Y-8476379D01*
X40348624Y-8476376D01*
X40348620Y-8476373D01*
X40257497Y-8415486D01*
X40257496Y-8415485D01*
X40257495Y-8415485D01*
X40177133Y-8399500D01*
X40050834Y-8399500D01*
X39992643Y-8380593D01*
X39980831Y-8370504D01*
X39909360Y-8299034D01*
X39881582Y-8244518D01*
X39881399Y-8243315D01*
X39870239Y-8165685D01*
X39880674Y-8105398D01*
X39924553Y-8062757D01*
X39968232Y-8052600D01*
X40536621Y-8052600D01*
X40594812Y-8071507D01*
G37*
%TD.AperFunction*%
%TD*%
M02*
