%TF.GenerationSoftware,KiCad,Pcbnew,7.0.11+dfsg-1build4*%
%TF.CreationDate,2026-09-30T06:23:01+00:00*%
%TF.ProjectId,opencycle,6f70656e-6379-4636-9c65-2e6b69636164,rev?*%
%TF.SameCoordinates,Original*%
%TF.FileFunction,Copper,L2,Inr*%
%TF.FilePolarity,Positive*%
%FSLAX46Y46*%
G04 Gerber Fmt 4.6, Leading zero omitted, Abs format (unit mm)*
G04 Created by KiCad (PCBNEW 7.0.11+dfsg-1build4) date 2026-09-30 06:23:01*
%MOMM*%
%LPD*%
G01*
G04 APERTURE LIST*
%TA.AperFunction,ComponentPad*%
%ADD10C,0.700000*%
%TD*%
%TA.AperFunction,ComponentPad*%
%ADD11C,4.400000*%
%TD*%
%TA.AperFunction,ComponentPad*%
%ADD12O,1.000000X1.800000*%
%TD*%
%TA.AperFunction,ComponentPad*%
%ADD13O,1.000000X2.100000*%
%TD*%
%TA.AperFunction,HeatsinkPad*%
%ADD14C,0.600000*%
%TD*%
%TA.AperFunction,ViaPad*%
%ADD15C,0.500000*%
%TD*%
%TA.AperFunction,ViaPad*%
%ADD16C,0.450000*%
%TD*%
G04 APERTURE END LIST*
D10*
%TO.N,GND*%
%TO.C,H4*%
X43850000Y-85900000D03*
X44333274Y-84733274D03*
X44333274Y-87066726D03*
X45500000Y-84250000D03*
D11*
X45500000Y-85900000D03*
D10*
X45500000Y-87550000D03*
X46666726Y-84733274D03*
X46666726Y-87066726D03*
X47150000Y-85900000D03*
%TD*%
%TO.N,GND*%
%TO.C,H1*%
X4850000Y-6500000D03*
X5333274Y-5333274D03*
X5333274Y-7666726D03*
X6500000Y-4850000D03*
D11*
X6500000Y-6500000D03*
D10*
X6500000Y-8150000D03*
X7666726Y-5333274D03*
X7666726Y-7666726D03*
X8150000Y-6500000D03*
%TD*%
%TO.N,GND*%
%TO.C,H2*%
X43850000Y-6500000D03*
X44333274Y-5333274D03*
X44333274Y-7666726D03*
X45500000Y-4850000D03*
D11*
X45500000Y-6500000D03*
D10*
X45500000Y-8150000D03*
X46666726Y-5333274D03*
X46666726Y-7666726D03*
X47150000Y-6500000D03*
%TD*%
%TO.N,GND*%
%TO.C,H3*%
X4850000Y-85900000D03*
X5333274Y-84733274D03*
X5333274Y-87066726D03*
X6500000Y-84250000D03*
D11*
X6500000Y-85900000D03*
D10*
X6500000Y-87550000D03*
X7666726Y-84733274D03*
X7666726Y-87066726D03*
X8150000Y-85900000D03*
%TD*%
D12*
%TO.N,GND*%
%TO.C,J1*%
X30320000Y-87675000D03*
D13*
X30320000Y-83495000D03*
D12*
X21680000Y-87675000D03*
D13*
X21680000Y-83495000D03*
%TD*%
D14*
%TO.N,GND*%
%TO.C,U1*%
X33090000Y-23900000D03*
X34490000Y-23900000D03*
X32390000Y-23200000D03*
X33790000Y-23200000D03*
X35190000Y-23200000D03*
X33090000Y-22500000D03*
X34490000Y-22500000D03*
X32390000Y-21800000D03*
X33790000Y-21800000D03*
X35190000Y-21800000D03*
X33090000Y-21100000D03*
X34490000Y-21100000D03*
%TD*%
D15*
%TO.N,GND*%
X9500000Y-67000000D03*
X37000000Y-7000000D03*
X39500000Y-59500000D03*
X27000000Y-24500000D03*
X9500000Y-62000000D03*
X44500000Y-39500000D03*
X7000000Y-22000000D03*
X39500000Y-54500000D03*
X17000000Y-79500000D03*
X47000000Y-59500000D03*
X19500000Y-17000000D03*
X9300000Y-78750000D03*
X44390000Y-51400000D03*
X4500000Y-12000000D03*
X8400000Y-37500000D03*
X28349999Y-46850000D03*
X22250000Y-45750000D03*
X44500000Y-64500000D03*
X44500000Y-74500000D03*
X47000000Y-54500000D03*
X32200000Y-82970000D03*
X7000000Y-67000000D03*
X46830698Y-49118198D03*
X15650000Y-46850000D03*
X17000000Y-52000000D03*
X12000000Y-37000000D03*
X4500000Y-47000000D03*
X24718198Y-46381801D03*
X14600000Y-74770000D03*
X5000000Y-34000000D03*
X18230000Y-39678700D03*
X37000000Y-57000000D03*
X29500000Y-14500000D03*
X24150000Y-46850000D03*
X25250000Y-45750000D03*
X47000000Y-42000000D03*
X39500000Y-4500000D03*
X19500000Y-57000000D03*
X22800000Y-81895000D03*
X37000000Y-4500000D03*
X19500000Y-54500000D03*
X9500000Y-87000000D03*
X14500000Y-19500000D03*
X7000000Y-44500000D03*
X17468198Y-17681801D03*
X4500000Y-9500000D03*
X17000000Y-82000000D03*
X37000000Y-62000000D03*
X12000000Y-4500000D03*
X37000000Y-72000000D03*
X7000000Y-59500000D03*
X31521801Y-24768198D03*
X27000000Y-64500000D03*
X46100000Y-49775000D03*
X39500000Y-52000000D03*
X12000000Y-32000000D03*
X29750000Y-45750000D03*
X44500000Y-9500000D03*
X17000000Y-57000000D03*
X27000000Y-87000000D03*
X31400000Y-38770000D03*
X19500000Y-62000000D03*
X4500000Y-67000000D03*
X27000000Y-69500000D03*
X35250000Y-47950000D03*
X47000000Y-9500000D03*
X15478198Y-80981801D03*
X39500000Y-69500000D03*
X12665000Y-79000000D03*
X4500000Y-42000000D03*
X14500000Y-59500000D03*
X29500000Y-22000000D03*
X22000000Y-67000000D03*
X17000000Y-42000000D03*
X30250000Y-47950000D03*
X22650000Y-46850000D03*
X7000000Y-49500000D03*
X14500000Y-67000000D03*
X29500000Y-4500000D03*
X17000000Y-4500000D03*
X14950000Y-32000000D03*
X42000000Y-7000000D03*
X24500000Y-4500000D03*
X12775000Y-15975000D03*
X36849999Y-78400000D03*
X34500000Y-19500000D03*
X22000000Y-54500000D03*
X44300000Y-34000000D03*
X9500000Y-22000000D03*
X45600000Y-50325000D03*
X12000000Y-34500000D03*
X7000000Y-42000000D03*
X27000000Y-67000000D03*
X34500000Y-84500000D03*
X42000000Y-34500000D03*
X11743198Y-28568198D03*
X7000000Y-62000000D03*
X27718198Y-46381801D03*
X9500000Y-52000000D03*
X42000000Y-32000000D03*
X47000000Y-72000000D03*
X32000000Y-82000000D03*
X14500000Y-62000000D03*
X44500000Y-69500000D03*
X32000000Y-17000000D03*
X17018198Y-27468198D03*
X31400000Y-76725000D03*
X47000000Y-74500000D03*
X3631801Y-31381801D03*
X44500000Y-72000000D03*
X15480000Y-15989999D03*
X4500000Y-82000000D03*
X17000000Y-69500000D03*
X19800000Y-82970000D03*
X22000000Y-57000000D03*
X21600000Y-11850000D03*
X27718198Y-86418198D03*
X31250000Y-45750000D03*
X7000000Y-64500000D03*
X39500000Y-47000000D03*
X4500000Y-52000000D03*
X4500000Y-79500000D03*
X14500000Y-87000000D03*
X22000000Y-69500000D03*
X9500000Y-24500000D03*
X44500000Y-57000000D03*
X4500000Y-64500000D03*
X19500000Y-77000000D03*
X19500000Y-67000000D03*
X5200000Y-29500000D03*
X7000000Y-29500000D03*
X22000000Y-64500000D03*
X47000000Y-82000000D03*
X46568198Y-47169301D03*
X18600000Y-41724999D03*
X12000000Y-87000000D03*
X7000000Y-79500000D03*
X42000000Y-72000000D03*
X17000000Y-59500000D03*
X7000000Y-74500000D03*
X34730000Y-35478700D03*
X39958198Y-86418198D03*
X4500000Y-54500000D03*
X37600000Y-80125000D03*
X17000000Y-87000000D03*
X19500000Y-69500000D03*
X39500000Y-79500000D03*
X27000000Y-72000000D03*
X39500000Y-84500000D03*
X22000000Y-62000000D03*
X15478198Y-86418198D03*
X37000000Y-59500000D03*
X3631801Y-36618198D03*
X11924999Y-29400000D03*
X29818198Y-82301801D03*
X29849999Y-46850000D03*
X34500000Y-87000000D03*
X22000000Y-72000000D03*
X22360000Y-28120000D03*
X27849999Y-81625000D03*
X12000000Y-19500000D03*
X42000000Y-87000000D03*
X7000000Y-52000000D03*
X39500000Y-62000000D03*
X37000000Y-67000000D03*
X7800000Y-73725000D03*
X22000000Y-59500000D03*
X32799999Y-38790000D03*
X23218198Y-46381801D03*
X12000000Y-24500000D03*
X14950000Y-34000000D03*
X34500000Y-4500000D03*
X19500000Y-72000000D03*
X17000000Y-84500000D03*
X41510000Y-11050000D03*
X14500000Y-54500000D03*
X9600000Y-74190000D03*
X28250000Y-79800000D03*
X17000000Y-44500000D03*
X7000000Y-24500000D03*
X9500000Y-59500000D03*
X44500000Y-54500000D03*
X47000000Y-69500000D03*
X23750000Y-45750000D03*
X14500000Y-4500000D03*
X19500000Y-64500000D03*
X37000000Y-52000000D03*
X7000000Y-54500000D03*
X4500000Y-74500000D03*
X27000000Y-62000000D03*
X36000000Y-38770000D03*
X38671801Y-80981801D03*
X37000000Y-54500000D03*
X27000000Y-19500000D03*
X29500000Y-17000000D03*
X14950000Y-33000000D03*
X33370000Y-81200000D03*
X22181801Y-82301801D03*
X19500000Y-59500000D03*
X39500000Y-67000000D03*
X4500000Y-72000000D03*
X43400000Y-42570000D03*
X44500000Y-62000000D03*
X15720000Y-30160000D03*
X10400000Y-38190000D03*
X47000000Y-64500000D03*
X4500000Y-69500000D03*
X13000000Y-50100000D03*
X18349999Y-11800000D03*
X13899999Y-78750000D03*
X9500000Y-72000000D03*
X20840000Y-16920000D03*
X19500000Y-19500000D03*
X9500000Y-49500000D03*
X27000000Y-54500000D03*
X41280000Y-13309999D03*
X47000000Y-67000000D03*
X4500000Y-39500000D03*
X29218198Y-46381801D03*
X4500000Y-77000000D03*
X44500000Y-82000000D03*
X47000000Y-39500000D03*
X29450000Y-7150000D03*
X48368198Y-36618198D03*
X19500000Y-22000000D03*
X47000000Y-44500000D03*
X4500000Y-49500000D03*
X9500000Y-57000000D03*
X9500000Y-69500000D03*
X20600000Y-42190000D03*
X27000000Y-52000000D03*
X40700000Y-82550000D03*
X39500000Y-64500000D03*
X39631801Y-73581801D03*
X39000000Y-50100000D03*
X9500000Y-64500000D03*
X41510000Y-30950000D03*
X7000000Y-72000000D03*
X24950000Y-7150000D03*
X17000000Y-62000000D03*
X26849999Y-46850000D03*
X11850000Y-76700000D03*
X14450000Y-79250000D03*
X17000000Y-72000000D03*
X17000000Y-77000000D03*
X7631801Y-16531801D03*
X7000000Y-57000000D03*
X19500000Y-52000000D03*
X37555698Y-73031801D03*
X47000000Y-62000000D03*
X4500000Y-62000000D03*
X44500000Y-67000000D03*
X29200000Y-81895000D03*
X27000000Y-57000000D03*
X14500000Y-52000000D03*
X17000000Y-67000000D03*
X39431801Y-10518198D03*
X7000000Y-69500000D03*
X4500000Y-57000000D03*
X7581801Y-34068198D03*
X17000000Y-54500000D03*
X9500000Y-54500000D03*
X7000000Y-39500000D03*
X26218198Y-46381801D03*
X9531801Y-4531801D03*
X34500000Y-7000000D03*
X7000000Y-19500000D03*
X47268198Y-79818198D03*
X14500000Y-57000000D03*
X39500000Y-57000000D03*
X42000000Y-84500000D03*
X14500000Y-22000000D03*
X42000000Y-4500000D03*
X7000000Y-82000000D03*
X42000000Y-79500000D03*
X37000000Y-69500000D03*
X44631801Y-47169301D03*
X47000000Y-57000000D03*
X28250000Y-45750000D03*
X17000000Y-64500000D03*
X26750000Y-45750000D03*
X14500000Y-64500000D03*
X19800000Y-78925000D03*
X27000000Y-59500000D03*
X22000000Y-52000000D03*
X22000000Y-34500000D03*
X44500000Y-59500000D03*
X7000000Y-47000000D03*
X38644301Y-45368198D03*
X48368198Y-31381801D03*
X20368198Y-14668198D03*
X37000000Y-64500000D03*
%TO.N,+3V3*%
X19250000Y-45750000D03*
X8850000Y-10700000D03*
X7581801Y-36368198D03*
X29200000Y-37230000D03*
X27800000Y-37230000D03*
X31750000Y-47950000D03*
X40320000Y-10890000D03*
X44384314Y-49878185D03*
X46810000Y-51400000D03*
X17950000Y-19000000D03*
X46974999Y-48150000D03*
X38101801Y-14488198D03*
X21481898Y-39546898D03*
X14520000Y-15989999D03*
X26400000Y-37230000D03*
X40240000Y-30950000D03*
X25000000Y-37230000D03*
X22370000Y-26910000D03*
X15143198Y-28631801D03*
X20600000Y-44610000D03*
X19750000Y-47950000D03*
X44369301Y-49118198D03*
X21600000Y-18610000D03*
X32250000Y-45750000D03*
X10400000Y-40610000D03*
X37981898Y-35346898D03*
X8400000Y-41300000D03*
X18600000Y-45074999D03*
X22418198Y-16368198D03*
X39431801Y-8281801D03*
X35901801Y-13988198D03*
X9481801Y-12518198D03*
X11225000Y-15975000D03*
X17410000Y-29400000D03*
X30600000Y-37230000D03*
X8850000Y-12900000D03*
%TO.N,KEY_C*%
X28171900Y-27413800D03*
X23800000Y-48514600D03*
X28887800Y-34491700D03*
%TO.N,KEY_R*%
X35754800Y-37729500D03*
X28167400Y-39206000D03*
X34929400Y-31330100D03*
X28317600Y-34899100D03*
X37871100Y-44162500D03*
%TO.N,BTN_MENU*%
X31699000Y-32608500D03*
X31734100Y-34022000D03*
%TO.N,I2S_BCLK*%
X12062200Y-75978800D03*
X14127600Y-39876100D03*
%TO.N,I2S_LRCLK*%
X14053300Y-39224100D03*
X11132200Y-76710200D03*
%TO.N,I2S_DIN*%
X18723100Y-27989200D03*
X13545800Y-74785700D03*
%TO.N,I2C_SCL*%
X37137400Y-28551500D03*
D16*
X43587500Y-48150000D03*
D15*
X38471700Y-23253700D03*
X37049200Y-24014700D03*
D16*
%TO.N,I2C_SDA*%
X45600000Y-46387500D03*
D15*
X36493700Y-27955900D03*
X38832900Y-36730700D03*
%TO.N,USB_DN*%
X28665600Y-77690000D03*
X26996900Y-43137700D03*
X26996900Y-31854100D03*
X30919600Y-47909700D03*
%TO.N,USB_DP*%
X23432000Y-47949300D03*
X24400000Y-77825200D03*
X24488800Y-42039500D03*
X24555500Y-31133300D03*
%TO.N,AMP_EN*%
X23623900Y-28842600D03*
X13873700Y-75783700D03*
%TO.N,LCD_DC*%
X25058500Y-26135600D03*
%TO.N,LCD_CS*%
X20118700Y-26930500D03*
%TO.N,LCD_MOSI*%
X19605900Y-26468800D03*
%TO.N,LCD_SCK*%
X21897500Y-23026700D03*
%TO.N,LCD_TE*%
X29974100Y-24901600D03*
%TO.N,LCD_RST*%
X29417000Y-23584500D03*
%TO.N,LCD_BL*%
X31384800Y-21865100D03*
%TO.N,GPS_EXTINT*%
X12800000Y-13815300D03*
%TO.N,KEY_L*%
X25332800Y-15614600D03*
X32268800Y-27894200D03*
X25578800Y-27375200D03*
X32268800Y-33474100D03*
X25578800Y-34305200D03*
%TO.N,GPS_TX*%
X11916100Y-6881600D03*
%TO.N,GPS_RX*%
X12885500Y-7400000D03*
%TO.N,GPS_RST*%
X15000000Y-7696500D03*
%TO.N,CON_RX*%
X35335600Y-26019200D03*
X35937200Y-32367800D03*
%TO.N,CON_TX*%
X37494800Y-14148200D03*
X37639300Y-32601300D03*
%TO.N,VBUS_SENSE*%
X39716600Y-15788300D03*
X39716600Y-37572500D03*
%TO.N,VBAT_SENSE*%
X35386600Y-38310700D03*
X34284200Y-26347800D03*
%TO.N,BLE_SWDIO*%
X11393700Y-29850100D03*
X10383900Y-29558500D03*
%TO.N,CHG_STAT*%
X35976300Y-76219500D03*
%TO.N,VBUS*%
X34727700Y-41245100D03*
X34395100Y-49333100D03*
X32337699Y-79175000D03*
%TO.N,LED_K1*%
X30712200Y-44425000D03*
X31410100Y-48548200D03*
%TO.N,VBAT*%
X9633200Y-47452100D03*
D16*
X34750000Y-45600000D03*
D15*
%TO.N,CC1*%
X26000000Y-84294400D03*
X26000000Y-86169100D03*
%TO.N,USB_DP_C*%
X26000000Y-80577600D03*
X27225000Y-84264800D03*
%TD*%
%TA.AperFunction,Conductor*%
%TO.N,GND*%
G36*
X45002421Y-3300619D02*
G01*
X45032909Y-3302116D01*
X45357776Y-3318076D01*
X45367418Y-3319026D01*
X45716933Y-3370872D01*
X45726439Y-3372762D01*
X46069201Y-3458620D01*
X46078472Y-3461432D01*
X46411161Y-3580470D01*
X46420130Y-3584185D01*
X46739551Y-3735259D01*
X46748093Y-3739826D01*
X47051156Y-3921475D01*
X47059234Y-3926873D01*
X47343035Y-4137355D01*
X47350545Y-4143518D01*
X47508529Y-4286705D01*
X47612343Y-4380796D01*
X47619208Y-4387661D01*
X47856481Y-4649454D01*
X47862644Y-4656964D01*
X48073126Y-4940765D01*
X48078524Y-4948843D01*
X48260166Y-5251893D01*
X48264743Y-5260456D01*
X48327858Y-5393902D01*
X48415812Y-5579866D01*
X48419530Y-5588842D01*
X48538563Y-5921514D01*
X48541383Y-5930811D01*
X48627234Y-6273549D01*
X48629129Y-6283078D01*
X48680971Y-6632567D01*
X48681924Y-6642235D01*
X48699381Y-6997577D01*
X48699500Y-7002435D01*
X48699500Y-10401000D01*
X48680593Y-10459191D01*
X48631093Y-10495155D01*
X48600500Y-10500000D01*
X42300000Y-10500000D01*
X42300000Y-31000000D01*
X48600500Y-31000000D01*
X48658691Y-31018907D01*
X48694655Y-31068407D01*
X48699500Y-31099000D01*
X48699500Y-85397564D01*
X48699381Y-85402422D01*
X48681924Y-85757764D01*
X48680971Y-85767432D01*
X48629129Y-86116921D01*
X48627234Y-86126450D01*
X48541383Y-86469188D01*
X48538563Y-86478485D01*
X48419530Y-86811157D01*
X48415812Y-86820133D01*
X48264746Y-87139538D01*
X48260166Y-87148106D01*
X48078524Y-87451156D01*
X48073126Y-87459234D01*
X47862644Y-87743035D01*
X47856481Y-87750545D01*
X47619208Y-88012338D01*
X47612338Y-88019208D01*
X47350545Y-88256481D01*
X47343035Y-88262644D01*
X47059234Y-88473126D01*
X47051156Y-88478524D01*
X46748106Y-88660166D01*
X46739538Y-88664746D01*
X46420133Y-88815812D01*
X46411157Y-88819530D01*
X46078485Y-88938563D01*
X46069188Y-88941383D01*
X45726450Y-89027234D01*
X45716921Y-89029129D01*
X45367432Y-89080971D01*
X45357764Y-89081924D01*
X45002422Y-89099381D01*
X44997564Y-89099500D01*
X7002436Y-89099500D01*
X6997578Y-89099381D01*
X6642235Y-89081924D01*
X6632567Y-89080971D01*
X6283078Y-89029129D01*
X6273549Y-89027234D01*
X5930811Y-88941383D01*
X5921514Y-88938563D01*
X5588842Y-88819530D01*
X5579866Y-88815812D01*
X5360488Y-88712055D01*
X5260456Y-88664743D01*
X5251899Y-88660169D01*
X5100368Y-88569345D01*
X4948843Y-88478524D01*
X4940765Y-88473126D01*
X4656964Y-88262644D01*
X4649454Y-88256481D01*
X4387661Y-88019208D01*
X4380796Y-88012343D01*
X4218218Y-87832965D01*
X4143518Y-87750545D01*
X4137355Y-87743035D01*
X3926873Y-87459234D01*
X3921475Y-87451156D01*
X3739826Y-87148093D01*
X3735259Y-87139551D01*
X3584185Y-86820130D01*
X3580469Y-86811157D01*
X3565071Y-86768122D01*
X3461432Y-86478472D01*
X3458620Y-86469201D01*
X3383449Y-86169102D01*
X25544867Y-86169102D01*
X25563302Y-86297325D01*
X25617117Y-86415161D01*
X25617118Y-86415163D01*
X25668020Y-86473908D01*
X25701952Y-86513068D01*
X25810926Y-86583101D01*
X25810931Y-86583104D01*
X25935228Y-86619600D01*
X25935230Y-86619600D01*
X26064770Y-86619600D01*
X26064772Y-86619600D01*
X26189069Y-86583104D01*
X26298049Y-86513067D01*
X26382882Y-86415163D01*
X26436697Y-86297326D01*
X26455133Y-86169100D01*
X26448323Y-86121737D01*
X26436697Y-86040874D01*
X26382882Y-85923038D01*
X26382882Y-85923037D01*
X26298049Y-85825133D01*
X26298048Y-85825132D01*
X26298047Y-85825131D01*
X26189073Y-85755098D01*
X26189070Y-85755096D01*
X26189069Y-85755096D01*
X26189066Y-85755095D01*
X26064774Y-85718600D01*
X26064772Y-85718600D01*
X25935228Y-85718600D01*
X25935225Y-85718600D01*
X25810933Y-85755095D01*
X25810926Y-85755098D01*
X25701952Y-85825131D01*
X25617117Y-85923038D01*
X25563302Y-86040874D01*
X25544867Y-86169097D01*
X25544867Y-86169102D01*
X3383449Y-86169102D01*
X3372762Y-86126439D01*
X3370872Y-86116933D01*
X3319026Y-85767418D01*
X3318076Y-85757776D01*
X3300619Y-85402421D01*
X3300500Y-85397564D01*
X3300500Y-84031199D01*
X22580796Y-84031199D01*
X22610184Y-84172628D01*
X22610186Y-84172636D01*
X22676644Y-84300892D01*
X22676646Y-84300895D01*
X22775245Y-84406469D01*
X22898672Y-84481526D01*
X23037772Y-84520500D01*
X23037773Y-84520500D01*
X23145943Y-84520500D01*
X23145949Y-84520500D01*
X23253111Y-84505771D01*
X23385609Y-84448219D01*
X23497665Y-84357054D01*
X23541890Y-84294402D01*
X25544867Y-84294402D01*
X25563302Y-84422625D01*
X25608001Y-84520500D01*
X25617118Y-84540463D01*
X25676303Y-84608767D01*
X25701952Y-84638368D01*
X25764872Y-84678804D01*
X25810931Y-84708404D01*
X25935228Y-84744900D01*
X25935230Y-84744900D01*
X26064770Y-84744900D01*
X26064772Y-84744900D01*
X26189069Y-84708404D01*
X26298049Y-84638367D01*
X26382882Y-84540463D01*
X26436697Y-84422626D01*
X26455133Y-84294400D01*
X26450877Y-84264802D01*
X26769867Y-84264802D01*
X26788302Y-84393025D01*
X26842117Y-84510861D01*
X26842118Y-84510863D01*
X26926951Y-84608767D01*
X26926952Y-84608768D01*
X26973011Y-84638368D01*
X27035931Y-84678804D01*
X27160228Y-84715300D01*
X27160230Y-84715300D01*
X27289770Y-84715300D01*
X27289772Y-84715300D01*
X27414069Y-84678804D01*
X27523049Y-84608767D01*
X27607882Y-84510863D01*
X27661697Y-84393026D01*
X27667842Y-84350284D01*
X27680133Y-84264802D01*
X27680133Y-84264797D01*
X27661697Y-84136574D01*
X27613573Y-84031199D01*
X28360796Y-84031199D01*
X28390184Y-84172628D01*
X28390186Y-84172636D01*
X28456644Y-84300892D01*
X28456646Y-84300895D01*
X28555245Y-84406469D01*
X28678672Y-84481526D01*
X28817772Y-84520500D01*
X28817773Y-84520500D01*
X28925943Y-84520500D01*
X28925949Y-84520500D01*
X29033111Y-84505771D01*
X29165609Y-84448219D01*
X29277665Y-84357054D01*
X29360971Y-84239037D01*
X29409346Y-84102921D01*
X29419204Y-83958801D01*
X29417465Y-83950433D01*
X29389815Y-83817371D01*
X29389813Y-83817363D01*
X29323355Y-83689107D01*
X29323353Y-83689104D01*
X29224754Y-83583530D01*
X29101328Y-83508474D01*
X28962228Y-83469500D01*
X28854051Y-83469500D01*
X28746888Y-83484228D01*
X28614389Y-83541781D01*
X28502334Y-83632945D01*
X28419029Y-83750962D01*
X28370653Y-83887078D01*
X28360796Y-84031199D01*
X27613573Y-84031199D01*
X27607882Y-84018738D01*
X27607882Y-84018737D01*
X27523049Y-83920833D01*
X27523048Y-83920832D01*
X27523047Y-83920831D01*
X27414073Y-83850798D01*
X27414070Y-83850796D01*
X27414069Y-83850796D01*
X27414066Y-83850795D01*
X27289774Y-83814300D01*
X27289772Y-83814300D01*
X27160228Y-83814300D01*
X27160225Y-83814300D01*
X27035933Y-83850795D01*
X27035926Y-83850798D01*
X26926952Y-83920831D01*
X26842117Y-84018738D01*
X26788302Y-84136574D01*
X26769867Y-84264797D01*
X26769867Y-84264802D01*
X26450877Y-84264802D01*
X26436697Y-84166174D01*
X26382882Y-84048338D01*
X26382882Y-84048337D01*
X26298049Y-83950433D01*
X26298048Y-83950432D01*
X26298047Y-83950431D01*
X26189073Y-83880398D01*
X26189070Y-83880396D01*
X26189069Y-83880396D01*
X26189066Y-83880395D01*
X26064774Y-83843900D01*
X26064772Y-83843900D01*
X25935228Y-83843900D01*
X25935225Y-83843900D01*
X25810933Y-83880395D01*
X25810926Y-83880398D01*
X25701952Y-83950431D01*
X25617117Y-84048338D01*
X25563302Y-84166174D01*
X25544867Y-84294397D01*
X25544867Y-84294402D01*
X23541890Y-84294402D01*
X23580971Y-84239037D01*
X23629346Y-84102921D01*
X23639204Y-83958801D01*
X23637465Y-83950433D01*
X23609815Y-83817371D01*
X23609813Y-83817363D01*
X23543355Y-83689107D01*
X23543353Y-83689104D01*
X23444754Y-83583530D01*
X23321328Y-83508474D01*
X23182228Y-83469500D01*
X23074051Y-83469500D01*
X22966888Y-83484228D01*
X22834389Y-83541781D01*
X22722334Y-83632945D01*
X22639029Y-83750962D01*
X22590653Y-83887078D01*
X22580796Y-84031199D01*
X3300500Y-84031199D01*
X3300500Y-80577602D01*
X25544867Y-80577602D01*
X25563302Y-80705825D01*
X25617117Y-80823661D01*
X25617118Y-80823663D01*
X25701951Y-80921567D01*
X25701952Y-80921568D01*
X25810926Y-80991601D01*
X25810931Y-80991604D01*
X25935228Y-81028100D01*
X25935230Y-81028100D01*
X26064770Y-81028100D01*
X26064772Y-81028100D01*
X26189069Y-80991604D01*
X26298049Y-80921567D01*
X26382882Y-80823663D01*
X26436697Y-80705826D01*
X26455133Y-80577600D01*
X26436697Y-80449374D01*
X26382882Y-80331537D01*
X26298049Y-80233633D01*
X26298048Y-80233632D01*
X26298047Y-80233631D01*
X26189073Y-80163598D01*
X26189070Y-80163596D01*
X26189069Y-80163596D01*
X26189066Y-80163595D01*
X26064774Y-80127100D01*
X26064772Y-80127100D01*
X25935228Y-80127100D01*
X25935225Y-80127100D01*
X25810933Y-80163595D01*
X25810926Y-80163598D01*
X25701952Y-80233631D01*
X25617117Y-80331538D01*
X25563302Y-80449374D01*
X25544867Y-80577597D01*
X25544867Y-80577602D01*
X3300500Y-80577602D01*
X3300500Y-79175002D01*
X31882566Y-79175002D01*
X31901001Y-79303225D01*
X31954816Y-79421061D01*
X31954817Y-79421063D01*
X32039650Y-79518967D01*
X32039651Y-79518968D01*
X32148625Y-79589001D01*
X32148630Y-79589004D01*
X32272927Y-79625500D01*
X32272929Y-79625500D01*
X32402469Y-79625500D01*
X32402471Y-79625500D01*
X32526768Y-79589004D01*
X32635748Y-79518967D01*
X32720581Y-79421063D01*
X32774396Y-79303226D01*
X32792832Y-79175000D01*
X32774396Y-79046774D01*
X32720581Y-78928937D01*
X32635748Y-78831033D01*
X32635747Y-78831032D01*
X32635746Y-78831031D01*
X32526772Y-78760998D01*
X32526769Y-78760996D01*
X32526768Y-78760996D01*
X32526765Y-78760995D01*
X32402473Y-78724500D01*
X32402471Y-78724500D01*
X32272927Y-78724500D01*
X32272924Y-78724500D01*
X32148632Y-78760995D01*
X32148625Y-78760998D01*
X32039651Y-78831031D01*
X31954816Y-78928938D01*
X31901001Y-79046774D01*
X31882566Y-79174997D01*
X31882566Y-79175002D01*
X3300500Y-79175002D01*
X3300500Y-77825202D01*
X23944867Y-77825202D01*
X23963302Y-77953425D01*
X24000085Y-78033967D01*
X24017118Y-78071263D01*
X24101951Y-78169167D01*
X24101952Y-78169168D01*
X24210926Y-78239201D01*
X24210931Y-78239204D01*
X24335228Y-78275700D01*
X24335230Y-78275700D01*
X24464770Y-78275700D01*
X24464772Y-78275700D01*
X24589069Y-78239204D01*
X24698049Y-78169167D01*
X24782882Y-78071263D01*
X24836697Y-77953426D01*
X24855133Y-77825200D01*
X24854130Y-77818226D01*
X24836697Y-77696974D01*
X24833513Y-77690002D01*
X28210467Y-77690002D01*
X28228902Y-77818225D01*
X28282717Y-77936061D01*
X28282718Y-77936063D01*
X28367551Y-78033967D01*
X28367552Y-78033968D01*
X28476526Y-78104001D01*
X28476531Y-78104004D01*
X28600828Y-78140500D01*
X28600830Y-78140500D01*
X28730370Y-78140500D01*
X28730372Y-78140500D01*
X28854669Y-78104004D01*
X28963649Y-78033967D01*
X29048482Y-77936063D01*
X29102297Y-77818226D01*
X29108442Y-77775484D01*
X29120733Y-77690002D01*
X29120733Y-77689997D01*
X29102297Y-77561774D01*
X29048482Y-77443937D01*
X28963649Y-77346033D01*
X28963648Y-77346032D01*
X28963647Y-77346031D01*
X28854673Y-77275998D01*
X28854670Y-77275996D01*
X28854669Y-77275996D01*
X28854666Y-77275995D01*
X28730374Y-77239500D01*
X28730372Y-77239500D01*
X28600828Y-77239500D01*
X28600825Y-77239500D01*
X28476533Y-77275995D01*
X28476526Y-77275998D01*
X28367552Y-77346031D01*
X28282717Y-77443938D01*
X28228902Y-77561774D01*
X28210467Y-77689997D01*
X28210467Y-77690002D01*
X24833513Y-77690002D01*
X24782882Y-77579138D01*
X24782882Y-77579137D01*
X24698049Y-77481233D01*
X24698048Y-77481232D01*
X24698047Y-77481231D01*
X24589073Y-77411198D01*
X24589070Y-77411196D01*
X24589069Y-77411196D01*
X24589066Y-77411195D01*
X24464774Y-77374700D01*
X24464772Y-77374700D01*
X24335228Y-77374700D01*
X24335225Y-77374700D01*
X24210933Y-77411195D01*
X24210926Y-77411198D01*
X24101952Y-77481231D01*
X24017117Y-77579138D01*
X23963302Y-77696974D01*
X23944867Y-77825197D01*
X23944867Y-77825202D01*
X3300500Y-77825202D01*
X3300500Y-76710202D01*
X10677067Y-76710202D01*
X10695502Y-76838425D01*
X10749317Y-76956261D01*
X10749318Y-76956263D01*
X10834151Y-77054167D01*
X10834152Y-77054168D01*
X10943126Y-77124201D01*
X10943131Y-77124204D01*
X11067428Y-77160700D01*
X11067430Y-77160700D01*
X11196970Y-77160700D01*
X11196972Y-77160700D01*
X11321269Y-77124204D01*
X11430249Y-77054167D01*
X11515082Y-76956263D01*
X11568897Y-76838426D01*
X11587333Y-76710200D01*
X11576305Y-76633501D01*
X11568897Y-76581974D01*
X11515082Y-76464138D01*
X11515082Y-76464137D01*
X11430249Y-76366233D01*
X11430248Y-76366232D01*
X11430247Y-76366231D01*
X11321273Y-76296198D01*
X11321270Y-76296196D01*
X11321269Y-76296196D01*
X11321266Y-76296195D01*
X11196974Y-76259700D01*
X11196972Y-76259700D01*
X11067428Y-76259700D01*
X11067425Y-76259700D01*
X10943133Y-76296195D01*
X10943126Y-76296198D01*
X10834152Y-76366231D01*
X10749317Y-76464138D01*
X10695502Y-76581974D01*
X10677067Y-76710197D01*
X10677067Y-76710202D01*
X3300500Y-76710202D01*
X3300500Y-75978802D01*
X11607067Y-75978802D01*
X11625502Y-76107025D01*
X11634930Y-76127668D01*
X11679318Y-76224863D01*
X11741129Y-76296198D01*
X11764152Y-76322768D01*
X11873126Y-76392801D01*
X11873131Y-76392804D01*
X11997428Y-76429300D01*
X11997430Y-76429300D01*
X12126970Y-76429300D01*
X12126972Y-76429300D01*
X12251269Y-76392804D01*
X12360249Y-76322767D01*
X12445082Y-76224863D01*
X12498897Y-76107026D01*
X12517333Y-75978800D01*
X12498897Y-75850574D01*
X12445082Y-75732737D01*
X12360249Y-75634833D01*
X12360248Y-75634832D01*
X12360247Y-75634831D01*
X12251273Y-75564798D01*
X12251270Y-75564796D01*
X12251269Y-75564796D01*
X12251266Y-75564795D01*
X12126974Y-75528300D01*
X12126972Y-75528300D01*
X11997428Y-75528300D01*
X11997425Y-75528300D01*
X11873133Y-75564795D01*
X11873126Y-75564798D01*
X11764152Y-75634831D01*
X11679317Y-75732738D01*
X11625502Y-75850574D01*
X11607067Y-75978797D01*
X11607067Y-75978802D01*
X3300500Y-75978802D01*
X3300500Y-74785702D01*
X13090667Y-74785702D01*
X13109102Y-74913925D01*
X13162917Y-75031761D01*
X13162918Y-75031763D01*
X13247751Y-75129667D01*
X13247752Y-75129668D01*
X13280815Y-75150916D01*
X13356731Y-75199704D01*
X13481028Y-75236200D01*
X13481030Y-75236200D01*
X13555192Y-75236200D01*
X13613383Y-75255107D01*
X13649347Y-75304607D01*
X13649347Y-75365793D01*
X13613383Y-75415293D01*
X13608715Y-75418484D01*
X13575652Y-75439731D01*
X13490817Y-75537638D01*
X13437002Y-75655474D01*
X13418567Y-75783697D01*
X13418567Y-75783702D01*
X13437002Y-75911925D01*
X13490817Y-76029761D01*
X13490818Y-76029763D01*
X13544117Y-76091274D01*
X13575652Y-76127668D01*
X13684626Y-76197701D01*
X13684631Y-76197704D01*
X13808928Y-76234200D01*
X13808930Y-76234200D01*
X13938470Y-76234200D01*
X13938472Y-76234200D01*
X13988530Y-76219502D01*
X35521167Y-76219502D01*
X35539602Y-76347725D01*
X35576857Y-76429300D01*
X35593418Y-76465563D01*
X35678251Y-76563467D01*
X35678252Y-76563468D01*
X35787226Y-76633501D01*
X35787231Y-76633504D01*
X35911528Y-76670000D01*
X35911530Y-76670000D01*
X36041070Y-76670000D01*
X36041072Y-76670000D01*
X36165369Y-76633504D01*
X36274349Y-76563467D01*
X36359182Y-76465563D01*
X36412997Y-76347726D01*
X36425653Y-76259700D01*
X36431433Y-76219502D01*
X36431433Y-76219497D01*
X36412997Y-76091274D01*
X36359182Y-75973437D01*
X36274349Y-75875533D01*
X36274348Y-75875532D01*
X36274347Y-75875531D01*
X36165373Y-75805498D01*
X36165370Y-75805496D01*
X36165369Y-75805496D01*
X36165366Y-75805495D01*
X36041074Y-75769000D01*
X36041072Y-75769000D01*
X35911528Y-75769000D01*
X35911525Y-75769000D01*
X35787233Y-75805495D01*
X35787226Y-75805498D01*
X35678252Y-75875531D01*
X35593417Y-75973438D01*
X35539602Y-76091274D01*
X35521167Y-76219497D01*
X35521167Y-76219502D01*
X13988530Y-76219502D01*
X14062769Y-76197704D01*
X14171749Y-76127667D01*
X14256582Y-76029763D01*
X14310397Y-75911926D01*
X14325699Y-75805496D01*
X14328833Y-75783702D01*
X14328833Y-75783697D01*
X14310397Y-75655474D01*
X14300970Y-75634833D01*
X14256582Y-75537637D01*
X14171749Y-75439733D01*
X14171748Y-75439732D01*
X14171747Y-75439731D01*
X14062773Y-75369698D01*
X14062770Y-75369696D01*
X14062769Y-75369696D01*
X14062766Y-75369695D01*
X13938474Y-75333200D01*
X13938472Y-75333200D01*
X13864308Y-75333200D01*
X13806117Y-75314293D01*
X13770153Y-75264793D01*
X13770153Y-75203607D01*
X13806117Y-75154107D01*
X13810785Y-75150916D01*
X13843847Y-75129668D01*
X13843846Y-75129668D01*
X13843849Y-75129667D01*
X13928682Y-75031763D01*
X13982497Y-74913926D01*
X14000933Y-74785700D01*
X13982497Y-74657474D01*
X13928682Y-74539637D01*
X13843849Y-74441733D01*
X13843848Y-74441732D01*
X13843847Y-74441731D01*
X13734873Y-74371698D01*
X13734870Y-74371696D01*
X13734869Y-74371696D01*
X13734866Y-74371695D01*
X13610574Y-74335200D01*
X13610572Y-74335200D01*
X13481028Y-74335200D01*
X13481025Y-74335200D01*
X13356733Y-74371695D01*
X13356726Y-74371698D01*
X13247752Y-74441731D01*
X13162917Y-74539638D01*
X13109102Y-74657474D01*
X13090667Y-74785697D01*
X13090667Y-74785702D01*
X3300500Y-74785702D01*
X3300500Y-51400002D01*
X46354867Y-51400002D01*
X46373302Y-51528225D01*
X46427117Y-51646061D01*
X46427118Y-51646063D01*
X46511951Y-51743967D01*
X46511952Y-51743968D01*
X46620926Y-51814001D01*
X46620931Y-51814004D01*
X46745228Y-51850500D01*
X46745230Y-51850500D01*
X46874770Y-51850500D01*
X46874772Y-51850500D01*
X46999069Y-51814004D01*
X47108049Y-51743967D01*
X47192882Y-51646063D01*
X47246697Y-51528226D01*
X47265133Y-51400000D01*
X47246697Y-51271774D01*
X47192882Y-51153937D01*
X47108049Y-51056033D01*
X47108048Y-51056032D01*
X47108047Y-51056031D01*
X46999073Y-50985998D01*
X46999070Y-50985996D01*
X46999069Y-50985996D01*
X46999066Y-50985995D01*
X46874774Y-50949500D01*
X46874772Y-50949500D01*
X46745228Y-50949500D01*
X46745225Y-50949500D01*
X46620933Y-50985995D01*
X46620926Y-50985998D01*
X46511952Y-51056031D01*
X46427117Y-51153938D01*
X46373302Y-51271774D01*
X46354867Y-51399997D01*
X46354867Y-51400002D01*
X3300500Y-51400002D01*
X3300500Y-49333102D01*
X33939967Y-49333102D01*
X33958402Y-49461325D01*
X33977442Y-49503015D01*
X34012218Y-49579163D01*
X34097051Y-49677067D01*
X34097052Y-49677068D01*
X34206026Y-49747101D01*
X34206031Y-49747104D01*
X34330328Y-49783600D01*
X34330330Y-49783600D01*
X34459870Y-49783600D01*
X34459872Y-49783600D01*
X34584169Y-49747104D01*
X34693149Y-49677067D01*
X34777982Y-49579163D01*
X34831797Y-49461326D01*
X34850233Y-49333100D01*
X34831797Y-49204874D01*
X34792214Y-49118200D01*
X43914168Y-49118200D01*
X43932603Y-49246423D01*
X43972187Y-49333097D01*
X43986419Y-49364261D01*
X44053800Y-49442024D01*
X44077617Y-49498383D01*
X44063758Y-49557978D01*
X44053800Y-49571684D01*
X44001432Y-49632121D01*
X43947616Y-49749959D01*
X43929181Y-49878182D01*
X43929181Y-49878187D01*
X43947616Y-50006410D01*
X44001431Y-50124246D01*
X44001432Y-50124248D01*
X44086265Y-50222152D01*
X44086266Y-50222153D01*
X44195240Y-50292186D01*
X44195245Y-50292189D01*
X44319542Y-50328685D01*
X44319544Y-50328685D01*
X44449084Y-50328685D01*
X44449086Y-50328685D01*
X44573383Y-50292189D01*
X44682363Y-50222152D01*
X44767196Y-50124248D01*
X44821011Y-50006411D01*
X44839447Y-49878185D01*
X44821011Y-49749959D01*
X44767196Y-49632122D01*
X44699813Y-49554356D01*
X44675997Y-49497999D01*
X44689856Y-49438404D01*
X44699811Y-49424702D01*
X44752183Y-49364261D01*
X44805998Y-49246424D01*
X44824434Y-49118198D01*
X44805998Y-48989972D01*
X44752183Y-48872135D01*
X44667350Y-48774231D01*
X44667349Y-48774230D01*
X44667348Y-48774229D01*
X44558374Y-48704196D01*
X44558371Y-48704194D01*
X44558370Y-48704194D01*
X44558367Y-48704193D01*
X44434075Y-48667698D01*
X44434073Y-48667698D01*
X44304529Y-48667698D01*
X44304526Y-48667698D01*
X44180234Y-48704193D01*
X44180227Y-48704196D01*
X44071253Y-48774229D01*
X43986418Y-48872136D01*
X43932603Y-48989972D01*
X43914168Y-49118195D01*
X43914168Y-49118200D01*
X34792214Y-49118200D01*
X34777982Y-49087037D01*
X34693149Y-48989133D01*
X34693148Y-48989132D01*
X34693147Y-48989131D01*
X34584173Y-48919098D01*
X34584170Y-48919096D01*
X34584169Y-48919096D01*
X34584166Y-48919095D01*
X34459874Y-48882600D01*
X34459872Y-48882600D01*
X34330328Y-48882600D01*
X34330325Y-48882600D01*
X34206033Y-48919095D01*
X34206026Y-48919098D01*
X34097052Y-48989131D01*
X34012217Y-49087038D01*
X33958402Y-49204874D01*
X33939967Y-49333097D01*
X33939967Y-49333102D01*
X3300500Y-49333102D01*
X3300500Y-47950002D01*
X19294867Y-47950002D01*
X19313302Y-48078225D01*
X19323519Y-48100596D01*
X19367118Y-48196063D01*
X19451345Y-48293268D01*
X19451952Y-48293968D01*
X19559843Y-48363305D01*
X19560931Y-48364004D01*
X19685228Y-48400500D01*
X19685230Y-48400500D01*
X19814770Y-48400500D01*
X19814772Y-48400500D01*
X19939069Y-48364004D01*
X20048049Y-48293967D01*
X20132882Y-48196063D01*
X20186697Y-48078226D01*
X20198267Y-47997754D01*
X20205133Y-47950002D01*
X20205133Y-47949997D01*
X20205033Y-47949302D01*
X22976867Y-47949302D01*
X22995302Y-48077525D01*
X23028401Y-48150000D01*
X23049118Y-48195363D01*
X23049725Y-48196063D01*
X23133952Y-48293268D01*
X23238101Y-48360200D01*
X23242931Y-48363304D01*
X23242933Y-48363304D01*
X23242934Y-48363305D01*
X23245315Y-48364004D01*
X23279299Y-48373982D01*
X23329806Y-48408517D01*
X23350369Y-48466143D01*
X23349401Y-48483060D01*
X23344867Y-48514596D01*
X23344867Y-48514602D01*
X23363302Y-48642825D01*
X23391329Y-48704194D01*
X23417118Y-48760663D01*
X23501951Y-48858567D01*
X23501952Y-48858568D01*
X23596136Y-48919096D01*
X23610931Y-48928604D01*
X23735228Y-48965100D01*
X23735230Y-48965100D01*
X23864770Y-48965100D01*
X23864772Y-48965100D01*
X23989069Y-48928604D01*
X24098049Y-48858567D01*
X24182882Y-48760663D01*
X24236697Y-48642826D01*
X24255133Y-48514600D01*
X24255132Y-48514596D01*
X24236697Y-48386374D01*
X24226160Y-48363301D01*
X24182882Y-48268537D01*
X24098049Y-48170633D01*
X24098048Y-48170632D01*
X24098047Y-48170631D01*
X23989073Y-48100598D01*
X23989070Y-48100596D01*
X23989069Y-48100596D01*
X23952698Y-48089916D01*
X23902192Y-48055381D01*
X23881630Y-47997754D01*
X23882597Y-47980844D01*
X23887133Y-47949300D01*
X23881439Y-47909702D01*
X30464467Y-47909702D01*
X30482902Y-48037925D01*
X30534085Y-48149997D01*
X30536718Y-48155763D01*
X30571636Y-48196061D01*
X30621552Y-48253668D01*
X30730526Y-48323701D01*
X30730531Y-48323704D01*
X30854828Y-48360200D01*
X30854830Y-48360200D01*
X30867745Y-48360200D01*
X30925936Y-48379107D01*
X30961900Y-48428607D01*
X30965737Y-48473289D01*
X30954967Y-48548197D01*
X30954967Y-48548202D01*
X30973402Y-48676425D01*
X31027217Y-48794261D01*
X31027218Y-48794263D01*
X31103761Y-48882600D01*
X31112052Y-48892168D01*
X31168748Y-48928604D01*
X31221031Y-48962204D01*
X31345328Y-48998700D01*
X31345330Y-48998700D01*
X31474870Y-48998700D01*
X31474872Y-48998700D01*
X31599169Y-48962204D01*
X31708149Y-48892167D01*
X31792982Y-48794263D01*
X31846797Y-48676426D01*
X31852942Y-48633684D01*
X31865233Y-48548202D01*
X31865233Y-48548197D01*
X31855022Y-48477177D01*
X31865455Y-48416888D01*
X31909333Y-48374245D01*
X31925116Y-48368100D01*
X31939069Y-48364004D01*
X32048049Y-48293967D01*
X32132882Y-48196063D01*
X32153919Y-48150000D01*
X43156696Y-48150000D01*
X43177781Y-48283127D01*
X43177782Y-48283129D01*
X43237586Y-48400500D01*
X43238972Y-48403220D01*
X43334280Y-48498528D01*
X43454374Y-48559719D01*
X43587500Y-48580804D01*
X43720626Y-48559719D01*
X43840720Y-48498528D01*
X43936028Y-48403220D01*
X43997219Y-48283126D01*
X44018304Y-48150002D01*
X46519866Y-48150002D01*
X46538301Y-48278225D01*
X46577476Y-48364004D01*
X46592117Y-48396063D01*
X46652841Y-48466143D01*
X46676951Y-48493968D01*
X46779262Y-48559719D01*
X46785930Y-48564004D01*
X46910227Y-48600500D01*
X46910229Y-48600500D01*
X47039769Y-48600500D01*
X47039771Y-48600500D01*
X47164068Y-48564004D01*
X47273048Y-48493967D01*
X47357881Y-48396063D01*
X47411696Y-48278226D01*
X47423509Y-48196063D01*
X47430132Y-48150002D01*
X47430132Y-48149997D01*
X47411696Y-48021774D01*
X47378918Y-47950002D01*
X47357881Y-47903937D01*
X47273048Y-47806033D01*
X47273047Y-47806032D01*
X47273046Y-47806031D01*
X47164072Y-47735998D01*
X47164069Y-47735996D01*
X47164068Y-47735996D01*
X47164065Y-47735995D01*
X47039773Y-47699500D01*
X47039771Y-47699500D01*
X46910227Y-47699500D01*
X46910224Y-47699500D01*
X46785932Y-47735995D01*
X46785925Y-47735998D01*
X46676951Y-47806031D01*
X46592116Y-47903938D01*
X46538301Y-48021774D01*
X46519866Y-48149997D01*
X46519866Y-48150002D01*
X44018304Y-48150002D01*
X44018304Y-48150000D01*
X43997219Y-48016874D01*
X43936028Y-47896780D01*
X43840720Y-47801472D01*
X43840717Y-47801470D01*
X43720629Y-47740282D01*
X43720627Y-47740281D01*
X43587500Y-47719196D01*
X43454372Y-47740281D01*
X43454370Y-47740282D01*
X43334282Y-47801470D01*
X43238970Y-47896782D01*
X43177782Y-48016870D01*
X43177781Y-48016872D01*
X43156696Y-48149999D01*
X43156696Y-48150000D01*
X32153919Y-48150000D01*
X32186697Y-48078226D01*
X32198267Y-47997754D01*
X32205133Y-47950002D01*
X32205133Y-47949997D01*
X32186697Y-47821774D01*
X32147523Y-47735996D01*
X32132882Y-47703937D01*
X32048049Y-47606033D01*
X32048048Y-47606032D01*
X32048047Y-47606031D01*
X31939073Y-47535998D01*
X31939070Y-47535996D01*
X31939069Y-47535996D01*
X31936682Y-47535295D01*
X31814774Y-47499500D01*
X31814772Y-47499500D01*
X31685228Y-47499500D01*
X31685225Y-47499500D01*
X31560933Y-47535995D01*
X31560926Y-47535998D01*
X31451951Y-47606032D01*
X31427077Y-47634738D01*
X31374680Y-47666333D01*
X31313720Y-47661096D01*
X31277440Y-47634737D01*
X31217649Y-47565733D01*
X31217648Y-47565732D01*
X31217647Y-47565731D01*
X31108673Y-47495698D01*
X31108670Y-47495696D01*
X31108669Y-47495696D01*
X31108666Y-47495695D01*
X30984374Y-47459200D01*
X30984372Y-47459200D01*
X30854828Y-47459200D01*
X30854825Y-47459200D01*
X30730533Y-47495695D01*
X30730526Y-47495698D01*
X30621552Y-47565731D01*
X30536717Y-47663638D01*
X30482902Y-47781474D01*
X30464467Y-47909697D01*
X30464467Y-47909702D01*
X23881439Y-47909702D01*
X23881439Y-47909700D01*
X23868697Y-47821074D01*
X23857277Y-47796068D01*
X23814882Y-47703237D01*
X23730049Y-47605333D01*
X23730048Y-47605332D01*
X23730047Y-47605331D01*
X23621073Y-47535298D01*
X23621070Y-47535296D01*
X23621069Y-47535296D01*
X23621066Y-47535295D01*
X23496774Y-47498800D01*
X23496772Y-47498800D01*
X23367228Y-47498800D01*
X23367225Y-47498800D01*
X23242933Y-47535295D01*
X23242926Y-47535298D01*
X23133952Y-47605331D01*
X23049117Y-47703238D01*
X22995302Y-47821074D01*
X22976867Y-47949297D01*
X22976867Y-47949302D01*
X20205033Y-47949302D01*
X20186697Y-47821774D01*
X20147523Y-47735996D01*
X20132882Y-47703937D01*
X20048049Y-47606033D01*
X20048048Y-47606032D01*
X20048047Y-47606031D01*
X19939073Y-47535998D01*
X19939070Y-47535996D01*
X19939069Y-47535996D01*
X19936682Y-47535295D01*
X19814774Y-47499500D01*
X19814772Y-47499500D01*
X19685228Y-47499500D01*
X19685225Y-47499500D01*
X19560933Y-47535995D01*
X19560926Y-47535998D01*
X19451952Y-47606031D01*
X19367117Y-47703938D01*
X19313302Y-47821774D01*
X19294867Y-47949997D01*
X19294867Y-47950002D01*
X3300500Y-47950002D01*
X3300500Y-47452102D01*
X9178067Y-47452102D01*
X9196502Y-47580325D01*
X9250317Y-47698161D01*
X9250318Y-47698163D01*
X9335151Y-47796067D01*
X9335152Y-47796068D01*
X9375152Y-47821774D01*
X9444131Y-47866104D01*
X9568428Y-47902600D01*
X9568430Y-47902600D01*
X9697970Y-47902600D01*
X9697972Y-47902600D01*
X9822269Y-47866104D01*
X9931249Y-47796067D01*
X10016082Y-47698163D01*
X10069897Y-47580326D01*
X10088333Y-47452100D01*
X10069897Y-47323874D01*
X10016082Y-47206037D01*
X9931249Y-47108133D01*
X9931248Y-47108132D01*
X9931247Y-47108131D01*
X9822273Y-47038098D01*
X9822270Y-47038096D01*
X9822269Y-47038096D01*
X9822266Y-47038095D01*
X9697974Y-47001600D01*
X9697972Y-47001600D01*
X9568428Y-47001600D01*
X9568425Y-47001600D01*
X9444133Y-47038095D01*
X9444126Y-47038098D01*
X9335152Y-47108131D01*
X9250317Y-47206038D01*
X9196502Y-47323874D01*
X9178067Y-47452097D01*
X9178067Y-47452102D01*
X3300500Y-47452102D01*
X3300500Y-46387500D01*
X45169196Y-46387500D01*
X45190281Y-46520627D01*
X45190282Y-46520629D01*
X45251470Y-46640717D01*
X45251472Y-46640720D01*
X45346780Y-46736028D01*
X45466874Y-46797219D01*
X45600000Y-46818304D01*
X45733126Y-46797219D01*
X45853220Y-46736028D01*
X45948528Y-46640720D01*
X46009719Y-46520626D01*
X46030804Y-46387500D01*
X46009719Y-46254374D01*
X45948528Y-46134280D01*
X45853220Y-46038972D01*
X45853217Y-46038970D01*
X45733129Y-45977782D01*
X45733127Y-45977781D01*
X45600000Y-45956696D01*
X45466872Y-45977781D01*
X45466870Y-45977782D01*
X45346782Y-46038970D01*
X45251470Y-46134282D01*
X45190282Y-46254370D01*
X45190281Y-46254372D01*
X45169196Y-46387499D01*
X45169196Y-46387500D01*
X3300500Y-46387500D01*
X3300500Y-45075001D01*
X18144867Y-45075001D01*
X18163302Y-45203224D01*
X18217117Y-45321060D01*
X18217118Y-45321062D01*
X18290743Y-45406031D01*
X18301952Y-45418967D01*
X18410926Y-45489000D01*
X18410931Y-45489003D01*
X18535228Y-45525499D01*
X18535230Y-45525499D01*
X18664770Y-45525499D01*
X18664772Y-45525499D01*
X18686493Y-45519121D01*
X18747653Y-45520867D01*
X18796107Y-45558228D01*
X18813346Y-45616935D01*
X18812378Y-45628198D01*
X18794867Y-45749995D01*
X18794867Y-45750002D01*
X18813302Y-45878225D01*
X18849139Y-45956696D01*
X18867118Y-45996063D01*
X18951951Y-46093967D01*
X18951952Y-46093968D01*
X19060926Y-46164001D01*
X19060931Y-46164004D01*
X19185228Y-46200500D01*
X19185230Y-46200500D01*
X19314770Y-46200500D01*
X19314772Y-46200500D01*
X19439069Y-46164004D01*
X19548049Y-46093967D01*
X19632882Y-45996063D01*
X19686697Y-45878226D01*
X19705133Y-45750002D01*
X31794867Y-45750002D01*
X31813302Y-45878225D01*
X31849139Y-45956696D01*
X31867118Y-45996063D01*
X31951951Y-46093967D01*
X31951952Y-46093968D01*
X32060926Y-46164001D01*
X32060931Y-46164004D01*
X32185228Y-46200500D01*
X32185230Y-46200500D01*
X32314770Y-46200500D01*
X32314772Y-46200500D01*
X32439069Y-46164004D01*
X32548049Y-46093967D01*
X32632882Y-45996063D01*
X32686697Y-45878226D01*
X32705133Y-45750000D01*
X32705132Y-45749995D01*
X32686697Y-45621774D01*
X32676753Y-45600000D01*
X34319196Y-45600000D01*
X34340281Y-45733127D01*
X34340282Y-45733129D01*
X34401470Y-45853217D01*
X34401472Y-45853220D01*
X34496780Y-45948528D01*
X34616874Y-46009719D01*
X34750000Y-46030804D01*
X34883126Y-46009719D01*
X35003220Y-45948528D01*
X35098528Y-45853220D01*
X35159719Y-45733126D01*
X35180804Y-45600000D01*
X35159719Y-45466874D01*
X35098528Y-45346780D01*
X35003220Y-45251472D01*
X35003217Y-45251470D01*
X34883129Y-45190282D01*
X34883127Y-45190281D01*
X34750000Y-45169196D01*
X34616872Y-45190281D01*
X34616870Y-45190282D01*
X34496782Y-45251470D01*
X34401470Y-45346782D01*
X34340282Y-45466870D01*
X34340281Y-45466872D01*
X34319196Y-45599999D01*
X34319196Y-45600000D01*
X32676753Y-45600000D01*
X32632882Y-45503937D01*
X32548049Y-45406033D01*
X32548048Y-45406032D01*
X32548047Y-45406031D01*
X32439073Y-45335998D01*
X32439070Y-45335996D01*
X32439069Y-45335996D01*
X32439066Y-45335995D01*
X32314774Y-45299500D01*
X32314772Y-45299500D01*
X32185228Y-45299500D01*
X32185225Y-45299500D01*
X32060933Y-45335995D01*
X32060926Y-45335998D01*
X31951952Y-45406031D01*
X31867117Y-45503938D01*
X31813302Y-45621774D01*
X31794867Y-45749997D01*
X31794867Y-45750002D01*
X19705133Y-45750002D01*
X19705133Y-45750000D01*
X19705132Y-45749995D01*
X19686697Y-45621774D01*
X19676753Y-45600000D01*
X19632882Y-45503937D01*
X19548049Y-45406033D01*
X19548048Y-45406032D01*
X19548047Y-45406031D01*
X19439073Y-45335998D01*
X19439070Y-45335996D01*
X19439069Y-45335996D01*
X19439066Y-45335995D01*
X19314774Y-45299500D01*
X19314772Y-45299500D01*
X19185228Y-45299500D01*
X19185226Y-45299500D01*
X19185222Y-45299501D01*
X19163503Y-45305878D01*
X19102342Y-45304130D01*
X19053890Y-45266766D01*
X19036653Y-45208059D01*
X19037621Y-45196799D01*
X19055133Y-45075001D01*
X19055133Y-45074996D01*
X19036697Y-44946773D01*
X19004147Y-44875499D01*
X18982882Y-44828936D01*
X18898049Y-44731032D01*
X18898048Y-44731031D01*
X18898047Y-44731030D01*
X18789073Y-44660997D01*
X18789070Y-44660995D01*
X18789069Y-44660995D01*
X18789066Y-44660994D01*
X18664774Y-44624499D01*
X18664772Y-44624499D01*
X18535228Y-44624499D01*
X18535225Y-44624499D01*
X18410933Y-44660994D01*
X18410926Y-44660997D01*
X18301952Y-44731030D01*
X18217117Y-44828937D01*
X18163302Y-44946773D01*
X18144867Y-45074996D01*
X18144867Y-45075001D01*
X3300500Y-45075001D01*
X3300500Y-44610002D01*
X20144867Y-44610002D01*
X20163302Y-44738225D01*
X20204729Y-44828936D01*
X20217118Y-44856063D01*
X20301951Y-44953967D01*
X20301952Y-44953968D01*
X20410926Y-45024001D01*
X20410931Y-45024004D01*
X20535228Y-45060500D01*
X20535230Y-45060500D01*
X20664770Y-45060500D01*
X20664772Y-45060500D01*
X20789069Y-45024004D01*
X20898049Y-44953967D01*
X20982882Y-44856063D01*
X21036697Y-44738226D01*
X21047801Y-44660994D01*
X21055133Y-44610002D01*
X21055133Y-44609997D01*
X21036697Y-44481774D01*
X21010770Y-44425002D01*
X30257067Y-44425002D01*
X30275502Y-44553225D01*
X30324720Y-44660995D01*
X30329318Y-44671063D01*
X30414151Y-44768967D01*
X30414152Y-44768968D01*
X30507466Y-44828937D01*
X30523131Y-44839004D01*
X30647428Y-44875500D01*
X30647430Y-44875500D01*
X30776970Y-44875500D01*
X30776972Y-44875500D01*
X30901269Y-44839004D01*
X31010249Y-44768967D01*
X31095082Y-44671063D01*
X31148897Y-44553226D01*
X31167333Y-44425000D01*
X31164969Y-44408561D01*
X31148897Y-44296774D01*
X31134857Y-44266031D01*
X31095082Y-44178937D01*
X31080841Y-44162502D01*
X37415967Y-44162502D01*
X37434402Y-44290725D01*
X37467838Y-44363938D01*
X37488218Y-44408563D01*
X37551655Y-44481774D01*
X37573052Y-44506468D01*
X37682026Y-44576501D01*
X37682031Y-44576504D01*
X37806328Y-44613000D01*
X37806330Y-44613000D01*
X37935870Y-44613000D01*
X37935872Y-44613000D01*
X38060169Y-44576504D01*
X38169149Y-44506467D01*
X38253982Y-44408563D01*
X38307797Y-44290726D01*
X38326233Y-44162500D01*
X38307797Y-44034274D01*
X38253982Y-43916437D01*
X38169149Y-43818533D01*
X38169148Y-43818532D01*
X38169147Y-43818531D01*
X38060173Y-43748498D01*
X38060170Y-43748496D01*
X38060169Y-43748496D01*
X38060166Y-43748495D01*
X37935874Y-43712000D01*
X37935872Y-43712000D01*
X37806328Y-43712000D01*
X37806325Y-43712000D01*
X37682033Y-43748495D01*
X37682026Y-43748498D01*
X37573052Y-43818531D01*
X37488217Y-43916438D01*
X37434402Y-44034274D01*
X37415967Y-44162497D01*
X37415967Y-44162502D01*
X31080841Y-44162502D01*
X31010249Y-44081033D01*
X31010248Y-44081032D01*
X31010247Y-44081031D01*
X30901273Y-44010998D01*
X30901270Y-44010996D01*
X30901269Y-44010996D01*
X30901266Y-44010995D01*
X30776974Y-43974500D01*
X30776972Y-43974500D01*
X30647428Y-43974500D01*
X30647425Y-43974500D01*
X30523133Y-44010995D01*
X30523126Y-44010998D01*
X30414152Y-44081031D01*
X30329317Y-44178938D01*
X30275502Y-44296774D01*
X30257067Y-44424997D01*
X30257067Y-44425002D01*
X21010770Y-44425002D01*
X21010769Y-44425000D01*
X20982882Y-44363937D01*
X20898049Y-44266033D01*
X20898048Y-44266032D01*
X20898047Y-44266031D01*
X20789073Y-44195998D01*
X20789070Y-44195996D01*
X20789069Y-44195996D01*
X20789066Y-44195995D01*
X20664774Y-44159500D01*
X20664772Y-44159500D01*
X20535228Y-44159500D01*
X20535225Y-44159500D01*
X20410933Y-44195995D01*
X20410926Y-44195998D01*
X20301952Y-44266031D01*
X20217117Y-44363938D01*
X20163302Y-44481774D01*
X20144867Y-44609997D01*
X20144867Y-44610002D01*
X3300500Y-44610002D01*
X3300500Y-43137702D01*
X26541767Y-43137702D01*
X26560202Y-43265925D01*
X26614017Y-43383761D01*
X26614018Y-43383763D01*
X26698851Y-43481667D01*
X26698852Y-43481668D01*
X26807826Y-43551701D01*
X26807831Y-43551704D01*
X26932128Y-43588200D01*
X26932130Y-43588200D01*
X27061670Y-43588200D01*
X27061672Y-43588200D01*
X27185969Y-43551704D01*
X27294949Y-43481667D01*
X27379782Y-43383763D01*
X27433597Y-43265926D01*
X27452033Y-43137700D01*
X27433597Y-43009474D01*
X27379782Y-42891637D01*
X27294949Y-42793733D01*
X27294948Y-42793732D01*
X27294947Y-42793731D01*
X27185973Y-42723698D01*
X27185970Y-42723696D01*
X27185969Y-42723696D01*
X27185966Y-42723695D01*
X27061674Y-42687200D01*
X27061672Y-42687200D01*
X26932128Y-42687200D01*
X26932125Y-42687200D01*
X26807833Y-42723695D01*
X26807826Y-42723698D01*
X26698852Y-42793731D01*
X26614017Y-42891638D01*
X26560202Y-43009474D01*
X26541767Y-43137697D01*
X26541767Y-43137702D01*
X3300500Y-43137702D01*
X3300500Y-42039502D01*
X24033667Y-42039502D01*
X24052102Y-42167725D01*
X24105917Y-42285561D01*
X24105918Y-42285563D01*
X24190751Y-42383467D01*
X24190752Y-42383468D01*
X24299726Y-42453501D01*
X24299731Y-42453504D01*
X24424028Y-42490000D01*
X24424030Y-42490000D01*
X24553570Y-42490000D01*
X24553572Y-42490000D01*
X24677869Y-42453504D01*
X24786849Y-42383467D01*
X24871682Y-42285563D01*
X24925497Y-42167726D01*
X24943933Y-42039500D01*
X24925497Y-41911274D01*
X24871682Y-41793437D01*
X24786849Y-41695533D01*
X24786848Y-41695532D01*
X24786847Y-41695531D01*
X24677873Y-41625498D01*
X24677870Y-41625496D01*
X24677869Y-41625496D01*
X24677866Y-41625495D01*
X24553574Y-41589000D01*
X24553572Y-41589000D01*
X24424028Y-41589000D01*
X24424025Y-41589000D01*
X24299733Y-41625495D01*
X24299726Y-41625498D01*
X24190752Y-41695531D01*
X24105917Y-41793438D01*
X24052102Y-41911274D01*
X24033667Y-42039497D01*
X24033667Y-42039502D01*
X3300500Y-42039502D01*
X3300500Y-41300002D01*
X7944867Y-41300002D01*
X7963302Y-41428225D01*
X8017117Y-41546061D01*
X8017118Y-41546063D01*
X8085945Y-41625495D01*
X8101952Y-41643968D01*
X8210926Y-41714001D01*
X8210931Y-41714004D01*
X8335228Y-41750500D01*
X8335230Y-41750500D01*
X8464770Y-41750500D01*
X8464772Y-41750500D01*
X8589069Y-41714004D01*
X8698049Y-41643967D01*
X8782882Y-41546063D01*
X8836697Y-41428226D01*
X8855133Y-41300000D01*
X8847240Y-41245102D01*
X34272567Y-41245102D01*
X34291002Y-41373325D01*
X34316075Y-41428225D01*
X34344818Y-41491163D01*
X34429593Y-41589000D01*
X34429652Y-41589068D01*
X34538626Y-41659101D01*
X34538631Y-41659104D01*
X34662928Y-41695600D01*
X34662930Y-41695600D01*
X34792470Y-41695600D01*
X34792472Y-41695600D01*
X34916769Y-41659104D01*
X35025749Y-41589067D01*
X35110582Y-41491163D01*
X35164397Y-41373326D01*
X35182833Y-41245100D01*
X35172290Y-41171774D01*
X35164397Y-41116874D01*
X35110582Y-40999037D01*
X35025749Y-40901133D01*
X35025748Y-40901132D01*
X35025747Y-40901131D01*
X34916773Y-40831098D01*
X34916770Y-40831096D01*
X34916769Y-40831096D01*
X34916766Y-40831095D01*
X34792474Y-40794600D01*
X34792472Y-40794600D01*
X34662928Y-40794600D01*
X34662925Y-40794600D01*
X34538633Y-40831095D01*
X34538626Y-40831098D01*
X34429652Y-40901131D01*
X34344817Y-40999038D01*
X34291002Y-41116874D01*
X34272567Y-41245097D01*
X34272567Y-41245102D01*
X8847240Y-41245102D01*
X8836697Y-41171774D01*
X8782882Y-41053937D01*
X8698049Y-40956033D01*
X8698048Y-40956032D01*
X8698047Y-40956031D01*
X8589073Y-40885998D01*
X8589070Y-40885996D01*
X8589069Y-40885996D01*
X8589066Y-40885995D01*
X8464774Y-40849500D01*
X8464772Y-40849500D01*
X8335228Y-40849500D01*
X8335225Y-40849500D01*
X8210933Y-40885995D01*
X8210926Y-40885998D01*
X8101952Y-40956031D01*
X8017117Y-41053938D01*
X7963302Y-41171774D01*
X7944867Y-41299997D01*
X7944867Y-41300002D01*
X3300500Y-41300002D01*
X3300500Y-40610002D01*
X9944867Y-40610002D01*
X9963302Y-40738225D01*
X9989048Y-40794600D01*
X10017118Y-40856063D01*
X10056171Y-40901133D01*
X10101952Y-40953968D01*
X10172081Y-40999037D01*
X10210931Y-41024004D01*
X10335228Y-41060500D01*
X10335230Y-41060500D01*
X10464770Y-41060500D01*
X10464772Y-41060500D01*
X10589069Y-41024004D01*
X10698049Y-40953967D01*
X10782882Y-40856063D01*
X10836697Y-40738226D01*
X10855133Y-40610000D01*
X10836697Y-40481774D01*
X10782882Y-40363937D01*
X10698049Y-40266033D01*
X10698048Y-40266032D01*
X10698047Y-40266031D01*
X10589073Y-40195998D01*
X10589070Y-40195996D01*
X10589069Y-40195996D01*
X10589066Y-40195995D01*
X10464774Y-40159500D01*
X10464772Y-40159500D01*
X10335228Y-40159500D01*
X10335225Y-40159500D01*
X10210933Y-40195995D01*
X10210926Y-40195998D01*
X10101952Y-40266031D01*
X10017117Y-40363938D01*
X9963302Y-40481774D01*
X9944867Y-40609997D01*
X9944867Y-40610002D01*
X3300500Y-40610002D01*
X3300500Y-39224102D01*
X13598167Y-39224102D01*
X13616602Y-39352325D01*
X13670418Y-39470163D01*
X13725222Y-39533412D01*
X13749039Y-39589771D01*
X13740456Y-39639368D01*
X13690901Y-39747876D01*
X13672467Y-39876097D01*
X13672467Y-39876102D01*
X13690902Y-40004325D01*
X13744717Y-40122161D01*
X13744718Y-40122163D01*
X13829551Y-40220067D01*
X13829552Y-40220068D01*
X13938526Y-40290101D01*
X13938531Y-40290104D01*
X14062828Y-40326600D01*
X14062830Y-40326600D01*
X14192370Y-40326600D01*
X14192372Y-40326600D01*
X14316669Y-40290104D01*
X14425649Y-40220067D01*
X14510482Y-40122163D01*
X14564297Y-40004326D01*
X14577600Y-39911800D01*
X14582733Y-39876102D01*
X14582733Y-39876097D01*
X14564297Y-39747874D01*
X14560992Y-39740638D01*
X14510482Y-39630037D01*
X14456786Y-39568067D01*
X14455677Y-39566787D01*
X14431860Y-39510428D01*
X14440444Y-39460830D01*
X14489997Y-39352325D01*
X14492600Y-39334225D01*
X14497451Y-39300487D01*
X16264200Y-39300487D01*
X16304637Y-39464544D01*
X16304638Y-39464547D01*
X16383163Y-39614164D01*
X16383163Y-39614165D01*
X16495209Y-39740638D01*
X16571010Y-39792959D01*
X16634271Y-39836625D01*
X16792261Y-39896543D01*
X16917915Y-39911800D01*
X16917920Y-39911800D01*
X17002080Y-39911800D01*
X17002085Y-39911800D01*
X17127739Y-39896543D01*
X17285729Y-39836625D01*
X17424789Y-39740639D01*
X17424790Y-39740638D01*
X17536836Y-39614165D01*
X17536836Y-39614164D01*
X17536835Y-39614164D01*
X17536838Y-39614162D01*
X17572140Y-39546900D01*
X21026765Y-39546900D01*
X21045200Y-39675123D01*
X21075121Y-39740639D01*
X21099016Y-39792961D01*
X21171053Y-39876097D01*
X21183850Y-39890866D01*
X21292824Y-39960899D01*
X21292829Y-39960902D01*
X21417126Y-39997398D01*
X21417128Y-39997398D01*
X21546668Y-39997398D01*
X21546670Y-39997398D01*
X21670967Y-39960902D01*
X21779947Y-39890865D01*
X21864780Y-39792961D01*
X21918595Y-39675124D01*
X21931426Y-39585884D01*
X21937031Y-39546900D01*
X21937031Y-39546895D01*
X21918595Y-39418672D01*
X21864780Y-39300836D01*
X21864780Y-39300835D01*
X21782608Y-39206002D01*
X27712267Y-39206002D01*
X27730702Y-39334225D01*
X27784517Y-39452061D01*
X27784518Y-39452063D01*
X27869351Y-39549967D01*
X27869352Y-39549968D01*
X27969245Y-39614165D01*
X27978331Y-39620004D01*
X28102628Y-39656500D01*
X28102630Y-39656500D01*
X28232170Y-39656500D01*
X28232172Y-39656500D01*
X28356469Y-39620004D01*
X28465449Y-39549967D01*
X28550282Y-39452063D01*
X28604097Y-39334226D01*
X28610242Y-39291484D01*
X28622533Y-39206002D01*
X28622533Y-39205997D01*
X28604097Y-39077774D01*
X28550282Y-38959937D01*
X28465449Y-38862033D01*
X28465448Y-38862032D01*
X28465447Y-38862031D01*
X28356473Y-38791998D01*
X28356470Y-38791996D01*
X28356469Y-38791996D01*
X28356466Y-38791995D01*
X28232174Y-38755500D01*
X28232172Y-38755500D01*
X28102628Y-38755500D01*
X28102625Y-38755500D01*
X27978333Y-38791995D01*
X27978326Y-38791998D01*
X27869352Y-38862031D01*
X27784517Y-38959938D01*
X27730702Y-39077774D01*
X27712267Y-39205997D01*
X27712267Y-39206002D01*
X21782608Y-39206002D01*
X21779947Y-39202931D01*
X21779946Y-39202930D01*
X21779945Y-39202929D01*
X21670971Y-39132896D01*
X21670968Y-39132894D01*
X21670967Y-39132894D01*
X21666281Y-39131518D01*
X21546672Y-39096398D01*
X21546670Y-39096398D01*
X21417126Y-39096398D01*
X21417123Y-39096398D01*
X21292831Y-39132893D01*
X21292824Y-39132896D01*
X21183850Y-39202929D01*
X21099015Y-39300836D01*
X21045200Y-39418672D01*
X21026765Y-39546895D01*
X21026765Y-39546900D01*
X17572140Y-39546900D01*
X17615362Y-39464546D01*
X17655800Y-39300485D01*
X17655800Y-39131515D01*
X17615362Y-38967454D01*
X17536838Y-38817838D01*
X17536836Y-38817836D01*
X17536836Y-38817835D01*
X17536836Y-38817834D01*
X17424790Y-38691361D01*
X17285729Y-38595375D01*
X17127739Y-38535457D01*
X17127737Y-38535456D01*
X17127736Y-38535456D01*
X17002096Y-38520201D01*
X17002090Y-38520200D01*
X17002085Y-38520200D01*
X16917915Y-38520200D01*
X16917910Y-38520200D01*
X16917903Y-38520201D01*
X16792263Y-38535456D01*
X16792261Y-38535457D01*
X16634270Y-38595375D01*
X16495210Y-38691361D01*
X16495209Y-38691361D01*
X16383163Y-38817834D01*
X16383163Y-38817835D01*
X16304638Y-38967452D01*
X16304637Y-38967455D01*
X16264200Y-39131512D01*
X16264200Y-39300487D01*
X14497451Y-39300487D01*
X14508433Y-39224100D01*
X14505830Y-39205997D01*
X14489997Y-39095874D01*
X14436182Y-38978038D01*
X14436182Y-38978037D01*
X14351349Y-38880133D01*
X14351348Y-38880132D01*
X14351347Y-38880131D01*
X14242373Y-38810098D01*
X14242370Y-38810096D01*
X14242369Y-38810096D01*
X14242366Y-38810095D01*
X14118074Y-38773600D01*
X14118072Y-38773600D01*
X13988528Y-38773600D01*
X13988525Y-38773600D01*
X13864233Y-38810095D01*
X13864226Y-38810098D01*
X13755252Y-38880131D01*
X13670417Y-38978038D01*
X13616602Y-39095874D01*
X13598167Y-39224097D01*
X13598167Y-39224102D01*
X3300500Y-39224102D01*
X3300500Y-38284487D01*
X21344200Y-38284487D01*
X21384637Y-38448544D01*
X21384638Y-38448547D01*
X21463163Y-38598164D01*
X21463163Y-38598165D01*
X21575209Y-38724638D01*
X21575305Y-38724704D01*
X21714271Y-38820625D01*
X21872261Y-38880543D01*
X21997915Y-38895800D01*
X21997920Y-38895800D01*
X22082080Y-38895800D01*
X22082085Y-38895800D01*
X22207739Y-38880543D01*
X22365729Y-38820625D01*
X22504789Y-38724639D01*
X22504790Y-38724638D01*
X22616836Y-38598165D01*
X22616836Y-38598164D01*
X22616835Y-38598164D01*
X22616838Y-38598162D01*
X22695362Y-38448546D01*
X22729338Y-38310702D01*
X34931467Y-38310702D01*
X34949902Y-38438925D01*
X34987020Y-38520200D01*
X35003718Y-38556763D01*
X35088551Y-38654667D01*
X35088552Y-38654668D01*
X35145648Y-38691361D01*
X35197531Y-38724704D01*
X35321828Y-38761200D01*
X35321830Y-38761200D01*
X35451370Y-38761200D01*
X35451372Y-38761200D01*
X35575669Y-38724704D01*
X35684649Y-38654667D01*
X35769482Y-38556763D01*
X35823297Y-38438926D01*
X35841733Y-38310700D01*
X35835013Y-38263961D01*
X35845446Y-38203672D01*
X35889324Y-38161030D01*
X35905099Y-38154887D01*
X35943869Y-38143504D01*
X36052849Y-38073467D01*
X36137682Y-37975563D01*
X36191497Y-37857726D01*
X36209933Y-37729500D01*
X36191497Y-37601274D01*
X36178357Y-37572502D01*
X39261467Y-37572502D01*
X39279902Y-37700725D01*
X39293045Y-37729503D01*
X39333718Y-37818563D01*
X39418551Y-37916467D01*
X39418552Y-37916468D01*
X39510503Y-37975561D01*
X39527531Y-37986504D01*
X39651828Y-38023000D01*
X39651830Y-38023000D01*
X39781370Y-38023000D01*
X39781372Y-38023000D01*
X39905669Y-37986504D01*
X40014649Y-37916467D01*
X40099482Y-37818563D01*
X40153297Y-37700726D01*
X40167596Y-37601274D01*
X40171733Y-37572502D01*
X40171733Y-37572497D01*
X40153297Y-37444274D01*
X40147940Y-37432544D01*
X40099482Y-37326437D01*
X40014649Y-37228533D01*
X40014648Y-37228532D01*
X40014647Y-37228531D01*
X39905673Y-37158498D01*
X39905670Y-37158496D01*
X39905669Y-37158496D01*
X39905666Y-37158495D01*
X39781374Y-37122000D01*
X39781372Y-37122000D01*
X39651828Y-37122000D01*
X39651825Y-37122000D01*
X39527533Y-37158495D01*
X39527526Y-37158498D01*
X39418552Y-37228531D01*
X39333717Y-37326438D01*
X39279902Y-37444274D01*
X39261467Y-37572497D01*
X39261467Y-37572502D01*
X36178357Y-37572502D01*
X36137682Y-37483437D01*
X36052849Y-37385533D01*
X36052848Y-37385532D01*
X36052847Y-37385531D01*
X35943873Y-37315498D01*
X35943870Y-37315496D01*
X35943869Y-37315496D01*
X35943866Y-37315495D01*
X35819574Y-37279000D01*
X35819572Y-37279000D01*
X35690028Y-37279000D01*
X35690025Y-37279000D01*
X35565733Y-37315495D01*
X35565726Y-37315498D01*
X35456752Y-37385531D01*
X35371917Y-37483438D01*
X35318102Y-37601274D01*
X35299667Y-37729497D01*
X35299667Y-37729503D01*
X35306386Y-37776237D01*
X35295953Y-37836527D01*
X35252074Y-37879169D01*
X35236287Y-37885315D01*
X35197536Y-37896693D01*
X35197526Y-37896698D01*
X35088552Y-37966731D01*
X35003717Y-38064638D01*
X34949902Y-38182474D01*
X34931467Y-38310697D01*
X34931467Y-38310702D01*
X22729338Y-38310702D01*
X22735800Y-38284485D01*
X22735800Y-38115515D01*
X22695362Y-37951454D01*
X22616838Y-37801838D01*
X22616836Y-37801836D01*
X22616836Y-37801835D01*
X22616836Y-37801834D01*
X22504790Y-37675361D01*
X22365729Y-37579375D01*
X22347593Y-37572497D01*
X22207739Y-37519457D01*
X22207737Y-37519456D01*
X22207736Y-37519456D01*
X22082096Y-37504201D01*
X22082090Y-37504200D01*
X22082085Y-37504200D01*
X21997915Y-37504200D01*
X21997910Y-37504200D01*
X21997903Y-37504201D01*
X21872263Y-37519456D01*
X21872261Y-37519457D01*
X21714270Y-37579375D01*
X21575210Y-37675361D01*
X21575209Y-37675361D01*
X21463163Y-37801834D01*
X21463163Y-37801835D01*
X21384638Y-37951452D01*
X21384637Y-37951455D01*
X21344200Y-38115512D01*
X21344200Y-38284487D01*
X3300500Y-38284487D01*
X3300500Y-37268487D01*
X16264200Y-37268487D01*
X16304637Y-37432544D01*
X16304638Y-37432547D01*
X16383163Y-37582164D01*
X16383163Y-37582165D01*
X16495209Y-37708638D01*
X16571865Y-37761550D01*
X16634271Y-37804625D01*
X16792261Y-37864543D01*
X16917915Y-37879800D01*
X16917920Y-37879800D01*
X17002080Y-37879800D01*
X17002085Y-37879800D01*
X17127739Y-37864543D01*
X17285729Y-37804625D01*
X17424789Y-37708639D01*
X17424790Y-37708638D01*
X17536836Y-37582165D01*
X17536836Y-37582164D01*
X17536835Y-37582164D01*
X17536838Y-37582162D01*
X17615362Y-37432546D01*
X17655800Y-37268485D01*
X17655800Y-37230002D01*
X24544867Y-37230002D01*
X24563302Y-37358225D01*
X24602600Y-37444274D01*
X24617118Y-37476063D01*
X24654718Y-37519456D01*
X24701952Y-37573968D01*
X24810926Y-37644001D01*
X24810931Y-37644004D01*
X24935228Y-37680500D01*
X24935230Y-37680500D01*
X25064770Y-37680500D01*
X25064772Y-37680500D01*
X25189069Y-37644004D01*
X25298049Y-37573967D01*
X25382882Y-37476063D01*
X25436697Y-37358226D01*
X25448088Y-37279000D01*
X25455133Y-37230002D01*
X25944867Y-37230002D01*
X25963302Y-37358225D01*
X26002600Y-37444274D01*
X26017118Y-37476063D01*
X26054718Y-37519456D01*
X26101952Y-37573968D01*
X26210926Y-37644001D01*
X26210931Y-37644004D01*
X26335228Y-37680500D01*
X26335230Y-37680500D01*
X26464770Y-37680500D01*
X26464772Y-37680500D01*
X26589069Y-37644004D01*
X26698049Y-37573967D01*
X26782882Y-37476063D01*
X26836697Y-37358226D01*
X26848088Y-37279000D01*
X26855133Y-37230002D01*
X27344867Y-37230002D01*
X27363302Y-37358225D01*
X27402600Y-37444274D01*
X27417118Y-37476063D01*
X27454718Y-37519456D01*
X27501952Y-37573968D01*
X27610926Y-37644001D01*
X27610931Y-37644004D01*
X27735228Y-37680500D01*
X27735230Y-37680500D01*
X27864770Y-37680500D01*
X27864772Y-37680500D01*
X27989069Y-37644004D01*
X28098049Y-37573967D01*
X28182882Y-37476063D01*
X28236697Y-37358226D01*
X28248088Y-37279000D01*
X28255133Y-37230002D01*
X28744867Y-37230002D01*
X28763302Y-37358225D01*
X28802600Y-37444274D01*
X28817118Y-37476063D01*
X28854718Y-37519456D01*
X28901952Y-37573968D01*
X29010926Y-37644001D01*
X29010931Y-37644004D01*
X29135228Y-37680500D01*
X29135230Y-37680500D01*
X29264770Y-37680500D01*
X29264772Y-37680500D01*
X29389069Y-37644004D01*
X29498049Y-37573967D01*
X29582882Y-37476063D01*
X29636697Y-37358226D01*
X29648088Y-37279000D01*
X29655133Y-37230002D01*
X30144867Y-37230002D01*
X30163302Y-37358225D01*
X30202600Y-37444274D01*
X30217118Y-37476063D01*
X30254718Y-37519456D01*
X30301952Y-37573968D01*
X30410926Y-37644001D01*
X30410931Y-37644004D01*
X30535228Y-37680500D01*
X30535230Y-37680500D01*
X30664770Y-37680500D01*
X30664772Y-37680500D01*
X30789069Y-37644004D01*
X30898049Y-37573967D01*
X30982882Y-37476063D01*
X31036697Y-37358226D01*
X31048088Y-37279000D01*
X31055133Y-37230002D01*
X31055133Y-37229997D01*
X31036697Y-37101774D01*
X30982882Y-36983938D01*
X30982882Y-36983937D01*
X30898049Y-36886033D01*
X30898048Y-36886032D01*
X30898047Y-36886031D01*
X30789073Y-36815998D01*
X30789070Y-36815996D01*
X30789069Y-36815996D01*
X30789066Y-36815995D01*
X30664774Y-36779500D01*
X30664772Y-36779500D01*
X30535228Y-36779500D01*
X30535225Y-36779500D01*
X30410933Y-36815995D01*
X30410926Y-36815998D01*
X30301952Y-36886031D01*
X30217117Y-36983938D01*
X30163302Y-37101774D01*
X30144867Y-37229997D01*
X30144867Y-37230002D01*
X29655133Y-37230002D01*
X29655133Y-37229997D01*
X29636697Y-37101774D01*
X29582882Y-36983938D01*
X29582882Y-36983937D01*
X29498049Y-36886033D01*
X29498048Y-36886032D01*
X29498047Y-36886031D01*
X29389073Y-36815998D01*
X29389070Y-36815996D01*
X29389069Y-36815996D01*
X29389066Y-36815995D01*
X29264774Y-36779500D01*
X29264772Y-36779500D01*
X29135228Y-36779500D01*
X29135225Y-36779500D01*
X29010933Y-36815995D01*
X29010926Y-36815998D01*
X28901952Y-36886031D01*
X28817117Y-36983938D01*
X28763302Y-37101774D01*
X28744867Y-37229997D01*
X28744867Y-37230002D01*
X28255133Y-37230002D01*
X28255133Y-37229997D01*
X28236697Y-37101774D01*
X28182882Y-36983938D01*
X28182882Y-36983937D01*
X28098049Y-36886033D01*
X28098048Y-36886032D01*
X28098047Y-36886031D01*
X27989073Y-36815998D01*
X27989070Y-36815996D01*
X27989069Y-36815996D01*
X27989066Y-36815995D01*
X27864774Y-36779500D01*
X27864772Y-36779500D01*
X27735228Y-36779500D01*
X27735225Y-36779500D01*
X27610933Y-36815995D01*
X27610926Y-36815998D01*
X27501952Y-36886031D01*
X27417117Y-36983938D01*
X27363302Y-37101774D01*
X27344867Y-37229997D01*
X27344867Y-37230002D01*
X26855133Y-37230002D01*
X26855133Y-37229997D01*
X26836697Y-37101774D01*
X26782882Y-36983938D01*
X26782882Y-36983937D01*
X26698049Y-36886033D01*
X26698048Y-36886032D01*
X26698047Y-36886031D01*
X26589073Y-36815998D01*
X26589070Y-36815996D01*
X26589069Y-36815996D01*
X26589066Y-36815995D01*
X26464774Y-36779500D01*
X26464772Y-36779500D01*
X26335228Y-36779500D01*
X26335225Y-36779500D01*
X26210933Y-36815995D01*
X26210926Y-36815998D01*
X26101952Y-36886031D01*
X26017117Y-36983938D01*
X25963302Y-37101774D01*
X25944867Y-37229997D01*
X25944867Y-37230002D01*
X25455133Y-37230002D01*
X25455133Y-37229997D01*
X25436697Y-37101774D01*
X25382882Y-36983938D01*
X25382882Y-36983937D01*
X25298049Y-36886033D01*
X25298048Y-36886032D01*
X25298047Y-36886031D01*
X25189073Y-36815998D01*
X25189070Y-36815996D01*
X25189069Y-36815996D01*
X25189066Y-36815995D01*
X25064774Y-36779500D01*
X25064772Y-36779500D01*
X24935228Y-36779500D01*
X24935225Y-36779500D01*
X24810933Y-36815995D01*
X24810926Y-36815998D01*
X24701952Y-36886031D01*
X24617117Y-36983938D01*
X24563302Y-37101774D01*
X24544867Y-37229997D01*
X24544867Y-37230002D01*
X17655800Y-37230002D01*
X17655800Y-37099515D01*
X17615362Y-36935454D01*
X17536838Y-36785838D01*
X17536836Y-36785836D01*
X17536836Y-36785835D01*
X17536836Y-36785834D01*
X17487993Y-36730702D01*
X38377767Y-36730702D01*
X38396202Y-36858925D01*
X38431153Y-36935455D01*
X38450018Y-36976763D01*
X38534851Y-37074667D01*
X38534852Y-37074668D01*
X38643826Y-37144701D01*
X38643831Y-37144704D01*
X38768128Y-37181200D01*
X38768130Y-37181200D01*
X38897670Y-37181200D01*
X38897672Y-37181200D01*
X39021969Y-37144704D01*
X39130949Y-37074667D01*
X39215782Y-36976763D01*
X39269597Y-36858926D01*
X39275770Y-36815995D01*
X39288033Y-36730702D01*
X39288033Y-36730697D01*
X39269597Y-36602474D01*
X39221165Y-36496424D01*
X39215782Y-36484637D01*
X39130949Y-36386733D01*
X39130948Y-36386732D01*
X39130947Y-36386731D01*
X39021973Y-36316698D01*
X39021970Y-36316696D01*
X39021969Y-36316696D01*
X39021966Y-36316695D01*
X38897674Y-36280200D01*
X38897672Y-36280200D01*
X38768128Y-36280200D01*
X38768125Y-36280200D01*
X38643833Y-36316695D01*
X38643826Y-36316698D01*
X38534852Y-36386731D01*
X38450017Y-36484638D01*
X38396202Y-36602474D01*
X38377767Y-36730697D01*
X38377767Y-36730702D01*
X17487993Y-36730702D01*
X17424790Y-36659361D01*
X17285729Y-36563375D01*
X17127739Y-36503457D01*
X17127737Y-36503456D01*
X17127736Y-36503456D01*
X17002096Y-36488201D01*
X17002090Y-36488200D01*
X17002085Y-36488200D01*
X16917915Y-36488200D01*
X16917910Y-36488200D01*
X16917903Y-36488201D01*
X16792263Y-36503456D01*
X16792261Y-36503457D01*
X16634270Y-36563375D01*
X16495210Y-36659361D01*
X16495209Y-36659361D01*
X16383163Y-36785834D01*
X16383163Y-36785835D01*
X16304638Y-36935452D01*
X16304637Y-36935455D01*
X16264200Y-37099512D01*
X16264200Y-37268487D01*
X3300500Y-37268487D01*
X3300500Y-36083828D01*
X4795623Y-36083828D01*
X4805943Y-36247857D01*
X4856732Y-36404173D01*
X4944797Y-36542939D01*
X5064607Y-36655448D01*
X5064606Y-36655448D01*
X5208630Y-36734626D01*
X5208632Y-36734627D01*
X5367823Y-36775500D01*
X5367826Y-36775500D01*
X5490925Y-36775500D01*
X5613053Y-36760072D01*
X5613054Y-36760071D01*
X5613058Y-36760071D01*
X5765871Y-36699568D01*
X5898837Y-36602963D01*
X6003600Y-36476326D01*
X6054480Y-36368200D01*
X7126668Y-36368200D01*
X7145103Y-36496423D01*
X7166347Y-36542939D01*
X7198919Y-36614261D01*
X7237998Y-36659361D01*
X7283753Y-36712166D01*
X7392727Y-36782199D01*
X7392732Y-36782202D01*
X7517029Y-36818698D01*
X7517031Y-36818698D01*
X7646571Y-36818698D01*
X7646573Y-36818698D01*
X7770870Y-36782202D01*
X7879850Y-36712165D01*
X7964683Y-36614261D01*
X8018498Y-36496424D01*
X8034269Y-36386733D01*
X8036934Y-36368200D01*
X8036934Y-36368195D01*
X8018498Y-36239972D01*
X7964683Y-36122136D01*
X7964683Y-36122135D01*
X7931490Y-36083828D01*
X45895623Y-36083828D01*
X45905943Y-36247857D01*
X45956732Y-36404173D01*
X46044797Y-36542939D01*
X46164607Y-36655448D01*
X46164606Y-36655448D01*
X46308630Y-36734626D01*
X46308632Y-36734627D01*
X46467823Y-36775500D01*
X46467826Y-36775500D01*
X46590925Y-36775500D01*
X46713053Y-36760072D01*
X46713054Y-36760071D01*
X46713058Y-36760071D01*
X46865871Y-36699568D01*
X46998837Y-36602963D01*
X47103600Y-36476326D01*
X47173579Y-36327613D01*
X47204376Y-36166170D01*
X47194056Y-36002140D01*
X47143268Y-35845829D01*
X47143267Y-35845828D01*
X47143267Y-35845826D01*
X47055202Y-35707060D01*
X46935392Y-35594551D01*
X46935393Y-35594551D01*
X46791369Y-35515373D01*
X46632179Y-35474500D01*
X46632177Y-35474500D01*
X46509075Y-35474500D01*
X46386946Y-35489927D01*
X46386943Y-35489928D01*
X46234129Y-35550432D01*
X46234125Y-35550434D01*
X46101162Y-35647037D01*
X45996399Y-35773674D01*
X45926420Y-35922387D01*
X45895624Y-36083823D01*
X45895623Y-36083828D01*
X7931490Y-36083828D01*
X7879850Y-36024231D01*
X7879849Y-36024230D01*
X7879848Y-36024229D01*
X7770874Y-35954196D01*
X7770871Y-35954194D01*
X7770870Y-35954194D01*
X7770867Y-35954193D01*
X7646575Y-35917698D01*
X7646573Y-35917698D01*
X7517029Y-35917698D01*
X7517026Y-35917698D01*
X7392734Y-35954193D01*
X7392727Y-35954196D01*
X7283753Y-36024229D01*
X7198918Y-36122136D01*
X7145103Y-36239972D01*
X7126668Y-36368195D01*
X7126668Y-36368200D01*
X6054480Y-36368200D01*
X6073579Y-36327613D01*
X6104376Y-36166170D01*
X6094056Y-36002140D01*
X6043268Y-35845829D01*
X6043267Y-35845828D01*
X6043267Y-35845826D01*
X5955202Y-35707060D01*
X5835392Y-35594551D01*
X5835393Y-35594551D01*
X5691369Y-35515373D01*
X5532179Y-35474500D01*
X5532177Y-35474500D01*
X5409075Y-35474500D01*
X5286946Y-35489927D01*
X5286943Y-35489928D01*
X5134129Y-35550432D01*
X5134125Y-35550434D01*
X5001162Y-35647037D01*
X4896399Y-35773674D01*
X4826420Y-35922387D01*
X4795624Y-36083823D01*
X4795623Y-36083828D01*
X3300500Y-36083828D01*
X3300500Y-34899102D01*
X27862467Y-34899102D01*
X27880902Y-35027325D01*
X27914314Y-35100485D01*
X27934718Y-35145163D01*
X27998413Y-35218672D01*
X28019552Y-35243068D01*
X28128526Y-35313101D01*
X28128531Y-35313104D01*
X28252828Y-35349600D01*
X28252830Y-35349600D01*
X28382370Y-35349600D01*
X28382372Y-35349600D01*
X28506669Y-35313104D01*
X28615649Y-35243067D01*
X28700482Y-35145163D01*
X28720885Y-35100487D01*
X32764200Y-35100487D01*
X32804637Y-35264544D01*
X32804638Y-35264547D01*
X32883163Y-35414164D01*
X32883163Y-35414165D01*
X32995209Y-35540638D01*
X33071010Y-35592959D01*
X33134271Y-35636625D01*
X33292261Y-35696543D01*
X33417915Y-35711800D01*
X33417920Y-35711800D01*
X33502080Y-35711800D01*
X33502085Y-35711800D01*
X33627739Y-35696543D01*
X33785729Y-35636625D01*
X33924789Y-35540639D01*
X33924790Y-35540638D01*
X34036836Y-35414165D01*
X34036836Y-35414164D01*
X34036835Y-35414164D01*
X34036838Y-35414162D01*
X34072140Y-35346900D01*
X37526765Y-35346900D01*
X37545200Y-35475123D01*
X37575121Y-35540639D01*
X37599016Y-35592961D01*
X37683849Y-35690865D01*
X37683850Y-35690866D01*
X37792824Y-35760899D01*
X37792829Y-35760902D01*
X37917126Y-35797398D01*
X37917128Y-35797398D01*
X38046668Y-35797398D01*
X38046670Y-35797398D01*
X38170967Y-35760902D01*
X38279947Y-35690865D01*
X38364780Y-35592961D01*
X38418595Y-35475124D01*
X38437031Y-35346898D01*
X38432172Y-35313104D01*
X38418595Y-35218672D01*
X38364780Y-35100836D01*
X38364780Y-35100835D01*
X38279947Y-35002931D01*
X38279946Y-35002930D01*
X38279945Y-35002929D01*
X38170971Y-34932896D01*
X38170968Y-34932894D01*
X38170967Y-34932894D01*
X38166281Y-34931518D01*
X38046672Y-34896398D01*
X38046670Y-34896398D01*
X37917126Y-34896398D01*
X37917123Y-34896398D01*
X37792831Y-34932893D01*
X37792824Y-34932896D01*
X37683850Y-35002929D01*
X37599015Y-35100836D01*
X37545200Y-35218672D01*
X37526765Y-35346895D01*
X37526765Y-35346900D01*
X34072140Y-35346900D01*
X34115362Y-35264546D01*
X34155800Y-35100485D01*
X34155800Y-34931515D01*
X34115362Y-34767454D01*
X34036838Y-34617838D01*
X34036836Y-34617836D01*
X34036836Y-34617835D01*
X34036836Y-34617834D01*
X33924790Y-34491361D01*
X33785729Y-34395375D01*
X33719530Y-34370269D01*
X33627739Y-34335457D01*
X33627737Y-34335456D01*
X33627736Y-34335456D01*
X33502096Y-34320201D01*
X33502090Y-34320200D01*
X33502085Y-34320200D01*
X33417915Y-34320200D01*
X33417910Y-34320200D01*
X33417903Y-34320201D01*
X33292263Y-34335456D01*
X33292261Y-34335457D01*
X33134270Y-34395375D01*
X32995210Y-34491361D01*
X32995209Y-34491361D01*
X32883163Y-34617834D01*
X32883163Y-34617835D01*
X32804638Y-34767452D01*
X32804637Y-34767455D01*
X32764200Y-34931512D01*
X32764200Y-35100487D01*
X28720885Y-35100487D01*
X28754297Y-35027326D01*
X28754327Y-35027118D01*
X28754404Y-35026960D01*
X28756292Y-35020532D01*
X28757403Y-35020858D01*
X28781319Y-34972208D01*
X28835432Y-34943651D01*
X28852320Y-34942200D01*
X28952570Y-34942200D01*
X28952572Y-34942200D01*
X29076869Y-34905704D01*
X29185849Y-34835667D01*
X29270682Y-34737763D01*
X29324497Y-34619926D01*
X29334369Y-34551263D01*
X29342933Y-34491702D01*
X29342933Y-34491697D01*
X29324497Y-34363474D01*
X29311701Y-34335456D01*
X29270682Y-34245637D01*
X29185849Y-34147733D01*
X29185848Y-34147732D01*
X29185847Y-34147731D01*
X29076873Y-34077698D01*
X29076870Y-34077696D01*
X29076869Y-34077696D01*
X29076866Y-34077695D01*
X28952574Y-34041200D01*
X28952572Y-34041200D01*
X28823028Y-34041200D01*
X28823025Y-34041200D01*
X28698733Y-34077695D01*
X28698726Y-34077698D01*
X28589752Y-34147731D01*
X28504917Y-34245638D01*
X28451102Y-34363473D01*
X28451071Y-34363694D01*
X28450988Y-34363862D01*
X28449107Y-34370269D01*
X28447997Y-34369943D01*
X28424072Y-34418600D01*
X28369956Y-34447151D01*
X28353079Y-34448600D01*
X28252825Y-34448600D01*
X28128533Y-34485095D01*
X28128526Y-34485098D01*
X28019552Y-34555131D01*
X27934717Y-34653038D01*
X27880902Y-34770874D01*
X27862467Y-34899097D01*
X27862467Y-34899102D01*
X3300500Y-34899102D01*
X3300500Y-34305202D01*
X25123667Y-34305202D01*
X25142102Y-34433425D01*
X25183759Y-34524639D01*
X25195918Y-34551263D01*
X25253602Y-34617835D01*
X25280752Y-34649168D01*
X25389726Y-34719201D01*
X25389731Y-34719204D01*
X25514028Y-34755700D01*
X25514030Y-34755700D01*
X25643570Y-34755700D01*
X25643572Y-34755700D01*
X25767869Y-34719204D01*
X25876849Y-34649167D01*
X25961682Y-34551263D01*
X26015497Y-34433426D01*
X26031776Y-34320201D01*
X26033933Y-34305202D01*
X26033933Y-34305197D01*
X26015497Y-34176974D01*
X25973258Y-34084485D01*
X25961682Y-34059137D01*
X25876849Y-33961233D01*
X25876848Y-33961232D01*
X25876847Y-33961231D01*
X25767873Y-33891198D01*
X25767870Y-33891196D01*
X25767869Y-33891196D01*
X25767866Y-33891195D01*
X25643574Y-33854700D01*
X25643572Y-33854700D01*
X25514028Y-33854700D01*
X25514025Y-33854700D01*
X25389733Y-33891195D01*
X25389726Y-33891198D01*
X25280752Y-33961231D01*
X25195917Y-34059138D01*
X25142102Y-34176974D01*
X25123667Y-34305197D01*
X25123667Y-34305202D01*
X3300500Y-34305202D01*
X3300500Y-32608502D01*
X31243867Y-32608502D01*
X31262302Y-32736725D01*
X31299557Y-32818300D01*
X31316118Y-32854563D01*
X31394712Y-32945267D01*
X31400952Y-32952468D01*
X31509926Y-33022501D01*
X31509931Y-33022504D01*
X31634228Y-33059000D01*
X31634230Y-33059000D01*
X31763770Y-33059000D01*
X31763772Y-33059000D01*
X31800550Y-33048201D01*
X31861710Y-33049948D01*
X31910163Y-33087311D01*
X31927401Y-33146018D01*
X31906839Y-33203645D01*
X31903261Y-33208021D01*
X31885918Y-33228036D01*
X31832102Y-33345874D01*
X31812659Y-33481108D01*
X31810949Y-33480862D01*
X31794760Y-33530691D01*
X31745260Y-33566655D01*
X31714667Y-33571500D01*
X31669325Y-33571500D01*
X31545033Y-33607995D01*
X31545026Y-33607998D01*
X31436052Y-33678031D01*
X31351217Y-33775938D01*
X31297402Y-33893774D01*
X31278967Y-34021997D01*
X31278967Y-34022002D01*
X31297402Y-34150225D01*
X31340976Y-34245637D01*
X31351218Y-34268063D01*
X31434227Y-34363862D01*
X31436052Y-34365968D01*
X31545026Y-34436001D01*
X31545031Y-34436004D01*
X31669328Y-34472500D01*
X31669330Y-34472500D01*
X31798870Y-34472500D01*
X31798872Y-34472500D01*
X31923169Y-34436004D01*
X32032149Y-34365967D01*
X32116982Y-34268063D01*
X32170797Y-34150226D01*
X32180248Y-34084487D01*
X37844200Y-34084487D01*
X37884637Y-34248544D01*
X37884638Y-34248547D01*
X37963163Y-34398164D01*
X37963163Y-34398165D01*
X38075209Y-34524638D01*
X38119386Y-34555131D01*
X38214271Y-34620625D01*
X38372261Y-34680543D01*
X38497915Y-34695800D01*
X38497920Y-34695800D01*
X38582080Y-34695800D01*
X38582085Y-34695800D01*
X38707739Y-34680543D01*
X38865729Y-34620625D01*
X39004789Y-34524639D01*
X39004790Y-34524638D01*
X39116836Y-34398165D01*
X39116836Y-34398164D01*
X39116835Y-34398164D01*
X39116838Y-34398162D01*
X39195362Y-34248546D01*
X39235800Y-34084485D01*
X39235800Y-33915515D01*
X39195362Y-33751454D01*
X39116838Y-33601838D01*
X39116836Y-33601836D01*
X39116836Y-33601835D01*
X39116836Y-33601834D01*
X39004790Y-33475361D01*
X38865729Y-33379375D01*
X38828442Y-33365234D01*
X38707739Y-33319457D01*
X38707737Y-33319456D01*
X38707736Y-33319456D01*
X38582096Y-33304201D01*
X38582090Y-33304200D01*
X38582085Y-33304200D01*
X38497915Y-33304200D01*
X38497910Y-33304200D01*
X38497903Y-33304201D01*
X38372263Y-33319456D01*
X38372261Y-33319457D01*
X38214270Y-33379375D01*
X38075210Y-33475361D01*
X38075209Y-33475361D01*
X37963163Y-33601834D01*
X37963163Y-33601835D01*
X37884638Y-33751452D01*
X37884637Y-33751455D01*
X37844200Y-33915512D01*
X37844200Y-34084487D01*
X32180248Y-34084487D01*
X32181225Y-34077695D01*
X32190241Y-34014991D01*
X32191950Y-34015236D01*
X32208140Y-33965409D01*
X32257640Y-33929445D01*
X32288233Y-33924600D01*
X32333570Y-33924600D01*
X32333572Y-33924600D01*
X32457869Y-33888104D01*
X32566849Y-33818067D01*
X32651682Y-33720163D01*
X32705497Y-33602326D01*
X32711642Y-33559584D01*
X32723933Y-33474102D01*
X32723933Y-33467019D01*
X32726037Y-33467019D01*
X32734764Y-33416586D01*
X32778641Y-33373943D01*
X32839203Y-33365234D01*
X32893318Y-33393786D01*
X32896426Y-33397135D01*
X32995209Y-33508638D01*
X33027159Y-33530691D01*
X33134271Y-33604625D01*
X33292261Y-33664543D01*
X33417915Y-33679800D01*
X33417920Y-33679800D01*
X33502080Y-33679800D01*
X33502085Y-33679800D01*
X33627739Y-33664543D01*
X33785729Y-33604625D01*
X33924789Y-33508639D01*
X33924790Y-33508638D01*
X34036836Y-33382165D01*
X34036836Y-33382164D01*
X34036835Y-33382164D01*
X34036838Y-33382162D01*
X34115362Y-33232546D01*
X34155800Y-33068485D01*
X34155800Y-32899515D01*
X34115362Y-32735454D01*
X34036838Y-32585838D01*
X34036836Y-32585836D01*
X34036836Y-32585835D01*
X34036836Y-32585834D01*
X33924790Y-32459361D01*
X33792143Y-32367802D01*
X35482067Y-32367802D01*
X35500502Y-32496025D01*
X35551867Y-32608497D01*
X35554318Y-32613863D01*
X35639151Y-32711767D01*
X35639152Y-32711768D01*
X35677988Y-32736726D01*
X35748131Y-32781804D01*
X35872428Y-32818300D01*
X35872430Y-32818300D01*
X36001970Y-32818300D01*
X36001972Y-32818300D01*
X36126269Y-32781804D01*
X36235249Y-32711767D01*
X36320082Y-32613863D01*
X36325818Y-32601302D01*
X37184167Y-32601302D01*
X37202602Y-32729525D01*
X37205891Y-32736726D01*
X37256418Y-32847363D01*
X37301610Y-32899518D01*
X37341252Y-32945268D01*
X37419082Y-32995286D01*
X37450231Y-33015304D01*
X37574528Y-33051800D01*
X37574530Y-33051800D01*
X37704070Y-33051800D01*
X37704072Y-33051800D01*
X37828369Y-33015304D01*
X37937349Y-32945267D01*
X38022182Y-32847363D01*
X38075997Y-32729526D01*
X38094433Y-32601300D01*
X38092209Y-32585835D01*
X38075997Y-32473074D01*
X38065262Y-32449568D01*
X38022182Y-32355237D01*
X37937349Y-32257333D01*
X37937348Y-32257332D01*
X37937347Y-32257331D01*
X37828373Y-32187298D01*
X37828370Y-32187296D01*
X37828369Y-32187296D01*
X37828366Y-32187295D01*
X37704074Y-32150800D01*
X37704072Y-32150800D01*
X37574528Y-32150800D01*
X37574525Y-32150800D01*
X37450233Y-32187295D01*
X37450226Y-32187298D01*
X37341252Y-32257331D01*
X37256417Y-32355238D01*
X37202602Y-32473074D01*
X37184167Y-32601297D01*
X37184167Y-32601302D01*
X36325818Y-32601302D01*
X36373897Y-32496026D01*
X36392333Y-32367800D01*
X36380888Y-32288201D01*
X36373897Y-32239574D01*
X36367846Y-32226325D01*
X36320082Y-32121737D01*
X36235249Y-32023833D01*
X36235248Y-32023832D01*
X36235247Y-32023831D01*
X36126273Y-31953798D01*
X36126270Y-31953796D01*
X36126269Y-31953796D01*
X36126266Y-31953795D01*
X36001974Y-31917300D01*
X36001972Y-31917300D01*
X35872428Y-31917300D01*
X35872425Y-31917300D01*
X35748133Y-31953795D01*
X35748126Y-31953798D01*
X35639152Y-32023831D01*
X35554317Y-32121738D01*
X35500502Y-32239574D01*
X35482067Y-32367797D01*
X35482067Y-32367802D01*
X33792143Y-32367802D01*
X33785729Y-32363375D01*
X33783256Y-32362437D01*
X33627739Y-32303457D01*
X33627737Y-32303456D01*
X33627736Y-32303456D01*
X33502096Y-32288201D01*
X33502090Y-32288200D01*
X33502085Y-32288200D01*
X33417915Y-32288200D01*
X33417910Y-32288200D01*
X33417903Y-32288201D01*
X33292263Y-32303456D01*
X33292261Y-32303457D01*
X33134270Y-32363375D01*
X32995210Y-32459361D01*
X32995209Y-32459361D01*
X32883163Y-32585834D01*
X32883163Y-32585835D01*
X32804638Y-32735452D01*
X32804637Y-32735455D01*
X32764200Y-32899512D01*
X32764200Y-33068486D01*
X32765442Y-33073525D01*
X32761006Y-33134550D01*
X32721548Y-33181312D01*
X32662139Y-33195950D01*
X32605472Y-33172874D01*
X32594497Y-33162041D01*
X32566849Y-33130133D01*
X32566848Y-33130132D01*
X32457873Y-33060098D01*
X32457870Y-33060096D01*
X32457869Y-33060096D01*
X32457866Y-33060095D01*
X32333574Y-33023600D01*
X32333572Y-33023600D01*
X32204028Y-33023600D01*
X32204026Y-33023600D01*
X32167247Y-33034399D01*
X32106087Y-33032650D01*
X32057635Y-32995286D01*
X32040398Y-32936578D01*
X32060961Y-32878952D01*
X32064510Y-32874611D01*
X32081882Y-32854563D01*
X32135697Y-32736726D01*
X32154133Y-32608500D01*
X32153097Y-32601297D01*
X32135697Y-32480274D01*
X32121673Y-32449567D01*
X32081882Y-32362437D01*
X31997049Y-32264533D01*
X31997048Y-32264532D01*
X31997047Y-32264531D01*
X31888073Y-32194498D01*
X31888070Y-32194496D01*
X31888069Y-32194496D01*
X31888066Y-32194495D01*
X31763774Y-32158000D01*
X31763772Y-32158000D01*
X31634228Y-32158000D01*
X31634225Y-32158000D01*
X31509933Y-32194495D01*
X31509926Y-32194498D01*
X31400952Y-32264531D01*
X31316117Y-32362438D01*
X31262302Y-32480274D01*
X31243867Y-32608497D01*
X31243867Y-32608502D01*
X3300500Y-32608502D01*
X3300500Y-31833828D01*
X4795623Y-31833828D01*
X4805943Y-31997857D01*
X4856732Y-32154173D01*
X4944797Y-32292939D01*
X4944798Y-32292940D01*
X4957214Y-32304599D01*
X5064607Y-32405448D01*
X5064606Y-32405448D01*
X5187617Y-32473074D01*
X5208632Y-32484627D01*
X5367823Y-32525500D01*
X5367826Y-32525500D01*
X5490925Y-32525500D01*
X5613053Y-32510072D01*
X5613054Y-32510071D01*
X5613058Y-32510071D01*
X5765871Y-32449568D01*
X5898837Y-32352963D01*
X6003600Y-32226326D01*
X6073579Y-32077613D01*
X6097199Y-31953795D01*
X6104375Y-31916176D01*
X6104376Y-31916170D01*
X6100471Y-31854102D01*
X26541767Y-31854102D01*
X26560202Y-31982325D01*
X26614017Y-32100161D01*
X26614018Y-32100163D01*
X26698851Y-32198067D01*
X26698852Y-32198068D01*
X26791071Y-32257333D01*
X26807831Y-32268104D01*
X26932128Y-32304600D01*
X26932130Y-32304600D01*
X27061670Y-32304600D01*
X27061672Y-32304600D01*
X27185969Y-32268104D01*
X27294949Y-32198067D01*
X27379782Y-32100163D01*
X27433597Y-31982326D01*
X27452033Y-31854100D01*
X27449118Y-31833828D01*
X45895623Y-31833828D01*
X45905943Y-31997857D01*
X45956732Y-32154173D01*
X46044797Y-32292939D01*
X46044798Y-32292940D01*
X46057214Y-32304599D01*
X46164607Y-32405448D01*
X46164606Y-32405448D01*
X46287617Y-32473074D01*
X46308632Y-32484627D01*
X46467823Y-32525500D01*
X46467826Y-32525500D01*
X46590925Y-32525500D01*
X46713053Y-32510072D01*
X46713054Y-32510071D01*
X46713058Y-32510071D01*
X46865871Y-32449568D01*
X46998837Y-32352963D01*
X47103600Y-32226326D01*
X47173579Y-32077613D01*
X47197199Y-31953795D01*
X47204375Y-31916176D01*
X47204376Y-31916170D01*
X47200471Y-31854097D01*
X47194056Y-31752140D01*
X47143268Y-31595829D01*
X47143267Y-31595828D01*
X47143267Y-31595826D01*
X47055202Y-31457060D01*
X46935392Y-31344551D01*
X46935393Y-31344551D01*
X46791369Y-31265373D01*
X46632179Y-31224500D01*
X46632177Y-31224500D01*
X46509075Y-31224500D01*
X46386946Y-31239927D01*
X46386943Y-31239928D01*
X46234129Y-31300432D01*
X46234125Y-31300434D01*
X46101162Y-31397037D01*
X45996399Y-31523674D01*
X45926420Y-31672387D01*
X45895624Y-31833823D01*
X45895623Y-31833828D01*
X27449118Y-31833828D01*
X27433597Y-31725874D01*
X27379782Y-31608038D01*
X27379782Y-31608037D01*
X27294949Y-31510133D01*
X27294948Y-31510132D01*
X27294947Y-31510131D01*
X27185973Y-31440098D01*
X27185970Y-31440096D01*
X27185969Y-31440096D01*
X27185966Y-31440095D01*
X27061674Y-31403600D01*
X27061672Y-31403600D01*
X26932128Y-31403600D01*
X26932125Y-31403600D01*
X26807833Y-31440095D01*
X26807826Y-31440098D01*
X26698852Y-31510131D01*
X26614017Y-31608038D01*
X26560202Y-31725874D01*
X26541767Y-31854097D01*
X26541767Y-31854102D01*
X6100471Y-31854102D01*
X6100471Y-31854097D01*
X6094056Y-31752140D01*
X6043268Y-31595829D01*
X6043267Y-31595828D01*
X6043267Y-31595826D01*
X5955202Y-31457060D01*
X5835392Y-31344551D01*
X5835393Y-31344551D01*
X5691369Y-31265373D01*
X5532179Y-31224500D01*
X5532177Y-31224500D01*
X5409075Y-31224500D01*
X5286946Y-31239927D01*
X5286943Y-31239928D01*
X5134129Y-31300432D01*
X5134125Y-31300434D01*
X5001162Y-31397037D01*
X4896399Y-31523674D01*
X4826420Y-31672387D01*
X4795624Y-31833823D01*
X4795623Y-31833828D01*
X3300500Y-31833828D01*
X3300500Y-31133302D01*
X24100367Y-31133302D01*
X24118802Y-31261525D01*
X24156720Y-31344552D01*
X24172618Y-31379363D01*
X24239942Y-31457060D01*
X24257452Y-31477268D01*
X24366426Y-31547301D01*
X24366431Y-31547304D01*
X24490728Y-31583800D01*
X24490730Y-31583800D01*
X24620270Y-31583800D01*
X24620272Y-31583800D01*
X24744569Y-31547304D01*
X24853549Y-31477267D01*
X24938382Y-31379363D01*
X24960879Y-31330102D01*
X34474267Y-31330102D01*
X34492702Y-31458325D01*
X34533337Y-31547301D01*
X34546518Y-31576163D01*
X34629895Y-31672387D01*
X34631352Y-31674068D01*
X34711964Y-31725874D01*
X34740331Y-31744104D01*
X34864628Y-31780600D01*
X34864630Y-31780600D01*
X34994170Y-31780600D01*
X34994172Y-31780600D01*
X35118469Y-31744104D01*
X35227449Y-31674067D01*
X35312282Y-31576163D01*
X35366097Y-31458326D01*
X35377450Y-31379363D01*
X35384533Y-31330102D01*
X35384533Y-31330097D01*
X35366097Y-31201874D01*
X35334780Y-31133300D01*
X35312282Y-31084037D01*
X35227449Y-30986133D01*
X35227448Y-30986132D01*
X35227447Y-30986131D01*
X35171229Y-30950002D01*
X39784867Y-30950002D01*
X39803302Y-31078225D01*
X39857117Y-31196061D01*
X39857118Y-31196063D01*
X39913841Y-31261526D01*
X39941952Y-31293968D01*
X39998175Y-31330100D01*
X40050931Y-31364004D01*
X40175228Y-31400500D01*
X40175230Y-31400500D01*
X40304770Y-31400500D01*
X40304772Y-31400500D01*
X40429069Y-31364004D01*
X40538049Y-31293967D01*
X40622882Y-31196063D01*
X40676697Y-31078226D01*
X40695133Y-30950000D01*
X40690258Y-30916096D01*
X40676697Y-30821774D01*
X40622882Y-30703937D01*
X40538049Y-30606033D01*
X40538048Y-30606032D01*
X40538047Y-30606031D01*
X40429073Y-30535998D01*
X40429070Y-30535996D01*
X40429069Y-30535996D01*
X40429066Y-30535995D01*
X40304774Y-30499500D01*
X40304772Y-30499500D01*
X40175228Y-30499500D01*
X40175225Y-30499500D01*
X40050933Y-30535995D01*
X40050926Y-30535998D01*
X39941952Y-30606031D01*
X39857117Y-30703938D01*
X39803302Y-30821774D01*
X39784867Y-30949997D01*
X39784867Y-30950002D01*
X35171229Y-30950002D01*
X35118473Y-30916098D01*
X35118470Y-30916096D01*
X35118469Y-30916096D01*
X35118466Y-30916095D01*
X34994174Y-30879600D01*
X34994172Y-30879600D01*
X34864628Y-30879600D01*
X34864625Y-30879600D01*
X34740333Y-30916095D01*
X34740326Y-30916098D01*
X34631352Y-30986131D01*
X34546517Y-31084038D01*
X34492702Y-31201874D01*
X34474267Y-31330097D01*
X34474267Y-31330102D01*
X24960879Y-31330102D01*
X24992197Y-31261526D01*
X25010633Y-31133300D01*
X25005701Y-31099000D01*
X24992197Y-31005074D01*
X24967044Y-30949997D01*
X24938382Y-30887237D01*
X24853549Y-30789333D01*
X24853548Y-30789332D01*
X24853547Y-30789331D01*
X24744573Y-30719298D01*
X24744570Y-30719296D01*
X24744569Y-30719296D01*
X24744566Y-30719295D01*
X24620274Y-30682800D01*
X24620272Y-30682800D01*
X24490728Y-30682800D01*
X24490725Y-30682800D01*
X24366433Y-30719295D01*
X24366426Y-30719298D01*
X24257452Y-30789331D01*
X24172617Y-30887238D01*
X24118802Y-31005074D01*
X24100367Y-31133297D01*
X24100367Y-31133302D01*
X3300500Y-31133302D01*
X3300500Y-29558502D01*
X9928767Y-29558502D01*
X9947202Y-29686725D01*
X9973344Y-29743967D01*
X10001018Y-29804563D01*
X10040822Y-29850500D01*
X10085852Y-29902468D01*
X10194826Y-29972501D01*
X10194831Y-29972504D01*
X10319128Y-30009000D01*
X10319130Y-30009000D01*
X10448670Y-30009000D01*
X10448672Y-30009000D01*
X10572969Y-29972504D01*
X10681949Y-29902467D01*
X10766543Y-29804837D01*
X10818937Y-29773242D01*
X10879898Y-29778477D01*
X10926140Y-29818544D01*
X10939354Y-29855580D01*
X10957002Y-29978325D01*
X11010817Y-30096161D01*
X11010818Y-30096163D01*
X11095651Y-30194067D01*
X11095652Y-30194068D01*
X11204626Y-30264101D01*
X11204631Y-30264104D01*
X11328928Y-30300600D01*
X11328930Y-30300600D01*
X11458470Y-30300600D01*
X11458472Y-30300600D01*
X11582769Y-30264104D01*
X11691749Y-30194067D01*
X11776582Y-30096163D01*
X11830397Y-29978326D01*
X11848045Y-29855580D01*
X11848833Y-29850102D01*
X11848833Y-29850097D01*
X11830397Y-29721874D01*
X11795774Y-29646061D01*
X11776582Y-29604037D01*
X11691749Y-29506133D01*
X11691748Y-29506132D01*
X11691747Y-29506131D01*
X11582773Y-29436098D01*
X11582770Y-29436096D01*
X11582769Y-29436096D01*
X11562941Y-29430274D01*
X11459843Y-29400002D01*
X16954867Y-29400002D01*
X16973302Y-29528225D01*
X17019837Y-29630121D01*
X17027118Y-29646063D01*
X17092808Y-29721874D01*
X17111952Y-29743968D01*
X17206237Y-29804561D01*
X17220931Y-29814004D01*
X17345228Y-29850500D01*
X17345230Y-29850500D01*
X17474770Y-29850500D01*
X17474772Y-29850500D01*
X17599069Y-29814004D01*
X17708049Y-29743967D01*
X17792882Y-29646063D01*
X17846697Y-29528226D01*
X17859943Y-29436096D01*
X17865133Y-29400002D01*
X17865133Y-29399997D01*
X17846697Y-29271774D01*
X17839768Y-29256601D01*
X17792882Y-29153937D01*
X17708049Y-29056033D01*
X17708048Y-29056032D01*
X17708047Y-29056031D01*
X17599073Y-28985998D01*
X17599070Y-28985996D01*
X17599069Y-28985996D01*
X17599066Y-28985995D01*
X17474774Y-28949500D01*
X17474772Y-28949500D01*
X17345228Y-28949500D01*
X17345225Y-28949500D01*
X17220933Y-28985995D01*
X17220926Y-28985998D01*
X17111952Y-29056031D01*
X17027117Y-29153938D01*
X16973302Y-29271774D01*
X16954867Y-29399997D01*
X16954867Y-29400002D01*
X11459843Y-29400002D01*
X11458474Y-29399600D01*
X11458472Y-29399600D01*
X11328928Y-29399600D01*
X11328925Y-29399600D01*
X11204633Y-29436095D01*
X11204626Y-29436098D01*
X11095651Y-29506132D01*
X11095649Y-29506133D01*
X11011056Y-29603761D01*
X10958661Y-29635357D01*
X10897700Y-29630121D01*
X10851459Y-29590054D01*
X10838245Y-29553019D01*
X10820597Y-29430274D01*
X10766782Y-29312438D01*
X10766782Y-29312437D01*
X10681949Y-29214533D01*
X10681948Y-29214532D01*
X10681947Y-29214531D01*
X10572973Y-29144498D01*
X10572970Y-29144496D01*
X10572969Y-29144496D01*
X10572966Y-29144495D01*
X10448674Y-29108000D01*
X10448672Y-29108000D01*
X10319128Y-29108000D01*
X10319125Y-29108000D01*
X10194833Y-29144495D01*
X10194826Y-29144498D01*
X10085852Y-29214531D01*
X10001017Y-29312438D01*
X9947202Y-29430274D01*
X9928767Y-29558497D01*
X9928767Y-29558502D01*
X3300500Y-29558502D01*
X3300500Y-29099000D01*
X3319407Y-29040809D01*
X3368907Y-29004845D01*
X3399500Y-29000000D01*
X5049999Y-29000000D01*
X5050000Y-29000000D01*
X5050000Y-28631803D01*
X14688065Y-28631803D01*
X14706500Y-28760026D01*
X14723642Y-28797561D01*
X14760316Y-28877864D01*
X14840866Y-28970825D01*
X14845150Y-28975769D01*
X14946355Y-29040809D01*
X14954129Y-29045805D01*
X15078426Y-29082301D01*
X15078428Y-29082301D01*
X15207968Y-29082301D01*
X15207970Y-29082301D01*
X15332267Y-29045805D01*
X15441247Y-28975768D01*
X15526080Y-28877864D01*
X15542184Y-28842602D01*
X23168767Y-28842602D01*
X23187202Y-28970825D01*
X23241017Y-29088661D01*
X23241018Y-29088663D01*
X23325851Y-29186567D01*
X23325852Y-29186568D01*
X23369367Y-29214533D01*
X23434831Y-29256604D01*
X23559128Y-29293100D01*
X23559130Y-29293100D01*
X23688670Y-29293100D01*
X23688672Y-29293100D01*
X23812969Y-29256604D01*
X23921949Y-29186567D01*
X24006782Y-29088663D01*
X24060597Y-28970826D01*
X24079033Y-28842600D01*
X24072557Y-28797561D01*
X24060597Y-28714374D01*
X24006782Y-28596537D01*
X23921949Y-28498633D01*
X23921948Y-28498632D01*
X23921947Y-28498631D01*
X23812973Y-28428598D01*
X23812970Y-28428596D01*
X23812969Y-28428596D01*
X23812966Y-28428595D01*
X23688674Y-28392100D01*
X23688672Y-28392100D01*
X23559128Y-28392100D01*
X23559125Y-28392100D01*
X23434833Y-28428595D01*
X23434826Y-28428598D01*
X23325852Y-28498631D01*
X23241017Y-28596538D01*
X23187202Y-28714374D01*
X23168767Y-28842597D01*
X23168767Y-28842602D01*
X15542184Y-28842602D01*
X15579895Y-28760027D01*
X15586459Y-28714374D01*
X15598331Y-28631803D01*
X15598331Y-28631798D01*
X15579895Y-28503575D01*
X15577637Y-28498631D01*
X15526080Y-28385738D01*
X15441247Y-28287834D01*
X15441246Y-28287833D01*
X15441245Y-28287832D01*
X15332271Y-28217799D01*
X15332268Y-28217797D01*
X15332267Y-28217797D01*
X15332264Y-28217796D01*
X15207972Y-28181301D01*
X15207970Y-28181301D01*
X15078426Y-28181301D01*
X15078423Y-28181301D01*
X14954131Y-28217796D01*
X14954124Y-28217799D01*
X14845150Y-28287832D01*
X14760315Y-28385739D01*
X14706500Y-28503575D01*
X14688065Y-28631798D01*
X14688065Y-28631803D01*
X5050000Y-28631803D01*
X5050000Y-27989202D01*
X18267967Y-27989202D01*
X18286402Y-28117425D01*
X18296832Y-28140263D01*
X18340218Y-28235263D01*
X18425051Y-28333167D01*
X18425052Y-28333168D01*
X18534026Y-28403201D01*
X18534031Y-28403204D01*
X18658328Y-28439700D01*
X18658330Y-28439700D01*
X18787870Y-28439700D01*
X18787872Y-28439700D01*
X18912169Y-28403204D01*
X19021149Y-28333167D01*
X19105982Y-28235263D01*
X19159797Y-28117426D01*
X19178233Y-27989200D01*
X19173445Y-27955901D01*
X19164574Y-27894202D01*
X31813667Y-27894202D01*
X31832102Y-28022425D01*
X31884654Y-28137495D01*
X31885918Y-28140263D01*
X31968233Y-28235261D01*
X31970752Y-28238168D01*
X32066758Y-28299867D01*
X32079731Y-28308204D01*
X32204028Y-28344700D01*
X32204030Y-28344700D01*
X32333570Y-28344700D01*
X32333572Y-28344700D01*
X32457869Y-28308204D01*
X32566849Y-28238167D01*
X32651682Y-28140263D01*
X32705497Y-28022426D01*
X32715062Y-27955902D01*
X36038567Y-27955902D01*
X36057002Y-28084125D01*
X36081377Y-28137498D01*
X36110818Y-28201963D01*
X36185223Y-28287832D01*
X36195652Y-28299868D01*
X36304626Y-28369901D01*
X36304631Y-28369904D01*
X36428928Y-28406400D01*
X36428930Y-28406400D01*
X36558469Y-28406400D01*
X36558472Y-28406400D01*
X36561693Y-28405454D01*
X36564494Y-28405533D01*
X36565482Y-28405392D01*
X36565506Y-28405562D01*
X36622851Y-28407197D01*
X36671306Y-28444556D01*
X36688549Y-28503261D01*
X36687582Y-28514529D01*
X36683302Y-28544295D01*
X36682268Y-28551497D01*
X36682267Y-28551501D01*
X36682267Y-28551502D01*
X36700702Y-28679725D01*
X36754517Y-28797561D01*
X36754518Y-28797563D01*
X36824098Y-28877864D01*
X36839352Y-28895468D01*
X36923428Y-28949500D01*
X36948331Y-28965504D01*
X37072628Y-29002000D01*
X37072630Y-29002000D01*
X37202170Y-29002000D01*
X37202172Y-29002000D01*
X37326469Y-28965504D01*
X37435449Y-28895467D01*
X37520282Y-28797563D01*
X37574097Y-28679726D01*
X37592533Y-28551500D01*
X37587217Y-28514529D01*
X37574097Y-28423274D01*
X37538213Y-28344700D01*
X37520282Y-28305437D01*
X37435449Y-28207533D01*
X37435448Y-28207532D01*
X37435447Y-28207531D01*
X37326473Y-28137498D01*
X37326470Y-28137496D01*
X37326469Y-28137496D01*
X37326466Y-28137495D01*
X37202174Y-28101000D01*
X37202172Y-28101000D01*
X37072628Y-28101000D01*
X37072624Y-28101000D01*
X37069398Y-28101948D01*
X37066593Y-28101867D01*
X37065618Y-28102008D01*
X37065593Y-28101839D01*
X37008237Y-28100198D01*
X36959786Y-28062834D01*
X36942550Y-28004126D01*
X36943518Y-27992867D01*
X36948833Y-27955901D01*
X36948833Y-27955897D01*
X36930397Y-27827674D01*
X36902219Y-27765974D01*
X36876582Y-27709837D01*
X36791749Y-27611933D01*
X36791748Y-27611932D01*
X36791747Y-27611931D01*
X36682773Y-27541898D01*
X36682770Y-27541896D01*
X36682769Y-27541896D01*
X36682766Y-27541895D01*
X36558474Y-27505400D01*
X36558472Y-27505400D01*
X36428928Y-27505400D01*
X36428925Y-27505400D01*
X36304633Y-27541895D01*
X36304626Y-27541898D01*
X36195652Y-27611931D01*
X36110817Y-27709838D01*
X36057002Y-27827674D01*
X36038567Y-27955897D01*
X36038567Y-27955902D01*
X32715062Y-27955902D01*
X32723933Y-27894200D01*
X32714386Y-27827801D01*
X32705497Y-27765974D01*
X32695068Y-27743138D01*
X32651682Y-27648137D01*
X32566849Y-27550233D01*
X32566848Y-27550232D01*
X32566847Y-27550231D01*
X32457873Y-27480198D01*
X32457870Y-27480196D01*
X32457869Y-27480196D01*
X32457866Y-27480195D01*
X32333574Y-27443700D01*
X32333572Y-27443700D01*
X32204028Y-27443700D01*
X32204025Y-27443700D01*
X32079733Y-27480195D01*
X32079726Y-27480198D01*
X31970752Y-27550231D01*
X31885917Y-27648138D01*
X31832102Y-27765974D01*
X31813667Y-27894197D01*
X31813667Y-27894202D01*
X19164574Y-27894202D01*
X19159797Y-27860974D01*
X19105982Y-27743137D01*
X19021149Y-27645233D01*
X19021148Y-27645232D01*
X19021147Y-27645231D01*
X18912173Y-27575198D01*
X18912170Y-27575196D01*
X18912169Y-27575196D01*
X18912166Y-27575195D01*
X18787874Y-27538700D01*
X18787872Y-27538700D01*
X18658328Y-27538700D01*
X18658325Y-27538700D01*
X18534033Y-27575195D01*
X18534026Y-27575198D01*
X18425052Y-27645231D01*
X18340217Y-27743138D01*
X18286402Y-27860974D01*
X18267967Y-27989197D01*
X18267967Y-27989202D01*
X5050000Y-27989202D01*
X5050000Y-26468802D01*
X19150767Y-26468802D01*
X19169202Y-26597025D01*
X19199761Y-26663938D01*
X19223018Y-26714863D01*
X19298759Y-26802274D01*
X19307852Y-26812768D01*
X19416826Y-26882801D01*
X19416831Y-26882804D01*
X19541128Y-26919300D01*
X19576172Y-26919300D01*
X19634363Y-26938207D01*
X19670327Y-26987707D01*
X19674164Y-27004211D01*
X19682002Y-27058724D01*
X19687075Y-27069831D01*
X19735818Y-27176563D01*
X19796829Y-27246974D01*
X19820652Y-27274468D01*
X19897732Y-27324004D01*
X19929631Y-27344504D01*
X20053928Y-27381000D01*
X20053930Y-27381000D01*
X20183470Y-27381000D01*
X20183472Y-27381000D01*
X20203219Y-27375202D01*
X25123667Y-27375202D01*
X25142102Y-27503425D01*
X25191656Y-27611931D01*
X25195918Y-27621263D01*
X25280751Y-27719167D01*
X25280752Y-27719168D01*
X25340814Y-27757767D01*
X25389731Y-27789204D01*
X25514028Y-27825700D01*
X25514030Y-27825700D01*
X25643570Y-27825700D01*
X25643572Y-27825700D01*
X25767869Y-27789204D01*
X25876849Y-27719167D01*
X25961682Y-27621263D01*
X26015497Y-27503426D01*
X26028383Y-27413802D01*
X27716767Y-27413802D01*
X27735202Y-27542025D01*
X27783663Y-27648137D01*
X27789018Y-27659863D01*
X27861174Y-27743137D01*
X27873852Y-27757768D01*
X27982826Y-27827801D01*
X27982831Y-27827804D01*
X28107128Y-27864300D01*
X28107130Y-27864300D01*
X28236670Y-27864300D01*
X28236672Y-27864300D01*
X28360969Y-27827804D01*
X28469949Y-27757767D01*
X28554782Y-27659863D01*
X28608597Y-27542026D01*
X28614742Y-27499284D01*
X28627033Y-27413802D01*
X28627033Y-27413797D01*
X28608597Y-27285574D01*
X28603525Y-27274468D01*
X28554782Y-27167737D01*
X28469949Y-27069833D01*
X28469948Y-27069832D01*
X28469947Y-27069831D01*
X28360973Y-26999798D01*
X28360970Y-26999796D01*
X28360969Y-26999796D01*
X28360966Y-26999795D01*
X28236674Y-26963300D01*
X28236672Y-26963300D01*
X28107128Y-26963300D01*
X28107125Y-26963300D01*
X27982833Y-26999795D01*
X27982826Y-26999798D01*
X27873852Y-27069831D01*
X27789017Y-27167738D01*
X27735202Y-27285574D01*
X27716767Y-27413797D01*
X27716767Y-27413802D01*
X26028383Y-27413802D01*
X26033099Y-27381000D01*
X26033933Y-27375202D01*
X26033933Y-27375197D01*
X26015497Y-27246974D01*
X25983340Y-27176561D01*
X25961682Y-27129137D01*
X25876849Y-27031233D01*
X25876848Y-27031232D01*
X25876847Y-27031231D01*
X25767873Y-26961198D01*
X25767870Y-26961196D01*
X25767869Y-26961196D01*
X25767866Y-26961195D01*
X25643574Y-26924700D01*
X25643572Y-26924700D01*
X25514028Y-26924700D01*
X25514025Y-26924700D01*
X25389733Y-26961195D01*
X25389726Y-26961198D01*
X25280752Y-27031231D01*
X25195917Y-27129138D01*
X25142102Y-27246974D01*
X25123667Y-27375197D01*
X25123667Y-27375202D01*
X20203219Y-27375202D01*
X20307769Y-27344504D01*
X20416749Y-27274467D01*
X20501582Y-27176563D01*
X20555397Y-27058726D01*
X20569117Y-26963300D01*
X20573833Y-26930502D01*
X20573833Y-26930497D01*
X20570886Y-26910002D01*
X21914867Y-26910002D01*
X21933302Y-27038225D01*
X21987117Y-27156061D01*
X21987118Y-27156063D01*
X22065892Y-27246974D01*
X22071952Y-27253968D01*
X22180926Y-27324001D01*
X22180931Y-27324004D01*
X22305228Y-27360500D01*
X22305230Y-27360500D01*
X22434770Y-27360500D01*
X22434772Y-27360500D01*
X22559069Y-27324004D01*
X22668049Y-27253967D01*
X22752882Y-27156063D01*
X22806697Y-27038226D01*
X22812842Y-26995484D01*
X22825133Y-26910002D01*
X22825133Y-26909997D01*
X22806697Y-26781774D01*
X22797577Y-26761804D01*
X22752882Y-26663937D01*
X22668049Y-26566033D01*
X22668048Y-26566032D01*
X22668047Y-26566031D01*
X22559073Y-26495998D01*
X22559070Y-26495996D01*
X22559069Y-26495996D01*
X22559066Y-26495995D01*
X22434774Y-26459500D01*
X22434772Y-26459500D01*
X22305228Y-26459500D01*
X22305225Y-26459500D01*
X22180933Y-26495995D01*
X22180926Y-26495998D01*
X22071952Y-26566031D01*
X21987117Y-26663938D01*
X21933302Y-26781774D01*
X21914867Y-26909997D01*
X21914867Y-26910002D01*
X20570886Y-26910002D01*
X20555397Y-26802274D01*
X20504930Y-26691768D01*
X20501582Y-26684437D01*
X20416749Y-26586533D01*
X20416748Y-26586532D01*
X20416747Y-26586531D01*
X20307773Y-26516498D01*
X20307770Y-26516496D01*
X20307769Y-26516496D01*
X20307766Y-26516495D01*
X20183474Y-26480000D01*
X20183472Y-26480000D01*
X20148428Y-26480000D01*
X20090237Y-26461093D01*
X20054273Y-26411593D01*
X20050436Y-26395089D01*
X20042597Y-26340575D01*
X20007547Y-26263826D01*
X19988782Y-26222737D01*
X19913280Y-26135602D01*
X24603367Y-26135602D01*
X24621802Y-26263825D01*
X24675617Y-26381661D01*
X24675618Y-26381663D01*
X24757382Y-26476025D01*
X24760452Y-26479568D01*
X24869426Y-26549601D01*
X24869431Y-26549604D01*
X24993728Y-26586100D01*
X24993730Y-26586100D01*
X25123270Y-26586100D01*
X25123272Y-26586100D01*
X25247569Y-26549604D01*
X25356549Y-26479567D01*
X25441382Y-26381663D01*
X25456846Y-26347802D01*
X33829067Y-26347802D01*
X33847502Y-26476025D01*
X33897970Y-26586533D01*
X33901318Y-26593863D01*
X33986151Y-26691767D01*
X33986152Y-26691768D01*
X34022086Y-26714861D01*
X34095131Y-26761804D01*
X34219428Y-26798300D01*
X34219430Y-26798300D01*
X34348970Y-26798300D01*
X34348972Y-26798300D01*
X34473269Y-26761804D01*
X34582249Y-26691767D01*
X34667082Y-26593863D01*
X34720897Y-26476026D01*
X34734465Y-26381661D01*
X34739333Y-26347802D01*
X34739333Y-26347797D01*
X34721957Y-26226947D01*
X34723875Y-26215857D01*
X34709797Y-26195268D01*
X34682547Y-26135600D01*
X34667082Y-26101737D01*
X34595566Y-26019202D01*
X34880467Y-26019202D01*
X34897842Y-26140052D01*
X34895923Y-26151141D01*
X34910002Y-26171731D01*
X34933297Y-26222738D01*
X34952718Y-26265263D01*
X35037551Y-26363167D01*
X35037552Y-26363168D01*
X35146526Y-26433201D01*
X35146531Y-26433204D01*
X35270828Y-26469700D01*
X35270830Y-26469700D01*
X35400370Y-26469700D01*
X35400372Y-26469700D01*
X35524669Y-26433204D01*
X35633649Y-26363167D01*
X35718482Y-26265263D01*
X35772297Y-26147426D01*
X35790733Y-26019200D01*
X35788523Y-26003831D01*
X35772297Y-25890974D01*
X35718482Y-25773138D01*
X35718482Y-25773137D01*
X35633649Y-25675233D01*
X35633648Y-25675232D01*
X35633647Y-25675231D01*
X35524673Y-25605198D01*
X35524670Y-25605196D01*
X35524669Y-25605196D01*
X35524666Y-25605195D01*
X35400374Y-25568700D01*
X35400372Y-25568700D01*
X35270828Y-25568700D01*
X35270825Y-25568700D01*
X35146533Y-25605195D01*
X35146526Y-25605198D01*
X35037552Y-25675231D01*
X34952717Y-25773138D01*
X34898902Y-25890974D01*
X34880467Y-26019197D01*
X34880467Y-26019202D01*
X34595566Y-26019202D01*
X34582249Y-26003833D01*
X34582248Y-26003832D01*
X34582247Y-26003831D01*
X34473273Y-25933798D01*
X34473270Y-25933796D01*
X34473269Y-25933796D01*
X34473266Y-25933795D01*
X34348974Y-25897300D01*
X34348972Y-25897300D01*
X34219428Y-25897300D01*
X34219425Y-25897300D01*
X34095133Y-25933795D01*
X34095126Y-25933798D01*
X33986152Y-26003831D01*
X33901317Y-26101738D01*
X33847502Y-26219574D01*
X33829067Y-26347797D01*
X33829067Y-26347802D01*
X25456846Y-26347802D01*
X25495197Y-26263826D01*
X25513633Y-26135600D01*
X25508764Y-26101738D01*
X25495197Y-26007374D01*
X25493579Y-26003831D01*
X25441382Y-25889537D01*
X25356549Y-25791633D01*
X25356548Y-25791632D01*
X25356547Y-25791631D01*
X25247573Y-25721598D01*
X25247570Y-25721596D01*
X25247569Y-25721596D01*
X25247566Y-25721595D01*
X25123274Y-25685100D01*
X25123272Y-25685100D01*
X24993728Y-25685100D01*
X24993725Y-25685100D01*
X24869433Y-25721595D01*
X24869426Y-25721598D01*
X24760452Y-25791631D01*
X24675617Y-25889538D01*
X24621802Y-26007374D01*
X24603367Y-26135597D01*
X24603367Y-26135602D01*
X19913280Y-26135602D01*
X19903949Y-26124833D01*
X19903948Y-26124832D01*
X19903947Y-26124831D01*
X19794973Y-26054798D01*
X19794970Y-26054796D01*
X19794969Y-26054796D01*
X19794966Y-26054795D01*
X19670674Y-26018300D01*
X19670672Y-26018300D01*
X19541128Y-26018300D01*
X19541125Y-26018300D01*
X19416833Y-26054795D01*
X19416826Y-26054798D01*
X19307852Y-26124831D01*
X19223017Y-26222738D01*
X19169202Y-26340574D01*
X19150767Y-26468797D01*
X19150767Y-26468802D01*
X5050000Y-26468802D01*
X5050000Y-24901602D01*
X29518967Y-24901602D01*
X29537402Y-25029825D01*
X29591217Y-25147661D01*
X29591218Y-25147663D01*
X29676051Y-25245567D01*
X29676052Y-25245568D01*
X29785026Y-25315601D01*
X29785031Y-25315604D01*
X29909328Y-25352100D01*
X29909330Y-25352100D01*
X30038870Y-25352100D01*
X30038872Y-25352100D01*
X30163169Y-25315604D01*
X30272149Y-25245567D01*
X30356982Y-25147663D01*
X30410797Y-25029826D01*
X30429233Y-24901600D01*
X30410797Y-24773374D01*
X30356982Y-24655537D01*
X30272149Y-24557633D01*
X30272148Y-24557632D01*
X30272147Y-24557631D01*
X30163173Y-24487598D01*
X30163170Y-24487596D01*
X30163169Y-24487596D01*
X30163166Y-24487595D01*
X30038874Y-24451100D01*
X30038872Y-24451100D01*
X29909328Y-24451100D01*
X29909325Y-24451100D01*
X29785033Y-24487595D01*
X29785026Y-24487598D01*
X29676052Y-24557631D01*
X29591217Y-24655538D01*
X29537402Y-24773374D01*
X29518967Y-24901597D01*
X29518967Y-24901602D01*
X5050000Y-24901602D01*
X5050000Y-23584502D01*
X28961867Y-23584502D01*
X28980302Y-23712725D01*
X29005837Y-23768637D01*
X29034118Y-23830563D01*
X29118951Y-23928467D01*
X29118952Y-23928468D01*
X29227926Y-23998501D01*
X29227931Y-23998504D01*
X29352228Y-24035000D01*
X29352230Y-24035000D01*
X29481770Y-24035000D01*
X29481772Y-24035000D01*
X29550902Y-24014702D01*
X36594067Y-24014702D01*
X36612502Y-24142925D01*
X36666317Y-24260761D01*
X36666318Y-24260763D01*
X36751151Y-24358667D01*
X36751152Y-24358668D01*
X36860126Y-24428701D01*
X36860131Y-24428704D01*
X36984428Y-24465200D01*
X36984430Y-24465200D01*
X37113970Y-24465200D01*
X37113972Y-24465200D01*
X37238269Y-24428704D01*
X37347249Y-24358667D01*
X37432082Y-24260763D01*
X37485897Y-24142926D01*
X37492042Y-24100184D01*
X37504333Y-24014702D01*
X37504333Y-24014697D01*
X37485897Y-23886474D01*
X37432082Y-23768638D01*
X37432082Y-23768637D01*
X37347249Y-23670733D01*
X37347248Y-23670732D01*
X37347247Y-23670731D01*
X37238273Y-23600698D01*
X37238270Y-23600696D01*
X37238269Y-23600696D01*
X37238266Y-23600695D01*
X37113974Y-23564200D01*
X37113972Y-23564200D01*
X36984428Y-23564200D01*
X36984425Y-23564200D01*
X36860133Y-23600695D01*
X36860126Y-23600698D01*
X36751152Y-23670731D01*
X36666317Y-23768638D01*
X36612502Y-23886474D01*
X36594067Y-24014697D01*
X36594067Y-24014702D01*
X29550902Y-24014702D01*
X29606069Y-23998504D01*
X29715049Y-23928467D01*
X29799882Y-23830563D01*
X29853697Y-23712726D01*
X29869804Y-23600698D01*
X29872133Y-23584502D01*
X29872133Y-23584497D01*
X29853697Y-23456274D01*
X29819743Y-23381926D01*
X29799882Y-23338437D01*
X29726460Y-23253702D01*
X38016567Y-23253702D01*
X38035002Y-23381925D01*
X38061845Y-23440701D01*
X38088818Y-23499763D01*
X38162242Y-23584500D01*
X38173652Y-23597668D01*
X38178364Y-23600696D01*
X38282631Y-23667704D01*
X38406928Y-23704200D01*
X38406930Y-23704200D01*
X38536470Y-23704200D01*
X38536472Y-23704200D01*
X38660769Y-23667704D01*
X38769749Y-23597667D01*
X38854582Y-23499763D01*
X38908397Y-23381926D01*
X38924092Y-23272763D01*
X38926833Y-23253702D01*
X38926833Y-23253697D01*
X38908397Y-23125474D01*
X38854582Y-23007637D01*
X38769749Y-22909733D01*
X38769748Y-22909732D01*
X38769747Y-22909731D01*
X38660773Y-22839698D01*
X38660770Y-22839696D01*
X38660769Y-22839696D01*
X38660766Y-22839695D01*
X38536474Y-22803200D01*
X38536472Y-22803200D01*
X38406928Y-22803200D01*
X38406925Y-22803200D01*
X38282633Y-22839695D01*
X38282626Y-22839698D01*
X38173652Y-22909731D01*
X38088817Y-23007638D01*
X38035002Y-23125474D01*
X38016567Y-23253697D01*
X38016567Y-23253702D01*
X29726460Y-23253702D01*
X29715049Y-23240533D01*
X29715048Y-23240532D01*
X29715047Y-23240531D01*
X29606073Y-23170498D01*
X29606070Y-23170496D01*
X29606069Y-23170496D01*
X29606066Y-23170495D01*
X29481774Y-23134000D01*
X29481772Y-23134000D01*
X29352228Y-23134000D01*
X29352225Y-23134000D01*
X29227933Y-23170495D01*
X29227926Y-23170498D01*
X29118952Y-23240531D01*
X29034117Y-23338438D01*
X28980302Y-23456274D01*
X28961867Y-23584497D01*
X28961867Y-23584502D01*
X5050000Y-23584502D01*
X5050000Y-23026702D01*
X21442367Y-23026702D01*
X21460802Y-23154925D01*
X21499898Y-23240531D01*
X21514618Y-23272763D01*
X21571524Y-23338437D01*
X21599452Y-23370668D01*
X21616970Y-23381926D01*
X21708431Y-23440704D01*
X21832728Y-23477200D01*
X21832730Y-23477200D01*
X21962270Y-23477200D01*
X21962272Y-23477200D01*
X22086569Y-23440704D01*
X22195549Y-23370667D01*
X22280382Y-23272763D01*
X22334197Y-23154926D01*
X22352633Y-23026700D01*
X22349892Y-23007638D01*
X22334197Y-22898474D01*
X22280382Y-22780637D01*
X22195549Y-22682733D01*
X22195548Y-22682732D01*
X22195547Y-22682731D01*
X22086573Y-22612698D01*
X22086570Y-22612696D01*
X22086569Y-22612696D01*
X22086566Y-22612695D01*
X21962274Y-22576200D01*
X21962272Y-22576200D01*
X21832728Y-22576200D01*
X21832725Y-22576200D01*
X21708433Y-22612695D01*
X21708426Y-22612698D01*
X21599452Y-22682731D01*
X21514617Y-22780638D01*
X21460802Y-22898474D01*
X21442367Y-23026697D01*
X21442367Y-23026702D01*
X5050000Y-23026702D01*
X5050000Y-21865102D01*
X30929667Y-21865102D01*
X30948102Y-21993325D01*
X31001917Y-22111161D01*
X31001918Y-22111163D01*
X31086751Y-22209067D01*
X31086752Y-22209068D01*
X31195726Y-22279101D01*
X31195731Y-22279104D01*
X31320028Y-22315600D01*
X31320030Y-22315600D01*
X31449570Y-22315600D01*
X31449572Y-22315600D01*
X31573869Y-22279104D01*
X31682849Y-22209067D01*
X31767682Y-22111163D01*
X31821497Y-21993326D01*
X31839933Y-21865100D01*
X31821497Y-21736874D01*
X31767682Y-21619037D01*
X31682849Y-21521133D01*
X31682848Y-21521132D01*
X31682847Y-21521131D01*
X31573873Y-21451098D01*
X31573870Y-21451096D01*
X31573869Y-21451096D01*
X31573866Y-21451095D01*
X31449574Y-21414600D01*
X31449572Y-21414600D01*
X31320028Y-21414600D01*
X31320025Y-21414600D01*
X31195733Y-21451095D01*
X31195726Y-21451098D01*
X31086752Y-21521131D01*
X31001917Y-21619038D01*
X30948102Y-21736874D01*
X30929667Y-21865097D01*
X30929667Y-21865102D01*
X5050000Y-21865102D01*
X5050000Y-19000002D01*
X17494867Y-19000002D01*
X17513302Y-19128225D01*
X17567117Y-19246061D01*
X17567118Y-19246063D01*
X17651951Y-19343967D01*
X17651952Y-19343968D01*
X17760926Y-19414001D01*
X17760931Y-19414004D01*
X17885228Y-19450500D01*
X17885230Y-19450500D01*
X18014770Y-19450500D01*
X18014772Y-19450500D01*
X18139069Y-19414004D01*
X18248049Y-19343967D01*
X18332882Y-19246063D01*
X18386697Y-19128226D01*
X18392842Y-19085484D01*
X18405133Y-19000002D01*
X18405133Y-18999997D01*
X18386697Y-18871774D01*
X18332882Y-18753938D01*
X18332882Y-18753937D01*
X18248049Y-18656033D01*
X18248048Y-18656032D01*
X18248047Y-18656031D01*
X18176424Y-18610002D01*
X21144867Y-18610002D01*
X21163302Y-18738225D01*
X21217117Y-18856061D01*
X21217118Y-18856063D01*
X21301951Y-18953967D01*
X21301952Y-18953968D01*
X21373575Y-18999997D01*
X21410931Y-19024004D01*
X21535228Y-19060500D01*
X21535230Y-19060500D01*
X21664770Y-19060500D01*
X21664772Y-19060500D01*
X21789069Y-19024004D01*
X21898049Y-18953967D01*
X21982882Y-18856063D01*
X22036697Y-18738226D01*
X22042842Y-18695484D01*
X22055133Y-18610002D01*
X22055133Y-18609997D01*
X22036697Y-18481774D01*
X21982882Y-18363938D01*
X21982882Y-18363937D01*
X21898049Y-18266033D01*
X21898048Y-18266032D01*
X21898047Y-18266031D01*
X21789073Y-18195998D01*
X21789070Y-18195996D01*
X21789069Y-18195996D01*
X21789066Y-18195995D01*
X21664774Y-18159500D01*
X21664772Y-18159500D01*
X21535228Y-18159500D01*
X21535225Y-18159500D01*
X21410933Y-18195995D01*
X21410926Y-18195998D01*
X21301952Y-18266031D01*
X21217117Y-18363938D01*
X21163302Y-18481774D01*
X21144867Y-18609997D01*
X21144867Y-18610002D01*
X18176424Y-18610002D01*
X18139073Y-18585998D01*
X18139070Y-18585996D01*
X18139069Y-18585996D01*
X18139066Y-18585995D01*
X18014774Y-18549500D01*
X18014772Y-18549500D01*
X17885228Y-18549500D01*
X17885225Y-18549500D01*
X17760933Y-18585995D01*
X17760926Y-18585998D01*
X17651952Y-18656031D01*
X17567117Y-18753938D01*
X17513302Y-18871774D01*
X17494867Y-18999997D01*
X17494867Y-19000002D01*
X5050000Y-19000002D01*
X5050000Y-15975002D01*
X10769867Y-15975002D01*
X10788302Y-16103225D01*
X10833551Y-16202304D01*
X10842118Y-16221063D01*
X10926951Y-16318967D01*
X10926952Y-16318968D01*
X11003551Y-16368195D01*
X11035931Y-16389004D01*
X11160228Y-16425500D01*
X11160230Y-16425500D01*
X11289770Y-16425500D01*
X11289772Y-16425500D01*
X11414069Y-16389004D01*
X11523049Y-16318967D01*
X11607882Y-16221063D01*
X11661697Y-16103226D01*
X11677976Y-15990001D01*
X14064867Y-15990001D01*
X14083302Y-16118224D01*
X14121701Y-16202304D01*
X14137118Y-16236062D01*
X14221951Y-16333966D01*
X14221952Y-16333967D01*
X14275217Y-16368198D01*
X14330931Y-16404003D01*
X14455228Y-16440499D01*
X14455230Y-16440499D01*
X14584770Y-16440499D01*
X14584772Y-16440499D01*
X14709069Y-16404003D01*
X14764780Y-16368200D01*
X21963065Y-16368200D01*
X21981500Y-16496423D01*
X22035315Y-16614259D01*
X22035316Y-16614261D01*
X22120149Y-16712165D01*
X22120150Y-16712166D01*
X22229124Y-16782199D01*
X22229129Y-16782202D01*
X22353426Y-16818698D01*
X22353428Y-16818698D01*
X22482968Y-16818698D01*
X22482970Y-16818698D01*
X22607267Y-16782202D01*
X22716247Y-16712165D01*
X22801080Y-16614261D01*
X22854895Y-16496424D01*
X22865092Y-16425500D01*
X22873331Y-16368200D01*
X22873331Y-16368195D01*
X22854895Y-16239972D01*
X22846259Y-16221063D01*
X22801080Y-16122135D01*
X22716247Y-16024231D01*
X22716246Y-16024230D01*
X22716245Y-16024229D01*
X22607271Y-15954196D01*
X22607268Y-15954194D01*
X22607267Y-15954194D01*
X22607264Y-15954193D01*
X22482972Y-15917698D01*
X22482970Y-15917698D01*
X22353426Y-15917698D01*
X22353423Y-15917698D01*
X22229131Y-15954193D01*
X22229124Y-15954196D01*
X22120150Y-16024229D01*
X22035315Y-16122136D01*
X21981500Y-16239972D01*
X21963065Y-16368195D01*
X21963065Y-16368200D01*
X14764780Y-16368200D01*
X14818049Y-16333966D01*
X14902882Y-16236062D01*
X14956697Y-16118225D01*
X14964335Y-16065099D01*
X14975133Y-15990001D01*
X14975133Y-15989996D01*
X14956697Y-15861773D01*
X14949847Y-15846774D01*
X14902882Y-15743936D01*
X14818049Y-15646032D01*
X14818048Y-15646031D01*
X14818047Y-15646030D01*
X14769144Y-15614602D01*
X24877667Y-15614602D01*
X24896102Y-15742825D01*
X24916871Y-15788302D01*
X24949918Y-15860663D01*
X25030961Y-15954193D01*
X25034752Y-15958568D01*
X25083660Y-15989999D01*
X25143731Y-16028604D01*
X25268028Y-16065100D01*
X25268030Y-16065100D01*
X25397570Y-16065100D01*
X25397572Y-16065100D01*
X25521869Y-16028604D01*
X25630849Y-15958567D01*
X25715682Y-15860663D01*
X25748729Y-15788302D01*
X39261467Y-15788302D01*
X39279902Y-15916525D01*
X39331088Y-16028604D01*
X39333718Y-16034363D01*
X39406383Y-16118224D01*
X39418552Y-16132268D01*
X39527526Y-16202301D01*
X39527531Y-16202304D01*
X39651828Y-16238800D01*
X39651830Y-16238800D01*
X39781370Y-16238800D01*
X39781372Y-16238800D01*
X39905669Y-16202304D01*
X40014649Y-16132267D01*
X40099482Y-16034363D01*
X40153297Y-15916526D01*
X40171733Y-15788300D01*
X40165354Y-15743936D01*
X40153297Y-15660074D01*
X40108049Y-15560996D01*
X40099482Y-15542237D01*
X40014649Y-15444333D01*
X40014648Y-15444332D01*
X40014647Y-15444331D01*
X39905673Y-15374298D01*
X39905670Y-15374296D01*
X39905669Y-15374296D01*
X39886059Y-15368538D01*
X39781374Y-15337800D01*
X39781372Y-15337800D01*
X39651828Y-15337800D01*
X39651825Y-15337800D01*
X39527533Y-15374295D01*
X39527526Y-15374298D01*
X39418552Y-15444331D01*
X39333717Y-15542238D01*
X39279902Y-15660074D01*
X39261467Y-15788297D01*
X39261467Y-15788302D01*
X25748729Y-15788302D01*
X25769497Y-15742826D01*
X25783414Y-15646030D01*
X25787933Y-15614602D01*
X25787933Y-15614597D01*
X25769497Y-15486374D01*
X25718312Y-15374296D01*
X25715682Y-15368537D01*
X25630849Y-15270633D01*
X25630848Y-15270632D01*
X25630847Y-15270631D01*
X25521873Y-15200598D01*
X25521870Y-15200596D01*
X25521869Y-15200596D01*
X25521866Y-15200595D01*
X25397574Y-15164100D01*
X25397572Y-15164100D01*
X25268028Y-15164100D01*
X25268025Y-15164100D01*
X25143733Y-15200595D01*
X25143726Y-15200598D01*
X25034752Y-15270631D01*
X24949917Y-15368538D01*
X24896102Y-15486374D01*
X24877667Y-15614597D01*
X24877667Y-15614602D01*
X14769144Y-15614602D01*
X14709073Y-15575997D01*
X14709070Y-15575995D01*
X14709069Y-15575995D01*
X14709066Y-15575994D01*
X14584774Y-15539499D01*
X14584772Y-15539499D01*
X14455228Y-15539499D01*
X14455225Y-15539499D01*
X14330933Y-15575994D01*
X14330926Y-15575997D01*
X14221952Y-15646030D01*
X14137117Y-15743937D01*
X14083302Y-15861773D01*
X14064867Y-15989996D01*
X14064867Y-15990001D01*
X11677976Y-15990001D01*
X11680133Y-15975002D01*
X11680133Y-15974997D01*
X11661697Y-15846774D01*
X11614732Y-15743937D01*
X11607882Y-15728937D01*
X11523049Y-15631033D01*
X11523048Y-15631032D01*
X11523047Y-15631031D01*
X11414073Y-15560998D01*
X11414070Y-15560996D01*
X11414069Y-15560996D01*
X11414066Y-15560995D01*
X11289774Y-15524500D01*
X11289772Y-15524500D01*
X11160228Y-15524500D01*
X11160225Y-15524500D01*
X11035933Y-15560995D01*
X11035926Y-15560998D01*
X10926952Y-15631031D01*
X10842117Y-15728938D01*
X10788302Y-15846774D01*
X10769867Y-15974997D01*
X10769867Y-15975002D01*
X5050000Y-15975002D01*
X5050000Y-15000000D01*
X5049999Y-15000000D01*
X3399500Y-15000000D01*
X3341309Y-14981093D01*
X3305345Y-14931593D01*
X3300500Y-14901000D01*
X3300500Y-13815302D01*
X12344867Y-13815302D01*
X12363302Y-13943525D01*
X12417117Y-14061361D01*
X12417118Y-14061363D01*
X12492359Y-14148197D01*
X12501952Y-14159268D01*
X12610926Y-14229301D01*
X12610931Y-14229304D01*
X12735228Y-14265800D01*
X12735230Y-14265800D01*
X12864770Y-14265800D01*
X12864772Y-14265800D01*
X12989069Y-14229304D01*
X13098049Y-14159267D01*
X13182882Y-14061363D01*
X13216295Y-13988200D01*
X35446668Y-13988200D01*
X35465103Y-14116423D01*
X35484670Y-14159267D01*
X35518919Y-14234261D01*
X35555454Y-14276425D01*
X35603753Y-14332166D01*
X35712727Y-14402199D01*
X35712732Y-14402202D01*
X35837029Y-14438698D01*
X35837031Y-14438698D01*
X35966571Y-14438698D01*
X35966573Y-14438698D01*
X36090870Y-14402202D01*
X36199850Y-14332165D01*
X36284683Y-14234261D01*
X36323985Y-14148202D01*
X37039667Y-14148202D01*
X37058102Y-14276425D01*
X37111917Y-14394261D01*
X37111918Y-14394263D01*
X37150420Y-14438697D01*
X37196752Y-14492168D01*
X37305726Y-14562201D01*
X37305731Y-14562204D01*
X37430028Y-14598700D01*
X37430030Y-14598700D01*
X37559571Y-14598700D01*
X37559572Y-14598700D01*
X37563171Y-14597643D01*
X37566303Y-14597732D01*
X37566583Y-14597692D01*
X37566589Y-14597740D01*
X37624332Y-14599384D01*
X37672788Y-14636743D01*
X37681124Y-14651503D01*
X37718919Y-14734261D01*
X37803752Y-14832165D01*
X37803753Y-14832166D01*
X37912727Y-14902199D01*
X37912732Y-14902202D01*
X38037029Y-14938698D01*
X38037031Y-14938698D01*
X38166571Y-14938698D01*
X38166573Y-14938698D01*
X38290870Y-14902202D01*
X38399850Y-14832165D01*
X38484683Y-14734261D01*
X38538498Y-14616424D01*
X38556363Y-14492168D01*
X38556934Y-14488200D01*
X38556934Y-14488195D01*
X38538498Y-14359972D01*
X38500343Y-14276425D01*
X38484683Y-14242135D01*
X38399850Y-14144231D01*
X38399849Y-14144230D01*
X38399848Y-14144229D01*
X38290874Y-14074196D01*
X38290871Y-14074194D01*
X38290870Y-14074194D01*
X38265385Y-14066711D01*
X38166575Y-14037698D01*
X38166573Y-14037698D01*
X38037029Y-14037698D01*
X38037027Y-14037698D01*
X38037022Y-14037699D01*
X38033416Y-14038758D01*
X38030281Y-14038668D01*
X38030019Y-14038706D01*
X38030012Y-14038660D01*
X37972255Y-14037008D01*
X37923804Y-13999643D01*
X37915479Y-13984900D01*
X37877682Y-13902137D01*
X37792849Y-13804233D01*
X37792848Y-13804232D01*
X37792847Y-13804231D01*
X37683873Y-13734198D01*
X37683870Y-13734196D01*
X37683869Y-13734196D01*
X37683866Y-13734195D01*
X37559574Y-13697700D01*
X37559572Y-13697700D01*
X37430028Y-13697700D01*
X37430025Y-13697700D01*
X37305733Y-13734195D01*
X37305726Y-13734198D01*
X37196752Y-13804231D01*
X37111917Y-13902138D01*
X37058102Y-14019974D01*
X37039667Y-14148197D01*
X37039667Y-14148202D01*
X36323985Y-14148202D01*
X36338498Y-14116424D01*
X36349916Y-14037008D01*
X36356934Y-13988200D01*
X36356934Y-13988195D01*
X36338498Y-13859972D01*
X36284683Y-13742135D01*
X36199850Y-13644231D01*
X36199849Y-13644230D01*
X36199848Y-13644229D01*
X36090874Y-13574196D01*
X36090871Y-13574194D01*
X36090870Y-13574194D01*
X36090867Y-13574193D01*
X35966575Y-13537698D01*
X35966573Y-13537698D01*
X35837029Y-13537698D01*
X35837026Y-13537698D01*
X35712734Y-13574193D01*
X35712727Y-13574196D01*
X35603753Y-13644229D01*
X35518918Y-13742136D01*
X35465103Y-13859972D01*
X35446668Y-13988195D01*
X35446668Y-13988200D01*
X13216295Y-13988200D01*
X13236697Y-13943526D01*
X13255133Y-13815300D01*
X13243472Y-13734198D01*
X13236697Y-13687074D01*
X13217130Y-13644229D01*
X13182882Y-13569237D01*
X13098049Y-13471333D01*
X13098048Y-13471332D01*
X13098047Y-13471331D01*
X12989073Y-13401298D01*
X12989070Y-13401296D01*
X12989069Y-13401296D01*
X12989066Y-13401295D01*
X12864774Y-13364800D01*
X12864772Y-13364800D01*
X12735228Y-13364800D01*
X12735225Y-13364800D01*
X12610933Y-13401295D01*
X12610926Y-13401298D01*
X12501952Y-13471331D01*
X12417117Y-13569238D01*
X12363302Y-13687074D01*
X12344867Y-13815297D01*
X12344867Y-13815302D01*
X3300500Y-13815302D01*
X3300500Y-12900002D01*
X8394867Y-12900002D01*
X8413302Y-13028225D01*
X8467117Y-13146061D01*
X8467118Y-13146063D01*
X8551951Y-13243967D01*
X8551952Y-13243968D01*
X8660926Y-13314001D01*
X8660931Y-13314004D01*
X8785228Y-13350500D01*
X8785230Y-13350500D01*
X8914770Y-13350500D01*
X8914772Y-13350500D01*
X9039069Y-13314004D01*
X9148049Y-13243967D01*
X9232882Y-13146063D01*
X9286697Y-13028226D01*
X9289639Y-13021785D01*
X9292234Y-13022970D01*
X9319738Y-12982704D01*
X9377355Y-12962115D01*
X9408121Y-12966083D01*
X9414424Y-12967933D01*
X9417029Y-12968698D01*
X9417031Y-12968698D01*
X9546571Y-12968698D01*
X9546573Y-12968698D01*
X9670870Y-12932202D01*
X9779850Y-12862165D01*
X9864683Y-12764261D01*
X9918498Y-12646424D01*
X9931494Y-12556033D01*
X9936934Y-12518200D01*
X9936934Y-12518195D01*
X9918498Y-12389972D01*
X9864683Y-12272136D01*
X9864683Y-12272135D01*
X9779850Y-12174231D01*
X9779849Y-12174230D01*
X9779848Y-12174229D01*
X9670874Y-12104196D01*
X9670871Y-12104194D01*
X9670870Y-12104194D01*
X9670867Y-12104193D01*
X9546575Y-12067698D01*
X9546573Y-12067698D01*
X9417029Y-12067698D01*
X9417026Y-12067698D01*
X9292734Y-12104193D01*
X9292727Y-12104196D01*
X9183753Y-12174229D01*
X9098918Y-12272136D01*
X9042162Y-12396413D01*
X9039575Y-12395231D01*
X9012011Y-12435532D01*
X8954380Y-12456084D01*
X8923683Y-12452115D01*
X8914780Y-12449501D01*
X8914773Y-12449500D01*
X8914772Y-12449500D01*
X8785228Y-12449500D01*
X8785225Y-12449500D01*
X8660933Y-12485995D01*
X8660926Y-12485998D01*
X8551952Y-12556031D01*
X8467117Y-12653938D01*
X8413302Y-12771774D01*
X8394867Y-12899997D01*
X8394867Y-12900002D01*
X3300500Y-12900002D01*
X3300500Y-10700002D01*
X8394867Y-10700002D01*
X8413302Y-10828225D01*
X8441515Y-10890002D01*
X8467118Y-10946063D01*
X8529646Y-11018225D01*
X8551952Y-11043968D01*
X8660926Y-11114001D01*
X8660931Y-11114004D01*
X8785228Y-11150500D01*
X8785230Y-11150500D01*
X8914770Y-11150500D01*
X8914772Y-11150500D01*
X9039069Y-11114004D01*
X9148049Y-11043967D01*
X9232882Y-10946063D01*
X9258485Y-10890002D01*
X39864867Y-10890002D01*
X39883302Y-11018225D01*
X39927044Y-11114004D01*
X39937118Y-11136063D01*
X39949627Y-11150499D01*
X40021952Y-11233968D01*
X40130926Y-11304001D01*
X40130931Y-11304004D01*
X40255228Y-11340500D01*
X40255230Y-11340500D01*
X40384770Y-11340500D01*
X40384772Y-11340500D01*
X40509069Y-11304004D01*
X40618049Y-11233967D01*
X40702882Y-11136063D01*
X40756697Y-11018226D01*
X40762842Y-10975484D01*
X40775133Y-10890002D01*
X40775133Y-10889997D01*
X40756697Y-10761774D01*
X40702882Y-10643938D01*
X40702882Y-10643937D01*
X40618049Y-10546033D01*
X40618048Y-10546032D01*
X40618047Y-10546031D01*
X40509073Y-10475998D01*
X40509070Y-10475996D01*
X40509069Y-10475996D01*
X40509066Y-10475995D01*
X40384774Y-10439500D01*
X40384772Y-10439500D01*
X40255228Y-10439500D01*
X40255225Y-10439500D01*
X40130933Y-10475995D01*
X40130926Y-10475998D01*
X40021952Y-10546031D01*
X39937117Y-10643938D01*
X39883302Y-10761774D01*
X39864867Y-10889997D01*
X39864867Y-10890002D01*
X9258485Y-10890002D01*
X9286697Y-10828226D01*
X9305133Y-10700000D01*
X9297072Y-10643937D01*
X9286697Y-10571774D01*
X9253919Y-10500001D01*
X9232882Y-10453937D01*
X9148049Y-10356033D01*
X9148048Y-10356032D01*
X9148047Y-10356031D01*
X9039073Y-10285998D01*
X9039070Y-10285996D01*
X9039069Y-10285996D01*
X9039066Y-10285995D01*
X8914774Y-10249500D01*
X8914772Y-10249500D01*
X8785228Y-10249500D01*
X8785225Y-10249500D01*
X8660933Y-10285995D01*
X8660926Y-10285998D01*
X8551952Y-10356031D01*
X8467117Y-10453938D01*
X8413302Y-10571774D01*
X8394867Y-10699997D01*
X8394867Y-10700002D01*
X3300500Y-10700002D01*
X3300500Y-8281803D01*
X38976668Y-8281803D01*
X38995103Y-8410026D01*
X39048918Y-8527862D01*
X39048919Y-8527864D01*
X39133752Y-8625768D01*
X39133753Y-8625769D01*
X39242727Y-8695802D01*
X39242732Y-8695805D01*
X39367029Y-8732301D01*
X39367031Y-8732301D01*
X39496571Y-8732301D01*
X39496573Y-8732301D01*
X39620870Y-8695805D01*
X39729850Y-8625768D01*
X39814683Y-8527864D01*
X39868498Y-8410027D01*
X39886934Y-8281801D01*
X39868498Y-8153575D01*
X39814683Y-8035738D01*
X39729850Y-7937834D01*
X39729849Y-7937833D01*
X39729848Y-7937832D01*
X39620874Y-7867799D01*
X39620871Y-7867797D01*
X39620870Y-7867797D01*
X39620867Y-7867796D01*
X39496575Y-7831301D01*
X39496573Y-7831301D01*
X39367029Y-7831301D01*
X39367026Y-7831301D01*
X39242734Y-7867796D01*
X39242727Y-7867799D01*
X39133753Y-7937832D01*
X39048918Y-8035739D01*
X38995103Y-8153575D01*
X38976668Y-8281798D01*
X38976668Y-8281803D01*
X3300500Y-8281803D01*
X3300500Y-7400002D01*
X12430367Y-7400002D01*
X12448802Y-7528225D01*
X12502617Y-7646061D01*
X12502618Y-7646063D01*
X12546323Y-7696502D01*
X12587452Y-7743968D01*
X12696426Y-7814001D01*
X12696431Y-7814004D01*
X12820728Y-7850500D01*
X12820730Y-7850500D01*
X12950270Y-7850500D01*
X12950272Y-7850500D01*
X13074569Y-7814004D01*
X13183549Y-7743967D01*
X13224677Y-7696502D01*
X14544867Y-7696502D01*
X14563302Y-7824725D01*
X14582973Y-7867797D01*
X14617118Y-7942563D01*
X14697854Y-8035739D01*
X14701952Y-8040468D01*
X14810926Y-8110501D01*
X14810931Y-8110504D01*
X14935228Y-8147000D01*
X14935230Y-8147000D01*
X15064770Y-8147000D01*
X15064772Y-8147000D01*
X15189069Y-8110504D01*
X15298049Y-8040467D01*
X15382882Y-7942563D01*
X15436697Y-7824726D01*
X15455133Y-7696500D01*
X15447881Y-7646063D01*
X15436697Y-7568274D01*
X15382882Y-7450438D01*
X15382882Y-7450437D01*
X15298049Y-7352533D01*
X15298048Y-7352532D01*
X15298047Y-7352531D01*
X15189073Y-7282498D01*
X15189070Y-7282496D01*
X15189069Y-7282496D01*
X15189066Y-7282495D01*
X15064774Y-7246000D01*
X15064772Y-7246000D01*
X14935228Y-7246000D01*
X14935225Y-7246000D01*
X14810933Y-7282495D01*
X14810926Y-7282498D01*
X14701952Y-7352531D01*
X14617117Y-7450438D01*
X14563302Y-7568274D01*
X14544867Y-7696497D01*
X14544867Y-7696502D01*
X13224677Y-7696502D01*
X13268382Y-7646063D01*
X13322197Y-7528226D01*
X13340633Y-7400000D01*
X13333808Y-7352533D01*
X13322197Y-7271774D01*
X13310426Y-7246000D01*
X13268382Y-7153937D01*
X13183549Y-7056033D01*
X13183548Y-7056032D01*
X13183547Y-7056031D01*
X13074573Y-6985998D01*
X13074570Y-6985996D01*
X13074569Y-6985996D01*
X13074566Y-6985995D01*
X12950274Y-6949500D01*
X12950272Y-6949500D01*
X12820728Y-6949500D01*
X12820725Y-6949500D01*
X12696433Y-6985995D01*
X12696426Y-6985998D01*
X12587452Y-7056031D01*
X12548476Y-7101013D01*
X12502618Y-7153937D01*
X12502617Y-7153938D01*
X12497982Y-7159288D01*
X12495656Y-7157273D01*
X12475323Y-7173878D01*
X12477893Y-7180466D01*
X12469112Y-7227303D01*
X12448801Y-7271776D01*
X12430367Y-7399997D01*
X12430367Y-7400002D01*
X3300500Y-7400002D01*
X3300500Y-7002435D01*
X3300619Y-6997578D01*
X3302981Y-6949500D01*
X3306316Y-6881602D01*
X11460967Y-6881602D01*
X11479402Y-7009825D01*
X11530774Y-7122312D01*
X11533218Y-7127663D01*
X11618051Y-7225567D01*
X11618052Y-7225568D01*
X11727026Y-7295601D01*
X11727031Y-7295604D01*
X11851328Y-7332100D01*
X11851330Y-7332100D01*
X11980870Y-7332100D01*
X11980872Y-7332100D01*
X12105169Y-7295604D01*
X12214149Y-7225567D01*
X12298982Y-7127663D01*
X12298982Y-7127661D01*
X12303618Y-7122312D01*
X12305957Y-7124339D01*
X12326294Y-7107690D01*
X12323699Y-7101013D01*
X12332487Y-7054297D01*
X12352797Y-7009826D01*
X12352797Y-7009824D01*
X12352798Y-7009823D01*
X12371233Y-6881602D01*
X12371233Y-6881597D01*
X12352797Y-6753374D01*
X12302041Y-6642236D01*
X12298982Y-6635537D01*
X12214149Y-6537633D01*
X12214148Y-6537632D01*
X12214147Y-6537631D01*
X12105173Y-6467598D01*
X12105170Y-6467596D01*
X12105169Y-6467596D01*
X12105166Y-6467595D01*
X11980874Y-6431100D01*
X11980872Y-6431100D01*
X11851328Y-6431100D01*
X11851325Y-6431100D01*
X11727033Y-6467595D01*
X11727026Y-6467598D01*
X11618052Y-6537631D01*
X11533217Y-6635538D01*
X11479402Y-6753374D01*
X11460967Y-6881597D01*
X11460967Y-6881602D01*
X3306316Y-6881602D01*
X3318076Y-6642221D01*
X3319026Y-6632583D01*
X3370872Y-6283062D01*
X3372761Y-6273564D01*
X3458621Y-5930792D01*
X3461430Y-5921533D01*
X3580473Y-5588831D01*
X3584182Y-5579876D01*
X3735264Y-5260440D01*
X3739821Y-5251914D01*
X3921480Y-4948834D01*
X3926873Y-4940765D01*
X4137355Y-4656964D01*
X4143518Y-4649454D01*
X4380806Y-4387645D01*
X4387645Y-4380806D01*
X4649455Y-4143517D01*
X4656964Y-4137355D01*
X4940765Y-3926873D01*
X4948834Y-3921480D01*
X5251914Y-3739821D01*
X5260440Y-3735264D01*
X5579876Y-3584182D01*
X5588831Y-3580473D01*
X5921533Y-3461430D01*
X5930792Y-3458621D01*
X6273564Y-3372761D01*
X6283062Y-3370872D01*
X6632583Y-3319026D01*
X6642221Y-3318076D01*
X6968962Y-3302024D01*
X6997579Y-3300619D01*
X7002436Y-3300500D01*
X7047595Y-3300500D01*
X44952405Y-3300500D01*
X44997564Y-3300500D01*
X45002421Y-3300619D01*
G37*
%TD.AperFunction*%
%TD*%
M02*
