%TF.GenerationSoftware,KiCad,Pcbnew,7.0.11+dfsg-1build4*%
%TF.CreationDate,2026-09-30T06:23:01+00:00*%
%TF.ProjectId,opencycle,6f70656e-6379-4636-9c65-2e6b69636164,rev?*%
%TF.SameCoordinates,Original*%
%TF.FileFunction,Copper,L1,Top*%
%TF.FilePolarity,Positive*%
%FSLAX46Y46*%
G04 Gerber Fmt 4.6, Leading zero omitted, Abs format (unit mm)*
G04 Created by KiCad (PCBNEW 7.0.11+dfsg-1build4) date 2026-09-30 06:23:01*
%MOMM*%
%LPD*%
G01*
G04 APERTURE LIST*
G04 Aperture macros list*
%AMRoundRect*
0 Rectangle with rounded corners*
0 $1 Rounding radius*
0 $2 $3 $4 $5 $6 $7 $8 $9 X,Y pos of 4 corners*
0 Add a 4 corners polygon primitive as box body*
4,1,4,$2,$3,$4,$5,$6,$7,$8,$9,$2,$3,0*
0 Add four circle primitives for the rounded corners*
1,1,$1+$1,$2,$3*
1,1,$1+$1,$4,$5*
1,1,$1+$1,$6,$7*
1,1,$1+$1,$8,$9*
0 Add four rect primitives between the rounded corners*
20,1,$1+$1,$2,$3,$4,$5,0*
20,1,$1+$1,$4,$5,$6,$7,0*
20,1,$1+$1,$6,$7,$8,$9,0*
20,1,$1+$1,$8,$9,$2,$3,0*%
G04 Aperture macros list end*
%TA.AperFunction,SMDPad,CuDef*%
%ADD10RoundRect,0.225000X0.250000X-0.225000X0.250000X0.225000X-0.250000X0.225000X-0.250000X-0.225000X0*%
%TD*%
%TA.AperFunction,SMDPad,CuDef*%
%ADD11RoundRect,0.140000X0.170000X-0.140000X0.170000X0.140000X-0.170000X0.140000X-0.170000X-0.140000X0*%
%TD*%
%TA.AperFunction,SMDPad,CuDef*%
%ADD12R,0.300000X1.300000*%
%TD*%
%TA.AperFunction,SMDPad,CuDef*%
%ADD13R,1.800000X2.200000*%
%TD*%
%TA.AperFunction,SMDPad,CuDef*%
%ADD14RoundRect,0.135000X-0.135000X-0.185000X0.135000X-0.185000X0.135000X0.185000X-0.135000X0.185000X0*%
%TD*%
%TA.AperFunction,SMDPad,CuDef*%
%ADD15RoundRect,0.250000X0.475000X-0.250000X0.475000X0.250000X-0.475000X0.250000X-0.475000X-0.250000X0*%
%TD*%
%TA.AperFunction,SMDPad,CuDef*%
%ADD16RoundRect,0.225000X-0.225000X-0.250000X0.225000X-0.250000X0.225000X0.250000X-0.225000X0.250000X0*%
%TD*%
%TA.AperFunction,ComponentPad*%
%ADD17C,0.700000*%
%TD*%
%TA.AperFunction,ComponentPad*%
%ADD18C,4.400000*%
%TD*%
%TA.AperFunction,SMDPad,CuDef*%
%ADD19RoundRect,0.075000X-0.250000X-0.075000X0.250000X-0.075000X0.250000X0.075000X-0.250000X0.075000X0*%
%TD*%
%TA.AperFunction,SMDPad,CuDef*%
%ADD20R,0.650000X1.050000*%
%TD*%
%TA.AperFunction,SMDPad,CuDef*%
%ADD21RoundRect,0.140000X-0.140000X-0.170000X0.140000X-0.170000X0.140000X0.170000X-0.140000X0.170000X0*%
%TD*%
%TA.AperFunction,SMDPad,CuDef*%
%ADD22RoundRect,0.200000X0.275000X-0.200000X0.275000X0.200000X-0.275000X0.200000X-0.275000X-0.200000X0*%
%TD*%
%TA.AperFunction,SMDPad,CuDef*%
%ADD23RoundRect,0.135000X0.185000X-0.135000X0.185000X0.135000X-0.185000X0.135000X-0.185000X-0.135000X0*%
%TD*%
%TA.AperFunction,SMDPad,CuDef*%
%ADD24RoundRect,0.150000X-0.587500X-0.150000X0.587500X-0.150000X0.587500X0.150000X-0.587500X0.150000X0*%
%TD*%
%TA.AperFunction,SMDPad,CuDef*%
%ADD25RoundRect,0.175000X-0.725000X-0.175000X0.725000X-0.175000X0.725000X0.175000X-0.725000X0.175000X0*%
%TD*%
%TA.AperFunction,SMDPad,CuDef*%
%ADD26RoundRect,0.200000X-0.700000X-0.200000X0.700000X-0.200000X0.700000X0.200000X-0.700000X0.200000X0*%
%TD*%
%TA.AperFunction,SMDPad,CuDef*%
%ADD27RoundRect,0.218750X-0.218750X-0.256250X0.218750X-0.256250X0.218750X0.256250X-0.218750X0.256250X0*%
%TD*%
%TA.AperFunction,SMDPad,CuDef*%
%ADD28C,0.750000*%
%TD*%
%TA.AperFunction,SMDPad,CuDef*%
%ADD29RoundRect,0.375000X-0.625000X-0.375000X0.625000X-0.375000X0.625000X0.375000X-0.625000X0.375000X0*%
%TD*%
%TA.AperFunction,SMDPad,CuDef*%
%ADD30RoundRect,0.500000X-0.500000X-1.400000X0.500000X-1.400000X0.500000X1.400000X-0.500000X1.400000X0*%
%TD*%
%TA.AperFunction,SMDPad,CuDef*%
%ADD31RoundRect,0.100000X-0.900000X0.900000X-0.900000X-0.900000X0.900000X-0.900000X0.900000X0.900000X0*%
%TD*%
%TA.AperFunction,SMDPad,CuDef*%
%ADD32RoundRect,0.150000X-1.350000X1.350000X-1.350000X-1.350000X1.350000X-1.350000X1.350000X1.350000X0*%
%TD*%
%TA.AperFunction,ComponentPad*%
%ADD33O,1.000000X1.800000*%
%TD*%
%TA.AperFunction,ComponentPad*%
%ADD34O,1.000000X2.100000*%
%TD*%
%TA.AperFunction,HeatsinkPad*%
%ADD35C,0.600000*%
%TD*%
%TA.AperFunction,ViaPad*%
%ADD36C,0.500000*%
%TD*%
%TA.AperFunction,ViaPad*%
%ADD37C,0.450000*%
%TD*%
%TA.AperFunction,Conductor*%
%ADD38C,0.250000*%
%TD*%
%TA.AperFunction,Conductor*%
%ADD39C,0.200000*%
%TD*%
%TA.AperFunction,Conductor*%
%ADD40C,0.500000*%
%TD*%
%TA.AperFunction,Conductor*%
%ADD41C,0.400000*%
%TD*%
G04 APERTURE END LIST*
D10*
%TO.P,C9,1*%
%TO.N,+3V3*%
X18600000Y-44175000D03*
%TO.P,C9,2*%
%TO.N,GND*%
X18600000Y-42625000D03*
%TD*%
D11*
%TO.P,C10,1*%
%TO.N,+3V3*%
X20600000Y-43880000D03*
%TO.P,C10,2*%
%TO.N,GND*%
X20600000Y-42920000D03*
%TD*%
D12*
%TO.P,J3,1*%
%TO.N,GND*%
X16250000Y-46850000D03*
%TO.P,J3,2*%
%TO.N,N/C*%
X16750000Y-46850000D03*
%TO.P,J3,3*%
X17250000Y-46850000D03*
%TO.P,J3,4*%
X17750000Y-46850000D03*
%TO.P,J3,5*%
X18250000Y-46850000D03*
%TO.P,J3,6*%
X18750000Y-46850000D03*
%TO.P,J3,7*%
%TO.N,+3V3*%
X19250000Y-46850000D03*
%TO.P,J3,8*%
X19750000Y-46850000D03*
%TO.P,J3,9*%
%TO.N,LCD_MOSI*%
X20250000Y-46850000D03*
%TO.P,J3,10*%
%TO.N,LCD_CS*%
X20750000Y-46850000D03*
%TO.P,J3,11*%
%TO.N,LCD_SCK*%
X21250000Y-46850000D03*
%TO.P,J3,12*%
%TO.N,LCD_DC*%
X21750000Y-46850000D03*
%TO.P,J3,13*%
%TO.N,GND*%
X22250000Y-46850000D03*
%TO.P,J3,14*%
X22750000Y-46850000D03*
%TO.P,J3,15*%
X23250000Y-46850000D03*
%TO.P,J3,16*%
X23750000Y-46850000D03*
%TO.P,J3,17*%
X24250000Y-46850000D03*
%TO.P,J3,18*%
X24750000Y-46850000D03*
%TO.P,J3,19*%
X25250000Y-46850000D03*
%TO.P,J3,20*%
X25750000Y-46850000D03*
%TO.P,J3,21*%
X26250000Y-46850000D03*
%TO.P,J3,22*%
X26750000Y-46850000D03*
%TO.P,J3,23*%
X27250000Y-46850000D03*
%TO.P,J3,24*%
X27750000Y-46850000D03*
%TO.P,J3,25*%
X28250000Y-46850000D03*
%TO.P,J3,26*%
X28750000Y-46850000D03*
%TO.P,J3,27*%
X29250000Y-46850000D03*
%TO.P,J3,28*%
X29750000Y-46850000D03*
%TO.P,J3,29*%
X30250000Y-46850000D03*
%TO.P,J3,30*%
%TO.N,LCD_RST*%
X30750000Y-46850000D03*
%TO.P,J3,31*%
%TO.N,GND*%
X31250000Y-46850000D03*
%TO.P,J3,32*%
%TO.N,+3V3*%
X31750000Y-46850000D03*
%TO.P,J3,33*%
X32250000Y-46850000D03*
%TO.P,J3,34*%
%TO.N,LED_K1*%
X32750000Y-46850000D03*
%TO.P,J3,35*%
%TO.N,LED_K2*%
X33250000Y-46850000D03*
%TO.P,J3,36*%
%TO.N,LED_K3*%
X33750000Y-46850000D03*
%TO.P,J3,37*%
%TO.N,LED_K4*%
X34250000Y-46850000D03*
%TO.P,J3,38*%
%TO.N,VBAT*%
X34750000Y-46850000D03*
%TO.P,J3,39*%
%TO.N,GND*%
X35250000Y-46850000D03*
%TO.P,J3,40*%
%TO.N,LCD_TE*%
X35750000Y-46850000D03*
D13*
%TO.P,J3,MP*%
%TO.N,GND*%
X14350000Y-50100000D03*
X37650000Y-50100000D03*
%TD*%
D14*
%TO.P,R9,1*%
%TO.N,LCD_BL*%
X39690000Y-40600000D03*
%TO.P,R9,2*%
%TO.N,BL_G*%
X40710000Y-40600000D03*
%TD*%
%TO.P,R4,1*%
%TO.N,+3V3*%
X38690000Y-13900000D03*
%TO.P,R4,2*%
%TO.N,I2C_SCL*%
X39710000Y-13900000D03*
%TD*%
D15*
%TO.P,C12,1*%
%TO.N,+3V3*%
X8400000Y-40350000D03*
%TO.P,C12,2*%
%TO.N,GND*%
X8400000Y-38450000D03*
%TD*%
D16*
%TO.P,C11,1*%
%TO.N,VBAT*%
X9425000Y-27800000D03*
%TO.P,C11,2*%
%TO.N,GND*%
X10975000Y-27800000D03*
%TD*%
D17*
%TO.P,H4,1*%
%TO.N,GND*%
X43850000Y-85900000D03*
X44333274Y-84733274D03*
X44333274Y-87066726D03*
X45500000Y-84250000D03*
D18*
X45500000Y-85900000D03*
D17*
X45500000Y-87550000D03*
X46666726Y-84733274D03*
X46666726Y-87066726D03*
X47150000Y-85900000D03*
%TD*%
D19*
%TO.P,U4,1*%
%TO.N,+3V3*%
X39900000Y-8750000D03*
%TO.P,U4,2*%
%TO.N,N/C*%
X39900000Y-9400000D03*
%TO.P,U4,3*%
%TO.N,GND*%
X39900000Y-10050000D03*
%TO.P,U4,4*%
%TO.N,I2C_SCL*%
X41700000Y-10050000D03*
%TO.P,U4,5*%
%TO.N,N/C*%
X41700000Y-9400000D03*
%TO.P,U4,6*%
%TO.N,I2C_SDA*%
X41700000Y-8750000D03*
%TD*%
D20*
%TO.P,SW3,1*%
%TO.N,KEY_R*%
X37165000Y-85775000D03*
X37165000Y-81625000D03*
%TO.P,SW3,2*%
%TO.N,GND*%
X39315000Y-85775000D03*
X39315000Y-81625000D03*
%TD*%
D21*
%TO.P,C8,1*%
%TO.N,+3V3*%
X40320000Y-12200000D03*
%TO.P,C8,2*%
%TO.N,GND*%
X41280000Y-12200000D03*
%TD*%
D22*
%TO.P,R7,1*%
%TO.N,LED_K3*%
X35000000Y-44425000D03*
%TO.P,R7,2*%
%TO.N,BL_SW*%
X35000000Y-42775000D03*
%TD*%
D23*
%TO.P,R10,1*%
%TO.N,BL_G*%
X43400000Y-44310000D03*
%TO.P,R10,2*%
%TO.N,GND*%
X43400000Y-43290000D03*
%TD*%
D24*
%TO.P,Q1,1*%
%TO.N,BL_G*%
X39262500Y-42850000D03*
%TO.P,Q1,2*%
%TO.N,GND*%
X39262500Y-44750000D03*
%TO.P,Q1,3*%
%TO.N,BL_SW*%
X41137500Y-43800000D03*
%TD*%
D14*
%TO.P,R2,1*%
%TO.N,VBUS*%
X36490000Y-11400000D03*
%TO.P,R2,2*%
%TO.N,LED_A*%
X37510000Y-11400000D03*
%TD*%
D25*
%TO.P,U3,1*%
%TO.N,GND*%
X10200000Y-5200000D03*
D26*
%TO.P,U3,2*%
%TO.N,GPS_TX*%
X10200000Y-6300000D03*
%TO.P,U3,3*%
%TO.N,GPS_RX*%
X10200000Y-7400000D03*
%TO.P,U3,4*%
%TO.N,N/C*%
X10200000Y-8500000D03*
%TO.P,U3,5*%
%TO.N,GPS_EXTINT*%
X10200000Y-9600000D03*
%TO.P,U3,6*%
%TO.N,+3V3*%
X10200000Y-10700000D03*
%TO.P,U3,7*%
X10200000Y-11800000D03*
%TO.P,U3,8*%
X10200000Y-12900000D03*
D25*
%TO.P,U3,9*%
%TO.N,GPS_RST*%
X10200000Y-14000000D03*
%TO.P,U3,10*%
%TO.N,GND*%
X19700000Y-14000000D03*
D26*
%TO.P,U3,11*%
%TO.N,RF_IN*%
X19700000Y-12900000D03*
%TO.P,U3,12*%
%TO.N,GND*%
X19700000Y-11800000D03*
%TO.P,U3,13*%
%TO.N,N/C*%
X19700000Y-10700000D03*
%TO.P,U3,14*%
X19700000Y-9600000D03*
%TO.P,U3,15*%
X19700000Y-8500000D03*
%TO.P,U3,16*%
X19700000Y-7400000D03*
%TO.P,U3,17*%
X19700000Y-6300000D03*
D25*
%TO.P,U3,18*%
X19700000Y-5200000D03*
%TD*%
D27*
%TO.P,D1,1*%
%TO.N,CHG_STAT*%
X36212500Y-9400000D03*
%TO.P,D1,2*%
%TO.N,LED_A*%
X37787500Y-9400000D03*
%TD*%
D28*
%TO.P,FID3,*%
%TO.N,*%
X4600000Y-45000000D03*
%TD*%
%TO.P,FID2,*%
%TO.N,*%
X32400000Y-88000000D03*
%TD*%
D20*
%TO.P,SW2,1*%
%TO.N,KEY_C*%
X24925000Y-85775000D03*
X24925000Y-81625000D03*
%TO.P,SW2,2*%
%TO.N,GND*%
X27075000Y-85775000D03*
X27075000Y-81625000D03*
%TD*%
D22*
%TO.P,R8,1*%
%TO.N,LED_K4*%
X36700000Y-44425000D03*
%TO.P,R8,2*%
%TO.N,BL_SW*%
X36700000Y-42775000D03*
%TD*%
%TO.P,R5,1*%
%TO.N,LED_K1*%
X31600000Y-44425000D03*
%TO.P,R5,2*%
%TO.N,BL_SW*%
X31600000Y-42775000D03*
%TD*%
D17*
%TO.P,H1,1*%
%TO.N,GND*%
X4850000Y-6500000D03*
X5333274Y-5333274D03*
X5333274Y-7666726D03*
X6500000Y-4850000D03*
D18*
X6500000Y-6500000D03*
D17*
X6500000Y-8150000D03*
X7666726Y-5333274D03*
X7666726Y-7666726D03*
X8150000Y-6500000D03*
%TD*%
D29*
%TO.P,U5,1*%
%TO.N,VBAT*%
X8650000Y-30700000D03*
%TO.P,U5,2*%
%TO.N,GND*%
X8650000Y-33000000D03*
D30*
X14950000Y-33000000D03*
D29*
%TO.P,U5,3*%
%TO.N,+3V3*%
X8650000Y-35300000D03*
%TD*%
D22*
%TO.P,R6,1*%
%TO.N,LED_K2*%
X33299999Y-44425000D03*
%TO.P,R6,2*%
%TO.N,BL_SW*%
X33299999Y-42775000D03*
%TD*%
D21*
%TO.P,C7,1*%
%TO.N,+3V3*%
X14520000Y-16900000D03*
%TO.P,C7,2*%
%TO.N,GND*%
X15480000Y-16900000D03*
%TD*%
D17*
%TO.P,H2,1*%
%TO.N,GND*%
X43850000Y-6500000D03*
X44333274Y-5333274D03*
X44333274Y-7666726D03*
X45500000Y-4850000D03*
D18*
X45500000Y-6500000D03*
D17*
X45500000Y-8150000D03*
X46666726Y-5333274D03*
X46666726Y-7666726D03*
X47150000Y-6500000D03*
%TD*%
D28*
%TO.P,FID1,*%
%TO.N,*%
X19600000Y-88000000D03*
%TD*%
D20*
%TO.P,SW1,1*%
%TO.N,KEY_L*%
X12685000Y-85775000D03*
X12685000Y-81625000D03*
%TO.P,SW1,2*%
%TO.N,GND*%
X14835000Y-85775000D03*
X14835000Y-81625000D03*
%TD*%
D31*
%TO.P,AE1,1*%
%TO.N,RF_IN*%
X22300000Y-9400000D03*
D32*
%TO.P,AE1,2*%
%TO.N,GND*%
X31700000Y-4900000D03*
%TO.P,AE1,3*%
X31700000Y-9400000D03*
%TO.P,AE1,4*%
X31700000Y-13900000D03*
%TO.P,AE1,5*%
X27200000Y-4900000D03*
%TO.P,AE1,6*%
X27200000Y-9400000D03*
%TO.P,AE1,7*%
X27200000Y-13900000D03*
%TO.P,AE1,8*%
X22700000Y-4900000D03*
%TO.P,AE1,9*%
X22700000Y-13900000D03*
%TD*%
D17*
%TO.P,H3,1*%
%TO.N,GND*%
X4850000Y-85900000D03*
X5333274Y-84733274D03*
X5333274Y-87066726D03*
X6500000Y-84250000D03*
D18*
X6500000Y-85900000D03*
D17*
X6500000Y-87550000D03*
X7666726Y-84733274D03*
X7666726Y-87066726D03*
X8150000Y-85900000D03*
%TD*%
D14*
%TO.P,R3,1*%
%TO.N,+3V3*%
X36490000Y-13400000D03*
%TO.P,R3,2*%
%TO.N,I2C_SDA*%
X37510000Y-13400000D03*
%TD*%
D16*
%TO.P,C6,1*%
%TO.N,+3V3*%
X11225000Y-16900000D03*
%TO.P,C6,2*%
%TO.N,GND*%
X12775000Y-16900000D03*
%TD*%
D11*
%TO.P,C13,1*%
%TO.N,+3V3*%
X10400000Y-39880000D03*
%TO.P,C13,2*%
%TO.N,GND*%
X10400000Y-38920000D03*
%TD*%
D33*
%TO.P,J1,S1*%
%TO.N,GND*%
X30320000Y-87675000D03*
D34*
X30320000Y-83495000D03*
D33*
X21680000Y-87675000D03*
D34*
X21680000Y-83495000D03*
%TD*%
D35*
%TO.P,U1,41*%
%TO.N,GND*%
X33090000Y-23900000D03*
X34490000Y-23900000D03*
X32390000Y-23200000D03*
X33790000Y-23200000D03*
X35190000Y-23200000D03*
X33090000Y-22500000D03*
X34490000Y-22500000D03*
X32390000Y-21800000D03*
X33790000Y-21800000D03*
X35190000Y-21800000D03*
X33090000Y-21100000D03*
X34490000Y-21100000D03*
%TD*%
D36*
%TO.N,GND*%
X9500000Y-67000000D03*
X37000000Y-7000000D03*
X39500000Y-59500000D03*
X27000000Y-24500000D03*
X9500000Y-62000000D03*
X44500000Y-39500000D03*
X7000000Y-22000000D03*
X39500000Y-54500000D03*
X17000000Y-79500000D03*
X47000000Y-59500000D03*
X19500000Y-17000000D03*
X9300000Y-78750000D03*
X44390000Y-51400000D03*
X4500000Y-12000000D03*
X8400000Y-37500000D03*
X28349999Y-46850000D03*
X22250000Y-45750000D03*
X44500000Y-64500000D03*
X44500000Y-74500000D03*
X47000000Y-54500000D03*
X32200000Y-82970000D03*
X7000000Y-67000000D03*
X46830698Y-49118198D03*
X15650000Y-46850000D03*
X17000000Y-52000000D03*
X12000000Y-37000000D03*
X4500000Y-47000000D03*
X24718198Y-46381801D03*
X14600000Y-74770000D03*
X5000000Y-34000000D03*
X18230000Y-39678700D03*
X37000000Y-57000000D03*
X29500000Y-14500000D03*
X24150000Y-46850000D03*
X25250000Y-45750000D03*
X47000000Y-42000000D03*
X39500000Y-4500000D03*
X19500000Y-57000000D03*
X22800000Y-81895000D03*
X37000000Y-4500000D03*
X19500000Y-54500000D03*
X9500000Y-87000000D03*
X14500000Y-19500000D03*
X7000000Y-44500000D03*
X17468198Y-17681801D03*
X4500000Y-9500000D03*
X17000000Y-82000000D03*
X37000000Y-62000000D03*
X12000000Y-4500000D03*
X37000000Y-72000000D03*
X7000000Y-59500000D03*
X31521801Y-24768198D03*
X27000000Y-64500000D03*
X46100000Y-49775000D03*
X39500000Y-52000000D03*
X12000000Y-32000000D03*
X29750000Y-45750000D03*
X44500000Y-9500000D03*
X17000000Y-57000000D03*
X27000000Y-87000000D03*
X31400000Y-38770000D03*
X19500000Y-62000000D03*
X4500000Y-67000000D03*
X27000000Y-69500000D03*
X35250000Y-47950000D03*
X47000000Y-9500000D03*
X15478198Y-80981801D03*
X39500000Y-69500000D03*
X12665000Y-79000000D03*
X4500000Y-42000000D03*
X14500000Y-59500000D03*
X29500000Y-22000000D03*
X22000000Y-67000000D03*
X17000000Y-42000000D03*
X30250000Y-47950000D03*
X22650000Y-46850000D03*
X7000000Y-49500000D03*
X14500000Y-67000000D03*
X29500000Y-4500000D03*
X17000000Y-4500000D03*
X14950000Y-32000000D03*
X42000000Y-7000000D03*
X24500000Y-4500000D03*
X12775000Y-15975000D03*
X36849999Y-78400000D03*
X34500000Y-19500000D03*
X22000000Y-54500000D03*
X44300000Y-34000000D03*
X9500000Y-22000000D03*
X45600000Y-50325000D03*
X12000000Y-34500000D03*
X7000000Y-42000000D03*
X27000000Y-67000000D03*
X34500000Y-84500000D03*
X42000000Y-34500000D03*
X11743198Y-28568198D03*
X7000000Y-62000000D03*
X27718198Y-46381801D03*
X9500000Y-52000000D03*
X42000000Y-32000000D03*
X47000000Y-72000000D03*
X32000000Y-82000000D03*
X14500000Y-62000000D03*
X44500000Y-69500000D03*
X32000000Y-17000000D03*
X17018198Y-27468198D03*
X31400000Y-76725000D03*
X47000000Y-74500000D03*
X3631801Y-31381801D03*
X44500000Y-72000000D03*
X15480000Y-15989999D03*
X4500000Y-82000000D03*
X17000000Y-69500000D03*
X19800000Y-82970000D03*
X22000000Y-57000000D03*
X21600000Y-11850000D03*
X27718198Y-86418198D03*
X31250000Y-45750000D03*
X7000000Y-64500000D03*
X39500000Y-47000000D03*
X4500000Y-52000000D03*
X4500000Y-79500000D03*
X14500000Y-87000000D03*
X22000000Y-69500000D03*
X9500000Y-24500000D03*
X44500000Y-57000000D03*
X4500000Y-64500000D03*
X19500000Y-77000000D03*
X19500000Y-67000000D03*
X5200000Y-29500000D03*
X7000000Y-29500000D03*
X22000000Y-64500000D03*
X47000000Y-82000000D03*
X46568198Y-47169301D03*
X18600000Y-41724999D03*
X12000000Y-87000000D03*
X7000000Y-79500000D03*
X42000000Y-72000000D03*
X17000000Y-59500000D03*
X7000000Y-74500000D03*
X34730000Y-35478700D03*
X39958198Y-86418198D03*
X4500000Y-54500000D03*
X37600000Y-80125000D03*
X17000000Y-87000000D03*
X19500000Y-69500000D03*
X39500000Y-79500000D03*
X27000000Y-72000000D03*
X39500000Y-84500000D03*
X22000000Y-62000000D03*
X15478198Y-86418198D03*
X37000000Y-59500000D03*
X3631801Y-36618198D03*
X11924999Y-29400000D03*
X29818198Y-82301801D03*
X29849999Y-46850000D03*
X34500000Y-87000000D03*
X22000000Y-72000000D03*
X22360000Y-28120000D03*
X27849999Y-81625000D03*
X12000000Y-19500000D03*
X42000000Y-87000000D03*
X7000000Y-52000000D03*
X39500000Y-62000000D03*
X37000000Y-67000000D03*
X7800000Y-73725000D03*
X22000000Y-59500000D03*
X32799999Y-38790000D03*
X23218198Y-46381801D03*
X12000000Y-24500000D03*
X14950000Y-34000000D03*
X34500000Y-4500000D03*
X19500000Y-72000000D03*
X17000000Y-84500000D03*
X41510000Y-11050000D03*
X14500000Y-54500000D03*
X9600000Y-74190000D03*
X28250000Y-79800000D03*
X17000000Y-44500000D03*
X7000000Y-24500000D03*
X9500000Y-59500000D03*
X44500000Y-54500000D03*
X47000000Y-69500000D03*
X23750000Y-45750000D03*
X14500000Y-4500000D03*
X19500000Y-64500000D03*
X37000000Y-52000000D03*
X7000000Y-54500000D03*
X4500000Y-74500000D03*
X27000000Y-62000000D03*
X36000000Y-38770000D03*
X38671801Y-80981801D03*
X37000000Y-54500000D03*
X27000000Y-19500000D03*
X29500000Y-17000000D03*
X14950000Y-33000000D03*
X33370000Y-81200000D03*
X22181801Y-82301801D03*
X19500000Y-59500000D03*
X39500000Y-67000000D03*
X4500000Y-72000000D03*
X43400000Y-42570000D03*
X44500000Y-62000000D03*
X15720000Y-30160000D03*
X10400000Y-38190000D03*
X47000000Y-64500000D03*
X4500000Y-69500000D03*
X13000000Y-50100000D03*
X18349999Y-11800000D03*
X13899999Y-78750000D03*
X9500000Y-72000000D03*
X20840000Y-16920000D03*
X19500000Y-19500000D03*
X9500000Y-49500000D03*
X27000000Y-54500000D03*
X41280000Y-13309999D03*
X47000000Y-67000000D03*
X4500000Y-39500000D03*
X29218198Y-46381801D03*
X4500000Y-77000000D03*
X44500000Y-82000000D03*
X47000000Y-39500000D03*
X29450000Y-7150000D03*
X48368198Y-36618198D03*
X19500000Y-22000000D03*
X47000000Y-44500000D03*
X4500000Y-49500000D03*
X9500000Y-57000000D03*
X9500000Y-69500000D03*
X20600000Y-42190000D03*
X27000000Y-52000000D03*
X40700000Y-82550000D03*
X39500000Y-64500000D03*
X39631801Y-73581801D03*
X39000000Y-50100000D03*
X9500000Y-64500000D03*
X41510000Y-30950000D03*
X7000000Y-72000000D03*
X24950000Y-7150000D03*
X17000000Y-62000000D03*
X26849999Y-46850000D03*
X11850000Y-76700000D03*
X14450000Y-79250000D03*
X17000000Y-72000000D03*
X17000000Y-77000000D03*
X7631801Y-16531801D03*
X7000000Y-57000000D03*
X19500000Y-52000000D03*
X37555698Y-73031801D03*
X47000000Y-62000000D03*
X4500000Y-62000000D03*
X44500000Y-67000000D03*
X29200000Y-81895000D03*
X27000000Y-57000000D03*
X14500000Y-52000000D03*
X17000000Y-67000000D03*
X39431801Y-10518198D03*
X7000000Y-69500000D03*
X4500000Y-57000000D03*
X7581801Y-34068198D03*
X17000000Y-54500000D03*
X9500000Y-54500000D03*
X7000000Y-39500000D03*
X26218198Y-46381801D03*
X9531801Y-4531801D03*
X34500000Y-7000000D03*
X7000000Y-19500000D03*
X47268198Y-79818198D03*
X14500000Y-57000000D03*
X39500000Y-57000000D03*
X42000000Y-84500000D03*
X14500000Y-22000000D03*
X42000000Y-4500000D03*
X7000000Y-82000000D03*
X42000000Y-79500000D03*
X37000000Y-69500000D03*
X44631801Y-47169301D03*
X47000000Y-57000000D03*
X28250000Y-45750000D03*
X17000000Y-64500000D03*
X26750000Y-45750000D03*
X14500000Y-64500000D03*
X19800000Y-78925000D03*
X27000000Y-59500000D03*
X22000000Y-52000000D03*
X22000000Y-34500000D03*
X44500000Y-59500000D03*
X7000000Y-47000000D03*
X38644301Y-45368198D03*
X48368198Y-31381801D03*
X20368198Y-14668198D03*
X37000000Y-64500000D03*
%TO.N,+3V3*%
X19250000Y-45750000D03*
X8850000Y-10700000D03*
X7581801Y-36368198D03*
X29200000Y-37230000D03*
X27800000Y-37230000D03*
X31750000Y-47950000D03*
X40320000Y-10890000D03*
X44384314Y-49878185D03*
X46810000Y-51400000D03*
X17950000Y-19000000D03*
X46974999Y-48150000D03*
X38101801Y-14488198D03*
X21481898Y-39546898D03*
X14520000Y-15989999D03*
X26400000Y-37230000D03*
X40240000Y-30950000D03*
X25000000Y-37230000D03*
X22370000Y-26910000D03*
X15143198Y-28631801D03*
X20600000Y-44610000D03*
X19750000Y-47950000D03*
X44369301Y-49118198D03*
X21600000Y-18610000D03*
X32250000Y-45750000D03*
X10400000Y-40610000D03*
X37981898Y-35346898D03*
X8400000Y-41300000D03*
X18600000Y-45074999D03*
X22418198Y-16368198D03*
X39431801Y-8281801D03*
X35901801Y-13988198D03*
X9481801Y-12518198D03*
X11225000Y-15975000D03*
X17410000Y-29400000D03*
X30600000Y-37230000D03*
X8850000Y-12900000D03*
%TO.N,KEY_C*%
X28171900Y-27413800D03*
X23800000Y-48514600D03*
X28887800Y-34491700D03*
%TO.N,KEY_R*%
X35754800Y-37729500D03*
X28167400Y-39206000D03*
X34929400Y-31330100D03*
X28317600Y-34899100D03*
X37871100Y-44162500D03*
%TO.N,BTN_MENU*%
X31699000Y-32608500D03*
X31734100Y-34022000D03*
%TO.N,I2S_BCLK*%
X12062200Y-75978800D03*
X14127600Y-39876100D03*
%TO.N,I2S_LRCLK*%
X14053300Y-39224100D03*
X11132200Y-76710200D03*
%TO.N,I2S_DIN*%
X18723100Y-27989200D03*
X13545800Y-74785700D03*
%TO.N,I2C_SCL*%
X37137400Y-28551500D03*
D37*
X43587500Y-48150000D03*
D36*
X38471700Y-23253700D03*
X37049200Y-24014700D03*
D37*
%TO.N,I2C_SDA*%
X45600000Y-46387500D03*
D36*
X36493700Y-27955900D03*
X38832900Y-36730700D03*
%TO.N,USB_DN*%
X28665600Y-77690000D03*
X26996900Y-43137700D03*
X26996900Y-31854100D03*
X30919600Y-47909700D03*
%TO.N,USB_DP*%
X23432000Y-47949300D03*
X24400000Y-77825200D03*
X24488800Y-42039500D03*
X24555500Y-31133300D03*
%TO.N,AMP_EN*%
X23623900Y-28842600D03*
X13873700Y-75783700D03*
%TO.N,LCD_DC*%
X25058500Y-26135600D03*
%TO.N,LCD_CS*%
X20118700Y-26930500D03*
%TO.N,LCD_MOSI*%
X19605900Y-26468800D03*
%TO.N,LCD_SCK*%
X21897500Y-23026700D03*
%TO.N,LCD_TE*%
X29974100Y-24901600D03*
%TO.N,LCD_RST*%
X29417000Y-23584500D03*
%TO.N,LCD_BL*%
X31384800Y-21865100D03*
%TO.N,GPS_EXTINT*%
X12800000Y-13815300D03*
%TO.N,KEY_L*%
X25332800Y-15614600D03*
X32268800Y-27894200D03*
X25578800Y-27375200D03*
X32268800Y-33474100D03*
X25578800Y-34305200D03*
%TO.N,GPS_TX*%
X11916100Y-6881600D03*
%TO.N,GPS_RX*%
X12885500Y-7400000D03*
%TO.N,GPS_RST*%
X15000000Y-7696500D03*
%TO.N,CON_RX*%
X35335600Y-26019200D03*
X35937200Y-32367800D03*
%TO.N,CON_TX*%
X37494800Y-14148200D03*
X37639300Y-32601300D03*
%TO.N,VBUS_SENSE*%
X39716600Y-15788300D03*
X39716600Y-37572500D03*
%TO.N,VBAT_SENSE*%
X35386600Y-38310700D03*
X34284200Y-26347800D03*
%TO.N,BLE_SWDIO*%
X11393700Y-29850100D03*
X10383900Y-29558500D03*
%TO.N,CHG_STAT*%
X35976300Y-76219500D03*
%TO.N,VBUS*%
X34727700Y-41245100D03*
X34395100Y-49333100D03*
X32337699Y-79175000D03*
%TO.N,LED_K1*%
X30712200Y-44425000D03*
X31410100Y-48548200D03*
%TO.N,VBAT*%
X9633200Y-47452100D03*
D37*
X34750000Y-45600000D03*
D36*
%TO.N,CC1*%
X26000000Y-84294400D03*
X26000000Y-86169100D03*
%TO.N,USB_DP_C*%
X26000000Y-80577600D03*
X27225000Y-84264800D03*
%TD*%
D38*
%TO.N,GND*%
X39900000Y-10050000D02*
X39431801Y-10518198D01*
X26250000Y-46850000D02*
X26849999Y-46850000D01*
X8400000Y-38450000D02*
X8400000Y-37500000D01*
X27250000Y-46850000D02*
X27718198Y-46381801D01*
X30250000Y-46850000D02*
X30250000Y-47950000D01*
X16250000Y-46850000D02*
X15650000Y-46850000D01*
X10200000Y-5200000D02*
X9531801Y-4531801D01*
X39315000Y-85775000D02*
X39958198Y-86418198D01*
X23750000Y-46850000D02*
X23750000Y-45750000D01*
X29750000Y-46850000D02*
X29750000Y-45750000D01*
X27075000Y-81625000D02*
X27849999Y-81625000D01*
X43400000Y-43290000D02*
X43400000Y-42570000D01*
X15480000Y-16900000D02*
X15480000Y-15989999D01*
X12775000Y-16900000D02*
X12775000Y-15975000D01*
X19700000Y-11800000D02*
X18349999Y-11800000D01*
X25250000Y-46850000D02*
X25250000Y-45750000D01*
X26750000Y-46850000D02*
X26750000Y-45750000D01*
X24750000Y-46850000D02*
X24150000Y-46850000D01*
X22750000Y-46850000D02*
X23218198Y-46381801D01*
X10975000Y-27800000D02*
X11743198Y-28568198D01*
X23250000Y-46850000D02*
X22650000Y-46850000D01*
X37650000Y-50100000D02*
X39000000Y-50100000D01*
X29250000Y-46850000D02*
X29849999Y-46850000D01*
X20600000Y-42920000D02*
X20600000Y-42190000D01*
X14350000Y-50100000D02*
X13000000Y-50100000D01*
X14835000Y-85775000D02*
X15478198Y-86418198D01*
X18600000Y-42625000D02*
X18600000Y-41724999D01*
X10400000Y-38920000D02*
X10400000Y-38190000D01*
X27750000Y-46850000D02*
X28349999Y-46850000D01*
X31250000Y-46850000D02*
X31250000Y-45750000D01*
X8650000Y-33000000D02*
X7581801Y-34068198D01*
X35250000Y-46850000D02*
X35250000Y-47950000D01*
X41280000Y-12200000D02*
X41280000Y-13309999D01*
X27075000Y-85775000D02*
X27718198Y-86418198D01*
X14835000Y-81625000D02*
X15478198Y-80981801D01*
X22250000Y-46850000D02*
X22250000Y-45750000D01*
X19700000Y-14000000D02*
X20368198Y-14668198D01*
X25750000Y-46850000D02*
X26218198Y-46381801D01*
X39262500Y-44750000D02*
X38644301Y-45368198D01*
X39315000Y-81625000D02*
X38671801Y-80981801D01*
X28750000Y-46850000D02*
X29218198Y-46381801D01*
X24250000Y-46850000D02*
X24718198Y-46381801D01*
X28250000Y-46850000D02*
X28250000Y-45750000D01*
%TO.N,+3V3*%
X39900000Y-8750000D02*
X39431801Y-8281801D01*
X8400000Y-40350000D02*
X8400000Y-41300000D01*
X10200000Y-10700000D02*
X8850000Y-10700000D01*
X10200000Y-12900000D02*
X8850000Y-12900000D01*
X10200000Y-11800000D02*
X9481801Y-12518198D01*
X19250000Y-46850000D02*
X19250000Y-45750000D01*
X31750000Y-46850000D02*
X31750000Y-47950000D01*
X40320000Y-12200000D02*
X40320000Y-10890000D01*
X36490000Y-13400000D02*
X35901801Y-13988198D01*
X18600000Y-44175000D02*
X18600000Y-45074999D01*
X10400000Y-39880000D02*
X10400000Y-40610000D01*
X20600000Y-43880000D02*
X20600000Y-44610000D01*
X19750000Y-46850000D02*
X19750000Y-47950000D01*
X38690000Y-13900000D02*
X38101801Y-14488198D01*
X11225000Y-16900000D02*
X11225000Y-15975000D01*
X14520000Y-16900000D02*
X14520000Y-15989999D01*
X32250000Y-46850000D02*
X32250000Y-45750000D01*
X8650000Y-35300000D02*
X7581801Y-36368198D01*
D39*
%TO.N,KEY_C*%
X24925000Y-81625000D02*
X24925000Y-85775000D01*
X24925000Y-80848100D02*
X23800000Y-79723100D01*
X28171900Y-33775800D02*
X28887800Y-34491700D01*
X28171900Y-27413800D02*
X28171900Y-33775800D01*
X23800000Y-79723100D02*
X23800000Y-48514600D01*
X24925000Y-81625000D02*
X24925000Y-80848100D01*
%TO.N,KEY_R*%
X28317600Y-39055800D02*
X28317600Y-34899100D01*
X35593700Y-37568400D02*
X35754800Y-37729500D01*
X37165000Y-80848100D02*
X35474300Y-79157400D01*
X34929400Y-31330100D02*
X35083300Y-31484000D01*
X35083300Y-31484000D02*
X35083300Y-34149500D01*
X37871100Y-47480900D02*
X37871100Y-44162500D01*
X35474300Y-49877700D02*
X37871100Y-47480900D01*
X28167400Y-39206000D02*
X28317600Y-39055800D01*
X35474300Y-79157400D02*
X35474300Y-49877700D01*
X35083300Y-34149500D02*
X35593700Y-34659900D01*
X37165000Y-85775000D02*
X37165000Y-81625000D01*
X35593700Y-34659900D02*
X35593700Y-37568400D01*
X37165000Y-81625000D02*
X37165000Y-80848100D01*
%TO.N,BTN_MENU*%
X31699000Y-33986900D02*
X31699000Y-32608500D01*
X31734100Y-34022000D02*
X31699000Y-33986900D01*
%TO.N,I2S_BCLK*%
X12062200Y-41941500D02*
X14127600Y-39876100D01*
X12062200Y-75978800D02*
X12062200Y-41941500D01*
%TO.N,I2S_LRCLK*%
X11132200Y-42145200D02*
X11132200Y-76710200D01*
X14053300Y-39224100D02*
X11132200Y-42145200D01*
%TO.N,I2S_DIN*%
X18723100Y-33164800D02*
X18723100Y-27989200D01*
X13545800Y-74785700D02*
X13545800Y-70093900D01*
X15130200Y-44796100D02*
X15130200Y-36757700D01*
X13545800Y-70093900D02*
X15501900Y-68137800D01*
X15501900Y-48895700D02*
X14793300Y-48187100D01*
X14793300Y-45133000D02*
X15130200Y-44796100D01*
X15130200Y-36757700D02*
X18723100Y-33164800D01*
X15501900Y-68137800D02*
X15501900Y-48895700D01*
X14793300Y-48187100D02*
X14793300Y-45133000D01*
%TO.N,I2C_SCL*%
X43587500Y-48150000D02*
X43587500Y-45573700D01*
X42030000Y-13283600D02*
X42030000Y-10380000D01*
X39866400Y-13900000D02*
X39710000Y-13900000D01*
X38471700Y-15294700D02*
X38471700Y-23253700D01*
X41001200Y-38796900D02*
X41001200Y-13900000D01*
X39866400Y-13900000D02*
X38471700Y-15294700D01*
X41413600Y-13900000D02*
X42030000Y-13283600D01*
X43587500Y-45573700D02*
X44359700Y-44801500D01*
X44359700Y-44801500D02*
X44359700Y-42155400D01*
X37137400Y-24102900D02*
X37137400Y-28551500D01*
X41001200Y-13900000D02*
X39866400Y-13900000D01*
X41001200Y-13900000D02*
X41413600Y-13900000D01*
X44359700Y-42155400D02*
X41001200Y-38796900D01*
X37049200Y-24014700D02*
X37137400Y-24102900D01*
X42030000Y-10380000D02*
X41700000Y-10050000D01*
%TO.N,I2C_SDA*%
X36493700Y-27955900D02*
X36493700Y-28617500D01*
X36493700Y-14416300D02*
X36493700Y-27955900D01*
X36791000Y-28914800D02*
X36791000Y-34882200D01*
X37510000Y-13400000D02*
X38918600Y-11991400D01*
X38918600Y-11991400D02*
X38918600Y-8082500D01*
X36791000Y-34882200D02*
X38639500Y-36730700D01*
X38639500Y-36730700D02*
X38832900Y-36730700D01*
X40720300Y-7770300D02*
X41700000Y-8750000D01*
X39230800Y-7770300D02*
X40720300Y-7770300D01*
X36493700Y-28617500D02*
X36791000Y-28914800D01*
X38918600Y-8082500D02*
X39230800Y-7770300D01*
X37510000Y-13400000D02*
X36493700Y-14416300D01*
%TO.N,USB_DN*%
X30919600Y-48004400D02*
X30919600Y-47909700D01*
X26996900Y-43137700D02*
X26996900Y-31854100D01*
X28665600Y-50258400D02*
X30919600Y-48004400D01*
X28665600Y-77690000D02*
X28665600Y-50258400D01*
%TO.N,USB_DP*%
X24488800Y-31200000D02*
X24555500Y-31133300D01*
X24488800Y-42039500D02*
X24488800Y-31200000D01*
X23982700Y-47949300D02*
X24400000Y-48366600D01*
X24400000Y-48366600D02*
X24400000Y-77825200D01*
X23432000Y-47949300D02*
X23982700Y-47949300D01*
%TO.N,AMP_EN*%
X15605700Y-37051100D02*
X19225000Y-33431800D01*
X19076900Y-26236800D02*
X19360500Y-25953200D01*
X22270300Y-27520000D02*
X22491600Y-27520000D01*
X15853800Y-68458400D02*
X15853800Y-48252600D01*
X19076900Y-27633200D02*
X19076900Y-26236800D01*
X22491600Y-27520000D02*
X23623900Y-28652300D01*
X19225000Y-27781300D02*
X19076900Y-27633200D01*
X14075300Y-75582100D02*
X14075300Y-70236900D01*
X13873700Y-75783700D02*
X14075300Y-75582100D01*
X15605700Y-44818300D02*
X15605700Y-37051100D01*
X15147100Y-47545900D02*
X15147100Y-45276900D01*
X23623900Y-28652300D02*
X23623900Y-28842600D01*
X15147100Y-45276900D02*
X15605700Y-44818300D01*
X20703500Y-25953200D02*
X22270300Y-27520000D01*
X19360500Y-25953200D02*
X20703500Y-25953200D01*
X15853800Y-48252600D02*
X15147100Y-47545900D01*
X14075300Y-70236900D02*
X15853800Y-68458400D01*
X19225000Y-33431800D02*
X19225000Y-27781300D01*
%TO.N,LCD_DC*%
X21748100Y-46848100D02*
X21748100Y-45538200D01*
X25540800Y-35038600D02*
X25058500Y-34556300D01*
X25058500Y-34556300D02*
X25058500Y-26135600D01*
X21750000Y-46850000D02*
X21748100Y-46848100D01*
X21748100Y-45538200D02*
X25540800Y-41745500D01*
X25540800Y-41745500D02*
X25540800Y-35038600D01*
%TO.N,LCD_CS*%
X20033700Y-45139700D02*
X20033700Y-27015500D01*
X20033700Y-27015500D02*
X20118700Y-26930500D01*
X20750000Y-46850000D02*
X20750000Y-45856000D01*
X20750000Y-45856000D02*
X20033700Y-45139700D01*
%TO.N,LCD_MOSI*%
X19605900Y-26468800D02*
X19605900Y-45304000D01*
X20250000Y-46850000D02*
X20250000Y-45948100D01*
X19605900Y-45304000D02*
X20250000Y-45948100D01*
%TO.N,LCD_SCK*%
X24127500Y-30850000D02*
X24053100Y-30924400D01*
X21897500Y-23026700D02*
X24127500Y-25256700D01*
X24053100Y-30924400D02*
X24053100Y-39062800D01*
X24127500Y-25256700D02*
X24127500Y-30850000D01*
X21250000Y-41865900D02*
X21250000Y-46850000D01*
X24053100Y-39062800D02*
X21250000Y-41865900D01*
%TO.N,LCD_TE*%
X29974100Y-42321400D02*
X29974100Y-24901600D01*
X35422300Y-43722300D02*
X31375000Y-43722300D01*
X31375000Y-43722300D02*
X29974100Y-42321400D01*
X35750000Y-44050000D02*
X35422300Y-43722300D01*
X35750000Y-46850000D02*
X35750000Y-44050000D01*
%TO.N,LCD_RST*%
X28673800Y-43883500D02*
X28673800Y-35616700D01*
X30750000Y-45959700D02*
X28673800Y-43883500D01*
X29417000Y-34873500D02*
X29417000Y-23584500D01*
X28673800Y-35616700D02*
X29417000Y-34873500D01*
X30750000Y-46850000D02*
X30750000Y-45959700D01*
%TO.N,LCD_BL*%
X34492100Y-25788100D02*
X34119400Y-25788100D01*
X39690000Y-40600000D02*
X35945600Y-36855600D01*
X35435200Y-31126200D02*
X34786100Y-30477100D01*
X31384800Y-23053500D02*
X31384800Y-21865100D01*
X34786100Y-30477100D02*
X34786100Y-26082100D01*
X35945600Y-34514200D02*
X35435200Y-34003800D01*
X35945600Y-36855600D02*
X35945600Y-34514200D01*
X35435200Y-34003800D02*
X35435200Y-31126200D01*
X34119400Y-25788100D02*
X31384800Y-23053500D01*
X34786100Y-26082100D02*
X34492100Y-25788100D01*
%TO.N,GPS_EXTINT*%
X10200000Y-9600000D02*
X10692000Y-9600000D01*
X12800000Y-11708000D02*
X12800000Y-13815300D01*
X10692000Y-9600000D02*
X12800000Y-11708000D01*
%TO.N,KEY_L*%
X14778300Y-36437000D02*
X14778300Y-44650400D01*
X12685000Y-81625000D02*
X12685000Y-80848100D01*
X12487500Y-74586700D02*
X13218500Y-75317700D01*
X12487500Y-46941200D02*
X12487500Y-74586700D01*
X25578800Y-27375200D02*
X25578800Y-22769900D01*
X13218500Y-80314600D02*
X12685000Y-80848100D01*
X18191500Y-33023800D02*
X14778300Y-36437000D01*
X32268800Y-33474100D02*
X32268800Y-27894200D01*
X25578800Y-22769900D02*
X25332800Y-22523900D01*
X25578800Y-34305200D02*
X25578800Y-27375200D01*
X14778300Y-44650400D02*
X12487500Y-46941200D01*
X18191500Y-25979900D02*
X18191500Y-33023800D01*
X21647500Y-22523900D02*
X18191500Y-25979900D01*
X13218500Y-75317700D02*
X13218500Y-80314600D01*
X12685000Y-85775000D02*
X12685000Y-81625000D01*
X25332800Y-15614600D02*
X25332800Y-22523900D01*
X25332800Y-22523900D02*
X21647500Y-22523900D01*
%TO.N,GPS_TX*%
X11334500Y-6300000D02*
X11916100Y-6881600D01*
X10200000Y-6300000D02*
X11334500Y-6300000D01*
%TO.N,GPS_RX*%
X10200000Y-7400000D02*
X12885500Y-7400000D01*
%TO.N,GPS_RST*%
X13002600Y-14329300D02*
X15000000Y-12331900D01*
X10529300Y-14329300D02*
X13002600Y-14329300D01*
X10200000Y-14000000D02*
X10529300Y-14329300D01*
X15000000Y-12331900D02*
X15000000Y-7696500D01*
%TO.N,CON_RX*%
X35335600Y-30528900D02*
X35335600Y-26019200D01*
X35937200Y-31130500D02*
X35335600Y-30528900D01*
X35937200Y-32367800D02*
X35937200Y-31130500D01*
%TO.N,CON_TX*%
X37494800Y-14148200D02*
X37559800Y-14213200D01*
X37559800Y-28264100D02*
X37639300Y-28343600D01*
X37639300Y-28343600D02*
X37639300Y-32601300D01*
X37559800Y-14213200D02*
X37559800Y-28264100D01*
%TO.N,VBUS_SENSE*%
X39716600Y-15788300D02*
X39716600Y-37572500D01*
%TO.N,VBAT_SENSE*%
X35241800Y-35053200D02*
X34731400Y-34542800D01*
X34284200Y-31394500D02*
X34284200Y-26347800D01*
X34731400Y-31841700D02*
X34284200Y-31394500D01*
X35386600Y-38310700D02*
X35241800Y-38165900D01*
X35241800Y-38165900D02*
X35241800Y-35053200D01*
X34731400Y-34542800D02*
X34731400Y-31841700D01*
%TO.N,BLE_SWDIO*%
X10383900Y-29558500D02*
X10675500Y-29850100D01*
X10675500Y-29850100D02*
X11393700Y-29850100D01*
%TO.N,RF_IN*%
X20900000Y-12900000D02*
X19700000Y-12900000D01*
X22300000Y-9400000D02*
X20900000Y-9400000D01*
X20900000Y-9400000D02*
X20900000Y-12900000D01*
%TO.N,CHG_STAT*%
X36987300Y-8625200D02*
X36212500Y-9400000D01*
X43078200Y-41685700D02*
X36439100Y-35046600D01*
X38521500Y-8962000D02*
X38184700Y-8625200D01*
X36329900Y-12666600D02*
X37166400Y-12666600D01*
X35966700Y-21796200D02*
X35390100Y-21219600D01*
X36439100Y-31134800D02*
X35966700Y-30662400D01*
X41345000Y-70850800D02*
X41345000Y-47318500D01*
X38184700Y-8625200D02*
X36987300Y-8625200D01*
X36439100Y-35046600D02*
X36439100Y-31134800D01*
X44007800Y-44655700D02*
X44007800Y-42399700D01*
X38521500Y-11311500D02*
X38521500Y-8962000D01*
X35390100Y-13606400D02*
X36329900Y-12666600D01*
X43293800Y-41685700D02*
X43078200Y-41685700D01*
X37166400Y-12666600D02*
X38521500Y-11311500D01*
X44007800Y-42399700D02*
X43293800Y-41685700D01*
X35390100Y-21219600D02*
X35390100Y-13606400D01*
X41345000Y-47318500D02*
X44007800Y-44655700D01*
X35976300Y-76219500D02*
X41345000Y-70850800D01*
X35966700Y-30662400D02*
X35966700Y-21796200D01*
%TO.N,LED_A*%
X37787500Y-9400000D02*
X37510000Y-9677500D01*
X37510000Y-9677500D02*
X37510000Y-11400000D01*
D40*
%TO.N,VBUS*%
X30727500Y-33937200D02*
X34727700Y-37937400D01*
X32337699Y-51390500D02*
X32337699Y-79175000D01*
X30727500Y-21413700D02*
X30727500Y-33937200D01*
X36490000Y-11400000D02*
X33831500Y-14058500D01*
X33831500Y-18309700D02*
X30727500Y-21413700D01*
X34395100Y-49333100D02*
X32337699Y-51390500D01*
X33831500Y-14058500D02*
X33831500Y-18309700D01*
X34727700Y-37937400D02*
X34727700Y-41245100D01*
D39*
%TO.N,LED_K1*%
X32750000Y-46850000D02*
X32750000Y-47751900D01*
X30712200Y-44425000D02*
X31600000Y-44425000D01*
X32750000Y-47751900D02*
X31953700Y-48548200D01*
X31953700Y-48548200D02*
X31410100Y-48548200D01*
%TO.N,LED_K2*%
X33250000Y-44475000D02*
X33250000Y-46850000D01*
X33300000Y-44425000D02*
X33250000Y-44475000D01*
%TO.N,LED_K3*%
X33750000Y-45675000D02*
X35000000Y-44425000D01*
X33750000Y-46850000D02*
X33750000Y-45675000D01*
%TO.N,LED_K4*%
X35483400Y-48501700D02*
X34999800Y-48501700D01*
X36700000Y-44425000D02*
X36700000Y-47285100D01*
X36700000Y-47285100D02*
X35483400Y-48501700D01*
X34250000Y-46850000D02*
X34250000Y-47751900D01*
X34999800Y-48501700D02*
X34250000Y-47751900D01*
D40*
%TO.N,VBAT*%
X10053500Y-36709600D02*
X9633200Y-37129900D01*
X9633200Y-37129900D02*
X9633200Y-47452100D01*
X8650000Y-28575000D02*
X8650000Y-30700000D01*
X9425000Y-27800000D02*
X8650000Y-28575000D01*
X8650000Y-30700000D02*
X10053500Y-32103500D01*
X10053500Y-32103500D02*
X10053500Y-36709600D01*
D38*
X34750000Y-46850000D02*
X34750000Y-45600000D01*
D41*
%TO.N,BL_SW*%
X37485600Y-43560600D02*
X36700000Y-42775000D01*
X40898100Y-43560600D02*
X37485600Y-43560600D01*
X33300000Y-42775000D02*
X35000000Y-42775000D01*
X31600000Y-42775000D02*
X33300000Y-42775000D01*
X41137500Y-43800000D02*
X40898100Y-43560600D01*
X36700000Y-42775000D02*
X35000000Y-42775000D01*
D39*
%TO.N,BL_G*%
X40710000Y-41620000D02*
X40710000Y-40600000D01*
X40492500Y-41620000D02*
X40710000Y-41620000D01*
X39262500Y-42850000D02*
X40492500Y-41620000D01*
X43400000Y-44310000D02*
X40710000Y-41620000D01*
%TO.N,CC1*%
X26000000Y-86169100D02*
X26000000Y-84294400D01*
%TO.N,USB_DP_C*%
X26000000Y-80577600D02*
X26000000Y-83039800D01*
X26000000Y-83039800D02*
X27225000Y-84264800D01*
%TD*%
%TA.AperFunction,Conductor*%
%TO.N,GND*%
G36*
X45002421Y-3300619D02*
G01*
X45032909Y-3302116D01*
X45357776Y-3318076D01*
X45367418Y-3319026D01*
X45716933Y-3370872D01*
X45726439Y-3372762D01*
X46069201Y-3458620D01*
X46078472Y-3461432D01*
X46411161Y-3580470D01*
X46420130Y-3584185D01*
X46739551Y-3735259D01*
X46748093Y-3739826D01*
X47051156Y-3921475D01*
X47059234Y-3926873D01*
X47343035Y-4137355D01*
X47350545Y-4143518D01*
X47508529Y-4286705D01*
X47612343Y-4380796D01*
X47619208Y-4387661D01*
X47856481Y-4649454D01*
X47862644Y-4656964D01*
X48073126Y-4940765D01*
X48078524Y-4948843D01*
X48260166Y-5251893D01*
X48264743Y-5260456D01*
X48327858Y-5393902D01*
X48415812Y-5579866D01*
X48419530Y-5588842D01*
X48538563Y-5921514D01*
X48541383Y-5930811D01*
X48627234Y-6273549D01*
X48629129Y-6283078D01*
X48680971Y-6632567D01*
X48681924Y-6642235D01*
X48699381Y-6997577D01*
X48699500Y-7002435D01*
X48699500Y-10401000D01*
X48680593Y-10459191D01*
X48631093Y-10495155D01*
X48600500Y-10500000D01*
X42430897Y-10500000D01*
X42372706Y-10481093D01*
X42336742Y-10431593D01*
X42332003Y-10405572D01*
X42330606Y-10375357D01*
X42330500Y-10370785D01*
X42330500Y-10352160D01*
X42330500Y-10352156D01*
X42330478Y-10352042D01*
X42328898Y-10338430D01*
X42327585Y-10310008D01*
X42323614Y-10301016D01*
X42316864Y-10279214D01*
X42315061Y-10269568D01*
X42315061Y-10269567D01*
X42300085Y-10245379D01*
X42293697Y-10233260D01*
X42293360Y-10232496D01*
X42282206Y-10207234D01*
X42282205Y-10207233D01*
X42282204Y-10207231D01*
X42275254Y-10200281D01*
X42261088Y-10182395D01*
X42255919Y-10174046D01*
X42251336Y-10169019D01*
X42226107Y-10113277D01*
X42225499Y-10102325D01*
X42225499Y-9947870D01*
X42225498Y-9947863D01*
X42209515Y-9867506D01*
X42209515Y-9867505D01*
X42151044Y-9779999D01*
X42134437Y-9721115D01*
X42151044Y-9670001D01*
X42209515Y-9582495D01*
X42225500Y-9502133D01*
X42225499Y-9297868D01*
X42209515Y-9217505D01*
X42151044Y-9129999D01*
X42134437Y-9071115D01*
X42151044Y-9020001D01*
X42209515Y-8932495D01*
X42225500Y-8852133D01*
X42225499Y-8647868D01*
X42209515Y-8567505D01*
X42156909Y-8488776D01*
X42148626Y-8476379D01*
X42148624Y-8476376D01*
X42122311Y-8458794D01*
X42057497Y-8415486D01*
X42057496Y-8415485D01*
X42057495Y-8415485D01*
X41977133Y-8399500D01*
X41815479Y-8399500D01*
X41757288Y-8380593D01*
X41745475Y-8370504D01*
X40978865Y-7603894D01*
X40970779Y-7592644D01*
X40969787Y-7593394D01*
X40964258Y-7586072D01*
X40929572Y-7554451D01*
X40926268Y-7551296D01*
X40913100Y-7538128D01*
X40913096Y-7538125D01*
X40912993Y-7538055D01*
X40902262Y-7529555D01*
X40881233Y-7510384D01*
X40872062Y-7506831D01*
X40851886Y-7496195D01*
X40843784Y-7490645D01*
X40843779Y-7490643D01*
X40816097Y-7484132D01*
X40803003Y-7480077D01*
X40776477Y-7469800D01*
X40776473Y-7469800D01*
X40766648Y-7469800D01*
X40743983Y-7467170D01*
X40734419Y-7464921D01*
X40734418Y-7464921D01*
X40706246Y-7468851D01*
X40692569Y-7469800D01*
X39295964Y-7469800D01*
X39282288Y-7467567D01*
X39282117Y-7468794D01*
X39273033Y-7467526D01*
X39226158Y-7469694D01*
X39221586Y-7469800D01*
X39202952Y-7469800D01*
X39202829Y-7469823D01*
X39189219Y-7471401D01*
X39160809Y-7472714D01*
X39151805Y-7476689D01*
X39130026Y-7483432D01*
X39120368Y-7485237D01*
X39120366Y-7485238D01*
X39096186Y-7500209D01*
X39084066Y-7506598D01*
X39058035Y-7518093D01*
X39058034Y-7518093D01*
X39051080Y-7525047D01*
X39033203Y-7539207D01*
X39024848Y-7544380D01*
X39007707Y-7567078D01*
X38998709Y-7577417D01*
X38752192Y-7823935D01*
X38740961Y-7832050D01*
X38741690Y-7833015D01*
X38734371Y-7838541D01*
X38702741Y-7873237D01*
X38699589Y-7876538D01*
X38686430Y-7889698D01*
X38686418Y-7889712D01*
X38686349Y-7889814D01*
X38677855Y-7900535D01*
X38658683Y-7921566D01*
X38658683Y-7921567D01*
X38655129Y-7930740D01*
X38644496Y-7950912D01*
X38638946Y-7959015D01*
X38638941Y-7959024D01*
X38632430Y-7986706D01*
X38628377Y-7999796D01*
X38618101Y-8026323D01*
X38618100Y-8026329D01*
X38618100Y-8036151D01*
X38615470Y-8058818D01*
X38613221Y-8068381D01*
X38614975Y-8080956D01*
X38617151Y-8096553D01*
X38618100Y-8110230D01*
X38618100Y-8394621D01*
X38599193Y-8452812D01*
X38549693Y-8488776D01*
X38488507Y-8488776D01*
X38449096Y-8464625D01*
X38443265Y-8458794D01*
X38435179Y-8447544D01*
X38434187Y-8448294D01*
X38428658Y-8440972D01*
X38393972Y-8409351D01*
X38390668Y-8406196D01*
X38377500Y-8393028D01*
X38377496Y-8393025D01*
X38377393Y-8392955D01*
X38366662Y-8384455D01*
X38345633Y-8365284D01*
X38336462Y-8361731D01*
X38316286Y-8351095D01*
X38308184Y-8345545D01*
X38308179Y-8345543D01*
X38280497Y-8339032D01*
X38267403Y-8334977D01*
X38240877Y-8324700D01*
X38240873Y-8324700D01*
X38231048Y-8324700D01*
X38208383Y-8322070D01*
X38198819Y-8319821D01*
X38198818Y-8319821D01*
X38170646Y-8323751D01*
X38156969Y-8324700D01*
X37052465Y-8324700D01*
X37038789Y-8322467D01*
X37038618Y-8323694D01*
X37029534Y-8322426D01*
X36982659Y-8324594D01*
X36978087Y-8324700D01*
X36959452Y-8324700D01*
X36959329Y-8324723D01*
X36945719Y-8326301D01*
X36917311Y-8327614D01*
X36917307Y-8327615D01*
X36908313Y-8331586D01*
X36886528Y-8338332D01*
X36876871Y-8340137D01*
X36876865Y-8340139D01*
X36852681Y-8355113D01*
X36840559Y-8361502D01*
X36814538Y-8372992D01*
X36814531Y-8372996D01*
X36807586Y-8379942D01*
X36789706Y-8394105D01*
X36781348Y-8399280D01*
X36764204Y-8421982D01*
X36755206Y-8432321D01*
X36492026Y-8695503D01*
X36437509Y-8723281D01*
X36422022Y-8724500D01*
X35960751Y-8724500D01*
X35862580Y-8740049D01*
X35862576Y-8740050D01*
X35744250Y-8800341D01*
X35650341Y-8894250D01*
X35590050Y-9012576D01*
X35590049Y-9012580D01*
X35574500Y-9110751D01*
X35574500Y-9689248D01*
X35590049Y-9787419D01*
X35590050Y-9787423D01*
X35630855Y-9867506D01*
X35650342Y-9905751D01*
X35744249Y-9999658D01*
X35862580Y-10059951D01*
X35929130Y-10070491D01*
X35960751Y-10075500D01*
X35960754Y-10075500D01*
X36464249Y-10075500D01*
X36492803Y-10070976D01*
X36562420Y-10059951D01*
X36680751Y-9999658D01*
X36774658Y-9905751D01*
X36834951Y-9787420D01*
X36850500Y-9689246D01*
X36850500Y-9227978D01*
X36869407Y-9169787D01*
X36879489Y-9157981D01*
X36980499Y-9056972D01*
X37035013Y-9029197D01*
X37095445Y-9038768D01*
X37138710Y-9082033D01*
X37149500Y-9126978D01*
X37149500Y-9689249D01*
X37163300Y-9776376D01*
X37165049Y-9787420D01*
X37187519Y-9831520D01*
X37198709Y-9853480D01*
X37209500Y-9898426D01*
X37209500Y-10865024D01*
X37190593Y-10923215D01*
X37180504Y-10935028D01*
X37179597Y-10935934D01*
X37179596Y-10935935D01*
X37116531Y-10999000D01*
X37095933Y-11019598D01*
X37089724Y-11032915D01*
X37047995Y-11077663D01*
X36987934Y-11089337D01*
X36932482Y-11063478D01*
X36910276Y-11032915D01*
X36904066Y-11019598D01*
X36904065Y-11019597D01*
X36904065Y-11019596D01*
X36820404Y-10935935D01*
X36820402Y-10935934D01*
X36820401Y-10935933D01*
X36713175Y-10885932D01*
X36671995Y-10880511D01*
X36664316Y-10879500D01*
X36315684Y-10879500D01*
X36308005Y-10880511D01*
X36266825Y-10885932D01*
X36266824Y-10885932D01*
X36159598Y-10935933D01*
X36075933Y-11019598D01*
X36025932Y-11126824D01*
X36025932Y-11126825D01*
X36019500Y-11175685D01*
X36019500Y-11192388D01*
X36000593Y-11250579D01*
X35990504Y-11262392D01*
X33534765Y-13718130D01*
X33526488Y-13725526D01*
X33497530Y-13748619D01*
X33497529Y-13748620D01*
X33465056Y-13796248D01*
X33462916Y-13799264D01*
X33428707Y-13845616D01*
X33425242Y-13852174D01*
X33424853Y-13851968D01*
X33423850Y-13853955D01*
X33424246Y-13854146D01*
X33421026Y-13860832D01*
X33404036Y-13915910D01*
X33402880Y-13919423D01*
X33383855Y-13973795D01*
X33382476Y-13981087D01*
X33382044Y-13981005D01*
X33381671Y-13983200D01*
X33382105Y-13983266D01*
X33381000Y-13990599D01*
X33381000Y-14048215D01*
X33380931Y-14051916D01*
X33378776Y-14109510D01*
X33379607Y-14116885D01*
X33379168Y-14116934D01*
X33381000Y-14130844D01*
X33381000Y-18082088D01*
X33362093Y-18140279D01*
X33352004Y-18152092D01*
X30430765Y-21073330D01*
X30422488Y-21080726D01*
X30393530Y-21103819D01*
X30393529Y-21103820D01*
X30361056Y-21151448D01*
X30358916Y-21154464D01*
X30324707Y-21200816D01*
X30321242Y-21207374D01*
X30320853Y-21207168D01*
X30319850Y-21209155D01*
X30320246Y-21209346D01*
X30317026Y-21216032D01*
X30300036Y-21271110D01*
X30298880Y-21274623D01*
X30279855Y-21328995D01*
X30278476Y-21336287D01*
X30278044Y-21336205D01*
X30277671Y-21338400D01*
X30278105Y-21338466D01*
X30277000Y-21345799D01*
X30277000Y-21403415D01*
X30276931Y-21407116D01*
X30274776Y-21464710D01*
X30275607Y-21472085D01*
X30275168Y-21472134D01*
X30277000Y-21486044D01*
X30277000Y-24388771D01*
X30258093Y-24446962D01*
X30208593Y-24482926D01*
X30150109Y-24483761D01*
X30038874Y-24451100D01*
X30038872Y-24451100D01*
X29909328Y-24451100D01*
X29909326Y-24451100D01*
X29909322Y-24451101D01*
X29844390Y-24470166D01*
X29783230Y-24468418D01*
X29734777Y-24431055D01*
X29717500Y-24375176D01*
X29717500Y-23962563D01*
X29736407Y-23904372D01*
X29741680Y-23897732D01*
X29799882Y-23830563D01*
X29853697Y-23712726D01*
X29867861Y-23614211D01*
X29872133Y-23584502D01*
X29872133Y-23584497D01*
X29853697Y-23456274D01*
X29846573Y-23440675D01*
X29799882Y-23338437D01*
X29715049Y-23240533D01*
X29715048Y-23240532D01*
X29715047Y-23240531D01*
X29606073Y-23170498D01*
X29606070Y-23170496D01*
X29606069Y-23170496D01*
X29606066Y-23170495D01*
X29481774Y-23134000D01*
X29481772Y-23134000D01*
X29352228Y-23134000D01*
X29352225Y-23134000D01*
X29227933Y-23170495D01*
X29227926Y-23170498D01*
X29118952Y-23240531D01*
X29034117Y-23338438D01*
X28980302Y-23456274D01*
X28961867Y-23584497D01*
X28961867Y-23584502D01*
X28980302Y-23712725D01*
X29034117Y-23830561D01*
X29034118Y-23830563D01*
X29092320Y-23897732D01*
X29116137Y-23954092D01*
X29116500Y-23962563D01*
X29116500Y-33957084D01*
X29097593Y-34015275D01*
X29048093Y-34051239D01*
X28989610Y-34052074D01*
X28952577Y-34041201D01*
X28952573Y-34041200D01*
X28952572Y-34041200D01*
X28952570Y-34041200D01*
X28903280Y-34041200D01*
X28845089Y-34022293D01*
X28833276Y-34012204D01*
X28501396Y-33680324D01*
X28473619Y-33625807D01*
X28472400Y-33610320D01*
X28472400Y-27791863D01*
X28491307Y-27733672D01*
X28496580Y-27727032D01*
X28554782Y-27659863D01*
X28608597Y-27542026D01*
X28614943Y-27497891D01*
X28627033Y-27413802D01*
X28627033Y-27413797D01*
X28608597Y-27285574D01*
X28604747Y-27277144D01*
X28554782Y-27167737D01*
X28469949Y-27069833D01*
X28469948Y-27069832D01*
X28469947Y-27069831D01*
X28360973Y-26999798D01*
X28360970Y-26999796D01*
X28360969Y-26999796D01*
X28360966Y-26999795D01*
X28236674Y-26963300D01*
X28236672Y-26963300D01*
X28107128Y-26963300D01*
X28107125Y-26963300D01*
X27982833Y-26999795D01*
X27982826Y-26999798D01*
X27873852Y-27069831D01*
X27789017Y-27167738D01*
X27735202Y-27285574D01*
X27716767Y-27413797D01*
X27716767Y-27413802D01*
X27735202Y-27542025D01*
X27738950Y-27550231D01*
X27789018Y-27659863D01*
X27847220Y-27727032D01*
X27871037Y-27783392D01*
X27871400Y-27791863D01*
X27871400Y-33710635D01*
X27869180Y-33724313D01*
X27870394Y-33724483D01*
X27869126Y-33733566D01*
X27871294Y-33780441D01*
X27871400Y-33785013D01*
X27871400Y-33803644D01*
X27871422Y-33803766D01*
X27873001Y-33817377D01*
X27874314Y-33845787D01*
X27874315Y-33845794D01*
X27878284Y-33854782D01*
X27885032Y-33876572D01*
X27886839Y-33886233D01*
X27889094Y-33889875D01*
X27901812Y-33910417D01*
X27908201Y-33922538D01*
X27919694Y-33948565D01*
X27926645Y-33955516D01*
X27940807Y-33973396D01*
X27945981Y-33981752D01*
X27968681Y-33998894D01*
X27979017Y-34007888D01*
X28263860Y-34292731D01*
X28291637Y-34347248D01*
X28282066Y-34407680D01*
X28238801Y-34450945D01*
X28221748Y-34457725D01*
X28128531Y-34485096D01*
X28128526Y-34485098D01*
X28019552Y-34555131D01*
X27934717Y-34653038D01*
X27880902Y-34770874D01*
X27862467Y-34899097D01*
X27862467Y-34899102D01*
X27880902Y-35027325D01*
X27920510Y-35114053D01*
X27934718Y-35145163D01*
X27992920Y-35212332D01*
X28016737Y-35268692D01*
X28017100Y-35277163D01*
X28017100Y-36691978D01*
X27998193Y-36750169D01*
X27948693Y-36786133D01*
X27890211Y-36786969D01*
X27864773Y-36779500D01*
X27864772Y-36779500D01*
X27735228Y-36779500D01*
X27735225Y-36779500D01*
X27610933Y-36815995D01*
X27610926Y-36815998D01*
X27501951Y-36886032D01*
X27501949Y-36886034D01*
X27471219Y-36921499D01*
X27418823Y-36953095D01*
X27357862Y-36947859D01*
X27311622Y-36907792D01*
X27297400Y-36856668D01*
X27297400Y-32232163D01*
X27316307Y-32173972D01*
X27321580Y-32167332D01*
X27379782Y-32100163D01*
X27433597Y-31982326D01*
X27443109Y-31916170D01*
X27452033Y-31854102D01*
X27452033Y-31854097D01*
X27433597Y-31725874D01*
X27379782Y-31608037D01*
X27294949Y-31510133D01*
X27294948Y-31510132D01*
X27294947Y-31510131D01*
X27185973Y-31440098D01*
X27185970Y-31440096D01*
X27185969Y-31440096D01*
X27185966Y-31440095D01*
X27061674Y-31403600D01*
X27061672Y-31403600D01*
X26932128Y-31403600D01*
X26932125Y-31403600D01*
X26807833Y-31440095D01*
X26807826Y-31440098D01*
X26698852Y-31510131D01*
X26614017Y-31608038D01*
X26560202Y-31725874D01*
X26541767Y-31854097D01*
X26541767Y-31854102D01*
X26560202Y-31982325D01*
X26607461Y-32085805D01*
X26614018Y-32100163D01*
X26672220Y-32167332D01*
X26696037Y-32223692D01*
X26696400Y-32232163D01*
X26696400Y-36715262D01*
X26677493Y-36773453D01*
X26627993Y-36809417D01*
X26569510Y-36810252D01*
X26464777Y-36779501D01*
X26464773Y-36779500D01*
X26464772Y-36779500D01*
X26335228Y-36779500D01*
X26335225Y-36779500D01*
X26210933Y-36815995D01*
X26210926Y-36815998D01*
X26101952Y-36886031D01*
X26015120Y-36986243D01*
X25962724Y-37017839D01*
X25901763Y-37012603D01*
X25855522Y-36972536D01*
X25841300Y-36921412D01*
X25841300Y-35103768D01*
X25843531Y-35090095D01*
X25842305Y-35089924D01*
X25843573Y-35080832D01*
X25841406Y-35033957D01*
X25841300Y-35029385D01*
X25841300Y-35010760D01*
X25841300Y-35010756D01*
X25841278Y-35010642D01*
X25839698Y-34997030D01*
X25838385Y-34968608D01*
X25834415Y-34959617D01*
X25827664Y-34937815D01*
X25826744Y-34932894D01*
X25825861Y-34928167D01*
X25810885Y-34903979D01*
X25804498Y-34891862D01*
X25793006Y-34865835D01*
X25793005Y-34865833D01*
X25786056Y-34858884D01*
X25771889Y-34840998D01*
X25768046Y-34834791D01*
X25753490Y-34775362D01*
X25776644Y-34718727D01*
X25798688Y-34699397D01*
X25876849Y-34649167D01*
X25961682Y-34551263D01*
X26015497Y-34433426D01*
X26027783Y-34347972D01*
X26033933Y-34305202D01*
X26033933Y-34305197D01*
X26015497Y-34176974D01*
X25961682Y-34059137D01*
X25903479Y-33991966D01*
X25879663Y-33935608D01*
X25879300Y-33927137D01*
X25879300Y-27753263D01*
X25898207Y-27695072D01*
X25903480Y-27688432D01*
X25905235Y-27686407D01*
X25961682Y-27621263D01*
X26015497Y-27503426D01*
X26028384Y-27413797D01*
X26033933Y-27375202D01*
X26033933Y-27375197D01*
X26015497Y-27246974D01*
X25983340Y-27176561D01*
X25961682Y-27129137D01*
X25903479Y-27061966D01*
X25879663Y-27005608D01*
X25879300Y-26997137D01*
X25879300Y-22835072D01*
X25881531Y-22821395D01*
X25880306Y-22821225D01*
X25881574Y-22812133D01*
X25879406Y-22765236D01*
X25879300Y-22760664D01*
X25879300Y-22742060D01*
X25879300Y-22742056D01*
X25879279Y-22741946D01*
X25877700Y-22728343D01*
X25876386Y-22699909D01*
X25872415Y-22690918D01*
X25865664Y-22669117D01*
X25863861Y-22659467D01*
X25848886Y-22635283D01*
X25842497Y-22623161D01*
X25831006Y-22597135D01*
X25831004Y-22597133D01*
X25831004Y-22597132D01*
X25824056Y-22590184D01*
X25809890Y-22572299D01*
X25804719Y-22563948D01*
X25782021Y-22546807D01*
X25771679Y-22537808D01*
X25662296Y-22428425D01*
X25634519Y-22373908D01*
X25633300Y-22358421D01*
X25633300Y-15992663D01*
X25652207Y-15934472D01*
X25657480Y-15927832D01*
X25666261Y-15917698D01*
X25715682Y-15860663D01*
X25769497Y-15742826D01*
X25783414Y-15646030D01*
X25787933Y-15614602D01*
X25787933Y-15614597D01*
X25769497Y-15486374D01*
X25738806Y-15419171D01*
X25715682Y-15368537D01*
X25630849Y-15270633D01*
X25630848Y-15270632D01*
X25630847Y-15270631D01*
X25521873Y-15200598D01*
X25521870Y-15200596D01*
X25521869Y-15200596D01*
X25521866Y-15200595D01*
X25397574Y-15164100D01*
X25397572Y-15164100D01*
X25268028Y-15164100D01*
X25268025Y-15164100D01*
X25143733Y-15200595D01*
X25143726Y-15200598D01*
X25034752Y-15270631D01*
X24949917Y-15368538D01*
X24896102Y-15486374D01*
X24877667Y-15614597D01*
X24877667Y-15614602D01*
X24896102Y-15742825D01*
X24916871Y-15788302D01*
X24949918Y-15860663D01*
X24998323Y-15916526D01*
X25008120Y-15927832D01*
X25031937Y-15984192D01*
X25032300Y-15992663D01*
X25032300Y-22124400D01*
X25013393Y-22182591D01*
X24963893Y-22218555D01*
X24933300Y-22223400D01*
X21712664Y-22223400D01*
X21698988Y-22221167D01*
X21698817Y-22222394D01*
X21689733Y-22221126D01*
X21642858Y-22223294D01*
X21638286Y-22223400D01*
X21619652Y-22223400D01*
X21619529Y-22223423D01*
X21605919Y-22225001D01*
X21577510Y-22226314D01*
X21577506Y-22226315D01*
X21568515Y-22230285D01*
X21546727Y-22237032D01*
X21537070Y-22238837D01*
X21537064Y-22238840D01*
X21512881Y-22253812D01*
X21500762Y-22260200D01*
X21474737Y-22271692D01*
X21474733Y-22271695D01*
X21467784Y-22278644D01*
X21449909Y-22292803D01*
X21441548Y-22297980D01*
X21424407Y-22320678D01*
X21415409Y-22331018D01*
X18025090Y-25721337D01*
X18013861Y-25729450D01*
X18014590Y-25730415D01*
X18007271Y-25735941D01*
X17975641Y-25770637D01*
X17972489Y-25773938D01*
X17959330Y-25787098D01*
X17959318Y-25787112D01*
X17959249Y-25787214D01*
X17950755Y-25797935D01*
X17931583Y-25818966D01*
X17931583Y-25818967D01*
X17928029Y-25828140D01*
X17917396Y-25848312D01*
X17911846Y-25856415D01*
X17911841Y-25856424D01*
X17905330Y-25884106D01*
X17901277Y-25897196D01*
X17891001Y-25923723D01*
X17891000Y-25923729D01*
X17891000Y-25933551D01*
X17888370Y-25956218D01*
X17886303Y-25965009D01*
X17886121Y-25965781D01*
X17888990Y-25986350D01*
X17890051Y-25993953D01*
X17891000Y-26007630D01*
X17891000Y-29001740D01*
X17872093Y-29059931D01*
X17822593Y-29095895D01*
X17761407Y-29095895D01*
X17717181Y-29066571D01*
X17708050Y-29056034D01*
X17708048Y-29056032D01*
X17599073Y-28985998D01*
X17599070Y-28985996D01*
X17599069Y-28985996D01*
X17595592Y-28984975D01*
X17474774Y-28949500D01*
X17474772Y-28949500D01*
X17345228Y-28949500D01*
X17345225Y-28949500D01*
X17220933Y-28985995D01*
X17220926Y-28985998D01*
X17111952Y-29056031D01*
X17027117Y-29153938D01*
X16973302Y-29271774D01*
X16954867Y-29399997D01*
X16954867Y-29400002D01*
X16973302Y-29528225D01*
X17027117Y-29646061D01*
X17027118Y-29646063D01*
X17081385Y-29708691D01*
X17111952Y-29743968D01*
X17196431Y-29798259D01*
X17220931Y-29814004D01*
X17345228Y-29850500D01*
X17345230Y-29850500D01*
X17474770Y-29850500D01*
X17474772Y-29850500D01*
X17599069Y-29814004D01*
X17708049Y-29743967D01*
X17717179Y-29733429D01*
X17769574Y-29701832D01*
X17830535Y-29707067D01*
X17876777Y-29747133D01*
X17891000Y-29798259D01*
X17891000Y-32858320D01*
X17872093Y-32916511D01*
X17862004Y-32928324D01*
X14611890Y-36178437D01*
X14600661Y-36186550D01*
X14601390Y-36187515D01*
X14594071Y-36193041D01*
X14562441Y-36227737D01*
X14559289Y-36231038D01*
X14546130Y-36244198D01*
X14546118Y-36244212D01*
X14546049Y-36244314D01*
X14537555Y-36255035D01*
X14518383Y-36276066D01*
X14518383Y-36276067D01*
X14514829Y-36285240D01*
X14504196Y-36305412D01*
X14498646Y-36313515D01*
X14498641Y-36313524D01*
X14492130Y-36341206D01*
X14488077Y-36354296D01*
X14477801Y-36380823D01*
X14477800Y-36380829D01*
X14477800Y-36390651D01*
X14475170Y-36413318D01*
X14472921Y-36422879D01*
X14476851Y-36451053D01*
X14477800Y-36464730D01*
X14477800Y-38780093D01*
X14458893Y-38838284D01*
X14409393Y-38874248D01*
X14348207Y-38874248D01*
X14325277Y-38863377D01*
X14242373Y-38810098D01*
X14242370Y-38810096D01*
X14242369Y-38810096D01*
X14242366Y-38810095D01*
X14118074Y-38773600D01*
X14118072Y-38773600D01*
X13988528Y-38773600D01*
X13988525Y-38773600D01*
X13864233Y-38810095D01*
X13864226Y-38810098D01*
X13755252Y-38880131D01*
X13670417Y-38978038D01*
X13616602Y-39095874D01*
X13597791Y-39226709D01*
X13570795Y-39281617D01*
X13569803Y-39282624D01*
X10965790Y-41886637D01*
X10954561Y-41894750D01*
X10955290Y-41895715D01*
X10947971Y-41901241D01*
X10916341Y-41935937D01*
X10913189Y-41939238D01*
X10900030Y-41952398D01*
X10900018Y-41952412D01*
X10899949Y-41952514D01*
X10891455Y-41963235D01*
X10872283Y-41984266D01*
X10872283Y-41984267D01*
X10868729Y-41993440D01*
X10858096Y-42013612D01*
X10852546Y-42021715D01*
X10852541Y-42021724D01*
X10846030Y-42049406D01*
X10841977Y-42062496D01*
X10831701Y-42089023D01*
X10831700Y-42089029D01*
X10831700Y-42098851D01*
X10829070Y-42121518D01*
X10826821Y-42131081D01*
X10828928Y-42146185D01*
X10830751Y-42159253D01*
X10831700Y-42172930D01*
X10831700Y-76332137D01*
X10812793Y-76390328D01*
X10807520Y-76396967D01*
X10749318Y-76464136D01*
X10749316Y-76464140D01*
X10695502Y-76581974D01*
X10677067Y-76710197D01*
X10677067Y-76710202D01*
X10695502Y-76838425D01*
X10749317Y-76956261D01*
X10749318Y-76956263D01*
X10834151Y-77054167D01*
X10834152Y-77054168D01*
X10943126Y-77124201D01*
X10943131Y-77124204D01*
X11067428Y-77160700D01*
X11067430Y-77160700D01*
X11196970Y-77160700D01*
X11196972Y-77160700D01*
X11321269Y-77124204D01*
X11430249Y-77054167D01*
X11515082Y-76956263D01*
X11568897Y-76838426D01*
X11587333Y-76710200D01*
X11576305Y-76633501D01*
X11568897Y-76581974D01*
X11515083Y-76464140D01*
X11515082Y-76464137D01*
X11456879Y-76396966D01*
X11433063Y-76340608D01*
X11432700Y-76332137D01*
X11432700Y-76138960D01*
X11451607Y-76080769D01*
X11501107Y-76044805D01*
X11562293Y-76044805D01*
X11611793Y-76080769D01*
X11621723Y-76100967D01*
X11622561Y-76100585D01*
X11634930Y-76127668D01*
X11679318Y-76224863D01*
X11720651Y-76272564D01*
X11764152Y-76322768D01*
X11802988Y-76347726D01*
X11873131Y-76392804D01*
X11997428Y-76429300D01*
X11997430Y-76429300D01*
X12126970Y-76429300D01*
X12126972Y-76429300D01*
X12251269Y-76392804D01*
X12360249Y-76322767D01*
X12445082Y-76224863D01*
X12498897Y-76107026D01*
X12517333Y-75978800D01*
X12498897Y-75850574D01*
X12445082Y-75732737D01*
X12386879Y-75665566D01*
X12363063Y-75609208D01*
X12362700Y-75600737D01*
X12362700Y-75125879D01*
X12381607Y-75067688D01*
X12431107Y-75031724D01*
X12492293Y-75031724D01*
X12531704Y-75055875D01*
X12889004Y-75413175D01*
X12916781Y-75467692D01*
X12918000Y-75483179D01*
X12918000Y-80149121D01*
X12899093Y-80207312D01*
X12889003Y-80219125D01*
X12518591Y-80589536D01*
X12507361Y-80597650D01*
X12508090Y-80598615D01*
X12500771Y-80604141D01*
X12469141Y-80638837D01*
X12465989Y-80642138D01*
X12452830Y-80655298D01*
X12452818Y-80655312D01*
X12452749Y-80655414D01*
X12444255Y-80666135D01*
X12425083Y-80687166D01*
X12425083Y-80687167D01*
X12421529Y-80696340D01*
X12410896Y-80716512D01*
X12405346Y-80724615D01*
X12405341Y-80724624D01*
X12398830Y-80752306D01*
X12394777Y-80765396D01*
X12384501Y-80791923D01*
X12384500Y-80791929D01*
X12384500Y-80801751D01*
X12381868Y-80824429D01*
X12379967Y-80832507D01*
X12348232Y-80884819D01*
X12302916Y-80906926D01*
X12281771Y-80911132D01*
X12281766Y-80911134D01*
X12215451Y-80955445D01*
X12215445Y-80955451D01*
X12171134Y-81021766D01*
X12171132Y-81021772D01*
X12159501Y-81080241D01*
X12159500Y-81080253D01*
X12159500Y-82169746D01*
X12159501Y-82169758D01*
X12171132Y-82228227D01*
X12171133Y-82228231D01*
X12215448Y-82294552D01*
X12281769Y-82338867D01*
X12304816Y-82343451D01*
X12358198Y-82373346D01*
X12383814Y-82428911D01*
X12384500Y-82440548D01*
X12384500Y-84959451D01*
X12365593Y-85017642D01*
X12316093Y-85053606D01*
X12304816Y-85056548D01*
X12281772Y-85061132D01*
X12281766Y-85061134D01*
X12215451Y-85105445D01*
X12215445Y-85105451D01*
X12171134Y-85171766D01*
X12171132Y-85171772D01*
X12159501Y-85230241D01*
X12159500Y-85230253D01*
X12159500Y-86319746D01*
X12159501Y-86319758D01*
X12171132Y-86378227D01*
X12171134Y-86378233D01*
X12215445Y-86444548D01*
X12215448Y-86444552D01*
X12281769Y-86488867D01*
X12326231Y-86497711D01*
X12340241Y-86500498D01*
X12340246Y-86500498D01*
X12340252Y-86500500D01*
X12340253Y-86500500D01*
X13029747Y-86500500D01*
X13029748Y-86500500D01*
X13088231Y-86488867D01*
X13154552Y-86444552D01*
X13198867Y-86378231D01*
X13210500Y-86319748D01*
X13210500Y-85230252D01*
X13198867Y-85171769D01*
X13154552Y-85105448D01*
X13154548Y-85105445D01*
X13088233Y-85061134D01*
X13088231Y-85061133D01*
X13088228Y-85061132D01*
X13088227Y-85061132D01*
X13065184Y-85056548D01*
X13011800Y-85026650D01*
X12986186Y-84971085D01*
X12985500Y-84959451D01*
X12985500Y-84031199D01*
X22580796Y-84031199D01*
X22610184Y-84172628D01*
X22610186Y-84172636D01*
X22676644Y-84300892D01*
X22676646Y-84300895D01*
X22775245Y-84406469D01*
X22898672Y-84481526D01*
X23037772Y-84520500D01*
X23037773Y-84520500D01*
X23145943Y-84520500D01*
X23145949Y-84520500D01*
X23253111Y-84505771D01*
X23385609Y-84448219D01*
X23497665Y-84357054D01*
X23580971Y-84239037D01*
X23629346Y-84102921D01*
X23639204Y-83958801D01*
X23637465Y-83950433D01*
X23609815Y-83817371D01*
X23609813Y-83817363D01*
X23543355Y-83689107D01*
X23543353Y-83689104D01*
X23444754Y-83583530D01*
X23321328Y-83508474D01*
X23182228Y-83469500D01*
X23074051Y-83469500D01*
X22966888Y-83484228D01*
X22834389Y-83541781D01*
X22722334Y-83632945D01*
X22639029Y-83750962D01*
X22590653Y-83887078D01*
X22580796Y-84031199D01*
X12985500Y-84031199D01*
X12985500Y-82440548D01*
X13004407Y-82382357D01*
X13053907Y-82346393D01*
X13065170Y-82343453D01*
X13088231Y-82338867D01*
X13154552Y-82294552D01*
X13198867Y-82228231D01*
X13210500Y-82169748D01*
X13210500Y-81080252D01*
X13198867Y-81021769D01*
X13154552Y-80955448D01*
X13154548Y-80955445D01*
X13148590Y-80949487D01*
X13120813Y-80894970D01*
X13130384Y-80834538D01*
X13148587Y-80809482D01*
X13384905Y-80573164D01*
X13396164Y-80565093D01*
X13395405Y-80564087D01*
X13402721Y-80558561D01*
X13402728Y-80558558D01*
X13434377Y-80523839D01*
X13437495Y-80520574D01*
X13450674Y-80507397D01*
X13450738Y-80507302D01*
X13459253Y-80496553D01*
X13478416Y-80475533D01*
X13481964Y-80466371D01*
X13492611Y-80446176D01*
X13498157Y-80438081D01*
X13504671Y-80410382D01*
X13508722Y-80397301D01*
X13519000Y-80370773D01*
X13519000Y-80360948D01*
X13521630Y-80338279D01*
X13523879Y-80328719D01*
X13519949Y-80300544D01*
X13519000Y-80286868D01*
X13519000Y-76272564D01*
X13537907Y-76214373D01*
X13587407Y-76178409D01*
X13648593Y-76178409D01*
X13671524Y-76189281D01*
X13677512Y-76193129D01*
X13684631Y-76197704D01*
X13808928Y-76234200D01*
X13808930Y-76234200D01*
X13938470Y-76234200D01*
X13938472Y-76234200D01*
X14062769Y-76197704D01*
X14171749Y-76127667D01*
X14256582Y-76029763D01*
X14310397Y-75911926D01*
X14328833Y-75783700D01*
X14328833Y-75778015D01*
X14335515Y-75742261D01*
X14336389Y-75740004D01*
X14338764Y-75733871D01*
X14349406Y-75713682D01*
X14354956Y-75705581D01*
X14361469Y-75677885D01*
X14365520Y-75664806D01*
X14375800Y-75638273D01*
X14375800Y-75628448D01*
X14378429Y-75605783D01*
X14380679Y-75596219D01*
X14376749Y-75568046D01*
X14375800Y-75554369D01*
X14375800Y-70402378D01*
X14394707Y-70344187D01*
X14404790Y-70332380D01*
X16020205Y-68716964D01*
X16031464Y-68708893D01*
X16030705Y-68707887D01*
X16038021Y-68702361D01*
X16038028Y-68702358D01*
X16069677Y-68667639D01*
X16072795Y-68664374D01*
X16085974Y-68651197D01*
X16086038Y-68651102D01*
X16094553Y-68640353D01*
X16113716Y-68619333D01*
X16117264Y-68610171D01*
X16127911Y-68589976D01*
X16133457Y-68581881D01*
X16139971Y-68554182D01*
X16144022Y-68541101D01*
X16154300Y-68514573D01*
X16154300Y-68504748D01*
X16156930Y-68482079D01*
X16159179Y-68472519D01*
X16155249Y-68444344D01*
X16154300Y-68430668D01*
X16154300Y-48317769D01*
X16156531Y-48304096D01*
X16155305Y-48303925D01*
X16156573Y-48294833D01*
X16154406Y-48247958D01*
X16154300Y-48243386D01*
X16154300Y-48224760D01*
X16154300Y-48224756D01*
X16154278Y-48224642D01*
X16152698Y-48211030D01*
X16151385Y-48182609D01*
X16147413Y-48173614D01*
X16140665Y-48151820D01*
X16138861Y-48142167D01*
X16123887Y-48117983D01*
X16117492Y-48105850D01*
X16106007Y-48079836D01*
X16099057Y-48072886D01*
X16084888Y-48054996D01*
X16079720Y-48046649D01*
X16079719Y-48046648D01*
X16057021Y-48029507D01*
X16046679Y-48020508D01*
X15476596Y-47450425D01*
X15448819Y-47395908D01*
X15447600Y-47380421D01*
X15447600Y-45442377D01*
X15466507Y-45384186D01*
X15476590Y-45372380D01*
X15772103Y-45076866D01*
X15783364Y-45068793D01*
X15782605Y-45067787D01*
X15789921Y-45062261D01*
X15789928Y-45062258D01*
X15821577Y-45027539D01*
X15824695Y-45024274D01*
X15837874Y-45011097D01*
X15837938Y-45011002D01*
X15846453Y-45000253D01*
X15851883Y-44994297D01*
X15865616Y-44979233D01*
X15869165Y-44970070D01*
X15879806Y-44949882D01*
X15885356Y-44941781D01*
X15891869Y-44914085D01*
X15895920Y-44901006D01*
X15906200Y-44874473D01*
X15906200Y-44864648D01*
X15908829Y-44841983D01*
X15911079Y-44832419D01*
X15908139Y-44811346D01*
X15907149Y-44804244D01*
X15906200Y-44790568D01*
X15906200Y-39300487D01*
X16264200Y-39300487D01*
X16304637Y-39464544D01*
X16304638Y-39464547D01*
X16383163Y-39614164D01*
X16383163Y-39614165D01*
X16495209Y-39740638D01*
X16549128Y-39777855D01*
X16634271Y-39836625D01*
X16792261Y-39896543D01*
X16917915Y-39911800D01*
X16917920Y-39911800D01*
X17002080Y-39911800D01*
X17002085Y-39911800D01*
X17127739Y-39896543D01*
X17285729Y-39836625D01*
X17424789Y-39740639D01*
X17424790Y-39740638D01*
X17536836Y-39614165D01*
X17536836Y-39614164D01*
X17536835Y-39614164D01*
X17536838Y-39614162D01*
X17615362Y-39464546D01*
X17655800Y-39300485D01*
X17655800Y-39131515D01*
X17615362Y-38967454D01*
X17536838Y-38817838D01*
X17536836Y-38817836D01*
X17536836Y-38817835D01*
X17536836Y-38817834D01*
X17424790Y-38691361D01*
X17285729Y-38595375D01*
X17127739Y-38535457D01*
X17127737Y-38535456D01*
X17127736Y-38535456D01*
X17002096Y-38520201D01*
X17002090Y-38520200D01*
X17002085Y-38520200D01*
X16917915Y-38520200D01*
X16917910Y-38520200D01*
X16917903Y-38520201D01*
X16792263Y-38535456D01*
X16792261Y-38535457D01*
X16634270Y-38595375D01*
X16495210Y-38691361D01*
X16495209Y-38691361D01*
X16383163Y-38817834D01*
X16383163Y-38817835D01*
X16304638Y-38967452D01*
X16304637Y-38967455D01*
X16264200Y-39131512D01*
X16264200Y-39300487D01*
X15906200Y-39300487D01*
X15906200Y-37216579D01*
X15925107Y-37158388D01*
X15935196Y-37146576D01*
X16105308Y-36976463D01*
X16159825Y-36948685D01*
X16220257Y-36958256D01*
X16263522Y-37001521D01*
X16273093Y-37061953D01*
X16271436Y-37070156D01*
X16264200Y-37099515D01*
X16264200Y-37268487D01*
X16304637Y-37432544D01*
X16304638Y-37432547D01*
X16383163Y-37582164D01*
X16383163Y-37582165D01*
X16495209Y-37708638D01*
X16525433Y-37729500D01*
X16634271Y-37804625D01*
X16792261Y-37864543D01*
X16917915Y-37879800D01*
X16917920Y-37879800D01*
X17002080Y-37879800D01*
X17002085Y-37879800D01*
X17127739Y-37864543D01*
X17285729Y-37804625D01*
X17424789Y-37708639D01*
X17424790Y-37708638D01*
X17536836Y-37582165D01*
X17536836Y-37582164D01*
X17536835Y-37582164D01*
X17536838Y-37582162D01*
X17615362Y-37432546D01*
X17655800Y-37268485D01*
X17655800Y-37099515D01*
X17615362Y-36935454D01*
X17536838Y-36785838D01*
X17536836Y-36785836D01*
X17536836Y-36785835D01*
X17536836Y-36785834D01*
X17424790Y-36659361D01*
X17285729Y-36563375D01*
X17282976Y-36562331D01*
X17127739Y-36503457D01*
X17127737Y-36503456D01*
X17127736Y-36503456D01*
X17002096Y-36488201D01*
X17002090Y-36488200D01*
X17002085Y-36488200D01*
X16917915Y-36488200D01*
X16917910Y-36488200D01*
X16917903Y-36488201D01*
X16833545Y-36498444D01*
X16773500Y-36486689D01*
X16731831Y-36441885D01*
X16724456Y-36381145D01*
X16751606Y-36330164D01*
X19136396Y-33945375D01*
X19190913Y-33917598D01*
X19251345Y-33927169D01*
X19294610Y-33970434D01*
X19305400Y-34015379D01*
X19305400Y-43564645D01*
X19286493Y-43622836D01*
X19236993Y-43658800D01*
X19175807Y-43658800D01*
X19136398Y-43634650D01*
X19103220Y-43601472D01*
X19103217Y-43601470D01*
X18983132Y-43540283D01*
X18983127Y-43540281D01*
X18983126Y-43540281D01*
X18949913Y-43535020D01*
X18883490Y-43524500D01*
X18883488Y-43524500D01*
X18316512Y-43524500D01*
X18316510Y-43524500D01*
X18216874Y-43540281D01*
X18216867Y-43540283D01*
X18096782Y-43601470D01*
X18001470Y-43696782D01*
X17940283Y-43816867D01*
X17940281Y-43816874D01*
X17925319Y-43911344D01*
X17924500Y-43916512D01*
X17924500Y-44433488D01*
X17939645Y-44529113D01*
X17940281Y-44533125D01*
X17940283Y-44533132D01*
X18001470Y-44653217D01*
X18001472Y-44653220D01*
X18096780Y-44748528D01*
X18139683Y-44770388D01*
X18182945Y-44813651D01*
X18192517Y-44874083D01*
X18184790Y-44899721D01*
X18163302Y-44946773D01*
X18144867Y-45074996D01*
X18144867Y-45075001D01*
X18163302Y-45203224D01*
X18211290Y-45308301D01*
X18217118Y-45321062D01*
X18278170Y-45391521D01*
X18301952Y-45418967D01*
X18405754Y-45485676D01*
X18410931Y-45489003D01*
X18535228Y-45525499D01*
X18535230Y-45525499D01*
X18664770Y-45525499D01*
X18664772Y-45525499D01*
X18686493Y-45519121D01*
X18747653Y-45520867D01*
X18796107Y-45558228D01*
X18813346Y-45616935D01*
X18812378Y-45628198D01*
X18794867Y-45749995D01*
X18794867Y-45750002D01*
X18814310Y-45885235D01*
X18811283Y-45885670D01*
X18809898Y-45933791D01*
X18772523Y-45982235D01*
X18716663Y-45999500D01*
X18580248Y-45999500D01*
X18519314Y-46011621D01*
X18480686Y-46011621D01*
X18419751Y-45999500D01*
X18419748Y-45999500D01*
X18080252Y-45999500D01*
X18080248Y-45999500D01*
X18019314Y-46011621D01*
X17980686Y-46011621D01*
X17919751Y-45999500D01*
X17919748Y-45999500D01*
X17580252Y-45999500D01*
X17580248Y-45999500D01*
X17519314Y-46011621D01*
X17480686Y-46011621D01*
X17419751Y-45999500D01*
X17419748Y-45999500D01*
X17080252Y-45999500D01*
X17080248Y-45999500D01*
X17019314Y-46011621D01*
X16980686Y-46011621D01*
X16919751Y-45999500D01*
X16919748Y-45999500D01*
X16580252Y-45999500D01*
X16580251Y-45999500D01*
X16580241Y-45999501D01*
X16521772Y-46011132D01*
X16521766Y-46011134D01*
X16455451Y-46055445D01*
X16455445Y-46055451D01*
X16411134Y-46121766D01*
X16411132Y-46121772D01*
X16399501Y-46180241D01*
X16399500Y-46180253D01*
X16399500Y-47519746D01*
X16399501Y-47519758D01*
X16411132Y-47578227D01*
X16411134Y-47578233D01*
X16455026Y-47643921D01*
X16455448Y-47644552D01*
X16521769Y-47688867D01*
X16566231Y-47697711D01*
X16580241Y-47700498D01*
X16580246Y-47700498D01*
X16580252Y-47700500D01*
X16580253Y-47700500D01*
X16919747Y-47700500D01*
X16919748Y-47700500D01*
X16949505Y-47694581D01*
X16980685Y-47688379D01*
X17019315Y-47688379D01*
X17080241Y-47700498D01*
X17080246Y-47700498D01*
X17080252Y-47700500D01*
X17080253Y-47700500D01*
X17419747Y-47700500D01*
X17419748Y-47700500D01*
X17449505Y-47694581D01*
X17480685Y-47688379D01*
X17519315Y-47688379D01*
X17580241Y-47700498D01*
X17580246Y-47700498D01*
X17580252Y-47700500D01*
X17580253Y-47700500D01*
X17919747Y-47700500D01*
X17919748Y-47700500D01*
X17949505Y-47694581D01*
X17980685Y-47688379D01*
X18019315Y-47688379D01*
X18080241Y-47700498D01*
X18080246Y-47700498D01*
X18080252Y-47700500D01*
X18080253Y-47700500D01*
X18419747Y-47700500D01*
X18419748Y-47700500D01*
X18449505Y-47694581D01*
X18480685Y-47688379D01*
X18519315Y-47688379D01*
X18580241Y-47700498D01*
X18580246Y-47700498D01*
X18580252Y-47700500D01*
X18580253Y-47700500D01*
X18919747Y-47700500D01*
X18919748Y-47700500D01*
X18949505Y-47694581D01*
X18980685Y-47688379D01*
X19019315Y-47688379D01*
X19080241Y-47700498D01*
X19080246Y-47700498D01*
X19080252Y-47700500D01*
X19216663Y-47700500D01*
X19274854Y-47719407D01*
X19310818Y-47768907D01*
X19311471Y-47814356D01*
X19314310Y-47814765D01*
X19294867Y-47949997D01*
X19294867Y-47950002D01*
X19313302Y-48078225D01*
X19366100Y-48193834D01*
X19367118Y-48196063D01*
X19451345Y-48293268D01*
X19451952Y-48293968D01*
X19559843Y-48363305D01*
X19560931Y-48364004D01*
X19685228Y-48400500D01*
X19685230Y-48400500D01*
X19814770Y-48400500D01*
X19814772Y-48400500D01*
X19939069Y-48364004D01*
X20048049Y-48293967D01*
X20132882Y-48196063D01*
X20186697Y-48078226D01*
X20200246Y-47983988D01*
X20205133Y-47950002D01*
X20205133Y-47949997D01*
X20205033Y-47949302D01*
X22976867Y-47949302D01*
X22995302Y-48077525D01*
X23041537Y-48178763D01*
X23049118Y-48195363D01*
X23119499Y-48276588D01*
X23133952Y-48293268D01*
X23240835Y-48361957D01*
X23242931Y-48363304D01*
X23279299Y-48373982D01*
X23329806Y-48408517D01*
X23350369Y-48466143D01*
X23349401Y-48483060D01*
X23344867Y-48514596D01*
X23344867Y-48514602D01*
X23363302Y-48642825D01*
X23408800Y-48742450D01*
X23417118Y-48760663D01*
X23475320Y-48827832D01*
X23499137Y-48884192D01*
X23499500Y-48892663D01*
X23499500Y-79657935D01*
X23497280Y-79671613D01*
X23498494Y-79671783D01*
X23497226Y-79680866D01*
X23499394Y-79727741D01*
X23499500Y-79732313D01*
X23499500Y-79750944D01*
X23499522Y-79751066D01*
X23501101Y-79764677D01*
X23502414Y-79793087D01*
X23502415Y-79793094D01*
X23506384Y-79802082D01*
X23513132Y-79823872D01*
X23514939Y-79833533D01*
X23523809Y-79847860D01*
X23529912Y-79857717D01*
X23536301Y-79869838D01*
X23547794Y-79895865D01*
X23554745Y-79902816D01*
X23568907Y-79920696D01*
X23574081Y-79929052D01*
X23596781Y-79946194D01*
X23607117Y-79955188D01*
X24461409Y-80809480D01*
X24489186Y-80863997D01*
X24479615Y-80924429D01*
X24461409Y-80949488D01*
X24455445Y-80955451D01*
X24411134Y-81021766D01*
X24411132Y-81021772D01*
X24399501Y-81080241D01*
X24399500Y-81080253D01*
X24399500Y-82169746D01*
X24399501Y-82169758D01*
X24411132Y-82228227D01*
X24411133Y-82228231D01*
X24455448Y-82294552D01*
X24521769Y-82338867D01*
X24544816Y-82343451D01*
X24598198Y-82373346D01*
X24623814Y-82428911D01*
X24624500Y-82440548D01*
X24624500Y-84959451D01*
X24605593Y-85017642D01*
X24556093Y-85053606D01*
X24544816Y-85056548D01*
X24521772Y-85061132D01*
X24521766Y-85061134D01*
X24455451Y-85105445D01*
X24455445Y-85105451D01*
X24411134Y-85171766D01*
X24411132Y-85171772D01*
X24399501Y-85230241D01*
X24399500Y-85230253D01*
X24399500Y-86319746D01*
X24399501Y-86319758D01*
X24411132Y-86378227D01*
X24411134Y-86378233D01*
X24455445Y-86444548D01*
X24455448Y-86444552D01*
X24521769Y-86488867D01*
X24566231Y-86497711D01*
X24580241Y-86500498D01*
X24580246Y-86500498D01*
X24580252Y-86500500D01*
X24580253Y-86500500D01*
X25269747Y-86500500D01*
X25269748Y-86500500D01*
X25328231Y-86488867D01*
X25394552Y-86444552D01*
X25436106Y-86382362D01*
X25484155Y-86344483D01*
X25545294Y-86342081D01*
X25596167Y-86376074D01*
X25608474Y-86396236D01*
X25617117Y-86415162D01*
X25701952Y-86513068D01*
X25810926Y-86583101D01*
X25810931Y-86583104D01*
X25935228Y-86619600D01*
X25935230Y-86619600D01*
X26064770Y-86619600D01*
X26064772Y-86619600D01*
X26189069Y-86583104D01*
X26298049Y-86513067D01*
X26382882Y-86415163D01*
X26436697Y-86297326D01*
X26455133Y-86169100D01*
X26448323Y-86121737D01*
X26436697Y-86040874D01*
X26382883Y-85923040D01*
X26382882Y-85923037D01*
X26324679Y-85855866D01*
X26300863Y-85799508D01*
X26300500Y-85791037D01*
X26300500Y-84672463D01*
X26319407Y-84614272D01*
X26324680Y-84607632D01*
X26382882Y-84540463D01*
X26436697Y-84422626D01*
X26455133Y-84294400D01*
X26450877Y-84264802D01*
X26436697Y-84166174D01*
X26435944Y-84163608D01*
X26436007Y-84161374D01*
X26435690Y-84159165D01*
X26436072Y-84159110D01*
X26437688Y-84102448D01*
X26475048Y-84053993D01*
X26533754Y-84036752D01*
X26591382Y-84057311D01*
X26600936Y-84065708D01*
X26741503Y-84206275D01*
X26769280Y-84260792D01*
X26769491Y-84262190D01*
X26788302Y-84393025D01*
X26842117Y-84510861D01*
X26842118Y-84510863D01*
X26925968Y-84607632D01*
X26926952Y-84608768D01*
X27012883Y-84663992D01*
X27035931Y-84678804D01*
X27160228Y-84715300D01*
X27160230Y-84715300D01*
X27289770Y-84715300D01*
X27289772Y-84715300D01*
X27414069Y-84678804D01*
X27523049Y-84608767D01*
X27607882Y-84510863D01*
X27661697Y-84393026D01*
X27667842Y-84350284D01*
X27680133Y-84264802D01*
X27680133Y-84264797D01*
X27661697Y-84136574D01*
X27613573Y-84031199D01*
X28360796Y-84031199D01*
X28390184Y-84172628D01*
X28390186Y-84172636D01*
X28456644Y-84300892D01*
X28456646Y-84300895D01*
X28555245Y-84406469D01*
X28678672Y-84481526D01*
X28817772Y-84520500D01*
X28817773Y-84520500D01*
X28925943Y-84520500D01*
X28925949Y-84520500D01*
X29033111Y-84505771D01*
X29165609Y-84448219D01*
X29277665Y-84357054D01*
X29360971Y-84239037D01*
X29409346Y-84102921D01*
X29419204Y-83958801D01*
X29417465Y-83950433D01*
X29389815Y-83817371D01*
X29389813Y-83817363D01*
X29323355Y-83689107D01*
X29323353Y-83689104D01*
X29224754Y-83583530D01*
X29101328Y-83508474D01*
X28962228Y-83469500D01*
X28854051Y-83469500D01*
X28746888Y-83484228D01*
X28614389Y-83541781D01*
X28502334Y-83632945D01*
X28419029Y-83750962D01*
X28370653Y-83887078D01*
X28360796Y-84031199D01*
X27613573Y-84031199D01*
X27607882Y-84018738D01*
X27607882Y-84018737D01*
X27523049Y-83920833D01*
X27523048Y-83920832D01*
X27523047Y-83920831D01*
X27414073Y-83850798D01*
X27414070Y-83850796D01*
X27414069Y-83850796D01*
X27414066Y-83850795D01*
X27289774Y-83814300D01*
X27289772Y-83814300D01*
X27240479Y-83814300D01*
X27182288Y-83795393D01*
X27170475Y-83785304D01*
X26329496Y-82944325D01*
X26301719Y-82889808D01*
X26300500Y-82874321D01*
X26300500Y-80955663D01*
X26319407Y-80897472D01*
X26324680Y-80890832D01*
X26325111Y-80890335D01*
X26382882Y-80823663D01*
X26436697Y-80705826D01*
X26443132Y-80661066D01*
X26455133Y-80577602D01*
X26455133Y-80577597D01*
X26436697Y-80449374D01*
X26382882Y-80331537D01*
X26298049Y-80233633D01*
X26298048Y-80233632D01*
X26298047Y-80233631D01*
X26189073Y-80163598D01*
X26189070Y-80163596D01*
X26189069Y-80163596D01*
X26189066Y-80163595D01*
X26064774Y-80127100D01*
X26064772Y-80127100D01*
X25935228Y-80127100D01*
X25935225Y-80127100D01*
X25810933Y-80163595D01*
X25810926Y-80163598D01*
X25701952Y-80233631D01*
X25617117Y-80331538D01*
X25563302Y-80449374D01*
X25544867Y-80577597D01*
X25544867Y-80577602D01*
X25563302Y-80705825D01*
X25615887Y-80820968D01*
X25617118Y-80823663D01*
X25674889Y-80890335D01*
X25675320Y-80890832D01*
X25699137Y-80947192D01*
X25699500Y-80955663D01*
X25699500Y-82974635D01*
X25697280Y-82988313D01*
X25698494Y-82988483D01*
X25697226Y-82997566D01*
X25699394Y-83044441D01*
X25699500Y-83049013D01*
X25699500Y-83067644D01*
X25699522Y-83067766D01*
X25701101Y-83081377D01*
X25702414Y-83109787D01*
X25702415Y-83109794D01*
X25706384Y-83118782D01*
X25713132Y-83140572D01*
X25714939Y-83150233D01*
X25723809Y-83164560D01*
X25729912Y-83174417D01*
X25736301Y-83186538D01*
X25747794Y-83212565D01*
X25754745Y-83219516D01*
X25768907Y-83237396D01*
X25774081Y-83245752D01*
X25796781Y-83262894D01*
X25807117Y-83271889D01*
X26235527Y-83700300D01*
X26263304Y-83754816D01*
X26253733Y-83815248D01*
X26210468Y-83858513D01*
X26150036Y-83868084D01*
X26137632Y-83865293D01*
X26064774Y-83843900D01*
X26064772Y-83843900D01*
X25935228Y-83843900D01*
X25935225Y-83843900D01*
X25810933Y-83880395D01*
X25810926Y-83880398D01*
X25701952Y-83950431D01*
X25617117Y-84048338D01*
X25563302Y-84166174D01*
X25544867Y-84294397D01*
X25544867Y-84294402D01*
X25563302Y-84422625D01*
X25608001Y-84520500D01*
X25617118Y-84540463D01*
X25675320Y-84607632D01*
X25699137Y-84663992D01*
X25699500Y-84672463D01*
X25699500Y-85791037D01*
X25680593Y-85849228D01*
X25675331Y-85855853D01*
X25624318Y-85914726D01*
X25571924Y-85946322D01*
X25510963Y-85941087D01*
X25464722Y-85901019D01*
X25450500Y-85849895D01*
X25450500Y-85230253D01*
X25450498Y-85230241D01*
X25447711Y-85216231D01*
X25438867Y-85171769D01*
X25394552Y-85105448D01*
X25394548Y-85105445D01*
X25328233Y-85061134D01*
X25328231Y-85061133D01*
X25328228Y-85061132D01*
X25328227Y-85061132D01*
X25305184Y-85056548D01*
X25251800Y-85026650D01*
X25226186Y-84971085D01*
X25225500Y-84959451D01*
X25225500Y-82440548D01*
X25244407Y-82382357D01*
X25293907Y-82346393D01*
X25305170Y-82343453D01*
X25328231Y-82338867D01*
X25394552Y-82294552D01*
X25438867Y-82228231D01*
X25450500Y-82169748D01*
X25450500Y-81080252D01*
X25438867Y-81021769D01*
X25394552Y-80955448D01*
X25394548Y-80955445D01*
X25328233Y-80911134D01*
X25328231Y-80911133D01*
X25328228Y-80911132D01*
X25328227Y-80911132D01*
X25304595Y-80906431D01*
X25251212Y-80876534D01*
X25227267Y-80824591D01*
X25226343Y-80824765D01*
X25225656Y-80821097D01*
X25225597Y-80820968D01*
X25225551Y-80820533D01*
X25225500Y-80820260D01*
X25225500Y-80820256D01*
X25225478Y-80820142D01*
X25223898Y-80806530D01*
X25222585Y-80778108D01*
X25218615Y-80769117D01*
X25211864Y-80747315D01*
X25210061Y-80737668D01*
X25210061Y-80737667D01*
X25195085Y-80713479D01*
X25188698Y-80701362D01*
X25177206Y-80675335D01*
X25177205Y-80675333D01*
X25170256Y-80668384D01*
X25156090Y-80650499D01*
X25150919Y-80642148D01*
X25128221Y-80625007D01*
X25117879Y-80616008D01*
X24129496Y-79627625D01*
X24101719Y-79573108D01*
X24100500Y-79557621D01*
X24100500Y-79175004D01*
X31882566Y-79175004D01*
X31886478Y-79202215D01*
X31887179Y-79208626D01*
X31887199Y-79208758D01*
X31887199Y-79208762D01*
X31891969Y-79240415D01*
X31892038Y-79240884D01*
X31901456Y-79306388D01*
X31902351Y-79309287D01*
X31924365Y-79355001D01*
X31929374Y-79365401D01*
X31930231Y-79367229D01*
X31954816Y-79421062D01*
X31956981Y-79424432D01*
X31959827Y-79429520D01*
X31961275Y-79431643D01*
X32001099Y-79474563D01*
X32003347Y-79477070D01*
X32039647Y-79518964D01*
X32044996Y-79523599D01*
X32044687Y-79523955D01*
X32047832Y-79526588D01*
X32047847Y-79526571D01*
X32053643Y-79531193D01*
X32053644Y-79531194D01*
X32071592Y-79541556D01*
X32101127Y-79558608D01*
X32105128Y-79561047D01*
X32148630Y-79589004D01*
X32148632Y-79589004D01*
X32152870Y-79590940D01*
X32169347Y-79597995D01*
X32171254Y-79599096D01*
X32221065Y-79610464D01*
X32226919Y-79611991D01*
X32272921Y-79625499D01*
X32272926Y-79625499D01*
X32272927Y-79625500D01*
X32275783Y-79625500D01*
X32297812Y-79627982D01*
X32298523Y-79628144D01*
X32303653Y-79629315D01*
X32350863Y-79625777D01*
X32358262Y-79625500D01*
X32402469Y-79625500D01*
X32402471Y-79625500D01*
X32408839Y-79623629D01*
X32429332Y-79619895D01*
X32439077Y-79619166D01*
X32479672Y-79603232D01*
X32487917Y-79600410D01*
X32526768Y-79589004D01*
X32535529Y-79583372D01*
X32552884Y-79574500D01*
X32565493Y-79569552D01*
X32596653Y-79544702D01*
X32604841Y-79538828D01*
X32635748Y-79518967D01*
X32645043Y-79508238D01*
X32658130Y-79495675D01*
X32671669Y-79484879D01*
X32692009Y-79455043D01*
X32698978Y-79445992D01*
X32720581Y-79421063D01*
X32728037Y-79404733D01*
X32736292Y-79390094D01*
X32748171Y-79372673D01*
X32757708Y-79341750D01*
X32762254Y-79329810D01*
X32774396Y-79303226D01*
X32775168Y-79297855D01*
X32777487Y-79281731D01*
X32780877Y-79266639D01*
X32786969Y-79246888D01*
X32788199Y-79242902D01*
X32788199Y-79214301D01*
X32789207Y-79200210D01*
X32789385Y-79198977D01*
X32792832Y-79175000D01*
X32791298Y-79164334D01*
X32789207Y-79149786D01*
X32788199Y-79135697D01*
X32788199Y-51618111D01*
X32807106Y-51559920D01*
X32817189Y-51548113D01*
X34671878Y-49693423D01*
X34688355Y-49680147D01*
X34693149Y-49677067D01*
X34722726Y-49642930D01*
X34727529Y-49637772D01*
X34737525Y-49627778D01*
X34744814Y-49617900D01*
X34749624Y-49611888D01*
X34777982Y-49579163D01*
X34781131Y-49572265D01*
X34791529Y-49554603D01*
X34797893Y-49545982D01*
X34811984Y-49505708D01*
X34815363Y-49497307D01*
X34831797Y-49461326D01*
X34833413Y-49450078D01*
X34837960Y-49431473D01*
X34842746Y-49417799D01*
X34844201Y-49378894D01*
X34845137Y-49368538D01*
X34850233Y-49333100D01*
X34848079Y-49318123D01*
X34847141Y-49300343D01*
X34847825Y-49282090D01*
X34838720Y-49248110D01*
X34836357Y-49236590D01*
X34831797Y-49204874D01*
X34823947Y-49187686D01*
X34818377Y-49172188D01*
X34812676Y-49150912D01*
X34812674Y-49150909D01*
X34795959Y-49124308D01*
X34789729Y-49112759D01*
X34777984Y-49087040D01*
X34777982Y-49087038D01*
X34777982Y-49087037D01*
X34763144Y-49069913D01*
X34754143Y-49057759D01*
X34746561Y-49045692D01*
X34740424Y-49035925D01*
X34740422Y-49035923D01*
X34740421Y-49035921D01*
X34719454Y-49017878D01*
X34709209Y-49007668D01*
X34693149Y-48989133D01*
X34670927Y-48974852D01*
X34659874Y-48966607D01*
X34659791Y-48966536D01*
X34637488Y-48947342D01*
X34637487Y-48947341D01*
X34615580Y-48937783D01*
X34601647Y-48930328D01*
X34584170Y-48919096D01*
X34555224Y-48910597D01*
X34543528Y-48906347D01*
X34513016Y-48893035D01*
X34492994Y-48890778D01*
X34476194Y-48887392D01*
X34459876Y-48882601D01*
X34459874Y-48882600D01*
X34459872Y-48882600D01*
X34459869Y-48882600D01*
X34425964Y-48882600D01*
X34414881Y-48881978D01*
X34378066Y-48877830D01*
X34378061Y-48877830D01*
X34361976Y-48880874D01*
X34343572Y-48882600D01*
X34330327Y-48882600D01*
X34294192Y-48893208D01*
X34284713Y-48895491D01*
X34244631Y-48903075D01*
X34244625Y-48903077D01*
X34233478Y-48908968D01*
X34215123Y-48916425D01*
X34206033Y-48919094D01*
X34206032Y-48919095D01*
X34171199Y-48941480D01*
X34163939Y-48945721D01*
X34124566Y-48966531D01*
X34124559Y-48966536D01*
X34118318Y-48972777D01*
X34101851Y-48986047D01*
X34097053Y-48989130D01*
X34097050Y-48989133D01*
X34067480Y-49023257D01*
X34062667Y-49028427D01*
X32040965Y-51050129D01*
X32032689Y-51057525D01*
X32003728Y-51080621D01*
X31971255Y-51128248D01*
X31969115Y-51131264D01*
X31934906Y-51177616D01*
X31931441Y-51184174D01*
X31931052Y-51183968D01*
X31930049Y-51185955D01*
X31930445Y-51186146D01*
X31927225Y-51192832D01*
X31910235Y-51247910D01*
X31909079Y-51251423D01*
X31890054Y-51305795D01*
X31888675Y-51313087D01*
X31888243Y-51313005D01*
X31887870Y-51315200D01*
X31888304Y-51315266D01*
X31887199Y-51322599D01*
X31887199Y-51380215D01*
X31887130Y-51383916D01*
X31884975Y-51441510D01*
X31885806Y-51448885D01*
X31885367Y-51448934D01*
X31887199Y-51462844D01*
X31887199Y-79135697D01*
X31886191Y-79149786D01*
X31882566Y-79174998D01*
X31882566Y-79175004D01*
X24100500Y-79175004D01*
X24100500Y-78339026D01*
X24119407Y-78280835D01*
X24168907Y-78244871D01*
X24227387Y-78244036D01*
X24335228Y-78275700D01*
X24335230Y-78275700D01*
X24464770Y-78275700D01*
X24464772Y-78275700D01*
X24589069Y-78239204D01*
X24698049Y-78169167D01*
X24782882Y-78071263D01*
X24836697Y-77953426D01*
X24855133Y-77825200D01*
X24854130Y-77818226D01*
X24836697Y-77696974D01*
X24782883Y-77579140D01*
X24782882Y-77579137D01*
X24724679Y-77511966D01*
X24700863Y-77455608D01*
X24700500Y-77447137D01*
X24700500Y-48431768D01*
X24702731Y-48418095D01*
X24701505Y-48417924D01*
X24702773Y-48408832D01*
X24700606Y-48361957D01*
X24700500Y-48357385D01*
X24700500Y-48338760D01*
X24700500Y-48338756D01*
X24700478Y-48338642D01*
X24698898Y-48325030D01*
X24697585Y-48296608D01*
X24693614Y-48287616D01*
X24686864Y-48265814D01*
X24685061Y-48256168D01*
X24685061Y-48256167D01*
X24670085Y-48231979D01*
X24663697Y-48219860D01*
X24652206Y-48193834D01*
X24652205Y-48193833D01*
X24652204Y-48193831D01*
X24645254Y-48186881D01*
X24631088Y-48168995D01*
X24625921Y-48160650D01*
X24625918Y-48160647D01*
X24603226Y-48143511D01*
X24592883Y-48134511D01*
X24417849Y-47959477D01*
X24241266Y-47782895D01*
X24233179Y-47771644D01*
X24232187Y-47772394D01*
X24226658Y-47765072D01*
X24191972Y-47733451D01*
X24188668Y-47730296D01*
X24175500Y-47717128D01*
X24175496Y-47717125D01*
X24175393Y-47717055D01*
X24164662Y-47708555D01*
X24143633Y-47689384D01*
X24134462Y-47685831D01*
X24114286Y-47675195D01*
X24106184Y-47669645D01*
X24106179Y-47669643D01*
X24078497Y-47663132D01*
X24065403Y-47659077D01*
X24038877Y-47648800D01*
X24038873Y-47648800D01*
X24029048Y-47648800D01*
X24006383Y-47646170D01*
X23996819Y-47643921D01*
X23996818Y-47643921D01*
X23968646Y-47647851D01*
X23954969Y-47648800D01*
X23812925Y-47648800D01*
X23754734Y-47629893D01*
X23738105Y-47614630D01*
X23730049Y-47605333D01*
X23730048Y-47605332D01*
X23621073Y-47535298D01*
X23621070Y-47535296D01*
X23621069Y-47535296D01*
X23621066Y-47535295D01*
X23496774Y-47498800D01*
X23496772Y-47498800D01*
X23367228Y-47498800D01*
X23367225Y-47498800D01*
X23242933Y-47535295D01*
X23242926Y-47535298D01*
X23133952Y-47605331D01*
X23049117Y-47703238D01*
X22995302Y-47821074D01*
X22976867Y-47949297D01*
X22976867Y-47949302D01*
X20205033Y-47949302D01*
X20185690Y-47814765D01*
X20188716Y-47814329D01*
X20190102Y-47766209D01*
X20227477Y-47717765D01*
X20283337Y-47700500D01*
X20419747Y-47700500D01*
X20419748Y-47700500D01*
X20449505Y-47694581D01*
X20480685Y-47688379D01*
X20519315Y-47688379D01*
X20580241Y-47700498D01*
X20580246Y-47700498D01*
X20580252Y-47700500D01*
X20580253Y-47700500D01*
X20919747Y-47700500D01*
X20919748Y-47700500D01*
X20949505Y-47694581D01*
X20980685Y-47688379D01*
X21019315Y-47688379D01*
X21080241Y-47700498D01*
X21080246Y-47700498D01*
X21080252Y-47700500D01*
X21080253Y-47700500D01*
X21419747Y-47700500D01*
X21419748Y-47700500D01*
X21449505Y-47694581D01*
X21480685Y-47688379D01*
X21519315Y-47688379D01*
X21580241Y-47700498D01*
X21580246Y-47700498D01*
X21580252Y-47700500D01*
X21580253Y-47700500D01*
X21919747Y-47700500D01*
X21919748Y-47700500D01*
X21978231Y-47688867D01*
X22044552Y-47644552D01*
X22088867Y-47578231D01*
X22100500Y-47519748D01*
X22100500Y-46180252D01*
X22088867Y-46121769D01*
X22065285Y-46086476D01*
X22048600Y-46031474D01*
X22048600Y-45703678D01*
X22067507Y-45645487D01*
X22077590Y-45633680D01*
X25707205Y-42004064D01*
X25718464Y-41995993D01*
X25717705Y-41994987D01*
X25725021Y-41989461D01*
X25725028Y-41989458D01*
X25756677Y-41954739D01*
X25759795Y-41951474D01*
X25772974Y-41938297D01*
X25773038Y-41938202D01*
X25781553Y-41927453D01*
X25800716Y-41906433D01*
X25804266Y-41897267D01*
X25814907Y-41877081D01*
X25820457Y-41868980D01*
X25826970Y-41841286D01*
X25831018Y-41828212D01*
X25841300Y-41801673D01*
X25841300Y-41791848D01*
X25843929Y-41769183D01*
X25846179Y-41759619D01*
X25842249Y-41731444D01*
X25841300Y-41717768D01*
X25841300Y-37538587D01*
X25860207Y-37480396D01*
X25909707Y-37444432D01*
X25970893Y-37444432D01*
X26015120Y-37473757D01*
X26017117Y-37476062D01*
X26017118Y-37476063D01*
X26041499Y-37504201D01*
X26101950Y-37573966D01*
X26101951Y-37573967D01*
X26209712Y-37643221D01*
X26210931Y-37644004D01*
X26335228Y-37680500D01*
X26335230Y-37680500D01*
X26464770Y-37680500D01*
X26464772Y-37680500D01*
X26569509Y-37649747D01*
X26630669Y-37651495D01*
X26679122Y-37688857D01*
X26696400Y-37744737D01*
X26696400Y-42759637D01*
X26677493Y-42817828D01*
X26672220Y-42824467D01*
X26614018Y-42891636D01*
X26614016Y-42891640D01*
X26560202Y-43009474D01*
X26541767Y-43137697D01*
X26541767Y-43137702D01*
X26560202Y-43265925D01*
X26577157Y-43303050D01*
X26614018Y-43383763D01*
X26698748Y-43481548D01*
X26698852Y-43481668D01*
X26796582Y-43544475D01*
X26807831Y-43551704D01*
X26932128Y-43588200D01*
X26932130Y-43588200D01*
X27061670Y-43588200D01*
X27061672Y-43588200D01*
X27185969Y-43551704D01*
X27294949Y-43481667D01*
X27379782Y-43383763D01*
X27433597Y-43265926D01*
X27445103Y-43185901D01*
X27452033Y-43137702D01*
X27452033Y-43137697D01*
X27433597Y-43009474D01*
X27379783Y-42891640D01*
X27379782Y-42891637D01*
X27321579Y-42824466D01*
X27297763Y-42768108D01*
X27297400Y-42759637D01*
X27297400Y-37603331D01*
X27316307Y-37545140D01*
X27365807Y-37509176D01*
X27426993Y-37509176D01*
X27471220Y-37538501D01*
X27501950Y-37573966D01*
X27501951Y-37573967D01*
X27609712Y-37643221D01*
X27610931Y-37644004D01*
X27735228Y-37680500D01*
X27735230Y-37680500D01*
X27864770Y-37680500D01*
X27864772Y-37680500D01*
X27890209Y-37673031D01*
X27951369Y-37674778D01*
X27999822Y-37712141D01*
X28017100Y-37768021D01*
X28017100Y-38713022D01*
X27998193Y-38771213D01*
X27971624Y-38796306D01*
X27869351Y-38862033D01*
X27784517Y-38959938D01*
X27730702Y-39077774D01*
X27712267Y-39205997D01*
X27712267Y-39206002D01*
X27730702Y-39334225D01*
X27775593Y-39432520D01*
X27784518Y-39452063D01*
X27869351Y-39549967D01*
X27869352Y-39549968D01*
X27969245Y-39614165D01*
X27978331Y-39620004D01*
X28102628Y-39656500D01*
X28102630Y-39656500D01*
X28232170Y-39656500D01*
X28232172Y-39656500D01*
X28246407Y-39652320D01*
X28307566Y-39654065D01*
X28356020Y-39691426D01*
X28373300Y-39747309D01*
X28373300Y-43818335D01*
X28371080Y-43832013D01*
X28372294Y-43832183D01*
X28371026Y-43841266D01*
X28373194Y-43888141D01*
X28373300Y-43892713D01*
X28373300Y-43911344D01*
X28373322Y-43911466D01*
X28374901Y-43925077D01*
X28376214Y-43953487D01*
X28376215Y-43953494D01*
X28380184Y-43962482D01*
X28386932Y-43984272D01*
X28388739Y-43993933D01*
X28397609Y-44008260D01*
X28403712Y-44018117D01*
X28410101Y-44030238D01*
X28415166Y-44041707D01*
X28421594Y-44056265D01*
X28428545Y-44063216D01*
X28442707Y-44081096D01*
X28447881Y-44089452D01*
X28470581Y-44106594D01*
X28480917Y-44115588D01*
X30386607Y-46021278D01*
X30414384Y-46075795D01*
X30410151Y-46111632D01*
X30413035Y-46112206D01*
X30399500Y-46180249D01*
X30399500Y-47519746D01*
X30399501Y-47519758D01*
X30411132Y-47578227D01*
X30411134Y-47578233D01*
X30455026Y-47643921D01*
X30455448Y-47644552D01*
X30455451Y-47644554D01*
X30462343Y-47651446D01*
X30461233Y-47652555D01*
X30492222Y-47691861D01*
X30494626Y-47752999D01*
X30489397Y-47767251D01*
X30482904Y-47781469D01*
X30482901Y-47781478D01*
X30464467Y-47909697D01*
X30464467Y-47909703D01*
X30473109Y-47969813D01*
X30462675Y-48030102D01*
X30445121Y-48053905D01*
X28499190Y-49999837D01*
X28487961Y-50007950D01*
X28488690Y-50008915D01*
X28481371Y-50014441D01*
X28449741Y-50049137D01*
X28446589Y-50052438D01*
X28433430Y-50065598D01*
X28433418Y-50065612D01*
X28433349Y-50065714D01*
X28424855Y-50076435D01*
X28405683Y-50097466D01*
X28405683Y-50097467D01*
X28402129Y-50106640D01*
X28391496Y-50126812D01*
X28385946Y-50134915D01*
X28385941Y-50134924D01*
X28379430Y-50162606D01*
X28375377Y-50175696D01*
X28365101Y-50202223D01*
X28365100Y-50202229D01*
X28365100Y-50212051D01*
X28362470Y-50234718D01*
X28360221Y-50244279D01*
X28364151Y-50272453D01*
X28365100Y-50286130D01*
X28365100Y-77311937D01*
X28346193Y-77370128D01*
X28340920Y-77376767D01*
X28282718Y-77443936D01*
X28282716Y-77443940D01*
X28228902Y-77561774D01*
X28210467Y-77689997D01*
X28210467Y-77690002D01*
X28228902Y-77818225D01*
X28282717Y-77936061D01*
X28282718Y-77936063D01*
X28367551Y-78033967D01*
X28367552Y-78033968D01*
X28476526Y-78104001D01*
X28476531Y-78104004D01*
X28600828Y-78140500D01*
X28600830Y-78140500D01*
X28730370Y-78140500D01*
X28730372Y-78140500D01*
X28854669Y-78104004D01*
X28963649Y-78033967D01*
X29048482Y-77936063D01*
X29102297Y-77818226D01*
X29108442Y-77775484D01*
X29120733Y-77690002D01*
X29120733Y-77689997D01*
X29102297Y-77561774D01*
X29048482Y-77443937D01*
X28990279Y-77376766D01*
X28966463Y-77320408D01*
X28966100Y-77311937D01*
X28966100Y-50423878D01*
X28985007Y-50365687D01*
X28995090Y-50353880D01*
X30795735Y-48553234D01*
X30850250Y-48525459D01*
X30910682Y-48535030D01*
X30953947Y-48578295D01*
X30963729Y-48609150D01*
X30973402Y-48676425D01*
X31023791Y-48786760D01*
X31027218Y-48794263D01*
X31103761Y-48882600D01*
X31112052Y-48892168D01*
X31197905Y-48947342D01*
X31221031Y-48962204D01*
X31345328Y-48998700D01*
X31345330Y-48998700D01*
X31474870Y-48998700D01*
X31474872Y-48998700D01*
X31599169Y-48962204D01*
X31708149Y-48892167D01*
X31716205Y-48882870D01*
X31768600Y-48851273D01*
X31791025Y-48848700D01*
X31888536Y-48848700D01*
X31902211Y-48850932D01*
X31902383Y-48849706D01*
X31911464Y-48850972D01*
X31911465Y-48850973D01*
X31911465Y-48850972D01*
X31911466Y-48850973D01*
X31958342Y-48848806D01*
X31962914Y-48848700D01*
X31981542Y-48848700D01*
X31981544Y-48848700D01*
X31981648Y-48848680D01*
X31995271Y-48847098D01*
X32023692Y-48845785D01*
X32032676Y-48841817D01*
X32054477Y-48835065D01*
X32064133Y-48833261D01*
X32088318Y-48818286D01*
X32100428Y-48811901D01*
X32126465Y-48800406D01*
X32133409Y-48793460D01*
X32151301Y-48779289D01*
X32159652Y-48774119D01*
X32176789Y-48751423D01*
X32185782Y-48741087D01*
X32916405Y-48010464D01*
X32927664Y-48002393D01*
X32926905Y-48001387D01*
X32934221Y-47995861D01*
X32934228Y-47995858D01*
X32965877Y-47961139D01*
X32968995Y-47957874D01*
X32982174Y-47944697D01*
X32982238Y-47944602D01*
X32990753Y-47933853D01*
X32999130Y-47924664D01*
X33009916Y-47912833D01*
X33013465Y-47903670D01*
X33024106Y-47883482D01*
X33029656Y-47875381D01*
X33036169Y-47847685D01*
X33040220Y-47834606D01*
X33050500Y-47808073D01*
X33050500Y-47799500D01*
X33069407Y-47741309D01*
X33118907Y-47705345D01*
X33149500Y-47700500D01*
X33419747Y-47700500D01*
X33419748Y-47700500D01*
X33449505Y-47694581D01*
X33480685Y-47688379D01*
X33519315Y-47688379D01*
X33580241Y-47700498D01*
X33580246Y-47700498D01*
X33580252Y-47700500D01*
X33580253Y-47700500D01*
X33852274Y-47700500D01*
X33910465Y-47719407D01*
X33946429Y-47768907D01*
X33951168Y-47794929D01*
X33952414Y-47821886D01*
X33952415Y-47821894D01*
X33956384Y-47830882D01*
X33963132Y-47852672D01*
X33964939Y-47862333D01*
X33969379Y-47869504D01*
X33979912Y-47886517D01*
X33986301Y-47898638D01*
X33989147Y-47905082D01*
X33997794Y-47924665D01*
X34004745Y-47931616D01*
X34018907Y-47949496D01*
X34024081Y-47957852D01*
X34046781Y-47974994D01*
X34057117Y-47983988D01*
X34741236Y-48668107D01*
X34749337Y-48679347D01*
X34750316Y-48678609D01*
X34755844Y-48685930D01*
X34790524Y-48717545D01*
X34793832Y-48720703D01*
X34807003Y-48733874D01*
X34807095Y-48733937D01*
X34817842Y-48742450D01*
X34838864Y-48761614D01*
X34838865Y-48761614D01*
X34838867Y-48761616D01*
X34848030Y-48765166D01*
X34868216Y-48775805D01*
X34876319Y-48781356D01*
X34904015Y-48787870D01*
X34917093Y-48791920D01*
X34943627Y-48802200D01*
X34953452Y-48802200D01*
X34976116Y-48804829D01*
X34985681Y-48807079D01*
X35013445Y-48803206D01*
X35013854Y-48803149D01*
X35027531Y-48802200D01*
X35418236Y-48802200D01*
X35431911Y-48804432D01*
X35432083Y-48803206D01*
X35441164Y-48804472D01*
X35441165Y-48804473D01*
X35441165Y-48804472D01*
X35441166Y-48804473D01*
X35488042Y-48802306D01*
X35492614Y-48802200D01*
X35511242Y-48802200D01*
X35511244Y-48802200D01*
X35511348Y-48802180D01*
X35524971Y-48800598D01*
X35553392Y-48799285D01*
X35562376Y-48795317D01*
X35584177Y-48788565D01*
X35593833Y-48786761D01*
X35618018Y-48771786D01*
X35630128Y-48765401D01*
X35656165Y-48753906D01*
X35663109Y-48746960D01*
X35681001Y-48732789D01*
X35689352Y-48727619D01*
X35706489Y-48704923D01*
X35715482Y-48694587D01*
X36866405Y-47543664D01*
X36877664Y-47535593D01*
X36876905Y-47534587D01*
X36884221Y-47529061D01*
X36884228Y-47529058D01*
X36915877Y-47494339D01*
X36918995Y-47491074D01*
X36932174Y-47477897D01*
X36932238Y-47477802D01*
X36940753Y-47467053D01*
X36940944Y-47466844D01*
X36959916Y-47446033D01*
X36963465Y-47436870D01*
X36974106Y-47416682D01*
X36979656Y-47408581D01*
X36986169Y-47380885D01*
X36990220Y-47367806D01*
X37000500Y-47341273D01*
X37000500Y-47331448D01*
X37003129Y-47308783D01*
X37005379Y-47299219D01*
X37001449Y-47271044D01*
X37000500Y-47257368D01*
X37000500Y-45111007D01*
X37019407Y-45052816D01*
X37068907Y-45016852D01*
X37084012Y-45013226D01*
X37100304Y-45010646D01*
X37213342Y-44953050D01*
X37303050Y-44863342D01*
X37360646Y-44750304D01*
X37372999Y-44672309D01*
X37373819Y-44667135D01*
X37401597Y-44612618D01*
X37456113Y-44584841D01*
X37516545Y-44594413D01*
X37559810Y-44637677D01*
X37570600Y-44682622D01*
X37570600Y-47315420D01*
X37551693Y-47373611D01*
X37541604Y-47385424D01*
X35307890Y-49619137D01*
X35296661Y-49627250D01*
X35297390Y-49628215D01*
X35290071Y-49633741D01*
X35258441Y-49668437D01*
X35255289Y-49671738D01*
X35242130Y-49684898D01*
X35242118Y-49684912D01*
X35242049Y-49685014D01*
X35233555Y-49695735D01*
X35214383Y-49716766D01*
X35214383Y-49716767D01*
X35210829Y-49725940D01*
X35200196Y-49746112D01*
X35194646Y-49754215D01*
X35194641Y-49754224D01*
X35188130Y-49781906D01*
X35184077Y-49794996D01*
X35173801Y-49821523D01*
X35173800Y-49821529D01*
X35173800Y-49831351D01*
X35171170Y-49854018D01*
X35168921Y-49863579D01*
X35172851Y-49891753D01*
X35173800Y-49905430D01*
X35173800Y-79092235D01*
X35171580Y-79105913D01*
X35172794Y-79106083D01*
X35171526Y-79115166D01*
X35173694Y-79162041D01*
X35173800Y-79166613D01*
X35173800Y-79185244D01*
X35173822Y-79185366D01*
X35175401Y-79198977D01*
X35176714Y-79227387D01*
X35176715Y-79227394D01*
X35180684Y-79236382D01*
X35187432Y-79258172D01*
X35189239Y-79267833D01*
X35193090Y-79274053D01*
X35204212Y-79292017D01*
X35210601Y-79304138D01*
X35222094Y-79330165D01*
X35229045Y-79337116D01*
X35243207Y-79354996D01*
X35248381Y-79363352D01*
X35271081Y-79380494D01*
X35281417Y-79389488D01*
X36701409Y-80809480D01*
X36729186Y-80863997D01*
X36719615Y-80924429D01*
X36701409Y-80949488D01*
X36695445Y-80955451D01*
X36651134Y-81021766D01*
X36651132Y-81021772D01*
X36639501Y-81080241D01*
X36639500Y-81080253D01*
X36639500Y-82169746D01*
X36639501Y-82169758D01*
X36651132Y-82228227D01*
X36651133Y-82228231D01*
X36695448Y-82294552D01*
X36761769Y-82338867D01*
X36784816Y-82343451D01*
X36838198Y-82373346D01*
X36863814Y-82428911D01*
X36864500Y-82440548D01*
X36864500Y-84959451D01*
X36845593Y-85017642D01*
X36796093Y-85053606D01*
X36784816Y-85056548D01*
X36761772Y-85061132D01*
X36761766Y-85061134D01*
X36695451Y-85105445D01*
X36695445Y-85105451D01*
X36651134Y-85171766D01*
X36651132Y-85171772D01*
X36639501Y-85230241D01*
X36639500Y-85230253D01*
X36639500Y-86319746D01*
X36639501Y-86319758D01*
X36651132Y-86378227D01*
X36651134Y-86378233D01*
X36695445Y-86444548D01*
X36695448Y-86444552D01*
X36761769Y-86488867D01*
X36806231Y-86497711D01*
X36820241Y-86500498D01*
X36820246Y-86500498D01*
X36820252Y-86500500D01*
X36820253Y-86500500D01*
X37509747Y-86500500D01*
X37509748Y-86500500D01*
X37568231Y-86488867D01*
X37634552Y-86444552D01*
X37678867Y-86378231D01*
X37690500Y-86319748D01*
X37690500Y-85230252D01*
X37678867Y-85171769D01*
X37634552Y-85105448D01*
X37634548Y-85105445D01*
X37568233Y-85061134D01*
X37568231Y-85061133D01*
X37568228Y-85061132D01*
X37568227Y-85061132D01*
X37545184Y-85056548D01*
X37491800Y-85026650D01*
X37466186Y-84971085D01*
X37465500Y-84959451D01*
X37465500Y-82440548D01*
X37484407Y-82382357D01*
X37533907Y-82346393D01*
X37545170Y-82343453D01*
X37568231Y-82338867D01*
X37634552Y-82294552D01*
X37678867Y-82228231D01*
X37690500Y-82169748D01*
X37690500Y-81080252D01*
X37678867Y-81021769D01*
X37634552Y-80955448D01*
X37634548Y-80955445D01*
X37568233Y-80911134D01*
X37568231Y-80911133D01*
X37568228Y-80911132D01*
X37568227Y-80911132D01*
X37544595Y-80906431D01*
X37491212Y-80876534D01*
X37467267Y-80824591D01*
X37466343Y-80824765D01*
X37465656Y-80821097D01*
X37465597Y-80820968D01*
X37465551Y-80820533D01*
X37465500Y-80820260D01*
X37465500Y-80820256D01*
X37465478Y-80820142D01*
X37463898Y-80806530D01*
X37462585Y-80778109D01*
X37458613Y-80769114D01*
X37451865Y-80747320D01*
X37451864Y-80747315D01*
X37450061Y-80737667D01*
X37435087Y-80713483D01*
X37428692Y-80701350D01*
X37417207Y-80675336D01*
X37410257Y-80668386D01*
X37396088Y-80650496D01*
X37390920Y-80642149D01*
X37390919Y-80642148D01*
X37368221Y-80625007D01*
X37357879Y-80616008D01*
X35803796Y-79061925D01*
X35776019Y-79007408D01*
X35774800Y-78991921D01*
X35774800Y-76762101D01*
X35793707Y-76703910D01*
X35843207Y-76667946D01*
X35901692Y-76667112D01*
X35911528Y-76670000D01*
X35911530Y-76670000D01*
X36041070Y-76670000D01*
X36041072Y-76670000D01*
X36165369Y-76633504D01*
X36274349Y-76563467D01*
X36359182Y-76465563D01*
X36412997Y-76347726D01*
X36431433Y-76219500D01*
X36431432Y-76219498D01*
X36431808Y-76216889D01*
X36458803Y-76161981D01*
X36459729Y-76161040D01*
X41511405Y-71109364D01*
X41522664Y-71101293D01*
X41521905Y-71100287D01*
X41529221Y-71094761D01*
X41529228Y-71094758D01*
X41560877Y-71060039D01*
X41563995Y-71056774D01*
X41577174Y-71043597D01*
X41577238Y-71043502D01*
X41585753Y-71032753D01*
X41604916Y-71011733D01*
X41608465Y-71002570D01*
X41619106Y-70982382D01*
X41624656Y-70974281D01*
X41631169Y-70946585D01*
X41635220Y-70933506D01*
X41645500Y-70906973D01*
X41645500Y-70897148D01*
X41648129Y-70874483D01*
X41650379Y-70864919D01*
X41646449Y-70836744D01*
X41645500Y-70823068D01*
X41645500Y-51400002D01*
X46354867Y-51400002D01*
X46373302Y-51528225D01*
X46427117Y-51646061D01*
X46427118Y-51646063D01*
X46511951Y-51743967D01*
X46511952Y-51743968D01*
X46620926Y-51814001D01*
X46620931Y-51814004D01*
X46745228Y-51850500D01*
X46745230Y-51850500D01*
X46874770Y-51850500D01*
X46874772Y-51850500D01*
X46999069Y-51814004D01*
X47108049Y-51743967D01*
X47192882Y-51646063D01*
X47246697Y-51528226D01*
X47252842Y-51485484D01*
X47265133Y-51400002D01*
X47265133Y-51399997D01*
X47246697Y-51271774D01*
X47237403Y-51251423D01*
X47192882Y-51153937D01*
X47108049Y-51056033D01*
X47108048Y-51056032D01*
X47108047Y-51056031D01*
X46999073Y-50985998D01*
X46999070Y-50985996D01*
X46999069Y-50985996D01*
X46999066Y-50985995D01*
X46874774Y-50949500D01*
X46874772Y-50949500D01*
X46745228Y-50949500D01*
X46745225Y-50949500D01*
X46620933Y-50985995D01*
X46620926Y-50985998D01*
X46511952Y-51056031D01*
X46427117Y-51153938D01*
X46373302Y-51271774D01*
X46354867Y-51399997D01*
X46354867Y-51400002D01*
X41645500Y-51400002D01*
X41645500Y-49118200D01*
X43914168Y-49118200D01*
X43932603Y-49246423D01*
X43961307Y-49309275D01*
X43986419Y-49364261D01*
X44053800Y-49442024D01*
X44077617Y-49498383D01*
X44063758Y-49557978D01*
X44053800Y-49571684D01*
X44001432Y-49632121D01*
X43947616Y-49749959D01*
X43929181Y-49878182D01*
X43929181Y-49878187D01*
X43947616Y-50006410D01*
X43998278Y-50117341D01*
X44001432Y-50124248D01*
X44068997Y-50202223D01*
X44086266Y-50222153D01*
X44185817Y-50286130D01*
X44195245Y-50292189D01*
X44319542Y-50328685D01*
X44319544Y-50328685D01*
X44449084Y-50328685D01*
X44449086Y-50328685D01*
X44573383Y-50292189D01*
X44682363Y-50222152D01*
X44767196Y-50124248D01*
X44821011Y-50006411D01*
X44839447Y-49878185D01*
X44837347Y-49863581D01*
X44821011Y-49749959D01*
X44810042Y-49725940D01*
X44767196Y-49632122D01*
X44699813Y-49554356D01*
X44675997Y-49497999D01*
X44689856Y-49438404D01*
X44699811Y-49424702D01*
X44752183Y-49364261D01*
X44805998Y-49246424D01*
X44815524Y-49180172D01*
X44824434Y-49118200D01*
X44824434Y-49118195D01*
X44805998Y-48989972D01*
X44804205Y-48986047D01*
X44752183Y-48872135D01*
X44667350Y-48774231D01*
X44667349Y-48774230D01*
X44667348Y-48774229D01*
X44558374Y-48704196D01*
X44558371Y-48704194D01*
X44558370Y-48704194D01*
X44542169Y-48699437D01*
X44434075Y-48667698D01*
X44434073Y-48667698D01*
X44304529Y-48667698D01*
X44304526Y-48667698D01*
X44180234Y-48704193D01*
X44180227Y-48704196D01*
X44071253Y-48774229D01*
X43986418Y-48872136D01*
X43932603Y-48989972D01*
X43914168Y-49118195D01*
X43914168Y-49118200D01*
X41645500Y-49118200D01*
X41645500Y-47483979D01*
X41664407Y-47425788D01*
X41674496Y-47413975D01*
X43117996Y-45970475D01*
X43172513Y-45942698D01*
X43232945Y-45952269D01*
X43276210Y-45995534D01*
X43287000Y-46040479D01*
X43287000Y-47807744D01*
X43268093Y-47865935D01*
X43258005Y-47877746D01*
X43238974Y-47896777D01*
X43238970Y-47896782D01*
X43177782Y-48016870D01*
X43177781Y-48016872D01*
X43156696Y-48149999D01*
X43156696Y-48150000D01*
X43177781Y-48283127D01*
X43177782Y-48283129D01*
X43237586Y-48400500D01*
X43238972Y-48403220D01*
X43334280Y-48498528D01*
X43454374Y-48559719D01*
X43587500Y-48580804D01*
X43720626Y-48559719D01*
X43840720Y-48498528D01*
X43936028Y-48403220D01*
X43997219Y-48283126D01*
X44018304Y-48150002D01*
X46519866Y-48150002D01*
X46538301Y-48278225D01*
X46586928Y-48384701D01*
X46592117Y-48396063D01*
X46652841Y-48466143D01*
X46676951Y-48493968D01*
X46779262Y-48559719D01*
X46785930Y-48564004D01*
X46910227Y-48600500D01*
X46910229Y-48600500D01*
X47039769Y-48600500D01*
X47039771Y-48600500D01*
X47164068Y-48564004D01*
X47273048Y-48493967D01*
X47357881Y-48396063D01*
X47411696Y-48278226D01*
X47423509Y-48196063D01*
X47430132Y-48150002D01*
X47430132Y-48149997D01*
X47411696Y-48021774D01*
X47399860Y-47995857D01*
X47357881Y-47903937D01*
X47273048Y-47806033D01*
X47273047Y-47806032D01*
X47273046Y-47806031D01*
X47164072Y-47735998D01*
X47164069Y-47735996D01*
X47164068Y-47735996D01*
X47164065Y-47735995D01*
X47039773Y-47699500D01*
X47039771Y-47699500D01*
X46910227Y-47699500D01*
X46910224Y-47699500D01*
X46785932Y-47735995D01*
X46785925Y-47735998D01*
X46676951Y-47806031D01*
X46592116Y-47903938D01*
X46538301Y-48021774D01*
X46519866Y-48149997D01*
X46519866Y-48150002D01*
X44018304Y-48150002D01*
X44018304Y-48150000D01*
X43997219Y-48016874D01*
X43993954Y-48010467D01*
X43936975Y-47898638D01*
X43936028Y-47896780D01*
X43926810Y-47887562D01*
X43916995Y-47877746D01*
X43889219Y-47823229D01*
X43888000Y-47807744D01*
X43888000Y-46387500D01*
X45169196Y-46387500D01*
X45190281Y-46520627D01*
X45190282Y-46520629D01*
X45251470Y-46640717D01*
X45251472Y-46640720D01*
X45346780Y-46736028D01*
X45466874Y-46797219D01*
X45600000Y-46818304D01*
X45733126Y-46797219D01*
X45853220Y-46736028D01*
X45948528Y-46640720D01*
X46009719Y-46520626D01*
X46030804Y-46387500D01*
X46009719Y-46254374D01*
X45948528Y-46134280D01*
X45853220Y-46038972D01*
X45853217Y-46038970D01*
X45733129Y-45977782D01*
X45733127Y-45977781D01*
X45600000Y-45956696D01*
X45466872Y-45977781D01*
X45466870Y-45977782D01*
X45346782Y-46038970D01*
X45251470Y-46134282D01*
X45190282Y-46254370D01*
X45190281Y-46254372D01*
X45169196Y-46387499D01*
X45169196Y-46387500D01*
X43888000Y-46387500D01*
X43888000Y-45739178D01*
X43906907Y-45680987D01*
X43916990Y-45669180D01*
X44526105Y-45060064D01*
X44537364Y-45051993D01*
X44536605Y-45050987D01*
X44543921Y-45045461D01*
X44543928Y-45045458D01*
X44575577Y-45010739D01*
X44578695Y-45007474D01*
X44591874Y-44994297D01*
X44591938Y-44994202D01*
X44600453Y-44983453D01*
X44608440Y-44974692D01*
X44619616Y-44962433D01*
X44623166Y-44953267D01*
X44633807Y-44933081D01*
X44639357Y-44924980D01*
X44645870Y-44897286D01*
X44649918Y-44884212D01*
X44660200Y-44857673D01*
X44660200Y-44847848D01*
X44662829Y-44825183D01*
X44665079Y-44815619D01*
X44662139Y-44794546D01*
X44661149Y-44787444D01*
X44660200Y-44773768D01*
X44660200Y-42220568D01*
X44662431Y-42206895D01*
X44661205Y-42206724D01*
X44662473Y-42197632D01*
X44660306Y-42150757D01*
X44660200Y-42146185D01*
X44660200Y-42127560D01*
X44660200Y-42127556D01*
X44660178Y-42127442D01*
X44658598Y-42113830D01*
X44657285Y-42085408D01*
X44653315Y-42076417D01*
X44646564Y-42054615D01*
X44645590Y-42049406D01*
X44644761Y-42044967D01*
X44629785Y-42020779D01*
X44623398Y-42008662D01*
X44611906Y-41982635D01*
X44611905Y-41982633D01*
X44604956Y-41975684D01*
X44590790Y-41957799D01*
X44585619Y-41949448D01*
X44562921Y-41932307D01*
X44552579Y-41923308D01*
X41330696Y-38701425D01*
X41302919Y-38646908D01*
X41301700Y-38631421D01*
X41301700Y-36083828D01*
X45895623Y-36083828D01*
X45905943Y-36247857D01*
X45956732Y-36404173D01*
X46044797Y-36542939D01*
X46164607Y-36655448D01*
X46164606Y-36655448D01*
X46273407Y-36715262D01*
X46308632Y-36734627D01*
X46467823Y-36775500D01*
X46467826Y-36775500D01*
X46590925Y-36775500D01*
X46713053Y-36760072D01*
X46713054Y-36760071D01*
X46713058Y-36760071D01*
X46865871Y-36699568D01*
X46998837Y-36602963D01*
X47103600Y-36476326D01*
X47173579Y-36327613D01*
X47204376Y-36166170D01*
X47194056Y-36002140D01*
X47143268Y-35845829D01*
X47143267Y-35845828D01*
X47143267Y-35845826D01*
X47055202Y-35707060D01*
X46935392Y-35594551D01*
X46935393Y-35594551D01*
X46791369Y-35515373D01*
X46632179Y-35474500D01*
X46632177Y-35474500D01*
X46509075Y-35474500D01*
X46386946Y-35489927D01*
X46386943Y-35489928D01*
X46234129Y-35550432D01*
X46234125Y-35550434D01*
X46101162Y-35647037D01*
X45996399Y-35773674D01*
X45926420Y-35922387D01*
X45895624Y-36083823D01*
X45895623Y-36083828D01*
X41301700Y-36083828D01*
X41301700Y-31833828D01*
X45895623Y-31833828D01*
X45905943Y-31997857D01*
X45956732Y-32154173D01*
X46044797Y-32292939D01*
X46044798Y-32292940D01*
X46060332Y-32307527D01*
X46164607Y-32405448D01*
X46164606Y-32405448D01*
X46287617Y-32473074D01*
X46308632Y-32484627D01*
X46467823Y-32525500D01*
X46467826Y-32525500D01*
X46590925Y-32525500D01*
X46713053Y-32510072D01*
X46713054Y-32510071D01*
X46713058Y-32510071D01*
X46865871Y-32449568D01*
X46998837Y-32352963D01*
X47103600Y-32226326D01*
X47173579Y-32077613D01*
X47191756Y-31982325D01*
X47204375Y-31916176D01*
X47204376Y-31916170D01*
X47199500Y-31838669D01*
X47194056Y-31752140D01*
X47143268Y-31595829D01*
X47143267Y-31595828D01*
X47143267Y-31595826D01*
X47055202Y-31457060D01*
X46935392Y-31344551D01*
X46935393Y-31344551D01*
X46791369Y-31265373D01*
X46632179Y-31224500D01*
X46632177Y-31224500D01*
X46509075Y-31224500D01*
X46386946Y-31239927D01*
X46386943Y-31239928D01*
X46234129Y-31300432D01*
X46234125Y-31300434D01*
X46101162Y-31397037D01*
X45996399Y-31523674D01*
X45926420Y-31672387D01*
X45895624Y-31833823D01*
X45895623Y-31833828D01*
X41301700Y-31833828D01*
X41301700Y-14300522D01*
X41320607Y-14242331D01*
X41370107Y-14206367D01*
X41396128Y-14201628D01*
X41410680Y-14200955D01*
X41418244Y-14200606D01*
X41422814Y-14200500D01*
X41441442Y-14200500D01*
X41441444Y-14200500D01*
X41441548Y-14200480D01*
X41455171Y-14198898D01*
X41483592Y-14197585D01*
X41492576Y-14193617D01*
X41514377Y-14186865D01*
X41524033Y-14185061D01*
X41548218Y-14170086D01*
X41560328Y-14163701D01*
X41586365Y-14152206D01*
X41593309Y-14145260D01*
X41611201Y-14131089D01*
X41619552Y-14125919D01*
X41636689Y-14103223D01*
X41645690Y-14092880D01*
X42130997Y-13607574D01*
X42185513Y-13579797D01*
X42245945Y-13589368D01*
X42289210Y-13632633D01*
X42300000Y-13677578D01*
X42300000Y-31000000D01*
X48600500Y-31000000D01*
X48658691Y-31018907D01*
X48694655Y-31068407D01*
X48699500Y-31099000D01*
X48699500Y-85397564D01*
X48699381Y-85402422D01*
X48681924Y-85757764D01*
X48680971Y-85767432D01*
X48629129Y-86116921D01*
X48627234Y-86126450D01*
X48541383Y-86469188D01*
X48538563Y-86478485D01*
X48419530Y-86811157D01*
X48415812Y-86820133D01*
X48264746Y-87139538D01*
X48260166Y-87148106D01*
X48078524Y-87451156D01*
X48073126Y-87459234D01*
X47862644Y-87743035D01*
X47856481Y-87750545D01*
X47619208Y-88012338D01*
X47612338Y-88019208D01*
X47350545Y-88256481D01*
X47343035Y-88262644D01*
X47059234Y-88473126D01*
X47051156Y-88478524D01*
X46748106Y-88660166D01*
X46739538Y-88664746D01*
X46420133Y-88815812D01*
X46411157Y-88819530D01*
X46078485Y-88938563D01*
X46069188Y-88941383D01*
X45726450Y-89027234D01*
X45716921Y-89029129D01*
X45367432Y-89080971D01*
X45357764Y-89081924D01*
X45002422Y-89099381D01*
X44997564Y-89099500D01*
X7002436Y-89099500D01*
X6997578Y-89099381D01*
X6642235Y-89081924D01*
X6632567Y-89080971D01*
X6283078Y-89029129D01*
X6273549Y-89027234D01*
X5930811Y-88941383D01*
X5921514Y-88938563D01*
X5588842Y-88819530D01*
X5579866Y-88815812D01*
X5360488Y-88712055D01*
X5260456Y-88664743D01*
X5251899Y-88660169D01*
X5100368Y-88569345D01*
X4948843Y-88478524D01*
X4940765Y-88473126D01*
X4656964Y-88262644D01*
X4649454Y-88256481D01*
X4387661Y-88019208D01*
X4380796Y-88012343D01*
X4369613Y-88000004D01*
X18844751Y-88000004D01*
X18863685Y-88168053D01*
X18863688Y-88168065D01*
X18919544Y-88327690D01*
X18919544Y-88327691D01*
X19009520Y-88470886D01*
X19009523Y-88470890D01*
X19129110Y-88590477D01*
X19129112Y-88590478D01*
X19129113Y-88590479D01*
X19247307Y-88664746D01*
X19272310Y-88680456D01*
X19336232Y-88702823D01*
X19431934Y-88736311D01*
X19431938Y-88736312D01*
X19431941Y-88736313D01*
X19431942Y-88736313D01*
X19431946Y-88736314D01*
X19599996Y-88755249D01*
X19600000Y-88755249D01*
X19600004Y-88755249D01*
X19768053Y-88736314D01*
X19768055Y-88736313D01*
X19768059Y-88736313D01*
X19927690Y-88680456D01*
X20070890Y-88590477D01*
X20190477Y-88470890D01*
X20280456Y-88327690D01*
X20336313Y-88168059D01*
X20336314Y-88168053D01*
X20355249Y-88000004D01*
X31644751Y-88000004D01*
X31663685Y-88168053D01*
X31663688Y-88168065D01*
X31719544Y-88327690D01*
X31719544Y-88327691D01*
X31809520Y-88470886D01*
X31809523Y-88470890D01*
X31929110Y-88590477D01*
X31929112Y-88590478D01*
X31929113Y-88590479D01*
X32047307Y-88664746D01*
X32072310Y-88680456D01*
X32136232Y-88702823D01*
X32231934Y-88736311D01*
X32231938Y-88736312D01*
X32231941Y-88736313D01*
X32231942Y-88736313D01*
X32231946Y-88736314D01*
X32399996Y-88755249D01*
X32400000Y-88755249D01*
X32400004Y-88755249D01*
X32568053Y-88736314D01*
X32568055Y-88736313D01*
X32568059Y-88736313D01*
X32727690Y-88680456D01*
X32870890Y-88590477D01*
X32990477Y-88470890D01*
X33080456Y-88327690D01*
X33136313Y-88168059D01*
X33136314Y-88168053D01*
X33155249Y-88000004D01*
X33155249Y-87999995D01*
X33136314Y-87831946D01*
X33136311Y-87831934D01*
X33106569Y-87746938D01*
X33080456Y-87672310D01*
X32990477Y-87529110D01*
X32870890Y-87409523D01*
X32870887Y-87409521D01*
X32870886Y-87409520D01*
X32727691Y-87319544D01*
X32568065Y-87263688D01*
X32568053Y-87263685D01*
X32400004Y-87244751D01*
X32399996Y-87244751D01*
X32231946Y-87263685D01*
X32231934Y-87263688D01*
X32072309Y-87319544D01*
X32072308Y-87319544D01*
X31929113Y-87409520D01*
X31809520Y-87529113D01*
X31719544Y-87672308D01*
X31719544Y-87672309D01*
X31663688Y-87831934D01*
X31663685Y-87831946D01*
X31644751Y-87999995D01*
X31644751Y-88000004D01*
X20355249Y-88000004D01*
X20355249Y-87999995D01*
X20336314Y-87831946D01*
X20336311Y-87831934D01*
X20306569Y-87746938D01*
X20280456Y-87672310D01*
X20190477Y-87529110D01*
X20070890Y-87409523D01*
X20070887Y-87409521D01*
X20070886Y-87409520D01*
X19927691Y-87319544D01*
X19768065Y-87263688D01*
X19768053Y-87263685D01*
X19600004Y-87244751D01*
X19599996Y-87244751D01*
X19431946Y-87263685D01*
X19431934Y-87263688D01*
X19272309Y-87319544D01*
X19272308Y-87319544D01*
X19129113Y-87409520D01*
X19009520Y-87529113D01*
X18919544Y-87672308D01*
X18919544Y-87672309D01*
X18863688Y-87831934D01*
X18863685Y-87831946D01*
X18844751Y-87999995D01*
X18844751Y-88000004D01*
X4369613Y-88000004D01*
X4218218Y-87832965D01*
X4143518Y-87750545D01*
X4137355Y-87743035D01*
X3926873Y-87459234D01*
X3921475Y-87451156D01*
X3896519Y-87409520D01*
X3739826Y-87148093D01*
X3735259Y-87139551D01*
X3584185Y-86820130D01*
X3580469Y-86811157D01*
X3565071Y-86768122D01*
X3461432Y-86478472D01*
X3458620Y-86469201D01*
X3372762Y-86126439D01*
X3370872Y-86116933D01*
X3319026Y-85767418D01*
X3318076Y-85757776D01*
X3300619Y-85402421D01*
X3300500Y-85397564D01*
X3300500Y-45000004D01*
X3844751Y-45000004D01*
X3863685Y-45168053D01*
X3863688Y-45168065D01*
X3919544Y-45327690D01*
X3919544Y-45327691D01*
X4009520Y-45470886D01*
X4009523Y-45470890D01*
X4129110Y-45590477D01*
X4129112Y-45590478D01*
X4129113Y-45590479D01*
X4267810Y-45677629D01*
X4272310Y-45680456D01*
X4273828Y-45680987D01*
X4431934Y-45736311D01*
X4431938Y-45736312D01*
X4431941Y-45736313D01*
X4431942Y-45736313D01*
X4431946Y-45736314D01*
X4599996Y-45755249D01*
X4600000Y-45755249D01*
X4600004Y-45755249D01*
X4768053Y-45736314D01*
X4768055Y-45736313D01*
X4768059Y-45736313D01*
X4777159Y-45733129D01*
X4782507Y-45731257D01*
X4927690Y-45680456D01*
X5070890Y-45590477D01*
X5190477Y-45470890D01*
X5280456Y-45327690D01*
X5333889Y-45174987D01*
X5336311Y-45168065D01*
X5336314Y-45168053D01*
X5355249Y-45000004D01*
X5355249Y-44999995D01*
X5336314Y-44831946D01*
X5336311Y-44831934D01*
X5298566Y-44724066D01*
X5280456Y-44672310D01*
X5279672Y-44671063D01*
X5190479Y-44529113D01*
X5190478Y-44529112D01*
X5190477Y-44529110D01*
X5070890Y-44409523D01*
X5070887Y-44409521D01*
X5070886Y-44409520D01*
X4927691Y-44319544D01*
X4768065Y-44263688D01*
X4768053Y-44263685D01*
X4600004Y-44244751D01*
X4599996Y-44244751D01*
X4431946Y-44263685D01*
X4431934Y-44263688D01*
X4272309Y-44319544D01*
X4272308Y-44319544D01*
X4129113Y-44409520D01*
X4009520Y-44529113D01*
X3919544Y-44672308D01*
X3919544Y-44672309D01*
X3863688Y-44831934D01*
X3863685Y-44831946D01*
X3844751Y-44999995D01*
X3844751Y-45000004D01*
X3300500Y-45000004D01*
X3300500Y-36083828D01*
X4795623Y-36083828D01*
X4805943Y-36247857D01*
X4856732Y-36404173D01*
X4944797Y-36542939D01*
X5064607Y-36655448D01*
X5064606Y-36655448D01*
X5173407Y-36715262D01*
X5208632Y-36734627D01*
X5367823Y-36775500D01*
X5367826Y-36775500D01*
X5490925Y-36775500D01*
X5613053Y-36760072D01*
X5613054Y-36760071D01*
X5613058Y-36760071D01*
X5765871Y-36699568D01*
X5898837Y-36602963D01*
X6003600Y-36476326D01*
X6054480Y-36368200D01*
X7126668Y-36368200D01*
X7145103Y-36496423D01*
X7165086Y-36540179D01*
X7198919Y-36614261D01*
X7283752Y-36712165D01*
X7283753Y-36712166D01*
X7388529Y-36779501D01*
X7392732Y-36782202D01*
X7517029Y-36818698D01*
X7517031Y-36818698D01*
X7646571Y-36818698D01*
X7646573Y-36818698D01*
X7770870Y-36782202D01*
X7879850Y-36712165D01*
X7964683Y-36614261D01*
X8018498Y-36496424D01*
X8031372Y-36406875D01*
X8058365Y-36351972D01*
X8059214Y-36351109D01*
X8130830Y-36279494D01*
X8185346Y-36251719D01*
X8200832Y-36250500D01*
X9312719Y-36250500D01*
X9312720Y-36250500D01*
X9425236Y-36235687D01*
X9466116Y-36218753D01*
X9527110Y-36213953D01*
X9579280Y-36245922D01*
X9602695Y-36302450D01*
X9603000Y-36310218D01*
X9603000Y-36481988D01*
X9584093Y-36540179D01*
X9574003Y-36551992D01*
X9336464Y-36789530D01*
X9328188Y-36796926D01*
X9299230Y-36820019D01*
X9299229Y-36820020D01*
X9266756Y-36867648D01*
X9264616Y-36870664D01*
X9230407Y-36917016D01*
X9226942Y-36923574D01*
X9226553Y-36923368D01*
X9225550Y-36925355D01*
X9225946Y-36925546D01*
X9222726Y-36932232D01*
X9205736Y-36987310D01*
X9204580Y-36990823D01*
X9185555Y-37045195D01*
X9184176Y-37052487D01*
X9183744Y-37052405D01*
X9183371Y-37054600D01*
X9183805Y-37054666D01*
X9182700Y-37061999D01*
X9182700Y-37119615D01*
X9182631Y-37123316D01*
X9180476Y-37180910D01*
X9181307Y-37188285D01*
X9180868Y-37188334D01*
X9182700Y-37202244D01*
X9182700Y-39590857D01*
X9163793Y-39649048D01*
X9114293Y-39685012D01*
X9053107Y-39685012D01*
X9051003Y-39684302D01*
X8996042Y-39665070D01*
X8959699Y-39652354D01*
X8959697Y-39652353D01*
X8959694Y-39652353D01*
X8929274Y-39649500D01*
X8929266Y-39649500D01*
X7870734Y-39649500D01*
X7870725Y-39649500D01*
X7840305Y-39652353D01*
X7840296Y-39652355D01*
X7712116Y-39697207D01*
X7602855Y-39777845D01*
X7602845Y-39777855D01*
X7522207Y-39887116D01*
X7477355Y-40015296D01*
X7477353Y-40015305D01*
X7474500Y-40045725D01*
X7474500Y-40654274D01*
X7477353Y-40684694D01*
X7477355Y-40684703D01*
X7522207Y-40812883D01*
X7602845Y-40922144D01*
X7602847Y-40922146D01*
X7602850Y-40922150D01*
X7602853Y-40922152D01*
X7602855Y-40922154D01*
X7712116Y-41002792D01*
X7712117Y-41002792D01*
X7712118Y-41002793D01*
X7840301Y-41047646D01*
X7852474Y-41048787D01*
X7870728Y-41050500D01*
X7871303Y-41050527D01*
X7871398Y-41050563D01*
X7873040Y-41050717D01*
X7872997Y-41051166D01*
X7928549Y-41072127D01*
X7962166Y-41123250D01*
X7961795Y-41164403D01*
X7964310Y-41164765D01*
X7944867Y-41299997D01*
X7944867Y-41300002D01*
X7963302Y-41428225D01*
X7993584Y-41494532D01*
X8017118Y-41546063D01*
X8098212Y-41639652D01*
X8101952Y-41643968D01*
X8196869Y-41704967D01*
X8210931Y-41714004D01*
X8335228Y-41750500D01*
X8335230Y-41750500D01*
X8464770Y-41750500D01*
X8464772Y-41750500D01*
X8589069Y-41714004D01*
X8698049Y-41643967D01*
X8782882Y-41546063D01*
X8836697Y-41428226D01*
X8844592Y-41373318D01*
X8855133Y-41300002D01*
X8855133Y-41299997D01*
X8835690Y-41164765D01*
X8838704Y-41164331D01*
X8840047Y-41116212D01*
X8877378Y-41067735D01*
X8926995Y-41051097D01*
X8926960Y-41050717D01*
X8928584Y-41050564D01*
X8928697Y-41050527D01*
X8929271Y-41050500D01*
X8944482Y-41049073D01*
X8959699Y-41047646D01*
X9030011Y-41023042D01*
X9051002Y-41015698D01*
X9112172Y-41014325D01*
X9162467Y-41049169D01*
X9182675Y-41106921D01*
X9182700Y-41109142D01*
X9182700Y-47412797D01*
X9181692Y-47426886D01*
X9178067Y-47452098D01*
X9178067Y-47452104D01*
X9181979Y-47479315D01*
X9182680Y-47485726D01*
X9182700Y-47485858D01*
X9182700Y-47485862D01*
X9187470Y-47517515D01*
X9187539Y-47517984D01*
X9196957Y-47583488D01*
X9197852Y-47586388D01*
X9224875Y-47642501D01*
X9225732Y-47644329D01*
X9250317Y-47698162D01*
X9252482Y-47701532D01*
X9255328Y-47706620D01*
X9256776Y-47708743D01*
X9296600Y-47751663D01*
X9298848Y-47754170D01*
X9335148Y-47796064D01*
X9340497Y-47800699D01*
X9340188Y-47801055D01*
X9343333Y-47803688D01*
X9343348Y-47803671D01*
X9349144Y-47808293D01*
X9349145Y-47808294D01*
X9396628Y-47835708D01*
X9400629Y-47838147D01*
X9444131Y-47866104D01*
X9444133Y-47866104D01*
X9448371Y-47868040D01*
X9464848Y-47875095D01*
X9466755Y-47876196D01*
X9516566Y-47887564D01*
X9522420Y-47889091D01*
X9568422Y-47902599D01*
X9568427Y-47902599D01*
X9568428Y-47902600D01*
X9571284Y-47902600D01*
X9593313Y-47905082D01*
X9594024Y-47905244D01*
X9599154Y-47906415D01*
X9646364Y-47902877D01*
X9653763Y-47902600D01*
X9697970Y-47902600D01*
X9697972Y-47902600D01*
X9704340Y-47900729D01*
X9724833Y-47896995D01*
X9734578Y-47896266D01*
X9775173Y-47880332D01*
X9783418Y-47877510D01*
X9822269Y-47866104D01*
X9831030Y-47860472D01*
X9848385Y-47851600D01*
X9860994Y-47846652D01*
X9892154Y-47821802D01*
X9900342Y-47815928D01*
X9931249Y-47796067D01*
X9940544Y-47785338D01*
X9953631Y-47772775D01*
X9967170Y-47761979D01*
X9987510Y-47732143D01*
X9994479Y-47723092D01*
X10016082Y-47698163D01*
X10023538Y-47681833D01*
X10031793Y-47667194D01*
X10043672Y-47649773D01*
X10053209Y-47618850D01*
X10057755Y-47606910D01*
X10069897Y-47580326D01*
X10070662Y-47575003D01*
X10072988Y-47558831D01*
X10076378Y-47543739D01*
X10078435Y-47537071D01*
X10083700Y-47520002D01*
X10083700Y-47491401D01*
X10084708Y-47477310D01*
X10085453Y-47472133D01*
X10088333Y-47452100D01*
X10087020Y-47442971D01*
X10084708Y-47426886D01*
X10083700Y-47412797D01*
X10083700Y-41118894D01*
X10102607Y-41060703D01*
X10152107Y-41024739D01*
X10210591Y-41023904D01*
X10210930Y-41024003D01*
X10210931Y-41024004D01*
X10335228Y-41060500D01*
X10335230Y-41060500D01*
X10464770Y-41060500D01*
X10464772Y-41060500D01*
X10589069Y-41024004D01*
X10698049Y-40953967D01*
X10782882Y-40856063D01*
X10836697Y-40738226D01*
X10844394Y-40684694D01*
X10855133Y-40610002D01*
X10855133Y-40609997D01*
X10836697Y-40481774D01*
X10787836Y-40374784D01*
X10780861Y-40313997D01*
X10807884Y-40263655D01*
X10853224Y-40218316D01*
X10903972Y-40109487D01*
X10910500Y-40059901D01*
X10910499Y-39700100D01*
X10907211Y-39675124D01*
X10903972Y-39650513D01*
X10903972Y-39650511D01*
X10853225Y-39541686D01*
X10853224Y-39541685D01*
X10853224Y-39541684D01*
X10768316Y-39456776D01*
X10768314Y-39456775D01*
X10768313Y-39456774D01*
X10659489Y-39406029D01*
X10659488Y-39406028D01*
X10642958Y-39403852D01*
X10609901Y-39399500D01*
X10609899Y-39399500D01*
X10190092Y-39399500D01*
X10189159Y-39399562D01*
X10188918Y-39399500D01*
X10186860Y-39399501D01*
X10186860Y-39398977D01*
X10129859Y-39384492D01*
X10090742Y-39337444D01*
X10083700Y-39300773D01*
X10083700Y-37357509D01*
X10102607Y-37299318D01*
X10112690Y-37287512D01*
X10350238Y-37049963D01*
X10358498Y-37042582D01*
X10387470Y-37019479D01*
X10419957Y-36971827D01*
X10422059Y-36968866D01*
X10456293Y-36922482D01*
X10456295Y-36922476D01*
X10459763Y-36915916D01*
X10460155Y-36916123D01*
X10461151Y-36914150D01*
X10460752Y-36913958D01*
X10463972Y-36907272D01*
X10467798Y-36894868D01*
X10480977Y-36852138D01*
X10482095Y-36848738D01*
X10501146Y-36794299D01*
X10501146Y-36794294D01*
X10502526Y-36787007D01*
X10502960Y-36787089D01*
X10503332Y-36784903D01*
X10502894Y-36784837D01*
X10504000Y-36777500D01*
X10504000Y-36719883D01*
X10504069Y-36716182D01*
X10504219Y-36712165D01*
X10506224Y-36658590D01*
X10506222Y-36658582D01*
X10505393Y-36651218D01*
X10505831Y-36651168D01*
X10504000Y-36637257D01*
X10504000Y-32134362D01*
X10504622Y-32123279D01*
X10508770Y-32086465D01*
X10498047Y-32029795D01*
X10497443Y-32026241D01*
X10488848Y-31969213D01*
X10488847Y-31969210D01*
X10486662Y-31962126D01*
X10487083Y-31961995D01*
X10486389Y-31959886D01*
X10485974Y-31960032D01*
X10483523Y-31953027D01*
X10456593Y-31902074D01*
X10454924Y-31898769D01*
X10429925Y-31846858D01*
X10429921Y-31846853D01*
X10425746Y-31840729D01*
X10426110Y-31840480D01*
X10424824Y-31838669D01*
X10424470Y-31838931D01*
X10420067Y-31832966D01*
X10420066Y-31832963D01*
X10420063Y-31832960D01*
X10379311Y-31792207D01*
X10376742Y-31789540D01*
X10337556Y-31747306D01*
X10331758Y-31742683D01*
X10332032Y-31742339D01*
X10320897Y-31733794D01*
X9867492Y-31280389D01*
X9839715Y-31225872D01*
X9839343Y-31197465D01*
X9850500Y-31112720D01*
X9850500Y-30287280D01*
X9835687Y-30174764D01*
X9777698Y-30034767D01*
X9685451Y-29914549D01*
X9565233Y-29822302D01*
X9425236Y-29764313D01*
X9425234Y-29764312D01*
X9425232Y-29764312D01*
X9312720Y-29749500D01*
X9199500Y-29749500D01*
X9141309Y-29730593D01*
X9105345Y-29681093D01*
X9100500Y-29650500D01*
X9100500Y-29558502D01*
X9928767Y-29558502D01*
X9947202Y-29686725D01*
X9998139Y-29798259D01*
X10001018Y-29804563D01*
X10040822Y-29850500D01*
X10085852Y-29902468D01*
X10104654Y-29914551D01*
X10194831Y-29972504D01*
X10319128Y-30009000D01*
X10365406Y-30009000D01*
X10423597Y-30027907D01*
X10432103Y-30034839D01*
X10466225Y-30065946D01*
X10469532Y-30069103D01*
X10482703Y-30082274D01*
X10482795Y-30082337D01*
X10493542Y-30090850D01*
X10514562Y-30110013D01*
X10514564Y-30110014D01*
X10514567Y-30110016D01*
X10523733Y-30113567D01*
X10543912Y-30124203D01*
X10552020Y-30129757D01*
X10579715Y-30136271D01*
X10592796Y-30140322D01*
X10619327Y-30150600D01*
X10629152Y-30150600D01*
X10651816Y-30153229D01*
X10661381Y-30155479D01*
X10686458Y-30151980D01*
X10689554Y-30151549D01*
X10703231Y-30150600D01*
X11012775Y-30150600D01*
X11070966Y-30169507D01*
X11087595Y-30184770D01*
X11095651Y-30194067D01*
X11204631Y-30264104D01*
X11328928Y-30300600D01*
X11328930Y-30300600D01*
X11458470Y-30300600D01*
X11458472Y-30300600D01*
X11582769Y-30264104D01*
X11691749Y-30194067D01*
X11776582Y-30096163D01*
X11830397Y-29978326D01*
X11841304Y-29902467D01*
X11848833Y-29850102D01*
X11848833Y-29850097D01*
X11830397Y-29721874D01*
X11776582Y-29604038D01*
X11776582Y-29604037D01*
X11691749Y-29506133D01*
X11691748Y-29506132D01*
X11691747Y-29506131D01*
X11582773Y-29436098D01*
X11582770Y-29436096D01*
X11582769Y-29436096D01*
X11562934Y-29430272D01*
X11458474Y-29399600D01*
X11458472Y-29399600D01*
X11328928Y-29399600D01*
X11328925Y-29399600D01*
X11204633Y-29436095D01*
X11204626Y-29436098D01*
X11095651Y-29506132D01*
X11095650Y-29506133D01*
X11087595Y-29515430D01*
X11035200Y-29547027D01*
X11012775Y-29549600D01*
X10923537Y-29549600D01*
X10865346Y-29530693D01*
X10829382Y-29481193D01*
X10825545Y-29464694D01*
X10820597Y-29430274D01*
X10766782Y-29312437D01*
X10681949Y-29214533D01*
X10681948Y-29214532D01*
X10681947Y-29214531D01*
X10572973Y-29144498D01*
X10572970Y-29144496D01*
X10572969Y-29144496D01*
X10572966Y-29144495D01*
X10448674Y-29108000D01*
X10448672Y-29108000D01*
X10319128Y-29108000D01*
X10319125Y-29108000D01*
X10194833Y-29144495D01*
X10194826Y-29144498D01*
X10085852Y-29214531D01*
X10001017Y-29312438D01*
X9947202Y-29430274D01*
X9928767Y-29558497D01*
X9928767Y-29558502D01*
X9100500Y-29558502D01*
X9100500Y-28802611D01*
X9119407Y-28744420D01*
X9129496Y-28732607D01*
X9230300Y-28631803D01*
X14688065Y-28631803D01*
X14706500Y-28760026D01*
X14744210Y-28842597D01*
X14760316Y-28877864D01*
X14840866Y-28970825D01*
X14845150Y-28975769D01*
X14943962Y-29039271D01*
X14954129Y-29045805D01*
X15078426Y-29082301D01*
X15078428Y-29082301D01*
X15207968Y-29082301D01*
X15207970Y-29082301D01*
X15332267Y-29045805D01*
X15441247Y-28975768D01*
X15526080Y-28877864D01*
X15579895Y-28760027D01*
X15593743Y-28663711D01*
X15598331Y-28631803D01*
X15598331Y-28631798D01*
X15579895Y-28503575D01*
X15548999Y-28435923D01*
X15526080Y-28385738D01*
X15441247Y-28287834D01*
X15441246Y-28287833D01*
X15441245Y-28287832D01*
X15332271Y-28217799D01*
X15332268Y-28217797D01*
X15332267Y-28217797D01*
X15319581Y-28214072D01*
X15207972Y-28181301D01*
X15207970Y-28181301D01*
X15078426Y-28181301D01*
X15078423Y-28181301D01*
X14954131Y-28217796D01*
X14954124Y-28217799D01*
X14845150Y-28287832D01*
X14760315Y-28385739D01*
X14706500Y-28503575D01*
X14688065Y-28631798D01*
X14688065Y-28631803D01*
X9230300Y-28631803D01*
X9357607Y-28504496D01*
X9412124Y-28476719D01*
X9427611Y-28475500D01*
X9683490Y-28475500D01*
X9704885Y-28472111D01*
X9783126Y-28459719D01*
X9903220Y-28398528D01*
X9998528Y-28303220D01*
X10059719Y-28183126D01*
X10075500Y-28083488D01*
X10075500Y-27516512D01*
X10073427Y-27503426D01*
X10065803Y-27455289D01*
X10059719Y-27416874D01*
X10059716Y-27416869D01*
X10059716Y-27416867D01*
X9998529Y-27296782D01*
X9998528Y-27296780D01*
X9903220Y-27201472D01*
X9903217Y-27201470D01*
X9783132Y-27140283D01*
X9783127Y-27140281D01*
X9783126Y-27140281D01*
X9749913Y-27135020D01*
X9683490Y-27124500D01*
X9683488Y-27124500D01*
X9166512Y-27124500D01*
X9166510Y-27124500D01*
X9066874Y-27140281D01*
X9066867Y-27140283D01*
X8946782Y-27201470D01*
X8851470Y-27296782D01*
X8790283Y-27416867D01*
X8790281Y-27416874D01*
X8774500Y-27516510D01*
X8774500Y-27772389D01*
X8755593Y-27830580D01*
X8745503Y-27842393D01*
X8353269Y-28234626D01*
X8344993Y-28242022D01*
X8316030Y-28265119D01*
X8316029Y-28265120D01*
X8283556Y-28312748D01*
X8281416Y-28315764D01*
X8247207Y-28362116D01*
X8243742Y-28368674D01*
X8243353Y-28368468D01*
X8242350Y-28370455D01*
X8242746Y-28370646D01*
X8239526Y-28377332D01*
X8222536Y-28432410D01*
X8221380Y-28435923D01*
X8202355Y-28490295D01*
X8200976Y-28497587D01*
X8200544Y-28497505D01*
X8200171Y-28499700D01*
X8200605Y-28499766D01*
X8199500Y-28507099D01*
X8199500Y-28564715D01*
X8199431Y-28568416D01*
X8197276Y-28626010D01*
X8198107Y-28633385D01*
X8197668Y-28633434D01*
X8199500Y-28647344D01*
X8199500Y-29650500D01*
X8180593Y-29708691D01*
X8131093Y-29744655D01*
X8100500Y-29749500D01*
X7987279Y-29749500D01*
X7874767Y-29764312D01*
X7874761Y-29764314D01*
X7734768Y-29822301D01*
X7614551Y-29914547D01*
X7614547Y-29914551D01*
X7522301Y-30034768D01*
X7464314Y-30174761D01*
X7464312Y-30174767D01*
X7452551Y-30264104D01*
X7449500Y-30287280D01*
X7449500Y-31112720D01*
X7464313Y-31225236D01*
X7470398Y-31239927D01*
X7513735Y-31344552D01*
X7522302Y-31365233D01*
X7614549Y-31485451D01*
X7734767Y-31577698D01*
X7874764Y-31635687D01*
X7987280Y-31650500D01*
X8922388Y-31650500D01*
X8980579Y-31669407D01*
X8992392Y-31679496D01*
X9574004Y-32261107D01*
X9601781Y-32315624D01*
X9603000Y-32331111D01*
X9603000Y-34289781D01*
X9584093Y-34347972D01*
X9534593Y-34383936D01*
X9473407Y-34383936D01*
X9466115Y-34381245D01*
X9425241Y-34364314D01*
X9425232Y-34364312D01*
X9312720Y-34349500D01*
X7987280Y-34349500D01*
X7987279Y-34349500D01*
X7874767Y-34364312D01*
X7874761Y-34364314D01*
X7734768Y-34422301D01*
X7614551Y-34514547D01*
X7614547Y-34514551D01*
X7522301Y-34634768D01*
X7464314Y-34774761D01*
X7464312Y-34774767D01*
X7449500Y-34887279D01*
X7449500Y-35712720D01*
X7464312Y-35825232D01*
X7465993Y-35831504D01*
X7463021Y-35832300D01*
X7466761Y-35880797D01*
X7434708Y-35932915D01*
X7398430Y-35952520D01*
X7392738Y-35954191D01*
X7392727Y-35954196D01*
X7283753Y-36024229D01*
X7198918Y-36122136D01*
X7145103Y-36239972D01*
X7126668Y-36368195D01*
X7126668Y-36368200D01*
X6054480Y-36368200D01*
X6073579Y-36327613D01*
X6104376Y-36166170D01*
X6094056Y-36002140D01*
X6043268Y-35845829D01*
X6043267Y-35845828D01*
X6043267Y-35845826D01*
X5955202Y-35707060D01*
X5835392Y-35594551D01*
X5835393Y-35594551D01*
X5691369Y-35515373D01*
X5532179Y-35474500D01*
X5532177Y-35474500D01*
X5409075Y-35474500D01*
X5286946Y-35489927D01*
X5286943Y-35489928D01*
X5134129Y-35550432D01*
X5134125Y-35550434D01*
X5001162Y-35647037D01*
X4896399Y-35773674D01*
X4826420Y-35922387D01*
X4795624Y-36083823D01*
X4795623Y-36083828D01*
X3300500Y-36083828D01*
X3300500Y-31833828D01*
X4795623Y-31833828D01*
X4805943Y-31997857D01*
X4856732Y-32154173D01*
X4944797Y-32292939D01*
X4944798Y-32292940D01*
X4960332Y-32307527D01*
X5064607Y-32405448D01*
X5064606Y-32405448D01*
X5187617Y-32473074D01*
X5208632Y-32484627D01*
X5367823Y-32525500D01*
X5367826Y-32525500D01*
X5490925Y-32525500D01*
X5613053Y-32510072D01*
X5613054Y-32510071D01*
X5613058Y-32510071D01*
X5765871Y-32449568D01*
X5898837Y-32352963D01*
X6003600Y-32226326D01*
X6073579Y-32077613D01*
X6091756Y-31982325D01*
X6104375Y-31916176D01*
X6104376Y-31916170D01*
X6099500Y-31838669D01*
X6094056Y-31752140D01*
X6043268Y-31595829D01*
X6043267Y-31595828D01*
X6043267Y-31595826D01*
X5955202Y-31457060D01*
X5835392Y-31344551D01*
X5835393Y-31344551D01*
X5691369Y-31265373D01*
X5532179Y-31224500D01*
X5532177Y-31224500D01*
X5409075Y-31224500D01*
X5286946Y-31239927D01*
X5286943Y-31239928D01*
X5134129Y-31300432D01*
X5134125Y-31300434D01*
X5001162Y-31397037D01*
X4896399Y-31523674D01*
X4826420Y-31672387D01*
X4795624Y-31833823D01*
X4795623Y-31833828D01*
X3300500Y-31833828D01*
X3300500Y-29099000D01*
X3319407Y-29040809D01*
X3368907Y-29004845D01*
X3399500Y-29000000D01*
X5049999Y-29000000D01*
X5050000Y-29000000D01*
X5050000Y-19000002D01*
X17494867Y-19000002D01*
X17513302Y-19128225D01*
X17567117Y-19246061D01*
X17567118Y-19246063D01*
X17651951Y-19343967D01*
X17651952Y-19343968D01*
X17760926Y-19414001D01*
X17760931Y-19414004D01*
X17885228Y-19450500D01*
X17885230Y-19450500D01*
X18014770Y-19450500D01*
X18014772Y-19450500D01*
X18139069Y-19414004D01*
X18248049Y-19343967D01*
X18332882Y-19246063D01*
X18386697Y-19128226D01*
X18392842Y-19085484D01*
X18405133Y-19000002D01*
X18405133Y-18999997D01*
X18386697Y-18871774D01*
X18332882Y-18753938D01*
X18332882Y-18753937D01*
X18248049Y-18656033D01*
X18248048Y-18656032D01*
X18248047Y-18656031D01*
X18176424Y-18610002D01*
X21144867Y-18610002D01*
X21163302Y-18738225D01*
X21217117Y-18856061D01*
X21217118Y-18856063D01*
X21301951Y-18953967D01*
X21301952Y-18953968D01*
X21373575Y-18999997D01*
X21410931Y-19024004D01*
X21535228Y-19060500D01*
X21535230Y-19060500D01*
X21664770Y-19060500D01*
X21664772Y-19060500D01*
X21789069Y-19024004D01*
X21898049Y-18953967D01*
X21982882Y-18856063D01*
X22036697Y-18738226D01*
X22042842Y-18695484D01*
X22055133Y-18610002D01*
X22055133Y-18609997D01*
X22036697Y-18481774D01*
X22023237Y-18452301D01*
X21982882Y-18363937D01*
X21898049Y-18266033D01*
X21898048Y-18266032D01*
X21898047Y-18266031D01*
X21789073Y-18195998D01*
X21789070Y-18195996D01*
X21789069Y-18195996D01*
X21789066Y-18195995D01*
X21664774Y-18159500D01*
X21664772Y-18159500D01*
X21535228Y-18159500D01*
X21535225Y-18159500D01*
X21410933Y-18195995D01*
X21410926Y-18195998D01*
X21301952Y-18266031D01*
X21217117Y-18363938D01*
X21163302Y-18481774D01*
X21144867Y-18609997D01*
X21144867Y-18610002D01*
X18176424Y-18610002D01*
X18139073Y-18585998D01*
X18139070Y-18585996D01*
X18139069Y-18585996D01*
X18139066Y-18585995D01*
X18014774Y-18549500D01*
X18014772Y-18549500D01*
X17885228Y-18549500D01*
X17885225Y-18549500D01*
X17760933Y-18585995D01*
X17760926Y-18585998D01*
X17651952Y-18656031D01*
X17567117Y-18753938D01*
X17513302Y-18871774D01*
X17494867Y-18999997D01*
X17494867Y-19000002D01*
X5050000Y-19000002D01*
X5050000Y-17183489D01*
X10574500Y-17183489D01*
X10590281Y-17283125D01*
X10590283Y-17283132D01*
X10625998Y-17353225D01*
X10651472Y-17403220D01*
X10746780Y-17498528D01*
X10746782Y-17498529D01*
X10866867Y-17559716D01*
X10866869Y-17559716D01*
X10866874Y-17559719D01*
X10942541Y-17571703D01*
X10966510Y-17575500D01*
X10966512Y-17575500D01*
X11483490Y-17575500D01*
X11504885Y-17572111D01*
X11583126Y-17559719D01*
X11703220Y-17498528D01*
X11798528Y-17403220D01*
X11859719Y-17283126D01*
X11875500Y-17183488D01*
X11875500Y-17109896D01*
X14039500Y-17109896D01*
X14039501Y-17109907D01*
X14046027Y-17159486D01*
X14046027Y-17159488D01*
X14096774Y-17268313D01*
X14096775Y-17268314D01*
X14096776Y-17268316D01*
X14181684Y-17353224D01*
X14290513Y-17403972D01*
X14340099Y-17410500D01*
X14699900Y-17410499D01*
X14749487Y-17403972D01*
X14749488Y-17403972D01*
X14808137Y-17376622D01*
X14858316Y-17353224D01*
X14943224Y-17268316D01*
X14993972Y-17159487D01*
X15000500Y-17109901D01*
X15000499Y-16690100D01*
X14993972Y-16640513D01*
X14993972Y-16640511D01*
X14943225Y-16531686D01*
X14943224Y-16531685D01*
X14943224Y-16531684D01*
X14874494Y-16462954D01*
X14846719Y-16408440D01*
X14845500Y-16392953D01*
X14845500Y-16368200D01*
X21963065Y-16368200D01*
X21981500Y-16496423D01*
X22035315Y-16614259D01*
X22035316Y-16614261D01*
X22120149Y-16712165D01*
X22120150Y-16712166D01*
X22229124Y-16782199D01*
X22229129Y-16782202D01*
X22353426Y-16818698D01*
X22353428Y-16818698D01*
X22482968Y-16818698D01*
X22482970Y-16818698D01*
X22607267Y-16782202D01*
X22716247Y-16712165D01*
X22801080Y-16614261D01*
X22854895Y-16496424D01*
X22873331Y-16368198D01*
X22869163Y-16339210D01*
X22854895Y-16239972D01*
X22853108Y-16236060D01*
X22801080Y-16122135D01*
X22716247Y-16024231D01*
X22716246Y-16024230D01*
X22716245Y-16024229D01*
X22607271Y-15954196D01*
X22607268Y-15954194D01*
X22607267Y-15954194D01*
X22607264Y-15954193D01*
X22482972Y-15917698D01*
X22482970Y-15917698D01*
X22353426Y-15917698D01*
X22353423Y-15917698D01*
X22229131Y-15954193D01*
X22229124Y-15954196D01*
X22120150Y-16024229D01*
X22035315Y-16122136D01*
X21981500Y-16239972D01*
X21963065Y-16368195D01*
X21963065Y-16368200D01*
X14845500Y-16368200D01*
X14845500Y-16339210D01*
X14864407Y-16281019D01*
X14869680Y-16274379D01*
X14902882Y-16236062D01*
X14956697Y-16118225D01*
X14962842Y-16075483D01*
X14975133Y-15990001D01*
X14975133Y-15989996D01*
X14956697Y-15861773D01*
X14949847Y-15846774D01*
X14902882Y-15743936D01*
X14818049Y-15646032D01*
X14818048Y-15646031D01*
X14818047Y-15646030D01*
X14709073Y-15575997D01*
X14709070Y-15575995D01*
X14709069Y-15575995D01*
X14709066Y-15575994D01*
X14584774Y-15539499D01*
X14584772Y-15539499D01*
X14455228Y-15539499D01*
X14455225Y-15539499D01*
X14330933Y-15575994D01*
X14330926Y-15575997D01*
X14221952Y-15646030D01*
X14137117Y-15743937D01*
X14083302Y-15861773D01*
X14064867Y-15989996D01*
X14064867Y-15990001D01*
X14083302Y-16118224D01*
X14102659Y-16160608D01*
X14137118Y-16236062D01*
X14170320Y-16274379D01*
X14194137Y-16330739D01*
X14194500Y-16339210D01*
X14194500Y-16392953D01*
X14175593Y-16451144D01*
X14165509Y-16462950D01*
X14111593Y-16516867D01*
X14096774Y-16531686D01*
X14046029Y-16640510D01*
X14046028Y-16640511D01*
X14039500Y-16690100D01*
X14039500Y-17109896D01*
X11875500Y-17109896D01*
X11875500Y-16616512D01*
X11875143Y-16614261D01*
X11871703Y-16592541D01*
X11859719Y-16516874D01*
X11859716Y-16516869D01*
X11859716Y-16516867D01*
X11798529Y-16396782D01*
X11798528Y-16396780D01*
X11703220Y-16301472D01*
X11680596Y-16289944D01*
X11637333Y-16246680D01*
X11627762Y-16186248D01*
X11635487Y-16160615D01*
X11661697Y-16103226D01*
X11661697Y-16103224D01*
X11661698Y-16103223D01*
X11680133Y-15975002D01*
X11680133Y-15974997D01*
X11661697Y-15846774D01*
X11614732Y-15743937D01*
X11607882Y-15728937D01*
X11523049Y-15631033D01*
X11523048Y-15631032D01*
X11523047Y-15631031D01*
X11414073Y-15560998D01*
X11414070Y-15560996D01*
X11414069Y-15560996D01*
X11414066Y-15560995D01*
X11289774Y-15524500D01*
X11289772Y-15524500D01*
X11160228Y-15524500D01*
X11160225Y-15524500D01*
X11035933Y-15560995D01*
X11035926Y-15560998D01*
X10926952Y-15631031D01*
X10842117Y-15728938D01*
X10788302Y-15846774D01*
X10769867Y-15974997D01*
X10769867Y-15975002D01*
X10788302Y-16103225D01*
X10814509Y-16160609D01*
X10821484Y-16221396D01*
X10791398Y-16274673D01*
X10769402Y-16289945D01*
X10746782Y-16301470D01*
X10651470Y-16396782D01*
X10590283Y-16516867D01*
X10590281Y-16516874D01*
X10574500Y-16616510D01*
X10574500Y-17183489D01*
X5050000Y-17183489D01*
X5050000Y-15000000D01*
X5049999Y-15000000D01*
X3399500Y-15000000D01*
X3341309Y-14981093D01*
X3305345Y-14931593D01*
X3300500Y-14901000D01*
X3300500Y-12900002D01*
X8394867Y-12900002D01*
X8413302Y-13028225D01*
X8458333Y-13126827D01*
X8467118Y-13146063D01*
X8535780Y-13225304D01*
X8551952Y-13243968D01*
X8660926Y-13314001D01*
X8660931Y-13314004D01*
X8785228Y-13350500D01*
X8785230Y-13350500D01*
X8914770Y-13350500D01*
X8914772Y-13350500D01*
X9039069Y-13314004D01*
X9039076Y-13313999D01*
X9045510Y-13311062D01*
X9046039Y-13312221D01*
X9098106Y-13298530D01*
X9155125Y-13320722D01*
X9168655Y-13335046D01*
X9171948Y-13338339D01*
X9171950Y-13338342D01*
X9231283Y-13397675D01*
X9259059Y-13452190D01*
X9249488Y-13512622D01*
X9231282Y-13537680D01*
X9165174Y-13603788D01*
X9110134Y-13716373D01*
X9110134Y-13716375D01*
X9099500Y-13789364D01*
X9099500Y-14210636D01*
X9104118Y-14242331D01*
X9110134Y-14283626D01*
X9149459Y-14364065D01*
X9165174Y-14396211D01*
X9253789Y-14484826D01*
X9366375Y-14539866D01*
X9439364Y-14550500D01*
X10287545Y-14550500D01*
X10345736Y-14569407D01*
X10354240Y-14576338D01*
X10360207Y-14581777D01*
X10368367Y-14589216D01*
X10368370Y-14589217D01*
X10377526Y-14592764D01*
X10397716Y-14603405D01*
X10405820Y-14608957D01*
X10433512Y-14615469D01*
X10446599Y-14619522D01*
X10473127Y-14629800D01*
X10482953Y-14629800D01*
X10505617Y-14632429D01*
X10515182Y-14634679D01*
X10543356Y-14630748D01*
X10557032Y-14629800D01*
X12937436Y-14629800D01*
X12951111Y-14632032D01*
X12951283Y-14630806D01*
X12960364Y-14632072D01*
X12960365Y-14632073D01*
X12960365Y-14632072D01*
X12960366Y-14632073D01*
X13007242Y-14629906D01*
X13011814Y-14629800D01*
X13030442Y-14629800D01*
X13030444Y-14629800D01*
X13030548Y-14629780D01*
X13044171Y-14628198D01*
X13072592Y-14626885D01*
X13081576Y-14622917D01*
X13103377Y-14616165D01*
X13113033Y-14614361D01*
X13137218Y-14599386D01*
X13149328Y-14593001D01*
X13175365Y-14581506D01*
X13182309Y-14574560D01*
X13200201Y-14560389D01*
X13208552Y-14555219D01*
X13225689Y-14532523D01*
X13234682Y-14522187D01*
X14625349Y-13131520D01*
X18599500Y-13131520D01*
X18599501Y-13131523D01*
X18614352Y-13225299D01*
X18614354Y-13225304D01*
X18671950Y-13338342D01*
X18761658Y-13428050D01*
X18874696Y-13485646D01*
X18968481Y-13500500D01*
X20431518Y-13500499D01*
X20431521Y-13500499D01*
X20431522Y-13500498D01*
X20490380Y-13491177D01*
X20525299Y-13485647D01*
X20525299Y-13485646D01*
X20525304Y-13485646D01*
X20638342Y-13428050D01*
X20728050Y-13338342D01*
X20769217Y-13257546D01*
X20812481Y-13214283D01*
X20866565Y-13203916D01*
X20871788Y-13204399D01*
X20871793Y-13204401D01*
X20909338Y-13200921D01*
X20918471Y-13200500D01*
X20927844Y-13200500D01*
X20937058Y-13198777D01*
X20946101Y-13197515D01*
X20983660Y-13194035D01*
X20984054Y-13193838D01*
X21010000Y-13185141D01*
X21010433Y-13185061D01*
X21042498Y-13165205D01*
X21050462Y-13160770D01*
X21084228Y-13143958D01*
X21084519Y-13143638D01*
X21105576Y-13126151D01*
X21105952Y-13125919D01*
X21128671Y-13095831D01*
X21134515Y-13088795D01*
X21159916Y-13060933D01*
X21160076Y-13060521D01*
X21173395Y-13036609D01*
X21173656Y-13036264D01*
X21183976Y-12999989D01*
X21186869Y-12991354D01*
X21200500Y-12956173D01*
X21200500Y-12955726D01*
X21204279Y-12928635D01*
X21204401Y-12928207D01*
X21200922Y-12890662D01*
X21200500Y-12881528D01*
X21200500Y-10999000D01*
X21219407Y-10940809D01*
X21268907Y-10904845D01*
X21299500Y-10900000D01*
X23799999Y-10900000D01*
X23800000Y-10900000D01*
X23800000Y-7900000D01*
X20858187Y-7900000D01*
X20799996Y-7881093D01*
X20764032Y-7831593D01*
X20764032Y-7770407D01*
X20769978Y-7756054D01*
X20776136Y-7743968D01*
X20785646Y-7725304D01*
X20800500Y-7631519D01*
X20800499Y-7168482D01*
X20798196Y-7153938D01*
X20785647Y-7074700D01*
X20785646Y-7074698D01*
X20785646Y-7074696D01*
X20728050Y-6961658D01*
X20686393Y-6920001D01*
X20658618Y-6865487D01*
X20668189Y-6805055D01*
X20686394Y-6779998D01*
X20728050Y-6738342D01*
X20785646Y-6625304D01*
X20800500Y-6531519D01*
X20800499Y-6068482D01*
X20794782Y-6032384D01*
X20785647Y-5974700D01*
X20785646Y-5974698D01*
X20785646Y-5974696D01*
X20728050Y-5861658D01*
X20668715Y-5802323D01*
X20640940Y-5747809D01*
X20650511Y-5687377D01*
X20668715Y-5662321D01*
X20734826Y-5596211D01*
X20789866Y-5483625D01*
X20800500Y-5410636D01*
X20800500Y-4989364D01*
X20789866Y-4916375D01*
X20734826Y-4803789D01*
X20646211Y-4715174D01*
X20533625Y-4660134D01*
X20533626Y-4660134D01*
X20511867Y-4656964D01*
X20460636Y-4649500D01*
X18939364Y-4649500D01*
X18895570Y-4655880D01*
X18866373Y-4660134D01*
X18753790Y-4715173D01*
X18665173Y-4803790D01*
X18610134Y-4916373D01*
X18606012Y-4944668D01*
X18599500Y-4989364D01*
X18599500Y-5410636D01*
X18608007Y-5469027D01*
X18610134Y-5483626D01*
X18665173Y-5596209D01*
X18665174Y-5596211D01*
X18731283Y-5662320D01*
X18759059Y-5716835D01*
X18749488Y-5777267D01*
X18731282Y-5802325D01*
X18671951Y-5861656D01*
X18671950Y-5861658D01*
X18614354Y-5974695D01*
X18599500Y-6068477D01*
X18599500Y-6531520D01*
X18599501Y-6531523D01*
X18614352Y-6625299D01*
X18614354Y-6625304D01*
X18671950Y-6738342D01*
X18713606Y-6779998D01*
X18741382Y-6834513D01*
X18731811Y-6894945D01*
X18713607Y-6920000D01*
X18689781Y-6943827D01*
X18671949Y-6961659D01*
X18614354Y-7074695D01*
X18599500Y-7168477D01*
X18599500Y-7631520D01*
X18599501Y-7631523D01*
X18614352Y-7725299D01*
X18614354Y-7725304D01*
X18671950Y-7838342D01*
X18713606Y-7879998D01*
X18741382Y-7934513D01*
X18731811Y-7994945D01*
X18713607Y-8020000D01*
X18685971Y-8047637D01*
X18671949Y-8061659D01*
X18614354Y-8174695D01*
X18599500Y-8268477D01*
X18599500Y-8731520D01*
X18599501Y-8731523D01*
X18614352Y-8825299D01*
X18614354Y-8825304D01*
X18671950Y-8938342D01*
X18713606Y-8979998D01*
X18741382Y-9034513D01*
X18731811Y-9094945D01*
X18713607Y-9120000D01*
X18685967Y-9147641D01*
X18671949Y-9161659D01*
X18614354Y-9274695D01*
X18599500Y-9368477D01*
X18599500Y-9831520D01*
X18599501Y-9831523D01*
X18614352Y-9925299D01*
X18614354Y-9925304D01*
X18671950Y-10038342D01*
X18713606Y-10079998D01*
X18741382Y-10134513D01*
X18731811Y-10194945D01*
X18713607Y-10220000D01*
X18688217Y-10245391D01*
X18671949Y-10261659D01*
X18614354Y-10374695D01*
X18599500Y-10468477D01*
X18599500Y-10931520D01*
X18599501Y-10931523D01*
X18614352Y-11025299D01*
X18614354Y-11025304D01*
X18671950Y-11138342D01*
X18761658Y-11228050D01*
X18874696Y-11285646D01*
X18968481Y-11300500D01*
X20431518Y-11300499D01*
X20431521Y-11300499D01*
X20485014Y-11292027D01*
X20545446Y-11301599D01*
X20588710Y-11344864D01*
X20599500Y-11389808D01*
X20599500Y-12210191D01*
X20580593Y-12268382D01*
X20531093Y-12304346D01*
X20485013Y-12307972D01*
X20431522Y-12299500D01*
X18968478Y-12299500D01*
X18968476Y-12299501D01*
X18874700Y-12314352D01*
X18874695Y-12314354D01*
X18761659Y-12371949D01*
X18671949Y-12461659D01*
X18614354Y-12574695D01*
X18599500Y-12668477D01*
X18599500Y-13131520D01*
X14625349Y-13131520D01*
X15166405Y-12590464D01*
X15177664Y-12582393D01*
X15176905Y-12581387D01*
X15184221Y-12575861D01*
X15184228Y-12575858D01*
X15215877Y-12541139D01*
X15218995Y-12537874D01*
X15232174Y-12524697D01*
X15232238Y-12524602D01*
X15240753Y-12513853D01*
X15259916Y-12492833D01*
X15263465Y-12483670D01*
X15274106Y-12463482D01*
X15279656Y-12455381D01*
X15286169Y-12427685D01*
X15290220Y-12414606D01*
X15300500Y-12388073D01*
X15300500Y-12378248D01*
X15303129Y-12355583D01*
X15305379Y-12346019D01*
X15301449Y-12317844D01*
X15300500Y-12304168D01*
X15300500Y-8074563D01*
X15319407Y-8016372D01*
X15324680Y-8009732D01*
X15382882Y-7942563D01*
X15436697Y-7824726D01*
X15444507Y-7770407D01*
X15455133Y-7696502D01*
X15455133Y-7696497D01*
X15436697Y-7568274D01*
X15421125Y-7534177D01*
X15382882Y-7450437D01*
X15298049Y-7352533D01*
X15298048Y-7352532D01*
X15298047Y-7352531D01*
X15189073Y-7282498D01*
X15189070Y-7282496D01*
X15189069Y-7282496D01*
X15189066Y-7282495D01*
X15064774Y-7246000D01*
X15064772Y-7246000D01*
X14935228Y-7246000D01*
X14935225Y-7246000D01*
X14810933Y-7282495D01*
X14810926Y-7282498D01*
X14701952Y-7352531D01*
X14617117Y-7450438D01*
X14563302Y-7568274D01*
X14544867Y-7696497D01*
X14544867Y-7696502D01*
X14563302Y-7824725D01*
X14613442Y-7934513D01*
X14617118Y-7942563D01*
X14675320Y-8009732D01*
X14699137Y-8066092D01*
X14699500Y-8074563D01*
X14699500Y-12166420D01*
X14680593Y-12224611D01*
X14670504Y-12236424D01*
X13329939Y-13576988D01*
X13275422Y-13604765D01*
X13214990Y-13595194D01*
X13185115Y-13571814D01*
X13124680Y-13502066D01*
X13100863Y-13445706D01*
X13100500Y-13437236D01*
X13100500Y-11773168D01*
X13102731Y-11759495D01*
X13101505Y-11759324D01*
X13102773Y-11750232D01*
X13100606Y-11703357D01*
X13100500Y-11698785D01*
X13100500Y-11680160D01*
X13100500Y-11680156D01*
X13100478Y-11680042D01*
X13098898Y-11666430D01*
X13097585Y-11638008D01*
X13093615Y-11629017D01*
X13086864Y-11607215D01*
X13085061Y-11597568D01*
X13085061Y-11597567D01*
X13070085Y-11573379D01*
X13063698Y-11561262D01*
X13052206Y-11535235D01*
X13052205Y-11535233D01*
X13045256Y-11528284D01*
X13031090Y-11510399D01*
X13025919Y-11502048D01*
X13003221Y-11484907D01*
X12992879Y-11475908D01*
X11329495Y-9812524D01*
X11301718Y-9758007D01*
X11300499Y-9742520D01*
X11300499Y-9368478D01*
X11300498Y-9368476D01*
X11285647Y-9274700D01*
X11285646Y-9274698D01*
X11285646Y-9274696D01*
X11228050Y-9161658D01*
X11186393Y-9120001D01*
X11158618Y-9065487D01*
X11168189Y-9005055D01*
X11186392Y-8979999D01*
X11228050Y-8938342D01*
X11285646Y-8825304D01*
X11300500Y-8731519D01*
X11300499Y-8268482D01*
X11296482Y-8243116D01*
X11285647Y-8174700D01*
X11285646Y-8174698D01*
X11285646Y-8174696D01*
X11228050Y-8061658D01*
X11186393Y-8020001D01*
X11158618Y-7965487D01*
X11168189Y-7905055D01*
X11186392Y-7879999D01*
X11228050Y-7838342D01*
X11270742Y-7754553D01*
X11314006Y-7711290D01*
X11358951Y-7700500D01*
X12504575Y-7700500D01*
X12562766Y-7719407D01*
X12579395Y-7734670D01*
X12587450Y-7743966D01*
X12587451Y-7743967D01*
X12628592Y-7770407D01*
X12696431Y-7814004D01*
X12820728Y-7850500D01*
X12820730Y-7850500D01*
X12950270Y-7850500D01*
X12950272Y-7850500D01*
X13074569Y-7814004D01*
X13183549Y-7743967D01*
X13268382Y-7646063D01*
X13322197Y-7528226D01*
X13330924Y-7467526D01*
X13340633Y-7400002D01*
X13340633Y-7399997D01*
X13322197Y-7271774D01*
X13310426Y-7246000D01*
X13268382Y-7153937D01*
X13183549Y-7056033D01*
X13183548Y-7056032D01*
X13183547Y-7056031D01*
X13074573Y-6985998D01*
X13074570Y-6985996D01*
X13074569Y-6985996D01*
X13074566Y-6985995D01*
X12950274Y-6949500D01*
X12950272Y-6949500D01*
X12820728Y-6949500D01*
X12820725Y-6949500D01*
X12696433Y-6985995D01*
X12696426Y-6985998D01*
X12587451Y-7056032D01*
X12587450Y-7056033D01*
X12579395Y-7065330D01*
X12527000Y-7096927D01*
X12504575Y-7099500D01*
X12454156Y-7099500D01*
X12395965Y-7080593D01*
X12360001Y-7031093D01*
X12356164Y-6986411D01*
X12371233Y-6881602D01*
X12371233Y-6881597D01*
X12352797Y-6753374D01*
X12302041Y-6642236D01*
X12298982Y-6635537D01*
X12214149Y-6537633D01*
X12214148Y-6537632D01*
X12214147Y-6537631D01*
X12105173Y-6467598D01*
X12105170Y-6467596D01*
X12105169Y-6467596D01*
X12105166Y-6467595D01*
X11980874Y-6431100D01*
X11980872Y-6431100D01*
X11931579Y-6431100D01*
X11873388Y-6412193D01*
X11861575Y-6402104D01*
X11593065Y-6133594D01*
X11584979Y-6122344D01*
X11583987Y-6123094D01*
X11578458Y-6115772D01*
X11543772Y-6084151D01*
X11540468Y-6080996D01*
X11527300Y-6067828D01*
X11527296Y-6067825D01*
X11527193Y-6067755D01*
X11516462Y-6059255D01*
X11495433Y-6040084D01*
X11486262Y-6036531D01*
X11466086Y-6025895D01*
X11457984Y-6020345D01*
X11457979Y-6020343D01*
X11430297Y-6013832D01*
X11417203Y-6009777D01*
X11390677Y-5999500D01*
X11390673Y-5999500D01*
X11380848Y-5999500D01*
X11358183Y-5996870D01*
X11348619Y-5994621D01*
X11348618Y-5994621D01*
X11339686Y-5992520D01*
X11340202Y-5990324D01*
X11294760Y-5973194D01*
X11268390Y-5940829D01*
X11257991Y-5920420D01*
X11228050Y-5861658D01*
X11138342Y-5771950D01*
X11025304Y-5714354D01*
X11025305Y-5714354D01*
X10931521Y-5699500D01*
X9468478Y-5699500D01*
X9468476Y-5699501D01*
X9374700Y-5714352D01*
X9374695Y-5714354D01*
X9261659Y-5771949D01*
X9171949Y-5861659D01*
X9114354Y-5974695D01*
X9099500Y-6068477D01*
X9099500Y-6531520D01*
X9099501Y-6531523D01*
X9114352Y-6625299D01*
X9114354Y-6625304D01*
X9171950Y-6738342D01*
X9213606Y-6779998D01*
X9241382Y-6834513D01*
X9231811Y-6894945D01*
X9213607Y-6920000D01*
X9189781Y-6943827D01*
X9171949Y-6961659D01*
X9114354Y-7074695D01*
X9099500Y-7168477D01*
X9099500Y-7631520D01*
X9099501Y-7631523D01*
X9114352Y-7725299D01*
X9114354Y-7725304D01*
X9171950Y-7838342D01*
X9213606Y-7879998D01*
X9241382Y-7934513D01*
X9231811Y-7994945D01*
X9213607Y-8020000D01*
X9185971Y-8047637D01*
X9171949Y-8061659D01*
X9114354Y-8174695D01*
X9099500Y-8268477D01*
X9099500Y-8731520D01*
X9099501Y-8731523D01*
X9114352Y-8825299D01*
X9114354Y-8825304D01*
X9171950Y-8938342D01*
X9213606Y-8979998D01*
X9241382Y-9034513D01*
X9231811Y-9094945D01*
X9213607Y-9120000D01*
X9185967Y-9147641D01*
X9171949Y-9161659D01*
X9114354Y-9274695D01*
X9099500Y-9368477D01*
X9099500Y-9831520D01*
X9099501Y-9831523D01*
X9114352Y-9925299D01*
X9114354Y-9925304D01*
X9171950Y-10038342D01*
X9213606Y-10079998D01*
X9241382Y-10134513D01*
X9231811Y-10194945D01*
X9213607Y-10220000D01*
X9171950Y-10261658D01*
X9171948Y-10261660D01*
X9166441Y-10267168D01*
X9165340Y-10266067D01*
X9123050Y-10296787D01*
X9061864Y-10296782D01*
X9040337Y-10286575D01*
X9039070Y-10285996D01*
X8914774Y-10249500D01*
X8914772Y-10249500D01*
X8785228Y-10249500D01*
X8785225Y-10249500D01*
X8660933Y-10285995D01*
X8660926Y-10285998D01*
X8551952Y-10356031D01*
X8467117Y-10453938D01*
X8413302Y-10571774D01*
X8394867Y-10699997D01*
X8394867Y-10700002D01*
X8413302Y-10828225D01*
X8467117Y-10946061D01*
X8467118Y-10946063D01*
X8535780Y-11025304D01*
X8551952Y-11043968D01*
X8660926Y-11114001D01*
X8660931Y-11114004D01*
X8785228Y-11150500D01*
X8785230Y-11150500D01*
X8914770Y-11150500D01*
X8914772Y-11150500D01*
X9039069Y-11114004D01*
X9039076Y-11113999D01*
X9045510Y-11111062D01*
X9046039Y-11112221D01*
X9098106Y-11098530D01*
X9155125Y-11120722D01*
X9168655Y-11135046D01*
X9171948Y-11138339D01*
X9171950Y-11138342D01*
X9213606Y-11179998D01*
X9241382Y-11234513D01*
X9231811Y-11294945D01*
X9213607Y-11320000D01*
X9188744Y-11344864D01*
X9171949Y-11361659D01*
X9114354Y-11474695D01*
X9099500Y-11568477D01*
X9099500Y-12031520D01*
X9099501Y-12031523D01*
X9114352Y-12125300D01*
X9114352Y-12125301D01*
X9125486Y-12147152D01*
X9135057Y-12207584D01*
X9112098Y-12256924D01*
X9098919Y-12272133D01*
X9098918Y-12272134D01*
X9042162Y-12396413D01*
X9039575Y-12395231D01*
X9012011Y-12435532D01*
X8954380Y-12456084D01*
X8923683Y-12452115D01*
X8914780Y-12449501D01*
X8914773Y-12449500D01*
X8914772Y-12449500D01*
X8785228Y-12449500D01*
X8785225Y-12449500D01*
X8660933Y-12485995D01*
X8660926Y-12485998D01*
X8551952Y-12556031D01*
X8467117Y-12653938D01*
X8413302Y-12771774D01*
X8394867Y-12899997D01*
X8394867Y-12900002D01*
X3300500Y-12900002D01*
X3300500Y-7002435D01*
X3300619Y-6997578D01*
X3302981Y-6949500D01*
X3318076Y-6642221D01*
X3319026Y-6632583D01*
X3370872Y-6283062D01*
X3372761Y-6273564D01*
X3458621Y-5930792D01*
X3461430Y-5921533D01*
X3580473Y-5588831D01*
X3584182Y-5579876D01*
X3735264Y-5260440D01*
X3739821Y-5251914D01*
X3921480Y-4948834D01*
X3926873Y-4940765D01*
X4137355Y-4656964D01*
X4143518Y-4649454D01*
X4380806Y-4387645D01*
X4387645Y-4380806D01*
X4649455Y-4143517D01*
X4656964Y-4137355D01*
X4940765Y-3926873D01*
X4948834Y-3921480D01*
X5251914Y-3739821D01*
X5260440Y-3735264D01*
X5579876Y-3584182D01*
X5588831Y-3580473D01*
X5921533Y-3461430D01*
X5930792Y-3458621D01*
X6273564Y-3372761D01*
X6283062Y-3370872D01*
X6632583Y-3319026D01*
X6642221Y-3318076D01*
X6968962Y-3302024D01*
X6997579Y-3300619D01*
X7002436Y-3300500D01*
X7047595Y-3300500D01*
X44952405Y-3300500D01*
X44997564Y-3300500D01*
X45002421Y-3300619D01*
G37*
%TD.AperFunction*%
%TA.AperFunction,Conductor*%
G36*
X42244504Y-43579475D02*
G01*
X42850504Y-44185475D01*
X42878281Y-44239992D01*
X42879500Y-44255479D01*
X42879500Y-44484314D01*
X42885932Y-44533174D01*
X42885932Y-44533175D01*
X42935933Y-44640401D01*
X42935934Y-44640402D01*
X42935935Y-44640404D01*
X43019596Y-44724065D01*
X43019597Y-44724065D01*
X43019598Y-44724066D01*
X43126824Y-44774067D01*
X43126825Y-44774067D01*
X43126827Y-44774068D01*
X43175684Y-44780500D01*
X43219021Y-44780500D01*
X43277212Y-44799407D01*
X43313176Y-44848907D01*
X43313176Y-44910093D01*
X43289025Y-44949504D01*
X41178590Y-47059937D01*
X41167361Y-47068050D01*
X41168090Y-47069015D01*
X41160771Y-47074541D01*
X41129141Y-47109237D01*
X41125989Y-47112538D01*
X41112830Y-47125698D01*
X41112818Y-47125712D01*
X41112749Y-47125814D01*
X41104255Y-47136535D01*
X41085083Y-47157566D01*
X41085083Y-47157567D01*
X41081529Y-47166740D01*
X41070896Y-47186912D01*
X41065346Y-47195015D01*
X41065341Y-47195024D01*
X41058830Y-47222706D01*
X41054777Y-47235796D01*
X41044501Y-47262323D01*
X41044500Y-47262329D01*
X41044500Y-47272151D01*
X41041870Y-47294818D01*
X41039621Y-47304381D01*
X41040242Y-47308831D01*
X41043551Y-47332553D01*
X41044500Y-47346230D01*
X41044500Y-70685320D01*
X41025593Y-70743511D01*
X41015504Y-70755324D01*
X36030825Y-75740004D01*
X35976308Y-75767781D01*
X35960821Y-75769000D01*
X35911528Y-75769000D01*
X35911526Y-75769000D01*
X35911522Y-75769001D01*
X35901690Y-75771888D01*
X35840530Y-75770140D01*
X35792077Y-75732777D01*
X35774800Y-75676898D01*
X35774800Y-50043178D01*
X35793707Y-49984987D01*
X35803790Y-49973180D01*
X38037505Y-47739464D01*
X38048764Y-47731393D01*
X38048005Y-47730387D01*
X38055321Y-47724861D01*
X38055328Y-47724858D01*
X38086977Y-47690139D01*
X38090095Y-47686874D01*
X38103274Y-47673697D01*
X38103338Y-47673602D01*
X38111853Y-47662853D01*
X38113033Y-47661559D01*
X38131016Y-47641833D01*
X38134565Y-47632670D01*
X38145206Y-47612482D01*
X38150756Y-47604381D01*
X38157269Y-47576685D01*
X38161320Y-47563606D01*
X38171600Y-47537073D01*
X38171600Y-47527248D01*
X38174229Y-47504583D01*
X38176479Y-47495019D01*
X38172549Y-47466844D01*
X38171600Y-47453168D01*
X38171600Y-44540563D01*
X38190507Y-44482372D01*
X38195780Y-44475732D01*
X38253982Y-44408563D01*
X38307797Y-44290726D01*
X38318761Y-44214471D01*
X38326233Y-44162502D01*
X38326233Y-44162495D01*
X38313537Y-44074188D01*
X38323971Y-44013899D01*
X38367849Y-43971257D01*
X38411529Y-43961100D01*
X40110650Y-43961100D01*
X40168841Y-43980007D01*
X40204805Y-44029507D01*
X40208615Y-44045823D01*
X40209426Y-44051393D01*
X40251417Y-44137285D01*
X40260802Y-44156483D01*
X40343517Y-44239198D01*
X40397285Y-44265483D01*
X40448604Y-44290572D01*
X40448605Y-44290572D01*
X40448607Y-44290573D01*
X40516740Y-44300500D01*
X40516743Y-44300500D01*
X41758257Y-44300500D01*
X41758260Y-44300500D01*
X41826393Y-44290573D01*
X41931483Y-44239198D01*
X42014198Y-44156483D01*
X42065573Y-44051393D01*
X42075500Y-43983260D01*
X42075500Y-43649479D01*
X42094407Y-43591288D01*
X42143907Y-43555324D01*
X42205093Y-43555324D01*
X42244504Y-43579475D01*
G37*
%TD.AperFunction*%
%TA.AperFunction,Conductor*%
G36*
X14438745Y-45511669D02*
G01*
X14482010Y-45554934D01*
X14492800Y-45599879D01*
X14492800Y-48121935D01*
X14490580Y-48135613D01*
X14491794Y-48135783D01*
X14490526Y-48144866D01*
X14492694Y-48191741D01*
X14492800Y-48196313D01*
X14492800Y-48214944D01*
X14492822Y-48215066D01*
X14494401Y-48228677D01*
X14495714Y-48257087D01*
X14495715Y-48257094D01*
X14499684Y-48266082D01*
X14506432Y-48287872D01*
X14508239Y-48297533D01*
X14517109Y-48311860D01*
X14523212Y-48321717D01*
X14529601Y-48333838D01*
X14531773Y-48338756D01*
X14541094Y-48359865D01*
X14548045Y-48366816D01*
X14562207Y-48384696D01*
X14567381Y-48393052D01*
X14590081Y-48410194D01*
X14600417Y-48419188D01*
X15172404Y-48991175D01*
X15200181Y-49045692D01*
X15201400Y-49061179D01*
X15201400Y-67972320D01*
X15182493Y-68030511D01*
X15172404Y-68042324D01*
X13379390Y-69835337D01*
X13368161Y-69843450D01*
X13368890Y-69844415D01*
X13361571Y-69849941D01*
X13329941Y-69884637D01*
X13326789Y-69887938D01*
X13313630Y-69901098D01*
X13313618Y-69901112D01*
X13313549Y-69901214D01*
X13305055Y-69911935D01*
X13285883Y-69932966D01*
X13285883Y-69932967D01*
X13282329Y-69942140D01*
X13271696Y-69962312D01*
X13266146Y-69970415D01*
X13266141Y-69970424D01*
X13259630Y-69998106D01*
X13255577Y-70011196D01*
X13245301Y-70037723D01*
X13245300Y-70037729D01*
X13245300Y-70047551D01*
X13242670Y-70070218D01*
X13240421Y-70079779D01*
X13244351Y-70107953D01*
X13245300Y-70121630D01*
X13245300Y-74407637D01*
X13226393Y-74465828D01*
X13221120Y-74472467D01*
X13162918Y-74539636D01*
X13162917Y-74539638D01*
X13128877Y-74614173D01*
X13087504Y-74659250D01*
X13027537Y-74671399D01*
X12971881Y-74645981D01*
X12968820Y-74643049D01*
X12816996Y-74491225D01*
X12789219Y-74436708D01*
X12788000Y-74421221D01*
X12788000Y-47106679D01*
X12806907Y-47048488D01*
X12816996Y-47036675D01*
X14323796Y-45529875D01*
X14378313Y-45502098D01*
X14438745Y-45511669D01*
G37*
%TD.AperFunction*%
%TA.AperFunction,Conductor*%
G36*
X35395445Y-45030557D02*
G01*
X35438709Y-45073822D01*
X35449500Y-45118767D01*
X35449500Y-46034317D01*
X35432815Y-46089318D01*
X35411136Y-46121762D01*
X35411132Y-46121772D01*
X35399501Y-46180241D01*
X35399500Y-46180253D01*
X35399500Y-47519746D01*
X35399501Y-47519758D01*
X35411132Y-47578227D01*
X35411134Y-47578233D01*
X35455026Y-47643921D01*
X35455448Y-47644552D01*
X35521769Y-47688867D01*
X35566231Y-47697711D01*
X35580241Y-47700498D01*
X35580246Y-47700498D01*
X35580252Y-47700500D01*
X35620621Y-47700500D01*
X35678812Y-47719407D01*
X35714776Y-47768907D01*
X35714776Y-47830093D01*
X35690625Y-47869504D01*
X35387925Y-48172204D01*
X35333408Y-48199981D01*
X35317921Y-48201200D01*
X35165280Y-48201200D01*
X35107089Y-48182293D01*
X35095277Y-48172204D01*
X34792576Y-47869504D01*
X34764798Y-47814987D01*
X34774369Y-47754555D01*
X34817634Y-47711290D01*
X34862579Y-47700500D01*
X34919747Y-47700500D01*
X34919748Y-47700500D01*
X34978231Y-47688867D01*
X35044552Y-47644552D01*
X35088867Y-47578231D01*
X35100500Y-47519748D01*
X35100500Y-46180252D01*
X35088867Y-46121769D01*
X35088863Y-46121764D01*
X35085134Y-46112757D01*
X35087630Y-46111723D01*
X35075500Y-46071732D01*
X35075500Y-45917082D01*
X35094406Y-45858893D01*
X35098521Y-45853226D01*
X35098528Y-45853220D01*
X35159719Y-45733126D01*
X35180804Y-45600000D01*
X35159719Y-45466874D01*
X35098528Y-45346780D01*
X35003220Y-45251472D01*
X34998539Y-45249087D01*
X34927142Y-45212708D01*
X34883878Y-45169443D01*
X34874307Y-45109011D01*
X34902085Y-45054495D01*
X34956602Y-45026718D01*
X34972088Y-45025499D01*
X35306520Y-45025499D01*
X35323554Y-45022800D01*
X35335013Y-45020986D01*
X35395445Y-45030557D01*
G37*
%TD.AperFunction*%
%TA.AperFunction,Conductor*%
G36*
X29613132Y-37545605D02*
G01*
X29659375Y-37585670D01*
X29673600Y-37636799D01*
X29673600Y-42256235D01*
X29671380Y-42269913D01*
X29672594Y-42270083D01*
X29671326Y-42279166D01*
X29673494Y-42326041D01*
X29673600Y-42330613D01*
X29673600Y-42349244D01*
X29673622Y-42349366D01*
X29675201Y-42362977D01*
X29676514Y-42391387D01*
X29676515Y-42391394D01*
X29680484Y-42400382D01*
X29687232Y-42422172D01*
X29689039Y-42431833D01*
X29697745Y-42445895D01*
X29704012Y-42456017D01*
X29710401Y-42468138D01*
X29721894Y-42494165D01*
X29728845Y-42501116D01*
X29743007Y-42518996D01*
X29748181Y-42527352D01*
X29770881Y-42544494D01*
X29781217Y-42553488D01*
X31035665Y-43807936D01*
X31063442Y-43862453D01*
X31053871Y-43922885D01*
X31035664Y-43947944D01*
X30997953Y-43985654D01*
X30943436Y-44013431D01*
X30900059Y-44010640D01*
X30776975Y-43974500D01*
X30776972Y-43974500D01*
X30647428Y-43974500D01*
X30647425Y-43974500D01*
X30523133Y-44010995D01*
X30523126Y-44010998D01*
X30414152Y-44081031D01*
X30329317Y-44178938D01*
X30275502Y-44296774D01*
X30257067Y-44424997D01*
X30257067Y-44425002D01*
X30275502Y-44553225D01*
X30314071Y-44637677D01*
X30329318Y-44671063D01*
X30397979Y-44750303D01*
X30414152Y-44768968D01*
X30519020Y-44836362D01*
X30523131Y-44839004D01*
X30647428Y-44875500D01*
X30647430Y-44875500D01*
X30776970Y-44875500D01*
X30776972Y-44875500D01*
X30900059Y-44839359D01*
X30961219Y-44841107D01*
X30997951Y-44864343D01*
X31086658Y-44953050D01*
X31199696Y-45010646D01*
X31293481Y-45025500D01*
X31906518Y-45025499D01*
X31906520Y-45025499D01*
X31906521Y-45025498D01*
X31971366Y-45015229D01*
X32000299Y-45010647D01*
X32000299Y-45010646D01*
X32000304Y-45010646D01*
X32113342Y-44953050D01*
X32203050Y-44863342D01*
X32260646Y-44750304D01*
X32275500Y-44656519D01*
X32275499Y-44193482D01*
X32275498Y-44193478D01*
X32275498Y-44193475D01*
X32266600Y-44137285D01*
X32276172Y-44076853D01*
X32319437Y-44033590D01*
X32364381Y-44022800D01*
X32535618Y-44022800D01*
X32593809Y-44041707D01*
X32629773Y-44091207D01*
X32633399Y-44137287D01*
X32624499Y-44193477D01*
X32624499Y-44656520D01*
X32624500Y-44656523D01*
X32639351Y-44750299D01*
X32639353Y-44750303D01*
X32639353Y-44750304D01*
X32696949Y-44863342D01*
X32786657Y-44953050D01*
X32786659Y-44953051D01*
X32895445Y-45008481D01*
X32938710Y-45051745D01*
X32949500Y-45096690D01*
X32949500Y-45900500D01*
X32930593Y-45958691D01*
X32881093Y-45994655D01*
X32850500Y-45999500D01*
X32783337Y-45999500D01*
X32725146Y-45980593D01*
X32689182Y-45931093D01*
X32688528Y-45885643D01*
X32685690Y-45885235D01*
X32705133Y-45750002D01*
X32705133Y-45749997D01*
X32686697Y-45621774D01*
X32676753Y-45600000D01*
X32632882Y-45503937D01*
X32548049Y-45406033D01*
X32548048Y-45406032D01*
X32548047Y-45406031D01*
X32439073Y-45335998D01*
X32439070Y-45335996D01*
X32439069Y-45335996D01*
X32439066Y-45335995D01*
X32314774Y-45299500D01*
X32314772Y-45299500D01*
X32185228Y-45299500D01*
X32185225Y-45299500D01*
X32060933Y-45335995D01*
X32060926Y-45335998D01*
X31951952Y-45406031D01*
X31867117Y-45503938D01*
X31813302Y-45621774D01*
X31794867Y-45749997D01*
X31794867Y-45750002D01*
X31814310Y-45885235D01*
X31811283Y-45885670D01*
X31809898Y-45933791D01*
X31772523Y-45982235D01*
X31716663Y-45999500D01*
X31580252Y-45999500D01*
X31580251Y-45999500D01*
X31580241Y-45999501D01*
X31521772Y-46011132D01*
X31521766Y-46011134D01*
X31455451Y-46055445D01*
X31455445Y-46055451D01*
X31411134Y-46121766D01*
X31411132Y-46121772D01*
X31399501Y-46180241D01*
X31399500Y-46180253D01*
X31399500Y-47510170D01*
X31380593Y-47568361D01*
X31331093Y-47604325D01*
X31269907Y-47604325D01*
X31225682Y-47575003D01*
X31217649Y-47565733D01*
X31145976Y-47519671D01*
X31107245Y-47472304D01*
X31100500Y-47436387D01*
X31100500Y-46180253D01*
X31100498Y-46180241D01*
X31091356Y-46134282D01*
X31088867Y-46121769D01*
X31088864Y-46121764D01*
X31088863Y-46121762D01*
X31067185Y-46089318D01*
X31050500Y-46034317D01*
X31050500Y-46024868D01*
X31052731Y-46011195D01*
X31051505Y-46011024D01*
X31052773Y-46001932D01*
X31050606Y-45955057D01*
X31050500Y-45950485D01*
X31050500Y-45931860D01*
X31050500Y-45931856D01*
X31050478Y-45931742D01*
X31048898Y-45918130D01*
X31047585Y-45889708D01*
X31043615Y-45880717D01*
X31036864Y-45858915D01*
X31035061Y-45849268D01*
X31035061Y-45849267D01*
X31020085Y-45825079D01*
X31013698Y-45812962D01*
X31002206Y-45786935D01*
X31002205Y-45786933D01*
X30995256Y-45779984D01*
X30981090Y-45762099D01*
X30975919Y-45753748D01*
X30953221Y-45736607D01*
X30942879Y-45727608D01*
X29003296Y-43788025D01*
X28975519Y-43733508D01*
X28974300Y-43718021D01*
X28974300Y-37765496D01*
X28993207Y-37707305D01*
X29042707Y-37671341D01*
X29101191Y-37670506D01*
X29135228Y-37680500D01*
X29135230Y-37680500D01*
X29264770Y-37680500D01*
X29264772Y-37680500D01*
X29389069Y-37644004D01*
X29498049Y-37573967D01*
X29499777Y-37571973D01*
X29501664Y-37570834D01*
X29503402Y-37569329D01*
X29503662Y-37569629D01*
X29552171Y-37540373D01*
X29613132Y-37545605D01*
G37*
%TD.AperFunction*%
%TA.AperFunction,Conductor*%
G36*
X41349504Y-40381975D02*
G01*
X42819636Y-41852107D01*
X42827737Y-41863347D01*
X42828716Y-41862609D01*
X42834241Y-41869926D01*
X42834242Y-41869928D01*
X42868590Y-41901241D01*
X42868924Y-41901545D01*
X42872232Y-41904703D01*
X42885403Y-41917874D01*
X42885495Y-41917937D01*
X42896242Y-41926450D01*
X42917264Y-41945614D01*
X42917265Y-41945614D01*
X42917267Y-41945616D01*
X42926430Y-41949166D01*
X42946616Y-41959805D01*
X42954719Y-41965356D01*
X42982415Y-41971870D01*
X42995493Y-41975920D01*
X43022027Y-41986200D01*
X43031852Y-41986200D01*
X43054516Y-41988829D01*
X43064081Y-41991079D01*
X43089158Y-41987580D01*
X43092254Y-41987149D01*
X43105931Y-41986200D01*
X43128321Y-41986200D01*
X43186512Y-42005107D01*
X43198325Y-42015196D01*
X43678304Y-42495175D01*
X43706081Y-42549692D01*
X43707300Y-42565179D01*
X43707300Y-43740500D01*
X43688393Y-43798691D01*
X43638893Y-43834655D01*
X43608300Y-43839500D01*
X43395480Y-43839500D01*
X43337289Y-43820593D01*
X43325476Y-43810504D01*
X41039496Y-41524524D01*
X41011719Y-41470007D01*
X41010500Y-41454520D01*
X41010500Y-41134976D01*
X41029407Y-41076785D01*
X41039496Y-41064972D01*
X41040402Y-41064065D01*
X41040404Y-41064065D01*
X41124065Y-40980404D01*
X41174068Y-40873173D01*
X41180500Y-40824316D01*
X41180500Y-40451979D01*
X41199407Y-40393788D01*
X41248907Y-40357824D01*
X41310093Y-40357824D01*
X41349504Y-40381975D01*
G37*
%TD.AperFunction*%
%TA.AperFunction,Conductor*%
G36*
X20596212Y-26272607D02*
G01*
X20608025Y-26282696D01*
X22011736Y-27686407D01*
X22019837Y-27697647D01*
X22020816Y-27696909D01*
X22026344Y-27704230D01*
X22061024Y-27735845D01*
X22064332Y-27739003D01*
X22077503Y-27752174D01*
X22077595Y-27752237D01*
X22088342Y-27760750D01*
X22109364Y-27779914D01*
X22109365Y-27779914D01*
X22109367Y-27779916D01*
X22118525Y-27783463D01*
X22138712Y-27794103D01*
X22146819Y-27799657D01*
X22174510Y-27806169D01*
X22187595Y-27810221D01*
X22214127Y-27820500D01*
X22223952Y-27820500D01*
X22246616Y-27823129D01*
X22256181Y-27825379D01*
X22281258Y-27821880D01*
X22284354Y-27821449D01*
X22298031Y-27820500D01*
X22326121Y-27820500D01*
X22384312Y-27839407D01*
X22396125Y-27849496D01*
X23162419Y-28615790D01*
X23190196Y-28670307D01*
X23187815Y-28707308D01*
X23188210Y-28707365D01*
X23187489Y-28712378D01*
X23187405Y-28713687D01*
X23187201Y-28714380D01*
X23168767Y-28842597D01*
X23168767Y-28842602D01*
X23187202Y-28970825D01*
X23241017Y-29088661D01*
X23241018Y-29088663D01*
X23325851Y-29186567D01*
X23325852Y-29186568D01*
X23434826Y-29256601D01*
X23434831Y-29256604D01*
X23559128Y-29293100D01*
X23559130Y-29293100D01*
X23688670Y-29293100D01*
X23688672Y-29293100D01*
X23700109Y-29289742D01*
X23761269Y-29291490D01*
X23809722Y-29328853D01*
X23827000Y-29384732D01*
X23827000Y-30688018D01*
X23808093Y-30746209D01*
X23801165Y-30754711D01*
X23793183Y-30763466D01*
X23793183Y-30763467D01*
X23789629Y-30772640D01*
X23778996Y-30792812D01*
X23773446Y-30800915D01*
X23773441Y-30800924D01*
X23766930Y-30828606D01*
X23762877Y-30841696D01*
X23752601Y-30868223D01*
X23752600Y-30868229D01*
X23752600Y-30878051D01*
X23749970Y-30900718D01*
X23747721Y-30910279D01*
X23751651Y-30938453D01*
X23752600Y-30952130D01*
X23752600Y-38897320D01*
X23733693Y-38955511D01*
X23723604Y-38967324D01*
X21083590Y-41607337D01*
X21072361Y-41615450D01*
X21073090Y-41616415D01*
X21065771Y-41621941D01*
X21034141Y-41656637D01*
X21030989Y-41659938D01*
X21017830Y-41673098D01*
X21017818Y-41673112D01*
X21017749Y-41673214D01*
X21009255Y-41683935D01*
X20990083Y-41704966D01*
X20990083Y-41704967D01*
X20986529Y-41714140D01*
X20975896Y-41734312D01*
X20970346Y-41742415D01*
X20970341Y-41742424D01*
X20963830Y-41770106D01*
X20959777Y-41783196D01*
X20949501Y-41809723D01*
X20949500Y-41809729D01*
X20949500Y-41819551D01*
X20946870Y-41842218D01*
X20946095Y-41845515D01*
X20944621Y-41851781D01*
X20946259Y-41863524D01*
X20948551Y-41879953D01*
X20949500Y-41893630D01*
X20949500Y-43304990D01*
X20930593Y-43363181D01*
X20881093Y-43399145D01*
X20837580Y-43403143D01*
X20809907Y-43399500D01*
X20433200Y-43399500D01*
X20375009Y-43380593D01*
X20339045Y-43331093D01*
X20334200Y-43300500D01*
X20334200Y-39546900D01*
X21026765Y-39546900D01*
X21045200Y-39675123D01*
X21075121Y-39740639D01*
X21099016Y-39792961D01*
X21180601Y-39887116D01*
X21183850Y-39890866D01*
X21292824Y-39960899D01*
X21292829Y-39960902D01*
X21417126Y-39997398D01*
X21417128Y-39997398D01*
X21546668Y-39997398D01*
X21546670Y-39997398D01*
X21670967Y-39960902D01*
X21779947Y-39890865D01*
X21864780Y-39792961D01*
X21918595Y-39675124D01*
X21928075Y-39609187D01*
X21937031Y-39546900D01*
X21937031Y-39546895D01*
X21918595Y-39418672D01*
X21864780Y-39300836D01*
X21864780Y-39300835D01*
X21779947Y-39202931D01*
X21779946Y-39202930D01*
X21779945Y-39202929D01*
X21670971Y-39132896D01*
X21670968Y-39132894D01*
X21670967Y-39132894D01*
X21666281Y-39131518D01*
X21546672Y-39096398D01*
X21546670Y-39096398D01*
X21417126Y-39096398D01*
X21417123Y-39096398D01*
X21292831Y-39132893D01*
X21292824Y-39132896D01*
X21183850Y-39202929D01*
X21099015Y-39300836D01*
X21045200Y-39418672D01*
X21026765Y-39546895D01*
X21026765Y-39546900D01*
X20334200Y-39546900D01*
X20334200Y-38284487D01*
X21344200Y-38284487D01*
X21384637Y-38448544D01*
X21384638Y-38448547D01*
X21463163Y-38598164D01*
X21463163Y-38598165D01*
X21575209Y-38724638D01*
X21622268Y-38757120D01*
X21714271Y-38820625D01*
X21872261Y-38880543D01*
X21997915Y-38895800D01*
X21997920Y-38895800D01*
X22082080Y-38895800D01*
X22082085Y-38895800D01*
X22207739Y-38880543D01*
X22365729Y-38820625D01*
X22504789Y-38724639D01*
X22504790Y-38724638D01*
X22616836Y-38598165D01*
X22616836Y-38598164D01*
X22616835Y-38598164D01*
X22616838Y-38598162D01*
X22695362Y-38448546D01*
X22735800Y-38284485D01*
X22735800Y-38115515D01*
X22695362Y-37951454D01*
X22616838Y-37801838D01*
X22616836Y-37801836D01*
X22616836Y-37801835D01*
X22616836Y-37801834D01*
X22504790Y-37675361D01*
X22365729Y-37579375D01*
X22275459Y-37545140D01*
X22207739Y-37519457D01*
X22207737Y-37519456D01*
X22207736Y-37519456D01*
X22082096Y-37504201D01*
X22082090Y-37504200D01*
X22082085Y-37504200D01*
X21997915Y-37504200D01*
X21997910Y-37504200D01*
X21997903Y-37504201D01*
X21872263Y-37519456D01*
X21872261Y-37519457D01*
X21714270Y-37579375D01*
X21575210Y-37675361D01*
X21575209Y-37675361D01*
X21463163Y-37801834D01*
X21463163Y-37801835D01*
X21384638Y-37951452D01*
X21384637Y-37951455D01*
X21344200Y-38115512D01*
X21344200Y-38284487D01*
X20334200Y-38284487D01*
X20334200Y-27381575D01*
X20353107Y-27323384D01*
X20379675Y-27298291D01*
X20416749Y-27274467D01*
X20501582Y-27176563D01*
X20555397Y-27058726D01*
X20573833Y-26930500D01*
X20555397Y-26802274D01*
X20501582Y-26684437D01*
X20416749Y-26586533D01*
X20416748Y-26586532D01*
X20416747Y-26586531D01*
X20307773Y-26516498D01*
X20307770Y-26516496D01*
X20307769Y-26516496D01*
X20307766Y-26516495D01*
X20183474Y-26480000D01*
X20183472Y-26480000D01*
X20148428Y-26480000D01*
X20090237Y-26461093D01*
X20054273Y-26411593D01*
X20050436Y-26395089D01*
X20046367Y-26366789D01*
X20056800Y-26306500D01*
X20100678Y-26263858D01*
X20144359Y-26253700D01*
X20538021Y-26253700D01*
X20596212Y-26272607D01*
G37*
%TD.AperFunction*%
%TA.AperFunction,Conductor*%
G36*
X30436522Y-34290171D02*
G01*
X30437642Y-34288767D01*
X30449243Y-34298018D01*
X30448967Y-34298363D01*
X30460100Y-34306904D01*
X34248204Y-38095007D01*
X34275981Y-38149524D01*
X34277200Y-38165011D01*
X34277200Y-41205797D01*
X34276192Y-41219886D01*
X34272567Y-41245098D01*
X34272567Y-41245104D01*
X34276479Y-41272315D01*
X34277180Y-41278726D01*
X34277200Y-41278858D01*
X34277200Y-41278862D01*
X34281970Y-41310515D01*
X34282039Y-41310984D01*
X34291457Y-41376488D01*
X34292352Y-41379388D01*
X34319375Y-41435501D01*
X34320232Y-41437329D01*
X34344817Y-41491162D01*
X34346982Y-41494532D01*
X34349828Y-41499620D01*
X34351276Y-41501743D01*
X34391100Y-41544663D01*
X34393348Y-41547170D01*
X34429648Y-41589064D01*
X34434997Y-41593699D01*
X34434688Y-41594055D01*
X34437833Y-41596688D01*
X34437848Y-41596671D01*
X34443644Y-41601293D01*
X34443645Y-41601294D01*
X34479407Y-41621941D01*
X34491128Y-41628708D01*
X34495129Y-41631147D01*
X34538631Y-41659104D01*
X34538633Y-41659104D01*
X34542871Y-41661040D01*
X34559348Y-41668095D01*
X34561255Y-41669196D01*
X34611066Y-41680564D01*
X34616920Y-41682091D01*
X34662922Y-41695599D01*
X34662927Y-41695599D01*
X34662928Y-41695600D01*
X34665784Y-41695600D01*
X34687813Y-41698082D01*
X34688524Y-41698244D01*
X34693654Y-41699415D01*
X34740864Y-41695877D01*
X34748263Y-41695600D01*
X34792470Y-41695600D01*
X34792472Y-41695600D01*
X34798840Y-41693729D01*
X34819333Y-41689995D01*
X34829078Y-41689266D01*
X34869673Y-41673332D01*
X34877918Y-41670510D01*
X34916769Y-41659104D01*
X34925530Y-41653472D01*
X34942885Y-41644600D01*
X34955494Y-41639652D01*
X34986654Y-41614802D01*
X34994842Y-41608928D01*
X35025749Y-41589067D01*
X35035044Y-41578338D01*
X35048131Y-41565775D01*
X35061670Y-41554979D01*
X35082010Y-41525143D01*
X35088979Y-41516092D01*
X35110582Y-41491163D01*
X35118038Y-41474833D01*
X35126293Y-41460194D01*
X35138172Y-41442773D01*
X35147709Y-41411850D01*
X35152255Y-41399910D01*
X35164397Y-41373326D01*
X35165193Y-41367792D01*
X35167488Y-41351831D01*
X35170878Y-41336739D01*
X35172641Y-41331023D01*
X35178200Y-41313002D01*
X35178200Y-41284401D01*
X35179208Y-41270310D01*
X35182833Y-41245100D01*
X35182833Y-41245098D01*
X35179208Y-41219886D01*
X35178200Y-41205797D01*
X35178200Y-38851275D01*
X35197107Y-38793084D01*
X35246607Y-38757120D01*
X35305092Y-38756286D01*
X35321828Y-38761200D01*
X35321830Y-38761200D01*
X35451370Y-38761200D01*
X35451372Y-38761200D01*
X35575669Y-38724704D01*
X35684649Y-38654667D01*
X35769482Y-38556763D01*
X35823297Y-38438926D01*
X35841733Y-38310700D01*
X35835013Y-38263961D01*
X35845446Y-38203672D01*
X35889324Y-38161030D01*
X35905099Y-38154887D01*
X35943869Y-38143504D01*
X36052849Y-38073467D01*
X36137682Y-37975563D01*
X36191497Y-37857726D01*
X36204991Y-37763873D01*
X36231986Y-37708965D01*
X36286100Y-37680411D01*
X36346663Y-37689118D01*
X36372983Y-37707954D01*
X39190505Y-40525476D01*
X39218281Y-40579991D01*
X39219500Y-40595478D01*
X39219500Y-40824314D01*
X39225932Y-40873174D01*
X39225932Y-40873175D01*
X39275933Y-40980401D01*
X39275934Y-40980402D01*
X39275935Y-40980404D01*
X39359596Y-41064065D01*
X39359597Y-41064065D01*
X39359598Y-41064066D01*
X39466824Y-41114067D01*
X39466825Y-41114067D01*
X39466827Y-41114068D01*
X39515684Y-41120500D01*
X39515685Y-41120500D01*
X39864314Y-41120500D01*
X39864316Y-41120500D01*
X39913173Y-41114068D01*
X40020404Y-41064065D01*
X40104065Y-40980404D01*
X40110275Y-40967085D01*
X40152003Y-40922337D01*
X40212064Y-40910662D01*
X40267517Y-40936519D01*
X40289724Y-40967084D01*
X40295935Y-40980404D01*
X40379596Y-41064065D01*
X40379597Y-41064065D01*
X40380504Y-41064972D01*
X40408281Y-41119489D01*
X40409500Y-41134976D01*
X40409500Y-41262809D01*
X40390593Y-41321000D01*
X40362618Y-41346980D01*
X40357886Y-41349910D01*
X40345759Y-41356302D01*
X40319738Y-41367792D01*
X40319731Y-41367796D01*
X40312786Y-41374742D01*
X40294906Y-41388905D01*
X40286548Y-41394080D01*
X40269407Y-41416778D01*
X40260409Y-41427117D01*
X39367025Y-42320503D01*
X39312508Y-42348281D01*
X39297021Y-42349500D01*
X38641740Y-42349500D01*
X38607673Y-42354463D01*
X38573604Y-42359427D01*
X38468518Y-42410801D01*
X38385801Y-42493518D01*
X38334427Y-42598604D01*
X38324500Y-42666743D01*
X38324500Y-43033257D01*
X38326477Y-43046827D01*
X38316156Y-43107136D01*
X38272359Y-43149860D01*
X38228511Y-43160100D01*
X37692500Y-43160100D01*
X37634309Y-43141193D01*
X37622496Y-43131104D01*
X37404495Y-42913103D01*
X37376718Y-42858586D01*
X37375499Y-42843099D01*
X37375499Y-42543478D01*
X37375498Y-42543476D01*
X37360647Y-42449700D01*
X37360646Y-42449698D01*
X37360646Y-42449696D01*
X37303050Y-42336658D01*
X37213342Y-42246950D01*
X37100304Y-42189354D01*
X37100305Y-42189354D01*
X37006522Y-42174500D01*
X36393479Y-42174500D01*
X36393476Y-42174501D01*
X36299700Y-42189352D01*
X36299695Y-42189354D01*
X36186659Y-42246949D01*
X36186658Y-42246949D01*
X36186658Y-42246950D01*
X36096950Y-42336658D01*
X36096949Y-42336659D01*
X36091441Y-42342168D01*
X36089757Y-42340484D01*
X36049601Y-42369656D01*
X36019013Y-42374500D01*
X35680987Y-42374500D01*
X35622796Y-42355593D01*
X35608964Y-42341762D01*
X35608559Y-42342168D01*
X35603051Y-42336660D01*
X35603050Y-42336658D01*
X35513342Y-42246950D01*
X35400304Y-42189354D01*
X35400305Y-42189354D01*
X35306522Y-42174500D01*
X34693479Y-42174500D01*
X34693476Y-42174501D01*
X34599700Y-42189352D01*
X34599695Y-42189354D01*
X34486659Y-42246949D01*
X34486658Y-42246949D01*
X34486658Y-42246950D01*
X34396950Y-42336658D01*
X34396949Y-42336659D01*
X34391441Y-42342168D01*
X34389757Y-42340484D01*
X34349601Y-42369656D01*
X34319013Y-42374500D01*
X33980986Y-42374500D01*
X33922795Y-42355593D01*
X33908963Y-42341762D01*
X33908558Y-42342168D01*
X33903050Y-42336660D01*
X33903049Y-42336658D01*
X33813341Y-42246950D01*
X33700303Y-42189354D01*
X33700304Y-42189354D01*
X33606521Y-42174500D01*
X32993478Y-42174500D01*
X32993475Y-42174501D01*
X32899699Y-42189352D01*
X32899694Y-42189354D01*
X32786658Y-42246949D01*
X32786657Y-42246949D01*
X32786657Y-42246950D01*
X32696949Y-42336658D01*
X32696948Y-42336659D01*
X32691440Y-42342168D01*
X32689756Y-42340484D01*
X32649600Y-42369656D01*
X32619012Y-42374500D01*
X32280987Y-42374500D01*
X32222796Y-42355593D01*
X32208964Y-42341762D01*
X32208559Y-42342168D01*
X32203051Y-42336660D01*
X32203050Y-42336658D01*
X32113342Y-42246950D01*
X32000304Y-42189354D01*
X32000305Y-42189354D01*
X31906522Y-42174500D01*
X31293479Y-42174500D01*
X31293476Y-42174501D01*
X31199700Y-42189352D01*
X31199695Y-42189354D01*
X31086659Y-42246949D01*
X30996949Y-42336659D01*
X30939354Y-42449695D01*
X30924500Y-42543478D01*
X30924500Y-42607821D01*
X30905593Y-42666012D01*
X30856093Y-42701976D01*
X30794907Y-42701976D01*
X30755496Y-42677825D01*
X30303596Y-42225925D01*
X30275819Y-42171408D01*
X30274600Y-42155921D01*
X30274600Y-37735790D01*
X30293507Y-37677599D01*
X30343007Y-37641635D01*
X30404193Y-37641635D01*
X30408266Y-37643221D01*
X30410929Y-37644003D01*
X30410931Y-37644004D01*
X30535228Y-37680500D01*
X30535230Y-37680500D01*
X30664770Y-37680500D01*
X30664772Y-37680500D01*
X30789069Y-37644004D01*
X30898049Y-37573967D01*
X30982882Y-37476063D01*
X31036697Y-37358226D01*
X31042842Y-37315484D01*
X31055133Y-37230002D01*
X31055133Y-37229997D01*
X31036697Y-37101774D01*
X31014188Y-37052487D01*
X30982882Y-36983937D01*
X30898049Y-36886033D01*
X30898048Y-36886032D01*
X30898047Y-36886031D01*
X30789073Y-36815998D01*
X30789070Y-36815996D01*
X30789069Y-36815996D01*
X30787591Y-36815562D01*
X30664774Y-36779500D01*
X30664772Y-36779500D01*
X30535228Y-36779500D01*
X30535225Y-36779500D01*
X30430494Y-36810252D01*
X30410935Y-36815995D01*
X30404137Y-36817991D01*
X30403423Y-36815562D01*
X30353928Y-36821235D01*
X30300655Y-36791141D01*
X30275244Y-36735482D01*
X30274600Y-36724209D01*
X30274600Y-34363670D01*
X30293507Y-34305479D01*
X30343007Y-34269515D01*
X30404193Y-34269515D01*
X30436522Y-34290171D01*
G37*
%TD.AperFunction*%
%TA.AperFunction,Conductor*%
G36*
X31347004Y-23440675D02*
G01*
X33860836Y-25954507D01*
X33868937Y-25965747D01*
X33869916Y-25965009D01*
X33875444Y-25972330D01*
X33882403Y-25978674D01*
X33912668Y-26031850D01*
X33905897Y-26092659D01*
X33903191Y-26097635D01*
X33847502Y-26219574D01*
X33829067Y-26347797D01*
X33829067Y-26347802D01*
X33847502Y-26476025D01*
X33897970Y-26586533D01*
X33901318Y-26593863D01*
X33959520Y-26661032D01*
X33983337Y-26717392D01*
X33983700Y-26725863D01*
X33983700Y-31329335D01*
X33981480Y-31343013D01*
X33982694Y-31343183D01*
X33981426Y-31352266D01*
X33983594Y-31399141D01*
X33983700Y-31403713D01*
X33983700Y-31422344D01*
X33983722Y-31422466D01*
X33985301Y-31436077D01*
X33986614Y-31464487D01*
X33986615Y-31464494D01*
X33990584Y-31473482D01*
X33997332Y-31495272D01*
X33999139Y-31504933D01*
X34002359Y-31510133D01*
X34014112Y-31529117D01*
X34020501Y-31541238D01*
X34031994Y-31567265D01*
X34038945Y-31574216D01*
X34053107Y-31592096D01*
X34058281Y-31600452D01*
X34080981Y-31617594D01*
X34091317Y-31626588D01*
X34401904Y-31937175D01*
X34429681Y-31991692D01*
X34430900Y-32007179D01*
X34430900Y-34477635D01*
X34428680Y-34491313D01*
X34429894Y-34491483D01*
X34428626Y-34500566D01*
X34430794Y-34547441D01*
X34430900Y-34552013D01*
X34430900Y-34570644D01*
X34430922Y-34570766D01*
X34432501Y-34584377D01*
X34433814Y-34612787D01*
X34433815Y-34612794D01*
X34437784Y-34621782D01*
X34444532Y-34643572D01*
X34446339Y-34653233D01*
X34455209Y-34667560D01*
X34461312Y-34677417D01*
X34467701Y-34689538D01*
X34470466Y-34695800D01*
X34479194Y-34715565D01*
X34486145Y-34722516D01*
X34500307Y-34740396D01*
X34505481Y-34748752D01*
X34528181Y-34765894D01*
X34538517Y-34774888D01*
X34912304Y-35148675D01*
X34940081Y-35203192D01*
X34941300Y-35218679D01*
X34941300Y-37274888D01*
X34922393Y-37333079D01*
X34872893Y-37369043D01*
X34811707Y-37369043D01*
X34772296Y-37344892D01*
X33303548Y-35876144D01*
X33275771Y-35821627D01*
X33285342Y-35761195D01*
X33328607Y-35717930D01*
X33385485Y-35707862D01*
X33417915Y-35711800D01*
X33417920Y-35711800D01*
X33502080Y-35711800D01*
X33502085Y-35711800D01*
X33627739Y-35696543D01*
X33785729Y-35636625D01*
X33924789Y-35540639D01*
X33924790Y-35540638D01*
X34036836Y-35414165D01*
X34036836Y-35414164D01*
X34036835Y-35414164D01*
X34036838Y-35414162D01*
X34115362Y-35264546D01*
X34155800Y-35100485D01*
X34155800Y-34931515D01*
X34115362Y-34767454D01*
X34036838Y-34617838D01*
X34036836Y-34617836D01*
X34036836Y-34617835D01*
X34036836Y-34617834D01*
X33924790Y-34491361D01*
X33785729Y-34395375D01*
X33748471Y-34381245D01*
X33627739Y-34335457D01*
X33627737Y-34335456D01*
X33627736Y-34335456D01*
X33502096Y-34320201D01*
X33502090Y-34320200D01*
X33502085Y-34320200D01*
X33417915Y-34320200D01*
X33417910Y-34320200D01*
X33417903Y-34320201D01*
X33292263Y-34335456D01*
X33292261Y-34335457D01*
X33134270Y-34395375D01*
X32995210Y-34491361D01*
X32995209Y-34491361D01*
X32883163Y-34617834D01*
X32883163Y-34617835D01*
X32804638Y-34767452D01*
X32804637Y-34767455D01*
X32764200Y-34931512D01*
X32764200Y-35097788D01*
X32745293Y-35155979D01*
X32695793Y-35191943D01*
X32634607Y-35191943D01*
X32595196Y-35167792D01*
X31973656Y-34546253D01*
X31945879Y-34491736D01*
X31955450Y-34431304D01*
X31990134Y-34392968D01*
X32032149Y-34365967D01*
X32116982Y-34268063D01*
X32170797Y-34150226D01*
X32180249Y-34084485D01*
X32190241Y-34014991D01*
X32191950Y-34015236D01*
X32208140Y-33965409D01*
X32257640Y-33929445D01*
X32288233Y-33924600D01*
X32333570Y-33924600D01*
X32333572Y-33924600D01*
X32457869Y-33888104D01*
X32566849Y-33818067D01*
X32651682Y-33720163D01*
X32705497Y-33602326D01*
X32723933Y-33474100D01*
X32723933Y-33467019D01*
X32726037Y-33467019D01*
X32734764Y-33416586D01*
X32778641Y-33373943D01*
X32839203Y-33365234D01*
X32893318Y-33393786D01*
X32896426Y-33397135D01*
X32995209Y-33508638D01*
X33071865Y-33561550D01*
X33134271Y-33604625D01*
X33292261Y-33664543D01*
X33417915Y-33679800D01*
X33417920Y-33679800D01*
X33502080Y-33679800D01*
X33502085Y-33679800D01*
X33627739Y-33664543D01*
X33785729Y-33604625D01*
X33924789Y-33508639D01*
X33924790Y-33508638D01*
X34036836Y-33382165D01*
X34036836Y-33382164D01*
X34036835Y-33382164D01*
X34036838Y-33382162D01*
X34115362Y-33232546D01*
X34155800Y-33068485D01*
X34155800Y-32899515D01*
X34115362Y-32735454D01*
X34036838Y-32585838D01*
X34036836Y-32585836D01*
X34036836Y-32585835D01*
X34036836Y-32585834D01*
X33924790Y-32459361D01*
X33785729Y-32363375D01*
X33700656Y-32331111D01*
X33627739Y-32303457D01*
X33627737Y-32303456D01*
X33627736Y-32303456D01*
X33502096Y-32288201D01*
X33502090Y-32288200D01*
X33502085Y-32288200D01*
X33417915Y-32288200D01*
X33417910Y-32288200D01*
X33417903Y-32288201D01*
X33292263Y-32303456D01*
X33292261Y-32303457D01*
X33134270Y-32363375D01*
X32995210Y-32459361D01*
X32995209Y-32459361D01*
X32883163Y-32585834D01*
X32883163Y-32585835D01*
X32804638Y-32735452D01*
X32804637Y-32735455D01*
X32764423Y-32898610D01*
X32732139Y-32950585D01*
X32675471Y-32973658D01*
X32616063Y-32959015D01*
X32576609Y-32912250D01*
X32569300Y-32874918D01*
X32569300Y-28272263D01*
X32588207Y-28214072D01*
X32593480Y-28207432D01*
X32651682Y-28140263D01*
X32705497Y-28022426D01*
X32723933Y-27894200D01*
X32716484Y-27842393D01*
X32705497Y-27765974D01*
X32690745Y-27733672D01*
X32651682Y-27648137D01*
X32566849Y-27550233D01*
X32566848Y-27550232D01*
X32566847Y-27550231D01*
X32457873Y-27480198D01*
X32457870Y-27480196D01*
X32457869Y-27480196D01*
X32457866Y-27480195D01*
X32333574Y-27443700D01*
X32333572Y-27443700D01*
X32204028Y-27443700D01*
X32204025Y-27443700D01*
X32079733Y-27480195D01*
X32079726Y-27480198D01*
X31970752Y-27550231D01*
X31885917Y-27648138D01*
X31832102Y-27765974D01*
X31813667Y-27894197D01*
X31813667Y-27894202D01*
X31832102Y-28022425D01*
X31883027Y-28133933D01*
X31885918Y-28140263D01*
X31934956Y-28196856D01*
X31944120Y-28207432D01*
X31967937Y-28263792D01*
X31968300Y-28272263D01*
X31968300Y-32085805D01*
X31949393Y-32143996D01*
X31899893Y-32179960D01*
X31841410Y-32180795D01*
X31763777Y-32158001D01*
X31763773Y-32158000D01*
X31763772Y-32158000D01*
X31634228Y-32158000D01*
X31634225Y-32158000D01*
X31509933Y-32194495D01*
X31509926Y-32194498D01*
X31400951Y-32264532D01*
X31400949Y-32264534D01*
X31351819Y-32321234D01*
X31299424Y-32352830D01*
X31238463Y-32347594D01*
X31192222Y-32307527D01*
X31178000Y-32256403D01*
X31178000Y-23510679D01*
X31196907Y-23452488D01*
X31246407Y-23416524D01*
X31307593Y-23416524D01*
X31347004Y-23440675D01*
G37*
%TD.AperFunction*%
%TA.AperFunction,Conductor*%
G36*
X35035545Y-13588301D02*
G01*
X35078810Y-13631566D01*
X35089600Y-13676511D01*
X35089600Y-21154435D01*
X35087380Y-21168113D01*
X35088594Y-21168283D01*
X35087326Y-21177366D01*
X35089494Y-21224241D01*
X35089600Y-21228813D01*
X35089600Y-21247444D01*
X35089622Y-21247566D01*
X35091201Y-21261177D01*
X35092514Y-21289587D01*
X35092515Y-21289594D01*
X35096484Y-21298582D01*
X35103232Y-21320372D01*
X35105039Y-21330033D01*
X35113909Y-21344360D01*
X35120012Y-21354217D01*
X35126401Y-21366338D01*
X35137894Y-21392365D01*
X35144845Y-21399316D01*
X35159007Y-21417196D01*
X35164181Y-21425552D01*
X35186881Y-21442694D01*
X35197217Y-21451688D01*
X35637204Y-21891675D01*
X35664981Y-21946192D01*
X35666200Y-21961679D01*
X35666200Y-25515784D01*
X35647293Y-25573975D01*
X35597793Y-25609939D01*
X35536607Y-25609939D01*
X35526075Y-25605838D01*
X35524670Y-25605196D01*
X35400374Y-25568700D01*
X35400372Y-25568700D01*
X35270828Y-25568700D01*
X35270825Y-25568700D01*
X35146533Y-25605195D01*
X35146526Y-25605198D01*
X35037551Y-25675232D01*
X35037549Y-25675234D01*
X34998856Y-25719889D01*
X34946461Y-25751485D01*
X34885500Y-25746249D01*
X34854033Y-25725062D01*
X34750665Y-25621694D01*
X34742579Y-25610444D01*
X34741587Y-25611194D01*
X34736058Y-25603872D01*
X34701372Y-25572251D01*
X34698068Y-25569096D01*
X34684900Y-25555928D01*
X34684896Y-25555925D01*
X34684793Y-25555855D01*
X34674062Y-25547355D01*
X34653033Y-25528184D01*
X34643862Y-25524631D01*
X34623686Y-25513995D01*
X34615584Y-25508445D01*
X34615579Y-25508443D01*
X34587897Y-25501932D01*
X34574803Y-25497877D01*
X34548277Y-25487600D01*
X34548273Y-25487600D01*
X34538448Y-25487600D01*
X34515783Y-25484970D01*
X34506219Y-25482721D01*
X34506218Y-25482721D01*
X34478046Y-25486651D01*
X34464369Y-25487600D01*
X34284880Y-25487600D01*
X34226689Y-25468693D01*
X34214876Y-25458604D01*
X31714296Y-22958024D01*
X31686519Y-22903507D01*
X31685300Y-22888020D01*
X31685300Y-22243163D01*
X31704207Y-22184972D01*
X31709480Y-22178332D01*
X31767682Y-22111163D01*
X31821497Y-21993326D01*
X31839933Y-21865100D01*
X31821497Y-21736874D01*
X31767682Y-21619037D01*
X31682849Y-21521133D01*
X31682848Y-21521132D01*
X31682847Y-21521131D01*
X31573873Y-21451098D01*
X31573870Y-21451096D01*
X31573869Y-21451096D01*
X31543292Y-21442118D01*
X31492785Y-21407582D01*
X31472223Y-21349955D01*
X31489461Y-21291248D01*
X31501174Y-21277129D01*
X34128243Y-18650058D01*
X34136503Y-18642678D01*
X34165470Y-18619579D01*
X34197957Y-18571927D01*
X34200059Y-18568966D01*
X34234293Y-18522582D01*
X34234295Y-18522576D01*
X34237763Y-18516016D01*
X34238155Y-18516223D01*
X34239151Y-18514250D01*
X34238752Y-18514058D01*
X34241972Y-18507372D01*
X34258977Y-18452238D01*
X34260095Y-18448838D01*
X34279146Y-18394399D01*
X34279146Y-18394394D01*
X34280526Y-18387107D01*
X34280960Y-18387189D01*
X34281332Y-18385003D01*
X34280894Y-18384937D01*
X34282000Y-18377600D01*
X34282000Y-18319983D01*
X34282069Y-18316282D01*
X34282070Y-18316253D01*
X34284224Y-18258690D01*
X34284222Y-18258682D01*
X34283393Y-18251318D01*
X34283831Y-18251268D01*
X34282000Y-18237357D01*
X34282000Y-14286111D01*
X34300907Y-14227920D01*
X34310996Y-14216107D01*
X34920596Y-13606507D01*
X34975113Y-13578730D01*
X35035545Y-13588301D01*
G37*
%TD.AperFunction*%
%TA.AperFunction,Conductor*%
G36*
X40613012Y-8089707D02*
G01*
X40624825Y-8099796D01*
X41145504Y-8620475D01*
X41173281Y-8674992D01*
X41174500Y-8690478D01*
X41174500Y-8852129D01*
X41174501Y-8852137D01*
X41190484Y-8932494D01*
X41190485Y-8932496D01*
X41248953Y-9019998D01*
X41265562Y-9078886D01*
X41248953Y-9130002D01*
X41190487Y-9217501D01*
X41190486Y-9217503D01*
X41190485Y-9217505D01*
X41190485Y-9217506D01*
X41174500Y-9297867D01*
X41174500Y-9502129D01*
X41174501Y-9502137D01*
X41190484Y-9582494D01*
X41190485Y-9582496D01*
X41248953Y-9669998D01*
X41265562Y-9728886D01*
X41248953Y-9780002D01*
X41190487Y-9867501D01*
X41190486Y-9867503D01*
X41190485Y-9867505D01*
X41178989Y-9925299D01*
X41174500Y-9947867D01*
X41174500Y-10152129D01*
X41174501Y-10152137D01*
X41190484Y-10232494D01*
X41190485Y-10232496D01*
X41242278Y-10310008D01*
X41251376Y-10323624D01*
X41342505Y-10384515D01*
X41422867Y-10400500D01*
X41584519Y-10400499D01*
X41642710Y-10419406D01*
X41654524Y-10429495D01*
X41700504Y-10475475D01*
X41728281Y-10529992D01*
X41729500Y-10545479D01*
X41729500Y-13118121D01*
X41710593Y-13176312D01*
X41700504Y-13188125D01*
X41318125Y-13570504D01*
X41263608Y-13598281D01*
X41248121Y-13599500D01*
X41056927Y-13599500D01*
X41029836Y-13595721D01*
X41029407Y-13595599D01*
X40991861Y-13599078D01*
X40982729Y-13599500D01*
X40224395Y-13599500D01*
X40166204Y-13580593D01*
X40134671Y-13542340D01*
X40124066Y-13519598D01*
X40124065Y-13519597D01*
X40124065Y-13519596D01*
X40040404Y-13435935D01*
X40040402Y-13435934D01*
X40040401Y-13435933D01*
X39933175Y-13385932D01*
X39900601Y-13381644D01*
X39884316Y-13379500D01*
X39535684Y-13379500D01*
X39519398Y-13381644D01*
X39486825Y-13385932D01*
X39486824Y-13385932D01*
X39379598Y-13435933D01*
X39295933Y-13519598D01*
X39289724Y-13532915D01*
X39247995Y-13577663D01*
X39187934Y-13589337D01*
X39132482Y-13563478D01*
X39110276Y-13532915D01*
X39104066Y-13519598D01*
X39104065Y-13519597D01*
X39104065Y-13519596D01*
X39020404Y-13435935D01*
X39020402Y-13435934D01*
X39020401Y-13435933D01*
X38913175Y-13385932D01*
X38880601Y-13381644D01*
X38864316Y-13379500D01*
X38515684Y-13379500D01*
X38499398Y-13381644D01*
X38466825Y-13385932D01*
X38466824Y-13385932D01*
X38359598Y-13435933D01*
X38275933Y-13519598D01*
X38225932Y-13626824D01*
X38225932Y-13626825D01*
X38221644Y-13659398D01*
X38219831Y-13673174D01*
X38219500Y-13675685D01*
X38219500Y-13869165D01*
X38200593Y-13927356D01*
X38190504Y-13939169D01*
X38120971Y-14008702D01*
X38066454Y-14036479D01*
X38050967Y-14037698D01*
X38037029Y-14037698D01*
X38037027Y-14037698D01*
X38037022Y-14037699D01*
X38033416Y-14038758D01*
X38030281Y-14038668D01*
X38030019Y-14038706D01*
X38030012Y-14038660D01*
X37972255Y-14037008D01*
X37923804Y-13999643D01*
X37915476Y-13984894D01*
X37914733Y-13983266D01*
X37882612Y-13912934D01*
X37875638Y-13852148D01*
X37902662Y-13801805D01*
X37924065Y-13780404D01*
X37974068Y-13673173D01*
X37980500Y-13624316D01*
X37980500Y-13395478D01*
X37999407Y-13337287D01*
X38009490Y-13325480D01*
X38925073Y-12409896D01*
X39839500Y-12409896D01*
X39839501Y-12409907D01*
X39846027Y-12459486D01*
X39846027Y-12459488D01*
X39896774Y-12568313D01*
X39896775Y-12568314D01*
X39896776Y-12568316D01*
X39981684Y-12653224D01*
X40090513Y-12703972D01*
X40140099Y-12710500D01*
X40499900Y-12710499D01*
X40549487Y-12703972D01*
X40549488Y-12703972D01*
X40625597Y-12668481D01*
X40658316Y-12653224D01*
X40743224Y-12568316D01*
X40793972Y-12459487D01*
X40800500Y-12409901D01*
X40800499Y-11990100D01*
X40793972Y-11940513D01*
X40793972Y-11940511D01*
X40743225Y-11831686D01*
X40743224Y-11831685D01*
X40743224Y-11831684D01*
X40674494Y-11762954D01*
X40646719Y-11708440D01*
X40645500Y-11692953D01*
X40645500Y-11239211D01*
X40664407Y-11181020D01*
X40669680Y-11174380D01*
X40702882Y-11136063D01*
X40756697Y-11018226D01*
X40762842Y-10975484D01*
X40775133Y-10890002D01*
X40775133Y-10889997D01*
X40756697Y-10761774D01*
X40702882Y-10643938D01*
X40702882Y-10643937D01*
X40618049Y-10546033D01*
X40618048Y-10546032D01*
X40618047Y-10546031D01*
X40509073Y-10475998D01*
X40509070Y-10475996D01*
X40509069Y-10475996D01*
X40483475Y-10468481D01*
X40384774Y-10439500D01*
X40384772Y-10439500D01*
X40255228Y-10439500D01*
X40255225Y-10439500D01*
X40130933Y-10475995D01*
X40130926Y-10475998D01*
X40021952Y-10546031D01*
X39937117Y-10643938D01*
X39883302Y-10761774D01*
X39864867Y-10889997D01*
X39864867Y-10890002D01*
X39883302Y-11018225D01*
X39937117Y-11136061D01*
X39937118Y-11136063D01*
X39939093Y-11138342D01*
X39970320Y-11174380D01*
X39994137Y-11230740D01*
X39994500Y-11239211D01*
X39994500Y-11692953D01*
X39975593Y-11751144D01*
X39965509Y-11762950D01*
X39924985Y-11803475D01*
X39896774Y-11831686D01*
X39846029Y-11940510D01*
X39846028Y-11940511D01*
X39839500Y-11990100D01*
X39839500Y-12409896D01*
X38925073Y-12409896D01*
X39085005Y-12249964D01*
X39096264Y-12241893D01*
X39095505Y-12240887D01*
X39102821Y-12235361D01*
X39102828Y-12235358D01*
X39134477Y-12200639D01*
X39137595Y-12197374D01*
X39150774Y-12184197D01*
X39150838Y-12184102D01*
X39159353Y-12173353D01*
X39178516Y-12152333D01*
X39182065Y-12143170D01*
X39192706Y-12122982D01*
X39198256Y-12114881D01*
X39204769Y-12087185D01*
X39208820Y-12074106D01*
X39219100Y-12047573D01*
X39219100Y-12037748D01*
X39221729Y-12015083D01*
X39223979Y-12005519D01*
X39220049Y-11977344D01*
X39219100Y-11963668D01*
X39219100Y-9652358D01*
X39238007Y-9594167D01*
X39287507Y-9558203D01*
X39348693Y-9558203D01*
X39398193Y-9594167D01*
X39400412Y-9597352D01*
X39451376Y-9673624D01*
X39542505Y-9734515D01*
X39622867Y-9750500D01*
X40177132Y-9750499D01*
X40257495Y-9734515D01*
X40348624Y-9673624D01*
X40409515Y-9582495D01*
X40425500Y-9502133D01*
X40425499Y-9297868D01*
X40409515Y-9217505D01*
X40351044Y-9129999D01*
X40334437Y-9071115D01*
X40351044Y-9020001D01*
X40409515Y-8932495D01*
X40425500Y-8852133D01*
X40425499Y-8647868D01*
X40409515Y-8567505D01*
X40356909Y-8488776D01*
X40348626Y-8476379D01*
X40348624Y-8476376D01*
X40322311Y-8458794D01*
X40257497Y-8415486D01*
X40257496Y-8415485D01*
X40257495Y-8415485D01*
X40177133Y-8399500D01*
X40050834Y-8399500D01*
X39992643Y-8380593D01*
X39980831Y-8370504D01*
X39909360Y-8299034D01*
X39881582Y-8244518D01*
X39881397Y-8243297D01*
X39872856Y-8183886D01*
X39883292Y-8123597D01*
X39927171Y-8080956D01*
X39970849Y-8070800D01*
X40554821Y-8070800D01*
X40613012Y-8089707D01*
G37*
%TD.AperFunction*%
%TD*%
M02*
