%TF.GenerationSoftware,KiCad,Pcbnew,7.0.11+dfsg-1build4*%
%TF.CreationDate,2026-09-30T06:05:13+00:00*%
%TF.ProjectId,opencycle,6f70656e-6379-4636-9c65-2e6b69636164,rev?*%
%TF.SameCoordinates,Original*%
%TF.FileFunction,Copper,L2,Inr*%
%TF.FilePolarity,Positive*%
%FSLAX46Y46*%
G04 Gerber Fmt 4.6, Leading zero omitted, Abs format (unit mm)*
G04 Created by KiCad (PCBNEW 7.0.11+dfsg-1build4) date 2026-09-30 06:05:13*
%MOMM*%
%LPD*%
G01*
G04 APERTURE LIST*
%TA.AperFunction,ComponentPad*%
%ADD10C,0.700000*%
%TD*%
%TA.AperFunction,ComponentPad*%
%ADD11C,4.400000*%
%TD*%
%TA.AperFunction,HeatsinkPad*%
%ADD12C,0.600000*%
%TD*%
%TA.AperFunction,ComponentPad*%
%ADD13O,1.000000X1.800000*%
%TD*%
%TA.AperFunction,ComponentPad*%
%ADD14O,1.000000X2.100000*%
%TD*%
%TA.AperFunction,ViaPad*%
%ADD15C,0.500000*%
%TD*%
%TA.AperFunction,ViaPad*%
%ADD16C,0.450000*%
%TD*%
G04 APERTURE END LIST*
D10*
%TO.N,GND*%
%TO.C,H2*%
X43850000Y-6500000D03*
X44333274Y-5333274D03*
X44333274Y-7666726D03*
X45500000Y-4850000D03*
D11*
X45500000Y-6500000D03*
D10*
X45500000Y-8150000D03*
X46666726Y-5333274D03*
X46666726Y-7666726D03*
X47150000Y-6500000D03*
%TD*%
%TO.N,GND*%
%TO.C,H4*%
X43850000Y-85900000D03*
X44333274Y-84733274D03*
X44333274Y-87066726D03*
X45500000Y-84250000D03*
D11*
X45500000Y-85900000D03*
D10*
X45500000Y-87550000D03*
X46666726Y-84733274D03*
X46666726Y-87066726D03*
X47150000Y-85900000D03*
%TD*%
%TO.N,GND*%
%TO.C,H1*%
X4850000Y-6500000D03*
X5333274Y-5333274D03*
X5333274Y-7666726D03*
X6500000Y-4850000D03*
D11*
X6500000Y-6500000D03*
D10*
X6500000Y-8150000D03*
X7666726Y-5333274D03*
X7666726Y-7666726D03*
X8150000Y-6500000D03*
%TD*%
%TO.N,GND*%
%TO.C,H3*%
X4850000Y-85900000D03*
X5333274Y-84733274D03*
X5333274Y-87066726D03*
X6500000Y-84250000D03*
D11*
X6500000Y-85900000D03*
D10*
X6500000Y-87550000D03*
X7666726Y-84733274D03*
X7666726Y-87066726D03*
X8150000Y-85900000D03*
%TD*%
D12*
%TO.N,GND*%
%TO.C,U1*%
X33090000Y-23900000D03*
X34490000Y-23900000D03*
X32390000Y-23200000D03*
X33790000Y-23200000D03*
X35190000Y-23200000D03*
X33090000Y-22500000D03*
X34490000Y-22500000D03*
X32390000Y-21800000D03*
X33790000Y-21800000D03*
X35190000Y-21800000D03*
X33090000Y-21100000D03*
X34490000Y-21100000D03*
%TD*%
D13*
%TO.N,GND*%
%TO.C,J1*%
X30320000Y-87675000D03*
D14*
X30320000Y-83495000D03*
D13*
X21680000Y-87675000D03*
D14*
X21680000Y-83495000D03*
%TD*%
D15*
%TO.N,GND*%
X26849999Y-46850000D03*
X27000000Y-87000000D03*
X19500000Y-72000000D03*
X32000000Y-57000000D03*
X42000000Y-84500000D03*
X12000000Y-37000000D03*
X41280000Y-13309999D03*
X36000000Y-38770000D03*
X23218198Y-46381801D03*
X22250000Y-45750000D03*
X39431801Y-10518198D03*
X45600000Y-50325000D03*
X47000000Y-62000000D03*
X32000000Y-67000000D03*
X14450000Y-79250000D03*
X12000000Y-42000000D03*
X39500000Y-64500000D03*
X17000000Y-79500000D03*
X42000000Y-47000000D03*
X35250000Y-47950000D03*
X19500000Y-64500000D03*
X19500000Y-62000000D03*
X40700000Y-82550000D03*
X4500000Y-12000000D03*
X9300000Y-78750000D03*
X4500000Y-79500000D03*
X39958198Y-86418198D03*
X4500000Y-77000000D03*
X32000000Y-59500000D03*
X9500000Y-67000000D03*
X32000000Y-54500000D03*
X37000000Y-4500000D03*
X22000000Y-54500000D03*
X37000000Y-39500000D03*
X29200000Y-81895000D03*
X12000000Y-19500000D03*
X42000000Y-7000000D03*
X42000000Y-32000000D03*
X27000000Y-74500000D03*
X29500000Y-59500000D03*
X5000000Y-34000000D03*
X47000000Y-42000000D03*
X31400000Y-38770000D03*
X29500000Y-14500000D03*
X32000000Y-7000000D03*
X39500000Y-54500000D03*
X27000000Y-72000000D03*
X32000000Y-49500000D03*
X20600000Y-42190000D03*
X22000000Y-19500000D03*
X44500000Y-64500000D03*
X8400000Y-37500000D03*
X34500000Y-87000000D03*
X26750000Y-45750000D03*
X44300000Y-34000000D03*
X13000000Y-50100000D03*
X44500000Y-9500000D03*
X22360000Y-16920000D03*
X39500000Y-57000000D03*
X14950000Y-32000000D03*
X29500000Y-54500000D03*
X47000000Y-9500000D03*
X47000000Y-67000000D03*
X12000000Y-39500000D03*
X29500000Y-62000000D03*
X7631801Y-16531801D03*
X29500000Y-72000000D03*
X39500000Y-4500000D03*
X42000000Y-64500000D03*
X39500000Y-62000000D03*
X9500000Y-62000000D03*
X7000000Y-19500000D03*
X28250000Y-79800000D03*
X22000000Y-49500000D03*
X11924999Y-29400000D03*
X39500000Y-59500000D03*
X12000000Y-44500000D03*
X42000000Y-59500000D03*
X29818198Y-82301801D03*
X24500000Y-49500000D03*
X42000000Y-52000000D03*
X46568198Y-47169301D03*
X19800000Y-78925000D03*
X4500000Y-72000000D03*
X25250000Y-45750000D03*
X29218198Y-46381801D03*
X27000000Y-49500000D03*
X12000000Y-47000000D03*
X15480000Y-15989999D03*
X42000000Y-72000000D03*
X29500000Y-19500000D03*
X44500000Y-39500000D03*
X47000000Y-82000000D03*
X41510000Y-11050000D03*
X32000000Y-72000000D03*
X7581801Y-34068198D03*
X27000000Y-67000000D03*
X17000000Y-87000000D03*
X32000000Y-52000000D03*
X20368198Y-14668198D03*
X42000000Y-62000000D03*
X10400000Y-38190000D03*
X19500000Y-22000000D03*
X38671801Y-80981801D03*
X24500000Y-52000000D03*
X22181801Y-82301801D03*
X27000000Y-57000000D03*
X44500000Y-57000000D03*
X4500000Y-52000000D03*
X48368198Y-36618198D03*
X14950000Y-34000000D03*
X18230000Y-39678700D03*
X14500000Y-19500000D03*
X34500000Y-4500000D03*
X46100000Y-49775000D03*
X29500000Y-74500000D03*
X28250000Y-45750000D03*
X9500000Y-87000000D03*
X14500000Y-22000000D03*
X9500000Y-42000000D03*
X37555698Y-73031801D03*
X47000000Y-39500000D03*
X15478198Y-80981801D03*
X12000000Y-87000000D03*
X7000000Y-82000000D03*
X19500000Y-57000000D03*
X14500000Y-4500000D03*
X22800000Y-81895000D03*
X17000000Y-77000000D03*
X29500000Y-64500000D03*
X22000000Y-59500000D03*
X5200000Y-29500000D03*
X9500000Y-52000000D03*
X22000000Y-64500000D03*
X31250000Y-45750000D03*
X22360000Y-28120000D03*
X27000000Y-64500000D03*
X43400000Y-42570000D03*
X44500000Y-62000000D03*
X27849999Y-81625000D03*
X4500000Y-57000000D03*
X9500000Y-49500000D03*
X34500000Y-7000000D03*
X17000000Y-82000000D03*
X19500000Y-24500000D03*
X24950000Y-7150000D03*
X17000000Y-74500000D03*
X7000000Y-29500000D03*
X27000000Y-69500000D03*
X21600000Y-11850000D03*
X47000000Y-69500000D03*
X47000000Y-64500000D03*
X39500000Y-67000000D03*
X4500000Y-47000000D03*
X22000000Y-62000000D03*
X19500000Y-69500000D03*
X47000000Y-54500000D03*
X41510000Y-30950000D03*
X9500000Y-37000000D03*
X30250000Y-47950000D03*
X42000000Y-57000000D03*
X19500000Y-19500000D03*
X18600000Y-41724999D03*
X12775000Y-15975000D03*
X47268198Y-79818198D03*
X48368198Y-31381801D03*
X19500000Y-67000000D03*
X3631801Y-36618198D03*
X32200000Y-82970000D03*
X4500000Y-9500000D03*
X31521801Y-24768198D03*
X17000000Y-42000000D03*
X17468198Y-17681801D03*
X4500000Y-54500000D03*
X17018198Y-27468198D03*
X32000000Y-64500000D03*
X44500000Y-82000000D03*
X7000000Y-24500000D03*
X37000000Y-7000000D03*
X39000000Y-50100000D03*
X12665000Y-79000000D03*
X47000000Y-72000000D03*
X44500000Y-72000000D03*
X44500000Y-74500000D03*
X4500000Y-42000000D03*
X44500000Y-54500000D03*
X39500000Y-72000000D03*
X14950000Y-33000000D03*
X7000000Y-22000000D03*
X19500000Y-52000000D03*
X47000000Y-74500000D03*
X29750000Y-45750000D03*
X7800000Y-73725000D03*
X11743198Y-28568198D03*
X42000000Y-87000000D03*
X22000000Y-69500000D03*
X44500000Y-67000000D03*
X19800000Y-82970000D03*
X29450000Y-7150000D03*
X29849999Y-46850000D03*
X28349999Y-46850000D03*
X44631801Y-47169301D03*
X27718198Y-46381801D03*
X37600000Y-80125000D03*
X27718198Y-86418198D03*
X42000000Y-69500000D03*
X9500000Y-44500000D03*
X22000000Y-67000000D03*
X39631801Y-73581801D03*
X44390000Y-51400000D03*
X39500000Y-69500000D03*
X15720000Y-30160000D03*
X34730000Y-35478700D03*
X9500000Y-22000000D03*
X14500000Y-87000000D03*
X32799999Y-38790000D03*
X7000000Y-79500000D03*
X17000000Y-4500000D03*
X36849999Y-78400000D03*
X29500000Y-57000000D03*
X29500000Y-49500000D03*
X11850000Y-76700000D03*
X44500000Y-69500000D03*
X42000000Y-4500000D03*
X12000000Y-4500000D03*
X19500000Y-17000000D03*
X27000000Y-59500000D03*
X9500000Y-57000000D03*
X22000000Y-74500000D03*
X19500000Y-59500000D03*
X18349999Y-11800000D03*
X9531801Y-4531801D03*
X4500000Y-67000000D03*
X27000000Y-54500000D03*
X47000000Y-57000000D03*
X19500000Y-77000000D03*
X24500000Y-4500000D03*
X24150000Y-46850000D03*
X47000000Y-44500000D03*
X15650000Y-46850000D03*
X47000000Y-59500000D03*
X22000000Y-57000000D03*
X9500000Y-54500000D03*
X4500000Y-49500000D03*
X12000000Y-24500000D03*
X27000000Y-62000000D03*
X9500000Y-69500000D03*
X27000000Y-52000000D03*
X32000000Y-74500000D03*
X15478198Y-86418198D03*
X39500000Y-84500000D03*
X33370000Y-81200000D03*
X22650000Y-46850000D03*
X4500000Y-69500000D03*
X14600000Y-74770000D03*
X32000000Y-82000000D03*
X29500000Y-69500000D03*
X32000000Y-69500000D03*
X32000000Y-62000000D03*
X9500000Y-72000000D03*
X9600000Y-74190000D03*
X9500000Y-24500000D03*
X26218198Y-46381801D03*
X42000000Y-54500000D03*
X39500000Y-47000000D03*
X29500000Y-67000000D03*
X9500000Y-59500000D03*
X24718198Y-46381801D03*
X42000000Y-79500000D03*
X4500000Y-74500000D03*
X22000000Y-72000000D03*
X31400000Y-76725000D03*
X46830698Y-49118198D03*
X42000000Y-67000000D03*
X39500000Y-52000000D03*
X4500000Y-64500000D03*
X19500000Y-54500000D03*
X42000000Y-49500000D03*
X9500000Y-47000000D03*
X3631801Y-31381801D03*
X27000000Y-44500000D03*
X9500000Y-64500000D03*
X4500000Y-39500000D03*
X29500000Y-4500000D03*
X7000000Y-9500000D03*
X4500000Y-62000000D03*
X4500000Y-82000000D03*
X23750000Y-45750000D03*
X27000000Y-7000000D03*
X38644301Y-45368198D03*
X44500000Y-59500000D03*
X29500000Y-52000000D03*
X13899999Y-78750000D03*
%TO.N,+3V3*%
X30600000Y-37230000D03*
X7581801Y-36368198D03*
X35901801Y-13988198D03*
X17410000Y-29400000D03*
X21600000Y-18610000D03*
X22370000Y-26910000D03*
X14520000Y-15989999D03*
X39431801Y-8281801D03*
X46974999Y-48150000D03*
X18600000Y-45074999D03*
X19750000Y-47950000D03*
X17950000Y-19000000D03*
X20781801Y-16368198D03*
X10400000Y-40610000D03*
X38101801Y-14488198D03*
X40240000Y-30950000D03*
X8850000Y-10700000D03*
X44384314Y-49878185D03*
X8400000Y-41300000D03*
X15143198Y-28631801D03*
X11225000Y-15975000D03*
X25000000Y-37230000D03*
X32250000Y-45750000D03*
X9481801Y-12518198D03*
X20600000Y-44610000D03*
X19250000Y-45750000D03*
X27800000Y-37230000D03*
X46810000Y-51400000D03*
X40320000Y-10890000D03*
X37981898Y-35346898D03*
X8850000Y-12900000D03*
X29200000Y-37230000D03*
X44369301Y-49118198D03*
X26400000Y-37230000D03*
X31750000Y-47950000D03*
X21481898Y-39546898D03*
%TO.N,KEY_C*%
X17179700Y-48350200D03*
%TO.N,KEY_R*%
X28500000Y-26790000D03*
X37082500Y-24677800D03*
X37252100Y-31573800D03*
X28500000Y-36899800D03*
%TO.N,BTN_PWR*%
X17472000Y-44675500D03*
X15701500Y-36527000D03*
%TO.N,BTN_MENU*%
X31432600Y-34889500D03*
X32045800Y-36695000D03*
X31432600Y-31751200D03*
%TO.N,I2S_BCLK*%
X22139200Y-40977500D03*
X29548600Y-32830400D03*
%TO.N,I2S_DIN*%
X23559200Y-41245700D03*
X23501900Y-34853000D03*
%TO.N,I2C_SCL*%
X40875000Y-28161600D03*
D16*
X43587500Y-48150000D03*
D15*
%TO.N,I2C_SDA*%
X38099300Y-27818800D03*
D16*
X45600000Y-46387500D03*
D15*
%TO.N,USB_DN*%
X26000000Y-77808500D03*
X26000000Y-50714600D03*
X26913200Y-43064500D03*
X26913200Y-31194500D03*
%TO.N,USB_DP*%
X23910300Y-77808500D03*
X17803300Y-30151400D03*
%TO.N,AMP_EN*%
X24498100Y-42762900D03*
X25436600Y-28169300D03*
%TO.N,LCD_DC*%
X22310300Y-25517000D03*
%TO.N,LCD_CS*%
X20106400Y-26509900D03*
%TO.N,LCD_MOSI*%
X19597800Y-25997500D03*
%TO.N,LCD_SCK*%
X20811400Y-23992400D03*
%TO.N,LCD_TE*%
X30418100Y-24356700D03*
%TO.N,LCD_RST*%
X29915100Y-23466200D03*
%TO.N,LCD_BL*%
X36747700Y-21182300D03*
%TO.N,BLE_RST*%
X23625000Y-30752900D03*
X25653300Y-17319300D03*
%TO.N,GPS_EXTINT*%
X12800000Y-13813600D03*
%TO.N,KEY_L*%
X25727400Y-37088600D03*
X26294100Y-40127700D03*
X26349100Y-15970100D03*
X14521500Y-54268800D03*
%TO.N,GPS_TX*%
X11810300Y-7856200D03*
%TO.N,GPS_RX*%
X12587400Y-10522500D03*
%TO.N,GPS_RST*%
X15022600Y-10238000D03*
%TO.N,CON_RX*%
X37573800Y-21999700D03*
X38122000Y-30930700D03*
%TO.N,CON_TX*%
X39663100Y-31897500D03*
X38485000Y-15479200D03*
%TO.N,VBUS_SENSE*%
X37615100Y-37028900D03*
X38623900Y-19669800D03*
%TO.N,VBAT_SENSE*%
X35268200Y-37916600D03*
X35268200Y-26790000D03*
%TO.N,BLE_SWDIO*%
X10444900Y-31214800D03*
X11240900Y-30591100D03*
%TO.N,CHG_STAT*%
X32184800Y-41017500D03*
X36819700Y-76743300D03*
X36819700Y-51609300D03*
%TO.N,VBUS*%
X34777000Y-41225400D03*
X34458300Y-75988200D03*
X37871100Y-44544000D03*
%TO.N,LED_K1*%
X32750000Y-47922300D03*
X30793000Y-44949800D03*
%TO.N,VBAT*%
X8782700Y-76175000D03*
D16*
X34750000Y-45600000D03*
D15*
X11179700Y-81645600D03*
%TO.N,USB_DP_C*%
X26050500Y-79897600D03*
X25620100Y-84048400D03*
%TO.N,CC2*%
X24225000Y-83905800D03*
X26513200Y-84759600D03*
%TD*%
%TA.AperFunction,Conductor*%
%TO.N,GND*%
G36*
X45002421Y-3300619D02*
G01*
X45032909Y-3302116D01*
X45357776Y-3318076D01*
X45367418Y-3319026D01*
X45716933Y-3370872D01*
X45726439Y-3372762D01*
X46069201Y-3458620D01*
X46078472Y-3461432D01*
X46411161Y-3580470D01*
X46420130Y-3584185D01*
X46739551Y-3735259D01*
X46748093Y-3739826D01*
X47051156Y-3921475D01*
X47059234Y-3926873D01*
X47343035Y-4137355D01*
X47350545Y-4143518D01*
X47508529Y-4286705D01*
X47612343Y-4380796D01*
X47619208Y-4387661D01*
X47856481Y-4649454D01*
X47862644Y-4656964D01*
X48073126Y-4940765D01*
X48078524Y-4948843D01*
X48260166Y-5251893D01*
X48264743Y-5260456D01*
X48327858Y-5393902D01*
X48415812Y-5579866D01*
X48419530Y-5588842D01*
X48538563Y-5921514D01*
X48541383Y-5930811D01*
X48627234Y-6273549D01*
X48629129Y-6283078D01*
X48680971Y-6632567D01*
X48681924Y-6642235D01*
X48699381Y-6997577D01*
X48699500Y-7002435D01*
X48699500Y-10401000D01*
X48680593Y-10459191D01*
X48631093Y-10495155D01*
X48600500Y-10500000D01*
X42300000Y-10500000D01*
X42300000Y-31000000D01*
X48600500Y-31000000D01*
X48658691Y-31018907D01*
X48694655Y-31068407D01*
X48699500Y-31099000D01*
X48699500Y-85397564D01*
X48699381Y-85402422D01*
X48681924Y-85757764D01*
X48680971Y-85767432D01*
X48629129Y-86116921D01*
X48627234Y-86126450D01*
X48541383Y-86469188D01*
X48538563Y-86478485D01*
X48419530Y-86811157D01*
X48415812Y-86820133D01*
X48264746Y-87139538D01*
X48260166Y-87148106D01*
X48078524Y-87451156D01*
X48073126Y-87459234D01*
X47862644Y-87743035D01*
X47856481Y-87750545D01*
X47619208Y-88012338D01*
X47612338Y-88019208D01*
X47350545Y-88256481D01*
X47343035Y-88262644D01*
X47059234Y-88473126D01*
X47051156Y-88478524D01*
X46748106Y-88660166D01*
X46739538Y-88664746D01*
X46420133Y-88815812D01*
X46411157Y-88819530D01*
X46078485Y-88938563D01*
X46069188Y-88941383D01*
X45726450Y-89027234D01*
X45716921Y-89029129D01*
X45367432Y-89080971D01*
X45357764Y-89081924D01*
X45002422Y-89099381D01*
X44997564Y-89099500D01*
X7002436Y-89099500D01*
X6997578Y-89099381D01*
X6642235Y-89081924D01*
X6632567Y-89080971D01*
X6283078Y-89029129D01*
X6273549Y-89027234D01*
X5930811Y-88941383D01*
X5921514Y-88938563D01*
X5588842Y-88819530D01*
X5579866Y-88815812D01*
X5360488Y-88712055D01*
X5260456Y-88664743D01*
X5251899Y-88660169D01*
X5100368Y-88569345D01*
X4948843Y-88478524D01*
X4940765Y-88473126D01*
X4656964Y-88262644D01*
X4649454Y-88256481D01*
X4387661Y-88019208D01*
X4380796Y-88012343D01*
X4218218Y-87832965D01*
X4143518Y-87750545D01*
X4137355Y-87743035D01*
X3926873Y-87459234D01*
X3921475Y-87451156D01*
X3739826Y-87148093D01*
X3735259Y-87139551D01*
X3584185Y-86820130D01*
X3580469Y-86811157D01*
X3565071Y-86768122D01*
X3461432Y-86478472D01*
X3458620Y-86469201D01*
X3372762Y-86126439D01*
X3370872Y-86116933D01*
X3319026Y-85767418D01*
X3318076Y-85757776D01*
X3300619Y-85402421D01*
X3300500Y-85397564D01*
X3300500Y-84759602D01*
X26058067Y-84759602D01*
X26076502Y-84887825D01*
X26130317Y-85005661D01*
X26130318Y-85005663D01*
X26215151Y-85103567D01*
X26215152Y-85103568D01*
X26324126Y-85173601D01*
X26324131Y-85173604D01*
X26448428Y-85210100D01*
X26448430Y-85210100D01*
X26577970Y-85210100D01*
X26577972Y-85210100D01*
X26702269Y-85173604D01*
X26811249Y-85103567D01*
X26896082Y-85005663D01*
X26949897Y-84887826D01*
X26968333Y-84759600D01*
X26949897Y-84631374D01*
X26896082Y-84513537D01*
X26811249Y-84415633D01*
X26811248Y-84415632D01*
X26811247Y-84415631D01*
X26702273Y-84345598D01*
X26702270Y-84345596D01*
X26702269Y-84345596D01*
X26702266Y-84345595D01*
X26577974Y-84309100D01*
X26577972Y-84309100D01*
X26448428Y-84309100D01*
X26448425Y-84309100D01*
X26324133Y-84345595D01*
X26324126Y-84345598D01*
X26215152Y-84415631D01*
X26130317Y-84513538D01*
X26076502Y-84631374D01*
X26058067Y-84759597D01*
X26058067Y-84759602D01*
X3300500Y-84759602D01*
X3300500Y-84031199D01*
X22580796Y-84031199D01*
X22610184Y-84172628D01*
X22610186Y-84172636D01*
X22673312Y-84294461D01*
X22676646Y-84300895D01*
X22775245Y-84406469D01*
X22898672Y-84481526D01*
X23037772Y-84520500D01*
X23037773Y-84520500D01*
X23145943Y-84520500D01*
X23145949Y-84520500D01*
X23253111Y-84505771D01*
X23385609Y-84448219D01*
X23497665Y-84357054D01*
X23580971Y-84239037D01*
X23629346Y-84102921D01*
X23629346Y-84102920D01*
X23630852Y-84098683D01*
X23668154Y-84050184D01*
X23726840Y-84032873D01*
X23784492Y-84053362D01*
X23814189Y-84090709D01*
X23842117Y-84151861D01*
X23842118Y-84151863D01*
X23917654Y-84239037D01*
X23926952Y-84249768D01*
X24006503Y-84300892D01*
X24035931Y-84319804D01*
X24160228Y-84356300D01*
X24160230Y-84356300D01*
X24289770Y-84356300D01*
X24289772Y-84356300D01*
X24414069Y-84319804D01*
X24523049Y-84249767D01*
X24607882Y-84151863D01*
X24655132Y-84048402D01*
X25164967Y-84048402D01*
X25183402Y-84176625D01*
X25211905Y-84239037D01*
X25237218Y-84294463D01*
X25291453Y-84357054D01*
X25322052Y-84392368D01*
X25431026Y-84462401D01*
X25431031Y-84462404D01*
X25555328Y-84498900D01*
X25555330Y-84498900D01*
X25684870Y-84498900D01*
X25684872Y-84498900D01*
X25809169Y-84462404D01*
X25918149Y-84392367D01*
X26002982Y-84294463D01*
X26056797Y-84176626D01*
X26067394Y-84102921D01*
X26075233Y-84048402D01*
X26075233Y-84048397D01*
X26072760Y-84031199D01*
X28360796Y-84031199D01*
X28390184Y-84172628D01*
X28390186Y-84172636D01*
X28453312Y-84294461D01*
X28456646Y-84300895D01*
X28555245Y-84406469D01*
X28678672Y-84481526D01*
X28817772Y-84520500D01*
X28817773Y-84520500D01*
X28925943Y-84520500D01*
X28925949Y-84520500D01*
X29033111Y-84505771D01*
X29165609Y-84448219D01*
X29277665Y-84357054D01*
X29360971Y-84239037D01*
X29409346Y-84102921D01*
X29419204Y-83958801D01*
X29411177Y-83920174D01*
X29389815Y-83817371D01*
X29389813Y-83817363D01*
X29323355Y-83689107D01*
X29323353Y-83689104D01*
X29272259Y-83634395D01*
X29224755Y-83583531D01*
X29224754Y-83583530D01*
X29101328Y-83508474D01*
X28962228Y-83469500D01*
X28854051Y-83469500D01*
X28746888Y-83484228D01*
X28614389Y-83541781D01*
X28502334Y-83632945D01*
X28419029Y-83750962D01*
X28370653Y-83887078D01*
X28360796Y-84031199D01*
X26072760Y-84031199D01*
X26056797Y-83920174D01*
X26050233Y-83905802D01*
X26002982Y-83802337D01*
X25918149Y-83704433D01*
X25918148Y-83704432D01*
X25918147Y-83704431D01*
X25809173Y-83634398D01*
X25809170Y-83634396D01*
X25809169Y-83634396D01*
X25804231Y-83632946D01*
X25684874Y-83597900D01*
X25684872Y-83597900D01*
X25555328Y-83597900D01*
X25555325Y-83597900D01*
X25431033Y-83634395D01*
X25431026Y-83634398D01*
X25322052Y-83704431D01*
X25237217Y-83802338D01*
X25183402Y-83920174D01*
X25164967Y-84048397D01*
X25164967Y-84048402D01*
X24655132Y-84048402D01*
X24661697Y-84034026D01*
X24672513Y-83958799D01*
X24680133Y-83905802D01*
X24680133Y-83905797D01*
X24661697Y-83777574D01*
X24649544Y-83750963D01*
X24607882Y-83659737D01*
X24523049Y-83561833D01*
X24523048Y-83561832D01*
X24523047Y-83561831D01*
X24414073Y-83491798D01*
X24414070Y-83491796D01*
X24414069Y-83491796D01*
X24388298Y-83484229D01*
X24289774Y-83455300D01*
X24289772Y-83455300D01*
X24160228Y-83455300D01*
X24160225Y-83455300D01*
X24035933Y-83491795D01*
X24035926Y-83491798D01*
X23926952Y-83561831D01*
X23842117Y-83659738D01*
X23788301Y-83777575D01*
X23786307Y-83784369D01*
X23783717Y-83783608D01*
X23761960Y-83827836D01*
X23707839Y-83856377D01*
X23647279Y-83847655D01*
X23603410Y-83805003D01*
X23603185Y-83804573D01*
X23543354Y-83689105D01*
X23444755Y-83583531D01*
X23444754Y-83583530D01*
X23321328Y-83508474D01*
X23182228Y-83469500D01*
X23074051Y-83469500D01*
X22966888Y-83484228D01*
X22834389Y-83541781D01*
X22722334Y-83632945D01*
X22639029Y-83750962D01*
X22590653Y-83887078D01*
X22580796Y-84031199D01*
X3300500Y-84031199D01*
X3300500Y-81645602D01*
X10724567Y-81645602D01*
X10743002Y-81773825D01*
X10796817Y-81891661D01*
X10796818Y-81891663D01*
X10881651Y-81989567D01*
X10881652Y-81989568D01*
X10990626Y-82059601D01*
X10990631Y-82059604D01*
X11114928Y-82096100D01*
X11114930Y-82096100D01*
X11244470Y-82096100D01*
X11244472Y-82096100D01*
X11368769Y-82059604D01*
X11477749Y-81989567D01*
X11562582Y-81891663D01*
X11616397Y-81773826D01*
X11634833Y-81645600D01*
X11616397Y-81517374D01*
X11562582Y-81399537D01*
X11477749Y-81301633D01*
X11477748Y-81301632D01*
X11477747Y-81301631D01*
X11368773Y-81231598D01*
X11368770Y-81231596D01*
X11368769Y-81231596D01*
X11368766Y-81231595D01*
X11244474Y-81195100D01*
X11244472Y-81195100D01*
X11114928Y-81195100D01*
X11114925Y-81195100D01*
X10990633Y-81231595D01*
X10990626Y-81231598D01*
X10881652Y-81301631D01*
X10796817Y-81399538D01*
X10743002Y-81517374D01*
X10724567Y-81645597D01*
X10724567Y-81645602D01*
X3300500Y-81645602D01*
X3300500Y-79897602D01*
X25595367Y-79897602D01*
X25613802Y-80025825D01*
X25667617Y-80143661D01*
X25667618Y-80143663D01*
X25752451Y-80241567D01*
X25752452Y-80241568D01*
X25861426Y-80311601D01*
X25861431Y-80311604D01*
X25985728Y-80348100D01*
X25985730Y-80348100D01*
X26115270Y-80348100D01*
X26115272Y-80348100D01*
X26239569Y-80311604D01*
X26348549Y-80241567D01*
X26433382Y-80143663D01*
X26487197Y-80025826D01*
X26505633Y-79897600D01*
X26487197Y-79769374D01*
X26433382Y-79651537D01*
X26348549Y-79553633D01*
X26348548Y-79553632D01*
X26348547Y-79553631D01*
X26239573Y-79483598D01*
X26239570Y-79483596D01*
X26239569Y-79483596D01*
X26239566Y-79483595D01*
X26115274Y-79447100D01*
X26115272Y-79447100D01*
X25985728Y-79447100D01*
X25985725Y-79447100D01*
X25861433Y-79483595D01*
X25861426Y-79483598D01*
X25752452Y-79553631D01*
X25667617Y-79651538D01*
X25613802Y-79769374D01*
X25595367Y-79897597D01*
X25595367Y-79897602D01*
X3300500Y-79897602D01*
X3300500Y-77808502D01*
X23455167Y-77808502D01*
X23473602Y-77936725D01*
X23527417Y-78054561D01*
X23527418Y-78054563D01*
X23612251Y-78152467D01*
X23612252Y-78152468D01*
X23721226Y-78222501D01*
X23721231Y-78222504D01*
X23845528Y-78259000D01*
X23845530Y-78259000D01*
X23975070Y-78259000D01*
X23975072Y-78259000D01*
X24099369Y-78222504D01*
X24208349Y-78152467D01*
X24293182Y-78054563D01*
X24346997Y-77936726D01*
X24365433Y-77808502D01*
X25544867Y-77808502D01*
X25563302Y-77936725D01*
X25617117Y-78054561D01*
X25617118Y-78054563D01*
X25701951Y-78152467D01*
X25701952Y-78152468D01*
X25810926Y-78222501D01*
X25810931Y-78222504D01*
X25935228Y-78259000D01*
X25935230Y-78259000D01*
X26064770Y-78259000D01*
X26064772Y-78259000D01*
X26189069Y-78222504D01*
X26298049Y-78152467D01*
X26382882Y-78054563D01*
X26436697Y-77936726D01*
X26455133Y-77808500D01*
X26436697Y-77680274D01*
X26382882Y-77562437D01*
X26298049Y-77464533D01*
X26298048Y-77464532D01*
X26298047Y-77464531D01*
X26189073Y-77394498D01*
X26189070Y-77394496D01*
X26189069Y-77394496D01*
X26189066Y-77394495D01*
X26064774Y-77358000D01*
X26064772Y-77358000D01*
X25935228Y-77358000D01*
X25935225Y-77358000D01*
X25810933Y-77394495D01*
X25810926Y-77394498D01*
X25701952Y-77464531D01*
X25617117Y-77562438D01*
X25563302Y-77680274D01*
X25544867Y-77808497D01*
X25544867Y-77808502D01*
X24365433Y-77808502D01*
X24365433Y-77808500D01*
X24346997Y-77680274D01*
X24293182Y-77562437D01*
X24208349Y-77464533D01*
X24208348Y-77464532D01*
X24208347Y-77464531D01*
X24099373Y-77394498D01*
X24099370Y-77394496D01*
X24099369Y-77394496D01*
X24099366Y-77394495D01*
X23975074Y-77358000D01*
X23975072Y-77358000D01*
X23845528Y-77358000D01*
X23845525Y-77358000D01*
X23721233Y-77394495D01*
X23721226Y-77394498D01*
X23612252Y-77464531D01*
X23527417Y-77562438D01*
X23473602Y-77680274D01*
X23455167Y-77808497D01*
X23455167Y-77808502D01*
X3300500Y-77808502D01*
X3300500Y-76743302D01*
X36364567Y-76743302D01*
X36383002Y-76871525D01*
X36436817Y-76989361D01*
X36436818Y-76989363D01*
X36521651Y-77087267D01*
X36521652Y-77087268D01*
X36630626Y-77157301D01*
X36630631Y-77157304D01*
X36754928Y-77193800D01*
X36754930Y-77193800D01*
X36884470Y-77193800D01*
X36884472Y-77193800D01*
X37008769Y-77157304D01*
X37117749Y-77087267D01*
X37202582Y-76989363D01*
X37256397Y-76871526D01*
X37274833Y-76743300D01*
X37256397Y-76615074D01*
X37202582Y-76497237D01*
X37117749Y-76399333D01*
X37117748Y-76399332D01*
X37117747Y-76399331D01*
X37008773Y-76329298D01*
X37008770Y-76329296D01*
X37008769Y-76329296D01*
X37008766Y-76329295D01*
X36884474Y-76292800D01*
X36884472Y-76292800D01*
X36754928Y-76292800D01*
X36754925Y-76292800D01*
X36630633Y-76329295D01*
X36630626Y-76329298D01*
X36521652Y-76399331D01*
X36436817Y-76497238D01*
X36383002Y-76615074D01*
X36364567Y-76743297D01*
X36364567Y-76743302D01*
X3300500Y-76743302D01*
X3300500Y-76175002D01*
X8327567Y-76175002D01*
X8346002Y-76303225D01*
X8389893Y-76399331D01*
X8399818Y-76421063D01*
X8465822Y-76497237D01*
X8484652Y-76518968D01*
X8593626Y-76589001D01*
X8593631Y-76589004D01*
X8717928Y-76625500D01*
X8717930Y-76625500D01*
X8847470Y-76625500D01*
X8847472Y-76625500D01*
X8971769Y-76589004D01*
X9080749Y-76518967D01*
X9165582Y-76421063D01*
X9219397Y-76303226D01*
X9237833Y-76175000D01*
X9229411Y-76116426D01*
X9219397Y-76046774D01*
X9192648Y-75988202D01*
X34003167Y-75988202D01*
X34021602Y-76116425D01*
X34048353Y-76175000D01*
X34075418Y-76234263D01*
X34157763Y-76329296D01*
X34160252Y-76332168D01*
X34269226Y-76402201D01*
X34269231Y-76402204D01*
X34393528Y-76438700D01*
X34393530Y-76438700D01*
X34523070Y-76438700D01*
X34523072Y-76438700D01*
X34647369Y-76402204D01*
X34756349Y-76332167D01*
X34841182Y-76234263D01*
X34894997Y-76116426D01*
X34913433Y-75988200D01*
X34904912Y-75928938D01*
X34894997Y-75859974D01*
X34881779Y-75831031D01*
X34841182Y-75742137D01*
X34756349Y-75644233D01*
X34756348Y-75644232D01*
X34756347Y-75644231D01*
X34647373Y-75574198D01*
X34647370Y-75574196D01*
X34647369Y-75574196D01*
X34647366Y-75574195D01*
X34523074Y-75537700D01*
X34523072Y-75537700D01*
X34393528Y-75537700D01*
X34393525Y-75537700D01*
X34269233Y-75574195D01*
X34269226Y-75574198D01*
X34160252Y-75644231D01*
X34075417Y-75742138D01*
X34021602Y-75859974D01*
X34003167Y-75988197D01*
X34003167Y-75988202D01*
X9192648Y-75988202D01*
X9165582Y-75928938D01*
X9165582Y-75928937D01*
X9080749Y-75831033D01*
X9080748Y-75831032D01*
X9080747Y-75831031D01*
X8971773Y-75760998D01*
X8971770Y-75760996D01*
X8971769Y-75760996D01*
X8971766Y-75760995D01*
X8847474Y-75724500D01*
X8847472Y-75724500D01*
X8717928Y-75724500D01*
X8717925Y-75724500D01*
X8593633Y-75760995D01*
X8593626Y-75760998D01*
X8484652Y-75831031D01*
X8399817Y-75928938D01*
X8346002Y-76046774D01*
X8327567Y-76174997D01*
X8327567Y-76175002D01*
X3300500Y-76175002D01*
X3300500Y-54268802D01*
X14066367Y-54268802D01*
X14084802Y-54397025D01*
X14138617Y-54514861D01*
X14138618Y-54514863D01*
X14223451Y-54612767D01*
X14223452Y-54612768D01*
X14332426Y-54682801D01*
X14332431Y-54682804D01*
X14456728Y-54719300D01*
X14456730Y-54719300D01*
X14586270Y-54719300D01*
X14586272Y-54719300D01*
X14710569Y-54682804D01*
X14819549Y-54612767D01*
X14904382Y-54514863D01*
X14958197Y-54397026D01*
X14976633Y-54268800D01*
X14958197Y-54140574D01*
X14904382Y-54022737D01*
X14819549Y-53924833D01*
X14819548Y-53924832D01*
X14819547Y-53924831D01*
X14710573Y-53854798D01*
X14710570Y-53854796D01*
X14710569Y-53854796D01*
X14710566Y-53854795D01*
X14586274Y-53818300D01*
X14586272Y-53818300D01*
X14456728Y-53818300D01*
X14456725Y-53818300D01*
X14332433Y-53854795D01*
X14332426Y-53854798D01*
X14223452Y-53924831D01*
X14138617Y-54022738D01*
X14084802Y-54140574D01*
X14066367Y-54268797D01*
X14066367Y-54268802D01*
X3300500Y-54268802D01*
X3300500Y-51609302D01*
X36364567Y-51609302D01*
X36383002Y-51737525D01*
X36417928Y-51814001D01*
X36436818Y-51855363D01*
X36521651Y-51953267D01*
X36521652Y-51953268D01*
X36630626Y-52023301D01*
X36630631Y-52023304D01*
X36754928Y-52059800D01*
X36754930Y-52059800D01*
X36884470Y-52059800D01*
X36884472Y-52059800D01*
X37008769Y-52023304D01*
X37117749Y-51953267D01*
X37202582Y-51855363D01*
X37256397Y-51737526D01*
X37274833Y-51609300D01*
X37263176Y-51528226D01*
X37256397Y-51481074D01*
X37219372Y-51400002D01*
X46354867Y-51400002D01*
X46373302Y-51528225D01*
X46427117Y-51646061D01*
X46427118Y-51646063D01*
X46506369Y-51737525D01*
X46511952Y-51743968D01*
X46620926Y-51814001D01*
X46620931Y-51814004D01*
X46745228Y-51850500D01*
X46745230Y-51850500D01*
X46874770Y-51850500D01*
X46874772Y-51850500D01*
X46999069Y-51814004D01*
X47108049Y-51743967D01*
X47192882Y-51646063D01*
X47246697Y-51528226D01*
X47265133Y-51400000D01*
X47259847Y-51363238D01*
X47246697Y-51271774D01*
X47211770Y-51195296D01*
X47192882Y-51153937D01*
X47108049Y-51056033D01*
X47108048Y-51056032D01*
X47108047Y-51056031D01*
X46999073Y-50985998D01*
X46999070Y-50985996D01*
X46999069Y-50985996D01*
X46999066Y-50985995D01*
X46874774Y-50949500D01*
X46874772Y-50949500D01*
X46745228Y-50949500D01*
X46745225Y-50949500D01*
X46620933Y-50985995D01*
X46620926Y-50985998D01*
X46511952Y-51056031D01*
X46427117Y-51153938D01*
X46373302Y-51271774D01*
X46354867Y-51399997D01*
X46354867Y-51400002D01*
X37219372Y-51400002D01*
X37202582Y-51363238D01*
X37202582Y-51363237D01*
X37117749Y-51265333D01*
X37117748Y-51265332D01*
X37117747Y-51265331D01*
X37008773Y-51195298D01*
X37008770Y-51195296D01*
X37008769Y-51195296D01*
X37008766Y-51195295D01*
X36884474Y-51158800D01*
X36884472Y-51158800D01*
X36754928Y-51158800D01*
X36754925Y-51158800D01*
X36630633Y-51195295D01*
X36630626Y-51195298D01*
X36521652Y-51265331D01*
X36436817Y-51363238D01*
X36383002Y-51481074D01*
X36364567Y-51609297D01*
X36364567Y-51609302D01*
X3300500Y-51609302D01*
X3300500Y-50714602D01*
X25544867Y-50714602D01*
X25563302Y-50842825D01*
X25612020Y-50949500D01*
X25617118Y-50960663D01*
X25639069Y-50985996D01*
X25701952Y-51058568D01*
X25810926Y-51128601D01*
X25810931Y-51128604D01*
X25935228Y-51165100D01*
X25935230Y-51165100D01*
X26064770Y-51165100D01*
X26064772Y-51165100D01*
X26189069Y-51128604D01*
X26298049Y-51058567D01*
X26382882Y-50960663D01*
X26436697Y-50842826D01*
X26455133Y-50714600D01*
X26436697Y-50586374D01*
X26382882Y-50468537D01*
X26298049Y-50370633D01*
X26298048Y-50370632D01*
X26298047Y-50370631D01*
X26189073Y-50300598D01*
X26189070Y-50300596D01*
X26189069Y-50300596D01*
X26160437Y-50292189D01*
X26064774Y-50264100D01*
X26064772Y-50264100D01*
X25935228Y-50264100D01*
X25935225Y-50264100D01*
X25810933Y-50300595D01*
X25810926Y-50300598D01*
X25701952Y-50370631D01*
X25617117Y-50468538D01*
X25563302Y-50586374D01*
X25544867Y-50714597D01*
X25544867Y-50714602D01*
X3300500Y-50714602D01*
X3300500Y-49118200D01*
X43914168Y-49118200D01*
X43932603Y-49246423D01*
X43986418Y-49364259D01*
X43986419Y-49364261D01*
X44053800Y-49442024D01*
X44077617Y-49498383D01*
X44063758Y-49557978D01*
X44053800Y-49571684D01*
X44001432Y-49632121D01*
X43947616Y-49749959D01*
X43929181Y-49878182D01*
X43929181Y-49878187D01*
X43947616Y-50006410D01*
X44001431Y-50124246D01*
X44001432Y-50124248D01*
X44086265Y-50222152D01*
X44086266Y-50222153D01*
X44195240Y-50292186D01*
X44195245Y-50292189D01*
X44319542Y-50328685D01*
X44319544Y-50328685D01*
X44449084Y-50328685D01*
X44449086Y-50328685D01*
X44573383Y-50292189D01*
X44682363Y-50222152D01*
X44767196Y-50124248D01*
X44821011Y-50006411D01*
X44839447Y-49878185D01*
X44821011Y-49749959D01*
X44767196Y-49632122D01*
X44699813Y-49554356D01*
X44675997Y-49497999D01*
X44689856Y-49438404D01*
X44699811Y-49424702D01*
X44752183Y-49364261D01*
X44805998Y-49246424D01*
X44824434Y-49118198D01*
X44805998Y-48989972D01*
X44752183Y-48872135D01*
X44667350Y-48774231D01*
X44667349Y-48774230D01*
X44667348Y-48774229D01*
X44558374Y-48704196D01*
X44558371Y-48704194D01*
X44558370Y-48704194D01*
X44558367Y-48704193D01*
X44434075Y-48667698D01*
X44434073Y-48667698D01*
X44304529Y-48667698D01*
X44304526Y-48667698D01*
X44180234Y-48704193D01*
X44180227Y-48704196D01*
X44071253Y-48774229D01*
X43986418Y-48872136D01*
X43932603Y-48989972D01*
X43914168Y-49118195D01*
X43914168Y-49118200D01*
X3300500Y-49118200D01*
X3300500Y-48350202D01*
X16724567Y-48350202D01*
X16743002Y-48478425D01*
X16789758Y-48580804D01*
X16796818Y-48596263D01*
X16858716Y-48667698D01*
X16881652Y-48694168D01*
X16897253Y-48704194D01*
X16990631Y-48764204D01*
X17114928Y-48800700D01*
X17114930Y-48800700D01*
X17244470Y-48800700D01*
X17244472Y-48800700D01*
X17368769Y-48764204D01*
X17477749Y-48694167D01*
X17562582Y-48596263D01*
X17616397Y-48478426D01*
X17631584Y-48372799D01*
X17634833Y-48350202D01*
X17634833Y-48350197D01*
X17616397Y-48221974D01*
X17583527Y-48150000D01*
X17562582Y-48104137D01*
X17477749Y-48006233D01*
X17477748Y-48006232D01*
X17477747Y-48006231D01*
X17390253Y-47950002D01*
X19294867Y-47950002D01*
X19313302Y-48078225D01*
X19367117Y-48196060D01*
X19367118Y-48196063D01*
X19442558Y-48283127D01*
X19451952Y-48293968D01*
X19560926Y-48364001D01*
X19560931Y-48364004D01*
X19685228Y-48400500D01*
X19685230Y-48400500D01*
X19814770Y-48400500D01*
X19814772Y-48400500D01*
X19939069Y-48364004D01*
X20048049Y-48293967D01*
X20132882Y-48196063D01*
X20186697Y-48078226D01*
X20205133Y-47950002D01*
X31294867Y-47950002D01*
X31313302Y-48078225D01*
X31367117Y-48196060D01*
X31367118Y-48196063D01*
X31442558Y-48283127D01*
X31451952Y-48293968D01*
X31560926Y-48364001D01*
X31560931Y-48364004D01*
X31685228Y-48400500D01*
X31685230Y-48400500D01*
X31814770Y-48400500D01*
X31814772Y-48400500D01*
X31939069Y-48364004D01*
X32048049Y-48293967D01*
X32132882Y-48196063D01*
X32166272Y-48122951D01*
X32207644Y-48077873D01*
X32267611Y-48065722D01*
X32323267Y-48091140D01*
X32346378Y-48122950D01*
X32358730Y-48149997D01*
X32367118Y-48168363D01*
X32451951Y-48266267D01*
X32451952Y-48266268D01*
X32560926Y-48336301D01*
X32560931Y-48336304D01*
X32685228Y-48372800D01*
X32685230Y-48372800D01*
X32814770Y-48372800D01*
X32814772Y-48372800D01*
X32939069Y-48336304D01*
X33048049Y-48266267D01*
X33132882Y-48168363D01*
X33141268Y-48150000D01*
X43156696Y-48150000D01*
X43177781Y-48283127D01*
X43177782Y-48283129D01*
X43237586Y-48400500D01*
X43238972Y-48403220D01*
X43334280Y-48498528D01*
X43454374Y-48559719D01*
X43587500Y-48580804D01*
X43720626Y-48559719D01*
X43840720Y-48498528D01*
X43936028Y-48403220D01*
X43997219Y-48283126D01*
X44018304Y-48150002D01*
X46519866Y-48150002D01*
X46538301Y-48278225D01*
X46581493Y-48372800D01*
X46592117Y-48396063D01*
X46663483Y-48478425D01*
X46676951Y-48493968D01*
X46779262Y-48559719D01*
X46785930Y-48564004D01*
X46910227Y-48600500D01*
X46910229Y-48600500D01*
X47039769Y-48600500D01*
X47039771Y-48600500D01*
X47164068Y-48564004D01*
X47273048Y-48493967D01*
X47357881Y-48396063D01*
X47411696Y-48278226D01*
X47423509Y-48196063D01*
X47430132Y-48150002D01*
X47430132Y-48149997D01*
X47411696Y-48021774D01*
X47378918Y-47950002D01*
X47357881Y-47903937D01*
X47273048Y-47806033D01*
X47273047Y-47806032D01*
X47273046Y-47806031D01*
X47164072Y-47735998D01*
X47164069Y-47735996D01*
X47164068Y-47735996D01*
X47164065Y-47735995D01*
X47039773Y-47699500D01*
X47039771Y-47699500D01*
X46910227Y-47699500D01*
X46910224Y-47699500D01*
X46785932Y-47735995D01*
X46785925Y-47735998D01*
X46676951Y-47806031D01*
X46592116Y-47903938D01*
X46538301Y-48021774D01*
X46519866Y-48149997D01*
X46519866Y-48150002D01*
X44018304Y-48150002D01*
X44018304Y-48150000D01*
X43997219Y-48016874D01*
X43936028Y-47896780D01*
X43840720Y-47801472D01*
X43840717Y-47801470D01*
X43720629Y-47740282D01*
X43720627Y-47740281D01*
X43587500Y-47719196D01*
X43454372Y-47740281D01*
X43454370Y-47740282D01*
X43334282Y-47801470D01*
X43238970Y-47896782D01*
X43177782Y-48016870D01*
X43177781Y-48016872D01*
X43156696Y-48149999D01*
X43156696Y-48150000D01*
X33141268Y-48150000D01*
X33186697Y-48050526D01*
X33201150Y-47950002D01*
X33205133Y-47922302D01*
X33205133Y-47922297D01*
X33186697Y-47794074D01*
X33152501Y-47719196D01*
X33132882Y-47676237D01*
X33048049Y-47578333D01*
X33048048Y-47578332D01*
X33048047Y-47578331D01*
X32939073Y-47508298D01*
X32939070Y-47508296D01*
X32939069Y-47508296D01*
X32939066Y-47508295D01*
X32814774Y-47471800D01*
X32814772Y-47471800D01*
X32685228Y-47471800D01*
X32685225Y-47471800D01*
X32560933Y-47508295D01*
X32560926Y-47508298D01*
X32451952Y-47578331D01*
X32367117Y-47676237D01*
X32333727Y-47749350D01*
X32292354Y-47794427D01*
X32232387Y-47806576D01*
X32176731Y-47781158D01*
X32153622Y-47749350D01*
X32132882Y-47703937D01*
X32048049Y-47606033D01*
X32048048Y-47606032D01*
X32048047Y-47606031D01*
X31939073Y-47535998D01*
X31939070Y-47535996D01*
X31939069Y-47535996D01*
X31939066Y-47535995D01*
X31814774Y-47499500D01*
X31814772Y-47499500D01*
X31685228Y-47499500D01*
X31685225Y-47499500D01*
X31560933Y-47535995D01*
X31560926Y-47535998D01*
X31451952Y-47606031D01*
X31367117Y-47703938D01*
X31313302Y-47821774D01*
X31294867Y-47949997D01*
X31294867Y-47950002D01*
X20205133Y-47950002D01*
X20205133Y-47950000D01*
X20203148Y-47936196D01*
X20186697Y-47821774D01*
X20168148Y-47781158D01*
X20132882Y-47703937D01*
X20048049Y-47606033D01*
X20048048Y-47606032D01*
X20048047Y-47606031D01*
X19939073Y-47535998D01*
X19939070Y-47535996D01*
X19939069Y-47535996D01*
X19939066Y-47535995D01*
X19814774Y-47499500D01*
X19814772Y-47499500D01*
X19685228Y-47499500D01*
X19685225Y-47499500D01*
X19560933Y-47535995D01*
X19560926Y-47535998D01*
X19451952Y-47606031D01*
X19367117Y-47703938D01*
X19313302Y-47821774D01*
X19294867Y-47949997D01*
X19294867Y-47950002D01*
X17390253Y-47950002D01*
X17368773Y-47936198D01*
X17368770Y-47936196D01*
X17368769Y-47936196D01*
X17368766Y-47936195D01*
X17244474Y-47899700D01*
X17244472Y-47899700D01*
X17114928Y-47899700D01*
X17114925Y-47899700D01*
X16990633Y-47936195D01*
X16990626Y-47936198D01*
X16881652Y-48006231D01*
X16796817Y-48104138D01*
X16743002Y-48221974D01*
X16724567Y-48350197D01*
X16724567Y-48350202D01*
X3300500Y-48350202D01*
X3300500Y-46387500D01*
X45169196Y-46387500D01*
X45190281Y-46520627D01*
X45190282Y-46520629D01*
X45251470Y-46640717D01*
X45251472Y-46640720D01*
X45346780Y-46736028D01*
X45466874Y-46797219D01*
X45600000Y-46818304D01*
X45733126Y-46797219D01*
X45853220Y-46736028D01*
X45948528Y-46640720D01*
X46009719Y-46520626D01*
X46030804Y-46387500D01*
X46009719Y-46254374D01*
X45948528Y-46134280D01*
X45853220Y-46038972D01*
X45853217Y-46038970D01*
X45733129Y-45977782D01*
X45733127Y-45977781D01*
X45600000Y-45956696D01*
X45466872Y-45977781D01*
X45466870Y-45977782D01*
X45346782Y-46038970D01*
X45251470Y-46134282D01*
X45190282Y-46254370D01*
X45190281Y-46254372D01*
X45169196Y-46387499D01*
X45169196Y-46387500D01*
X3300500Y-46387500D01*
X3300500Y-44675502D01*
X17016867Y-44675502D01*
X17035302Y-44803725D01*
X17073775Y-44887967D01*
X17089118Y-44921563D01*
X17173951Y-45019467D01*
X17173952Y-45019468D01*
X17282926Y-45089501D01*
X17282931Y-45089504D01*
X17407228Y-45126000D01*
X17407230Y-45126000D01*
X17536770Y-45126000D01*
X17536772Y-45126000D01*
X17661069Y-45089504D01*
X17683636Y-45075001D01*
X18144867Y-45075001D01*
X18163302Y-45203224D01*
X18217117Y-45321060D01*
X18217118Y-45321062D01*
X18254151Y-45363801D01*
X18301952Y-45418967D01*
X18410926Y-45489000D01*
X18410931Y-45489003D01*
X18535228Y-45525499D01*
X18535230Y-45525499D01*
X18664770Y-45525499D01*
X18664772Y-45525499D01*
X18686493Y-45519121D01*
X18747653Y-45520867D01*
X18796107Y-45558228D01*
X18813346Y-45616935D01*
X18812378Y-45628198D01*
X18794867Y-45749995D01*
X18794867Y-45750002D01*
X18813302Y-45878225D01*
X18849139Y-45956696D01*
X18867118Y-45996063D01*
X18951951Y-46093967D01*
X18951952Y-46093968D01*
X19060926Y-46164001D01*
X19060931Y-46164004D01*
X19185228Y-46200500D01*
X19185230Y-46200500D01*
X19314770Y-46200500D01*
X19314772Y-46200500D01*
X19439069Y-46164004D01*
X19548049Y-46093967D01*
X19632882Y-45996063D01*
X19686697Y-45878226D01*
X19705133Y-45750002D01*
X31794867Y-45750002D01*
X31813302Y-45878225D01*
X31849139Y-45956696D01*
X31867118Y-45996063D01*
X31951951Y-46093967D01*
X31951952Y-46093968D01*
X32060926Y-46164001D01*
X32060931Y-46164004D01*
X32185228Y-46200500D01*
X32185230Y-46200500D01*
X32314770Y-46200500D01*
X32314772Y-46200500D01*
X32439069Y-46164004D01*
X32548049Y-46093967D01*
X32632882Y-45996063D01*
X32686697Y-45878226D01*
X32705133Y-45750000D01*
X32705132Y-45749995D01*
X32686697Y-45621774D01*
X32676753Y-45600000D01*
X34319196Y-45600000D01*
X34340281Y-45733127D01*
X34340282Y-45733129D01*
X34401470Y-45853217D01*
X34401472Y-45853220D01*
X34496780Y-45948528D01*
X34616874Y-46009719D01*
X34750000Y-46030804D01*
X34883126Y-46009719D01*
X35003220Y-45948528D01*
X35098528Y-45853220D01*
X35159719Y-45733126D01*
X35180804Y-45600000D01*
X35159719Y-45466874D01*
X35098528Y-45346780D01*
X35003220Y-45251472D01*
X35003217Y-45251470D01*
X34883129Y-45190282D01*
X34883127Y-45190281D01*
X34750000Y-45169196D01*
X34616872Y-45190281D01*
X34616870Y-45190282D01*
X34496782Y-45251470D01*
X34401470Y-45346782D01*
X34340282Y-45466870D01*
X34340281Y-45466872D01*
X34319196Y-45599999D01*
X34319196Y-45600000D01*
X32676753Y-45600000D01*
X32632882Y-45503937D01*
X32548049Y-45406033D01*
X32548048Y-45406032D01*
X32548047Y-45406031D01*
X32439073Y-45335998D01*
X32439070Y-45335996D01*
X32439069Y-45335996D01*
X32439066Y-45335995D01*
X32314774Y-45299500D01*
X32314772Y-45299500D01*
X32185228Y-45299500D01*
X32185225Y-45299500D01*
X32060933Y-45335995D01*
X32060926Y-45335998D01*
X31951952Y-45406031D01*
X31867117Y-45503938D01*
X31813302Y-45621774D01*
X31794867Y-45749997D01*
X31794867Y-45750002D01*
X19705133Y-45750002D01*
X19705133Y-45750000D01*
X19705132Y-45749995D01*
X19686697Y-45621774D01*
X19676753Y-45600000D01*
X19632882Y-45503937D01*
X19548049Y-45406033D01*
X19548048Y-45406032D01*
X19548047Y-45406031D01*
X19439073Y-45335998D01*
X19439070Y-45335996D01*
X19439069Y-45335996D01*
X19439066Y-45335995D01*
X19314774Y-45299500D01*
X19314772Y-45299500D01*
X19185228Y-45299500D01*
X19185226Y-45299500D01*
X19185222Y-45299501D01*
X19163503Y-45305878D01*
X19102342Y-45304130D01*
X19053890Y-45266766D01*
X19036653Y-45208059D01*
X19037621Y-45196799D01*
X19055133Y-45075001D01*
X19055133Y-45074996D01*
X19036697Y-44946773D01*
X19009841Y-44887967D01*
X18982882Y-44828936D01*
X18898049Y-44731032D01*
X18898048Y-44731031D01*
X18898047Y-44731030D01*
X18789073Y-44660997D01*
X18789070Y-44660995D01*
X18789069Y-44660995D01*
X18789066Y-44660994D01*
X18664774Y-44624499D01*
X18664772Y-44624499D01*
X18535228Y-44624499D01*
X18535225Y-44624499D01*
X18410933Y-44660994D01*
X18410926Y-44660997D01*
X18301952Y-44731030D01*
X18217117Y-44828937D01*
X18163302Y-44946773D01*
X18144867Y-45074996D01*
X18144867Y-45075001D01*
X17683636Y-45075001D01*
X17770049Y-45019467D01*
X17854882Y-44921563D01*
X17908697Y-44803726D01*
X17927133Y-44675500D01*
X17926662Y-44672226D01*
X17917716Y-44610002D01*
X20144867Y-44610002D01*
X20163302Y-44738225D01*
X20193216Y-44803726D01*
X20217118Y-44856063D01*
X20298338Y-44949797D01*
X20301952Y-44953968D01*
X20410926Y-45024001D01*
X20410931Y-45024004D01*
X20535228Y-45060500D01*
X20535230Y-45060500D01*
X20664770Y-45060500D01*
X20664772Y-45060500D01*
X20789069Y-45024004D01*
X20898049Y-44953967D01*
X20901658Y-44949802D01*
X30337867Y-44949802D01*
X30356302Y-45078025D01*
X30378212Y-45126000D01*
X30410118Y-45195863D01*
X30420686Y-45208059D01*
X30494952Y-45293768D01*
X30577441Y-45346780D01*
X30603931Y-45363804D01*
X30728228Y-45400300D01*
X30728230Y-45400300D01*
X30857770Y-45400300D01*
X30857772Y-45400300D01*
X30982069Y-45363804D01*
X31091049Y-45293767D01*
X31175882Y-45195863D01*
X31229697Y-45078026D01*
X31238116Y-45019468D01*
X31248133Y-44949802D01*
X31248133Y-44949797D01*
X31229697Y-44821574D01*
X31221546Y-44803726D01*
X31175882Y-44703737D01*
X31091049Y-44605833D01*
X31091048Y-44605832D01*
X31091047Y-44605831D01*
X30994839Y-44544002D01*
X37415967Y-44544002D01*
X37434402Y-44672225D01*
X37488217Y-44790061D01*
X37488218Y-44790063D01*
X37573051Y-44887967D01*
X37573052Y-44887968D01*
X37682026Y-44958001D01*
X37682031Y-44958004D01*
X37806328Y-44994500D01*
X37806330Y-44994500D01*
X37935870Y-44994500D01*
X37935872Y-44994500D01*
X38060169Y-44958004D01*
X38169149Y-44887967D01*
X38253982Y-44790063D01*
X38307797Y-44672226D01*
X38317343Y-44605831D01*
X38326233Y-44544002D01*
X38326233Y-44543997D01*
X38307797Y-44415774D01*
X38284124Y-44363938D01*
X38253982Y-44297937D01*
X38169149Y-44200033D01*
X38169148Y-44200032D01*
X38169147Y-44200031D01*
X38060173Y-44129998D01*
X38060170Y-44129996D01*
X38060169Y-44129996D01*
X38060166Y-44129995D01*
X37935874Y-44093500D01*
X37935872Y-44093500D01*
X37806328Y-44093500D01*
X37806325Y-44093500D01*
X37682033Y-44129995D01*
X37682026Y-44129998D01*
X37573052Y-44200031D01*
X37488217Y-44297938D01*
X37434402Y-44415774D01*
X37415967Y-44543997D01*
X37415967Y-44544002D01*
X30994839Y-44544002D01*
X30982073Y-44535798D01*
X30982070Y-44535796D01*
X30982069Y-44535796D01*
X30982066Y-44535795D01*
X30857774Y-44499300D01*
X30857772Y-44499300D01*
X30728228Y-44499300D01*
X30728225Y-44499300D01*
X30603933Y-44535795D01*
X30603926Y-44535798D01*
X30494952Y-44605831D01*
X30410117Y-44703738D01*
X30356302Y-44821574D01*
X30337867Y-44949797D01*
X30337867Y-44949802D01*
X20901658Y-44949802D01*
X20982882Y-44856063D01*
X21036697Y-44738226D01*
X21046186Y-44672226D01*
X21055133Y-44610002D01*
X21055133Y-44609997D01*
X21036697Y-44481774D01*
X20982882Y-44363937D01*
X20898049Y-44266033D01*
X20898048Y-44266032D01*
X20898047Y-44266031D01*
X20789073Y-44195998D01*
X20789070Y-44195996D01*
X20789069Y-44195996D01*
X20789066Y-44195995D01*
X20664774Y-44159500D01*
X20664772Y-44159500D01*
X20535228Y-44159500D01*
X20535225Y-44159500D01*
X20410933Y-44195995D01*
X20410926Y-44195998D01*
X20301952Y-44266031D01*
X20217117Y-44363938D01*
X20163302Y-44481774D01*
X20144867Y-44609997D01*
X20144867Y-44610002D01*
X17917716Y-44610002D01*
X17908697Y-44547274D01*
X17854882Y-44429438D01*
X17854882Y-44429437D01*
X17770049Y-44331533D01*
X17770048Y-44331532D01*
X17770047Y-44331531D01*
X17661073Y-44261498D01*
X17661070Y-44261496D01*
X17661069Y-44261496D01*
X17661066Y-44261495D01*
X17536774Y-44225000D01*
X17536772Y-44225000D01*
X17407228Y-44225000D01*
X17407225Y-44225000D01*
X17282933Y-44261495D01*
X17282926Y-44261498D01*
X17173952Y-44331531D01*
X17089117Y-44429438D01*
X17035302Y-44547274D01*
X17016867Y-44675497D01*
X17016867Y-44675502D01*
X3300500Y-44675502D01*
X3300500Y-42762902D01*
X24042967Y-42762902D01*
X24061402Y-42891125D01*
X24115217Y-43008961D01*
X24115218Y-43008963D01*
X24163342Y-43064502D01*
X24200052Y-43106868D01*
X24309026Y-43176901D01*
X24309031Y-43176904D01*
X24433328Y-43213400D01*
X24433330Y-43213400D01*
X24562870Y-43213400D01*
X24562872Y-43213400D01*
X24687169Y-43176904D01*
X24796149Y-43106867D01*
X24832858Y-43064502D01*
X26458067Y-43064502D01*
X26476502Y-43192725D01*
X26530317Y-43310561D01*
X26530318Y-43310563D01*
X26615151Y-43408467D01*
X26615152Y-43408468D01*
X26724126Y-43478501D01*
X26724131Y-43478504D01*
X26848428Y-43515000D01*
X26848430Y-43515000D01*
X26977970Y-43515000D01*
X26977972Y-43515000D01*
X27102269Y-43478504D01*
X27211249Y-43408467D01*
X27296082Y-43310563D01*
X27349897Y-43192726D01*
X27356042Y-43149984D01*
X27368333Y-43064502D01*
X27368333Y-43064497D01*
X27349897Y-42936274D01*
X27296082Y-42818438D01*
X27296082Y-42818437D01*
X27211249Y-42720533D01*
X27211248Y-42720532D01*
X27211247Y-42720531D01*
X27102273Y-42650498D01*
X27102270Y-42650496D01*
X27102269Y-42650496D01*
X27102266Y-42650495D01*
X26977974Y-42614000D01*
X26977972Y-42614000D01*
X26848428Y-42614000D01*
X26848425Y-42614000D01*
X26724133Y-42650495D01*
X26724126Y-42650498D01*
X26615152Y-42720531D01*
X26530317Y-42818438D01*
X26476502Y-42936274D01*
X26458067Y-43064497D01*
X26458067Y-43064502D01*
X24832858Y-43064502D01*
X24880982Y-43008963D01*
X24934797Y-42891126D01*
X24953233Y-42762900D01*
X24947141Y-42720531D01*
X24934797Y-42634674D01*
X24880982Y-42516838D01*
X24880982Y-42516837D01*
X24796149Y-42418933D01*
X24796148Y-42418932D01*
X24796147Y-42418931D01*
X24687173Y-42348898D01*
X24687170Y-42348896D01*
X24687169Y-42348896D01*
X24687166Y-42348895D01*
X24562874Y-42312400D01*
X24562872Y-42312400D01*
X24433328Y-42312400D01*
X24433325Y-42312400D01*
X24309033Y-42348895D01*
X24309026Y-42348898D01*
X24200052Y-42418931D01*
X24115217Y-42516838D01*
X24061402Y-42634674D01*
X24042967Y-42762897D01*
X24042967Y-42762902D01*
X3300500Y-42762902D01*
X3300500Y-41300002D01*
X7944867Y-41300002D01*
X7963302Y-41428225D01*
X8017117Y-41546061D01*
X8017118Y-41546063D01*
X8097995Y-41639401D01*
X8101952Y-41643968D01*
X8183227Y-41696200D01*
X8210931Y-41714004D01*
X8335228Y-41750500D01*
X8335230Y-41750500D01*
X8464770Y-41750500D01*
X8464772Y-41750500D01*
X8589069Y-41714004D01*
X8698049Y-41643967D01*
X8782882Y-41546063D01*
X8836697Y-41428226D01*
X8846295Y-41361468D01*
X8855133Y-41300002D01*
X8855133Y-41299997D01*
X8836697Y-41171774D01*
X8811899Y-41117474D01*
X8782882Y-41053937D01*
X8698049Y-40956033D01*
X8698048Y-40956032D01*
X8698047Y-40956031D01*
X8589073Y-40885998D01*
X8589070Y-40885996D01*
X8589069Y-40885996D01*
X8589066Y-40885995D01*
X8464774Y-40849500D01*
X8464772Y-40849500D01*
X8335228Y-40849500D01*
X8335225Y-40849500D01*
X8210933Y-40885995D01*
X8210926Y-40885998D01*
X8101952Y-40956031D01*
X8017117Y-41053938D01*
X7963302Y-41171774D01*
X7944867Y-41299997D01*
X7944867Y-41300002D01*
X3300500Y-41300002D01*
X3300500Y-40610002D01*
X9944867Y-40610002D01*
X9963302Y-40738225D01*
X10014121Y-40849500D01*
X10017118Y-40856063D01*
X10056689Y-40901731D01*
X10101952Y-40953968D01*
X10210926Y-41024001D01*
X10210931Y-41024004D01*
X10335228Y-41060500D01*
X10335230Y-41060500D01*
X10464770Y-41060500D01*
X10464772Y-41060500D01*
X10589069Y-41024004D01*
X10661428Y-40977502D01*
X21684067Y-40977502D01*
X21702502Y-41105725D01*
X21732666Y-41171774D01*
X21756318Y-41223563D01*
X21822550Y-41300000D01*
X21841152Y-41321468D01*
X21903392Y-41361467D01*
X21950131Y-41391504D01*
X22074428Y-41428000D01*
X22074430Y-41428000D01*
X22203970Y-41428000D01*
X22203972Y-41428000D01*
X22328269Y-41391504D01*
X22437249Y-41321467D01*
X22502899Y-41245702D01*
X23104067Y-41245702D01*
X23122502Y-41373925D01*
X23167046Y-41471461D01*
X23176318Y-41491763D01*
X23243561Y-41569367D01*
X23261152Y-41589668D01*
X23345645Y-41643968D01*
X23370131Y-41659704D01*
X23494428Y-41696200D01*
X23494430Y-41696200D01*
X23623970Y-41696200D01*
X23623972Y-41696200D01*
X23748269Y-41659704D01*
X23857249Y-41589667D01*
X23942082Y-41491763D01*
X23995897Y-41373926D01*
X24014333Y-41245700D01*
X24011414Y-41225400D01*
X23995897Y-41117474D01*
X23986626Y-41097174D01*
X23950241Y-41017502D01*
X31729667Y-41017502D01*
X31748102Y-41145725D01*
X31783649Y-41223561D01*
X31801918Y-41263563D01*
X31879956Y-41353625D01*
X31886752Y-41361468D01*
X31990630Y-41428226D01*
X31995731Y-41431504D01*
X32120028Y-41468000D01*
X32120030Y-41468000D01*
X32249570Y-41468000D01*
X32249572Y-41468000D01*
X32373869Y-41431504D01*
X32482849Y-41361467D01*
X32567682Y-41263563D01*
X32585110Y-41225402D01*
X34321867Y-41225402D01*
X34340302Y-41353625D01*
X34374372Y-41428226D01*
X34394118Y-41471463D01*
X34478951Y-41569367D01*
X34478952Y-41569368D01*
X34510540Y-41589668D01*
X34587931Y-41639404D01*
X34712228Y-41675900D01*
X34712230Y-41675900D01*
X34841770Y-41675900D01*
X34841772Y-41675900D01*
X34966069Y-41639404D01*
X35075049Y-41569367D01*
X35159882Y-41471463D01*
X35213697Y-41353626D01*
X35229214Y-41245702D01*
X35232133Y-41225402D01*
X35232133Y-41225397D01*
X35213697Y-41097174D01*
X35196948Y-41060499D01*
X35159882Y-40979337D01*
X35075049Y-40881433D01*
X35075048Y-40881432D01*
X35075047Y-40881431D01*
X34966073Y-40811398D01*
X34966070Y-40811396D01*
X34966069Y-40811396D01*
X34966066Y-40811395D01*
X34841774Y-40774900D01*
X34841772Y-40774900D01*
X34712228Y-40774900D01*
X34712225Y-40774900D01*
X34587933Y-40811395D01*
X34587926Y-40811398D01*
X34478952Y-40881431D01*
X34394117Y-40979338D01*
X34340302Y-41097174D01*
X34321867Y-41225397D01*
X34321867Y-41225402D01*
X32585110Y-41225402D01*
X32621497Y-41145726D01*
X32638998Y-41024004D01*
X32639933Y-41017502D01*
X32639933Y-41017497D01*
X32621497Y-40889274D01*
X32606329Y-40856061D01*
X32567682Y-40771437D01*
X32482849Y-40673533D01*
X32482848Y-40673532D01*
X32482847Y-40673531D01*
X32373873Y-40603498D01*
X32373870Y-40603496D01*
X32373869Y-40603496D01*
X32373866Y-40603495D01*
X32249574Y-40567000D01*
X32249572Y-40567000D01*
X32120028Y-40567000D01*
X32120025Y-40567000D01*
X31995733Y-40603495D01*
X31995726Y-40603498D01*
X31886752Y-40673531D01*
X31801917Y-40771438D01*
X31748102Y-40889274D01*
X31729667Y-41017497D01*
X31729667Y-41017502D01*
X23950241Y-41017502D01*
X23942082Y-40999637D01*
X23857249Y-40901733D01*
X23857248Y-40901732D01*
X23857247Y-40901731D01*
X23748273Y-40831698D01*
X23748270Y-40831696D01*
X23748269Y-40831696D01*
X23748266Y-40831695D01*
X23623974Y-40795200D01*
X23623972Y-40795200D01*
X23494428Y-40795200D01*
X23494425Y-40795200D01*
X23370133Y-40831695D01*
X23370126Y-40831698D01*
X23261152Y-40901731D01*
X23176317Y-40999638D01*
X23122502Y-41117474D01*
X23104067Y-41245697D01*
X23104067Y-41245702D01*
X22502899Y-41245702D01*
X22522082Y-41223563D01*
X22575897Y-41105726D01*
X22594333Y-40977500D01*
X22591246Y-40956031D01*
X22575897Y-40849274D01*
X22540350Y-40771438D01*
X22522082Y-40731437D01*
X22437249Y-40633533D01*
X22437248Y-40633532D01*
X22437247Y-40633531D01*
X22328273Y-40563498D01*
X22328270Y-40563496D01*
X22328269Y-40563496D01*
X22328266Y-40563495D01*
X22203974Y-40527000D01*
X22203972Y-40527000D01*
X22074428Y-40527000D01*
X22074425Y-40527000D01*
X21950133Y-40563495D01*
X21950126Y-40563498D01*
X21841152Y-40633531D01*
X21756317Y-40731438D01*
X21702502Y-40849274D01*
X21684067Y-40977497D01*
X21684067Y-40977502D01*
X10661428Y-40977502D01*
X10698049Y-40953967D01*
X10782882Y-40856063D01*
X10836697Y-40738226D01*
X10845999Y-40673531D01*
X10855133Y-40610002D01*
X10855133Y-40609997D01*
X10836697Y-40481774D01*
X10787369Y-40373763D01*
X10782882Y-40363937D01*
X10698049Y-40266033D01*
X10698048Y-40266032D01*
X10698047Y-40266031D01*
X10589073Y-40195998D01*
X10589070Y-40195996D01*
X10589069Y-40195996D01*
X10589066Y-40195995D01*
X10464774Y-40159500D01*
X10464772Y-40159500D01*
X10335228Y-40159500D01*
X10335225Y-40159500D01*
X10210933Y-40195995D01*
X10210926Y-40195998D01*
X10101952Y-40266031D01*
X10017117Y-40363938D01*
X9963302Y-40481774D01*
X9944867Y-40609997D01*
X9944867Y-40610002D01*
X3300500Y-40610002D01*
X3300500Y-40127702D01*
X25838967Y-40127702D01*
X25857402Y-40255925D01*
X25906731Y-40363938D01*
X25911218Y-40373763D01*
X25996051Y-40471667D01*
X25996052Y-40471668D01*
X26082151Y-40527000D01*
X26105031Y-40541704D01*
X26229328Y-40578200D01*
X26229330Y-40578200D01*
X26358870Y-40578200D01*
X26358872Y-40578200D01*
X26483169Y-40541704D01*
X26592149Y-40471667D01*
X26676982Y-40373763D01*
X26730797Y-40255926D01*
X26749233Y-40127700D01*
X26730797Y-39999474D01*
X26676982Y-39881637D01*
X26592149Y-39783733D01*
X26592148Y-39783732D01*
X26592147Y-39783731D01*
X26483173Y-39713698D01*
X26483170Y-39713696D01*
X26483169Y-39713696D01*
X26483166Y-39713695D01*
X26358874Y-39677200D01*
X26358872Y-39677200D01*
X26229328Y-39677200D01*
X26229325Y-39677200D01*
X26105033Y-39713695D01*
X26105026Y-39713698D01*
X25996052Y-39783731D01*
X25911217Y-39881638D01*
X25857402Y-39999474D01*
X25838967Y-40127697D01*
X25838967Y-40127702D01*
X3300500Y-40127702D01*
X3300500Y-39300487D01*
X16264200Y-39300487D01*
X16304637Y-39464544D01*
X16304638Y-39464547D01*
X16383163Y-39614164D01*
X16383163Y-39614165D01*
X16495209Y-39740638D01*
X16571010Y-39792959D01*
X16634271Y-39836625D01*
X16792261Y-39896543D01*
X16917915Y-39911800D01*
X16917920Y-39911800D01*
X17002080Y-39911800D01*
X17002085Y-39911800D01*
X17127739Y-39896543D01*
X17285729Y-39836625D01*
X17424789Y-39740639D01*
X17424790Y-39740638D01*
X17536836Y-39614165D01*
X17536836Y-39614164D01*
X17536835Y-39614164D01*
X17536838Y-39614162D01*
X17572140Y-39546900D01*
X21026765Y-39546900D01*
X21045200Y-39675123D01*
X21075121Y-39740639D01*
X21099016Y-39792961D01*
X21175853Y-39881637D01*
X21183850Y-39890866D01*
X21292824Y-39960899D01*
X21292829Y-39960902D01*
X21417126Y-39997398D01*
X21417128Y-39997398D01*
X21546668Y-39997398D01*
X21546670Y-39997398D01*
X21670967Y-39960902D01*
X21779947Y-39890865D01*
X21864780Y-39792961D01*
X21918595Y-39675124D01*
X21937031Y-39546898D01*
X21925190Y-39464544D01*
X21918595Y-39418672D01*
X21864780Y-39300836D01*
X21864780Y-39300835D01*
X21779947Y-39202931D01*
X21779946Y-39202930D01*
X21779945Y-39202929D01*
X21670971Y-39132896D01*
X21670968Y-39132894D01*
X21670967Y-39132894D01*
X21666281Y-39131518D01*
X21546672Y-39096398D01*
X21546670Y-39096398D01*
X21417126Y-39096398D01*
X21417123Y-39096398D01*
X21292831Y-39132893D01*
X21292824Y-39132896D01*
X21183850Y-39202929D01*
X21099015Y-39300836D01*
X21045200Y-39418672D01*
X21026765Y-39546895D01*
X21026765Y-39546900D01*
X17572140Y-39546900D01*
X17615362Y-39464546D01*
X17655800Y-39300485D01*
X17655800Y-39131515D01*
X17615362Y-38967454D01*
X17536838Y-38817838D01*
X17536836Y-38817836D01*
X17536836Y-38817835D01*
X17536836Y-38817834D01*
X17424790Y-38691361D01*
X17285729Y-38595375D01*
X17127739Y-38535457D01*
X17127737Y-38535456D01*
X17127736Y-38535456D01*
X17002096Y-38520201D01*
X17002090Y-38520200D01*
X17002085Y-38520200D01*
X16917915Y-38520200D01*
X16917910Y-38520200D01*
X16917903Y-38520201D01*
X16792263Y-38535456D01*
X16792261Y-38535457D01*
X16634270Y-38595375D01*
X16495210Y-38691361D01*
X16495209Y-38691361D01*
X16383163Y-38817834D01*
X16383163Y-38817835D01*
X16304638Y-38967452D01*
X16304637Y-38967455D01*
X16264200Y-39131512D01*
X16264200Y-39300487D01*
X3300500Y-39300487D01*
X3300500Y-38284487D01*
X21344200Y-38284487D01*
X21384637Y-38448544D01*
X21384638Y-38448547D01*
X21463163Y-38598164D01*
X21463163Y-38598165D01*
X21575209Y-38724638D01*
X21651865Y-38777550D01*
X21714271Y-38820625D01*
X21872261Y-38880543D01*
X21997915Y-38895800D01*
X21997920Y-38895800D01*
X22082080Y-38895800D01*
X22082085Y-38895800D01*
X22207739Y-38880543D01*
X22365729Y-38820625D01*
X22504789Y-38724639D01*
X22504790Y-38724638D01*
X22616836Y-38598165D01*
X22616836Y-38598164D01*
X22616835Y-38598164D01*
X22616838Y-38598162D01*
X22695362Y-38448546D01*
X22735800Y-38284485D01*
X22735800Y-38115515D01*
X22695362Y-37951454D01*
X22677070Y-37916602D01*
X34813067Y-37916602D01*
X34831502Y-38044825D01*
X34863786Y-38115515D01*
X34885318Y-38162663D01*
X34970151Y-38260567D01*
X34970152Y-38260568D01*
X35007368Y-38284485D01*
X35079131Y-38330604D01*
X35203428Y-38367100D01*
X35203430Y-38367100D01*
X35332970Y-38367100D01*
X35332972Y-38367100D01*
X35457269Y-38330604D01*
X35566249Y-38260567D01*
X35651082Y-38162663D01*
X35704897Y-38044826D01*
X35723333Y-37916600D01*
X35715848Y-37864543D01*
X35704897Y-37788374D01*
X35651082Y-37670537D01*
X35566249Y-37572633D01*
X35566248Y-37572632D01*
X35566247Y-37572631D01*
X35457273Y-37502598D01*
X35457270Y-37502596D01*
X35457269Y-37502596D01*
X35457266Y-37502595D01*
X35332974Y-37466100D01*
X35332972Y-37466100D01*
X35203428Y-37466100D01*
X35203425Y-37466100D01*
X35079133Y-37502595D01*
X35079126Y-37502598D01*
X34970152Y-37572631D01*
X34885317Y-37670538D01*
X34831502Y-37788374D01*
X34813067Y-37916597D01*
X34813067Y-37916602D01*
X22677070Y-37916602D01*
X22616838Y-37801838D01*
X22616836Y-37801836D01*
X22616836Y-37801835D01*
X22616836Y-37801834D01*
X22504790Y-37675361D01*
X22365729Y-37579375D01*
X22347947Y-37572631D01*
X22207739Y-37519457D01*
X22207737Y-37519456D01*
X22207736Y-37519456D01*
X22082096Y-37504201D01*
X22082090Y-37504200D01*
X22082085Y-37504200D01*
X21997915Y-37504200D01*
X21997910Y-37504200D01*
X21997903Y-37504201D01*
X21872263Y-37519456D01*
X21872261Y-37519457D01*
X21714270Y-37579375D01*
X21575210Y-37675361D01*
X21575209Y-37675361D01*
X21463163Y-37801834D01*
X21463163Y-37801835D01*
X21384638Y-37951452D01*
X21384637Y-37951455D01*
X21344200Y-38115512D01*
X21344200Y-38284487D01*
X3300500Y-38284487D01*
X3300500Y-37268487D01*
X16264200Y-37268487D01*
X16304637Y-37432544D01*
X16304638Y-37432547D01*
X16383163Y-37582164D01*
X16383163Y-37582165D01*
X16495209Y-37708638D01*
X16571865Y-37761550D01*
X16634271Y-37804625D01*
X16792261Y-37864543D01*
X16917915Y-37879800D01*
X16917920Y-37879800D01*
X17002080Y-37879800D01*
X17002085Y-37879800D01*
X17127739Y-37864543D01*
X17285729Y-37804625D01*
X17424789Y-37708639D01*
X17424790Y-37708638D01*
X17536836Y-37582165D01*
X17536836Y-37582164D01*
X17536835Y-37582164D01*
X17536838Y-37582162D01*
X17615362Y-37432546D01*
X17655800Y-37268485D01*
X17655800Y-37230002D01*
X24544867Y-37230002D01*
X24563302Y-37358225D01*
X24603651Y-37446575D01*
X24617118Y-37476063D01*
X24700795Y-37572633D01*
X24701952Y-37573968D01*
X24714707Y-37582165D01*
X24810931Y-37644004D01*
X24935228Y-37680500D01*
X24935230Y-37680500D01*
X25064770Y-37680500D01*
X25064772Y-37680500D01*
X25189069Y-37644004D01*
X25298049Y-37573967D01*
X25367535Y-37493774D01*
X25419929Y-37462178D01*
X25480890Y-37467413D01*
X25495877Y-37475321D01*
X25538326Y-37502601D01*
X25538331Y-37502604D01*
X25662628Y-37539100D01*
X25662630Y-37539100D01*
X25792170Y-37539100D01*
X25792172Y-37539100D01*
X25916469Y-37502604D01*
X25923721Y-37497942D01*
X25982895Y-37482387D01*
X26039912Y-37504584D01*
X26052066Y-37516396D01*
X26071738Y-37539099D01*
X26101951Y-37573967D01*
X26210931Y-37644004D01*
X26335228Y-37680500D01*
X26335230Y-37680500D01*
X26464770Y-37680500D01*
X26464772Y-37680500D01*
X26589069Y-37644004D01*
X26698049Y-37573967D01*
X26782882Y-37476063D01*
X26836697Y-37358226D01*
X26848823Y-37273889D01*
X26855133Y-37230002D01*
X27344867Y-37230002D01*
X27363302Y-37358225D01*
X27403651Y-37446575D01*
X27417118Y-37476063D01*
X27500795Y-37572633D01*
X27501952Y-37573968D01*
X27514707Y-37582165D01*
X27610931Y-37644004D01*
X27735228Y-37680500D01*
X27735230Y-37680500D01*
X27864770Y-37680500D01*
X27864772Y-37680500D01*
X27989069Y-37644004D01*
X28098049Y-37573967D01*
X28182882Y-37476063D01*
X28227727Y-37377868D01*
X28269099Y-37332790D01*
X28329065Y-37320639D01*
X28345667Y-37324003D01*
X28435228Y-37350300D01*
X28435230Y-37350300D01*
X28564770Y-37350300D01*
X28564772Y-37350300D01*
X28654329Y-37324004D01*
X28715488Y-37325751D01*
X28763941Y-37363114D01*
X28772272Y-37377867D01*
X28816779Y-37475321D01*
X28817118Y-37476063D01*
X28900795Y-37572633D01*
X28901952Y-37573968D01*
X28914707Y-37582165D01*
X29010931Y-37644004D01*
X29135228Y-37680500D01*
X29135230Y-37680500D01*
X29264770Y-37680500D01*
X29264772Y-37680500D01*
X29389069Y-37644004D01*
X29498049Y-37573967D01*
X29582882Y-37476063D01*
X29636697Y-37358226D01*
X29648823Y-37273889D01*
X29655133Y-37230002D01*
X30144867Y-37230002D01*
X30163302Y-37358225D01*
X30203651Y-37446575D01*
X30217118Y-37476063D01*
X30300795Y-37572633D01*
X30301952Y-37573968D01*
X30314707Y-37582165D01*
X30410931Y-37644004D01*
X30535228Y-37680500D01*
X30535230Y-37680500D01*
X30664770Y-37680500D01*
X30664772Y-37680500D01*
X30789069Y-37644004D01*
X30898049Y-37573967D01*
X30982882Y-37476063D01*
X31036697Y-37358226D01*
X31048823Y-37273889D01*
X31055133Y-37230002D01*
X31055133Y-37229997D01*
X31036697Y-37101774D01*
X31008014Y-37038968D01*
X30982882Y-36983937D01*
X30898049Y-36886033D01*
X30898048Y-36886032D01*
X30898047Y-36886031D01*
X30789073Y-36815998D01*
X30789070Y-36815996D01*
X30789069Y-36815996D01*
X30789066Y-36815995D01*
X30664774Y-36779500D01*
X30664772Y-36779500D01*
X30535228Y-36779500D01*
X30535225Y-36779500D01*
X30410933Y-36815995D01*
X30410926Y-36815998D01*
X30301952Y-36886031D01*
X30217117Y-36983938D01*
X30163302Y-37101774D01*
X30144867Y-37229997D01*
X30144867Y-37230002D01*
X29655133Y-37230002D01*
X29655133Y-37229997D01*
X29636697Y-37101774D01*
X29608014Y-37038968D01*
X29582882Y-36983937D01*
X29498049Y-36886033D01*
X29498048Y-36886032D01*
X29498047Y-36886031D01*
X29389073Y-36815998D01*
X29389070Y-36815996D01*
X29389069Y-36815996D01*
X29389066Y-36815995D01*
X29264774Y-36779500D01*
X29264772Y-36779500D01*
X29135228Y-36779500D01*
X29135226Y-36779500D01*
X29135222Y-36779501D01*
X29045670Y-36805795D01*
X28984510Y-36804047D01*
X28936058Y-36766684D01*
X28927727Y-36751932D01*
X28909565Y-36712165D01*
X28901727Y-36695002D01*
X31590667Y-36695002D01*
X31609102Y-36823225D01*
X31660356Y-36935454D01*
X31662918Y-36941063D01*
X31739028Y-37028900D01*
X31747752Y-37038968D01*
X31841970Y-37099518D01*
X31856731Y-37109004D01*
X31981028Y-37145500D01*
X31981030Y-37145500D01*
X32110570Y-37145500D01*
X32110572Y-37145500D01*
X32234869Y-37109004D01*
X32343849Y-37038967D01*
X32352570Y-37028902D01*
X37159967Y-37028902D01*
X37178402Y-37157125D01*
X37232217Y-37274961D01*
X37232218Y-37274963D01*
X37282325Y-37332790D01*
X37317052Y-37372868D01*
X37409915Y-37432547D01*
X37426031Y-37442904D01*
X37550328Y-37479400D01*
X37550330Y-37479400D01*
X37679870Y-37479400D01*
X37679872Y-37479400D01*
X37804169Y-37442904D01*
X37913149Y-37372867D01*
X37997982Y-37274963D01*
X38051797Y-37157126D01*
X38060081Y-37099512D01*
X38070233Y-37028902D01*
X38070233Y-37028897D01*
X38051797Y-36900674D01*
X38038713Y-36872024D01*
X37997982Y-36782837D01*
X37913149Y-36684933D01*
X37913148Y-36684932D01*
X37913147Y-36684931D01*
X37804173Y-36614898D01*
X37804170Y-36614896D01*
X37804169Y-36614896D01*
X37804166Y-36614895D01*
X37679874Y-36578400D01*
X37679872Y-36578400D01*
X37550328Y-36578400D01*
X37550325Y-36578400D01*
X37426033Y-36614895D01*
X37426026Y-36614898D01*
X37317052Y-36684931D01*
X37232217Y-36782838D01*
X37178402Y-36900674D01*
X37159967Y-37028897D01*
X37159967Y-37028902D01*
X32352570Y-37028902D01*
X32428682Y-36941063D01*
X32482497Y-36823226D01*
X32489923Y-36771574D01*
X32500933Y-36695002D01*
X32500933Y-36694997D01*
X32482497Y-36566774D01*
X32471612Y-36542939D01*
X32428682Y-36448937D01*
X32343849Y-36351033D01*
X32343848Y-36351032D01*
X32343847Y-36351031D01*
X32234873Y-36280998D01*
X32234870Y-36280996D01*
X32234869Y-36280996D01*
X32234866Y-36280995D01*
X32110574Y-36244500D01*
X32110572Y-36244500D01*
X31981028Y-36244500D01*
X31981025Y-36244500D01*
X31856733Y-36280995D01*
X31856726Y-36280998D01*
X31747752Y-36351031D01*
X31662917Y-36448938D01*
X31609102Y-36566774D01*
X31590667Y-36694997D01*
X31590667Y-36695002D01*
X28901727Y-36695002D01*
X28882882Y-36653737D01*
X28798049Y-36555833D01*
X28798048Y-36555832D01*
X28798047Y-36555831D01*
X28689073Y-36485798D01*
X28689070Y-36485796D01*
X28689069Y-36485796D01*
X28689066Y-36485795D01*
X28564774Y-36449300D01*
X28564772Y-36449300D01*
X28435228Y-36449300D01*
X28435225Y-36449300D01*
X28310933Y-36485795D01*
X28310926Y-36485798D01*
X28201952Y-36555831D01*
X28117117Y-36653738D01*
X28072272Y-36751932D01*
X28030899Y-36797010D01*
X27970932Y-36809160D01*
X27954328Y-36805795D01*
X27864775Y-36779500D01*
X27864772Y-36779500D01*
X27735228Y-36779500D01*
X27735225Y-36779500D01*
X27610933Y-36815995D01*
X27610926Y-36815998D01*
X27501952Y-36886031D01*
X27417117Y-36983938D01*
X27363302Y-37101774D01*
X27344867Y-37229997D01*
X27344867Y-37230002D01*
X26855133Y-37230002D01*
X26855133Y-37229997D01*
X26836697Y-37101774D01*
X26808014Y-37038968D01*
X26782882Y-36983937D01*
X26698049Y-36886033D01*
X26698048Y-36886032D01*
X26698047Y-36886031D01*
X26589073Y-36815998D01*
X26589070Y-36815996D01*
X26589069Y-36815996D01*
X26589066Y-36815995D01*
X26464774Y-36779500D01*
X26464772Y-36779500D01*
X26335228Y-36779500D01*
X26335225Y-36779500D01*
X26210929Y-36815996D01*
X26210926Y-36815997D01*
X26203673Y-36820659D01*
X26144497Y-36836211D01*
X26087481Y-36814010D01*
X26075333Y-36802203D01*
X26025449Y-36744633D01*
X26025448Y-36744632D01*
X25916473Y-36674598D01*
X25916470Y-36674596D01*
X25916469Y-36674596D01*
X25916466Y-36674595D01*
X25792174Y-36638100D01*
X25792172Y-36638100D01*
X25662628Y-36638100D01*
X25662625Y-36638100D01*
X25538333Y-36674595D01*
X25538326Y-36674598D01*
X25429351Y-36744632D01*
X25429349Y-36744634D01*
X25359864Y-36824825D01*
X25307468Y-36856421D01*
X25246508Y-36851185D01*
X25231522Y-36843279D01*
X25189069Y-36815996D01*
X25189066Y-36815995D01*
X25064774Y-36779500D01*
X25064772Y-36779500D01*
X24935228Y-36779500D01*
X24935225Y-36779500D01*
X24810933Y-36815995D01*
X24810926Y-36815998D01*
X24701952Y-36886031D01*
X24617117Y-36983938D01*
X24563302Y-37101774D01*
X24544867Y-37229997D01*
X24544867Y-37230002D01*
X17655800Y-37230002D01*
X17655800Y-37099515D01*
X17615362Y-36935454D01*
X17536838Y-36785838D01*
X17536836Y-36785836D01*
X17536836Y-36785835D01*
X17536836Y-36785834D01*
X17424790Y-36659361D01*
X17285729Y-36563375D01*
X17265837Y-36555831D01*
X17127739Y-36503457D01*
X17127737Y-36503456D01*
X17127736Y-36503456D01*
X17002096Y-36488201D01*
X17002090Y-36488200D01*
X17002085Y-36488200D01*
X16917915Y-36488200D01*
X16917910Y-36488200D01*
X16917903Y-36488201D01*
X16792263Y-36503456D01*
X16792261Y-36503457D01*
X16634270Y-36563375D01*
X16495210Y-36659361D01*
X16495209Y-36659361D01*
X16383163Y-36785834D01*
X16383163Y-36785835D01*
X16304638Y-36935452D01*
X16304637Y-36935455D01*
X16264200Y-37099512D01*
X16264200Y-37268487D01*
X3300500Y-37268487D01*
X3300500Y-36083828D01*
X4795623Y-36083828D01*
X4805943Y-36247857D01*
X4856732Y-36404173D01*
X4944797Y-36542939D01*
X5064607Y-36655448D01*
X5064606Y-36655448D01*
X5208630Y-36734626D01*
X5208632Y-36734627D01*
X5367823Y-36775500D01*
X5367826Y-36775500D01*
X5490925Y-36775500D01*
X5613053Y-36760072D01*
X5613054Y-36760071D01*
X5613058Y-36760071D01*
X5765871Y-36699568D01*
X5898837Y-36602963D01*
X6003600Y-36476326D01*
X6054480Y-36368200D01*
X7126668Y-36368200D01*
X7145103Y-36496423D01*
X7193759Y-36602962D01*
X7198919Y-36614261D01*
X7272834Y-36699565D01*
X7283753Y-36712166D01*
X7388529Y-36779501D01*
X7392732Y-36782202D01*
X7517029Y-36818698D01*
X7517031Y-36818698D01*
X7646571Y-36818698D01*
X7646573Y-36818698D01*
X7770870Y-36782202D01*
X7879850Y-36712165D01*
X7964683Y-36614261D01*
X8004533Y-36527002D01*
X15246367Y-36527002D01*
X15264802Y-36655225D01*
X15305634Y-36744632D01*
X15318618Y-36773063D01*
X15378817Y-36842537D01*
X15403452Y-36870968D01*
X15512426Y-36941001D01*
X15512431Y-36941004D01*
X15636728Y-36977500D01*
X15636730Y-36977500D01*
X15766270Y-36977500D01*
X15766272Y-36977500D01*
X15890569Y-36941004D01*
X15999549Y-36870967D01*
X16084382Y-36773063D01*
X16138197Y-36655226D01*
X16149243Y-36578400D01*
X16156633Y-36527002D01*
X16156633Y-36526997D01*
X16138197Y-36398774D01*
X16105698Y-36327612D01*
X16084382Y-36280937D01*
X15999549Y-36183033D01*
X15999548Y-36183032D01*
X15999547Y-36183031D01*
X15890573Y-36112998D01*
X15890570Y-36112996D01*
X15890569Y-36112996D01*
X15890566Y-36112995D01*
X15791231Y-36083828D01*
X45895623Y-36083828D01*
X45905943Y-36247857D01*
X45956732Y-36404173D01*
X46044797Y-36542939D01*
X46164607Y-36655448D01*
X46164606Y-36655448D01*
X46308630Y-36734626D01*
X46308632Y-36734627D01*
X46467823Y-36775500D01*
X46467826Y-36775500D01*
X46590925Y-36775500D01*
X46713053Y-36760072D01*
X46713054Y-36760071D01*
X46713058Y-36760071D01*
X46865871Y-36699568D01*
X46998837Y-36602963D01*
X47103600Y-36476326D01*
X47173579Y-36327613D01*
X47204376Y-36166170D01*
X47194056Y-36002140D01*
X47143268Y-35845829D01*
X47143267Y-35845828D01*
X47143267Y-35845826D01*
X47055202Y-35707060D01*
X46935392Y-35594551D01*
X46935393Y-35594551D01*
X46791369Y-35515373D01*
X46632179Y-35474500D01*
X46632177Y-35474500D01*
X46509075Y-35474500D01*
X46386946Y-35489927D01*
X46386943Y-35489928D01*
X46234129Y-35550432D01*
X46234125Y-35550434D01*
X46101162Y-35647037D01*
X45996399Y-35773674D01*
X45926420Y-35922387D01*
X45895624Y-36083823D01*
X45895623Y-36083828D01*
X15791231Y-36083828D01*
X15766274Y-36076500D01*
X15766272Y-36076500D01*
X15636728Y-36076500D01*
X15636725Y-36076500D01*
X15512433Y-36112995D01*
X15512426Y-36112998D01*
X15403452Y-36183031D01*
X15318617Y-36280938D01*
X15264802Y-36398774D01*
X15246367Y-36526997D01*
X15246367Y-36527002D01*
X8004533Y-36527002D01*
X8018498Y-36496424D01*
X8036934Y-36368198D01*
X8018498Y-36239972D01*
X7964683Y-36122135D01*
X7879850Y-36024231D01*
X7879849Y-36024230D01*
X7879848Y-36024229D01*
X7770874Y-35954196D01*
X7770871Y-35954194D01*
X7770870Y-35954194D01*
X7770867Y-35954193D01*
X7646575Y-35917698D01*
X7646573Y-35917698D01*
X7517029Y-35917698D01*
X7517026Y-35917698D01*
X7392734Y-35954193D01*
X7392727Y-35954196D01*
X7283753Y-36024229D01*
X7198918Y-36122136D01*
X7145103Y-36239972D01*
X7126668Y-36368195D01*
X7126668Y-36368200D01*
X6054480Y-36368200D01*
X6073579Y-36327613D01*
X6104376Y-36166170D01*
X6094056Y-36002140D01*
X6043268Y-35845829D01*
X6043267Y-35845828D01*
X6043267Y-35845826D01*
X5955202Y-35707060D01*
X5835392Y-35594551D01*
X5835393Y-35594551D01*
X5691369Y-35515373D01*
X5532179Y-35474500D01*
X5532177Y-35474500D01*
X5409075Y-35474500D01*
X5286946Y-35489927D01*
X5286943Y-35489928D01*
X5134129Y-35550432D01*
X5134125Y-35550434D01*
X5001162Y-35647037D01*
X4896399Y-35773674D01*
X4826420Y-35922387D01*
X4795624Y-36083823D01*
X4795623Y-36083828D01*
X3300500Y-36083828D01*
X3300500Y-34853002D01*
X23046767Y-34853002D01*
X23065202Y-34981225D01*
X23081872Y-35017726D01*
X23119018Y-35099063D01*
X23150645Y-35135563D01*
X23203852Y-35196968D01*
X23312826Y-35267001D01*
X23312831Y-35267004D01*
X23437128Y-35303500D01*
X23437130Y-35303500D01*
X23566670Y-35303500D01*
X23566672Y-35303500D01*
X23690969Y-35267004D01*
X23799949Y-35196967D01*
X23884782Y-35099063D01*
X23938597Y-34981226D01*
X23951785Y-34889502D01*
X30977467Y-34889502D01*
X30995902Y-35017725D01*
X31049717Y-35135561D01*
X31049718Y-35135563D01*
X31102924Y-35196967D01*
X31134552Y-35233468D01*
X31243526Y-35303501D01*
X31243531Y-35303504D01*
X31367828Y-35340000D01*
X31367830Y-35340000D01*
X31497370Y-35340000D01*
X31497372Y-35340000D01*
X31621669Y-35303504D01*
X31730649Y-35233467D01*
X31815482Y-35135563D01*
X31831501Y-35100487D01*
X32764200Y-35100487D01*
X32804637Y-35264544D01*
X32804638Y-35264547D01*
X32883163Y-35414164D01*
X32883163Y-35414165D01*
X32995209Y-35540638D01*
X33071010Y-35592959D01*
X33134271Y-35636625D01*
X33292261Y-35696543D01*
X33417915Y-35711800D01*
X33417920Y-35711800D01*
X33502080Y-35711800D01*
X33502085Y-35711800D01*
X33627739Y-35696543D01*
X33785729Y-35636625D01*
X33924789Y-35540639D01*
X33924790Y-35540638D01*
X34036836Y-35414165D01*
X34036836Y-35414164D01*
X34036835Y-35414164D01*
X34036838Y-35414162D01*
X34072140Y-35346900D01*
X37526765Y-35346900D01*
X37545200Y-35475123D01*
X37575121Y-35540639D01*
X37599016Y-35592961D01*
X37683849Y-35690865D01*
X37683850Y-35690866D01*
X37792824Y-35760899D01*
X37792829Y-35760902D01*
X37917126Y-35797398D01*
X37917128Y-35797398D01*
X38046668Y-35797398D01*
X38046670Y-35797398D01*
X38170967Y-35760902D01*
X38279947Y-35690865D01*
X38364780Y-35592961D01*
X38418595Y-35475124D01*
X38437031Y-35346898D01*
X38436039Y-35340000D01*
X38418595Y-35218672D01*
X38408683Y-35196968D01*
X38364780Y-35100835D01*
X38279947Y-35002931D01*
X38279946Y-35002930D01*
X38279945Y-35002929D01*
X38170971Y-34932896D01*
X38170968Y-34932894D01*
X38170967Y-34932894D01*
X38166281Y-34931518D01*
X38046672Y-34896398D01*
X38046670Y-34896398D01*
X37917126Y-34896398D01*
X37917123Y-34896398D01*
X37792831Y-34932893D01*
X37792824Y-34932896D01*
X37683850Y-35002929D01*
X37599015Y-35100836D01*
X37545200Y-35218672D01*
X37526765Y-35346895D01*
X37526765Y-35346900D01*
X34072140Y-35346900D01*
X34115362Y-35264546D01*
X34155800Y-35100485D01*
X34155800Y-34931515D01*
X34115362Y-34767454D01*
X34036838Y-34617838D01*
X34036836Y-34617836D01*
X34036836Y-34617835D01*
X34036836Y-34617834D01*
X33924790Y-34491361D01*
X33785729Y-34395375D01*
X33627739Y-34335457D01*
X33627737Y-34335456D01*
X33627736Y-34335456D01*
X33502096Y-34320201D01*
X33502090Y-34320200D01*
X33502085Y-34320200D01*
X33417915Y-34320200D01*
X33417910Y-34320200D01*
X33417903Y-34320201D01*
X33292263Y-34335456D01*
X33292261Y-34335457D01*
X33134270Y-34395375D01*
X32995210Y-34491361D01*
X32995209Y-34491361D01*
X32883163Y-34617834D01*
X32883163Y-34617835D01*
X32804638Y-34767452D01*
X32804637Y-34767455D01*
X32764200Y-34931512D01*
X32764200Y-35100487D01*
X31831501Y-35100487D01*
X31869297Y-35017726D01*
X31887733Y-34889500D01*
X31882485Y-34853002D01*
X31869297Y-34761274D01*
X31852628Y-34724774D01*
X31815482Y-34643437D01*
X31730649Y-34545533D01*
X31730648Y-34545532D01*
X31730647Y-34545531D01*
X31621673Y-34475498D01*
X31621670Y-34475496D01*
X31621669Y-34475496D01*
X31621666Y-34475495D01*
X31497374Y-34439000D01*
X31497372Y-34439000D01*
X31367828Y-34439000D01*
X31367825Y-34439000D01*
X31243533Y-34475495D01*
X31243526Y-34475498D01*
X31134552Y-34545531D01*
X31049717Y-34643438D01*
X30995902Y-34761274D01*
X30977467Y-34889497D01*
X30977467Y-34889502D01*
X23951785Y-34889502D01*
X23957033Y-34853000D01*
X23944733Y-34767454D01*
X23938597Y-34724774D01*
X23918397Y-34680542D01*
X23884782Y-34606937D01*
X23799949Y-34509033D01*
X23799948Y-34509032D01*
X23799947Y-34509031D01*
X23690973Y-34438998D01*
X23690970Y-34438996D01*
X23690969Y-34438996D01*
X23690966Y-34438995D01*
X23566674Y-34402500D01*
X23566672Y-34402500D01*
X23437128Y-34402500D01*
X23437125Y-34402500D01*
X23312833Y-34438995D01*
X23312826Y-34438998D01*
X23203852Y-34509031D01*
X23119017Y-34606938D01*
X23065202Y-34724774D01*
X23046767Y-34852997D01*
X23046767Y-34853002D01*
X3300500Y-34853002D01*
X3300500Y-34084487D01*
X37844200Y-34084487D01*
X37884637Y-34248544D01*
X37884638Y-34248547D01*
X37963163Y-34398164D01*
X37963163Y-34398165D01*
X38075209Y-34524638D01*
X38105478Y-34545531D01*
X38214271Y-34620625D01*
X38372261Y-34680543D01*
X38497915Y-34695800D01*
X38497920Y-34695800D01*
X38582080Y-34695800D01*
X38582085Y-34695800D01*
X38707739Y-34680543D01*
X38865729Y-34620625D01*
X39004789Y-34524639D01*
X39004790Y-34524638D01*
X39116836Y-34398165D01*
X39116836Y-34398164D01*
X39116835Y-34398164D01*
X39116838Y-34398162D01*
X39195362Y-34248546D01*
X39235800Y-34084485D01*
X39235800Y-33915515D01*
X39195362Y-33751454D01*
X39116838Y-33601838D01*
X39116836Y-33601836D01*
X39116836Y-33601835D01*
X39116836Y-33601834D01*
X39004790Y-33475361D01*
X38865729Y-33379375D01*
X38707739Y-33319457D01*
X38707737Y-33319456D01*
X38707736Y-33319456D01*
X38582096Y-33304201D01*
X38582090Y-33304200D01*
X38582085Y-33304200D01*
X38497915Y-33304200D01*
X38497910Y-33304200D01*
X38497903Y-33304201D01*
X38372263Y-33319456D01*
X38372261Y-33319457D01*
X38214270Y-33379375D01*
X38075210Y-33475361D01*
X38075209Y-33475361D01*
X37963163Y-33601834D01*
X37963163Y-33601835D01*
X37884638Y-33751452D01*
X37884637Y-33751455D01*
X37844200Y-33915512D01*
X37844200Y-34084487D01*
X3300500Y-34084487D01*
X3300500Y-32830402D01*
X29093467Y-32830402D01*
X29111902Y-32958625D01*
X29162075Y-33068487D01*
X29165718Y-33076463D01*
X29250551Y-33174367D01*
X29250552Y-33174368D01*
X29341081Y-33232547D01*
X29359531Y-33244404D01*
X29483828Y-33280900D01*
X29483830Y-33280900D01*
X29613370Y-33280900D01*
X29613372Y-33280900D01*
X29737669Y-33244404D01*
X29846649Y-33174367D01*
X29931482Y-33076463D01*
X29935125Y-33068487D01*
X32764200Y-33068487D01*
X32804637Y-33232544D01*
X32804638Y-33232547D01*
X32883163Y-33382164D01*
X32883163Y-33382165D01*
X32995209Y-33508638D01*
X33071865Y-33561550D01*
X33134271Y-33604625D01*
X33292261Y-33664543D01*
X33417915Y-33679800D01*
X33417920Y-33679800D01*
X33502080Y-33679800D01*
X33502085Y-33679800D01*
X33627739Y-33664543D01*
X33785729Y-33604625D01*
X33924789Y-33508639D01*
X33924790Y-33508638D01*
X34036836Y-33382165D01*
X34036836Y-33382164D01*
X34036835Y-33382164D01*
X34036838Y-33382162D01*
X34115362Y-33232546D01*
X34155800Y-33068485D01*
X34155800Y-32899515D01*
X34115362Y-32735454D01*
X34036838Y-32585838D01*
X34036836Y-32585836D01*
X34036836Y-32585835D01*
X34036836Y-32585834D01*
X33924790Y-32459361D01*
X33785729Y-32363375D01*
X33758272Y-32352962D01*
X33627739Y-32303457D01*
X33627737Y-32303456D01*
X33627736Y-32303456D01*
X33502096Y-32288201D01*
X33502090Y-32288200D01*
X33502085Y-32288200D01*
X33417915Y-32288200D01*
X33417910Y-32288200D01*
X33417903Y-32288201D01*
X33292263Y-32303456D01*
X33292261Y-32303457D01*
X33134270Y-32363375D01*
X32995210Y-32459361D01*
X32995209Y-32459361D01*
X32883163Y-32585834D01*
X32883163Y-32585835D01*
X32804638Y-32735452D01*
X32804637Y-32735455D01*
X32764200Y-32899512D01*
X32764200Y-33068487D01*
X29935125Y-33068487D01*
X29985297Y-32958626D01*
X30003733Y-32830400D01*
X29985297Y-32702174D01*
X29931482Y-32584337D01*
X29846649Y-32486433D01*
X29846648Y-32486432D01*
X29846647Y-32486431D01*
X29737673Y-32416398D01*
X29737670Y-32416396D01*
X29737669Y-32416396D01*
X29737666Y-32416395D01*
X29613374Y-32379900D01*
X29613372Y-32379900D01*
X29483828Y-32379900D01*
X29483825Y-32379900D01*
X29359533Y-32416395D01*
X29359526Y-32416398D01*
X29250552Y-32486431D01*
X29165717Y-32584338D01*
X29111902Y-32702174D01*
X29093467Y-32830397D01*
X29093467Y-32830402D01*
X3300500Y-32830402D01*
X3300500Y-31833828D01*
X4795623Y-31833828D01*
X4805943Y-31997857D01*
X4856732Y-32154173D01*
X4944797Y-32292939D01*
X4944798Y-32292940D01*
X4964567Y-32311504D01*
X5064607Y-32405448D01*
X5064606Y-32405448D01*
X5208630Y-32484626D01*
X5208632Y-32484627D01*
X5367823Y-32525500D01*
X5367826Y-32525500D01*
X5490925Y-32525500D01*
X5613053Y-32510072D01*
X5613054Y-32510071D01*
X5613058Y-32510071D01*
X5765871Y-32449568D01*
X5898837Y-32352963D01*
X6003600Y-32226326D01*
X6073579Y-32077613D01*
X6104376Y-31916170D01*
X6094056Y-31752140D01*
X6093751Y-31751202D01*
X30977467Y-31751202D01*
X30995902Y-31879425D01*
X31012686Y-31916176D01*
X31049718Y-31997263D01*
X31119340Y-32077612D01*
X31134552Y-32095168D01*
X31226363Y-32154171D01*
X31243531Y-32165204D01*
X31367828Y-32201700D01*
X31367830Y-32201700D01*
X31497370Y-32201700D01*
X31497372Y-32201700D01*
X31621669Y-32165204D01*
X31730649Y-32095167D01*
X31815482Y-31997263D01*
X31869297Y-31879426D01*
X31877861Y-31819861D01*
X31887733Y-31751202D01*
X31887733Y-31751197D01*
X31869297Y-31622974D01*
X31856899Y-31595826D01*
X31846841Y-31573802D01*
X36796967Y-31573802D01*
X36815402Y-31702025D01*
X36869217Y-31819861D01*
X36869218Y-31819863D01*
X36954051Y-31917767D01*
X36954052Y-31917768D01*
X37063026Y-31987801D01*
X37063031Y-31987804D01*
X37187328Y-32024300D01*
X37187330Y-32024300D01*
X37316870Y-32024300D01*
X37316872Y-32024300D01*
X37441169Y-31987804D01*
X37550149Y-31917767D01*
X37567708Y-31897502D01*
X39207967Y-31897502D01*
X39226402Y-32025725D01*
X39250099Y-32077613D01*
X39280218Y-32143563D01*
X39365051Y-32241467D01*
X39365052Y-32241468D01*
X39474026Y-32311501D01*
X39474031Y-32311504D01*
X39598328Y-32348000D01*
X39598330Y-32348000D01*
X39727870Y-32348000D01*
X39727872Y-32348000D01*
X39852169Y-32311504D01*
X39961149Y-32241467D01*
X40045982Y-32143563D01*
X40099797Y-32025726D01*
X40118233Y-31897500D01*
X40115634Y-31879426D01*
X40109078Y-31833828D01*
X45895623Y-31833828D01*
X45905943Y-31997857D01*
X45956732Y-32154173D01*
X46044797Y-32292939D01*
X46044798Y-32292940D01*
X46064567Y-32311504D01*
X46164607Y-32405448D01*
X46164606Y-32405448D01*
X46308630Y-32484626D01*
X46308632Y-32484627D01*
X46467823Y-32525500D01*
X46467826Y-32525500D01*
X46590925Y-32525500D01*
X46713053Y-32510072D01*
X46713054Y-32510071D01*
X46713058Y-32510071D01*
X46865871Y-32449568D01*
X46998837Y-32352963D01*
X47103600Y-32226326D01*
X47173579Y-32077613D01*
X47204376Y-31916170D01*
X47194056Y-31752140D01*
X47143268Y-31595829D01*
X47143267Y-31595828D01*
X47143267Y-31595826D01*
X47055202Y-31457060D01*
X46935392Y-31344551D01*
X46935393Y-31344551D01*
X46791369Y-31265373D01*
X46632179Y-31224500D01*
X46632177Y-31224500D01*
X46509075Y-31224500D01*
X46386946Y-31239927D01*
X46386943Y-31239928D01*
X46234129Y-31300432D01*
X46234125Y-31300434D01*
X46101162Y-31397037D01*
X45996399Y-31523674D01*
X45926420Y-31672387D01*
X45895624Y-31833823D01*
X45895623Y-31833828D01*
X40109078Y-31833828D01*
X40099797Y-31769274D01*
X40069085Y-31702025D01*
X40045982Y-31651437D01*
X39961149Y-31553533D01*
X39961148Y-31553532D01*
X39961147Y-31553531D01*
X39852173Y-31483498D01*
X39852170Y-31483496D01*
X39852169Y-31483496D01*
X39852166Y-31483495D01*
X39727874Y-31447000D01*
X39727872Y-31447000D01*
X39598328Y-31447000D01*
X39598325Y-31447000D01*
X39474033Y-31483495D01*
X39474026Y-31483498D01*
X39365052Y-31553531D01*
X39280217Y-31651438D01*
X39226402Y-31769274D01*
X39207967Y-31897497D01*
X39207967Y-31897502D01*
X37567708Y-31897502D01*
X37634982Y-31819863D01*
X37688797Y-31702026D01*
X37700163Y-31622974D01*
X37707233Y-31573802D01*
X37707233Y-31573797D01*
X37688797Y-31445574D01*
X37659199Y-31380764D01*
X37652224Y-31319977D01*
X37682310Y-31266700D01*
X37737966Y-31241282D01*
X37797933Y-31253433D01*
X37818444Y-31270205D01*
X37818598Y-31270029D01*
X37823951Y-31274667D01*
X37921246Y-31337195D01*
X37932931Y-31344704D01*
X38057228Y-31381200D01*
X38057230Y-31381200D01*
X38186770Y-31381200D01*
X38186772Y-31381200D01*
X38311069Y-31344704D01*
X38420049Y-31274667D01*
X38504882Y-31176763D01*
X38558697Y-31058926D01*
X38574358Y-30950002D01*
X39784867Y-30950002D01*
X39803302Y-31078225D01*
X39824087Y-31123736D01*
X39857118Y-31196063D01*
X39925228Y-31274667D01*
X39941952Y-31293968D01*
X40050926Y-31364001D01*
X40050931Y-31364004D01*
X40175228Y-31400500D01*
X40175230Y-31400500D01*
X40304770Y-31400500D01*
X40304772Y-31400500D01*
X40429069Y-31364004D01*
X40538049Y-31293967D01*
X40622882Y-31196063D01*
X40676697Y-31078226D01*
X40695133Y-30950000D01*
X40694908Y-30948438D01*
X40676697Y-30821774D01*
X40667117Y-30800797D01*
X40622882Y-30703937D01*
X40538049Y-30606033D01*
X40538048Y-30606032D01*
X40538047Y-30606031D01*
X40429073Y-30535998D01*
X40429070Y-30535996D01*
X40429069Y-30535996D01*
X40429066Y-30535995D01*
X40304774Y-30499500D01*
X40304772Y-30499500D01*
X40175228Y-30499500D01*
X40175225Y-30499500D01*
X40050933Y-30535995D01*
X40050926Y-30535998D01*
X39941952Y-30606031D01*
X39857117Y-30703938D01*
X39803302Y-30821774D01*
X39784867Y-30949997D01*
X39784867Y-30950002D01*
X38574358Y-30950002D01*
X38577133Y-30930700D01*
X38570005Y-30881126D01*
X38558697Y-30802474D01*
X38536057Y-30752900D01*
X38504882Y-30684637D01*
X38420049Y-30586733D01*
X38420048Y-30586732D01*
X38420047Y-30586731D01*
X38311073Y-30516698D01*
X38311070Y-30516696D01*
X38311069Y-30516696D01*
X38311066Y-30516695D01*
X38186774Y-30480200D01*
X38186772Y-30480200D01*
X38057228Y-30480200D01*
X38057225Y-30480200D01*
X37932933Y-30516695D01*
X37932926Y-30516698D01*
X37823952Y-30586731D01*
X37739117Y-30684638D01*
X37685302Y-30802474D01*
X37666867Y-30930697D01*
X37666867Y-30930702D01*
X37685302Y-31058925D01*
X37685302Y-31058927D01*
X37714900Y-31123736D01*
X37721875Y-31184522D01*
X37691788Y-31237799D01*
X37636132Y-31263217D01*
X37576166Y-31251066D01*
X37555655Y-31234294D01*
X37555502Y-31234471D01*
X37550148Y-31229832D01*
X37441173Y-31159798D01*
X37441170Y-31159796D01*
X37441169Y-31159796D01*
X37441166Y-31159795D01*
X37316874Y-31123300D01*
X37316872Y-31123300D01*
X37187328Y-31123300D01*
X37187325Y-31123300D01*
X37063033Y-31159795D01*
X37063026Y-31159798D01*
X36954052Y-31229831D01*
X36869217Y-31327738D01*
X36815402Y-31445574D01*
X36796967Y-31573797D01*
X36796967Y-31573802D01*
X31846841Y-31573802D01*
X31815482Y-31505137D01*
X31730649Y-31407233D01*
X31730648Y-31407232D01*
X31730647Y-31407231D01*
X31621673Y-31337198D01*
X31621670Y-31337196D01*
X31621669Y-31337196D01*
X31621666Y-31337195D01*
X31497374Y-31300700D01*
X31497372Y-31300700D01*
X31367828Y-31300700D01*
X31367825Y-31300700D01*
X31243533Y-31337195D01*
X31243526Y-31337198D01*
X31134552Y-31407231D01*
X31049717Y-31505138D01*
X30995902Y-31622974D01*
X30977467Y-31751197D01*
X30977467Y-31751202D01*
X6093751Y-31751202D01*
X6043268Y-31595829D01*
X6043267Y-31595828D01*
X6043267Y-31595826D01*
X5955202Y-31457060D01*
X5835392Y-31344551D01*
X5835393Y-31344551D01*
X5691369Y-31265373D01*
X5532179Y-31224500D01*
X5532177Y-31224500D01*
X5409075Y-31224500D01*
X5286946Y-31239927D01*
X5286943Y-31239928D01*
X5134129Y-31300432D01*
X5134125Y-31300434D01*
X5001162Y-31397037D01*
X4896399Y-31523674D01*
X4826420Y-31672387D01*
X4795624Y-31833823D01*
X4795623Y-31833828D01*
X3300500Y-31833828D01*
X3300500Y-31214802D01*
X9989767Y-31214802D01*
X10008202Y-31343025D01*
X10052746Y-31440561D01*
X10062018Y-31460863D01*
X10129261Y-31538467D01*
X10146852Y-31558768D01*
X10224243Y-31608504D01*
X10255831Y-31628804D01*
X10380128Y-31665300D01*
X10380130Y-31665300D01*
X10509670Y-31665300D01*
X10509672Y-31665300D01*
X10633969Y-31628804D01*
X10742949Y-31558767D01*
X10827782Y-31460863D01*
X10881597Y-31343026D01*
X10891425Y-31274668D01*
X10900033Y-31214802D01*
X10900033Y-31214797D01*
X10882211Y-31090842D01*
X10892644Y-31030553D01*
X10936522Y-30987911D01*
X10997085Y-30979203D01*
X11033726Y-30993469D01*
X11042272Y-30998961D01*
X11051831Y-31005104D01*
X11176128Y-31041600D01*
X11176130Y-31041600D01*
X11305670Y-31041600D01*
X11305672Y-31041600D01*
X11429969Y-31005104D01*
X11538949Y-30935067D01*
X11623782Y-30837163D01*
X11662263Y-30752902D01*
X23169867Y-30752902D01*
X23188302Y-30881125D01*
X23233094Y-30979203D01*
X23242118Y-30998963D01*
X23326951Y-31096867D01*
X23326952Y-31096868D01*
X23435926Y-31166901D01*
X23435931Y-31166904D01*
X23560228Y-31203400D01*
X23560230Y-31203400D01*
X23689770Y-31203400D01*
X23689772Y-31203400D01*
X23720077Y-31194502D01*
X26458067Y-31194502D01*
X26476502Y-31322725D01*
X26530317Y-31440561D01*
X26530318Y-31440563D01*
X26567521Y-31483498D01*
X26615152Y-31538468D01*
X26704408Y-31595829D01*
X26724131Y-31608504D01*
X26848428Y-31645000D01*
X26848430Y-31645000D01*
X26977970Y-31645000D01*
X26977972Y-31645000D01*
X27102269Y-31608504D01*
X27211249Y-31538467D01*
X27296082Y-31440563D01*
X27349897Y-31322726D01*
X27361801Y-31239929D01*
X27368333Y-31194502D01*
X27368333Y-31194497D01*
X27349897Y-31066274D01*
X27338628Y-31041599D01*
X27296082Y-30948437D01*
X27211249Y-30850533D01*
X27211248Y-30850532D01*
X27211247Y-30850531D01*
X27102273Y-30780498D01*
X27102270Y-30780496D01*
X27102269Y-30780496D01*
X27084733Y-30775347D01*
X26977974Y-30744000D01*
X26977972Y-30744000D01*
X26848428Y-30744000D01*
X26848425Y-30744000D01*
X26724133Y-30780495D01*
X26724126Y-30780498D01*
X26615152Y-30850531D01*
X26530317Y-30948438D01*
X26476502Y-31066274D01*
X26458067Y-31194497D01*
X26458067Y-31194502D01*
X23720077Y-31194502D01*
X23814069Y-31166904D01*
X23923049Y-31096867D01*
X24007882Y-30998963D01*
X24061697Y-30881126D01*
X24069523Y-30826696D01*
X24080133Y-30752902D01*
X24080133Y-30752897D01*
X24061697Y-30624674D01*
X24034629Y-30565404D01*
X24007882Y-30506837D01*
X23923049Y-30408933D01*
X23923048Y-30408932D01*
X23923047Y-30408931D01*
X23814073Y-30338898D01*
X23814070Y-30338896D01*
X23814069Y-30338896D01*
X23814066Y-30338895D01*
X23689774Y-30302400D01*
X23689772Y-30302400D01*
X23560228Y-30302400D01*
X23560225Y-30302400D01*
X23435933Y-30338895D01*
X23435926Y-30338898D01*
X23326952Y-30408931D01*
X23242117Y-30506838D01*
X23188302Y-30624674D01*
X23169867Y-30752897D01*
X23169867Y-30752902D01*
X11662263Y-30752902D01*
X11677597Y-30719326D01*
X11694480Y-30601900D01*
X11696033Y-30591102D01*
X11696033Y-30591097D01*
X11677597Y-30462874D01*
X11623782Y-30345037D01*
X11538949Y-30247133D01*
X11538948Y-30247132D01*
X11538947Y-30247131D01*
X11429973Y-30177098D01*
X11429970Y-30177096D01*
X11429969Y-30177096D01*
X11429966Y-30177095D01*
X11305674Y-30140600D01*
X11305672Y-30140600D01*
X11176128Y-30140600D01*
X11176125Y-30140600D01*
X11051833Y-30177095D01*
X11051826Y-30177098D01*
X10942852Y-30247131D01*
X10858017Y-30345038D01*
X10804202Y-30462874D01*
X10785767Y-30591097D01*
X10785767Y-30591104D01*
X10803588Y-30715058D01*
X10793155Y-30775347D01*
X10749276Y-30817989D01*
X10688714Y-30826696D01*
X10652074Y-30812431D01*
X10633972Y-30800797D01*
X10633966Y-30800795D01*
X10509674Y-30764300D01*
X10509672Y-30764300D01*
X10380128Y-30764300D01*
X10380125Y-30764300D01*
X10255833Y-30800795D01*
X10255826Y-30800798D01*
X10146852Y-30870831D01*
X10062017Y-30968738D01*
X10008202Y-31086574D01*
X9989767Y-31214797D01*
X9989767Y-31214802D01*
X3300500Y-31214802D01*
X3300500Y-29400002D01*
X16954867Y-29400002D01*
X16973302Y-29528225D01*
X16992846Y-29571019D01*
X17027118Y-29646063D01*
X17106257Y-29737396D01*
X17111952Y-29743968D01*
X17210703Y-29807431D01*
X17220931Y-29814004D01*
X17323984Y-29844262D01*
X17374491Y-29878797D01*
X17395053Y-29936424D01*
X17386147Y-29980378D01*
X17366601Y-30023176D01*
X17348167Y-30151397D01*
X17348167Y-30151402D01*
X17366602Y-30279625D01*
X17396476Y-30345038D01*
X17420418Y-30397463D01*
X17430357Y-30408933D01*
X17505252Y-30495368D01*
X17568471Y-30535996D01*
X17614231Y-30565404D01*
X17738528Y-30601900D01*
X17738530Y-30601900D01*
X17868070Y-30601900D01*
X17868072Y-30601900D01*
X17992369Y-30565404D01*
X18101349Y-30495367D01*
X18186182Y-30397463D01*
X18239997Y-30279626D01*
X18254738Y-30177098D01*
X18258433Y-30151402D01*
X18258433Y-30151397D01*
X18239997Y-30023174D01*
X18186182Y-29905338D01*
X18186182Y-29905337D01*
X18101349Y-29807433D01*
X18101348Y-29807432D01*
X18101347Y-29807431D01*
X17992373Y-29737398D01*
X17992370Y-29737396D01*
X17992369Y-29737396D01*
X17992366Y-29737395D01*
X17889315Y-29707137D01*
X17838808Y-29672601D01*
X17818246Y-29614974D01*
X17827152Y-29571022D01*
X17846697Y-29528226D01*
X17846697Y-29528224D01*
X17846698Y-29528223D01*
X17865133Y-29400002D01*
X17865133Y-29399997D01*
X17846697Y-29271774D01*
X17792882Y-29153938D01*
X17792882Y-29153937D01*
X17708049Y-29056033D01*
X17708048Y-29056032D01*
X17708047Y-29056031D01*
X17599073Y-28985998D01*
X17599070Y-28985996D01*
X17599069Y-28985996D01*
X17599066Y-28985995D01*
X17474774Y-28949500D01*
X17474772Y-28949500D01*
X17345228Y-28949500D01*
X17345225Y-28949500D01*
X17220933Y-28985995D01*
X17220926Y-28985998D01*
X17111952Y-29056031D01*
X17027117Y-29153938D01*
X16973302Y-29271774D01*
X16954867Y-29399997D01*
X16954867Y-29400002D01*
X3300500Y-29400002D01*
X3300500Y-29099000D01*
X3319407Y-29040809D01*
X3368907Y-29004845D01*
X3399500Y-29000000D01*
X5049999Y-29000000D01*
X5050000Y-29000000D01*
X5050000Y-28631803D01*
X14688065Y-28631803D01*
X14706500Y-28760026D01*
X14760315Y-28877862D01*
X14760316Y-28877864D01*
X14822388Y-28949500D01*
X14845150Y-28975769D01*
X14946355Y-29040809D01*
X14954129Y-29045805D01*
X15078426Y-29082301D01*
X15078428Y-29082301D01*
X15207968Y-29082301D01*
X15207970Y-29082301D01*
X15332267Y-29045805D01*
X15441247Y-28975768D01*
X15526080Y-28877864D01*
X15579895Y-28760027D01*
X15598331Y-28631801D01*
X15596605Y-28619799D01*
X15579895Y-28503575D01*
X15539609Y-28415363D01*
X15526080Y-28385738D01*
X15441247Y-28287834D01*
X15441246Y-28287833D01*
X15441245Y-28287832D01*
X15332271Y-28217799D01*
X15332268Y-28217797D01*
X15332267Y-28217797D01*
X15332264Y-28217796D01*
X15207972Y-28181301D01*
X15207970Y-28181301D01*
X15078426Y-28181301D01*
X15078423Y-28181301D01*
X14954131Y-28217796D01*
X14954124Y-28217799D01*
X14845150Y-28287832D01*
X14760315Y-28385739D01*
X14706500Y-28503575D01*
X14688065Y-28631798D01*
X14688065Y-28631803D01*
X5050000Y-28631803D01*
X5050000Y-28169302D01*
X24981467Y-28169302D01*
X24999902Y-28297525D01*
X25050201Y-28407663D01*
X25053718Y-28415363D01*
X25130153Y-28503575D01*
X25138552Y-28513268D01*
X25247526Y-28583301D01*
X25247531Y-28583304D01*
X25371828Y-28619800D01*
X25371830Y-28619800D01*
X25501370Y-28619800D01*
X25501372Y-28619800D01*
X25625669Y-28583304D01*
X25734649Y-28513267D01*
X25819482Y-28415363D01*
X25873297Y-28297526D01*
X25891733Y-28169300D01*
X25890626Y-28161602D01*
X25873297Y-28041074D01*
X25830346Y-27947026D01*
X25819482Y-27923237D01*
X25734649Y-27825333D01*
X25734648Y-27825332D01*
X25734647Y-27825331D01*
X25724488Y-27818802D01*
X37644167Y-27818802D01*
X37662602Y-27947025D01*
X37702037Y-28033374D01*
X37716418Y-28064863D01*
X37800237Y-28161597D01*
X37801252Y-28162768D01*
X37910226Y-28232801D01*
X37910231Y-28232804D01*
X38034528Y-28269300D01*
X38034530Y-28269300D01*
X38164070Y-28269300D01*
X38164072Y-28269300D01*
X38288369Y-28232804D01*
X38397349Y-28162767D01*
X38398358Y-28161602D01*
X40419867Y-28161602D01*
X40438302Y-28289825D01*
X40492117Y-28407661D01*
X40492118Y-28407663D01*
X40575225Y-28503575D01*
X40576952Y-28505568D01*
X40685926Y-28575601D01*
X40685931Y-28575604D01*
X40810228Y-28612100D01*
X40810230Y-28612100D01*
X40939770Y-28612100D01*
X40939772Y-28612100D01*
X41064069Y-28575604D01*
X41173049Y-28505567D01*
X41257882Y-28407663D01*
X41311697Y-28289826D01*
X41317842Y-28247084D01*
X41330133Y-28161602D01*
X41330133Y-28161597D01*
X41311697Y-28033374D01*
X41257882Y-27915537D01*
X41173049Y-27817633D01*
X41173048Y-27817632D01*
X41173047Y-27817631D01*
X41064073Y-27747598D01*
X41064070Y-27747596D01*
X41064069Y-27747596D01*
X41064066Y-27747595D01*
X40939774Y-27711100D01*
X40939772Y-27711100D01*
X40810228Y-27711100D01*
X40810225Y-27711100D01*
X40685933Y-27747595D01*
X40685926Y-27747598D01*
X40576952Y-27817631D01*
X40492117Y-27915538D01*
X40438302Y-28033374D01*
X40419867Y-28161597D01*
X40419867Y-28161602D01*
X38398358Y-28161602D01*
X38482182Y-28064863D01*
X38535997Y-27947026D01*
X38554433Y-27818800D01*
X38554265Y-27817633D01*
X38535997Y-27690574D01*
X38482182Y-27572738D01*
X38482182Y-27572737D01*
X38397349Y-27474833D01*
X38397348Y-27474832D01*
X38397347Y-27474831D01*
X38288373Y-27404798D01*
X38288370Y-27404796D01*
X38288369Y-27404796D01*
X38288366Y-27404795D01*
X38164074Y-27368300D01*
X38164072Y-27368300D01*
X38034528Y-27368300D01*
X38034525Y-27368300D01*
X37910233Y-27404795D01*
X37910226Y-27404798D01*
X37801252Y-27474831D01*
X37716417Y-27572738D01*
X37662602Y-27690574D01*
X37644167Y-27818797D01*
X37644167Y-27818802D01*
X25724488Y-27818802D01*
X25625673Y-27755298D01*
X25625670Y-27755296D01*
X25625669Y-27755296D01*
X25625666Y-27755295D01*
X25501374Y-27718800D01*
X25501372Y-27718800D01*
X25371828Y-27718800D01*
X25371825Y-27718800D01*
X25247533Y-27755295D01*
X25247526Y-27755298D01*
X25138552Y-27825331D01*
X25053717Y-27923238D01*
X24999902Y-28041074D01*
X24981467Y-28169297D01*
X24981467Y-28169302D01*
X5050000Y-28169302D01*
X5050000Y-25997502D01*
X19142667Y-25997502D01*
X19161102Y-26125725D01*
X19179464Y-26165931D01*
X19214918Y-26243563D01*
X19298047Y-26339500D01*
X19299752Y-26341468D01*
X19353479Y-26375996D01*
X19408731Y-26411504D01*
X19533028Y-26448000D01*
X19556583Y-26448000D01*
X19614774Y-26466907D01*
X19650738Y-26516407D01*
X19654575Y-26532911D01*
X19669702Y-26638125D01*
X19681491Y-26663938D01*
X19723518Y-26755963D01*
X19753011Y-26790000D01*
X19808352Y-26853868D01*
X19917326Y-26923901D01*
X19917331Y-26923904D01*
X20041628Y-26960400D01*
X20041630Y-26960400D01*
X20171170Y-26960400D01*
X20171172Y-26960400D01*
X20295469Y-26923904D01*
X20317101Y-26910002D01*
X21914867Y-26910002D01*
X21933302Y-27038225D01*
X21977027Y-27133967D01*
X21987118Y-27156063D01*
X22060281Y-27240499D01*
X22071952Y-27253968D01*
X22180926Y-27324001D01*
X22180931Y-27324004D01*
X22305228Y-27360500D01*
X22305230Y-27360500D01*
X22434770Y-27360500D01*
X22434772Y-27360500D01*
X22559069Y-27324004D01*
X22668049Y-27253967D01*
X22752882Y-27156063D01*
X22806697Y-27038226D01*
X22823134Y-26923904D01*
X22825133Y-26910002D01*
X22825133Y-26909997D01*
X22807880Y-26790002D01*
X28044867Y-26790002D01*
X28063302Y-26918225D01*
X28065896Y-26923904D01*
X28117118Y-27036063D01*
X28201951Y-27133967D01*
X28201952Y-27133968D01*
X28236330Y-27156061D01*
X28310931Y-27204004D01*
X28435228Y-27240500D01*
X28435230Y-27240500D01*
X28564770Y-27240500D01*
X28564772Y-27240500D01*
X28689069Y-27204004D01*
X28798049Y-27133967D01*
X28882882Y-27036063D01*
X28936697Y-26918226D01*
X28955133Y-26790002D01*
X34813067Y-26790002D01*
X34831502Y-26918225D01*
X34834096Y-26923904D01*
X34885318Y-27036063D01*
X34970151Y-27133967D01*
X34970152Y-27133968D01*
X35004530Y-27156061D01*
X35079131Y-27204004D01*
X35203428Y-27240500D01*
X35203430Y-27240500D01*
X35332970Y-27240500D01*
X35332972Y-27240500D01*
X35457269Y-27204004D01*
X35566249Y-27133967D01*
X35651082Y-27036063D01*
X35704897Y-26918226D01*
X35723333Y-26790000D01*
X35722150Y-26781774D01*
X35704897Y-26661774D01*
X35651082Y-26543938D01*
X35651082Y-26543937D01*
X35566249Y-26446033D01*
X35566248Y-26446032D01*
X35566247Y-26446031D01*
X35457273Y-26375998D01*
X35457270Y-26375996D01*
X35457269Y-26375996D01*
X35457266Y-26375995D01*
X35332974Y-26339500D01*
X35332972Y-26339500D01*
X35203428Y-26339500D01*
X35203425Y-26339500D01*
X35079133Y-26375995D01*
X35079126Y-26375998D01*
X34970152Y-26446031D01*
X34885317Y-26543938D01*
X34831502Y-26661774D01*
X34813067Y-26789997D01*
X34813067Y-26790002D01*
X28955133Y-26790002D01*
X28955133Y-26790000D01*
X28953950Y-26781774D01*
X28936697Y-26661774D01*
X28882882Y-26543938D01*
X28882882Y-26543937D01*
X28798049Y-26446033D01*
X28798048Y-26446032D01*
X28798047Y-26446031D01*
X28689073Y-26375998D01*
X28689070Y-26375996D01*
X28689069Y-26375996D01*
X28689066Y-26375995D01*
X28564774Y-26339500D01*
X28564772Y-26339500D01*
X28435228Y-26339500D01*
X28435225Y-26339500D01*
X28310933Y-26375995D01*
X28310926Y-26375998D01*
X28201952Y-26446031D01*
X28117117Y-26543938D01*
X28063302Y-26661774D01*
X28044867Y-26789997D01*
X28044867Y-26790002D01*
X22807880Y-26790002D01*
X22806697Y-26781774D01*
X22752882Y-26663938D01*
X22752882Y-26663937D01*
X22668049Y-26566033D01*
X22668048Y-26566032D01*
X22668047Y-26566031D01*
X22559073Y-26495998D01*
X22559070Y-26495996D01*
X22559069Y-26495996D01*
X22559066Y-26495995D01*
X22434774Y-26459500D01*
X22434772Y-26459500D01*
X22305228Y-26459500D01*
X22305225Y-26459500D01*
X22180933Y-26495995D01*
X22180926Y-26495998D01*
X22071952Y-26566031D01*
X21987117Y-26663938D01*
X21933302Y-26781774D01*
X21914867Y-26909997D01*
X21914867Y-26910002D01*
X20317101Y-26910002D01*
X20404449Y-26853867D01*
X20489282Y-26755963D01*
X20543097Y-26638126D01*
X20558225Y-26532911D01*
X20561533Y-26509902D01*
X20561533Y-26509897D01*
X20543097Y-26381674D01*
X20524735Y-26341467D01*
X20489282Y-26263837D01*
X20404449Y-26165933D01*
X20404448Y-26165932D01*
X20404447Y-26165931D01*
X20295473Y-26095898D01*
X20295470Y-26095896D01*
X20295469Y-26095896D01*
X20295466Y-26095895D01*
X20171174Y-26059400D01*
X20171172Y-26059400D01*
X20147617Y-26059400D01*
X20089426Y-26040493D01*
X20053462Y-25990993D01*
X20049625Y-25974489D01*
X20034497Y-25869274D01*
X19985991Y-25763063D01*
X19980682Y-25751437D01*
X19895849Y-25653533D01*
X19895848Y-25653532D01*
X19895847Y-25653531D01*
X19786873Y-25583498D01*
X19786870Y-25583496D01*
X19786869Y-25583496D01*
X19786866Y-25583495D01*
X19662574Y-25547000D01*
X19662572Y-25547000D01*
X19533028Y-25547000D01*
X19533025Y-25547000D01*
X19408733Y-25583495D01*
X19408726Y-25583498D01*
X19299752Y-25653531D01*
X19214917Y-25751438D01*
X19161102Y-25869274D01*
X19142667Y-25997497D01*
X19142667Y-25997502D01*
X5050000Y-25997502D01*
X5050000Y-25517002D01*
X21855167Y-25517002D01*
X21873602Y-25645225D01*
X21922109Y-25751438D01*
X21927418Y-25763063D01*
X22012251Y-25860967D01*
X22012252Y-25860968D01*
X22121226Y-25931001D01*
X22121231Y-25931004D01*
X22245528Y-25967500D01*
X22245530Y-25967500D01*
X22375070Y-25967500D01*
X22375072Y-25967500D01*
X22499369Y-25931004D01*
X22608349Y-25860967D01*
X22693182Y-25763063D01*
X22746997Y-25645226D01*
X22765433Y-25517000D01*
X22746997Y-25388774D01*
X22693182Y-25270937D01*
X22608349Y-25173033D01*
X22608348Y-25173032D01*
X22608347Y-25173031D01*
X22499373Y-25102998D01*
X22499370Y-25102996D01*
X22499369Y-25102996D01*
X22499366Y-25102995D01*
X22375074Y-25066500D01*
X22375072Y-25066500D01*
X22245528Y-25066500D01*
X22245525Y-25066500D01*
X22121233Y-25102995D01*
X22121226Y-25102998D01*
X22012252Y-25173031D01*
X21927417Y-25270938D01*
X21873602Y-25388774D01*
X21855167Y-25516997D01*
X21855167Y-25517002D01*
X5050000Y-25517002D01*
X5050000Y-23992402D01*
X20356267Y-23992402D01*
X20374702Y-24120625D01*
X20423420Y-24227300D01*
X20428518Y-24238463D01*
X20450469Y-24263796D01*
X20513352Y-24336368D01*
X20622326Y-24406401D01*
X20622331Y-24406404D01*
X20746628Y-24442900D01*
X20746630Y-24442900D01*
X20876170Y-24442900D01*
X20876172Y-24442900D01*
X21000469Y-24406404D01*
X21109449Y-24336367D01*
X21194282Y-24238463D01*
X21248097Y-24120626D01*
X21254242Y-24077884D01*
X21266533Y-23992402D01*
X21266533Y-23992397D01*
X21248097Y-23864174D01*
X21223433Y-23810168D01*
X21194282Y-23746337D01*
X21109449Y-23648433D01*
X21109448Y-23648432D01*
X21109447Y-23648431D01*
X21000473Y-23578398D01*
X21000470Y-23578396D01*
X21000469Y-23578396D01*
X21000466Y-23578395D01*
X20876174Y-23541900D01*
X20876172Y-23541900D01*
X20746628Y-23541900D01*
X20746625Y-23541900D01*
X20622333Y-23578395D01*
X20622326Y-23578398D01*
X20513352Y-23648431D01*
X20428517Y-23746338D01*
X20374702Y-23864174D01*
X20356267Y-23992397D01*
X20356267Y-23992402D01*
X5050000Y-23992402D01*
X5050000Y-23466202D01*
X29459967Y-23466202D01*
X29478402Y-23594425D01*
X29503067Y-23648433D01*
X29532218Y-23712263D01*
X29561743Y-23746337D01*
X29617052Y-23810168D01*
X29726026Y-23880201D01*
X29726031Y-23880204D01*
X29850328Y-23916700D01*
X29850330Y-23916700D01*
X29986485Y-23916700D01*
X30044676Y-23935607D01*
X30080640Y-23985107D01*
X30080640Y-24046293D01*
X30061305Y-24080530D01*
X30035218Y-24110636D01*
X29981402Y-24228474D01*
X29962967Y-24356697D01*
X29962967Y-24356702D01*
X29981402Y-24484925D01*
X30010927Y-24549574D01*
X30035218Y-24602763D01*
X30100237Y-24677800D01*
X30120052Y-24700668D01*
X30229026Y-24770701D01*
X30229031Y-24770704D01*
X30353328Y-24807200D01*
X30353330Y-24807200D01*
X30482870Y-24807200D01*
X30482872Y-24807200D01*
X30607169Y-24770704D01*
X30716149Y-24700667D01*
X30735961Y-24677802D01*
X36627367Y-24677802D01*
X36645802Y-24806025D01*
X36646339Y-24807200D01*
X36699618Y-24923863D01*
X36784451Y-25021767D01*
X36784452Y-25021768D01*
X36854057Y-25066500D01*
X36893431Y-25091804D01*
X37017728Y-25128300D01*
X37017730Y-25128300D01*
X37147270Y-25128300D01*
X37147272Y-25128300D01*
X37271569Y-25091804D01*
X37380549Y-25021767D01*
X37465382Y-24923863D01*
X37519197Y-24806026D01*
X37537633Y-24677800D01*
X37526844Y-24602763D01*
X37519197Y-24549574D01*
X37470480Y-24442900D01*
X37465382Y-24431737D01*
X37380549Y-24333833D01*
X37380548Y-24333832D01*
X37380547Y-24333831D01*
X37271573Y-24263798D01*
X37271570Y-24263796D01*
X37271569Y-24263796D01*
X37271566Y-24263795D01*
X37147274Y-24227300D01*
X37147272Y-24227300D01*
X37017728Y-24227300D01*
X37017725Y-24227300D01*
X36893433Y-24263795D01*
X36893426Y-24263798D01*
X36784452Y-24333831D01*
X36699617Y-24431738D01*
X36645802Y-24549574D01*
X36627367Y-24677797D01*
X36627367Y-24677802D01*
X30735961Y-24677802D01*
X30800982Y-24602763D01*
X30854797Y-24484926D01*
X30873233Y-24356700D01*
X30869945Y-24333833D01*
X30854797Y-24228474D01*
X30854261Y-24227300D01*
X30800982Y-24110637D01*
X30716149Y-24012733D01*
X30716148Y-24012732D01*
X30716147Y-24012731D01*
X30607173Y-23942698D01*
X30607170Y-23942696D01*
X30607169Y-23942696D01*
X30607166Y-23942695D01*
X30482874Y-23906200D01*
X30482872Y-23906200D01*
X30353328Y-23906200D01*
X30346715Y-23906200D01*
X30288524Y-23887293D01*
X30252560Y-23837793D01*
X30252560Y-23776607D01*
X30271895Y-23742370D01*
X30280169Y-23732819D01*
X30297982Y-23712263D01*
X30351797Y-23594426D01*
X30370233Y-23466200D01*
X30351797Y-23337974D01*
X30297982Y-23220137D01*
X30213149Y-23122233D01*
X30213148Y-23122232D01*
X30213147Y-23122231D01*
X30104173Y-23052198D01*
X30104170Y-23052196D01*
X30104169Y-23052196D01*
X30104166Y-23052195D01*
X29979874Y-23015700D01*
X29979872Y-23015700D01*
X29850328Y-23015700D01*
X29850325Y-23015700D01*
X29726033Y-23052195D01*
X29726026Y-23052198D01*
X29617052Y-23122231D01*
X29532217Y-23220138D01*
X29478402Y-23337974D01*
X29459967Y-23466197D01*
X29459967Y-23466202D01*
X5050000Y-23466202D01*
X5050000Y-21999702D01*
X37118667Y-21999702D01*
X37137102Y-22127925D01*
X37190917Y-22245761D01*
X37190918Y-22245763D01*
X37275751Y-22343667D01*
X37275752Y-22343668D01*
X37384726Y-22413701D01*
X37384731Y-22413704D01*
X37509028Y-22450200D01*
X37509030Y-22450200D01*
X37638570Y-22450200D01*
X37638572Y-22450200D01*
X37762869Y-22413704D01*
X37871849Y-22343667D01*
X37956682Y-22245763D01*
X38010497Y-22127926D01*
X38028933Y-21999700D01*
X38010497Y-21871474D01*
X37956682Y-21753637D01*
X37871849Y-21655733D01*
X37871848Y-21655732D01*
X37871847Y-21655731D01*
X37762873Y-21585698D01*
X37762870Y-21585696D01*
X37762869Y-21585696D01*
X37762866Y-21585695D01*
X37638574Y-21549200D01*
X37638572Y-21549200D01*
X37509028Y-21549200D01*
X37509025Y-21549200D01*
X37384733Y-21585695D01*
X37384726Y-21585698D01*
X37275752Y-21655731D01*
X37190917Y-21753638D01*
X37137102Y-21871474D01*
X37118667Y-21999697D01*
X37118667Y-21999702D01*
X5050000Y-21999702D01*
X5050000Y-21182302D01*
X36292567Y-21182302D01*
X36311002Y-21310525D01*
X36364817Y-21428361D01*
X36364818Y-21428363D01*
X36449651Y-21526267D01*
X36449652Y-21526268D01*
X36558626Y-21596301D01*
X36558631Y-21596304D01*
X36682928Y-21632800D01*
X36682930Y-21632800D01*
X36812470Y-21632800D01*
X36812472Y-21632800D01*
X36936769Y-21596304D01*
X37045749Y-21526267D01*
X37130582Y-21428363D01*
X37184397Y-21310526D01*
X37202833Y-21182300D01*
X37184397Y-21054074D01*
X37130582Y-20936237D01*
X37045749Y-20838333D01*
X37045748Y-20838332D01*
X37045747Y-20838331D01*
X36936773Y-20768298D01*
X36936770Y-20768296D01*
X36936769Y-20768296D01*
X36936766Y-20768295D01*
X36812474Y-20731800D01*
X36812472Y-20731800D01*
X36682928Y-20731800D01*
X36682925Y-20731800D01*
X36558633Y-20768295D01*
X36558626Y-20768298D01*
X36449652Y-20838331D01*
X36364817Y-20936238D01*
X36311002Y-21054074D01*
X36292567Y-21182297D01*
X36292567Y-21182302D01*
X5050000Y-21182302D01*
X5050000Y-19669802D01*
X38168767Y-19669802D01*
X38187202Y-19798025D01*
X38241017Y-19915861D01*
X38241018Y-19915863D01*
X38325851Y-20013767D01*
X38325852Y-20013768D01*
X38434826Y-20083801D01*
X38434831Y-20083804D01*
X38559128Y-20120300D01*
X38559130Y-20120300D01*
X38688670Y-20120300D01*
X38688672Y-20120300D01*
X38812969Y-20083804D01*
X38921949Y-20013767D01*
X39006782Y-19915863D01*
X39060597Y-19798026D01*
X39079033Y-19669800D01*
X39060597Y-19541574D01*
X39006782Y-19423737D01*
X38921949Y-19325833D01*
X38921948Y-19325832D01*
X38921947Y-19325831D01*
X38812973Y-19255798D01*
X38812970Y-19255796D01*
X38812969Y-19255796D01*
X38779821Y-19246063D01*
X38688674Y-19219300D01*
X38688672Y-19219300D01*
X38559128Y-19219300D01*
X38559125Y-19219300D01*
X38434833Y-19255795D01*
X38434826Y-19255798D01*
X38325852Y-19325831D01*
X38241017Y-19423738D01*
X38187202Y-19541574D01*
X38168767Y-19669797D01*
X38168767Y-19669802D01*
X5050000Y-19669802D01*
X5050000Y-19000002D01*
X17494867Y-19000002D01*
X17513302Y-19128225D01*
X17567117Y-19246061D01*
X17567118Y-19246063D01*
X17636238Y-19325833D01*
X17651952Y-19343968D01*
X17760926Y-19414001D01*
X17760931Y-19414004D01*
X17885228Y-19450500D01*
X17885230Y-19450500D01*
X18014770Y-19450500D01*
X18014772Y-19450500D01*
X18139069Y-19414004D01*
X18248049Y-19343967D01*
X18332882Y-19246063D01*
X18386697Y-19128226D01*
X18392842Y-19085484D01*
X18405133Y-19000002D01*
X18405133Y-18999997D01*
X18386697Y-18871774D01*
X18332882Y-18753938D01*
X18332882Y-18753937D01*
X18248049Y-18656033D01*
X18248048Y-18656032D01*
X18248047Y-18656031D01*
X18176424Y-18610002D01*
X21144867Y-18610002D01*
X21163302Y-18738225D01*
X21217117Y-18856061D01*
X21217118Y-18856063D01*
X21301951Y-18953967D01*
X21301952Y-18953968D01*
X21373575Y-18999997D01*
X21410931Y-19024004D01*
X21535228Y-19060500D01*
X21535230Y-19060500D01*
X21664770Y-19060500D01*
X21664772Y-19060500D01*
X21789069Y-19024004D01*
X21898049Y-18953967D01*
X21982882Y-18856063D01*
X22036697Y-18738226D01*
X22042842Y-18695484D01*
X22055133Y-18610002D01*
X22055133Y-18609997D01*
X22036697Y-18481774D01*
X21982882Y-18363938D01*
X21982882Y-18363937D01*
X21898049Y-18266033D01*
X21898048Y-18266032D01*
X21898047Y-18266031D01*
X21789073Y-18195998D01*
X21789070Y-18195996D01*
X21789069Y-18195996D01*
X21789066Y-18195995D01*
X21664774Y-18159500D01*
X21664772Y-18159500D01*
X21535228Y-18159500D01*
X21535225Y-18159500D01*
X21410933Y-18195995D01*
X21410926Y-18195998D01*
X21301952Y-18266031D01*
X21217117Y-18363938D01*
X21163302Y-18481774D01*
X21144867Y-18609997D01*
X21144867Y-18610002D01*
X18176424Y-18610002D01*
X18139073Y-18585998D01*
X18139070Y-18585996D01*
X18139069Y-18585996D01*
X18139066Y-18585995D01*
X18014774Y-18549500D01*
X18014772Y-18549500D01*
X17885228Y-18549500D01*
X17885225Y-18549500D01*
X17760933Y-18585995D01*
X17760926Y-18585998D01*
X17651952Y-18656031D01*
X17567117Y-18753938D01*
X17513302Y-18871774D01*
X17494867Y-18999997D01*
X17494867Y-19000002D01*
X5050000Y-19000002D01*
X5050000Y-17319302D01*
X25198167Y-17319302D01*
X25216602Y-17447525D01*
X25270417Y-17565361D01*
X25270418Y-17565363D01*
X25355251Y-17663267D01*
X25355252Y-17663268D01*
X25464226Y-17733301D01*
X25464231Y-17733304D01*
X25588528Y-17769800D01*
X25588530Y-17769800D01*
X25718070Y-17769800D01*
X25718072Y-17769800D01*
X25842369Y-17733304D01*
X25951349Y-17663267D01*
X26036182Y-17565363D01*
X26089997Y-17447526D01*
X26108433Y-17319300D01*
X26089997Y-17191074D01*
X26036182Y-17073237D01*
X25951349Y-16975333D01*
X25951348Y-16975332D01*
X25951347Y-16975331D01*
X25842373Y-16905298D01*
X25842370Y-16905296D01*
X25842369Y-16905296D01*
X25842366Y-16905295D01*
X25718074Y-16868800D01*
X25718072Y-16868800D01*
X25588528Y-16868800D01*
X25588525Y-16868800D01*
X25464233Y-16905295D01*
X25464226Y-16905298D01*
X25355252Y-16975331D01*
X25270417Y-17073238D01*
X25216602Y-17191074D01*
X25198167Y-17319297D01*
X25198167Y-17319302D01*
X5050000Y-17319302D01*
X5050000Y-15975002D01*
X10769867Y-15975002D01*
X10788302Y-16103225D01*
X10796939Y-16122136D01*
X10842118Y-16221063D01*
X10922705Y-16314067D01*
X10926952Y-16318968D01*
X11028306Y-16384104D01*
X11035931Y-16389004D01*
X11160228Y-16425500D01*
X11160230Y-16425500D01*
X11289770Y-16425500D01*
X11289772Y-16425500D01*
X11414069Y-16389004D01*
X11523049Y-16318967D01*
X11607882Y-16221063D01*
X11661697Y-16103226D01*
X11677976Y-15990001D01*
X14064867Y-15990001D01*
X14083302Y-16118224D01*
X14085089Y-16122136D01*
X14137118Y-16236062D01*
X14221951Y-16333966D01*
X14221952Y-16333967D01*
X14299967Y-16384104D01*
X14330931Y-16404003D01*
X14455228Y-16440499D01*
X14455230Y-16440499D01*
X14584770Y-16440499D01*
X14584772Y-16440499D01*
X14709069Y-16404003D01*
X14764780Y-16368200D01*
X20326668Y-16368200D01*
X20345103Y-16496423D01*
X20398918Y-16614259D01*
X20398919Y-16614261D01*
X20483752Y-16712165D01*
X20483753Y-16712166D01*
X20592727Y-16782199D01*
X20592732Y-16782202D01*
X20717029Y-16818698D01*
X20717031Y-16818698D01*
X20846571Y-16818698D01*
X20846573Y-16818698D01*
X20970870Y-16782202D01*
X21079850Y-16712165D01*
X21164683Y-16614261D01*
X21218498Y-16496424D01*
X21228695Y-16425500D01*
X21236934Y-16368200D01*
X21236934Y-16368195D01*
X21218498Y-16239972D01*
X21209862Y-16221063D01*
X21164683Y-16122135D01*
X21079850Y-16024231D01*
X21079849Y-16024230D01*
X21079848Y-16024229D01*
X20995624Y-15970102D01*
X25893967Y-15970102D01*
X25912402Y-16098325D01*
X25966217Y-16216161D01*
X25966218Y-16216163D01*
X26051051Y-16314067D01*
X26051052Y-16314068D01*
X26160026Y-16384101D01*
X26160031Y-16384104D01*
X26284328Y-16420600D01*
X26284330Y-16420600D01*
X26413870Y-16420600D01*
X26413872Y-16420600D01*
X26538169Y-16384104D01*
X26647149Y-16314067D01*
X26731982Y-16216163D01*
X26785797Y-16098326D01*
X26796450Y-16024231D01*
X26804233Y-15970102D01*
X26804233Y-15970097D01*
X26785797Y-15841874D01*
X26741070Y-15743937D01*
X26731982Y-15724037D01*
X26647149Y-15626133D01*
X26647148Y-15626132D01*
X26647147Y-15626131D01*
X26538173Y-15556098D01*
X26538170Y-15556096D01*
X26538169Y-15556096D01*
X26538166Y-15556095D01*
X26413874Y-15519600D01*
X26413872Y-15519600D01*
X26284328Y-15519600D01*
X26284325Y-15519600D01*
X26160033Y-15556095D01*
X26160026Y-15556098D01*
X26051052Y-15626131D01*
X25966217Y-15724038D01*
X25912402Y-15841874D01*
X25893967Y-15970097D01*
X25893967Y-15970102D01*
X20995624Y-15970102D01*
X20970874Y-15954196D01*
X20970871Y-15954194D01*
X20970870Y-15954194D01*
X20970867Y-15954193D01*
X20846575Y-15917698D01*
X20846573Y-15917698D01*
X20717029Y-15917698D01*
X20717026Y-15917698D01*
X20592734Y-15954193D01*
X20592727Y-15954196D01*
X20483753Y-16024229D01*
X20398918Y-16122136D01*
X20345103Y-16239972D01*
X20326668Y-16368195D01*
X20326668Y-16368200D01*
X14764780Y-16368200D01*
X14818049Y-16333966D01*
X14902882Y-16236062D01*
X14956697Y-16118225D01*
X14970211Y-16024231D01*
X14975133Y-15990001D01*
X14975133Y-15989996D01*
X14956697Y-15861773D01*
X14902882Y-15743937D01*
X14902882Y-15743936D01*
X14818049Y-15646032D01*
X14818048Y-15646031D01*
X14818047Y-15646030D01*
X14709073Y-15575997D01*
X14709070Y-15575995D01*
X14709069Y-15575995D01*
X14709066Y-15575994D01*
X14584774Y-15539499D01*
X14584772Y-15539499D01*
X14455228Y-15539499D01*
X14455225Y-15539499D01*
X14330933Y-15575994D01*
X14330926Y-15575997D01*
X14221952Y-15646030D01*
X14137117Y-15743937D01*
X14083302Y-15861773D01*
X14064867Y-15989996D01*
X14064867Y-15990001D01*
X11677976Y-15990001D01*
X11680133Y-15975002D01*
X11680133Y-15974997D01*
X11661697Y-15846774D01*
X11614732Y-15743937D01*
X11607882Y-15728937D01*
X11523049Y-15631033D01*
X11523048Y-15631032D01*
X11523047Y-15631031D01*
X11414073Y-15560998D01*
X11414070Y-15560996D01*
X11414069Y-15560996D01*
X11397381Y-15556096D01*
X11289774Y-15524500D01*
X11289772Y-15524500D01*
X11160228Y-15524500D01*
X11160225Y-15524500D01*
X11035933Y-15560995D01*
X11035926Y-15560998D01*
X10926952Y-15631031D01*
X10842117Y-15728938D01*
X10788302Y-15846774D01*
X10769867Y-15974997D01*
X10769867Y-15975002D01*
X5050000Y-15975002D01*
X5050000Y-15000000D01*
X5049999Y-15000000D01*
X3399500Y-15000000D01*
X3341309Y-14981093D01*
X3305345Y-14931593D01*
X3300500Y-14901000D01*
X3300500Y-14488200D01*
X37646668Y-14488200D01*
X37665103Y-14616423D01*
X37718918Y-14734259D01*
X37718919Y-14734261D01*
X37803750Y-14832163D01*
X37803753Y-14832166D01*
X37912727Y-14902199D01*
X37912732Y-14902202D01*
X38037029Y-14938698D01*
X38037031Y-14938698D01*
X38155603Y-14938698D01*
X38213794Y-14957605D01*
X38249758Y-15007105D01*
X38249758Y-15068291D01*
X38213794Y-15117791D01*
X38209149Y-15120966D01*
X38186951Y-15135233D01*
X38186950Y-15135233D01*
X38186950Y-15135234D01*
X38102117Y-15233138D01*
X38048302Y-15350974D01*
X38029867Y-15479197D01*
X38029867Y-15479202D01*
X38048302Y-15607425D01*
X38102117Y-15725261D01*
X38102118Y-15725263D01*
X38118299Y-15743937D01*
X38186952Y-15823168D01*
X38223684Y-15846774D01*
X38295931Y-15893204D01*
X38420228Y-15929700D01*
X38420230Y-15929700D01*
X38549770Y-15929700D01*
X38549772Y-15929700D01*
X38674069Y-15893204D01*
X38783049Y-15823167D01*
X38867882Y-15725263D01*
X38921697Y-15607426D01*
X38933620Y-15524500D01*
X38940133Y-15479202D01*
X38940133Y-15479197D01*
X38921697Y-15350974D01*
X38867882Y-15233138D01*
X38867882Y-15233137D01*
X38783049Y-15135233D01*
X38783048Y-15135232D01*
X38783047Y-15135231D01*
X38674073Y-15065198D01*
X38674070Y-15065196D01*
X38674069Y-15065196D01*
X38674066Y-15065195D01*
X38549774Y-15028700D01*
X38549772Y-15028700D01*
X38431198Y-15028700D01*
X38373007Y-15009793D01*
X38337043Y-14960293D01*
X38337043Y-14899107D01*
X38373007Y-14849607D01*
X38377651Y-14846431D01*
X38399850Y-14832165D01*
X38484683Y-14734261D01*
X38538498Y-14616424D01*
X38556934Y-14488198D01*
X38538498Y-14359972D01*
X38484683Y-14242135D01*
X38399850Y-14144231D01*
X38399849Y-14144230D01*
X38399848Y-14144229D01*
X38290874Y-14074196D01*
X38290871Y-14074194D01*
X38290870Y-14074194D01*
X38290867Y-14074193D01*
X38166575Y-14037698D01*
X38166573Y-14037698D01*
X38037029Y-14037698D01*
X38037026Y-14037698D01*
X37912734Y-14074193D01*
X37912727Y-14074196D01*
X37803753Y-14144229D01*
X37718918Y-14242136D01*
X37665103Y-14359972D01*
X37646668Y-14488195D01*
X37646668Y-14488200D01*
X3300500Y-14488200D01*
X3300500Y-13813602D01*
X12344867Y-13813602D01*
X12363302Y-13941825D01*
X12407087Y-14037698D01*
X12417118Y-14059663D01*
X12501951Y-14157567D01*
X12501952Y-14157568D01*
X12610926Y-14227601D01*
X12610931Y-14227604D01*
X12735228Y-14264100D01*
X12735230Y-14264100D01*
X12864770Y-14264100D01*
X12864772Y-14264100D01*
X12989069Y-14227604D01*
X13098049Y-14157567D01*
X13182882Y-14059663D01*
X13215518Y-13988200D01*
X35446668Y-13988200D01*
X35465103Y-14116423D01*
X35483894Y-14157568D01*
X35518919Y-14234261D01*
X35603752Y-14332165D01*
X35603753Y-14332166D01*
X35712727Y-14402199D01*
X35712732Y-14402202D01*
X35837029Y-14438698D01*
X35837031Y-14438698D01*
X35966571Y-14438698D01*
X35966573Y-14438698D01*
X36090870Y-14402202D01*
X36199850Y-14332165D01*
X36284683Y-14234261D01*
X36338498Y-14116424D01*
X36356934Y-13988198D01*
X36338498Y-13859972D01*
X36284683Y-13742135D01*
X36199850Y-13644231D01*
X36199849Y-13644230D01*
X36199848Y-13644229D01*
X36090874Y-13574196D01*
X36090871Y-13574194D01*
X36090870Y-13574194D01*
X36090867Y-13574193D01*
X35966575Y-13537698D01*
X35966573Y-13537698D01*
X35837029Y-13537698D01*
X35837026Y-13537698D01*
X35712734Y-13574193D01*
X35712727Y-13574196D01*
X35603753Y-13644229D01*
X35518918Y-13742136D01*
X35465103Y-13859972D01*
X35446668Y-13988195D01*
X35446668Y-13988200D01*
X13215518Y-13988200D01*
X13236697Y-13941826D01*
X13255133Y-13813600D01*
X13236697Y-13685374D01*
X13182882Y-13567537D01*
X13098049Y-13469633D01*
X13098048Y-13469632D01*
X13098047Y-13469631D01*
X12989073Y-13399598D01*
X12989070Y-13399596D01*
X12989069Y-13399596D01*
X12989066Y-13399595D01*
X12864774Y-13363100D01*
X12864772Y-13363100D01*
X12735228Y-13363100D01*
X12735225Y-13363100D01*
X12610933Y-13399595D01*
X12610926Y-13399598D01*
X12501952Y-13469631D01*
X12417117Y-13567538D01*
X12363302Y-13685374D01*
X12344867Y-13813597D01*
X12344867Y-13813602D01*
X3300500Y-13813602D01*
X3300500Y-12900002D01*
X8394867Y-12900002D01*
X8413302Y-13028225D01*
X8467117Y-13146061D01*
X8467118Y-13146063D01*
X8551951Y-13243967D01*
X8551952Y-13243968D01*
X8660926Y-13314001D01*
X8660931Y-13314004D01*
X8785228Y-13350500D01*
X8785230Y-13350500D01*
X8914770Y-13350500D01*
X8914772Y-13350500D01*
X9039069Y-13314004D01*
X9148049Y-13243967D01*
X9232882Y-13146063D01*
X9286697Y-13028226D01*
X9289639Y-13021785D01*
X9292234Y-13022970D01*
X9319738Y-12982704D01*
X9377355Y-12962115D01*
X9408121Y-12966083D01*
X9414424Y-12967933D01*
X9417029Y-12968698D01*
X9417031Y-12968698D01*
X9546571Y-12968698D01*
X9546573Y-12968698D01*
X9670870Y-12932202D01*
X9779850Y-12862165D01*
X9864683Y-12764261D01*
X9918498Y-12646424D01*
X9931494Y-12556033D01*
X9936934Y-12518200D01*
X9936934Y-12518195D01*
X9918498Y-12389972D01*
X9864683Y-12272136D01*
X9864683Y-12272135D01*
X9779850Y-12174231D01*
X9779849Y-12174230D01*
X9779848Y-12174229D01*
X9670874Y-12104196D01*
X9670871Y-12104194D01*
X9670870Y-12104194D01*
X9670867Y-12104193D01*
X9546575Y-12067698D01*
X9546573Y-12067698D01*
X9417029Y-12067698D01*
X9417026Y-12067698D01*
X9292734Y-12104193D01*
X9292727Y-12104196D01*
X9183753Y-12174229D01*
X9098918Y-12272136D01*
X9042162Y-12396413D01*
X9039575Y-12395231D01*
X9012011Y-12435532D01*
X8954380Y-12456084D01*
X8923683Y-12452115D01*
X8914780Y-12449501D01*
X8914773Y-12449500D01*
X8914772Y-12449500D01*
X8785228Y-12449500D01*
X8785225Y-12449500D01*
X8660933Y-12485995D01*
X8660926Y-12485998D01*
X8551952Y-12556031D01*
X8467117Y-12653938D01*
X8413302Y-12771774D01*
X8394867Y-12899997D01*
X8394867Y-12900002D01*
X3300500Y-12900002D01*
X3300500Y-10700002D01*
X8394867Y-10700002D01*
X8413302Y-10828225D01*
X8441515Y-10890002D01*
X8467118Y-10946063D01*
X8490458Y-10972999D01*
X8551952Y-11043968D01*
X8660926Y-11114001D01*
X8660931Y-11114004D01*
X8785228Y-11150500D01*
X8785230Y-11150500D01*
X8914770Y-11150500D01*
X8914772Y-11150500D01*
X9039069Y-11114004D01*
X9148049Y-11043967D01*
X9232882Y-10946063D01*
X9286697Y-10828226D01*
X9295275Y-10768563D01*
X9305133Y-10700002D01*
X9305133Y-10699997D01*
X9286697Y-10571774D01*
X9264195Y-10522502D01*
X12132267Y-10522502D01*
X12150702Y-10650725D01*
X12204517Y-10768561D01*
X12204518Y-10768563D01*
X12289351Y-10866467D01*
X12289352Y-10866468D01*
X12325964Y-10889997D01*
X12398331Y-10936504D01*
X12522628Y-10973000D01*
X12522630Y-10973000D01*
X12652170Y-10973000D01*
X12652172Y-10973000D01*
X12776469Y-10936504D01*
X12848828Y-10890002D01*
X39864867Y-10890002D01*
X39883302Y-11018225D01*
X39927044Y-11114004D01*
X39937118Y-11136063D01*
X39949627Y-11150499D01*
X40021952Y-11233968D01*
X40130926Y-11304001D01*
X40130931Y-11304004D01*
X40255228Y-11340500D01*
X40255230Y-11340500D01*
X40384770Y-11340500D01*
X40384772Y-11340500D01*
X40509069Y-11304004D01*
X40618049Y-11233967D01*
X40702882Y-11136063D01*
X40756697Y-11018226D01*
X40763200Y-10972999D01*
X40775133Y-10890002D01*
X40775133Y-10889997D01*
X40756697Y-10761774D01*
X40706566Y-10652004D01*
X40702882Y-10643937D01*
X40618049Y-10546033D01*
X40618048Y-10546032D01*
X40618047Y-10546031D01*
X40509073Y-10475998D01*
X40509070Y-10475996D01*
X40509069Y-10475996D01*
X40509066Y-10475995D01*
X40384774Y-10439500D01*
X40384772Y-10439500D01*
X40255228Y-10439500D01*
X40255225Y-10439500D01*
X40130933Y-10475995D01*
X40130926Y-10475998D01*
X40021952Y-10546031D01*
X39937117Y-10643938D01*
X39883302Y-10761774D01*
X39864867Y-10889997D01*
X39864867Y-10890002D01*
X12848828Y-10890002D01*
X12885449Y-10866467D01*
X12970282Y-10768563D01*
X13024097Y-10650726D01*
X13035449Y-10571774D01*
X13042533Y-10522502D01*
X13042533Y-10522497D01*
X13024097Y-10394274D01*
X12974648Y-10285998D01*
X12970282Y-10276437D01*
X12936978Y-10238002D01*
X14567467Y-10238002D01*
X14585902Y-10366225D01*
X14625960Y-10453937D01*
X14639718Y-10484063D01*
X14715719Y-10571774D01*
X14724552Y-10581968D01*
X14831542Y-10650726D01*
X14833531Y-10652004D01*
X14957828Y-10688500D01*
X14957830Y-10688500D01*
X15087370Y-10688500D01*
X15087372Y-10688500D01*
X15211669Y-10652004D01*
X15320649Y-10581967D01*
X15405482Y-10484063D01*
X15459297Y-10366226D01*
X15470832Y-10285996D01*
X15477733Y-10238002D01*
X15477733Y-10237997D01*
X15459297Y-10109774D01*
X15405482Y-9991938D01*
X15405482Y-9991937D01*
X15320649Y-9894033D01*
X15320648Y-9894032D01*
X15320647Y-9894031D01*
X15211673Y-9823998D01*
X15211670Y-9823996D01*
X15211669Y-9823996D01*
X15211666Y-9823995D01*
X15087374Y-9787500D01*
X15087372Y-9787500D01*
X14957828Y-9787500D01*
X14957825Y-9787500D01*
X14833533Y-9823995D01*
X14833526Y-9823998D01*
X14724552Y-9894031D01*
X14639717Y-9991938D01*
X14585902Y-10109774D01*
X14567467Y-10237997D01*
X14567467Y-10238002D01*
X12936978Y-10238002D01*
X12885449Y-10178533D01*
X12885448Y-10178532D01*
X12885447Y-10178531D01*
X12776473Y-10108498D01*
X12776470Y-10108496D01*
X12776469Y-10108496D01*
X12776466Y-10108495D01*
X12652174Y-10072000D01*
X12652172Y-10072000D01*
X12522628Y-10072000D01*
X12522625Y-10072000D01*
X12398333Y-10108495D01*
X12398326Y-10108498D01*
X12289352Y-10178531D01*
X12204517Y-10276438D01*
X12150702Y-10394274D01*
X12132267Y-10522497D01*
X12132267Y-10522502D01*
X9264195Y-10522502D01*
X9264194Y-10522500D01*
X9232882Y-10453937D01*
X9148049Y-10356033D01*
X9148048Y-10356032D01*
X9148047Y-10356031D01*
X9039073Y-10285998D01*
X9039070Y-10285996D01*
X9039069Y-10285996D01*
X9006517Y-10276438D01*
X8914774Y-10249500D01*
X8914772Y-10249500D01*
X8785228Y-10249500D01*
X8785225Y-10249500D01*
X8660933Y-10285995D01*
X8660926Y-10285998D01*
X8551952Y-10356031D01*
X8467117Y-10453938D01*
X8413302Y-10571774D01*
X8394867Y-10699997D01*
X8394867Y-10700002D01*
X3300500Y-10700002D01*
X3300500Y-7856202D01*
X11355167Y-7856202D01*
X11373602Y-7984425D01*
X11397037Y-8035739D01*
X11427418Y-8102263D01*
X11512251Y-8200167D01*
X11512252Y-8200168D01*
X11621226Y-8270201D01*
X11621231Y-8270204D01*
X11745528Y-8306700D01*
X11745530Y-8306700D01*
X11875070Y-8306700D01*
X11875072Y-8306700D01*
X11959865Y-8281803D01*
X38976668Y-8281803D01*
X38995103Y-8410026D01*
X39048918Y-8527862D01*
X39048919Y-8527864D01*
X39133752Y-8625768D01*
X39133753Y-8625769D01*
X39242727Y-8695802D01*
X39242732Y-8695805D01*
X39367029Y-8732301D01*
X39367031Y-8732301D01*
X39496571Y-8732301D01*
X39496573Y-8732301D01*
X39620870Y-8695805D01*
X39729850Y-8625768D01*
X39814683Y-8527864D01*
X39868498Y-8410027D01*
X39886934Y-8281801D01*
X39885266Y-8270201D01*
X39868498Y-8153575D01*
X39814683Y-8035739D01*
X39814683Y-8035738D01*
X39729850Y-7937834D01*
X39729849Y-7937833D01*
X39729848Y-7937832D01*
X39620874Y-7867799D01*
X39620871Y-7867797D01*
X39620870Y-7867797D01*
X39620867Y-7867796D01*
X39496575Y-7831301D01*
X39496573Y-7831301D01*
X39367029Y-7831301D01*
X39367026Y-7831301D01*
X39242734Y-7867796D01*
X39242727Y-7867799D01*
X39133753Y-7937832D01*
X39048918Y-8035739D01*
X38995103Y-8153575D01*
X38976668Y-8281798D01*
X38976668Y-8281803D01*
X11959865Y-8281803D01*
X11999369Y-8270204D01*
X12108349Y-8200167D01*
X12193182Y-8102263D01*
X12246997Y-7984426D01*
X12253696Y-7937832D01*
X12265433Y-7856202D01*
X12265433Y-7856197D01*
X12246997Y-7727974D01*
X12193182Y-7610138D01*
X12193182Y-7610137D01*
X12108349Y-7512233D01*
X12108348Y-7512232D01*
X12108347Y-7512231D01*
X11999373Y-7442198D01*
X11999370Y-7442196D01*
X11999369Y-7442196D01*
X11999366Y-7442195D01*
X11875074Y-7405700D01*
X11875072Y-7405700D01*
X11745528Y-7405700D01*
X11745525Y-7405700D01*
X11621233Y-7442195D01*
X11621226Y-7442198D01*
X11512252Y-7512231D01*
X11427417Y-7610138D01*
X11373602Y-7727974D01*
X11355167Y-7856197D01*
X11355167Y-7856202D01*
X3300500Y-7856202D01*
X3300500Y-7002435D01*
X3300619Y-6997578D01*
X3301868Y-6972156D01*
X3318076Y-6642221D01*
X3319026Y-6632583D01*
X3370872Y-6283062D01*
X3372761Y-6273564D01*
X3458621Y-5930792D01*
X3461430Y-5921533D01*
X3580473Y-5588831D01*
X3584182Y-5579876D01*
X3735264Y-5260440D01*
X3739821Y-5251914D01*
X3921480Y-4948834D01*
X3926873Y-4940765D01*
X4137355Y-4656964D01*
X4143518Y-4649454D01*
X4380806Y-4387645D01*
X4387645Y-4380806D01*
X4649455Y-4143517D01*
X4656964Y-4137355D01*
X4940765Y-3926873D01*
X4948834Y-3921480D01*
X5251914Y-3739821D01*
X5260440Y-3735264D01*
X5579876Y-3584182D01*
X5588831Y-3580473D01*
X5921533Y-3461430D01*
X5930792Y-3458621D01*
X6273564Y-3372761D01*
X6283062Y-3370872D01*
X6632583Y-3319026D01*
X6642221Y-3318076D01*
X6968962Y-3302024D01*
X6997579Y-3300619D01*
X7002436Y-3300500D01*
X7047595Y-3300500D01*
X44952405Y-3300500D01*
X44997564Y-3300500D01*
X45002421Y-3300619D01*
G37*
%TD.AperFunction*%
%TD*%
M02*
