%TF.GenerationSoftware,KiCad,Pcbnew,7.0.11+dfsg-1build4*%
%TF.CreationDate,2026-09-30T06:23:01+00:00*%
%TF.ProjectId,opencycle,6f70656e-6379-4636-9c65-2e6b69636164,rev?*%
%TF.SameCoordinates,Original*%
%TF.FileFunction,Soldermask,Bot*%
%TF.FilePolarity,Negative*%
%FSLAX46Y46*%
G04 Gerber Fmt 4.6, Leading zero omitted, Abs format (unit mm)*
G04 Created by KiCad (PCBNEW 7.0.11+dfsg-1build4) date 2026-09-30 06:23:01*
%MOMM*%
%LPD*%
G01*
G04 APERTURE LIST*
G04 Aperture macros list*
%AMRoundRect*
0 Rectangle with rounded corners*
0 $1 Rounding radius*
0 $2 $3 $4 $5 $6 $7 $8 $9 X,Y pos of 4 corners*
0 Add a 4 corners polygon primitive as box body*
4,1,4,$2,$3,$4,$5,$6,$7,$8,$9,$2,$3,0*
0 Add four circle primitives for the rounded corners*
1,1,$1+$1,$2,$3*
1,1,$1+$1,$4,$5*
1,1,$1+$1,$6,$7*
1,1,$1+$1,$8,$9*
0 Add four rect primitives between the rounded corners*
20,1,$1+$1,$2,$3,$4,$5,0*
20,1,$1+$1,$4,$5,$6,$7,0*
20,1,$1+$1,$6,$7,$8,$9,0*
20,1,$1+$1,$8,$9,$2,$3,0*%
G04 Aperture macros list end*
%ADD10C,0.700000*%
%ADD11C,4.400000*%
%ADD12RoundRect,0.140000X0.170000X-0.140000X0.170000X0.140000X-0.170000X0.140000X-0.170000X-0.140000X0*%
%ADD13RoundRect,0.135000X0.185000X-0.135000X0.185000X0.135000X-0.185000X0.135000X-0.185000X-0.135000X0*%
%ADD14RoundRect,0.140000X0.140000X0.170000X-0.140000X0.170000X-0.140000X-0.170000X0.140000X-0.170000X0*%
%ADD15RoundRect,0.225000X0.250000X-0.225000X0.250000X0.225000X-0.250000X0.225000X-0.250000X-0.225000X0*%
%ADD16C,0.990600*%
%ADD17C,0.787400*%
%ADD18RoundRect,0.250000X0.475000X-0.250000X0.475000X0.250000X-0.475000X0.250000X-0.475000X-0.250000X0*%
%ADD19C,0.650000*%
%ADD20RoundRect,0.150000X0.150000X0.425000X-0.150000X0.425000X-0.150000X-0.425000X0.150000X-0.425000X0*%
%ADD21RoundRect,0.075000X0.075000X0.500000X-0.075000X0.500000X-0.075000X-0.500000X0.075000X-0.500000X0*%
%ADD22O,1.000000X1.800000*%
%ADD23O,1.000000X2.100000*%
%ADD24C,1.500000*%
%ADD25RoundRect,0.135000X0.135000X0.185000X-0.135000X0.185000X-0.135000X-0.185000X0.135000X-0.185000X0*%
%ADD26R,0.900000X1.500000*%
%ADD27R,1.500000X0.900000*%
%ADD28C,0.600000*%
%ADD29R,3.900000X3.900000*%
%ADD30R,0.500000X1.200000*%
%ADD31R,1.200000X0.500000*%
%ADD32RoundRect,0.020000X-0.162500X-0.150000X0.162500X-0.150000X0.162500X0.150000X-0.162500X0.150000X0*%
%ADD33RoundRect,0.020000X-0.150000X-0.162500X0.150000X-0.162500X0.150000X0.162500X-0.150000X0.162500X0*%
%ADD34RoundRect,0.150000X0.512500X0.150000X-0.512500X0.150000X-0.512500X-0.150000X0.512500X-0.150000X0*%
%ADD35C,0.900000*%
%ADD36RoundRect,0.187500X-0.712500X0.187500X-0.712500X-0.187500X0.712500X-0.187500X0.712500X0.187500X0*%
%ADD37RoundRect,0.150000X-0.750000X0.150000X-0.750000X-0.150000X0.750000X-0.150000X0.750000X0.150000X0*%
%ADD38RoundRect,0.225000X-0.225000X0.425000X-0.225000X-0.425000X0.225000X-0.425000X0.225000X0.425000X0*%
%ADD39RoundRect,0.250000X1.500000X-0.250000X1.500000X0.250000X-1.500000X0.250000X-1.500000X-0.250000X0*%
%ADD40RoundRect,0.250001X1.449999X-0.499999X1.449999X0.499999X-1.449999X0.499999X-1.449999X-0.499999X0*%
%ADD41RoundRect,0.225000X0.225000X0.250000X-0.225000X0.250000X-0.225000X-0.250000X0.225000X-0.250000X0*%
%ADD42RoundRect,0.062500X0.350000X0.062500X-0.350000X0.062500X-0.350000X-0.062500X0.350000X-0.062500X0*%
%ADD43RoundRect,0.062500X0.062500X0.350000X-0.062500X0.350000X-0.062500X-0.350000X0.062500X-0.350000X0*%
%ADD44R,1.230000X1.230000*%
%ADD45RoundRect,0.150000X0.587500X0.150000X-0.587500X0.150000X-0.587500X-0.150000X0.587500X-0.150000X0*%
%ADD46RoundRect,0.450000X0.450000X0.650000X-0.450000X0.650000X-0.450000X-0.650000X0.450000X-0.650000X0*%
%ADD47RoundRect,0.187500X0.712500X-0.187500X0.712500X0.187500X-0.712500X0.187500X-0.712500X-0.187500X0*%
%ADD48RoundRect,0.150000X0.750000X-0.150000X0.750000X0.150000X-0.750000X0.150000X-0.750000X-0.150000X0*%
%ADD49RoundRect,0.225000X0.225000X-0.425000X0.225000X0.425000X-0.225000X0.425000X-0.225000X-0.425000X0*%
G04 APERTURE END LIST*
D10*
%TO.C,H4*%
X43850000Y-85900000D03*
X44333274Y-84733274D03*
X44333274Y-87066726D03*
X45500000Y-84250000D03*
D11*
X45500000Y-85900000D03*
D10*
X45500000Y-87550000D03*
X46666726Y-84733274D03*
X46666726Y-87066726D03*
X47150000Y-85900000D03*
%TD*%
%TO.C,H1*%
X4850000Y-6500000D03*
X5333274Y-5333274D03*
X5333274Y-7666726D03*
X6500000Y-4850000D03*
D11*
X6500000Y-6500000D03*
D10*
X6500000Y-8150000D03*
X7666726Y-5333274D03*
X7666726Y-7666726D03*
X8150000Y-6500000D03*
%TD*%
%TO.C,H2*%
X43850000Y-6500000D03*
X44333274Y-5333274D03*
X44333274Y-7666726D03*
X45500000Y-4850000D03*
D11*
X45500000Y-6500000D03*
D10*
X45500000Y-8150000D03*
X46666726Y-5333274D03*
X46666726Y-7666726D03*
X47150000Y-6500000D03*
%TD*%
%TO.C,H3*%
X4850000Y-85900000D03*
X5333274Y-84733274D03*
X5333274Y-87066726D03*
X6500000Y-84250000D03*
D11*
X6500000Y-85900000D03*
D10*
X6500000Y-87550000D03*
X7666726Y-84733274D03*
X7666726Y-87066726D03*
X8150000Y-85900000D03*
%TD*%
D12*
%TO.C,C19*%
X9600000Y-75880000D03*
X9600000Y-74920000D03*
%TD*%
D13*
%TO.C,R14*%
X29400000Y-78710000D03*
X29400000Y-77690000D03*
%TD*%
D14*
%TO.C,C5*%
X16680000Y-29400000D03*
X15720000Y-29400000D03*
%TD*%
D15*
%TO.C,C14*%
X19800000Y-81375000D03*
X19800000Y-79825000D03*
%TD*%
D13*
%TO.C,R24*%
X29200000Y-36510000D03*
X29200000Y-35490000D03*
%TD*%
%TO.C,R18*%
X34600000Y-40510000D03*
X34600000Y-39490000D03*
%TD*%
D15*
%TO.C,C15*%
X31400000Y-79175000D03*
X31400000Y-77625000D03*
%TD*%
D16*
%TO.C,J5*%
X38540000Y-34000000D03*
X33460000Y-35016000D03*
X33460000Y-32984000D03*
D17*
X37270000Y-34635000D03*
X37270000Y-33365000D03*
X36000000Y-34635000D03*
X36000000Y-33365000D03*
X34730000Y-34635000D03*
X34730000Y-33365000D03*
%TD*%
D18*
%TO.C,C1*%
X21600000Y-15550000D03*
X21600000Y-13650000D03*
%TD*%
D19*
%TO.C,J1*%
X28890000Y-83995000D03*
X23110000Y-83995000D03*
D20*
X29200000Y-82920000D03*
X28400000Y-82920000D03*
D21*
X27250000Y-82920000D03*
X26250000Y-82920000D03*
X25750000Y-82920000D03*
X24750000Y-82920000D03*
D20*
X23600000Y-82920000D03*
X22800000Y-82920000D03*
X22800000Y-82920000D03*
X23600000Y-82920000D03*
D21*
X24250000Y-82920000D03*
X25250000Y-82920000D03*
X26750000Y-82920000D03*
X27750000Y-82920000D03*
D20*
X28400000Y-82920000D03*
X29200000Y-82920000D03*
D22*
X30320000Y-87675000D03*
D23*
X30320000Y-83495000D03*
D22*
X21680000Y-87675000D03*
D23*
X21680000Y-83495000D03*
%TD*%
D13*
%TO.C,R13*%
X22600000Y-78710000D03*
X22600000Y-77690000D03*
%TD*%
D24*
%TO.C,FID5*%
X36000000Y-88400000D03*
%TD*%
D25*
%TO.C,R15*%
X35110000Y-81200000D03*
X34090000Y-81200000D03*
%TD*%
D13*
%TO.C,R1*%
X21600000Y-26910000D03*
X21600000Y-25890000D03*
%TD*%
D12*
%TO.C,C2*%
X21600000Y-17880000D03*
X21600000Y-16920000D03*
%TD*%
D13*
%TO.C,R20*%
X14600000Y-76510000D03*
X14600000Y-75490000D03*
%TD*%
D26*
%TO.C,U1*%
X41510000Y-29750000D03*
X40240000Y-29750000D03*
X38970000Y-29750000D03*
X37700000Y-29750000D03*
X36430000Y-29750000D03*
X35160000Y-29750000D03*
X33890000Y-29750000D03*
X32620000Y-29750000D03*
X31350000Y-29750000D03*
X30080000Y-29750000D03*
X28810000Y-29750000D03*
X27540000Y-29750000D03*
X26270000Y-29750000D03*
X25000000Y-29750000D03*
D27*
X23750000Y-27985000D03*
X23750000Y-26715000D03*
X23750000Y-25445000D03*
X23750000Y-24175000D03*
X23750000Y-22905000D03*
X23750000Y-21635000D03*
X23750000Y-20365000D03*
X23750000Y-19095000D03*
X23750000Y-17825000D03*
X23750000Y-16555000D03*
X23750000Y-15285000D03*
X23750000Y-14015000D03*
D26*
X25000000Y-12250000D03*
X26270000Y-12250000D03*
X27540000Y-12250000D03*
X28810000Y-12250000D03*
X30080000Y-12250000D03*
X31350000Y-12250000D03*
X32620000Y-12250000D03*
X33890000Y-12250000D03*
X35160000Y-12250000D03*
X36430000Y-12250000D03*
X37700000Y-12250000D03*
X38970000Y-12250000D03*
X40240000Y-12250000D03*
X41510000Y-12250000D03*
D28*
X33090000Y-23900000D03*
X34490000Y-23900000D03*
X32390000Y-23200000D03*
X33790000Y-23200000D03*
X35190000Y-23200000D03*
X33090000Y-22500000D03*
D29*
X33790000Y-22500000D03*
D28*
X34490000Y-22500000D03*
X32390000Y-21800000D03*
X33790000Y-21800000D03*
X35190000Y-21800000D03*
X33090000Y-21100000D03*
X34490000Y-21100000D03*
%TD*%
D30*
%TO.C,U2*%
X5200000Y-26900000D03*
X5950000Y-26900000D03*
X6700000Y-26900000D03*
X7450000Y-26900000D03*
X8200000Y-26900000D03*
X8950000Y-26900000D03*
X9700000Y-26900000D03*
X10450000Y-26900000D03*
X11200000Y-26900000D03*
X11950000Y-26900000D03*
X12700000Y-26900000D03*
X13450000Y-26900000D03*
X14200000Y-26900000D03*
X14950000Y-26900000D03*
X15700000Y-26900000D03*
X16450000Y-26900000D03*
D31*
X16900000Y-25750000D03*
X16900000Y-25000000D03*
X16900000Y-24250000D03*
X16900000Y-23500000D03*
X16900000Y-22750000D03*
X16900000Y-22000000D03*
X16900000Y-21250000D03*
X16900000Y-20500000D03*
X16900000Y-19750000D03*
X16900000Y-19000000D03*
X16900000Y-18250000D03*
D30*
X16450000Y-17100000D03*
X15700000Y-17100000D03*
X14950000Y-17100000D03*
X14200000Y-17100000D03*
X13450000Y-17100000D03*
X12700000Y-17100000D03*
X11950000Y-17100000D03*
X11200000Y-17100000D03*
X10450000Y-17100000D03*
X9700000Y-17100000D03*
X8950000Y-17100000D03*
X8200000Y-17100000D03*
%TD*%
D32*
%TO.C,U8*%
X44837500Y-48650000D03*
X44837500Y-48150000D03*
D33*
X45100000Y-47637500D03*
X45600000Y-47637500D03*
X46100000Y-47637500D03*
D32*
X46362500Y-48150000D03*
X46362500Y-48650000D03*
D33*
X46100000Y-49162500D03*
X45600000Y-49162500D03*
X45100000Y-49162500D03*
%TD*%
D13*
%TO.C,R11*%
X19800000Y-84710000D03*
X19800000Y-83690000D03*
%TD*%
D34*
%TO.C,D2*%
X27137500Y-78850000D03*
X27137500Y-79800000D03*
X27137500Y-80750000D03*
X24862500Y-80750000D03*
X24862500Y-79800000D03*
X24862500Y-78850000D03*
%TD*%
D35*
%TO.C,SW5*%
X46550000Y-31875000D03*
X46550000Y-36125000D03*
D36*
X45650000Y-32775000D03*
X45650000Y-35225000D03*
D37*
X45650000Y-34000000D03*
D38*
X47600000Y-32150000D03*
X47600000Y-35850000D03*
%TD*%
D39*
%TO.C,J2*%
X46450000Y-79000000D03*
X46450000Y-77000000D03*
D40*
X40700000Y-81350000D03*
X40700000Y-74650000D03*
%TD*%
D41*
%TO.C,C4*%
X14375000Y-29400000D03*
X12825000Y-29400000D03*
%TD*%
D34*
%TO.C,U6*%
X35737500Y-77450000D03*
X35737500Y-78400000D03*
X35737500Y-79350000D03*
X33462500Y-79350000D03*
X33462500Y-77450000D03*
%TD*%
D24*
%TO.C,FID4*%
X16000000Y-88400000D03*
%TD*%
D13*
%TO.C,R16*%
X30000000Y-40510000D03*
X30000000Y-39490000D03*
%TD*%
%TO.C,R12*%
X32200000Y-84710000D03*
X32200000Y-83690000D03*
%TD*%
%TO.C,R19*%
X36000000Y-40510000D03*
X36000000Y-39490000D03*
%TD*%
D42*
%TO.C,U7*%
X13037500Y-78250000D03*
X13037500Y-78750000D03*
X13037500Y-79250000D03*
X13037500Y-79750000D03*
D43*
X12350000Y-80437500D03*
X11850000Y-80437500D03*
X11350000Y-80437500D03*
X10850000Y-80437500D03*
D42*
X10162500Y-79750000D03*
X10162500Y-79250000D03*
X10162500Y-78750000D03*
X10162500Y-78250000D03*
D43*
X10850000Y-77562500D03*
X11350000Y-77562500D03*
X11850000Y-77562500D03*
X12350000Y-77562500D03*
D44*
X11600000Y-79000000D03*
%TD*%
D13*
%TO.C,R17*%
X31400000Y-40510000D03*
X31400000Y-39490000D03*
%TD*%
D45*
%TO.C,Q2*%
X36937500Y-73650000D03*
X36937500Y-75550000D03*
X35062500Y-74600000D03*
%TD*%
D16*
%TO.C,J4*%
X22040000Y-38200000D03*
X16960000Y-39216000D03*
X16960000Y-37184000D03*
D17*
X20770000Y-38835000D03*
X20770000Y-37565000D03*
X19500000Y-38835000D03*
X19500000Y-37565000D03*
X18230000Y-38835000D03*
X18230000Y-37565000D03*
%TD*%
D12*
%TO.C,C3*%
X21600000Y-29080000D03*
X21600000Y-28120000D03*
%TD*%
%TO.C,C17*%
X32799999Y-40480000D03*
X32799999Y-39520000D03*
%TD*%
D13*
%TO.C,R21*%
X25000000Y-36510000D03*
X25000000Y-35490000D03*
%TD*%
D46*
%TO.C,LS1*%
X13300000Y-84600000D03*
X10700000Y-84600000D03*
%TD*%
D35*
%TO.C,SW4*%
X5450000Y-36125000D03*
X5450000Y-31875000D03*
D47*
X6350000Y-35225000D03*
X6350000Y-32775000D03*
D48*
X6350000Y-34000000D03*
D49*
X4400000Y-35850000D03*
X4400000Y-32150000D03*
%TD*%
D14*
%TO.C,C20*%
X46080000Y-51400000D03*
X45120000Y-51400000D03*
%TD*%
D15*
%TO.C,C16*%
X37600000Y-82575000D03*
X37600000Y-81025000D03*
%TD*%
D13*
%TO.C,R25*%
X30600000Y-36510000D03*
X30600000Y-35490000D03*
%TD*%
%TO.C,R22*%
X26400000Y-36510000D03*
X26400000Y-35490000D03*
%TD*%
%TO.C,R23*%
X27800000Y-36510000D03*
X27800000Y-35490000D03*
%TD*%
D15*
%TO.C,C18*%
X7800000Y-76175000D03*
X7800000Y-74625000D03*
%TD*%
D24*
%TO.C,FID6*%
X4600000Y-60000000D03*
%TD*%
M02*
