M48
; DRILL file {KiCad 7.0.11+dfsg-1build4} date Wed Sep 30 06:05:13 2026
; FORMAT={-:-/ absolute / metric / decimal}
; #@! TF.CreationDate,2026-09-30T06:05:13+00:00
; #@! TF.GenerationSoftware,Kicad,Pcbnew,7.0.11+dfsg-1build4
; #@! TF.FileFunction,Plated,1,4,PTH
FMAT,2
METRIC
; #@! TA.AperFunction,Plated,PTH,ComponentDrill
T1C0.200
; #@! TA.AperFunction,Plated,PTH,ViaDrill
T2C0.250
; #@! TA.AperFunction,Plated,PTH,ViaDrill
T3C0.300
; #@! TA.AperFunction,Plated,PTH,ComponentDrill
T4C0.400
; #@! TA.AperFunction,Plated,PTH,ComponentDrill
T5C0.600
; #@! TA.AperFunction,Plated,PTH,ComponentDrill
T6C2.200
%
G90
G05
T1
X32.39Y-21.8
X32.39Y-23.2
X33.09Y-21.1
X33.09Y-22.5
X33.09Y-23.9
X33.79Y-21.8
X33.79Y-23.2
X34.49Y-21.1
X34.49Y-22.5
X34.49Y-23.9
X35.19Y-21.8
X35.19Y-23.2
T2
X34.75Y-45.6
X43.587Y-48.15
X45.6Y-46.387
T3
X3.632Y-31.382
X3.632Y-36.618
X4.5Y-9.5
X4.5Y-12.0
X4.5Y-39.5
X4.5Y-42.0
X4.5Y-47.0
X4.5Y-49.5
X4.5Y-52.0
X4.5Y-54.5
X4.5Y-57.0
X4.5Y-62.0
X4.5Y-64.5
X4.5Y-67.0
X4.5Y-69.5
X4.5Y-72.0
X4.5Y-74.5
X4.5Y-77.0
X4.5Y-79.5
X4.5Y-82.0
X5.0Y-34.0
X5.2Y-29.5
X7.0Y-9.5
X7.0Y-19.5
X7.0Y-22.0
X7.0Y-24.5
X7.0Y-29.5
X7.0Y-79.5
X7.0Y-82.0
X7.582Y-34.068
X7.582Y-36.368
X7.632Y-16.532
X7.8Y-73.725
X8.4Y-37.5
X8.4Y-41.3
X8.783Y-76.175
X8.85Y-10.7
X8.85Y-12.9
X9.3Y-78.75
X9.482Y-12.518
X9.5Y-22.0
X9.5Y-24.5
X9.5Y-37.0
X9.5Y-42.0
X9.5Y-44.5
X9.5Y-47.0
X9.5Y-49.5
X9.5Y-52.0
X9.5Y-54.5
X9.5Y-57.0
X9.5Y-59.5
X9.5Y-62.0
X9.5Y-64.5
X9.5Y-67.0
X9.5Y-69.5
X9.5Y-72.0
X9.5Y-87.0
X9.532Y-4.532
X9.6Y-74.19
X10.4Y-38.19
X10.4Y-40.61
X10.445Y-31.215
X11.18Y-81.646
X11.225Y-15.975
X11.241Y-30.591
X11.743Y-28.568
X11.81Y-7.856
X11.85Y-76.7
X11.925Y-29.4
X12.0Y-4.5
X12.0Y-19.5
X12.0Y-24.5
X12.0Y-37.0
X12.0Y-39.5
X12.0Y-42.0
X12.0Y-44.5
X12.0Y-47.0
X12.0Y-87.0
X12.587Y-10.522
X12.665Y-79.0
X12.775Y-15.975
X12.8Y-13.814
X13.0Y-50.1
X13.9Y-78.75
X14.45Y-79.25
X14.5Y-4.5
X14.5Y-19.5
X14.5Y-22.0
X14.5Y-87.0
X14.52Y-15.99
X14.521Y-54.269
X14.6Y-74.77
X14.95Y-32.0
X14.95Y-33.0
X14.95Y-34.0
X15.023Y-10.238
X15.143Y-28.632
X15.478Y-80.982
X15.478Y-86.418
X15.48Y-15.99
X15.65Y-46.85
X15.701Y-36.527
X15.72Y-30.16
X17.0Y-4.5
X17.0Y-42.0
X17.0Y-74.5
X17.0Y-77.0
X17.0Y-79.5
X17.0Y-82.0
X17.0Y-87.0
X17.018Y-27.468
X17.18Y-48.35
X17.41Y-29.4
X17.468Y-17.682
X17.472Y-44.675
X17.803Y-30.151
X17.95Y-19.0
X18.23Y-39.679
X18.35Y-11.8
X18.6Y-41.725
X18.6Y-45.075
X19.25Y-45.75
X19.5Y-17.0
X19.5Y-19.5
X19.5Y-22.0
X19.5Y-24.5
X19.5Y-52.0
X19.5Y-54.5
X19.5Y-57.0
X19.5Y-59.5
X19.5Y-62.0
X19.5Y-64.5
X19.5Y-67.0
X19.5Y-69.5
X19.5Y-72.0
X19.5Y-77.0
X19.598Y-25.997
X19.75Y-47.95
X19.8Y-78.925
X19.8Y-82.97
X20.106Y-26.51
X20.368Y-14.668
X20.6Y-42.19
X20.6Y-44.61
X20.782Y-16.368
X20.811Y-23.992
X21.482Y-39.547
X21.6Y-11.85
X21.6Y-18.61
X22.0Y-19.5
X22.0Y-49.5
X22.0Y-54.5
X22.0Y-57.0
X22.0Y-59.5
X22.0Y-62.0
X22.0Y-64.5
X22.0Y-67.0
X22.0Y-69.5
X22.0Y-72.0
X22.0Y-74.5
X22.139Y-40.977
X22.182Y-82.302
X22.25Y-45.75
X22.31Y-25.517
X22.36Y-16.92
X22.36Y-28.12
X22.37Y-26.91
X22.65Y-46.85
X22.8Y-81.895
X23.218Y-46.382
X23.502Y-34.853
X23.559Y-41.246
X23.625Y-30.753
X23.75Y-45.75
X23.91Y-77.808
X24.15Y-46.85
X24.225Y-83.906
X24.498Y-42.763
X24.5Y-4.5
X24.5Y-49.5
X24.5Y-52.0
X24.718Y-46.382
X24.95Y-7.15
X25.0Y-37.23
X25.25Y-45.75
X25.437Y-28.169
X25.62Y-84.048
X25.653Y-17.319
X25.727Y-37.089
X26.0Y-50.715
X26.0Y-77.808
X26.05Y-79.898
X26.218Y-46.382
X26.294Y-40.128
X26.349Y-15.97
X26.4Y-37.23
X26.513Y-84.76
X26.75Y-45.75
X26.85Y-46.85
X26.913Y-31.194
X26.913Y-43.064
X27.0Y-7.0
X27.0Y-44.5
X27.0Y-49.5
X27.0Y-52.0
X27.0Y-54.5
X27.0Y-57.0
X27.0Y-59.5
X27.0Y-62.0
X27.0Y-64.5
X27.0Y-67.0
X27.0Y-69.5
X27.0Y-72.0
X27.0Y-74.5
X27.0Y-87.0
X27.718Y-46.382
X27.718Y-86.418
X27.8Y-37.23
X27.85Y-81.625
X28.25Y-45.75
X28.25Y-79.8
X28.35Y-46.85
X28.5Y-26.79
X28.5Y-36.9
X29.2Y-37.23
X29.2Y-81.895
X29.218Y-46.382
X29.45Y-7.15
X29.5Y-4.5
X29.5Y-14.5
X29.5Y-19.5
X29.5Y-49.5
X29.5Y-52.0
X29.5Y-54.5
X29.5Y-57.0
X29.5Y-59.5
X29.5Y-62.0
X29.5Y-64.5
X29.5Y-67.0
X29.5Y-69.5
X29.5Y-72.0
X29.5Y-74.5
X29.549Y-32.83
X29.75Y-45.75
X29.818Y-82.302
X29.85Y-46.85
X29.915Y-23.466
X30.25Y-47.95
X30.418Y-24.357
X30.6Y-37.23
X30.793Y-44.95
X31.25Y-45.75
X31.4Y-38.77
X31.4Y-76.725
X31.433Y-31.751
X31.433Y-34.889
X31.522Y-24.768
X31.75Y-47.95
X32.0Y-7.0
X32.0Y-49.5
X32.0Y-52.0
X32.0Y-54.5
X32.0Y-57.0
X32.0Y-59.5
X32.0Y-62.0
X32.0Y-64.5
X32.0Y-67.0
X32.0Y-69.5
X32.0Y-72.0
X32.0Y-74.5
X32.0Y-82.0
X32.046Y-36.695
X32.185Y-41.017
X32.2Y-82.97
X32.25Y-45.75
X32.75Y-47.922
X32.8Y-38.79
X33.37Y-81.2
X34.458Y-75.988
X34.5Y-4.5
X34.5Y-7.0
X34.5Y-87.0
X34.73Y-35.479
X34.777Y-41.225
X35.25Y-47.95
X35.268Y-26.79
X35.268Y-37.917
X35.902Y-13.988
X36.0Y-38.77
X36.748Y-21.182
X36.82Y-51.609
X36.82Y-76.743
X36.85Y-78.4
X37.0Y-4.5
X37.0Y-7.0
X37.0Y-39.5
X37.082Y-24.678
X37.252Y-31.574
X37.556Y-73.032
X37.574Y-22.0
X37.6Y-80.125
X37.615Y-37.029
X37.871Y-44.544
X37.982Y-35.347
X38.099Y-27.819
X38.102Y-14.488
X38.122Y-30.931
X38.485Y-15.479
X38.624Y-19.67
X38.644Y-45.368
X38.672Y-80.982
X39.0Y-50.1
X39.432Y-8.282
X39.432Y-10.518
X39.5Y-4.5
X39.5Y-47.0
X39.5Y-52.0
X39.5Y-54.5
X39.5Y-57.0
X39.5Y-59.5
X39.5Y-62.0
X39.5Y-64.5
X39.5Y-67.0
X39.5Y-69.5
X39.5Y-72.0
X39.5Y-84.5
X39.632Y-73.582
X39.663Y-31.897
X39.958Y-86.418
X40.24Y-30.95
X40.32Y-10.89
X40.7Y-82.55
X40.875Y-28.162
X41.28Y-13.31
X41.51Y-11.05
X41.51Y-30.95
X42.0Y-4.5
X42.0Y-7.0
X42.0Y-32.0
X42.0Y-47.0
X42.0Y-49.5
X42.0Y-52.0
X42.0Y-54.5
X42.0Y-57.0
X42.0Y-59.5
X42.0Y-62.0
X42.0Y-64.5
X42.0Y-67.0
X42.0Y-69.5
X42.0Y-72.0
X42.0Y-79.5
X42.0Y-84.5
X42.0Y-87.0
X43.4Y-42.57
X44.3Y-34.0
X44.369Y-49.118
X44.384Y-49.878
X44.39Y-51.4
X44.5Y-9.5
X44.5Y-39.5
X44.5Y-54.5
X44.5Y-57.0
X44.5Y-59.5
X44.5Y-62.0
X44.5Y-64.5
X44.5Y-67.0
X44.5Y-69.5
X44.5Y-72.0
X44.5Y-74.5
X44.5Y-82.0
X44.632Y-47.169
X45.6Y-50.325
X46.1Y-49.775
X46.568Y-47.169
X46.81Y-51.4
X46.831Y-49.118
X46.975Y-48.15
X47.0Y-9.5
X47.0Y-39.5
X47.0Y-42.0
X47.0Y-44.5
X47.0Y-54.5
X47.0Y-57.0
X47.0Y-59.5
X47.0Y-62.0
X47.0Y-64.5
X47.0Y-67.0
X47.0Y-69.5
X47.0Y-72.0
X47.0Y-74.5
X47.0Y-82.0
X47.268Y-79.818
X48.368Y-31.382
X48.368Y-36.618
T4
X4.85Y-6.5
X4.85Y-85.9
X5.333Y-5.333
X5.333Y-7.667
X5.333Y-84.733
X5.333Y-87.067
X6.5Y-4.85
X6.5Y-8.15
X6.5Y-84.25
X6.5Y-87.55
X7.667Y-5.333
X7.667Y-7.667
X7.667Y-84.733
X7.667Y-87.067
X8.15Y-6.5
X8.15Y-85.9
X43.85Y-6.5
X43.85Y-85.9
X44.333Y-5.333
X44.333Y-7.667
X44.333Y-84.733
X44.333Y-87.067
X45.5Y-4.85
X45.5Y-8.15
X45.5Y-84.25
X45.5Y-87.55
X46.667Y-5.333
X46.667Y-7.667
X46.667Y-84.733
X46.667Y-87.067
X47.15Y-6.5
X47.15Y-85.9
T6
X6.5Y-6.5
X6.5Y-85.9
X45.5Y-6.5
X45.5Y-85.9
T5
X21.68Y-84.045G85X21.68Y-82.945
G05
X21.68Y-88.075G85X21.68Y-87.275
G05
X30.32Y-84.045G85X30.32Y-82.945
G05
X30.32Y-88.075G85X30.32Y-87.275
G05
M30
